0
SECTION
2
HEADER
9
$INSUNITS
70
4
9
$ACADVER
1
AC1014
9
$HANDSEED
5
FFFF
0
ENDSEC
0
SECTION
2
TABLES
0
TABLE
2
VPORT
5
8
100
AcDbSymbolTable
0
ENDTAB
0
TABLE
2
LTYPE
5
5
100
AcDbSymbolTable
0
LTYPE
5
14
100
AcDbSymbolTableRecord
100
AcDbLinetypeTableRecord
2
BYBLOCK
70
0
0
LTYPE
5
15
100
AcDbSymbolTableRecord
100
AcDbLinetypeTableRecord
2
BYLAYER
70
0
0
ENDTAB
0
TABLE
2
LAYER
5
2
100
AcDbSymbolTable
70
2
0
LAYER
5
50
100
AcDbSymbolTableRecord
100
AcDbLayerTableRecord
2
0
70
0
6
CONTINUOUS
0
ENDTAB
0
TABLE
2
STYLE
5
3
100
AcDbSymbolTable
70
1
0
STYLE
5
11
100
AcDbSymbolTableRecord
100
AcDbTextStyleTableRecord
2
STANDARD
70
0
0
ENDTAB
0
TABLE
2
VIEW
5
6
100
AcDbSymbolTable
70
0
0
ENDTAB
0
TABLE
2
UCS
5
7
100
AcDbSymbolTable
70
0
0
ENDTAB
0
TABLE
2
APPID
5
9
100
AcDbSymbolTable
70
2
0
APPID
5
12
100
AcDbSymbolTableRecord
100
AcDbRegAppTableRecord
2
ACAD
70
0
0
ENDTAB
0
TABLE
2
DIMSTYLE
5
A
100
AcDbSymbolTable
70
1
0
ENDTAB
0
TABLE
2
BLOCK_RECORD
5
1
100
AcDbSymbolTable
70
1
0
BLOCK_RECORD
5
1F
100
AcDbSymbolTableRecord
100
AcDbBlockTableRecord
2
*MODEL_SPACE
0
BLOCK_RECORD
5
1B
100
AcDbSymbolTableRecord
100
AcDbBlockTableRecord
2
*PAPER_SPACE
0
ENDTAB
0
ENDSEC
0
SECTION
2
BLOCKS
0
BLOCK
5
20
100
AcDbEntity
100
AcDbBlockBegin
2
*MODEL_SPACE
0
ENDBLK
5
21
100
AcDbEntity
100
AcDbBlockEnd
0
BLOCK
5
1C
100
AcDbEntity
100
AcDbBlockBegin
2
*PAPER_SPACE
0
ENDBLK
5
1D
100
AcDbEntity
100
AcDbBlockEnd
0
ENDSEC
0
SECTION
2
ENTITIES
0
LWPOLYLINE
5
100
100
AcDbEntity
8
0
100
AcDbPolyline
90
12
70
1
43
0.0
10
-39.422077980134389
20
-42.422077980134397
10
31.5779220198656
20
-42.422077980134397
42
0.41421356237309503
10
34.577922019865611
20
-39.422077980134389
10
34.577922019865611
20
31.577922019865611
42
0.41421356237309503
10
31.577922019865614
20
34.577922019865603
10
12.577922019865607
20
34.577922019865603
42
0.41421356237309503
10
9.577922019865607
20
31.577922019865603
10
9.5779220198655945
20
18.81326099022089
42
-0.33945425886337577
10
7.3543791551731541
20
15.915483511353681
10
-40.198535115441949
20
3.1737185347959351
42
0.3394542588633761
10
-42.422077980134397
20
0.27594105592871898
10
-42.422077980134397
20
-39.422077980134389
42
0.41421356237309503
0
LINE
5
101
100
AcDbEntity
8
0
100
AcDbLine
10
34.577922019865611
20
-42.422077980134397
30
0
11
-31.637626083052126
21
38.814762785064893
31
0
0
LINE
5
102
100
AcDbEntity
8
0
100
AcDbLine
10
-42.422077980134397
20
-42.422077980134397
30
0
11
34.577922019865611
21
34.577922019865603
31
0
0
LINE
5
103
100
AcDbEntity
8
0
100
AcDbLine
10
-3.9220779801343939
20
-105.92207836756458
30
0
11
-3.9220779801343939
21
21.077922407295798
31
0
0
CIRCLE
5
104
100
AcDbEntity
8
0
100
AcDbCircle
10
5.577922019865607
20
-30.422077980134397
30
0
40
1.0000000149011612
0
CIRCLE
5
105
100
AcDbEntity
8
0
100
AcDbCircle
10
24.577922019865607
20
-30.422077980134397
30
0
40
1
0
CIRCLE
5
106
100
AcDbEntity
8
0
100
AcDbCircle
10
-32.422077980134389
20
-30.422077980134397
30
0
40
1
0
CIRCLE
5
107
100
AcDbEntity
8
0
100
AcDbCircle
10
-13.422077980134395
20
-30.422077980134397
30
0
40
1.0000000149011612
0
LINE
5
108
100
AcDbEntity
8
0
100
AcDbLine
10
-48.725939767617547
20
-20.922077980134404
30
0
11
45.838895293751548
21
-20.922077980134269
31
0
0
CIRCLE
5
109
100
AcDbEntity
8
0
100
AcDbCircle
10
-32.422077980134418
20
-11.422077980134365
30
0
40
1
0
CIRCLE
5
110
100
AcDbEntity
8
0
100
AcDbCircle
10
-13.422077980134423
20
-11.422077980134304
30
0
40
1.0000000149011612
0
CIRCLE
5
111
100
AcDbEntity
8
0
100
AcDbCircle
10
5.5779220198655803
20
-11.422077980134251
30
0
40
1.0000000149011612
0
CIRCLE
5
112
100
AcDbEntity
8
0
100
AcDbCircle
10
24.577922019865575
20
-11.422077980134198
30
0
40
1
0
LINE
5
113
100
AcDbEntity
8
0
100
AcDbLine
10
5.577922019865607
20
-30.422077980134397
30
0
11
24.577922019865607
21
-30.422077980134397
31
0
0
CIRCLE
5
114
100
AcDbEntity
8
0
100
AcDbCircle
10
-39.422077980134389
20
-39.422077980134389
30
0
40
1.5000000000000002
0
LINE
5
115
100
AcDbEntity
8
0
100
AcDbLine
10
-24.500777301100616
20
-38.503048333941891
30
0
11
-40.343378659168167
21
-38.503048333941898
31
0
0
LINE
5
116
100
AcDbEntity
8
0
100
AcDbLine
10
-40.343378659168167
20
-38.503048333941898
30
0
11
-40.343378659168167
21
-22.341107626326881
31
0
0
LINE
5
117
100
AcDbEntity
8
0
100
AcDbLine
10
-40.343378659168167
20
-22.341107626326881
30
0
11
-24.500777301100616
21
-22.341107626326881
31
0
0
LINE
5
118
100
AcDbEntity
8
0
100
AcDbLine
10
-24.500777301100616
20
-22.341107626326881
30
0
11
-24.500777301100616
21
-38.503048333941891
31
0
0
LINE
5
119
100
AcDbEntity
8
0
100
AcDbLine
10
-24.500777301100616
20
-38.503048333941891
30
0
11
-40.343378659168167
21
-22.341107626326881
31
0
0
LINE
5
120
100
AcDbEntity
8
0
100
AcDbLine
10
-40.343378659168167
20
-38.503048333941898
30
0
11
-24.500777301100616
21
-22.341107626326881
31
0
0
CIRCLE
5
121
100
AcDbEntity
8
0
100
AcDbCircle
10
-39.422077980134389
20
-39.422077980134389
30
0
40
1
0
CIRCLE
5
122
100
AcDbEntity
8
0
100
AcDbCircle
10
31.5779220198656
20
-39.422077980134389
30
0
40
1
0
CIRCLE
5
123
100
AcDbEntity
8
0
100
AcDbCircle
10
-39.422077980134389
20
0.27594105592872009
30
0
40
1
0
CIRCLE
5
124
100
AcDbEntity
8
0
100
AcDbCircle
10
31.577922019865614
20
31.577922019865611
30
0
40
1
0
CIRCLE
5
125
100
AcDbEntity
8
0
100
AcDbCircle
10
12.577922019865607
20
31.577922019865603
30
0
40
1
0
ENDSEC
0
SECTION
2
OBJECTS
0
DICTIONARY
5
C
100
AcDbDictionary
3
ACAD_GROUP
350
D
3
ACAD_MLINESTYLE
350
17
0
DICTIONARY
5
D
100
AcDbDictionary
0
DICTIONARY
5
1A
330
C
100
AcDbDictionary
0
DICTIONARY
5
17
100
AcDbDictionary
0
ENDSEC
0
EOF
