G04 #@! TF.FileFunction,Legend,Top*
%FSLAX46Y46*%
G04 Gerber Fmt 4.6, Leading zero omitted, Abs format (unit mm)*
G04 Created by KiCad (PCBNEW 4.0.4-stable) date 07/06/18 23:02:20*
%MOMM*%
%LPD*%
G01*
G04 APERTURE LIST*
%ADD10C,0.100000*%
%ADD11C,0.250000*%
%ADD12C,0.120000*%
%ADD13C,0.500000*%
%ADD14C,0.150000*%
G04 APERTURE END LIST*
D10*
D11*
X150317143Y-151592381D02*
X149983809Y-151116190D01*
X149745714Y-151592381D02*
X149745714Y-150592381D01*
X150126667Y-150592381D01*
X150221905Y-150640000D01*
X150269524Y-150687619D01*
X150317143Y-150782857D01*
X150317143Y-150925714D01*
X150269524Y-151020952D01*
X150221905Y-151068571D01*
X150126667Y-151116190D01*
X149745714Y-151116190D01*
X150650476Y-150592381D02*
X151317143Y-151592381D01*
X151317143Y-150592381D02*
X150650476Y-151592381D01*
X152412381Y-150544762D02*
X151555238Y-151830476D01*
X152745714Y-151592381D02*
X152745714Y-150592381D01*
X152983809Y-150592381D01*
X153126667Y-150640000D01*
X153221905Y-150735238D01*
X153269524Y-150830476D01*
X153317143Y-151020952D01*
X153317143Y-151163810D01*
X153269524Y-151354286D01*
X153221905Y-151449524D01*
X153126667Y-151544762D01*
X152983809Y-151592381D01*
X152745714Y-151592381D01*
X153936190Y-150592381D02*
X154031429Y-150592381D01*
X154126667Y-150640000D01*
X154174286Y-150687619D01*
X154221905Y-150782857D01*
X154269524Y-150973333D01*
X154269524Y-151211429D01*
X154221905Y-151401905D01*
X154174286Y-151497143D01*
X154126667Y-151544762D01*
X154031429Y-151592381D01*
X153936190Y-151592381D01*
X153840952Y-151544762D01*
X153793333Y-151497143D01*
X153745714Y-151401905D01*
X153698095Y-151211429D01*
X153698095Y-150973333D01*
X153745714Y-150782857D01*
X153793333Y-150687619D01*
X153840952Y-150640000D01*
X153936190Y-150592381D01*
X149840952Y-148052381D02*
X150412381Y-148052381D01*
X150126666Y-149052381D02*
X150126666Y-148052381D01*
X150650476Y-148052381D02*
X151317143Y-149052381D01*
X151317143Y-148052381D02*
X150650476Y-149052381D01*
X152412381Y-148004762D02*
X151555238Y-149290476D01*
X152745714Y-149052381D02*
X152745714Y-148052381D01*
X152983809Y-148052381D01*
X153126667Y-148100000D01*
X153221905Y-148195238D01*
X153269524Y-148290476D01*
X153317143Y-148480952D01*
X153317143Y-148623810D01*
X153269524Y-148814286D01*
X153221905Y-148909524D01*
X153126667Y-149004762D01*
X152983809Y-149052381D01*
X152745714Y-149052381D01*
X154269524Y-149052381D02*
X153698095Y-149052381D01*
X153983809Y-149052381D02*
X153983809Y-148052381D01*
X153888571Y-148195238D01*
X153793333Y-148290476D01*
X153698095Y-148338095D01*
X152745714Y-143972381D02*
X152745714Y-142972381D01*
X152983809Y-142972381D01*
X153126667Y-143020000D01*
X153221905Y-143115238D01*
X153269524Y-143210476D01*
X153317143Y-143400952D01*
X153317143Y-143543810D01*
X153269524Y-143734286D01*
X153221905Y-143829524D01*
X153126667Y-143924762D01*
X152983809Y-143972381D01*
X152745714Y-143972381D01*
X153650476Y-142972381D02*
X154269524Y-142972381D01*
X153936190Y-143353333D01*
X154079048Y-143353333D01*
X154174286Y-143400952D01*
X154221905Y-143448571D01*
X154269524Y-143543810D01*
X154269524Y-143781905D01*
X154221905Y-143877143D01*
X154174286Y-143924762D01*
X154079048Y-143972381D01*
X153793333Y-143972381D01*
X153698095Y-143924762D01*
X153650476Y-143877143D01*
X152745714Y-141432381D02*
X152745714Y-140432381D01*
X152983809Y-140432381D01*
X153126667Y-140480000D01*
X153221905Y-140575238D01*
X153269524Y-140670476D01*
X153317143Y-140860952D01*
X153317143Y-141003810D01*
X153269524Y-141194286D01*
X153221905Y-141289524D01*
X153126667Y-141384762D01*
X152983809Y-141432381D01*
X152745714Y-141432381D01*
X154174286Y-140765714D02*
X154174286Y-141432381D01*
X153936190Y-140384762D02*
X153698095Y-141099048D01*
X154317143Y-141099048D01*
X152745714Y-138892381D02*
X152745714Y-137892381D01*
X152983809Y-137892381D01*
X153126667Y-137940000D01*
X153221905Y-138035238D01*
X153269524Y-138130476D01*
X153317143Y-138320952D01*
X153317143Y-138463810D01*
X153269524Y-138654286D01*
X153221905Y-138749524D01*
X153126667Y-138844762D01*
X152983809Y-138892381D01*
X152745714Y-138892381D01*
X154221905Y-137892381D02*
X153745714Y-137892381D01*
X153698095Y-138368571D01*
X153745714Y-138320952D01*
X153840952Y-138273333D01*
X154079048Y-138273333D01*
X154174286Y-138320952D01*
X154221905Y-138368571D01*
X154269524Y-138463810D01*
X154269524Y-138701905D01*
X154221905Y-138797143D01*
X154174286Y-138844762D01*
X154079048Y-138892381D01*
X153840952Y-138892381D01*
X153745714Y-138844762D01*
X153698095Y-138797143D01*
X152745714Y-136352381D02*
X152745714Y-135352381D01*
X152983809Y-135352381D01*
X153126667Y-135400000D01*
X153221905Y-135495238D01*
X153269524Y-135590476D01*
X153317143Y-135780952D01*
X153317143Y-135923810D01*
X153269524Y-136114286D01*
X153221905Y-136209524D01*
X153126667Y-136304762D01*
X152983809Y-136352381D01*
X152745714Y-136352381D01*
X154174286Y-135352381D02*
X153983809Y-135352381D01*
X153888571Y-135400000D01*
X153840952Y-135447619D01*
X153745714Y-135590476D01*
X153698095Y-135780952D01*
X153698095Y-136161905D01*
X153745714Y-136257143D01*
X153793333Y-136304762D01*
X153888571Y-136352381D01*
X154079048Y-136352381D01*
X154174286Y-136304762D01*
X154221905Y-136257143D01*
X154269524Y-136161905D01*
X154269524Y-135923810D01*
X154221905Y-135828571D01*
X154174286Y-135780952D01*
X154079048Y-135733333D01*
X153888571Y-135733333D01*
X153793333Y-135780952D01*
X153745714Y-135828571D01*
X153698095Y-135923810D01*
X150110476Y-146512381D02*
X150110476Y-145512381D01*
X150681905Y-146512381D01*
X150681905Y-145512381D01*
X151729524Y-146417143D02*
X151681905Y-146464762D01*
X151539048Y-146512381D01*
X151443810Y-146512381D01*
X151300952Y-146464762D01*
X151205714Y-146369524D01*
X151158095Y-146274286D01*
X151110476Y-146083810D01*
X151110476Y-145940952D01*
X151158095Y-145750476D01*
X151205714Y-145655238D01*
X151300952Y-145560000D01*
X151443810Y-145512381D01*
X151539048Y-145512381D01*
X151681905Y-145560000D01*
X151729524Y-145607619D01*
X150110476Y-133812381D02*
X150110476Y-132812381D01*
X150681905Y-133812381D01*
X150681905Y-132812381D01*
X151729524Y-133717143D02*
X151681905Y-133764762D01*
X151539048Y-133812381D01*
X151443810Y-133812381D01*
X151300952Y-133764762D01*
X151205714Y-133669524D01*
X151158095Y-133574286D01*
X151110476Y-133383810D01*
X151110476Y-133240952D01*
X151158095Y-133050476D01*
X151205714Y-132955238D01*
X151300952Y-132860000D01*
X151443810Y-132812381D01*
X151539048Y-132812381D01*
X151681905Y-132860000D01*
X151729524Y-132907619D01*
X150110476Y-129748381D02*
X150110476Y-128748381D01*
X150681905Y-129748381D01*
X150681905Y-128748381D01*
X151729524Y-129653143D02*
X151681905Y-129700762D01*
X151539048Y-129748381D01*
X151443810Y-129748381D01*
X151300952Y-129700762D01*
X151205714Y-129605524D01*
X151158095Y-129510286D01*
X151110476Y-129319810D01*
X151110476Y-129176952D01*
X151158095Y-128986476D01*
X151205714Y-128891238D01*
X151300952Y-128796000D01*
X151443810Y-128748381D01*
X151539048Y-128748381D01*
X151681905Y-128796000D01*
X151729524Y-128843619D01*
X152745714Y-127208381D02*
X152745714Y-126208381D01*
X152983809Y-126208381D01*
X153126667Y-126256000D01*
X153221905Y-126351238D01*
X153269524Y-126446476D01*
X153317143Y-126636952D01*
X153317143Y-126779810D01*
X153269524Y-126970286D01*
X153221905Y-127065524D01*
X153126667Y-127160762D01*
X152983809Y-127208381D01*
X152745714Y-127208381D01*
X153793333Y-127208381D02*
X153983809Y-127208381D01*
X154079048Y-127160762D01*
X154126667Y-127113143D01*
X154221905Y-126970286D01*
X154269524Y-126779810D01*
X154269524Y-126398857D01*
X154221905Y-126303619D01*
X154174286Y-126256000D01*
X154079048Y-126208381D01*
X153888571Y-126208381D01*
X153793333Y-126256000D01*
X153745714Y-126303619D01*
X153698095Y-126398857D01*
X153698095Y-126636952D01*
X153745714Y-126732190D01*
X153793333Y-126779810D01*
X153888571Y-126827429D01*
X154079048Y-126827429D01*
X154174286Y-126779810D01*
X154221905Y-126732190D01*
X154269524Y-126636952D01*
X151793333Y-124668381D02*
X151793333Y-123668381D01*
X152031428Y-123668381D01*
X152174286Y-123716000D01*
X152269524Y-123811238D01*
X152317143Y-123906476D01*
X152364762Y-124096952D01*
X152364762Y-124239810D01*
X152317143Y-124430286D01*
X152269524Y-124525524D01*
X152174286Y-124620762D01*
X152031428Y-124668381D01*
X151793333Y-124668381D01*
X153317143Y-124668381D02*
X152745714Y-124668381D01*
X153031428Y-124668381D02*
X153031428Y-123668381D01*
X152936190Y-123811238D01*
X152840952Y-123906476D01*
X152745714Y-123954095D01*
X153936190Y-123668381D02*
X154031429Y-123668381D01*
X154126667Y-123716000D01*
X154174286Y-123763619D01*
X154221905Y-123858857D01*
X154269524Y-124049333D01*
X154269524Y-124287429D01*
X154221905Y-124477905D01*
X154174286Y-124573143D01*
X154126667Y-124620762D01*
X154031429Y-124668381D01*
X153936190Y-124668381D01*
X153840952Y-124620762D01*
X153793333Y-124573143D01*
X153745714Y-124477905D01*
X153698095Y-124287429D01*
X153698095Y-124049333D01*
X153745714Y-123858857D01*
X153793333Y-123763619D01*
X153840952Y-123716000D01*
X153936190Y-123668381D01*
X151793333Y-122128381D02*
X151793333Y-121128381D01*
X152031428Y-121128381D01*
X152174286Y-121176000D01*
X152269524Y-121271238D01*
X152317143Y-121366476D01*
X152364762Y-121556952D01*
X152364762Y-121699810D01*
X152317143Y-121890286D01*
X152269524Y-121985524D01*
X152174286Y-122080762D01*
X152031428Y-122128381D01*
X151793333Y-122128381D01*
X153317143Y-122128381D02*
X152745714Y-122128381D01*
X153031428Y-122128381D02*
X153031428Y-121128381D01*
X152936190Y-121271238D01*
X152840952Y-121366476D01*
X152745714Y-121414095D01*
X154269524Y-122128381D02*
X153698095Y-122128381D01*
X153983809Y-122128381D02*
X153983809Y-121128381D01*
X153888571Y-121271238D01*
X153793333Y-121366476D01*
X153698095Y-121414095D01*
X151793333Y-119588381D02*
X151793333Y-118588381D01*
X152031428Y-118588381D01*
X152174286Y-118636000D01*
X152269524Y-118731238D01*
X152317143Y-118826476D01*
X152364762Y-119016952D01*
X152364762Y-119159810D01*
X152317143Y-119350286D01*
X152269524Y-119445524D01*
X152174286Y-119540762D01*
X152031428Y-119588381D01*
X151793333Y-119588381D01*
X153317143Y-119588381D02*
X152745714Y-119588381D01*
X153031428Y-119588381D02*
X153031428Y-118588381D01*
X152936190Y-118731238D01*
X152840952Y-118826476D01*
X152745714Y-118874095D01*
X153698095Y-118683619D02*
X153745714Y-118636000D01*
X153840952Y-118588381D01*
X154079048Y-118588381D01*
X154174286Y-118636000D01*
X154221905Y-118683619D01*
X154269524Y-118778857D01*
X154269524Y-118874095D01*
X154221905Y-119016952D01*
X153650476Y-119588381D01*
X154269524Y-119588381D01*
X151793333Y-117048381D02*
X151793333Y-116048381D01*
X152031428Y-116048381D01*
X152174286Y-116096000D01*
X152269524Y-116191238D01*
X152317143Y-116286476D01*
X152364762Y-116476952D01*
X152364762Y-116619810D01*
X152317143Y-116810286D01*
X152269524Y-116905524D01*
X152174286Y-117000762D01*
X152031428Y-117048381D01*
X151793333Y-117048381D01*
X153317143Y-117048381D02*
X152745714Y-117048381D01*
X153031428Y-117048381D02*
X153031428Y-116048381D01*
X152936190Y-116191238D01*
X152840952Y-116286476D01*
X152745714Y-116334095D01*
X153650476Y-116048381D02*
X154269524Y-116048381D01*
X153936190Y-116429333D01*
X154079048Y-116429333D01*
X154174286Y-116476952D01*
X154221905Y-116524571D01*
X154269524Y-116619810D01*
X154269524Y-116857905D01*
X154221905Y-116953143D01*
X154174286Y-117000762D01*
X154079048Y-117048381D01*
X153793333Y-117048381D01*
X153698095Y-117000762D01*
X153650476Y-116953143D01*
X152174286Y-113556000D02*
X152079048Y-113508381D01*
X151936191Y-113508381D01*
X151793333Y-113556000D01*
X151698095Y-113651238D01*
X151650476Y-113746476D01*
X151602857Y-113936952D01*
X151602857Y-114079810D01*
X151650476Y-114270286D01*
X151698095Y-114365524D01*
X151793333Y-114460762D01*
X151936191Y-114508381D01*
X152031429Y-114508381D01*
X152174286Y-114460762D01*
X152221905Y-114413143D01*
X152221905Y-114079810D01*
X152031429Y-114079810D01*
X152650476Y-114508381D02*
X152650476Y-113508381D01*
X153221905Y-114508381D01*
X153221905Y-113508381D01*
X153698095Y-114508381D02*
X153698095Y-113508381D01*
X153936190Y-113508381D01*
X154079048Y-113556000D01*
X154174286Y-113651238D01*
X154221905Y-113746476D01*
X154269524Y-113936952D01*
X154269524Y-114079810D01*
X154221905Y-114270286D01*
X154174286Y-114365524D01*
X154079048Y-114460762D01*
X153936190Y-114508381D01*
X153698095Y-114508381D01*
X151031428Y-111682667D02*
X151507619Y-111682667D01*
X150936190Y-111968381D02*
X151269523Y-110968381D01*
X151602857Y-111968381D01*
X152507619Y-111968381D02*
X152174285Y-111492190D01*
X151936190Y-111968381D02*
X151936190Y-110968381D01*
X152317143Y-110968381D01*
X152412381Y-111016000D01*
X152460000Y-111063619D01*
X152507619Y-111158857D01*
X152507619Y-111301714D01*
X152460000Y-111396952D01*
X152412381Y-111444571D01*
X152317143Y-111492190D01*
X151936190Y-111492190D01*
X152936190Y-111444571D02*
X153269524Y-111444571D01*
X153412381Y-111968381D02*
X152936190Y-111968381D01*
X152936190Y-110968381D01*
X153412381Y-110968381D01*
X154174286Y-111444571D02*
X153840952Y-111444571D01*
X153840952Y-111968381D02*
X153840952Y-110968381D01*
X154317143Y-110968381D01*
X151840952Y-109380762D02*
X151983809Y-109428381D01*
X152221905Y-109428381D01*
X152317143Y-109380762D01*
X152364762Y-109333143D01*
X152412381Y-109237905D01*
X152412381Y-109142667D01*
X152364762Y-109047429D01*
X152317143Y-108999810D01*
X152221905Y-108952190D01*
X152031428Y-108904571D01*
X151936190Y-108856952D01*
X151888571Y-108809333D01*
X151840952Y-108714095D01*
X151840952Y-108618857D01*
X151888571Y-108523619D01*
X151936190Y-108476000D01*
X152031428Y-108428381D01*
X152269524Y-108428381D01*
X152412381Y-108476000D01*
X152840952Y-109428381D02*
X152840952Y-108428381D01*
X153079047Y-108428381D01*
X153221905Y-108476000D01*
X153317143Y-108571238D01*
X153364762Y-108666476D01*
X153412381Y-108856952D01*
X153412381Y-108999810D01*
X153364762Y-109190286D01*
X153317143Y-109285524D01*
X153221905Y-109380762D01*
X153079047Y-109428381D01*
X152840952Y-109428381D01*
X153793333Y-109142667D02*
X154269524Y-109142667D01*
X153698095Y-109428381D02*
X154031428Y-108428381D01*
X154364762Y-109428381D01*
X151888571Y-106840762D02*
X152031428Y-106888381D01*
X152269524Y-106888381D01*
X152364762Y-106840762D01*
X152412381Y-106793143D01*
X152460000Y-106697905D01*
X152460000Y-106602667D01*
X152412381Y-106507429D01*
X152364762Y-106459810D01*
X152269524Y-106412190D01*
X152079047Y-106364571D01*
X151983809Y-106316952D01*
X151936190Y-106269333D01*
X151888571Y-106174095D01*
X151888571Y-106078857D01*
X151936190Y-105983619D01*
X151983809Y-105936000D01*
X152079047Y-105888381D01*
X152317143Y-105888381D01*
X152460000Y-105936000D01*
X153460000Y-106793143D02*
X153412381Y-106840762D01*
X153269524Y-106888381D01*
X153174286Y-106888381D01*
X153031428Y-106840762D01*
X152936190Y-106745524D01*
X152888571Y-106650286D01*
X152840952Y-106459810D01*
X152840952Y-106316952D01*
X152888571Y-106126476D01*
X152936190Y-106031238D01*
X153031428Y-105936000D01*
X153174286Y-105888381D01*
X153269524Y-105888381D01*
X153412381Y-105936000D01*
X153460000Y-105983619D01*
X154364762Y-106888381D02*
X153888571Y-106888381D01*
X153888571Y-105888381D01*
X110454476Y-151306667D02*
X110930667Y-151306667D01*
X110359238Y-151592381D02*
X110692571Y-150592381D01*
X111025905Y-151592381D01*
X111835429Y-150592381D02*
X111359238Y-150592381D01*
X111311619Y-151068571D01*
X111359238Y-151020952D01*
X111454476Y-150973333D01*
X111692572Y-150973333D01*
X111787810Y-151020952D01*
X111835429Y-151068571D01*
X111883048Y-151163810D01*
X111883048Y-151401905D01*
X111835429Y-151497143D01*
X111787810Y-151544762D01*
X111692572Y-151592381D01*
X111454476Y-151592381D01*
X111359238Y-151544762D01*
X111311619Y-151497143D01*
X110454476Y-148766667D02*
X110930667Y-148766667D01*
X110359238Y-149052381D02*
X110692571Y-148052381D01*
X111025905Y-149052381D01*
X111787810Y-148385714D02*
X111787810Y-149052381D01*
X111549714Y-148004762D02*
X111311619Y-148719048D01*
X111930667Y-148719048D01*
X110454476Y-146226667D02*
X110930667Y-146226667D01*
X110359238Y-146512381D02*
X110692571Y-145512381D01*
X111025905Y-146512381D01*
X111264000Y-145512381D02*
X111883048Y-145512381D01*
X111549714Y-145893333D01*
X111692572Y-145893333D01*
X111787810Y-145940952D01*
X111835429Y-145988571D01*
X111883048Y-146083810D01*
X111883048Y-146321905D01*
X111835429Y-146417143D01*
X111787810Y-146464762D01*
X111692572Y-146512381D01*
X111406857Y-146512381D01*
X111311619Y-146464762D01*
X111264000Y-146417143D01*
X110454476Y-143686667D02*
X110930667Y-143686667D01*
X110359238Y-143972381D02*
X110692571Y-142972381D01*
X111025905Y-143972381D01*
X111311619Y-143067619D02*
X111359238Y-143020000D01*
X111454476Y-142972381D01*
X111692572Y-142972381D01*
X111787810Y-143020000D01*
X111835429Y-143067619D01*
X111883048Y-143162857D01*
X111883048Y-143258095D01*
X111835429Y-143400952D01*
X111264000Y-143972381D01*
X111883048Y-143972381D01*
X110454476Y-141146667D02*
X110930667Y-141146667D01*
X110359238Y-141432381D02*
X110692571Y-140432381D01*
X111025905Y-141432381D01*
X111883048Y-141432381D02*
X111311619Y-141432381D01*
X111597333Y-141432381D02*
X111597333Y-140432381D01*
X111502095Y-140575238D01*
X111406857Y-140670476D01*
X111311619Y-140718095D01*
X110708476Y-138606667D02*
X111184667Y-138606667D01*
X110613238Y-138892381D02*
X110946571Y-137892381D01*
X111279905Y-138892381D01*
X111803714Y-137892381D02*
X111898953Y-137892381D01*
X111994191Y-137940000D01*
X112041810Y-137987619D01*
X112089429Y-138082857D01*
X112137048Y-138273333D01*
X112137048Y-138511429D01*
X112089429Y-138701905D01*
X112041810Y-138797143D01*
X111994191Y-138844762D01*
X111898953Y-138892381D01*
X111803714Y-138892381D01*
X111708476Y-138844762D01*
X111660857Y-138797143D01*
X111613238Y-138701905D01*
X111565619Y-138511429D01*
X111565619Y-138273333D01*
X111613238Y-138082857D01*
X111660857Y-137987619D01*
X111708476Y-137940000D01*
X111803714Y-137892381D01*
X113279905Y-137844762D02*
X112422762Y-139130476D01*
X113613238Y-138892381D02*
X113613238Y-137892381D01*
X113851333Y-137892381D01*
X113994191Y-137940000D01*
X114089429Y-138035238D01*
X114137048Y-138130476D01*
X114184667Y-138320952D01*
X114184667Y-138463810D01*
X114137048Y-138654286D01*
X114089429Y-138749524D01*
X113994191Y-138844762D01*
X113851333Y-138892381D01*
X113613238Y-138892381D01*
X114565619Y-138606667D02*
X115041810Y-138606667D01*
X114470381Y-138892381D02*
X114803714Y-137892381D01*
X115137048Y-138892381D01*
X116041810Y-138797143D02*
X115994191Y-138844762D01*
X115851334Y-138892381D01*
X115756096Y-138892381D01*
X115613238Y-138844762D01*
X115518000Y-138749524D01*
X115470381Y-138654286D01*
X115422762Y-138463810D01*
X115422762Y-138320952D01*
X115470381Y-138130476D01*
X115518000Y-138035238D01*
X115613238Y-137940000D01*
X115756096Y-137892381D01*
X115851334Y-137892381D01*
X115994191Y-137940000D01*
X116041810Y-137987619D01*
X110438762Y-132812381D02*
X110772095Y-133812381D01*
X111105429Y-132812381D01*
X111438762Y-133812381D02*
X111438762Y-132812381D01*
X111914952Y-133812381D02*
X111914952Y-132812381D01*
X112486381Y-133812381D01*
X112486381Y-132812381D01*
X110772096Y-130320000D02*
X110676858Y-130272381D01*
X110534001Y-130272381D01*
X110391143Y-130320000D01*
X110295905Y-130415238D01*
X110248286Y-130510476D01*
X110200667Y-130700952D01*
X110200667Y-130843810D01*
X110248286Y-131034286D01*
X110295905Y-131129524D01*
X110391143Y-131224762D01*
X110534001Y-131272381D01*
X110629239Y-131272381D01*
X110772096Y-131224762D01*
X110819715Y-131177143D01*
X110819715Y-130843810D01*
X110629239Y-130843810D01*
X111248286Y-131272381D02*
X111248286Y-130272381D01*
X111819715Y-131272381D01*
X111819715Y-130272381D01*
X112295905Y-131272381D02*
X112295905Y-130272381D01*
X112534000Y-130272381D01*
X112676858Y-130320000D01*
X112772096Y-130415238D01*
X112819715Y-130510476D01*
X112867334Y-130700952D01*
X112867334Y-130843810D01*
X112819715Y-131034286D01*
X112772096Y-131129524D01*
X112676858Y-131224762D01*
X112534000Y-131272381D01*
X112295905Y-131272381D01*
X110772096Y-127780000D02*
X110676858Y-127732381D01*
X110534001Y-127732381D01*
X110391143Y-127780000D01*
X110295905Y-127875238D01*
X110248286Y-127970476D01*
X110200667Y-128160952D01*
X110200667Y-128303810D01*
X110248286Y-128494286D01*
X110295905Y-128589524D01*
X110391143Y-128684762D01*
X110534001Y-128732381D01*
X110629239Y-128732381D01*
X110772096Y-128684762D01*
X110819715Y-128637143D01*
X110819715Y-128303810D01*
X110629239Y-128303810D01*
X111248286Y-128732381D02*
X111248286Y-127732381D01*
X111819715Y-128732381D01*
X111819715Y-127732381D01*
X112295905Y-128732381D02*
X112295905Y-127732381D01*
X112534000Y-127732381D01*
X112676858Y-127780000D01*
X112772096Y-127875238D01*
X112819715Y-127970476D01*
X112867334Y-128160952D01*
X112867334Y-128303810D01*
X112819715Y-128494286D01*
X112772096Y-128589524D01*
X112676858Y-128684762D01*
X112534000Y-128732381D01*
X112295905Y-128732381D01*
X110208667Y-125192381D02*
X110542000Y-126192381D01*
X110875334Y-125192381D01*
X111208667Y-125192381D02*
X111208667Y-126001905D01*
X111256286Y-126097143D01*
X111303905Y-126144762D01*
X111399143Y-126192381D01*
X111589620Y-126192381D01*
X111684858Y-126144762D01*
X111732477Y-126097143D01*
X111780096Y-126001905D01*
X111780096Y-125192381D01*
X112208667Y-126144762D02*
X112351524Y-126192381D01*
X112589620Y-126192381D01*
X112684858Y-126144762D01*
X112732477Y-126097143D01*
X112780096Y-126001905D01*
X112780096Y-125906667D01*
X112732477Y-125811429D01*
X112684858Y-125763810D01*
X112589620Y-125716190D01*
X112399143Y-125668571D01*
X112303905Y-125620952D01*
X112256286Y-125573333D01*
X112208667Y-125478095D01*
X112208667Y-125382857D01*
X112256286Y-125287619D01*
X112303905Y-125240000D01*
X112399143Y-125192381D01*
X112637239Y-125192381D01*
X112780096Y-125240000D01*
X113542001Y-125668571D02*
X113684858Y-125716190D01*
X113732477Y-125763810D01*
X113780096Y-125859048D01*
X113780096Y-126001905D01*
X113732477Y-126097143D01*
X113684858Y-126144762D01*
X113589620Y-126192381D01*
X113208667Y-126192381D01*
X113208667Y-125192381D01*
X113542001Y-125192381D01*
X113637239Y-125240000D01*
X113684858Y-125287619D01*
X113732477Y-125382857D01*
X113732477Y-125478095D01*
X113684858Y-125573333D01*
X113637239Y-125620952D01*
X113542001Y-125668571D01*
X113208667Y-125668571D01*
X110295905Y-122652381D02*
X110914953Y-122652381D01*
X110581619Y-123033333D01*
X110724477Y-123033333D01*
X110819715Y-123080952D01*
X110867334Y-123128571D01*
X110914953Y-123223810D01*
X110914953Y-123461905D01*
X110867334Y-123557143D01*
X110819715Y-123604762D01*
X110724477Y-123652381D01*
X110438762Y-123652381D01*
X110343524Y-123604762D01*
X110295905Y-123557143D01*
X111200667Y-122652381D02*
X111534000Y-123652381D01*
X111867334Y-122652381D01*
X112105429Y-122652381D02*
X112724477Y-122652381D01*
X112391143Y-123033333D01*
X112534001Y-123033333D01*
X112629239Y-123080952D01*
X112676858Y-123128571D01*
X112724477Y-123223810D01*
X112724477Y-123461905D01*
X112676858Y-123557143D01*
X112629239Y-123604762D01*
X112534001Y-123652381D01*
X112248286Y-123652381D01*
X112153048Y-123604762D01*
X112105429Y-123557143D01*
X110843619Y-121112381D02*
X110510285Y-120636190D01*
X110272190Y-121112381D02*
X110272190Y-120112381D01*
X110653143Y-120112381D01*
X110748381Y-120160000D01*
X110796000Y-120207619D01*
X110843619Y-120302857D01*
X110843619Y-120445714D01*
X110796000Y-120540952D01*
X110748381Y-120588571D01*
X110653143Y-120636190D01*
X110272190Y-120636190D01*
X111272190Y-120588571D02*
X111605524Y-120588571D01*
X111748381Y-121112381D02*
X111272190Y-121112381D01*
X111272190Y-120112381D01*
X111748381Y-120112381D01*
X112129333Y-121064762D02*
X112272190Y-121112381D01*
X112510286Y-121112381D01*
X112605524Y-121064762D01*
X112653143Y-121017143D01*
X112700762Y-120921905D01*
X112700762Y-120826667D01*
X112653143Y-120731429D01*
X112605524Y-120683810D01*
X112510286Y-120636190D01*
X112319809Y-120588571D01*
X112224571Y-120540952D01*
X112176952Y-120493333D01*
X112129333Y-120398095D01*
X112129333Y-120302857D01*
X112176952Y-120207619D01*
X112224571Y-120160000D01*
X112319809Y-120112381D01*
X112557905Y-120112381D01*
X112700762Y-120160000D01*
X113129333Y-120588571D02*
X113462667Y-120588571D01*
X113605524Y-121112381D02*
X113129333Y-121112381D01*
X113129333Y-120112381D01*
X113605524Y-120112381D01*
X113891238Y-120112381D02*
X114462667Y-120112381D01*
X114176952Y-121112381D02*
X114176952Y-120112381D01*
D12*
X114845000Y-99575000D02*
X114845000Y-98750000D01*
X114845000Y-98750000D02*
X122995000Y-98750000D01*
X122995000Y-98750000D02*
X122995000Y-99575000D01*
X114845000Y-103125000D02*
X114845000Y-103950000D01*
X114845000Y-103950000D02*
X117145000Y-103950000D01*
X122995000Y-103125000D02*
X122995000Y-103950000D01*
X122995000Y-103950000D02*
X120695000Y-103950000D01*
X117145000Y-103950000D02*
X117145000Y-106350000D01*
D13*
X124477107Y-122525000D02*
G75*
G03X124477107Y-122525000I-707107J0D01*
G01*
D10*
X123770000Y-144525000D02*
X123770000Y-122525000D01*
X141770000Y-144525000D02*
X123770000Y-144525000D01*
X141770000Y-122525000D02*
X141770000Y-144525000D01*
X123770000Y-122525000D02*
X141770000Y-122525000D01*
D12*
X144420000Y-103450000D02*
X143970000Y-103450000D01*
X144420000Y-101600000D02*
X144420000Y-103450000D01*
X136620000Y-99050000D02*
X136620000Y-99300000D01*
X144420000Y-99050000D02*
X144420000Y-99300000D01*
X136620000Y-101600000D02*
X136620000Y-103450000D01*
X136620000Y-103450000D02*
X137070000Y-103450000D01*
X142220000Y-104000000D02*
X141770000Y-104000000D01*
X142220000Y-104000000D02*
X142220000Y-103550000D01*
X152670000Y-147380000D02*
X155330000Y-147380000D01*
X152670000Y-147320000D02*
X152670000Y-147380000D01*
X155330000Y-147320000D02*
X155330000Y-147380000D01*
X152670000Y-147320000D02*
X155330000Y-147320000D01*
X152670000Y-146050000D02*
X152670000Y-144720000D01*
X152670000Y-144720000D02*
X154000000Y-144720000D01*
X152670000Y-134660000D02*
X155330000Y-134660000D01*
X152670000Y-134600000D02*
X152670000Y-134660000D01*
X155330000Y-134600000D02*
X155330000Y-134660000D01*
X152670000Y-134600000D02*
X155330000Y-134600000D01*
X152670000Y-133330000D02*
X152670000Y-132000000D01*
X152670000Y-132000000D02*
X154000000Y-132000000D01*
X152670000Y-130590000D02*
X155330000Y-130590000D01*
X152670000Y-130530000D02*
X152670000Y-130590000D01*
X155330000Y-130530000D02*
X155330000Y-130590000D01*
X152670000Y-130530000D02*
X155330000Y-130530000D01*
X152670000Y-129260000D02*
X152670000Y-127930000D01*
X152670000Y-127930000D02*
X154000000Y-127930000D01*
X110670000Y-119420000D02*
X113330000Y-119420000D01*
X110670000Y-119360000D02*
X110670000Y-119420000D01*
X113330000Y-119360000D02*
X113330000Y-119420000D01*
X110670000Y-119360000D02*
X113330000Y-119360000D01*
X110670000Y-118090000D02*
X110670000Y-116760000D01*
X110670000Y-116760000D02*
X112000000Y-116760000D01*
D14*
X118586667Y-97302381D02*
X118586667Y-98016667D01*
X118539047Y-98159524D01*
X118443809Y-98254762D01*
X118300952Y-98302381D01*
X118205714Y-98302381D01*
X119586667Y-98302381D02*
X119015238Y-98302381D01*
X119300952Y-98302381D02*
X119300952Y-97302381D01*
X119205714Y-97445238D01*
X119110476Y-97540476D01*
X119015238Y-97588095D01*
X140186667Y-104252381D02*
X140186667Y-104966667D01*
X140139047Y-105109524D01*
X140043809Y-105204762D01*
X139900952Y-105252381D01*
X139805714Y-105252381D01*
X140615238Y-104347619D02*
X140662857Y-104300000D01*
X140758095Y-104252381D01*
X140996191Y-104252381D01*
X141091429Y-104300000D01*
X141139048Y-104347619D01*
X141186667Y-104442857D01*
X141186667Y-104538095D01*
X141139048Y-104680952D01*
X140567619Y-105252381D01*
X141186667Y-105252381D01*
X155761905Y-99284381D02*
X156428572Y-100284381D01*
X156428572Y-99284381D02*
X155761905Y-100284381D01*
X156761905Y-99998667D02*
X157238096Y-99998667D01*
X156666667Y-100284381D02*
X157000000Y-99284381D01*
X157333334Y-100284381D01*
X158190477Y-100284381D02*
X157619048Y-100284381D01*
X157904762Y-100284381D02*
X157904762Y-99284381D01*
X157809524Y-99427238D01*
X157714286Y-99522476D01*
X157619048Y-99570095D01*
X138181143Y-150094000D02*
X138228762Y-150046381D01*
X138276381Y-150094000D01*
X138228762Y-150141619D01*
X138181143Y-150094000D01*
X138276381Y-150094000D01*
M02*
