G04 #@! TF.FileFunction,Copper,L1,Top,Signal*
%FSLAX46Y46*%
G04 Gerber Fmt 4.6, Leading zero omitted, Abs format (unit mm)*
G04 Created by KiCad (PCBNEW 4.0.4-stable) date 07/06/18 23:02:20*
%MOMM*%
%LPD*%
G01*
G04 APERTURE LIST*
%ADD10C,0.100000*%
%ADD11R,1.000000X5.500000*%
%ADD12R,1.600000X3.000000*%
%ADD13O,3.000000X1.500000*%
%ADD14O,1.500000X3.000000*%
%ADD15R,1.500000X1.900000*%
%ADD16C,1.450000*%
%ADD17R,0.400000X1.350000*%
%ADD18O,1.200000X1.900000*%
%ADD19R,1.200000X1.900000*%
%ADD20O,1.727200X1.727200*%
%ADD21R,1.700000X1.700000*%
%ADD22C,0.600000*%
%ADD23C,0.400000*%
%ADD24C,0.200000*%
%ADD25C,0.600000*%
%ADD26C,0.254000*%
G04 APERTURE END LIST*
D10*
D11*
X117920000Y-103600000D03*
X119920000Y-103600000D03*
D12*
X115520000Y-101350000D03*
X122320000Y-101350000D03*
D13*
X123770000Y-134525000D03*
X123770000Y-132525000D03*
X123770000Y-130525000D03*
X123770000Y-128525000D03*
X123770000Y-140525000D03*
X123770000Y-136525000D03*
X123770000Y-142525000D03*
X123770000Y-138525000D03*
X123770000Y-126525000D03*
X123770000Y-124525000D03*
D14*
X127770000Y-144525000D03*
X129770000Y-144525000D03*
X131770000Y-144525000D03*
X133770000Y-144525000D03*
X135770000Y-144525000D03*
X137770000Y-144525000D03*
D13*
X141770000Y-130525000D03*
X141770000Y-128525000D03*
X141770000Y-132525000D03*
X141770000Y-134525000D03*
X141770000Y-126525000D03*
X141770000Y-124525000D03*
X141770000Y-140525000D03*
X141770000Y-142525000D03*
X141770000Y-136525000D03*
X141770000Y-138525000D03*
D14*
X130770000Y-122525000D03*
X134770000Y-122525000D03*
X128770000Y-122525000D03*
X132770000Y-122525000D03*
X136770000Y-122525000D03*
D15*
X139520000Y-100450000D03*
D16*
X143020000Y-103150000D03*
D17*
X141170000Y-103150000D03*
X141820000Y-103150000D03*
X139220000Y-103150000D03*
X139870000Y-103150000D03*
X140520000Y-103150000D03*
D16*
X138020000Y-103150000D03*
D15*
X141520000Y-100450000D03*
D18*
X144020000Y-100450000D03*
X137020000Y-100450000D03*
D19*
X137620000Y-100450000D03*
X143420000Y-100450000D03*
D20*
X131220000Y-151237000D03*
X131220000Y-153777000D03*
X133760000Y-153777000D03*
X133760000Y-151237000D03*
X136300000Y-153777000D03*
X108360000Y-138410000D03*
X108360000Y-133330000D03*
X108360000Y-130790000D03*
X108360000Y-128250000D03*
X108360000Y-125710000D03*
X108360000Y-123170000D03*
X108360000Y-120630000D03*
X108360000Y-118090000D03*
X156620000Y-151110000D03*
X156620000Y-148570000D03*
X156620000Y-146030000D03*
X156620000Y-143490000D03*
X156620000Y-140950000D03*
X156620000Y-138410000D03*
X156620000Y-135870000D03*
X156620000Y-133330000D03*
X156620000Y-114026000D03*
X156620000Y-129266000D03*
X156620000Y-126726000D03*
X156620000Y-124186000D03*
X156620000Y-106406000D03*
X156620000Y-108946000D03*
X156620000Y-111486000D03*
X156620000Y-116566000D03*
X156620000Y-119106000D03*
X156620000Y-121646000D03*
X108360000Y-115550000D03*
X108360000Y-140950000D03*
X108360000Y-143490000D03*
X108360000Y-146030000D03*
X108360000Y-148570000D03*
X108360000Y-151110000D03*
X136300000Y-151237000D03*
D21*
X154000000Y-146050000D03*
X154000000Y-133330000D03*
X154000000Y-129260000D03*
X112000000Y-118090000D03*
D22*
X139728000Y-101864000D03*
X139466109Y-104786805D03*
X128745000Y-119675000D03*
X117870000Y-107350000D03*
X135920000Y-131800000D03*
X135995000Y-130250000D03*
X135945000Y-128625000D03*
X116255000Y-128525000D03*
X137245000Y-141625000D03*
X135870000Y-133425000D03*
X136120000Y-141900000D03*
X136195000Y-134700000D03*
X147970000Y-112250000D03*
X119270000Y-127450000D03*
X119370000Y-124850000D03*
X133895000Y-124725000D03*
D23*
X139870000Y-103150000D02*
X139870000Y-102006000D01*
X139870000Y-102006000D02*
X139728000Y-101864000D01*
X139766108Y-104486806D02*
X139466109Y-104786805D01*
X139870000Y-104382914D02*
X139766108Y-104486806D01*
X139870000Y-103150000D02*
X139870000Y-104382914D01*
X128770000Y-122525000D02*
X128770000Y-119700000D01*
X128770000Y-119700000D02*
X128745000Y-119675000D01*
X117920000Y-103600000D02*
X117920000Y-107300000D01*
X117920000Y-107300000D02*
X117870000Y-107350000D01*
X123770000Y-134525000D02*
X133195000Y-134525000D01*
X133195000Y-134525000D02*
X135920000Y-131800000D01*
X123770000Y-132525000D02*
X133720000Y-132525000D01*
X133720000Y-132525000D02*
X135995000Y-130250000D01*
X123770000Y-130525000D02*
X134045000Y-130525000D01*
X134045000Y-130525000D02*
X135945000Y-128625000D01*
X108360000Y-120630000D02*
X116255000Y-128525000D01*
X116255000Y-128525000D02*
X123770000Y-128525000D01*
X123770000Y-140525000D02*
X136145000Y-140525000D01*
X136145000Y-140525000D02*
X137245000Y-141625000D01*
X123770000Y-136525000D02*
X132770000Y-136525000D01*
X132770000Y-136525000D02*
X135870000Y-133425000D01*
X123770000Y-142525000D02*
X135495000Y-142525000D01*
X135495000Y-142525000D02*
X136120000Y-141900000D01*
X123770000Y-138525000D02*
X132370000Y-138525000D01*
X132370000Y-138525000D02*
X136195000Y-134700000D01*
X144495000Y-117875000D02*
X144495000Y-115725000D01*
X144495000Y-115725000D02*
X147970000Y-112250000D01*
X135420000Y-126950000D02*
X144495000Y-117875000D01*
X126095000Y-126950000D02*
X135420000Y-126950000D01*
X123770000Y-126525000D02*
X125670000Y-126525000D01*
X125670000Y-126525000D02*
X126095000Y-126950000D01*
X119270000Y-127450000D02*
X119270000Y-124950000D01*
X119270000Y-124950000D02*
X119370000Y-124850000D01*
X119370000Y-124850000D02*
X119695000Y-124525000D01*
X119695000Y-124525000D02*
X123770000Y-124525000D01*
D24*
X108360000Y-138410000D02*
X114095000Y-144145000D01*
X114095000Y-144145000D02*
X114095000Y-145275000D01*
X114095000Y-145275000D02*
X115645000Y-146825000D01*
X115645000Y-146825000D02*
X126220000Y-146825000D01*
X127770000Y-145275000D02*
X127770000Y-144525000D01*
X126220000Y-146825000D02*
X127770000Y-145275000D01*
X114020000Y-147350000D02*
X127695000Y-147350000D01*
X127695000Y-147350000D02*
X129770000Y-145275000D01*
X129770000Y-145275000D02*
X129770000Y-144525000D01*
X109223599Y-142553599D02*
X114020000Y-147350000D01*
X108360000Y-140950000D02*
X109223599Y-141813599D01*
X109223599Y-141813599D02*
X109223599Y-142553599D01*
X131770000Y-145275000D02*
X131770000Y-144525000D01*
X129344989Y-147700011D02*
X131770000Y-145275000D01*
X112570011Y-147700011D02*
X129344989Y-147700011D01*
X108360000Y-143490000D02*
X112570011Y-147700011D01*
X108360000Y-146030000D02*
X110655021Y-148325021D01*
X133770000Y-145275000D02*
X133770000Y-144525000D01*
X110655021Y-148325021D02*
X122984959Y-148325021D01*
X122984959Y-148325021D02*
X123134980Y-148175000D01*
X123134980Y-148175000D02*
X130870000Y-148175000D01*
X130870000Y-148175000D02*
X133770000Y-145275000D01*
X110161314Y-149150000D02*
X131895000Y-149150000D01*
X131895000Y-149150000D02*
X135770000Y-145275000D01*
X135770000Y-145275000D02*
X135770000Y-144525000D01*
X108360000Y-148570000D02*
X109581314Y-148570000D01*
X109581314Y-148570000D02*
X110161314Y-149150000D01*
X134678880Y-148175000D02*
X134870000Y-148175000D01*
X134870000Y-148175000D02*
X137770000Y-145275000D01*
X137770000Y-145275000D02*
X137770000Y-144525000D01*
X110766314Y-149925000D02*
X132928880Y-149925000D01*
X132928880Y-149925000D02*
X134678880Y-148175000D01*
X108360000Y-151110000D02*
X109581314Y-151110000D01*
X109581314Y-151110000D02*
X110766314Y-149925000D01*
X141020000Y-130525000D02*
X139120021Y-132424979D01*
X134873601Y-150123399D02*
X134623599Y-150373401D01*
X139120020Y-147969970D02*
X136966591Y-150123399D01*
X139120021Y-132424979D02*
X139120020Y-147969970D01*
X134623599Y-150373401D02*
X133760000Y-151237000D01*
X136966591Y-150123399D02*
X134873601Y-150123399D01*
X141770000Y-130525000D02*
X141020000Y-130525000D01*
X132646399Y-150702471D02*
X132646399Y-151771529D01*
X136821612Y-149773388D02*
X133575482Y-149773388D01*
X133575482Y-149773388D02*
X132646399Y-150702471D01*
X138770010Y-147824990D02*
X136821612Y-149773388D01*
X132646399Y-151771529D02*
X133225471Y-152350601D01*
X133225471Y-152350601D02*
X135186399Y-152350601D01*
X135186399Y-152350601D02*
X135436401Y-152100599D01*
X135436401Y-152100599D02*
X136300000Y-151237000D01*
X140070000Y-128525000D02*
X138770010Y-129824990D01*
X141770000Y-128525000D02*
X140070000Y-128525000D01*
X138770010Y-129824990D02*
X138770010Y-147824990D01*
X134623599Y-152913401D02*
X133760000Y-153777000D01*
X136521731Y-152663399D02*
X135368591Y-152663399D01*
X139470031Y-134074969D02*
X139470031Y-149715099D01*
X141020000Y-132525000D02*
X139470031Y-134074969D01*
X139470031Y-149715099D02*
X136521731Y-152663399D01*
X141770000Y-132525000D02*
X141020000Y-132525000D01*
X135118589Y-152913401D02*
X134623599Y-152913401D01*
X135368591Y-152663399D02*
X135118589Y-152913401D01*
D23*
X141770000Y-134525000D02*
X141990017Y-134745017D01*
X141990017Y-134745017D02*
X155495017Y-134745017D01*
X155495017Y-134745017D02*
X156620000Y-135870000D01*
X154845000Y-109975000D02*
X155591000Y-109975000D01*
X155591000Y-109975000D02*
X156620000Y-108946000D01*
X146470000Y-118350000D02*
X154845000Y-109975000D01*
X146470000Y-123725000D02*
X146470000Y-118350000D01*
X141770000Y-126525000D02*
X143670000Y-126525000D01*
X143670000Y-126525000D02*
X146470000Y-123725000D01*
X145620000Y-121425000D02*
X145620000Y-117406000D01*
X145620000Y-117406000D02*
X156620000Y-106406000D01*
X141770000Y-124525000D02*
X142520000Y-124525000D01*
X142520000Y-124525000D02*
X145620000Y-121425000D01*
X141770000Y-140525000D02*
X153655000Y-140525000D01*
X153655000Y-140525000D02*
X156620000Y-143490000D01*
X141770000Y-136525000D02*
X154735000Y-136525000D01*
X154735000Y-136525000D02*
X156620000Y-138410000D01*
X141770000Y-138525000D02*
X154195000Y-138525000D01*
X154195000Y-138525000D02*
X156620000Y-140950000D01*
X141820000Y-103150000D02*
X141820000Y-109660991D01*
X141820000Y-109660991D02*
X134770000Y-116710991D01*
X134770000Y-116710991D02*
X134770000Y-122525000D01*
X133895000Y-124725000D02*
X134770000Y-123850000D01*
X134770000Y-123850000D02*
X134770000Y-122525000D01*
D25*
X118095000Y-110225000D02*
X119920000Y-108400000D01*
X119920000Y-108400000D02*
X119920000Y-103600000D01*
X111740870Y-110225000D02*
X118095000Y-110225000D01*
X108360000Y-133330000D02*
X107046399Y-132016399D01*
X107046399Y-132016399D02*
X107046399Y-114919471D01*
X107046399Y-114919471D02*
X111740870Y-110225000D01*
X128870000Y-125650000D02*
X134395000Y-125650000D01*
X134395000Y-125650000D02*
X136770000Y-123275000D01*
X136770000Y-123275000D02*
X136770000Y-122525000D01*
X126495000Y-123275000D02*
X128870000Y-125650000D01*
X126495000Y-109075000D02*
X126495000Y-123275000D01*
X119920000Y-103600000D02*
X121020000Y-103600000D01*
X121020000Y-103600000D02*
X126495000Y-109075000D01*
D23*
X141170000Y-103150000D02*
X141170000Y-108461950D01*
X141170000Y-108461950D02*
X132770000Y-116861950D01*
X132770000Y-116861950D02*
X132770000Y-120625000D01*
X132770000Y-120625000D02*
X132770000Y-122525000D01*
X140520000Y-103150000D02*
X140520000Y-108202328D01*
X140520000Y-108202328D02*
X130770000Y-117952328D01*
X130770000Y-120625000D02*
X130770000Y-122525000D01*
X130770000Y-117952328D02*
X130770000Y-120625000D01*
D24*
X130770000Y-120825000D02*
X130770000Y-122525000D01*
D23*
X154000000Y-146050000D02*
X156600000Y-146050000D01*
X156600000Y-146050000D02*
X156620000Y-146030000D01*
X154000000Y-133330000D02*
X156620000Y-133330000D01*
X154000000Y-129260000D02*
X156614000Y-129260000D01*
X156614000Y-129260000D02*
X156620000Y-129266000D01*
X108360000Y-118090000D02*
X112000000Y-118090000D01*
D26*
G36*
X158808000Y-151980197D02*
X157490196Y-153298000D01*
X146460000Y-153298000D01*
X146325295Y-153324794D01*
X146211098Y-153401098D01*
X146211096Y-153401101D01*
X143774196Y-155838000D01*
X109775803Y-155838000D01*
X107959524Y-154021720D01*
X111562675Y-154021720D01*
X111847829Y-154711846D01*
X112375376Y-155240316D01*
X113065004Y-155526674D01*
X113811720Y-155527325D01*
X114501846Y-155242171D01*
X115030316Y-154714624D01*
X115270569Y-154136027D01*
X129765032Y-154136027D01*
X130013179Y-154665490D01*
X130445053Y-155059688D01*
X130860974Y-155231958D01*
X131093000Y-155110817D01*
X131093000Y-153904000D01*
X129885531Y-153904000D01*
X129765032Y-154136027D01*
X115270569Y-154136027D01*
X115316674Y-154024996D01*
X115317325Y-153278280D01*
X115032171Y-152588154D01*
X114504624Y-152059684D01*
X113814996Y-151773326D01*
X113068280Y-151772675D01*
X112378154Y-152057829D01*
X111849684Y-152585376D01*
X111563326Y-153275004D01*
X111562675Y-154021720D01*
X107959524Y-154021720D01*
X107338902Y-153401098D01*
X107224705Y-153324794D01*
X107090000Y-153297999D01*
X107089995Y-153298000D01*
X106172000Y-153298000D01*
X106172000Y-114919471D01*
X106469398Y-114919471D01*
X106469399Y-114919476D01*
X106469399Y-132016394D01*
X106469398Y-132016399D01*
X106513321Y-132237207D01*
X106638398Y-132424400D01*
X107269547Y-133055548D01*
X107219400Y-133307654D01*
X107219400Y-133352346D01*
X107306223Y-133788835D01*
X107553474Y-134158872D01*
X107923511Y-134406123D01*
X108360000Y-134492946D01*
X108796489Y-134406123D01*
X109166526Y-134158872D01*
X109413777Y-133788835D01*
X109500600Y-133352346D01*
X109500600Y-133307654D01*
X109413777Y-132871165D01*
X109166526Y-132501128D01*
X108796489Y-132253877D01*
X108729610Y-132240574D01*
X109134947Y-132072688D01*
X109566821Y-131678490D01*
X109814968Y-131149027D01*
X109694469Y-130917000D01*
X108487000Y-130917000D01*
X108487000Y-130937000D01*
X108233000Y-130937000D01*
X108233000Y-130917000D01*
X108213000Y-130917000D01*
X108213000Y-130663000D01*
X108233000Y-130663000D01*
X108233000Y-128377000D01*
X108487000Y-128377000D01*
X108487000Y-130663000D01*
X109694469Y-130663000D01*
X109814968Y-130430973D01*
X109566821Y-129901510D01*
X109148848Y-129520000D01*
X109566821Y-129138490D01*
X109814968Y-128609027D01*
X109694469Y-128377000D01*
X108487000Y-128377000D01*
X108233000Y-128377000D01*
X108213000Y-128377000D01*
X108213000Y-128123000D01*
X108233000Y-128123000D01*
X108233000Y-128103000D01*
X108487000Y-128103000D01*
X108487000Y-128123000D01*
X109694469Y-128123000D01*
X109814968Y-127890973D01*
X109566821Y-127361510D01*
X109134947Y-126967312D01*
X108729610Y-126799426D01*
X108796489Y-126786123D01*
X109166526Y-126538872D01*
X109413777Y-126168835D01*
X109500600Y-125732346D01*
X109500600Y-125687654D01*
X109413777Y-125251165D01*
X109166526Y-124881128D01*
X108796489Y-124633877D01*
X108360000Y-124547054D01*
X107923511Y-124633877D01*
X107623399Y-124834406D01*
X107623399Y-124045594D01*
X107923511Y-124246123D01*
X108360000Y-124332946D01*
X108796489Y-124246123D01*
X109166526Y-123998872D01*
X109413777Y-123628835D01*
X109500600Y-123192346D01*
X109500600Y-123147654D01*
X109413777Y-122711165D01*
X109166526Y-122341128D01*
X108796489Y-122093877D01*
X108360000Y-122007054D01*
X107923511Y-122093877D01*
X107623399Y-122294406D01*
X107623399Y-121505594D01*
X107923511Y-121706123D01*
X108360000Y-121792946D01*
X108767341Y-121711921D01*
X115677915Y-128622495D01*
X115677900Y-128639269D01*
X115765558Y-128851417D01*
X115927729Y-129013871D01*
X116139724Y-129101900D01*
X116369269Y-129102100D01*
X116581417Y-129014442D01*
X116593881Y-129002000D01*
X122092479Y-129002000D01*
X122258988Y-129251199D01*
X122592171Y-129473824D01*
X122849449Y-129525000D01*
X122592171Y-129576176D01*
X122258988Y-129798801D01*
X122036363Y-130131984D01*
X121958187Y-130525000D01*
X122036363Y-130918016D01*
X122258988Y-131251199D01*
X122592171Y-131473824D01*
X122849449Y-131525000D01*
X122592171Y-131576176D01*
X122258988Y-131798801D01*
X122036363Y-132131984D01*
X121958187Y-132525000D01*
X122036363Y-132918016D01*
X122258988Y-133251199D01*
X122592171Y-133473824D01*
X122849449Y-133525000D01*
X122592171Y-133576176D01*
X122258988Y-133798801D01*
X122036363Y-134131984D01*
X121958187Y-134525000D01*
X122036363Y-134918016D01*
X122258988Y-135251199D01*
X122592171Y-135473824D01*
X122849449Y-135525000D01*
X122592171Y-135576176D01*
X122258988Y-135798801D01*
X122036363Y-136131984D01*
X121958187Y-136525000D01*
X122036363Y-136918016D01*
X122258988Y-137251199D01*
X122592171Y-137473824D01*
X122849449Y-137525000D01*
X122592171Y-137576176D01*
X122258988Y-137798801D01*
X122036363Y-138131984D01*
X121958187Y-138525000D01*
X122036363Y-138918016D01*
X122258988Y-139251199D01*
X122592171Y-139473824D01*
X122849449Y-139525000D01*
X122592171Y-139576176D01*
X122258988Y-139798801D01*
X122036363Y-140131984D01*
X121958187Y-140525000D01*
X122036363Y-140918016D01*
X122258988Y-141251199D01*
X122592171Y-141473824D01*
X122849449Y-141525000D01*
X122592171Y-141576176D01*
X122258988Y-141798801D01*
X122036363Y-142131984D01*
X121958187Y-142525000D01*
X122036363Y-142918016D01*
X122258988Y-143251199D01*
X122592171Y-143473824D01*
X122985187Y-143552000D01*
X124554813Y-143552000D01*
X124947829Y-143473824D01*
X125281012Y-143251199D01*
X125447521Y-143002000D01*
X127061742Y-143002000D01*
X127043801Y-143013988D01*
X126821176Y-143347171D01*
X126743000Y-143740187D01*
X126743000Y-145309813D01*
X126819158Y-145692684D01*
X126063842Y-146448000D01*
X115801158Y-146448000D01*
X114472000Y-145118842D01*
X114472000Y-144145000D01*
X114443303Y-144000728D01*
X114361579Y-143878421D01*
X109389030Y-138905872D01*
X109413777Y-138868835D01*
X109500600Y-138432346D01*
X109500600Y-138387654D01*
X109413777Y-137951165D01*
X109166526Y-137581128D01*
X108796489Y-137333877D01*
X108360000Y-137247054D01*
X107923511Y-137333877D01*
X107553474Y-137581128D01*
X107306223Y-137951165D01*
X107219400Y-138387654D01*
X107219400Y-138432346D01*
X107306223Y-138868835D01*
X107553474Y-139238872D01*
X107923511Y-139486123D01*
X108360000Y-139572946D01*
X108796489Y-139486123D01*
X108860317Y-139443475D01*
X113718000Y-144301158D01*
X113718000Y-145275000D01*
X113746697Y-145419272D01*
X113828421Y-145541579D01*
X115259842Y-146973000D01*
X114176159Y-146973000D01*
X109600599Y-142397441D01*
X109600599Y-141813599D01*
X109571902Y-141669327D01*
X109490178Y-141547019D01*
X109389030Y-141445871D01*
X109413777Y-141408835D01*
X109500600Y-140972346D01*
X109500600Y-140927654D01*
X109413777Y-140491165D01*
X109166526Y-140121128D01*
X108796489Y-139873877D01*
X108360000Y-139787054D01*
X107923511Y-139873877D01*
X107553474Y-140121128D01*
X107306223Y-140491165D01*
X107219400Y-140927654D01*
X107219400Y-140972346D01*
X107306223Y-141408835D01*
X107553474Y-141778872D01*
X107923511Y-142026123D01*
X108360000Y-142112946D01*
X108796489Y-142026123D01*
X108846599Y-141992641D01*
X108846599Y-142447359D01*
X108796489Y-142413877D01*
X108360000Y-142327054D01*
X107923511Y-142413877D01*
X107553474Y-142661128D01*
X107306223Y-143031165D01*
X107219400Y-143467654D01*
X107219400Y-143512346D01*
X107306223Y-143948835D01*
X107553474Y-144318872D01*
X107923511Y-144566123D01*
X108360000Y-144652946D01*
X108796489Y-144566123D01*
X108860317Y-144523475D01*
X112284862Y-147948021D01*
X110811179Y-147948021D01*
X109389030Y-146525872D01*
X109413777Y-146488835D01*
X109500600Y-146052346D01*
X109500600Y-146007654D01*
X109413777Y-145571165D01*
X109166526Y-145201128D01*
X108796489Y-144953877D01*
X108360000Y-144867054D01*
X107923511Y-144953877D01*
X107553474Y-145201128D01*
X107306223Y-145571165D01*
X107219400Y-146007654D01*
X107219400Y-146052346D01*
X107306223Y-146488835D01*
X107553474Y-146858872D01*
X107923511Y-147106123D01*
X108360000Y-147192946D01*
X108796489Y-147106123D01*
X108860317Y-147063475D01*
X110388442Y-148591600D01*
X110510749Y-148673324D01*
X110655021Y-148702021D01*
X122984959Y-148702021D01*
X123129231Y-148673324D01*
X123251538Y-148591600D01*
X123291138Y-148552000D01*
X130870000Y-148552000D01*
X131014272Y-148523303D01*
X131136579Y-148441579D01*
X133342537Y-146235621D01*
X133376984Y-146258637D01*
X133770000Y-146336813D01*
X134163016Y-146258637D01*
X134434812Y-146077029D01*
X131738842Y-148773000D01*
X110317472Y-148773000D01*
X109847893Y-148303421D01*
X109725586Y-148221697D01*
X109581314Y-148193000D01*
X109430055Y-148193000D01*
X109413777Y-148111165D01*
X109166526Y-147741128D01*
X108796489Y-147493877D01*
X108360000Y-147407054D01*
X107923511Y-147493877D01*
X107553474Y-147741128D01*
X107306223Y-148111165D01*
X107219400Y-148547654D01*
X107219400Y-148592346D01*
X107306223Y-149028835D01*
X107553474Y-149398872D01*
X107923511Y-149646123D01*
X108360000Y-149732946D01*
X108796489Y-149646123D01*
X109166526Y-149398872D01*
X109413777Y-149028835D01*
X109429242Y-148951086D01*
X109894735Y-149416579D01*
X110017042Y-149498303D01*
X110161314Y-149527000D01*
X131895000Y-149527000D01*
X132039272Y-149498303D01*
X132161579Y-149416579D01*
X135342538Y-146235621D01*
X135376984Y-146258637D01*
X135770000Y-146336813D01*
X136163016Y-146258637D01*
X136434813Y-146077029D01*
X134713842Y-147798000D01*
X134678880Y-147798000D01*
X134534608Y-147826697D01*
X134412301Y-147908421D01*
X132772722Y-149548000D01*
X110766314Y-149548000D01*
X110622042Y-149576697D01*
X110499735Y-149658421D01*
X109429242Y-150728914D01*
X109413777Y-150651165D01*
X109166526Y-150281128D01*
X108796489Y-150033877D01*
X108360000Y-149947054D01*
X107923511Y-150033877D01*
X107553474Y-150281128D01*
X107306223Y-150651165D01*
X107219400Y-151087654D01*
X107219400Y-151132346D01*
X107306223Y-151568835D01*
X107553474Y-151938872D01*
X107923511Y-152186123D01*
X108360000Y-152272946D01*
X108796489Y-152186123D01*
X109166526Y-151938872D01*
X109413777Y-151568835D01*
X109430055Y-151487000D01*
X109581314Y-151487000D01*
X109725586Y-151458303D01*
X109847893Y-151376579D01*
X110922472Y-150302000D01*
X130572306Y-150302000D01*
X130413474Y-150408128D01*
X130166223Y-150778165D01*
X130079400Y-151214654D01*
X130079400Y-151259346D01*
X130166223Y-151695835D01*
X130413474Y-152065872D01*
X130783511Y-152313123D01*
X130850390Y-152326426D01*
X130445053Y-152494312D01*
X130013179Y-152888510D01*
X129765032Y-153417973D01*
X129885531Y-153650000D01*
X131093000Y-153650000D01*
X131093000Y-153630000D01*
X131347000Y-153630000D01*
X131347000Y-153650000D01*
X131367000Y-153650000D01*
X131367000Y-153904000D01*
X131347000Y-153904000D01*
X131347000Y-155110817D01*
X131579026Y-155231958D01*
X131994947Y-155059688D01*
X132426821Y-154665490D01*
X132674968Y-154136027D01*
X132554470Y-153904002D01*
X132640217Y-153904002D01*
X132706223Y-154235835D01*
X132953474Y-154605872D01*
X133323511Y-154853123D01*
X133760000Y-154939946D01*
X134196489Y-154853123D01*
X134566526Y-154605872D01*
X134813777Y-154235835D01*
X134900600Y-153799346D01*
X134900600Y-153754654D01*
X134813777Y-153318165D01*
X134795226Y-153290401D01*
X135118589Y-153290401D01*
X135262861Y-153261704D01*
X135300958Y-153236248D01*
X135246223Y-153318165D01*
X135159400Y-153754654D01*
X135159400Y-153799346D01*
X135246223Y-154235835D01*
X135493474Y-154605872D01*
X135863511Y-154853123D01*
X136300000Y-154939946D01*
X136736489Y-154853123D01*
X137106526Y-154605872D01*
X137353777Y-154235835D01*
X137396367Y-154021720D01*
X139502675Y-154021720D01*
X139787829Y-154711846D01*
X140315376Y-155240316D01*
X141005004Y-155526674D01*
X141751720Y-155527325D01*
X142441846Y-155242171D01*
X142970316Y-154714624D01*
X143256674Y-154024996D01*
X143257325Y-153278280D01*
X142972171Y-152588154D01*
X142444624Y-152059684D01*
X141754996Y-151773326D01*
X141008280Y-151772675D01*
X140318154Y-152057829D01*
X139789684Y-152585376D01*
X139503326Y-153275004D01*
X139502675Y-154021720D01*
X137396367Y-154021720D01*
X137440600Y-153799346D01*
X137440600Y-153754654D01*
X137353777Y-153318165D01*
X137106526Y-152948128D01*
X136904889Y-152813399D01*
X138630634Y-151087654D01*
X155479400Y-151087654D01*
X155479400Y-151132346D01*
X155566223Y-151568835D01*
X155813474Y-151938872D01*
X156183511Y-152186123D01*
X156620000Y-152272946D01*
X157056489Y-152186123D01*
X157426526Y-151938872D01*
X157673777Y-151568835D01*
X157760600Y-151132346D01*
X157760600Y-151087654D01*
X157673777Y-150651165D01*
X157426526Y-150281128D01*
X157056489Y-150033877D01*
X156620000Y-149947054D01*
X156183511Y-150033877D01*
X155813474Y-150281128D01*
X155566223Y-150651165D01*
X155479400Y-151087654D01*
X138630634Y-151087654D01*
X139736610Y-149981678D01*
X139818334Y-149859371D01*
X139847031Y-149715099D01*
X139847031Y-148547654D01*
X155479400Y-148547654D01*
X155479400Y-148592346D01*
X155566223Y-149028835D01*
X155813474Y-149398872D01*
X156183511Y-149646123D01*
X156620000Y-149732946D01*
X157056489Y-149646123D01*
X157426526Y-149398872D01*
X157673777Y-149028835D01*
X157760600Y-148592346D01*
X157760600Y-148547654D01*
X157673777Y-148111165D01*
X157426526Y-147741128D01*
X157056489Y-147493877D01*
X156620000Y-147407054D01*
X156183511Y-147493877D01*
X155813474Y-147741128D01*
X155566223Y-148111165D01*
X155479400Y-148547654D01*
X139847031Y-148547654D01*
X139847031Y-145200000D01*
X152867574Y-145200000D01*
X152867574Y-146900000D01*
X152886889Y-147002650D01*
X152947555Y-147096927D01*
X153040120Y-147160175D01*
X153150000Y-147182426D01*
X154850000Y-147182426D01*
X154952650Y-147163111D01*
X155046927Y-147102445D01*
X155110175Y-147009880D01*
X155132426Y-146900000D01*
X155132426Y-146527000D01*
X155591724Y-146527000D01*
X155813474Y-146858872D01*
X156183511Y-147106123D01*
X156620000Y-147192946D01*
X157056489Y-147106123D01*
X157426526Y-146858872D01*
X157673777Y-146488835D01*
X157760600Y-146052346D01*
X157760600Y-146007654D01*
X157673777Y-145571165D01*
X157426526Y-145201128D01*
X157056489Y-144953877D01*
X156620000Y-144867054D01*
X156183511Y-144953877D01*
X155813474Y-145201128D01*
X155566223Y-145571165D01*
X155565858Y-145573000D01*
X155132426Y-145573000D01*
X155132426Y-145200000D01*
X155113111Y-145097350D01*
X155052445Y-145003073D01*
X154959880Y-144939825D01*
X154850000Y-144917574D01*
X153150000Y-144917574D01*
X153047350Y-144936889D01*
X152953073Y-144997555D01*
X152889825Y-145090120D01*
X152867574Y-145200000D01*
X139847031Y-145200000D01*
X139847031Y-143223406D01*
X139950855Y-143414540D01*
X140372651Y-143755972D01*
X140893000Y-143910000D01*
X141643000Y-143910000D01*
X141643000Y-142652000D01*
X141897000Y-142652000D01*
X141897000Y-143910000D01*
X142647000Y-143910000D01*
X143167349Y-143755972D01*
X143589145Y-143414540D01*
X143848173Y-142937684D01*
X143862318Y-142866185D01*
X143739656Y-142652000D01*
X141897000Y-142652000D01*
X141643000Y-142652000D01*
X141623000Y-142652000D01*
X141623000Y-142398000D01*
X141643000Y-142398000D01*
X141643000Y-142378000D01*
X141897000Y-142378000D01*
X141897000Y-142398000D01*
X143739656Y-142398000D01*
X143862318Y-142183815D01*
X143848173Y-142112316D01*
X143589145Y-141635460D01*
X143189762Y-141312170D01*
X143281012Y-141251199D01*
X143447521Y-141002000D01*
X153457420Y-141002000D01*
X155553010Y-143097590D01*
X155479400Y-143467654D01*
X155479400Y-143512346D01*
X155566223Y-143948835D01*
X155813474Y-144318872D01*
X156183511Y-144566123D01*
X156620000Y-144652946D01*
X157056489Y-144566123D01*
X157426526Y-144318872D01*
X157673777Y-143948835D01*
X157760600Y-143512346D01*
X157760600Y-143467654D01*
X157673777Y-143031165D01*
X157426526Y-142661128D01*
X157056489Y-142413877D01*
X156620000Y-142327054D01*
X156212659Y-142408079D01*
X153992290Y-140187710D01*
X153837540Y-140084309D01*
X153655000Y-140048000D01*
X143447521Y-140048000D01*
X143281012Y-139798801D01*
X142947829Y-139576176D01*
X142690551Y-139525000D01*
X142947829Y-139473824D01*
X143281012Y-139251199D01*
X143447521Y-139002000D01*
X153997420Y-139002000D01*
X155553010Y-140557590D01*
X155479400Y-140927654D01*
X155479400Y-140972346D01*
X155566223Y-141408835D01*
X155813474Y-141778872D01*
X156183511Y-142026123D01*
X156620000Y-142112946D01*
X157056489Y-142026123D01*
X157426526Y-141778872D01*
X157673777Y-141408835D01*
X157760600Y-140972346D01*
X157760600Y-140927654D01*
X157673777Y-140491165D01*
X157426526Y-140121128D01*
X157056489Y-139873877D01*
X156620000Y-139787054D01*
X156212659Y-139868079D01*
X154532290Y-138187710D01*
X154377540Y-138084309D01*
X154195000Y-138048000D01*
X143447521Y-138048000D01*
X143281012Y-137798801D01*
X142947829Y-137576176D01*
X142690551Y-137525000D01*
X142947829Y-137473824D01*
X143281012Y-137251199D01*
X143447521Y-137002000D01*
X154537420Y-137002000D01*
X155553010Y-138017590D01*
X155479400Y-138387654D01*
X155479400Y-138432346D01*
X155566223Y-138868835D01*
X155813474Y-139238872D01*
X156183511Y-139486123D01*
X156620000Y-139572946D01*
X157056489Y-139486123D01*
X157426526Y-139238872D01*
X157673777Y-138868835D01*
X157760600Y-138432346D01*
X157760600Y-138387654D01*
X157673777Y-137951165D01*
X157426526Y-137581128D01*
X157056489Y-137333877D01*
X156620000Y-137247054D01*
X156212659Y-137328079D01*
X155072290Y-136187710D01*
X154917540Y-136084309D01*
X154735000Y-136048000D01*
X143447521Y-136048000D01*
X143281012Y-135798801D01*
X142947829Y-135576176D01*
X142690551Y-135525000D01*
X142947829Y-135473824D01*
X143281012Y-135251199D01*
X143300511Y-135222017D01*
X155297437Y-135222017D01*
X155553010Y-135477590D01*
X155479400Y-135847654D01*
X155479400Y-135892346D01*
X155566223Y-136328835D01*
X155813474Y-136698872D01*
X156183511Y-136946123D01*
X156620000Y-137032946D01*
X157056489Y-136946123D01*
X157426526Y-136698872D01*
X157673777Y-136328835D01*
X157760600Y-135892346D01*
X157760600Y-135847654D01*
X157673777Y-135411165D01*
X157426526Y-135041128D01*
X157056489Y-134793877D01*
X156620000Y-134707054D01*
X156212659Y-134788079D01*
X155832307Y-134407727D01*
X155677557Y-134304326D01*
X155495017Y-134268017D01*
X155114602Y-134268017D01*
X155132426Y-134180000D01*
X155132426Y-133807000D01*
X155578360Y-133807000D01*
X155813474Y-134158872D01*
X156183511Y-134406123D01*
X156620000Y-134492946D01*
X157056489Y-134406123D01*
X157426526Y-134158872D01*
X157673777Y-133788835D01*
X157760600Y-133352346D01*
X157760600Y-133307654D01*
X157673777Y-132871165D01*
X157426526Y-132501128D01*
X157056489Y-132253877D01*
X156620000Y-132167054D01*
X156183511Y-132253877D01*
X155813474Y-132501128D01*
X155578360Y-132853000D01*
X155132426Y-132853000D01*
X155132426Y-132480000D01*
X155113111Y-132377350D01*
X155052445Y-132283073D01*
X154959880Y-132219825D01*
X154850000Y-132197574D01*
X153150000Y-132197574D01*
X153047350Y-132216889D01*
X152953073Y-132277555D01*
X152889825Y-132370120D01*
X152867574Y-132480000D01*
X152867574Y-134180000D01*
X152884136Y-134268017D01*
X143530696Y-134268017D01*
X143503637Y-134131984D01*
X143281012Y-133798801D01*
X142947829Y-133576176D01*
X142690551Y-133525000D01*
X142947829Y-133473824D01*
X143281012Y-133251199D01*
X143503637Y-132918016D01*
X143581813Y-132525000D01*
X143503637Y-132131984D01*
X143281012Y-131798801D01*
X142947829Y-131576176D01*
X142690551Y-131525000D01*
X142947829Y-131473824D01*
X143281012Y-131251199D01*
X143503637Y-130918016D01*
X143581813Y-130525000D01*
X143503637Y-130131984D01*
X143281012Y-129798801D01*
X142947829Y-129576176D01*
X142690551Y-129525000D01*
X142947829Y-129473824D01*
X143281012Y-129251199D01*
X143503637Y-128918016D01*
X143581813Y-128525000D01*
X143558939Y-128410000D01*
X152867574Y-128410000D01*
X152867574Y-130110000D01*
X152886889Y-130212650D01*
X152947555Y-130306927D01*
X153040120Y-130370175D01*
X153150000Y-130392426D01*
X154850000Y-130392426D01*
X154952650Y-130373111D01*
X155046927Y-130312445D01*
X155110175Y-130219880D01*
X155132426Y-130110000D01*
X155132426Y-129737000D01*
X155574351Y-129737000D01*
X155813474Y-130094872D01*
X156183511Y-130342123D01*
X156620000Y-130428946D01*
X157056489Y-130342123D01*
X157426526Y-130094872D01*
X157673777Y-129724835D01*
X157760600Y-129288346D01*
X157760600Y-129243654D01*
X157673777Y-128807165D01*
X157426526Y-128437128D01*
X157056489Y-128189877D01*
X156620000Y-128103054D01*
X156183511Y-128189877D01*
X155813474Y-128437128D01*
X155582370Y-128783000D01*
X155132426Y-128783000D01*
X155132426Y-128410000D01*
X155113111Y-128307350D01*
X155052445Y-128213073D01*
X154959880Y-128149825D01*
X154850000Y-128127574D01*
X153150000Y-128127574D01*
X153047350Y-128146889D01*
X152953073Y-128207555D01*
X152889825Y-128300120D01*
X152867574Y-128410000D01*
X143558939Y-128410000D01*
X143503637Y-128131984D01*
X143281012Y-127798801D01*
X142947829Y-127576176D01*
X142690551Y-127525000D01*
X142947829Y-127473824D01*
X143281012Y-127251199D01*
X143447521Y-127002000D01*
X143670000Y-127002000D01*
X143852540Y-126965691D01*
X144007290Y-126862290D01*
X144165926Y-126703654D01*
X155479400Y-126703654D01*
X155479400Y-126748346D01*
X155566223Y-127184835D01*
X155813474Y-127554872D01*
X156183511Y-127802123D01*
X156620000Y-127888946D01*
X157056489Y-127802123D01*
X157426526Y-127554872D01*
X157673777Y-127184835D01*
X157760600Y-126748346D01*
X157760600Y-126703654D01*
X157673777Y-126267165D01*
X157426526Y-125897128D01*
X157056489Y-125649877D01*
X156620000Y-125563054D01*
X156183511Y-125649877D01*
X155813474Y-125897128D01*
X155566223Y-126267165D01*
X155479400Y-126703654D01*
X144165926Y-126703654D01*
X146705926Y-124163654D01*
X155479400Y-124163654D01*
X155479400Y-124208346D01*
X155566223Y-124644835D01*
X155813474Y-125014872D01*
X156183511Y-125262123D01*
X156620000Y-125348946D01*
X157056489Y-125262123D01*
X157426526Y-125014872D01*
X157673777Y-124644835D01*
X157760600Y-124208346D01*
X157760600Y-124163654D01*
X157673777Y-123727165D01*
X157426526Y-123357128D01*
X157056489Y-123109877D01*
X156620000Y-123023054D01*
X156183511Y-123109877D01*
X155813474Y-123357128D01*
X155566223Y-123727165D01*
X155479400Y-124163654D01*
X146705926Y-124163654D01*
X146807290Y-124062290D01*
X146910691Y-123907540D01*
X146947000Y-123725000D01*
X146947000Y-121623654D01*
X155479400Y-121623654D01*
X155479400Y-121668346D01*
X155566223Y-122104835D01*
X155813474Y-122474872D01*
X156183511Y-122722123D01*
X156620000Y-122808946D01*
X157056489Y-122722123D01*
X157426526Y-122474872D01*
X157673777Y-122104835D01*
X157760600Y-121668346D01*
X157760600Y-121623654D01*
X157673777Y-121187165D01*
X157426526Y-120817128D01*
X157056489Y-120569877D01*
X156620000Y-120483054D01*
X156183511Y-120569877D01*
X155813474Y-120817128D01*
X155566223Y-121187165D01*
X155479400Y-121623654D01*
X146947000Y-121623654D01*
X146947000Y-119083654D01*
X155479400Y-119083654D01*
X155479400Y-119128346D01*
X155566223Y-119564835D01*
X155813474Y-119934872D01*
X156183511Y-120182123D01*
X156620000Y-120268946D01*
X157056489Y-120182123D01*
X157426526Y-119934872D01*
X157673777Y-119564835D01*
X157760600Y-119128346D01*
X157760600Y-119083654D01*
X157673777Y-118647165D01*
X157426526Y-118277128D01*
X157056489Y-118029877D01*
X156620000Y-117943054D01*
X156183511Y-118029877D01*
X155813474Y-118277128D01*
X155566223Y-118647165D01*
X155479400Y-119083654D01*
X146947000Y-119083654D01*
X146947000Y-118547580D01*
X151109553Y-114385027D01*
X155165032Y-114385027D01*
X155413179Y-114914490D01*
X155845053Y-115308688D01*
X156250390Y-115476574D01*
X156183511Y-115489877D01*
X155813474Y-115737128D01*
X155566223Y-116107165D01*
X155479400Y-116543654D01*
X155479400Y-116588346D01*
X155566223Y-117024835D01*
X155813474Y-117394872D01*
X156183511Y-117642123D01*
X156620000Y-117728946D01*
X157056489Y-117642123D01*
X157426526Y-117394872D01*
X157673777Y-117024835D01*
X157760600Y-116588346D01*
X157760600Y-116543654D01*
X157673777Y-116107165D01*
X157426526Y-115737128D01*
X157056489Y-115489877D01*
X156989610Y-115476574D01*
X157394947Y-115308688D01*
X157826821Y-114914490D01*
X158074968Y-114385027D01*
X157954469Y-114153000D01*
X156747000Y-114153000D01*
X156747000Y-114173000D01*
X156493000Y-114173000D01*
X156493000Y-114153000D01*
X155285531Y-114153000D01*
X155165032Y-114385027D01*
X151109553Y-114385027D01*
X151827607Y-113666973D01*
X155165032Y-113666973D01*
X155285531Y-113899000D01*
X156493000Y-113899000D01*
X156493000Y-113879000D01*
X156747000Y-113879000D01*
X156747000Y-113899000D01*
X157954469Y-113899000D01*
X158074968Y-113666973D01*
X157826821Y-113137510D01*
X157394947Y-112743312D01*
X156989610Y-112575426D01*
X157056489Y-112562123D01*
X157426526Y-112314872D01*
X157673777Y-111944835D01*
X157760600Y-111508346D01*
X157760600Y-111463654D01*
X157673777Y-111027165D01*
X157426526Y-110657128D01*
X157056489Y-110409877D01*
X156620000Y-110323054D01*
X156183511Y-110409877D01*
X155813474Y-110657128D01*
X155566223Y-111027165D01*
X155479400Y-111463654D01*
X155479400Y-111508346D01*
X155566223Y-111944835D01*
X155813474Y-112314872D01*
X156183511Y-112562123D01*
X156250390Y-112575426D01*
X155845053Y-112743312D01*
X155413179Y-113137510D01*
X155165032Y-113666973D01*
X151827607Y-113666973D01*
X155042580Y-110452000D01*
X155591000Y-110452000D01*
X155773540Y-110415691D01*
X155928290Y-110312290D01*
X156212659Y-110027921D01*
X156620000Y-110108946D01*
X157056489Y-110022123D01*
X157426526Y-109774872D01*
X157673777Y-109404835D01*
X157760600Y-108968346D01*
X157760600Y-108923654D01*
X157673777Y-108487165D01*
X157426526Y-108117128D01*
X157056489Y-107869877D01*
X156620000Y-107783054D01*
X156183511Y-107869877D01*
X155813474Y-108117128D01*
X155566223Y-108487165D01*
X155479400Y-108923654D01*
X155479400Y-108968346D01*
X155553010Y-109338410D01*
X155393420Y-109498000D01*
X154845000Y-109498000D01*
X154662460Y-109534309D01*
X154507710Y-109637710D01*
X146132710Y-118012710D01*
X146097000Y-118066154D01*
X146097000Y-117603580D01*
X156212659Y-107487921D01*
X156620000Y-107568946D01*
X157056489Y-107482123D01*
X157426526Y-107234872D01*
X157673777Y-106864835D01*
X157760600Y-106428346D01*
X157760600Y-106383654D01*
X157673777Y-105947165D01*
X157426526Y-105577128D01*
X157056489Y-105329877D01*
X156620000Y-105243054D01*
X156183511Y-105329877D01*
X155813474Y-105577128D01*
X155566223Y-105947165D01*
X155479400Y-106383654D01*
X155479400Y-106428346D01*
X155553010Y-106798410D01*
X145282710Y-117068710D01*
X145179309Y-117223460D01*
X145143000Y-117406000D01*
X145143000Y-121227420D01*
X142819725Y-123550695D01*
X142554813Y-123498000D01*
X140985187Y-123498000D01*
X140592171Y-123576176D01*
X140258988Y-123798801D01*
X140036363Y-124131984D01*
X139958187Y-124525000D01*
X140036363Y-124918016D01*
X140258988Y-125251199D01*
X140592171Y-125473824D01*
X140849449Y-125525000D01*
X140592171Y-125576176D01*
X140258988Y-125798801D01*
X140036363Y-126131984D01*
X139958187Y-126525000D01*
X140036363Y-126918016D01*
X140258988Y-127251199D01*
X140592171Y-127473824D01*
X140849449Y-127525000D01*
X140592171Y-127576176D01*
X140258988Y-127798801D01*
X140036363Y-128131984D01*
X140031660Y-128155626D01*
X139925728Y-128176697D01*
X139803420Y-128258421D01*
X138503431Y-129558411D01*
X138421707Y-129680718D01*
X138393010Y-129824990D01*
X138393010Y-142945040D01*
X138163016Y-142791363D01*
X137770000Y-142713187D01*
X137376984Y-142791363D01*
X137043801Y-143013988D01*
X136821176Y-143347171D01*
X136770000Y-143604449D01*
X136718824Y-143347171D01*
X136496199Y-143013988D01*
X136163016Y-142791363D01*
X135946321Y-142748259D01*
X136217495Y-142477085D01*
X136234269Y-142477100D01*
X136446417Y-142389442D01*
X136608871Y-142227271D01*
X136696900Y-142015276D01*
X136697079Y-141809887D01*
X136755558Y-141951417D01*
X136917729Y-142113871D01*
X137129724Y-142201900D01*
X137359269Y-142202100D01*
X137571417Y-142114442D01*
X137733871Y-141952271D01*
X137821900Y-141740276D01*
X137822100Y-141510731D01*
X137734442Y-141298583D01*
X137572271Y-141136129D01*
X137360276Y-141048100D01*
X137342665Y-141048085D01*
X136482290Y-140187710D01*
X136327540Y-140084309D01*
X136145000Y-140048000D01*
X125447521Y-140048000D01*
X125281012Y-139798801D01*
X124947829Y-139576176D01*
X124690551Y-139525000D01*
X124947829Y-139473824D01*
X125281012Y-139251199D01*
X125447521Y-139002000D01*
X132370000Y-139002000D01*
X132552540Y-138965691D01*
X132707290Y-138862290D01*
X136292495Y-135277085D01*
X136309269Y-135277100D01*
X136521417Y-135189442D01*
X136683871Y-135027271D01*
X136771900Y-134815276D01*
X136772100Y-134585731D01*
X136684442Y-134373583D01*
X136522271Y-134211129D01*
X136310276Y-134123100D01*
X136080731Y-134122900D01*
X135868583Y-134210558D01*
X135706129Y-134372729D01*
X135618100Y-134584724D01*
X135618085Y-134602335D01*
X132172420Y-138048000D01*
X125447521Y-138048000D01*
X125281012Y-137798801D01*
X124947829Y-137576176D01*
X124690551Y-137525000D01*
X124947829Y-137473824D01*
X125281012Y-137251199D01*
X125447521Y-137002000D01*
X132770000Y-137002000D01*
X132952540Y-136965691D01*
X133107290Y-136862290D01*
X135967495Y-134002085D01*
X135984269Y-134002100D01*
X136196417Y-133914442D01*
X136358871Y-133752271D01*
X136446900Y-133540276D01*
X136447100Y-133310731D01*
X136359442Y-133098583D01*
X136197271Y-132936129D01*
X135985276Y-132848100D01*
X135755731Y-132847900D01*
X135543583Y-132935558D01*
X135381129Y-133097729D01*
X135293100Y-133309724D01*
X135293085Y-133327335D01*
X132572420Y-136048000D01*
X125447521Y-136048000D01*
X125281012Y-135798801D01*
X124947829Y-135576176D01*
X124690551Y-135525000D01*
X124947829Y-135473824D01*
X125281012Y-135251199D01*
X125447521Y-135002000D01*
X133195000Y-135002000D01*
X133377540Y-134965691D01*
X133532290Y-134862290D01*
X136017495Y-132377085D01*
X136034269Y-132377100D01*
X136246417Y-132289442D01*
X136408871Y-132127271D01*
X136496900Y-131915276D01*
X136497100Y-131685731D01*
X136409442Y-131473583D01*
X136247271Y-131311129D01*
X136035276Y-131223100D01*
X135805731Y-131222900D01*
X135619893Y-131299687D01*
X136092495Y-130827085D01*
X136109269Y-130827100D01*
X136321417Y-130739442D01*
X136483871Y-130577271D01*
X136571900Y-130365276D01*
X136572100Y-130135731D01*
X136484442Y-129923583D01*
X136322271Y-129761129D01*
X136110276Y-129673100D01*
X135880731Y-129672900D01*
X135668583Y-129760558D01*
X135506129Y-129922729D01*
X135418100Y-130134724D01*
X135418085Y-130152335D01*
X133522420Y-132048000D01*
X125447521Y-132048000D01*
X125281012Y-131798801D01*
X124947829Y-131576176D01*
X124690551Y-131525000D01*
X124947829Y-131473824D01*
X125281012Y-131251199D01*
X125447521Y-131002000D01*
X134045000Y-131002000D01*
X134227540Y-130965691D01*
X134382290Y-130862290D01*
X136042495Y-129202085D01*
X136059269Y-129202100D01*
X136271417Y-129114442D01*
X136433871Y-128952271D01*
X136521900Y-128740276D01*
X136522100Y-128510731D01*
X136434442Y-128298583D01*
X136272271Y-128136129D01*
X136060276Y-128048100D01*
X135830731Y-128047900D01*
X135618583Y-128135558D01*
X135456129Y-128297729D01*
X135368100Y-128509724D01*
X135368085Y-128527335D01*
X133847420Y-130048000D01*
X125447521Y-130048000D01*
X125281012Y-129798801D01*
X124947829Y-129576176D01*
X124690551Y-129525000D01*
X124947829Y-129473824D01*
X125281012Y-129251199D01*
X125503637Y-128918016D01*
X125581813Y-128525000D01*
X125503637Y-128131984D01*
X125281012Y-127798801D01*
X124947829Y-127576176D01*
X124690551Y-127525000D01*
X124947829Y-127473824D01*
X125281012Y-127251199D01*
X125447521Y-127002000D01*
X125472420Y-127002000D01*
X125757710Y-127287290D01*
X125912460Y-127390691D01*
X126095000Y-127427000D01*
X135420000Y-127427000D01*
X135602540Y-127390691D01*
X135757290Y-127287290D01*
X144832290Y-118212290D01*
X144935691Y-118057540D01*
X144972000Y-117875000D01*
X144972000Y-115922580D01*
X148067495Y-112827085D01*
X148084269Y-112827100D01*
X148296417Y-112739442D01*
X148458871Y-112577271D01*
X148546900Y-112365276D01*
X148547100Y-112135731D01*
X148459442Y-111923583D01*
X148297271Y-111761129D01*
X148085276Y-111673100D01*
X147855731Y-111672900D01*
X147643583Y-111760558D01*
X147481129Y-111922729D01*
X147393100Y-112134724D01*
X147393085Y-112152335D01*
X144157710Y-115387710D01*
X144054309Y-115542460D01*
X144018000Y-115725000D01*
X144018000Y-117677420D01*
X135222420Y-126473000D01*
X126292580Y-126473000D01*
X126007290Y-126187710D01*
X125852540Y-126084309D01*
X125670000Y-126048000D01*
X125447521Y-126048000D01*
X125281012Y-125798801D01*
X124947829Y-125576176D01*
X124690551Y-125525000D01*
X124947829Y-125473824D01*
X125281012Y-125251199D01*
X125503637Y-124918016D01*
X125581813Y-124525000D01*
X125503637Y-124131984D01*
X125281012Y-123798801D01*
X124947829Y-123576176D01*
X124554813Y-123498000D01*
X122985187Y-123498000D01*
X122592171Y-123576176D01*
X122258988Y-123798801D01*
X122092479Y-124048000D01*
X119695000Y-124048000D01*
X119512459Y-124084309D01*
X119357710Y-124187710D01*
X119272505Y-124272915D01*
X119255731Y-124272900D01*
X119043583Y-124360558D01*
X118881129Y-124522729D01*
X118793100Y-124734724D01*
X118792900Y-124964269D01*
X118793000Y-124964511D01*
X118793000Y-127110879D01*
X118781129Y-127122729D01*
X118693100Y-127334724D01*
X118692900Y-127564269D01*
X118780558Y-127776417D01*
X118942729Y-127938871D01*
X119154724Y-128026900D01*
X119384269Y-128027100D01*
X119596417Y-127939442D01*
X119758871Y-127777271D01*
X119846900Y-127565276D01*
X119847100Y-127335731D01*
X119759442Y-127123583D01*
X119747000Y-127111119D01*
X119747000Y-125288947D01*
X119858871Y-125177271D01*
X119931651Y-125002000D01*
X122092479Y-125002000D01*
X122258988Y-125251199D01*
X122592171Y-125473824D01*
X122849449Y-125525000D01*
X122592171Y-125576176D01*
X122258988Y-125798801D01*
X122036363Y-126131984D01*
X121958187Y-126525000D01*
X122036363Y-126918016D01*
X122258988Y-127251199D01*
X122592171Y-127473824D01*
X122849449Y-127525000D01*
X122592171Y-127576176D01*
X122258988Y-127798801D01*
X122092479Y-128048000D01*
X116594121Y-128048000D01*
X116582271Y-128036129D01*
X116370276Y-127948100D01*
X116352665Y-127948085D01*
X109426990Y-121022410D01*
X109500600Y-120652346D01*
X109500600Y-120607654D01*
X109413777Y-120171165D01*
X109166526Y-119801128D01*
X108796489Y-119553877D01*
X108360000Y-119467054D01*
X107923511Y-119553877D01*
X107623399Y-119754406D01*
X107623399Y-118965594D01*
X107923511Y-119166123D01*
X108360000Y-119252946D01*
X108796489Y-119166123D01*
X109166526Y-118918872D01*
X109401640Y-118567000D01*
X110867574Y-118567000D01*
X110867574Y-118940000D01*
X110886889Y-119042650D01*
X110947555Y-119136927D01*
X111040120Y-119200175D01*
X111150000Y-119222426D01*
X112850000Y-119222426D01*
X112952650Y-119203111D01*
X113046927Y-119142445D01*
X113110175Y-119049880D01*
X113132426Y-118940000D01*
X113132426Y-117240000D01*
X113113111Y-117137350D01*
X113052445Y-117043073D01*
X112959880Y-116979825D01*
X112850000Y-116957574D01*
X111150000Y-116957574D01*
X111047350Y-116976889D01*
X110953073Y-117037555D01*
X110889825Y-117130120D01*
X110867574Y-117240000D01*
X110867574Y-117613000D01*
X109401640Y-117613000D01*
X109166526Y-117261128D01*
X108796489Y-117013877D01*
X108360000Y-116927054D01*
X107923511Y-117013877D01*
X107623399Y-117214406D01*
X107623399Y-116425594D01*
X107923511Y-116626123D01*
X108360000Y-116712946D01*
X108796489Y-116626123D01*
X109166526Y-116378872D01*
X109413777Y-116008835D01*
X109500600Y-115572346D01*
X109500600Y-115527654D01*
X109413777Y-115091165D01*
X109166526Y-114721128D01*
X108796489Y-114473877D01*
X108389041Y-114392831D01*
X111979871Y-110802000D01*
X118094995Y-110802000D01*
X118095000Y-110802001D01*
X118315808Y-110758078D01*
X118503001Y-110633001D01*
X120327998Y-108808003D01*
X120328001Y-108808001D01*
X120453078Y-108620808D01*
X120497001Y-108400000D01*
X120497000Y-108399995D01*
X120497000Y-106617937D01*
X120522650Y-106613111D01*
X120616927Y-106552445D01*
X120680175Y-106459880D01*
X120702426Y-106350000D01*
X120702426Y-104177000D01*
X120780998Y-104177000D01*
X125918000Y-109314001D01*
X125918000Y-123274995D01*
X125917999Y-123275000D01*
X125961922Y-123495808D01*
X126086999Y-123683001D01*
X128461997Y-126057998D01*
X128461999Y-126058001D01*
X128572724Y-126131984D01*
X128649192Y-126183078D01*
X128870000Y-126227000D01*
X134394995Y-126227000D01*
X134395000Y-126227001D01*
X134615808Y-126183078D01*
X134803001Y-126058001D01*
X136564971Y-124296030D01*
X136770000Y-124336813D01*
X137163016Y-124258637D01*
X137496199Y-124036012D01*
X137718824Y-123702829D01*
X137797000Y-123309813D01*
X137797000Y-121740187D01*
X137718824Y-121347171D01*
X137496199Y-121013988D01*
X137163016Y-120791363D01*
X136770000Y-120713187D01*
X136376984Y-120791363D01*
X136043801Y-121013988D01*
X135821176Y-121347171D01*
X135770000Y-121604449D01*
X135718824Y-121347171D01*
X135496199Y-121013988D01*
X135247000Y-120847479D01*
X135247000Y-116908571D01*
X142157290Y-109998281D01*
X142260691Y-109843531D01*
X142297000Y-109660991D01*
X142297000Y-103851795D01*
X142298309Y-103845328D01*
X142451672Y-103998959D01*
X142819816Y-104151825D01*
X143218436Y-104152173D01*
X143586846Y-103999949D01*
X143868959Y-103718328D01*
X144021825Y-103350184D01*
X144021937Y-103221720D01*
X154742675Y-103221720D01*
X155027829Y-103911846D01*
X155555376Y-104440316D01*
X156245004Y-104726674D01*
X156991720Y-104727325D01*
X157681846Y-104442171D01*
X158210316Y-103914624D01*
X158496674Y-103224996D01*
X158497325Y-102478280D01*
X158212171Y-101788154D01*
X157684624Y-101259684D01*
X156994996Y-100973326D01*
X156248280Y-100972675D01*
X155558154Y-101257829D01*
X155029684Y-101785376D01*
X154743326Y-102475004D01*
X154742675Y-103221720D01*
X144021937Y-103221720D01*
X144022173Y-102951564D01*
X143869949Y-102583154D01*
X143588328Y-102301041D01*
X143220184Y-102148175D01*
X142821564Y-102147827D01*
X142453154Y-102300051D01*
X142298548Y-102454388D01*
X142283111Y-102372350D01*
X142222445Y-102278073D01*
X142129880Y-102214825D01*
X142020000Y-102192574D01*
X141620000Y-102192574D01*
X141517350Y-102211889D01*
X141495840Y-102225730D01*
X141479880Y-102214825D01*
X141370000Y-102192574D01*
X140970000Y-102192574D01*
X140867350Y-102211889D01*
X140845840Y-102225730D01*
X140829880Y-102214825D01*
X140720000Y-102192574D01*
X140640335Y-102192574D01*
X140608327Y-102115301D01*
X140429698Y-101936673D01*
X140196309Y-101840000D01*
X140128750Y-101840000D01*
X139970000Y-101998750D01*
X139970000Y-103023000D01*
X140017000Y-103023000D01*
X140017000Y-103277000D01*
X139970000Y-103277000D01*
X139970000Y-104301250D01*
X140043000Y-104374250D01*
X140043000Y-108004748D01*
X130432710Y-117615038D01*
X130329309Y-117769788D01*
X130293000Y-117952328D01*
X130293000Y-120847479D01*
X130043801Y-121013988D01*
X129982830Y-121105238D01*
X129659540Y-120705855D01*
X129182684Y-120446827D01*
X129111185Y-120432682D01*
X128897000Y-120555344D01*
X128897000Y-122398000D01*
X128917000Y-122398000D01*
X128917000Y-122652000D01*
X128897000Y-122652000D01*
X128897000Y-124494656D01*
X129111185Y-124617318D01*
X129182684Y-124603173D01*
X129659540Y-124344145D01*
X129982830Y-123944762D01*
X130043801Y-124036012D01*
X130376984Y-124258637D01*
X130770000Y-124336813D01*
X131163016Y-124258637D01*
X131496199Y-124036012D01*
X131718824Y-123702829D01*
X131770000Y-123445551D01*
X131821176Y-123702829D01*
X132043801Y-124036012D01*
X132376984Y-124258637D01*
X132770000Y-124336813D01*
X133163016Y-124258637D01*
X133496199Y-124036012D01*
X133718824Y-123702829D01*
X133770000Y-123445551D01*
X133821176Y-123702829D01*
X133989971Y-123955449D01*
X133797505Y-124147915D01*
X133780731Y-124147900D01*
X133568583Y-124235558D01*
X133406129Y-124397729D01*
X133318100Y-124609724D01*
X133317900Y-124839269D01*
X133405558Y-125051417D01*
X133427103Y-125073000D01*
X129109001Y-125073000D01*
X128571567Y-124535565D01*
X128643000Y-124494656D01*
X128643000Y-122652000D01*
X127385000Y-122652000D01*
X127385000Y-123348998D01*
X127072000Y-123035998D01*
X127072000Y-121648000D01*
X127385000Y-121648000D01*
X127385000Y-122398000D01*
X128643000Y-122398000D01*
X128643000Y-120555344D01*
X128428815Y-120432682D01*
X128357316Y-120446827D01*
X127880460Y-120705855D01*
X127539028Y-121127651D01*
X127385000Y-121648000D01*
X127072000Y-121648000D01*
X127072000Y-109075000D01*
X127028078Y-108854192D01*
X126903001Y-108666999D01*
X126902998Y-108666997D01*
X121584438Y-103348436D01*
X137017827Y-103348436D01*
X137170051Y-103716846D01*
X137451672Y-103998959D01*
X137819816Y-104151825D01*
X138218436Y-104152173D01*
X138586846Y-103999949D01*
X138741452Y-103845612D01*
X138756889Y-103927650D01*
X138817555Y-104021927D01*
X138910120Y-104085175D01*
X139020000Y-104107426D01*
X139099665Y-104107426D01*
X139131673Y-104184699D01*
X139310302Y-104363327D01*
X139543691Y-104460000D01*
X139611250Y-104460000D01*
X139770000Y-104301250D01*
X139770000Y-103277000D01*
X139723000Y-103277000D01*
X139723000Y-103023000D01*
X139770000Y-103023000D01*
X139770000Y-101998750D01*
X139611250Y-101840000D01*
X139543691Y-101840000D01*
X139310302Y-101936673D01*
X139131673Y-102115301D01*
X139099665Y-102192574D01*
X139020000Y-102192574D01*
X138917350Y-102211889D01*
X138823073Y-102272555D01*
X138759825Y-102365120D01*
X138741691Y-102454672D01*
X138588328Y-102301041D01*
X138220184Y-102148175D01*
X137821564Y-102147827D01*
X137453154Y-102300051D01*
X137171041Y-102581672D01*
X137018175Y-102949816D01*
X137017827Y-103348436D01*
X121584438Y-103348436D01*
X121428001Y-103191999D01*
X121240808Y-103066922D01*
X121020000Y-103022999D01*
X121019995Y-103023000D01*
X120702426Y-103023000D01*
X120702426Y-100850000D01*
X120683111Y-100747350D01*
X120622445Y-100653073D01*
X120529880Y-100589825D01*
X120420000Y-100567574D01*
X119420000Y-100567574D01*
X119317350Y-100586889D01*
X119223073Y-100647555D01*
X119159825Y-100740120D01*
X119137574Y-100850000D01*
X119137574Y-106350000D01*
X119156889Y-106452650D01*
X119217555Y-106546927D01*
X119310120Y-106610175D01*
X119343000Y-106616833D01*
X119343000Y-108160999D01*
X117855998Y-109648000D01*
X111740875Y-109648000D01*
X111740870Y-109647999D01*
X111520062Y-109691922D01*
X111332869Y-109816999D01*
X111332867Y-109817002D01*
X106638398Y-114511470D01*
X106513321Y-114698663D01*
X106469398Y-114919471D01*
X106172000Y-114919471D01*
X106172000Y-103885750D01*
X116785000Y-103885750D01*
X116785000Y-106476310D01*
X116881673Y-106709699D01*
X117060302Y-106888327D01*
X117293691Y-106985000D01*
X117634250Y-106985000D01*
X117793000Y-106826250D01*
X117793000Y-103727000D01*
X118047000Y-103727000D01*
X118047000Y-106826250D01*
X118205750Y-106985000D01*
X118546309Y-106985000D01*
X118779698Y-106888327D01*
X118958327Y-106709699D01*
X119055000Y-106476310D01*
X119055000Y-103885750D01*
X118896250Y-103727000D01*
X118047000Y-103727000D01*
X117793000Y-103727000D01*
X116943750Y-103727000D01*
X116785000Y-103885750D01*
X106172000Y-103885750D01*
X106172000Y-101951720D01*
X106482675Y-101951720D01*
X106767829Y-102641846D01*
X107295376Y-103170316D01*
X107985004Y-103456674D01*
X108731720Y-103457325D01*
X109421846Y-103172171D01*
X109950316Y-102644624D01*
X110236674Y-101954996D01*
X110237325Y-101208280D01*
X109952171Y-100518154D01*
X109424624Y-99989684D01*
X109088227Y-99850000D01*
X114437574Y-99850000D01*
X114437574Y-102850000D01*
X114456889Y-102952650D01*
X114517555Y-103046927D01*
X114610120Y-103110175D01*
X114720000Y-103132426D01*
X116320000Y-103132426D01*
X116422650Y-103113111D01*
X116516927Y-103052445D01*
X116580175Y-102959880D01*
X116602426Y-102850000D01*
X116602426Y-100723690D01*
X116785000Y-100723690D01*
X116785000Y-103314250D01*
X116943750Y-103473000D01*
X117793000Y-103473000D01*
X117793000Y-100373750D01*
X118047000Y-100373750D01*
X118047000Y-103473000D01*
X118896250Y-103473000D01*
X119055000Y-103314250D01*
X119055000Y-100723690D01*
X118958327Y-100490301D01*
X118779698Y-100311673D01*
X118546309Y-100215000D01*
X118205750Y-100215000D01*
X118047000Y-100373750D01*
X117793000Y-100373750D01*
X117634250Y-100215000D01*
X117293691Y-100215000D01*
X117060302Y-100311673D01*
X116881673Y-100490301D01*
X116785000Y-100723690D01*
X116602426Y-100723690D01*
X116602426Y-99850000D01*
X121237574Y-99850000D01*
X121237574Y-102850000D01*
X121256889Y-102952650D01*
X121317555Y-103046927D01*
X121410120Y-103110175D01*
X121520000Y-103132426D01*
X123120000Y-103132426D01*
X123222650Y-103113111D01*
X123316927Y-103052445D01*
X123380175Y-102959880D01*
X123402426Y-102850000D01*
X123402426Y-100075962D01*
X136143000Y-100075962D01*
X136143000Y-100824038D01*
X136209758Y-101159651D01*
X136399867Y-101444171D01*
X136684387Y-101634280D01*
X137020000Y-101701038D01*
X137113568Y-101682426D01*
X138220000Y-101682426D01*
X138322650Y-101663111D01*
X138416927Y-101602445D01*
X138480175Y-101509880D01*
X138494727Y-101438017D01*
X138506889Y-101502650D01*
X138567555Y-101596927D01*
X138660120Y-101660175D01*
X138770000Y-101682426D01*
X140270000Y-101682426D01*
X140372650Y-101663111D01*
X140466927Y-101602445D01*
X140520579Y-101523924D01*
X140567555Y-101596927D01*
X140660120Y-101660175D01*
X140770000Y-101682426D01*
X142270000Y-101682426D01*
X142372650Y-101663111D01*
X142466927Y-101602445D01*
X142530175Y-101509880D01*
X142544727Y-101438017D01*
X142556889Y-101502650D01*
X142617555Y-101596927D01*
X142710120Y-101660175D01*
X142820000Y-101682426D01*
X143926432Y-101682426D01*
X144020000Y-101701038D01*
X144355613Y-101634280D01*
X144640133Y-101444171D01*
X144830242Y-101159651D01*
X144897000Y-100824038D01*
X144897000Y-100075962D01*
X144830242Y-99740349D01*
X144640133Y-99455829D01*
X144355613Y-99265720D01*
X144020000Y-99198962D01*
X143926432Y-99217574D01*
X142820000Y-99217574D01*
X142717350Y-99236889D01*
X142623073Y-99297555D01*
X142559825Y-99390120D01*
X142545273Y-99461983D01*
X142533111Y-99397350D01*
X142472445Y-99303073D01*
X142379880Y-99239825D01*
X142270000Y-99217574D01*
X140770000Y-99217574D01*
X140667350Y-99236889D01*
X140573073Y-99297555D01*
X140519421Y-99376076D01*
X140472445Y-99303073D01*
X140379880Y-99239825D01*
X140270000Y-99217574D01*
X138770000Y-99217574D01*
X138667350Y-99236889D01*
X138573073Y-99297555D01*
X138509825Y-99390120D01*
X138495273Y-99461983D01*
X138483111Y-99397350D01*
X138422445Y-99303073D01*
X138329880Y-99239825D01*
X138220000Y-99217574D01*
X137113568Y-99217574D01*
X137020000Y-99198962D01*
X136684387Y-99265720D01*
X136399867Y-99455829D01*
X136209758Y-99740349D01*
X136143000Y-100075962D01*
X123402426Y-100075962D01*
X123402426Y-99850000D01*
X123383111Y-99747350D01*
X123322445Y-99653073D01*
X123229880Y-99589825D01*
X123120000Y-99567574D01*
X121520000Y-99567574D01*
X121417350Y-99586889D01*
X121323073Y-99647555D01*
X121259825Y-99740120D01*
X121237574Y-99850000D01*
X116602426Y-99850000D01*
X116583111Y-99747350D01*
X116522445Y-99653073D01*
X116429880Y-99589825D01*
X116320000Y-99567574D01*
X114720000Y-99567574D01*
X114617350Y-99586889D01*
X114523073Y-99647555D01*
X114459825Y-99740120D01*
X114437574Y-99850000D01*
X109088227Y-99850000D01*
X108734996Y-99703326D01*
X107988280Y-99702675D01*
X107298154Y-99987829D01*
X106769684Y-100515376D01*
X106483326Y-101205004D01*
X106482675Y-101951720D01*
X106172000Y-101951720D01*
X106172000Y-98934800D01*
X158808000Y-98934800D01*
X158808000Y-151980197D01*
X158808000Y-151980197D01*
G37*
X158808000Y-151980197D02*
X157490196Y-153298000D01*
X146460000Y-153298000D01*
X146325295Y-153324794D01*
X146211098Y-153401098D01*
X146211096Y-153401101D01*
X143774196Y-155838000D01*
X109775803Y-155838000D01*
X107959524Y-154021720D01*
X111562675Y-154021720D01*
X111847829Y-154711846D01*
X112375376Y-155240316D01*
X113065004Y-155526674D01*
X113811720Y-155527325D01*
X114501846Y-155242171D01*
X115030316Y-154714624D01*
X115270569Y-154136027D01*
X129765032Y-154136027D01*
X130013179Y-154665490D01*
X130445053Y-155059688D01*
X130860974Y-155231958D01*
X131093000Y-155110817D01*
X131093000Y-153904000D01*
X129885531Y-153904000D01*
X129765032Y-154136027D01*
X115270569Y-154136027D01*
X115316674Y-154024996D01*
X115317325Y-153278280D01*
X115032171Y-152588154D01*
X114504624Y-152059684D01*
X113814996Y-151773326D01*
X113068280Y-151772675D01*
X112378154Y-152057829D01*
X111849684Y-152585376D01*
X111563326Y-153275004D01*
X111562675Y-154021720D01*
X107959524Y-154021720D01*
X107338902Y-153401098D01*
X107224705Y-153324794D01*
X107090000Y-153297999D01*
X107089995Y-153298000D01*
X106172000Y-153298000D01*
X106172000Y-114919471D01*
X106469398Y-114919471D01*
X106469399Y-114919476D01*
X106469399Y-132016394D01*
X106469398Y-132016399D01*
X106513321Y-132237207D01*
X106638398Y-132424400D01*
X107269547Y-133055548D01*
X107219400Y-133307654D01*
X107219400Y-133352346D01*
X107306223Y-133788835D01*
X107553474Y-134158872D01*
X107923511Y-134406123D01*
X108360000Y-134492946D01*
X108796489Y-134406123D01*
X109166526Y-134158872D01*
X109413777Y-133788835D01*
X109500600Y-133352346D01*
X109500600Y-133307654D01*
X109413777Y-132871165D01*
X109166526Y-132501128D01*
X108796489Y-132253877D01*
X108729610Y-132240574D01*
X109134947Y-132072688D01*
X109566821Y-131678490D01*
X109814968Y-131149027D01*
X109694469Y-130917000D01*
X108487000Y-130917000D01*
X108487000Y-130937000D01*
X108233000Y-130937000D01*
X108233000Y-130917000D01*
X108213000Y-130917000D01*
X108213000Y-130663000D01*
X108233000Y-130663000D01*
X108233000Y-128377000D01*
X108487000Y-128377000D01*
X108487000Y-130663000D01*
X109694469Y-130663000D01*
X109814968Y-130430973D01*
X109566821Y-129901510D01*
X109148848Y-129520000D01*
X109566821Y-129138490D01*
X109814968Y-128609027D01*
X109694469Y-128377000D01*
X108487000Y-128377000D01*
X108233000Y-128377000D01*
X108213000Y-128377000D01*
X108213000Y-128123000D01*
X108233000Y-128123000D01*
X108233000Y-128103000D01*
X108487000Y-128103000D01*
X108487000Y-128123000D01*
X109694469Y-128123000D01*
X109814968Y-127890973D01*
X109566821Y-127361510D01*
X109134947Y-126967312D01*
X108729610Y-126799426D01*
X108796489Y-126786123D01*
X109166526Y-126538872D01*
X109413777Y-126168835D01*
X109500600Y-125732346D01*
X109500600Y-125687654D01*
X109413777Y-125251165D01*
X109166526Y-124881128D01*
X108796489Y-124633877D01*
X108360000Y-124547054D01*
X107923511Y-124633877D01*
X107623399Y-124834406D01*
X107623399Y-124045594D01*
X107923511Y-124246123D01*
X108360000Y-124332946D01*
X108796489Y-124246123D01*
X109166526Y-123998872D01*
X109413777Y-123628835D01*
X109500600Y-123192346D01*
X109500600Y-123147654D01*
X109413777Y-122711165D01*
X109166526Y-122341128D01*
X108796489Y-122093877D01*
X108360000Y-122007054D01*
X107923511Y-122093877D01*
X107623399Y-122294406D01*
X107623399Y-121505594D01*
X107923511Y-121706123D01*
X108360000Y-121792946D01*
X108767341Y-121711921D01*
X115677915Y-128622495D01*
X115677900Y-128639269D01*
X115765558Y-128851417D01*
X115927729Y-129013871D01*
X116139724Y-129101900D01*
X116369269Y-129102100D01*
X116581417Y-129014442D01*
X116593881Y-129002000D01*
X122092479Y-129002000D01*
X122258988Y-129251199D01*
X122592171Y-129473824D01*
X122849449Y-129525000D01*
X122592171Y-129576176D01*
X122258988Y-129798801D01*
X122036363Y-130131984D01*
X121958187Y-130525000D01*
X122036363Y-130918016D01*
X122258988Y-131251199D01*
X122592171Y-131473824D01*
X122849449Y-131525000D01*
X122592171Y-131576176D01*
X122258988Y-131798801D01*
X122036363Y-132131984D01*
X121958187Y-132525000D01*
X122036363Y-132918016D01*
X122258988Y-133251199D01*
X122592171Y-133473824D01*
X122849449Y-133525000D01*
X122592171Y-133576176D01*
X122258988Y-133798801D01*
X122036363Y-134131984D01*
X121958187Y-134525000D01*
X122036363Y-134918016D01*
X122258988Y-135251199D01*
X122592171Y-135473824D01*
X122849449Y-135525000D01*
X122592171Y-135576176D01*
X122258988Y-135798801D01*
X122036363Y-136131984D01*
X121958187Y-136525000D01*
X122036363Y-136918016D01*
X122258988Y-137251199D01*
X122592171Y-137473824D01*
X122849449Y-137525000D01*
X122592171Y-137576176D01*
X122258988Y-137798801D01*
X122036363Y-138131984D01*
X121958187Y-138525000D01*
X122036363Y-138918016D01*
X122258988Y-139251199D01*
X122592171Y-139473824D01*
X122849449Y-139525000D01*
X122592171Y-139576176D01*
X122258988Y-139798801D01*
X122036363Y-140131984D01*
X121958187Y-140525000D01*
X122036363Y-140918016D01*
X122258988Y-141251199D01*
X122592171Y-141473824D01*
X122849449Y-141525000D01*
X122592171Y-141576176D01*
X122258988Y-141798801D01*
X122036363Y-142131984D01*
X121958187Y-142525000D01*
X122036363Y-142918016D01*
X122258988Y-143251199D01*
X122592171Y-143473824D01*
X122985187Y-143552000D01*
X124554813Y-143552000D01*
X124947829Y-143473824D01*
X125281012Y-143251199D01*
X125447521Y-143002000D01*
X127061742Y-143002000D01*
X127043801Y-143013988D01*
X126821176Y-143347171D01*
X126743000Y-143740187D01*
X126743000Y-145309813D01*
X126819158Y-145692684D01*
X126063842Y-146448000D01*
X115801158Y-146448000D01*
X114472000Y-145118842D01*
X114472000Y-144145000D01*
X114443303Y-144000728D01*
X114361579Y-143878421D01*
X109389030Y-138905872D01*
X109413777Y-138868835D01*
X109500600Y-138432346D01*
X109500600Y-138387654D01*
X109413777Y-137951165D01*
X109166526Y-137581128D01*
X108796489Y-137333877D01*
X108360000Y-137247054D01*
X107923511Y-137333877D01*
X107553474Y-137581128D01*
X107306223Y-137951165D01*
X107219400Y-138387654D01*
X107219400Y-138432346D01*
X107306223Y-138868835D01*
X107553474Y-139238872D01*
X107923511Y-139486123D01*
X108360000Y-139572946D01*
X108796489Y-139486123D01*
X108860317Y-139443475D01*
X113718000Y-144301158D01*
X113718000Y-145275000D01*
X113746697Y-145419272D01*
X113828421Y-145541579D01*
X115259842Y-146973000D01*
X114176159Y-146973000D01*
X109600599Y-142397441D01*
X109600599Y-141813599D01*
X109571902Y-141669327D01*
X109490178Y-141547019D01*
X109389030Y-141445871D01*
X109413777Y-141408835D01*
X109500600Y-140972346D01*
X109500600Y-140927654D01*
X109413777Y-140491165D01*
X109166526Y-140121128D01*
X108796489Y-139873877D01*
X108360000Y-139787054D01*
X107923511Y-139873877D01*
X107553474Y-140121128D01*
X107306223Y-140491165D01*
X107219400Y-140927654D01*
X107219400Y-140972346D01*
X107306223Y-141408835D01*
X107553474Y-141778872D01*
X107923511Y-142026123D01*
X108360000Y-142112946D01*
X108796489Y-142026123D01*
X108846599Y-141992641D01*
X108846599Y-142447359D01*
X108796489Y-142413877D01*
X108360000Y-142327054D01*
X107923511Y-142413877D01*
X107553474Y-142661128D01*
X107306223Y-143031165D01*
X107219400Y-143467654D01*
X107219400Y-143512346D01*
X107306223Y-143948835D01*
X107553474Y-144318872D01*
X107923511Y-144566123D01*
X108360000Y-144652946D01*
X108796489Y-144566123D01*
X108860317Y-144523475D01*
X112284862Y-147948021D01*
X110811179Y-147948021D01*
X109389030Y-146525872D01*
X109413777Y-146488835D01*
X109500600Y-146052346D01*
X109500600Y-146007654D01*
X109413777Y-145571165D01*
X109166526Y-145201128D01*
X108796489Y-144953877D01*
X108360000Y-144867054D01*
X107923511Y-144953877D01*
X107553474Y-145201128D01*
X107306223Y-145571165D01*
X107219400Y-146007654D01*
X107219400Y-146052346D01*
X107306223Y-146488835D01*
X107553474Y-146858872D01*
X107923511Y-147106123D01*
X108360000Y-147192946D01*
X108796489Y-147106123D01*
X108860317Y-147063475D01*
X110388442Y-148591600D01*
X110510749Y-148673324D01*
X110655021Y-148702021D01*
X122984959Y-148702021D01*
X123129231Y-148673324D01*
X123251538Y-148591600D01*
X123291138Y-148552000D01*
X130870000Y-148552000D01*
X131014272Y-148523303D01*
X131136579Y-148441579D01*
X133342537Y-146235621D01*
X133376984Y-146258637D01*
X133770000Y-146336813D01*
X134163016Y-146258637D01*
X134434812Y-146077029D01*
X131738842Y-148773000D01*
X110317472Y-148773000D01*
X109847893Y-148303421D01*
X109725586Y-148221697D01*
X109581314Y-148193000D01*
X109430055Y-148193000D01*
X109413777Y-148111165D01*
X109166526Y-147741128D01*
X108796489Y-147493877D01*
X108360000Y-147407054D01*
X107923511Y-147493877D01*
X107553474Y-147741128D01*
X107306223Y-148111165D01*
X107219400Y-148547654D01*
X107219400Y-148592346D01*
X107306223Y-149028835D01*
X107553474Y-149398872D01*
X107923511Y-149646123D01*
X108360000Y-149732946D01*
X108796489Y-149646123D01*
X109166526Y-149398872D01*
X109413777Y-149028835D01*
X109429242Y-148951086D01*
X109894735Y-149416579D01*
X110017042Y-149498303D01*
X110161314Y-149527000D01*
X131895000Y-149527000D01*
X132039272Y-149498303D01*
X132161579Y-149416579D01*
X135342538Y-146235621D01*
X135376984Y-146258637D01*
X135770000Y-146336813D01*
X136163016Y-146258637D01*
X136434813Y-146077029D01*
X134713842Y-147798000D01*
X134678880Y-147798000D01*
X134534608Y-147826697D01*
X134412301Y-147908421D01*
X132772722Y-149548000D01*
X110766314Y-149548000D01*
X110622042Y-149576697D01*
X110499735Y-149658421D01*
X109429242Y-150728914D01*
X109413777Y-150651165D01*
X109166526Y-150281128D01*
X108796489Y-150033877D01*
X108360000Y-149947054D01*
X107923511Y-150033877D01*
X107553474Y-150281128D01*
X107306223Y-150651165D01*
X107219400Y-151087654D01*
X107219400Y-151132346D01*
X107306223Y-151568835D01*
X107553474Y-151938872D01*
X107923511Y-152186123D01*
X108360000Y-152272946D01*
X108796489Y-152186123D01*
X109166526Y-151938872D01*
X109413777Y-151568835D01*
X109430055Y-151487000D01*
X109581314Y-151487000D01*
X109725586Y-151458303D01*
X109847893Y-151376579D01*
X110922472Y-150302000D01*
X130572306Y-150302000D01*
X130413474Y-150408128D01*
X130166223Y-150778165D01*
X130079400Y-151214654D01*
X130079400Y-151259346D01*
X130166223Y-151695835D01*
X130413474Y-152065872D01*
X130783511Y-152313123D01*
X130850390Y-152326426D01*
X130445053Y-152494312D01*
X130013179Y-152888510D01*
X129765032Y-153417973D01*
X129885531Y-153650000D01*
X131093000Y-153650000D01*
X131093000Y-153630000D01*
X131347000Y-153630000D01*
X131347000Y-153650000D01*
X131367000Y-153650000D01*
X131367000Y-153904000D01*
X131347000Y-153904000D01*
X131347000Y-155110817D01*
X131579026Y-155231958D01*
X131994947Y-155059688D01*
X132426821Y-154665490D01*
X132674968Y-154136027D01*
X132554470Y-153904002D01*
X132640217Y-153904002D01*
X132706223Y-154235835D01*
X132953474Y-154605872D01*
X133323511Y-154853123D01*
X133760000Y-154939946D01*
X134196489Y-154853123D01*
X134566526Y-154605872D01*
X134813777Y-154235835D01*
X134900600Y-153799346D01*
X134900600Y-153754654D01*
X134813777Y-153318165D01*
X134795226Y-153290401D01*
X135118589Y-153290401D01*
X135262861Y-153261704D01*
X135300958Y-153236248D01*
X135246223Y-153318165D01*
X135159400Y-153754654D01*
X135159400Y-153799346D01*
X135246223Y-154235835D01*
X135493474Y-154605872D01*
X135863511Y-154853123D01*
X136300000Y-154939946D01*
X136736489Y-154853123D01*
X137106526Y-154605872D01*
X137353777Y-154235835D01*
X137396367Y-154021720D01*
X139502675Y-154021720D01*
X139787829Y-154711846D01*
X140315376Y-155240316D01*
X141005004Y-155526674D01*
X141751720Y-155527325D01*
X142441846Y-155242171D01*
X142970316Y-154714624D01*
X143256674Y-154024996D01*
X143257325Y-153278280D01*
X142972171Y-152588154D01*
X142444624Y-152059684D01*
X141754996Y-151773326D01*
X141008280Y-151772675D01*
X140318154Y-152057829D01*
X139789684Y-152585376D01*
X139503326Y-153275004D01*
X139502675Y-154021720D01*
X137396367Y-154021720D01*
X137440600Y-153799346D01*
X137440600Y-153754654D01*
X137353777Y-153318165D01*
X137106526Y-152948128D01*
X136904889Y-152813399D01*
X138630634Y-151087654D01*
X155479400Y-151087654D01*
X155479400Y-151132346D01*
X155566223Y-151568835D01*
X155813474Y-151938872D01*
X156183511Y-152186123D01*
X156620000Y-152272946D01*
X157056489Y-152186123D01*
X157426526Y-151938872D01*
X157673777Y-151568835D01*
X157760600Y-151132346D01*
X157760600Y-151087654D01*
X157673777Y-150651165D01*
X157426526Y-150281128D01*
X157056489Y-150033877D01*
X156620000Y-149947054D01*
X156183511Y-150033877D01*
X155813474Y-150281128D01*
X155566223Y-150651165D01*
X155479400Y-151087654D01*
X138630634Y-151087654D01*
X139736610Y-149981678D01*
X139818334Y-149859371D01*
X139847031Y-149715099D01*
X139847031Y-148547654D01*
X155479400Y-148547654D01*
X155479400Y-148592346D01*
X155566223Y-149028835D01*
X155813474Y-149398872D01*
X156183511Y-149646123D01*
X156620000Y-149732946D01*
X157056489Y-149646123D01*
X157426526Y-149398872D01*
X157673777Y-149028835D01*
X157760600Y-148592346D01*
X157760600Y-148547654D01*
X157673777Y-148111165D01*
X157426526Y-147741128D01*
X157056489Y-147493877D01*
X156620000Y-147407054D01*
X156183511Y-147493877D01*
X155813474Y-147741128D01*
X155566223Y-148111165D01*
X155479400Y-148547654D01*
X139847031Y-148547654D01*
X139847031Y-145200000D01*
X152867574Y-145200000D01*
X152867574Y-146900000D01*
X152886889Y-147002650D01*
X152947555Y-147096927D01*
X153040120Y-147160175D01*
X153150000Y-147182426D01*
X154850000Y-147182426D01*
X154952650Y-147163111D01*
X155046927Y-147102445D01*
X155110175Y-147009880D01*
X155132426Y-146900000D01*
X155132426Y-146527000D01*
X155591724Y-146527000D01*
X155813474Y-146858872D01*
X156183511Y-147106123D01*
X156620000Y-147192946D01*
X157056489Y-147106123D01*
X157426526Y-146858872D01*
X157673777Y-146488835D01*
X157760600Y-146052346D01*
X157760600Y-146007654D01*
X157673777Y-145571165D01*
X157426526Y-145201128D01*
X157056489Y-144953877D01*
X156620000Y-144867054D01*
X156183511Y-144953877D01*
X155813474Y-145201128D01*
X155566223Y-145571165D01*
X155565858Y-145573000D01*
X155132426Y-145573000D01*
X155132426Y-145200000D01*
X155113111Y-145097350D01*
X155052445Y-145003073D01*
X154959880Y-144939825D01*
X154850000Y-144917574D01*
X153150000Y-144917574D01*
X153047350Y-144936889D01*
X152953073Y-144997555D01*
X152889825Y-145090120D01*
X152867574Y-145200000D01*
X139847031Y-145200000D01*
X139847031Y-143223406D01*
X139950855Y-143414540D01*
X140372651Y-143755972D01*
X140893000Y-143910000D01*
X141643000Y-143910000D01*
X141643000Y-142652000D01*
X141897000Y-142652000D01*
X141897000Y-143910000D01*
X142647000Y-143910000D01*
X143167349Y-143755972D01*
X143589145Y-143414540D01*
X143848173Y-142937684D01*
X143862318Y-142866185D01*
X143739656Y-142652000D01*
X141897000Y-142652000D01*
X141643000Y-142652000D01*
X141623000Y-142652000D01*
X141623000Y-142398000D01*
X141643000Y-142398000D01*
X141643000Y-142378000D01*
X141897000Y-142378000D01*
X141897000Y-142398000D01*
X143739656Y-142398000D01*
X143862318Y-142183815D01*
X143848173Y-142112316D01*
X143589145Y-141635460D01*
X143189762Y-141312170D01*
X143281012Y-141251199D01*
X143447521Y-141002000D01*
X153457420Y-141002000D01*
X155553010Y-143097590D01*
X155479400Y-143467654D01*
X155479400Y-143512346D01*
X155566223Y-143948835D01*
X155813474Y-144318872D01*
X156183511Y-144566123D01*
X156620000Y-144652946D01*
X157056489Y-144566123D01*
X157426526Y-144318872D01*
X157673777Y-143948835D01*
X157760600Y-143512346D01*
X157760600Y-143467654D01*
X157673777Y-143031165D01*
X157426526Y-142661128D01*
X157056489Y-142413877D01*
X156620000Y-142327054D01*
X156212659Y-142408079D01*
X153992290Y-140187710D01*
X153837540Y-140084309D01*
X153655000Y-140048000D01*
X143447521Y-140048000D01*
X143281012Y-139798801D01*
X142947829Y-139576176D01*
X142690551Y-139525000D01*
X142947829Y-139473824D01*
X143281012Y-139251199D01*
X143447521Y-139002000D01*
X153997420Y-139002000D01*
X155553010Y-140557590D01*
X155479400Y-140927654D01*
X155479400Y-140972346D01*
X155566223Y-141408835D01*
X155813474Y-141778872D01*
X156183511Y-142026123D01*
X156620000Y-142112946D01*
X157056489Y-142026123D01*
X157426526Y-141778872D01*
X157673777Y-141408835D01*
X157760600Y-140972346D01*
X157760600Y-140927654D01*
X157673777Y-140491165D01*
X157426526Y-140121128D01*
X157056489Y-139873877D01*
X156620000Y-139787054D01*
X156212659Y-139868079D01*
X154532290Y-138187710D01*
X154377540Y-138084309D01*
X154195000Y-138048000D01*
X143447521Y-138048000D01*
X143281012Y-137798801D01*
X142947829Y-137576176D01*
X142690551Y-137525000D01*
X142947829Y-137473824D01*
X143281012Y-137251199D01*
X143447521Y-137002000D01*
X154537420Y-137002000D01*
X155553010Y-138017590D01*
X155479400Y-138387654D01*
X155479400Y-138432346D01*
X155566223Y-138868835D01*
X155813474Y-139238872D01*
X156183511Y-139486123D01*
X156620000Y-139572946D01*
X157056489Y-139486123D01*
X157426526Y-139238872D01*
X157673777Y-138868835D01*
X157760600Y-138432346D01*
X157760600Y-138387654D01*
X157673777Y-137951165D01*
X157426526Y-137581128D01*
X157056489Y-137333877D01*
X156620000Y-137247054D01*
X156212659Y-137328079D01*
X155072290Y-136187710D01*
X154917540Y-136084309D01*
X154735000Y-136048000D01*
X143447521Y-136048000D01*
X143281012Y-135798801D01*
X142947829Y-135576176D01*
X142690551Y-135525000D01*
X142947829Y-135473824D01*
X143281012Y-135251199D01*
X143300511Y-135222017D01*
X155297437Y-135222017D01*
X155553010Y-135477590D01*
X155479400Y-135847654D01*
X155479400Y-135892346D01*
X155566223Y-136328835D01*
X155813474Y-136698872D01*
X156183511Y-136946123D01*
X156620000Y-137032946D01*
X157056489Y-136946123D01*
X157426526Y-136698872D01*
X157673777Y-136328835D01*
X157760600Y-135892346D01*
X157760600Y-135847654D01*
X157673777Y-135411165D01*
X157426526Y-135041128D01*
X157056489Y-134793877D01*
X156620000Y-134707054D01*
X156212659Y-134788079D01*
X155832307Y-134407727D01*
X155677557Y-134304326D01*
X155495017Y-134268017D01*
X155114602Y-134268017D01*
X155132426Y-134180000D01*
X155132426Y-133807000D01*
X155578360Y-133807000D01*
X155813474Y-134158872D01*
X156183511Y-134406123D01*
X156620000Y-134492946D01*
X157056489Y-134406123D01*
X157426526Y-134158872D01*
X157673777Y-133788835D01*
X157760600Y-133352346D01*
X157760600Y-133307654D01*
X157673777Y-132871165D01*
X157426526Y-132501128D01*
X157056489Y-132253877D01*
X156620000Y-132167054D01*
X156183511Y-132253877D01*
X155813474Y-132501128D01*
X155578360Y-132853000D01*
X155132426Y-132853000D01*
X155132426Y-132480000D01*
X155113111Y-132377350D01*
X155052445Y-132283073D01*
X154959880Y-132219825D01*
X154850000Y-132197574D01*
X153150000Y-132197574D01*
X153047350Y-132216889D01*
X152953073Y-132277555D01*
X152889825Y-132370120D01*
X152867574Y-132480000D01*
X152867574Y-134180000D01*
X152884136Y-134268017D01*
X143530696Y-134268017D01*
X143503637Y-134131984D01*
X143281012Y-133798801D01*
X142947829Y-133576176D01*
X142690551Y-133525000D01*
X142947829Y-133473824D01*
X143281012Y-133251199D01*
X143503637Y-132918016D01*
X143581813Y-132525000D01*
X143503637Y-132131984D01*
X143281012Y-131798801D01*
X142947829Y-131576176D01*
X142690551Y-131525000D01*
X142947829Y-131473824D01*
X143281012Y-131251199D01*
X143503637Y-130918016D01*
X143581813Y-130525000D01*
X143503637Y-130131984D01*
X143281012Y-129798801D01*
X142947829Y-129576176D01*
X142690551Y-129525000D01*
X142947829Y-129473824D01*
X143281012Y-129251199D01*
X143503637Y-128918016D01*
X143581813Y-128525000D01*
X143558939Y-128410000D01*
X152867574Y-128410000D01*
X152867574Y-130110000D01*
X152886889Y-130212650D01*
X152947555Y-130306927D01*
X153040120Y-130370175D01*
X153150000Y-130392426D01*
X154850000Y-130392426D01*
X154952650Y-130373111D01*
X155046927Y-130312445D01*
X155110175Y-130219880D01*
X155132426Y-130110000D01*
X155132426Y-129737000D01*
X155574351Y-129737000D01*
X155813474Y-130094872D01*
X156183511Y-130342123D01*
X156620000Y-130428946D01*
X157056489Y-130342123D01*
X157426526Y-130094872D01*
X157673777Y-129724835D01*
X157760600Y-129288346D01*
X157760600Y-129243654D01*
X157673777Y-128807165D01*
X157426526Y-128437128D01*
X157056489Y-128189877D01*
X156620000Y-128103054D01*
X156183511Y-128189877D01*
X155813474Y-128437128D01*
X155582370Y-128783000D01*
X155132426Y-128783000D01*
X155132426Y-128410000D01*
X155113111Y-128307350D01*
X155052445Y-128213073D01*
X154959880Y-128149825D01*
X154850000Y-128127574D01*
X153150000Y-128127574D01*
X153047350Y-128146889D01*
X152953073Y-128207555D01*
X152889825Y-128300120D01*
X152867574Y-128410000D01*
X143558939Y-128410000D01*
X143503637Y-128131984D01*
X143281012Y-127798801D01*
X142947829Y-127576176D01*
X142690551Y-127525000D01*
X142947829Y-127473824D01*
X143281012Y-127251199D01*
X143447521Y-127002000D01*
X143670000Y-127002000D01*
X143852540Y-126965691D01*
X144007290Y-126862290D01*
X144165926Y-126703654D01*
X155479400Y-126703654D01*
X155479400Y-126748346D01*
X155566223Y-127184835D01*
X155813474Y-127554872D01*
X156183511Y-127802123D01*
X156620000Y-127888946D01*
X157056489Y-127802123D01*
X157426526Y-127554872D01*
X157673777Y-127184835D01*
X157760600Y-126748346D01*
X157760600Y-126703654D01*
X157673777Y-126267165D01*
X157426526Y-125897128D01*
X157056489Y-125649877D01*
X156620000Y-125563054D01*
X156183511Y-125649877D01*
X155813474Y-125897128D01*
X155566223Y-126267165D01*
X155479400Y-126703654D01*
X144165926Y-126703654D01*
X146705926Y-124163654D01*
X155479400Y-124163654D01*
X155479400Y-124208346D01*
X155566223Y-124644835D01*
X155813474Y-125014872D01*
X156183511Y-125262123D01*
X156620000Y-125348946D01*
X157056489Y-125262123D01*
X157426526Y-125014872D01*
X157673777Y-124644835D01*
X157760600Y-124208346D01*
X157760600Y-124163654D01*
X157673777Y-123727165D01*
X157426526Y-123357128D01*
X157056489Y-123109877D01*
X156620000Y-123023054D01*
X156183511Y-123109877D01*
X155813474Y-123357128D01*
X155566223Y-123727165D01*
X155479400Y-124163654D01*
X146705926Y-124163654D01*
X146807290Y-124062290D01*
X146910691Y-123907540D01*
X146947000Y-123725000D01*
X146947000Y-121623654D01*
X155479400Y-121623654D01*
X155479400Y-121668346D01*
X155566223Y-122104835D01*
X155813474Y-122474872D01*
X156183511Y-122722123D01*
X156620000Y-122808946D01*
X157056489Y-122722123D01*
X157426526Y-122474872D01*
X157673777Y-122104835D01*
X157760600Y-121668346D01*
X157760600Y-121623654D01*
X157673777Y-121187165D01*
X157426526Y-120817128D01*
X157056489Y-120569877D01*
X156620000Y-120483054D01*
X156183511Y-120569877D01*
X155813474Y-120817128D01*
X155566223Y-121187165D01*
X155479400Y-121623654D01*
X146947000Y-121623654D01*
X146947000Y-119083654D01*
X155479400Y-119083654D01*
X155479400Y-119128346D01*
X155566223Y-119564835D01*
X155813474Y-119934872D01*
X156183511Y-120182123D01*
X156620000Y-120268946D01*
X157056489Y-120182123D01*
X157426526Y-119934872D01*
X157673777Y-119564835D01*
X157760600Y-119128346D01*
X157760600Y-119083654D01*
X157673777Y-118647165D01*
X157426526Y-118277128D01*
X157056489Y-118029877D01*
X156620000Y-117943054D01*
X156183511Y-118029877D01*
X155813474Y-118277128D01*
X155566223Y-118647165D01*
X155479400Y-119083654D01*
X146947000Y-119083654D01*
X146947000Y-118547580D01*
X151109553Y-114385027D01*
X155165032Y-114385027D01*
X155413179Y-114914490D01*
X155845053Y-115308688D01*
X156250390Y-115476574D01*
X156183511Y-115489877D01*
X155813474Y-115737128D01*
X155566223Y-116107165D01*
X155479400Y-116543654D01*
X155479400Y-116588346D01*
X155566223Y-117024835D01*
X155813474Y-117394872D01*
X156183511Y-117642123D01*
X156620000Y-117728946D01*
X157056489Y-117642123D01*
X157426526Y-117394872D01*
X157673777Y-117024835D01*
X157760600Y-116588346D01*
X157760600Y-116543654D01*
X157673777Y-116107165D01*
X157426526Y-115737128D01*
X157056489Y-115489877D01*
X156989610Y-115476574D01*
X157394947Y-115308688D01*
X157826821Y-114914490D01*
X158074968Y-114385027D01*
X157954469Y-114153000D01*
X156747000Y-114153000D01*
X156747000Y-114173000D01*
X156493000Y-114173000D01*
X156493000Y-114153000D01*
X155285531Y-114153000D01*
X155165032Y-114385027D01*
X151109553Y-114385027D01*
X151827607Y-113666973D01*
X155165032Y-113666973D01*
X155285531Y-113899000D01*
X156493000Y-113899000D01*
X156493000Y-113879000D01*
X156747000Y-113879000D01*
X156747000Y-113899000D01*
X157954469Y-113899000D01*
X158074968Y-113666973D01*
X157826821Y-113137510D01*
X157394947Y-112743312D01*
X156989610Y-112575426D01*
X157056489Y-112562123D01*
X157426526Y-112314872D01*
X157673777Y-111944835D01*
X157760600Y-111508346D01*
X157760600Y-111463654D01*
X157673777Y-111027165D01*
X157426526Y-110657128D01*
X157056489Y-110409877D01*
X156620000Y-110323054D01*
X156183511Y-110409877D01*
X155813474Y-110657128D01*
X155566223Y-111027165D01*
X155479400Y-111463654D01*
X155479400Y-111508346D01*
X155566223Y-111944835D01*
X155813474Y-112314872D01*
X156183511Y-112562123D01*
X156250390Y-112575426D01*
X155845053Y-112743312D01*
X155413179Y-113137510D01*
X155165032Y-113666973D01*
X151827607Y-113666973D01*
X155042580Y-110452000D01*
X155591000Y-110452000D01*
X155773540Y-110415691D01*
X155928290Y-110312290D01*
X156212659Y-110027921D01*
X156620000Y-110108946D01*
X157056489Y-110022123D01*
X157426526Y-109774872D01*
X157673777Y-109404835D01*
X157760600Y-108968346D01*
X157760600Y-108923654D01*
X157673777Y-108487165D01*
X157426526Y-108117128D01*
X157056489Y-107869877D01*
X156620000Y-107783054D01*
X156183511Y-107869877D01*
X155813474Y-108117128D01*
X155566223Y-108487165D01*
X155479400Y-108923654D01*
X155479400Y-108968346D01*
X155553010Y-109338410D01*
X155393420Y-109498000D01*
X154845000Y-109498000D01*
X154662460Y-109534309D01*
X154507710Y-109637710D01*
X146132710Y-118012710D01*
X146097000Y-118066154D01*
X146097000Y-117603580D01*
X156212659Y-107487921D01*
X156620000Y-107568946D01*
X157056489Y-107482123D01*
X157426526Y-107234872D01*
X157673777Y-106864835D01*
X157760600Y-106428346D01*
X157760600Y-106383654D01*
X157673777Y-105947165D01*
X157426526Y-105577128D01*
X157056489Y-105329877D01*
X156620000Y-105243054D01*
X156183511Y-105329877D01*
X155813474Y-105577128D01*
X155566223Y-105947165D01*
X155479400Y-106383654D01*
X155479400Y-106428346D01*
X155553010Y-106798410D01*
X145282710Y-117068710D01*
X145179309Y-117223460D01*
X145143000Y-117406000D01*
X145143000Y-121227420D01*
X142819725Y-123550695D01*
X142554813Y-123498000D01*
X140985187Y-123498000D01*
X140592171Y-123576176D01*
X140258988Y-123798801D01*
X140036363Y-124131984D01*
X139958187Y-124525000D01*
X140036363Y-124918016D01*
X140258988Y-125251199D01*
X140592171Y-125473824D01*
X140849449Y-125525000D01*
X140592171Y-125576176D01*
X140258988Y-125798801D01*
X140036363Y-126131984D01*
X139958187Y-126525000D01*
X140036363Y-126918016D01*
X140258988Y-127251199D01*
X140592171Y-127473824D01*
X140849449Y-127525000D01*
X140592171Y-127576176D01*
X140258988Y-127798801D01*
X140036363Y-128131984D01*
X140031660Y-128155626D01*
X139925728Y-128176697D01*
X139803420Y-128258421D01*
X138503431Y-129558411D01*
X138421707Y-129680718D01*
X138393010Y-129824990D01*
X138393010Y-142945040D01*
X138163016Y-142791363D01*
X137770000Y-142713187D01*
X137376984Y-142791363D01*
X137043801Y-143013988D01*
X136821176Y-143347171D01*
X136770000Y-143604449D01*
X136718824Y-143347171D01*
X136496199Y-143013988D01*
X136163016Y-142791363D01*
X135946321Y-142748259D01*
X136217495Y-142477085D01*
X136234269Y-142477100D01*
X136446417Y-142389442D01*
X136608871Y-142227271D01*
X136696900Y-142015276D01*
X136697079Y-141809887D01*
X136755558Y-141951417D01*
X136917729Y-142113871D01*
X137129724Y-142201900D01*
X137359269Y-142202100D01*
X137571417Y-142114442D01*
X137733871Y-141952271D01*
X137821900Y-141740276D01*
X137822100Y-141510731D01*
X137734442Y-141298583D01*
X137572271Y-141136129D01*
X137360276Y-141048100D01*
X137342665Y-141048085D01*
X136482290Y-140187710D01*
X136327540Y-140084309D01*
X136145000Y-140048000D01*
X125447521Y-140048000D01*
X125281012Y-139798801D01*
X124947829Y-139576176D01*
X124690551Y-139525000D01*
X124947829Y-139473824D01*
X125281012Y-139251199D01*
X125447521Y-139002000D01*
X132370000Y-139002000D01*
X132552540Y-138965691D01*
X132707290Y-138862290D01*
X136292495Y-135277085D01*
X136309269Y-135277100D01*
X136521417Y-135189442D01*
X136683871Y-135027271D01*
X136771900Y-134815276D01*
X136772100Y-134585731D01*
X136684442Y-134373583D01*
X136522271Y-134211129D01*
X136310276Y-134123100D01*
X136080731Y-134122900D01*
X135868583Y-134210558D01*
X135706129Y-134372729D01*
X135618100Y-134584724D01*
X135618085Y-134602335D01*
X132172420Y-138048000D01*
X125447521Y-138048000D01*
X125281012Y-137798801D01*
X124947829Y-137576176D01*
X124690551Y-137525000D01*
X124947829Y-137473824D01*
X125281012Y-137251199D01*
X125447521Y-137002000D01*
X132770000Y-137002000D01*
X132952540Y-136965691D01*
X133107290Y-136862290D01*
X135967495Y-134002085D01*
X135984269Y-134002100D01*
X136196417Y-133914442D01*
X136358871Y-133752271D01*
X136446900Y-133540276D01*
X136447100Y-133310731D01*
X136359442Y-133098583D01*
X136197271Y-132936129D01*
X135985276Y-132848100D01*
X135755731Y-132847900D01*
X135543583Y-132935558D01*
X135381129Y-133097729D01*
X135293100Y-133309724D01*
X135293085Y-133327335D01*
X132572420Y-136048000D01*
X125447521Y-136048000D01*
X125281012Y-135798801D01*
X124947829Y-135576176D01*
X124690551Y-135525000D01*
X124947829Y-135473824D01*
X125281012Y-135251199D01*
X125447521Y-135002000D01*
X133195000Y-135002000D01*
X133377540Y-134965691D01*
X133532290Y-134862290D01*
X136017495Y-132377085D01*
X136034269Y-132377100D01*
X136246417Y-132289442D01*
X136408871Y-132127271D01*
X136496900Y-131915276D01*
X136497100Y-131685731D01*
X136409442Y-131473583D01*
X136247271Y-131311129D01*
X136035276Y-131223100D01*
X135805731Y-131222900D01*
X135619893Y-131299687D01*
X136092495Y-130827085D01*
X136109269Y-130827100D01*
X136321417Y-130739442D01*
X136483871Y-130577271D01*
X136571900Y-130365276D01*
X136572100Y-130135731D01*
X136484442Y-129923583D01*
X136322271Y-129761129D01*
X136110276Y-129673100D01*
X135880731Y-129672900D01*
X135668583Y-129760558D01*
X135506129Y-129922729D01*
X135418100Y-130134724D01*
X135418085Y-130152335D01*
X133522420Y-132048000D01*
X125447521Y-132048000D01*
X125281012Y-131798801D01*
X124947829Y-131576176D01*
X124690551Y-131525000D01*
X124947829Y-131473824D01*
X125281012Y-131251199D01*
X125447521Y-131002000D01*
X134045000Y-131002000D01*
X134227540Y-130965691D01*
X134382290Y-130862290D01*
X136042495Y-129202085D01*
X136059269Y-129202100D01*
X136271417Y-129114442D01*
X136433871Y-128952271D01*
X136521900Y-128740276D01*
X136522100Y-128510731D01*
X136434442Y-128298583D01*
X136272271Y-128136129D01*
X136060276Y-128048100D01*
X135830731Y-128047900D01*
X135618583Y-128135558D01*
X135456129Y-128297729D01*
X135368100Y-128509724D01*
X135368085Y-128527335D01*
X133847420Y-130048000D01*
X125447521Y-130048000D01*
X125281012Y-129798801D01*
X124947829Y-129576176D01*
X124690551Y-129525000D01*
X124947829Y-129473824D01*
X125281012Y-129251199D01*
X125503637Y-128918016D01*
X125581813Y-128525000D01*
X125503637Y-128131984D01*
X125281012Y-127798801D01*
X124947829Y-127576176D01*
X124690551Y-127525000D01*
X124947829Y-127473824D01*
X125281012Y-127251199D01*
X125447521Y-127002000D01*
X125472420Y-127002000D01*
X125757710Y-127287290D01*
X125912460Y-127390691D01*
X126095000Y-127427000D01*
X135420000Y-127427000D01*
X135602540Y-127390691D01*
X135757290Y-127287290D01*
X144832290Y-118212290D01*
X144935691Y-118057540D01*
X144972000Y-117875000D01*
X144972000Y-115922580D01*
X148067495Y-112827085D01*
X148084269Y-112827100D01*
X148296417Y-112739442D01*
X148458871Y-112577271D01*
X148546900Y-112365276D01*
X148547100Y-112135731D01*
X148459442Y-111923583D01*
X148297271Y-111761129D01*
X148085276Y-111673100D01*
X147855731Y-111672900D01*
X147643583Y-111760558D01*
X147481129Y-111922729D01*
X147393100Y-112134724D01*
X147393085Y-112152335D01*
X144157710Y-115387710D01*
X144054309Y-115542460D01*
X144018000Y-115725000D01*
X144018000Y-117677420D01*
X135222420Y-126473000D01*
X126292580Y-126473000D01*
X126007290Y-126187710D01*
X125852540Y-126084309D01*
X125670000Y-126048000D01*
X125447521Y-126048000D01*
X125281012Y-125798801D01*
X124947829Y-125576176D01*
X124690551Y-125525000D01*
X124947829Y-125473824D01*
X125281012Y-125251199D01*
X125503637Y-124918016D01*
X125581813Y-124525000D01*
X125503637Y-124131984D01*
X125281012Y-123798801D01*
X124947829Y-123576176D01*
X124554813Y-123498000D01*
X122985187Y-123498000D01*
X122592171Y-123576176D01*
X122258988Y-123798801D01*
X122092479Y-124048000D01*
X119695000Y-124048000D01*
X119512459Y-124084309D01*
X119357710Y-124187710D01*
X119272505Y-124272915D01*
X119255731Y-124272900D01*
X119043583Y-124360558D01*
X118881129Y-124522729D01*
X118793100Y-124734724D01*
X118792900Y-124964269D01*
X118793000Y-124964511D01*
X118793000Y-127110879D01*
X118781129Y-127122729D01*
X118693100Y-127334724D01*
X118692900Y-127564269D01*
X118780558Y-127776417D01*
X118942729Y-127938871D01*
X119154724Y-128026900D01*
X119384269Y-128027100D01*
X119596417Y-127939442D01*
X119758871Y-127777271D01*
X119846900Y-127565276D01*
X119847100Y-127335731D01*
X119759442Y-127123583D01*
X119747000Y-127111119D01*
X119747000Y-125288947D01*
X119858871Y-125177271D01*
X119931651Y-125002000D01*
X122092479Y-125002000D01*
X122258988Y-125251199D01*
X122592171Y-125473824D01*
X122849449Y-125525000D01*
X122592171Y-125576176D01*
X122258988Y-125798801D01*
X122036363Y-126131984D01*
X121958187Y-126525000D01*
X122036363Y-126918016D01*
X122258988Y-127251199D01*
X122592171Y-127473824D01*
X122849449Y-127525000D01*
X122592171Y-127576176D01*
X122258988Y-127798801D01*
X122092479Y-128048000D01*
X116594121Y-128048000D01*
X116582271Y-128036129D01*
X116370276Y-127948100D01*
X116352665Y-127948085D01*
X109426990Y-121022410D01*
X109500600Y-120652346D01*
X109500600Y-120607654D01*
X109413777Y-120171165D01*
X109166526Y-119801128D01*
X108796489Y-119553877D01*
X108360000Y-119467054D01*
X107923511Y-119553877D01*
X107623399Y-119754406D01*
X107623399Y-118965594D01*
X107923511Y-119166123D01*
X108360000Y-119252946D01*
X108796489Y-119166123D01*
X109166526Y-118918872D01*
X109401640Y-118567000D01*
X110867574Y-118567000D01*
X110867574Y-118940000D01*
X110886889Y-119042650D01*
X110947555Y-119136927D01*
X111040120Y-119200175D01*
X111150000Y-119222426D01*
X112850000Y-119222426D01*
X112952650Y-119203111D01*
X113046927Y-119142445D01*
X113110175Y-119049880D01*
X113132426Y-118940000D01*
X113132426Y-117240000D01*
X113113111Y-117137350D01*
X113052445Y-117043073D01*
X112959880Y-116979825D01*
X112850000Y-116957574D01*
X111150000Y-116957574D01*
X111047350Y-116976889D01*
X110953073Y-117037555D01*
X110889825Y-117130120D01*
X110867574Y-117240000D01*
X110867574Y-117613000D01*
X109401640Y-117613000D01*
X109166526Y-117261128D01*
X108796489Y-117013877D01*
X108360000Y-116927054D01*
X107923511Y-117013877D01*
X107623399Y-117214406D01*
X107623399Y-116425594D01*
X107923511Y-116626123D01*
X108360000Y-116712946D01*
X108796489Y-116626123D01*
X109166526Y-116378872D01*
X109413777Y-116008835D01*
X109500600Y-115572346D01*
X109500600Y-115527654D01*
X109413777Y-115091165D01*
X109166526Y-114721128D01*
X108796489Y-114473877D01*
X108389041Y-114392831D01*
X111979871Y-110802000D01*
X118094995Y-110802000D01*
X118095000Y-110802001D01*
X118315808Y-110758078D01*
X118503001Y-110633001D01*
X120327998Y-108808003D01*
X120328001Y-108808001D01*
X120453078Y-108620808D01*
X120497001Y-108400000D01*
X120497000Y-108399995D01*
X120497000Y-106617937D01*
X120522650Y-106613111D01*
X120616927Y-106552445D01*
X120680175Y-106459880D01*
X120702426Y-106350000D01*
X120702426Y-104177000D01*
X120780998Y-104177000D01*
X125918000Y-109314001D01*
X125918000Y-123274995D01*
X125917999Y-123275000D01*
X125961922Y-123495808D01*
X126086999Y-123683001D01*
X128461997Y-126057998D01*
X128461999Y-126058001D01*
X128572724Y-126131984D01*
X128649192Y-126183078D01*
X128870000Y-126227000D01*
X134394995Y-126227000D01*
X134395000Y-126227001D01*
X134615808Y-126183078D01*
X134803001Y-126058001D01*
X136564971Y-124296030D01*
X136770000Y-124336813D01*
X137163016Y-124258637D01*
X137496199Y-124036012D01*
X137718824Y-123702829D01*
X137797000Y-123309813D01*
X137797000Y-121740187D01*
X137718824Y-121347171D01*
X137496199Y-121013988D01*
X137163016Y-120791363D01*
X136770000Y-120713187D01*
X136376984Y-120791363D01*
X136043801Y-121013988D01*
X135821176Y-121347171D01*
X135770000Y-121604449D01*
X135718824Y-121347171D01*
X135496199Y-121013988D01*
X135247000Y-120847479D01*
X135247000Y-116908571D01*
X142157290Y-109998281D01*
X142260691Y-109843531D01*
X142297000Y-109660991D01*
X142297000Y-103851795D01*
X142298309Y-103845328D01*
X142451672Y-103998959D01*
X142819816Y-104151825D01*
X143218436Y-104152173D01*
X143586846Y-103999949D01*
X143868959Y-103718328D01*
X144021825Y-103350184D01*
X144021937Y-103221720D01*
X154742675Y-103221720D01*
X155027829Y-103911846D01*
X155555376Y-104440316D01*
X156245004Y-104726674D01*
X156991720Y-104727325D01*
X157681846Y-104442171D01*
X158210316Y-103914624D01*
X158496674Y-103224996D01*
X158497325Y-102478280D01*
X158212171Y-101788154D01*
X157684624Y-101259684D01*
X156994996Y-100973326D01*
X156248280Y-100972675D01*
X155558154Y-101257829D01*
X155029684Y-101785376D01*
X154743326Y-102475004D01*
X154742675Y-103221720D01*
X144021937Y-103221720D01*
X144022173Y-102951564D01*
X143869949Y-102583154D01*
X143588328Y-102301041D01*
X143220184Y-102148175D01*
X142821564Y-102147827D01*
X142453154Y-102300051D01*
X142298548Y-102454388D01*
X142283111Y-102372350D01*
X142222445Y-102278073D01*
X142129880Y-102214825D01*
X142020000Y-102192574D01*
X141620000Y-102192574D01*
X141517350Y-102211889D01*
X141495840Y-102225730D01*
X141479880Y-102214825D01*
X141370000Y-102192574D01*
X140970000Y-102192574D01*
X140867350Y-102211889D01*
X140845840Y-102225730D01*
X140829880Y-102214825D01*
X140720000Y-102192574D01*
X140640335Y-102192574D01*
X140608327Y-102115301D01*
X140429698Y-101936673D01*
X140196309Y-101840000D01*
X140128750Y-101840000D01*
X139970000Y-101998750D01*
X139970000Y-103023000D01*
X140017000Y-103023000D01*
X140017000Y-103277000D01*
X139970000Y-103277000D01*
X139970000Y-104301250D01*
X140043000Y-104374250D01*
X140043000Y-108004748D01*
X130432710Y-117615038D01*
X130329309Y-117769788D01*
X130293000Y-117952328D01*
X130293000Y-120847479D01*
X130043801Y-121013988D01*
X129982830Y-121105238D01*
X129659540Y-120705855D01*
X129182684Y-120446827D01*
X129111185Y-120432682D01*
X128897000Y-120555344D01*
X128897000Y-122398000D01*
X128917000Y-122398000D01*
X128917000Y-122652000D01*
X128897000Y-122652000D01*
X128897000Y-124494656D01*
X129111185Y-124617318D01*
X129182684Y-124603173D01*
X129659540Y-124344145D01*
X129982830Y-123944762D01*
X130043801Y-124036012D01*
X130376984Y-124258637D01*
X130770000Y-124336813D01*
X131163016Y-124258637D01*
X131496199Y-124036012D01*
X131718824Y-123702829D01*
X131770000Y-123445551D01*
X131821176Y-123702829D01*
X132043801Y-124036012D01*
X132376984Y-124258637D01*
X132770000Y-124336813D01*
X133163016Y-124258637D01*
X133496199Y-124036012D01*
X133718824Y-123702829D01*
X133770000Y-123445551D01*
X133821176Y-123702829D01*
X133989971Y-123955449D01*
X133797505Y-124147915D01*
X133780731Y-124147900D01*
X133568583Y-124235558D01*
X133406129Y-124397729D01*
X133318100Y-124609724D01*
X133317900Y-124839269D01*
X133405558Y-125051417D01*
X133427103Y-125073000D01*
X129109001Y-125073000D01*
X128571567Y-124535565D01*
X128643000Y-124494656D01*
X128643000Y-122652000D01*
X127385000Y-122652000D01*
X127385000Y-123348998D01*
X127072000Y-123035998D01*
X127072000Y-121648000D01*
X127385000Y-121648000D01*
X127385000Y-122398000D01*
X128643000Y-122398000D01*
X128643000Y-120555344D01*
X128428815Y-120432682D01*
X128357316Y-120446827D01*
X127880460Y-120705855D01*
X127539028Y-121127651D01*
X127385000Y-121648000D01*
X127072000Y-121648000D01*
X127072000Y-109075000D01*
X127028078Y-108854192D01*
X126903001Y-108666999D01*
X126902998Y-108666997D01*
X121584438Y-103348436D01*
X137017827Y-103348436D01*
X137170051Y-103716846D01*
X137451672Y-103998959D01*
X137819816Y-104151825D01*
X138218436Y-104152173D01*
X138586846Y-103999949D01*
X138741452Y-103845612D01*
X138756889Y-103927650D01*
X138817555Y-104021927D01*
X138910120Y-104085175D01*
X139020000Y-104107426D01*
X139099665Y-104107426D01*
X139131673Y-104184699D01*
X139310302Y-104363327D01*
X139543691Y-104460000D01*
X139611250Y-104460000D01*
X139770000Y-104301250D01*
X139770000Y-103277000D01*
X139723000Y-103277000D01*
X139723000Y-103023000D01*
X139770000Y-103023000D01*
X139770000Y-101998750D01*
X139611250Y-101840000D01*
X139543691Y-101840000D01*
X139310302Y-101936673D01*
X139131673Y-102115301D01*
X139099665Y-102192574D01*
X139020000Y-102192574D01*
X138917350Y-102211889D01*
X138823073Y-102272555D01*
X138759825Y-102365120D01*
X138741691Y-102454672D01*
X138588328Y-102301041D01*
X138220184Y-102148175D01*
X137821564Y-102147827D01*
X137453154Y-102300051D01*
X137171041Y-102581672D01*
X137018175Y-102949816D01*
X137017827Y-103348436D01*
X121584438Y-103348436D01*
X121428001Y-103191999D01*
X121240808Y-103066922D01*
X121020000Y-103022999D01*
X121019995Y-103023000D01*
X120702426Y-103023000D01*
X120702426Y-100850000D01*
X120683111Y-100747350D01*
X120622445Y-100653073D01*
X120529880Y-100589825D01*
X120420000Y-100567574D01*
X119420000Y-100567574D01*
X119317350Y-100586889D01*
X119223073Y-100647555D01*
X119159825Y-100740120D01*
X119137574Y-100850000D01*
X119137574Y-106350000D01*
X119156889Y-106452650D01*
X119217555Y-106546927D01*
X119310120Y-106610175D01*
X119343000Y-106616833D01*
X119343000Y-108160999D01*
X117855998Y-109648000D01*
X111740875Y-109648000D01*
X111740870Y-109647999D01*
X111520062Y-109691922D01*
X111332869Y-109816999D01*
X111332867Y-109817002D01*
X106638398Y-114511470D01*
X106513321Y-114698663D01*
X106469398Y-114919471D01*
X106172000Y-114919471D01*
X106172000Y-103885750D01*
X116785000Y-103885750D01*
X116785000Y-106476310D01*
X116881673Y-106709699D01*
X117060302Y-106888327D01*
X117293691Y-106985000D01*
X117634250Y-106985000D01*
X117793000Y-106826250D01*
X117793000Y-103727000D01*
X118047000Y-103727000D01*
X118047000Y-106826250D01*
X118205750Y-106985000D01*
X118546309Y-106985000D01*
X118779698Y-106888327D01*
X118958327Y-106709699D01*
X119055000Y-106476310D01*
X119055000Y-103885750D01*
X118896250Y-103727000D01*
X118047000Y-103727000D01*
X117793000Y-103727000D01*
X116943750Y-103727000D01*
X116785000Y-103885750D01*
X106172000Y-103885750D01*
X106172000Y-101951720D01*
X106482675Y-101951720D01*
X106767829Y-102641846D01*
X107295376Y-103170316D01*
X107985004Y-103456674D01*
X108731720Y-103457325D01*
X109421846Y-103172171D01*
X109950316Y-102644624D01*
X110236674Y-101954996D01*
X110237325Y-101208280D01*
X109952171Y-100518154D01*
X109424624Y-99989684D01*
X109088227Y-99850000D01*
X114437574Y-99850000D01*
X114437574Y-102850000D01*
X114456889Y-102952650D01*
X114517555Y-103046927D01*
X114610120Y-103110175D01*
X114720000Y-103132426D01*
X116320000Y-103132426D01*
X116422650Y-103113111D01*
X116516927Y-103052445D01*
X116580175Y-102959880D01*
X116602426Y-102850000D01*
X116602426Y-100723690D01*
X116785000Y-100723690D01*
X116785000Y-103314250D01*
X116943750Y-103473000D01*
X117793000Y-103473000D01*
X117793000Y-100373750D01*
X118047000Y-100373750D01*
X118047000Y-103473000D01*
X118896250Y-103473000D01*
X119055000Y-103314250D01*
X119055000Y-100723690D01*
X118958327Y-100490301D01*
X118779698Y-100311673D01*
X118546309Y-100215000D01*
X118205750Y-100215000D01*
X118047000Y-100373750D01*
X117793000Y-100373750D01*
X117634250Y-100215000D01*
X117293691Y-100215000D01*
X117060302Y-100311673D01*
X116881673Y-100490301D01*
X116785000Y-100723690D01*
X116602426Y-100723690D01*
X116602426Y-99850000D01*
X121237574Y-99850000D01*
X121237574Y-102850000D01*
X121256889Y-102952650D01*
X121317555Y-103046927D01*
X121410120Y-103110175D01*
X121520000Y-103132426D01*
X123120000Y-103132426D01*
X123222650Y-103113111D01*
X123316927Y-103052445D01*
X123380175Y-102959880D01*
X123402426Y-102850000D01*
X123402426Y-100075962D01*
X136143000Y-100075962D01*
X136143000Y-100824038D01*
X136209758Y-101159651D01*
X136399867Y-101444171D01*
X136684387Y-101634280D01*
X137020000Y-101701038D01*
X137113568Y-101682426D01*
X138220000Y-101682426D01*
X138322650Y-101663111D01*
X138416927Y-101602445D01*
X138480175Y-101509880D01*
X138494727Y-101438017D01*
X138506889Y-101502650D01*
X138567555Y-101596927D01*
X138660120Y-101660175D01*
X138770000Y-101682426D01*
X140270000Y-101682426D01*
X140372650Y-101663111D01*
X140466927Y-101602445D01*
X140520579Y-101523924D01*
X140567555Y-101596927D01*
X140660120Y-101660175D01*
X140770000Y-101682426D01*
X142270000Y-101682426D01*
X142372650Y-101663111D01*
X142466927Y-101602445D01*
X142530175Y-101509880D01*
X142544727Y-101438017D01*
X142556889Y-101502650D01*
X142617555Y-101596927D01*
X142710120Y-101660175D01*
X142820000Y-101682426D01*
X143926432Y-101682426D01*
X144020000Y-101701038D01*
X144355613Y-101634280D01*
X144640133Y-101444171D01*
X144830242Y-101159651D01*
X144897000Y-100824038D01*
X144897000Y-100075962D01*
X144830242Y-99740349D01*
X144640133Y-99455829D01*
X144355613Y-99265720D01*
X144020000Y-99198962D01*
X143926432Y-99217574D01*
X142820000Y-99217574D01*
X142717350Y-99236889D01*
X142623073Y-99297555D01*
X142559825Y-99390120D01*
X142545273Y-99461983D01*
X142533111Y-99397350D01*
X142472445Y-99303073D01*
X142379880Y-99239825D01*
X142270000Y-99217574D01*
X140770000Y-99217574D01*
X140667350Y-99236889D01*
X140573073Y-99297555D01*
X140519421Y-99376076D01*
X140472445Y-99303073D01*
X140379880Y-99239825D01*
X140270000Y-99217574D01*
X138770000Y-99217574D01*
X138667350Y-99236889D01*
X138573073Y-99297555D01*
X138509825Y-99390120D01*
X138495273Y-99461983D01*
X138483111Y-99397350D01*
X138422445Y-99303073D01*
X138329880Y-99239825D01*
X138220000Y-99217574D01*
X137113568Y-99217574D01*
X137020000Y-99198962D01*
X136684387Y-99265720D01*
X136399867Y-99455829D01*
X136209758Y-99740349D01*
X136143000Y-100075962D01*
X123402426Y-100075962D01*
X123402426Y-99850000D01*
X123383111Y-99747350D01*
X123322445Y-99653073D01*
X123229880Y-99589825D01*
X123120000Y-99567574D01*
X121520000Y-99567574D01*
X121417350Y-99586889D01*
X121323073Y-99647555D01*
X121259825Y-99740120D01*
X121237574Y-99850000D01*
X116602426Y-99850000D01*
X116583111Y-99747350D01*
X116522445Y-99653073D01*
X116429880Y-99589825D01*
X116320000Y-99567574D01*
X114720000Y-99567574D01*
X114617350Y-99586889D01*
X114523073Y-99647555D01*
X114459825Y-99740120D01*
X114437574Y-99850000D01*
X109088227Y-99850000D01*
X108734996Y-99703326D01*
X107988280Y-99702675D01*
X107298154Y-99987829D01*
X106769684Y-100515376D01*
X106483326Y-101205004D01*
X106482675Y-101951720D01*
X106172000Y-101951720D01*
X106172000Y-98934800D01*
X158808000Y-98934800D01*
X158808000Y-151980197D01*
M02*
