G04 #@! TF.FileFunction,Copper,L2,Bot,Signal*
%FSLAX46Y46*%
G04 Gerber Fmt 4.6, Leading zero omitted, Abs format (unit mm)*
G04 Created by KiCad (PCBNEW 4.0.4-stable) date 07/06/18 23:02:20*
%MOMM*%
%LPD*%
G01*
G04 APERTURE LIST*
%ADD10C,0.100000*%
%ADD11C,1.450000*%
%ADD12O,1.200000X1.900000*%
%ADD13O,1.727200X1.727200*%
%ADD14R,1.700000X1.700000*%
%ADD15C,0.600000*%
%ADD16C,0.400000*%
%ADD17C,0.254000*%
G04 APERTURE END LIST*
D10*
D11*
X143020000Y-103150000D03*
X138020000Y-103150000D03*
D12*
X144020000Y-100450000D03*
X137020000Y-100450000D03*
D13*
X131220000Y-151237000D03*
X131220000Y-153777000D03*
X133760000Y-153777000D03*
X133760000Y-151237000D03*
X136300000Y-153777000D03*
X108360000Y-138410000D03*
X108360000Y-133330000D03*
X108360000Y-130790000D03*
X108360000Y-128250000D03*
X108360000Y-125710000D03*
X108360000Y-123170000D03*
X108360000Y-120630000D03*
X108360000Y-118090000D03*
X156620000Y-151110000D03*
X156620000Y-148570000D03*
X156620000Y-146030000D03*
X156620000Y-143490000D03*
X156620000Y-140950000D03*
X156620000Y-138410000D03*
X156620000Y-135870000D03*
X156620000Y-133330000D03*
X156620000Y-114026000D03*
X156620000Y-129266000D03*
X156620000Y-126726000D03*
X156620000Y-124186000D03*
X156620000Y-106406000D03*
X156620000Y-108946000D03*
X156620000Y-111486000D03*
X156620000Y-116566000D03*
X156620000Y-119106000D03*
X156620000Y-121646000D03*
X108360000Y-115550000D03*
X108360000Y-140950000D03*
X108360000Y-143490000D03*
X108360000Y-146030000D03*
X108360000Y-148570000D03*
X108360000Y-151110000D03*
X136300000Y-151237000D03*
D14*
X154000000Y-146050000D03*
X154000000Y-133330000D03*
X154000000Y-129260000D03*
X112000000Y-118090000D03*
D15*
X139728000Y-101864000D03*
X139466109Y-104786805D03*
X128745000Y-119675000D03*
X117870000Y-107350000D03*
X135920000Y-131800000D03*
X135995000Y-130250000D03*
X135945000Y-128625000D03*
X116255000Y-128525000D03*
X137245000Y-141625000D03*
X135870000Y-133425000D03*
X136120000Y-141900000D03*
X136195000Y-134700000D03*
X147970000Y-112250000D03*
X119270000Y-127450000D03*
X119370000Y-124850000D03*
X133895000Y-124725000D03*
D16*
X135920000Y-131800000D02*
X146074000Y-121646000D01*
X146074000Y-121646000D02*
X156620000Y-121646000D01*
X135995000Y-130250000D02*
X147139000Y-119106000D01*
X147139000Y-119106000D02*
X156620000Y-119106000D01*
X135945000Y-128625000D02*
X135945000Y-128200736D01*
X135945000Y-128200736D02*
X147579736Y-116566000D01*
X147579736Y-116566000D02*
X155398686Y-116566000D01*
X155398686Y-116566000D02*
X156620000Y-116566000D01*
X131220000Y-151237000D02*
X131220000Y-143490000D01*
X131220000Y-143490000D02*
X116255000Y-128525000D01*
X137245000Y-141625000D02*
X144190000Y-148570000D01*
X144190000Y-148570000D02*
X156620000Y-148570000D01*
X135870000Y-133425000D02*
X145109000Y-124186000D01*
X145109000Y-124186000D02*
X156620000Y-124186000D01*
X136120000Y-141900000D02*
X145330000Y-151110000D01*
X145330000Y-151110000D02*
X156620000Y-151110000D01*
X136195000Y-134700000D02*
X144169000Y-126726000D01*
X144169000Y-126726000D02*
X156620000Y-126726000D01*
X147970000Y-112250000D02*
X155856000Y-112250000D01*
X155856000Y-112250000D02*
X156620000Y-111486000D01*
X137513601Y-147118601D02*
X119270000Y-128875000D01*
X119270000Y-128875000D02*
X119270000Y-127450000D01*
X136300000Y-153777000D02*
X137513601Y-152563399D01*
X137513601Y-152563399D02*
X137513601Y-147118601D01*
X108360000Y-123170000D02*
X117690000Y-123170000D01*
X117690000Y-123170000D02*
X119370000Y-124850000D01*
X110221314Y-126350000D02*
X132270000Y-126350000D01*
X132270000Y-126350000D02*
X133895000Y-124725000D01*
X108360000Y-125710000D02*
X109581314Y-125710000D01*
X109581314Y-125710000D02*
X110221314Y-126350000D01*
D17*
G36*
X158808000Y-151980197D02*
X157490196Y-153298000D01*
X146460000Y-153298000D01*
X146325295Y-153324794D01*
X146211098Y-153401098D01*
X146211096Y-153401101D01*
X143774196Y-155838000D01*
X109775803Y-155838000D01*
X107959524Y-154021720D01*
X111562675Y-154021720D01*
X111847829Y-154711846D01*
X112375376Y-155240316D01*
X113065004Y-155526674D01*
X113811720Y-155527325D01*
X114501846Y-155242171D01*
X115030316Y-154714624D01*
X115270569Y-154136027D01*
X129765032Y-154136027D01*
X130013179Y-154665490D01*
X130445053Y-155059688D01*
X130860974Y-155231958D01*
X131093000Y-155110817D01*
X131093000Y-153904000D01*
X129885531Y-153904000D01*
X129765032Y-154136027D01*
X115270569Y-154136027D01*
X115316674Y-154024996D01*
X115317325Y-153278280D01*
X115032171Y-152588154D01*
X114504624Y-152059684D01*
X113814996Y-151773326D01*
X113068280Y-151772675D01*
X112378154Y-152057829D01*
X111849684Y-152585376D01*
X111563326Y-153275004D01*
X111562675Y-154021720D01*
X107959524Y-154021720D01*
X107338902Y-153401098D01*
X107224705Y-153324794D01*
X107090000Y-153297999D01*
X107089995Y-153298000D01*
X106172000Y-153298000D01*
X106172000Y-151087654D01*
X107219400Y-151087654D01*
X107219400Y-151132346D01*
X107306223Y-151568835D01*
X107553474Y-151938872D01*
X107923511Y-152186123D01*
X108360000Y-152272946D01*
X108796489Y-152186123D01*
X109166526Y-151938872D01*
X109413777Y-151568835D01*
X109500600Y-151132346D01*
X109500600Y-151087654D01*
X109413777Y-150651165D01*
X109166526Y-150281128D01*
X108796489Y-150033877D01*
X108360000Y-149947054D01*
X107923511Y-150033877D01*
X107553474Y-150281128D01*
X107306223Y-150651165D01*
X107219400Y-151087654D01*
X106172000Y-151087654D01*
X106172000Y-148547654D01*
X107219400Y-148547654D01*
X107219400Y-148592346D01*
X107306223Y-149028835D01*
X107553474Y-149398872D01*
X107923511Y-149646123D01*
X108360000Y-149732946D01*
X108796489Y-149646123D01*
X109166526Y-149398872D01*
X109413777Y-149028835D01*
X109500600Y-148592346D01*
X109500600Y-148547654D01*
X109413777Y-148111165D01*
X109166526Y-147741128D01*
X108796489Y-147493877D01*
X108360000Y-147407054D01*
X107923511Y-147493877D01*
X107553474Y-147741128D01*
X107306223Y-148111165D01*
X107219400Y-148547654D01*
X106172000Y-148547654D01*
X106172000Y-146007654D01*
X107219400Y-146007654D01*
X107219400Y-146052346D01*
X107306223Y-146488835D01*
X107553474Y-146858872D01*
X107923511Y-147106123D01*
X108360000Y-147192946D01*
X108796489Y-147106123D01*
X109166526Y-146858872D01*
X109413777Y-146488835D01*
X109500600Y-146052346D01*
X109500600Y-146007654D01*
X109413777Y-145571165D01*
X109166526Y-145201128D01*
X108796489Y-144953877D01*
X108360000Y-144867054D01*
X107923511Y-144953877D01*
X107553474Y-145201128D01*
X107306223Y-145571165D01*
X107219400Y-146007654D01*
X106172000Y-146007654D01*
X106172000Y-143467654D01*
X107219400Y-143467654D01*
X107219400Y-143512346D01*
X107306223Y-143948835D01*
X107553474Y-144318872D01*
X107923511Y-144566123D01*
X108360000Y-144652946D01*
X108796489Y-144566123D01*
X109166526Y-144318872D01*
X109413777Y-143948835D01*
X109500600Y-143512346D01*
X109500600Y-143467654D01*
X109413777Y-143031165D01*
X109166526Y-142661128D01*
X108796489Y-142413877D01*
X108360000Y-142327054D01*
X107923511Y-142413877D01*
X107553474Y-142661128D01*
X107306223Y-143031165D01*
X107219400Y-143467654D01*
X106172000Y-143467654D01*
X106172000Y-140927654D01*
X107219400Y-140927654D01*
X107219400Y-140972346D01*
X107306223Y-141408835D01*
X107553474Y-141778872D01*
X107923511Y-142026123D01*
X108360000Y-142112946D01*
X108796489Y-142026123D01*
X109166526Y-141778872D01*
X109413777Y-141408835D01*
X109500600Y-140972346D01*
X109500600Y-140927654D01*
X109413777Y-140491165D01*
X109166526Y-140121128D01*
X108796489Y-139873877D01*
X108360000Y-139787054D01*
X107923511Y-139873877D01*
X107553474Y-140121128D01*
X107306223Y-140491165D01*
X107219400Y-140927654D01*
X106172000Y-140927654D01*
X106172000Y-138387654D01*
X107219400Y-138387654D01*
X107219400Y-138432346D01*
X107306223Y-138868835D01*
X107553474Y-139238872D01*
X107923511Y-139486123D01*
X108360000Y-139572946D01*
X108796489Y-139486123D01*
X109166526Y-139238872D01*
X109413777Y-138868835D01*
X109500600Y-138432346D01*
X109500600Y-138387654D01*
X109413777Y-137951165D01*
X109166526Y-137581128D01*
X108796489Y-137333877D01*
X108360000Y-137247054D01*
X107923511Y-137333877D01*
X107553474Y-137581128D01*
X107306223Y-137951165D01*
X107219400Y-138387654D01*
X106172000Y-138387654D01*
X106172000Y-131149027D01*
X106905032Y-131149027D01*
X107153179Y-131678490D01*
X107585053Y-132072688D01*
X107990390Y-132240574D01*
X107923511Y-132253877D01*
X107553474Y-132501128D01*
X107306223Y-132871165D01*
X107219400Y-133307654D01*
X107219400Y-133352346D01*
X107306223Y-133788835D01*
X107553474Y-134158872D01*
X107923511Y-134406123D01*
X108360000Y-134492946D01*
X108796489Y-134406123D01*
X109166526Y-134158872D01*
X109413777Y-133788835D01*
X109500600Y-133352346D01*
X109500600Y-133307654D01*
X109413777Y-132871165D01*
X109166526Y-132501128D01*
X108796489Y-132253877D01*
X108729610Y-132240574D01*
X109134947Y-132072688D01*
X109566821Y-131678490D01*
X109814968Y-131149027D01*
X109694469Y-130917000D01*
X108487000Y-130917000D01*
X108487000Y-130937000D01*
X108233000Y-130937000D01*
X108233000Y-130917000D01*
X107025531Y-130917000D01*
X106905032Y-131149027D01*
X106172000Y-131149027D01*
X106172000Y-128609027D01*
X106905032Y-128609027D01*
X107153179Y-129138490D01*
X107571152Y-129520000D01*
X107153179Y-129901510D01*
X106905032Y-130430973D01*
X107025531Y-130663000D01*
X108233000Y-130663000D01*
X108233000Y-128377000D01*
X108487000Y-128377000D01*
X108487000Y-130663000D01*
X109694469Y-130663000D01*
X109814968Y-130430973D01*
X109566821Y-129901510D01*
X109148848Y-129520000D01*
X109566821Y-129138490D01*
X109800794Y-128639269D01*
X115677900Y-128639269D01*
X115765558Y-128851417D01*
X115927729Y-129013871D01*
X116139724Y-129101900D01*
X116157335Y-129101915D01*
X130743000Y-143687580D01*
X130743000Y-150187946D01*
X130413474Y-150408128D01*
X130166223Y-150778165D01*
X130079400Y-151214654D01*
X130079400Y-151259346D01*
X130166223Y-151695835D01*
X130413474Y-152065872D01*
X130783511Y-152313123D01*
X130850390Y-152326426D01*
X130445053Y-152494312D01*
X130013179Y-152888510D01*
X129765032Y-153417973D01*
X129885531Y-153650000D01*
X131093000Y-153650000D01*
X131093000Y-153630000D01*
X131347000Y-153630000D01*
X131347000Y-153650000D01*
X131367000Y-153650000D01*
X131367000Y-153904000D01*
X131347000Y-153904000D01*
X131347000Y-155110817D01*
X131579026Y-155231958D01*
X131994947Y-155059688D01*
X132426821Y-154665490D01*
X132674968Y-154136027D01*
X132554470Y-153904002D01*
X132640217Y-153904002D01*
X132706223Y-154235835D01*
X132953474Y-154605872D01*
X133323511Y-154853123D01*
X133760000Y-154939946D01*
X134196489Y-154853123D01*
X134566526Y-154605872D01*
X134813777Y-154235835D01*
X134900600Y-153799346D01*
X134900600Y-153754654D01*
X134813777Y-153318165D01*
X134566526Y-152948128D01*
X134196489Y-152700877D01*
X133760000Y-152614054D01*
X133323511Y-152700877D01*
X132953474Y-152948128D01*
X132706223Y-153318165D01*
X132640217Y-153649998D01*
X132554470Y-153649998D01*
X132674968Y-153417973D01*
X132426821Y-152888510D01*
X131994947Y-152494312D01*
X131589610Y-152326426D01*
X131656489Y-152313123D01*
X132026526Y-152065872D01*
X132273777Y-151695835D01*
X132360600Y-151259346D01*
X132360600Y-151214654D01*
X132619400Y-151214654D01*
X132619400Y-151259346D01*
X132706223Y-151695835D01*
X132953474Y-152065872D01*
X133323511Y-152313123D01*
X133760000Y-152399946D01*
X134196489Y-152313123D01*
X134566526Y-152065872D01*
X134813777Y-151695835D01*
X134900600Y-151259346D01*
X134900600Y-151214654D01*
X134813777Y-150778165D01*
X134566526Y-150408128D01*
X134196489Y-150160877D01*
X133760000Y-150074054D01*
X133323511Y-150160877D01*
X132953474Y-150408128D01*
X132706223Y-150778165D01*
X132619400Y-151214654D01*
X132360600Y-151214654D01*
X132273777Y-150778165D01*
X132026526Y-150408128D01*
X131697000Y-150187946D01*
X131697000Y-143490000D01*
X131660691Y-143307460D01*
X131557290Y-143152710D01*
X116832085Y-128427505D01*
X116832100Y-128410731D01*
X116744442Y-128198583D01*
X116582271Y-128036129D01*
X116370276Y-127948100D01*
X116140731Y-127947900D01*
X115928583Y-128035558D01*
X115766129Y-128197729D01*
X115678100Y-128409724D01*
X115677900Y-128639269D01*
X109800794Y-128639269D01*
X109814968Y-128609027D01*
X109694469Y-128377000D01*
X108487000Y-128377000D01*
X108233000Y-128377000D01*
X107025531Y-128377000D01*
X106905032Y-128609027D01*
X106172000Y-128609027D01*
X106172000Y-127890973D01*
X106905032Y-127890973D01*
X107025531Y-128123000D01*
X108233000Y-128123000D01*
X108233000Y-128103000D01*
X108487000Y-128103000D01*
X108487000Y-128123000D01*
X109694469Y-128123000D01*
X109814968Y-127890973D01*
X109661850Y-127564269D01*
X118692900Y-127564269D01*
X118780558Y-127776417D01*
X118793000Y-127788881D01*
X118793000Y-128875000D01*
X118829309Y-129057540D01*
X118932710Y-129212290D01*
X137036601Y-147316181D01*
X137036601Y-150361406D01*
X136736489Y-150160877D01*
X136300000Y-150074054D01*
X135863511Y-150160877D01*
X135493474Y-150408128D01*
X135246223Y-150778165D01*
X135159400Y-151214654D01*
X135159400Y-151259346D01*
X135246223Y-151695835D01*
X135493474Y-152065872D01*
X135863511Y-152313123D01*
X136300000Y-152399946D01*
X136736489Y-152313123D01*
X137036601Y-152112594D01*
X137036601Y-152365819D01*
X136707341Y-152695079D01*
X136300000Y-152614054D01*
X135863511Y-152700877D01*
X135493474Y-152948128D01*
X135246223Y-153318165D01*
X135159400Y-153754654D01*
X135159400Y-153799346D01*
X135246223Y-154235835D01*
X135493474Y-154605872D01*
X135863511Y-154853123D01*
X136300000Y-154939946D01*
X136736489Y-154853123D01*
X137106526Y-154605872D01*
X137353777Y-154235835D01*
X137396367Y-154021720D01*
X139502675Y-154021720D01*
X139787829Y-154711846D01*
X140315376Y-155240316D01*
X141005004Y-155526674D01*
X141751720Y-155527325D01*
X142441846Y-155242171D01*
X142970316Y-154714624D01*
X143256674Y-154024996D01*
X143257325Y-153278280D01*
X142972171Y-152588154D01*
X142444624Y-152059684D01*
X141754996Y-151773326D01*
X141008280Y-151772675D01*
X140318154Y-152057829D01*
X139789684Y-152585376D01*
X139503326Y-153275004D01*
X139502675Y-154021720D01*
X137396367Y-154021720D01*
X137440600Y-153799346D01*
X137440600Y-153754654D01*
X137366990Y-153384590D01*
X137850891Y-152900689D01*
X137954292Y-152745939D01*
X137990601Y-152563399D01*
X137990601Y-147118601D01*
X137954292Y-146936061D01*
X137850891Y-146781311D01*
X133083849Y-142014269D01*
X135542900Y-142014269D01*
X135630558Y-142226417D01*
X135792729Y-142388871D01*
X136004724Y-142476900D01*
X136022335Y-142476915D01*
X144992710Y-151447290D01*
X145147460Y-151550691D01*
X145330000Y-151587000D01*
X155578360Y-151587000D01*
X155813474Y-151938872D01*
X156183511Y-152186123D01*
X156620000Y-152272946D01*
X157056489Y-152186123D01*
X157426526Y-151938872D01*
X157673777Y-151568835D01*
X157760600Y-151132346D01*
X157760600Y-151087654D01*
X157673777Y-150651165D01*
X157426526Y-150281128D01*
X157056489Y-150033877D01*
X156620000Y-149947054D01*
X156183511Y-150033877D01*
X155813474Y-150281128D01*
X155578360Y-150633000D01*
X145527580Y-150633000D01*
X137072873Y-142178293D01*
X137129724Y-142201900D01*
X137147335Y-142201915D01*
X143852710Y-148907290D01*
X144007460Y-149010691D01*
X144190000Y-149047000D01*
X155578360Y-149047000D01*
X155813474Y-149398872D01*
X156183511Y-149646123D01*
X156620000Y-149732946D01*
X157056489Y-149646123D01*
X157426526Y-149398872D01*
X157673777Y-149028835D01*
X157760600Y-148592346D01*
X157760600Y-148547654D01*
X157673777Y-148111165D01*
X157426526Y-147741128D01*
X157056489Y-147493877D01*
X156620000Y-147407054D01*
X156183511Y-147493877D01*
X155813474Y-147741128D01*
X155578360Y-148093000D01*
X144387580Y-148093000D01*
X141494580Y-145200000D01*
X152867574Y-145200000D01*
X152867574Y-146900000D01*
X152886889Y-147002650D01*
X152947555Y-147096927D01*
X153040120Y-147160175D01*
X153150000Y-147182426D01*
X154850000Y-147182426D01*
X154952650Y-147163111D01*
X155046927Y-147102445D01*
X155110175Y-147009880D01*
X155132426Y-146900000D01*
X155132426Y-146007654D01*
X155479400Y-146007654D01*
X155479400Y-146052346D01*
X155566223Y-146488835D01*
X155813474Y-146858872D01*
X156183511Y-147106123D01*
X156620000Y-147192946D01*
X157056489Y-147106123D01*
X157426526Y-146858872D01*
X157673777Y-146488835D01*
X157760600Y-146052346D01*
X157760600Y-146007654D01*
X157673777Y-145571165D01*
X157426526Y-145201128D01*
X157056489Y-144953877D01*
X156620000Y-144867054D01*
X156183511Y-144953877D01*
X155813474Y-145201128D01*
X155566223Y-145571165D01*
X155479400Y-146007654D01*
X155132426Y-146007654D01*
X155132426Y-145200000D01*
X155113111Y-145097350D01*
X155052445Y-145003073D01*
X154959880Y-144939825D01*
X154850000Y-144917574D01*
X153150000Y-144917574D01*
X153047350Y-144936889D01*
X152953073Y-144997555D01*
X152889825Y-145090120D01*
X152867574Y-145200000D01*
X141494580Y-145200000D01*
X139762234Y-143467654D01*
X155479400Y-143467654D01*
X155479400Y-143512346D01*
X155566223Y-143948835D01*
X155813474Y-144318872D01*
X156183511Y-144566123D01*
X156620000Y-144652946D01*
X157056489Y-144566123D01*
X157426526Y-144318872D01*
X157673777Y-143948835D01*
X157760600Y-143512346D01*
X157760600Y-143467654D01*
X157673777Y-143031165D01*
X157426526Y-142661128D01*
X157056489Y-142413877D01*
X156620000Y-142327054D01*
X156183511Y-142413877D01*
X155813474Y-142661128D01*
X155566223Y-143031165D01*
X155479400Y-143467654D01*
X139762234Y-143467654D01*
X137822085Y-141527505D01*
X137822100Y-141510731D01*
X137734442Y-141298583D01*
X137572271Y-141136129D01*
X137360276Y-141048100D01*
X137130731Y-141047900D01*
X136918583Y-141135558D01*
X136756129Y-141297729D01*
X136668100Y-141509724D01*
X136667921Y-141715113D01*
X136609442Y-141573583D01*
X136447271Y-141411129D01*
X136235276Y-141323100D01*
X136005731Y-141322900D01*
X135793583Y-141410558D01*
X135631129Y-141572729D01*
X135543100Y-141784724D01*
X135542900Y-142014269D01*
X133083849Y-142014269D01*
X131997234Y-140927654D01*
X155479400Y-140927654D01*
X155479400Y-140972346D01*
X155566223Y-141408835D01*
X155813474Y-141778872D01*
X156183511Y-142026123D01*
X156620000Y-142112946D01*
X157056489Y-142026123D01*
X157426526Y-141778872D01*
X157673777Y-141408835D01*
X157760600Y-140972346D01*
X157760600Y-140927654D01*
X157673777Y-140491165D01*
X157426526Y-140121128D01*
X157056489Y-139873877D01*
X156620000Y-139787054D01*
X156183511Y-139873877D01*
X155813474Y-140121128D01*
X155566223Y-140491165D01*
X155479400Y-140927654D01*
X131997234Y-140927654D01*
X129457234Y-138387654D01*
X155479400Y-138387654D01*
X155479400Y-138432346D01*
X155566223Y-138868835D01*
X155813474Y-139238872D01*
X156183511Y-139486123D01*
X156620000Y-139572946D01*
X157056489Y-139486123D01*
X157426526Y-139238872D01*
X157673777Y-138868835D01*
X157760600Y-138432346D01*
X157760600Y-138387654D01*
X157673777Y-137951165D01*
X157426526Y-137581128D01*
X157056489Y-137333877D01*
X156620000Y-137247054D01*
X156183511Y-137333877D01*
X155813474Y-137581128D01*
X155566223Y-137951165D01*
X155479400Y-138387654D01*
X129457234Y-138387654D01*
X126917234Y-135847654D01*
X155479400Y-135847654D01*
X155479400Y-135892346D01*
X155566223Y-136328835D01*
X155813474Y-136698872D01*
X156183511Y-136946123D01*
X156620000Y-137032946D01*
X157056489Y-136946123D01*
X157426526Y-136698872D01*
X157673777Y-136328835D01*
X157760600Y-135892346D01*
X157760600Y-135847654D01*
X157673777Y-135411165D01*
X157426526Y-135041128D01*
X157056489Y-134793877D01*
X156620000Y-134707054D01*
X156183511Y-134793877D01*
X155813474Y-135041128D01*
X155566223Y-135411165D01*
X155479400Y-135847654D01*
X126917234Y-135847654D01*
X125883849Y-134814269D01*
X135617900Y-134814269D01*
X135705558Y-135026417D01*
X135867729Y-135188871D01*
X136079724Y-135276900D01*
X136309269Y-135277100D01*
X136521417Y-135189442D01*
X136683871Y-135027271D01*
X136771900Y-134815276D01*
X136771915Y-134797665D01*
X139089580Y-132480000D01*
X152867574Y-132480000D01*
X152867574Y-134180000D01*
X152886889Y-134282650D01*
X152947555Y-134376927D01*
X153040120Y-134440175D01*
X153150000Y-134462426D01*
X154850000Y-134462426D01*
X154952650Y-134443111D01*
X155046927Y-134382445D01*
X155110175Y-134289880D01*
X155132426Y-134180000D01*
X155132426Y-133307654D01*
X155479400Y-133307654D01*
X155479400Y-133352346D01*
X155566223Y-133788835D01*
X155813474Y-134158872D01*
X156183511Y-134406123D01*
X156620000Y-134492946D01*
X157056489Y-134406123D01*
X157426526Y-134158872D01*
X157673777Y-133788835D01*
X157760600Y-133352346D01*
X157760600Y-133307654D01*
X157673777Y-132871165D01*
X157426526Y-132501128D01*
X157056489Y-132253877D01*
X156620000Y-132167054D01*
X156183511Y-132253877D01*
X155813474Y-132501128D01*
X155566223Y-132871165D01*
X155479400Y-133307654D01*
X155132426Y-133307654D01*
X155132426Y-132480000D01*
X155113111Y-132377350D01*
X155052445Y-132283073D01*
X154959880Y-132219825D01*
X154850000Y-132197574D01*
X153150000Y-132197574D01*
X153047350Y-132216889D01*
X152953073Y-132277555D01*
X152889825Y-132370120D01*
X152867574Y-132480000D01*
X139089580Y-132480000D01*
X143159580Y-128410000D01*
X152867574Y-128410000D01*
X152867574Y-130110000D01*
X152886889Y-130212650D01*
X152947555Y-130306927D01*
X153040120Y-130370175D01*
X153150000Y-130392426D01*
X154850000Y-130392426D01*
X154952650Y-130373111D01*
X155046927Y-130312445D01*
X155110175Y-130219880D01*
X155132426Y-130110000D01*
X155132426Y-129243654D01*
X155479400Y-129243654D01*
X155479400Y-129288346D01*
X155566223Y-129724835D01*
X155813474Y-130094872D01*
X156183511Y-130342123D01*
X156620000Y-130428946D01*
X157056489Y-130342123D01*
X157426526Y-130094872D01*
X157673777Y-129724835D01*
X157760600Y-129288346D01*
X157760600Y-129243654D01*
X157673777Y-128807165D01*
X157426526Y-128437128D01*
X157056489Y-128189877D01*
X156620000Y-128103054D01*
X156183511Y-128189877D01*
X155813474Y-128437128D01*
X155566223Y-128807165D01*
X155479400Y-129243654D01*
X155132426Y-129243654D01*
X155132426Y-128410000D01*
X155113111Y-128307350D01*
X155052445Y-128213073D01*
X154959880Y-128149825D01*
X154850000Y-128127574D01*
X153150000Y-128127574D01*
X153047350Y-128146889D01*
X152953073Y-128207555D01*
X152889825Y-128300120D01*
X152867574Y-128410000D01*
X143159580Y-128410000D01*
X144366580Y-127203000D01*
X155578360Y-127203000D01*
X155813474Y-127554872D01*
X156183511Y-127802123D01*
X156620000Y-127888946D01*
X157056489Y-127802123D01*
X157426526Y-127554872D01*
X157673777Y-127184835D01*
X157760600Y-126748346D01*
X157760600Y-126703654D01*
X157673777Y-126267165D01*
X157426526Y-125897128D01*
X157056489Y-125649877D01*
X156620000Y-125563054D01*
X156183511Y-125649877D01*
X155813474Y-125897128D01*
X155578360Y-126249000D01*
X144169000Y-126249000D01*
X143986460Y-126285309D01*
X143831710Y-126388710D01*
X136097505Y-134122915D01*
X136080731Y-134122900D01*
X135868583Y-134210558D01*
X135706129Y-134372729D01*
X135618100Y-134584724D01*
X135617900Y-134814269D01*
X125883849Y-134814269D01*
X124608849Y-133539269D01*
X135292900Y-133539269D01*
X135380558Y-133751417D01*
X135542729Y-133913871D01*
X135754724Y-134001900D01*
X135984269Y-134002100D01*
X136196417Y-133914442D01*
X136358871Y-133752271D01*
X136446900Y-133540276D01*
X136446915Y-133522665D01*
X145306580Y-124663000D01*
X155578360Y-124663000D01*
X155813474Y-125014872D01*
X156183511Y-125262123D01*
X156620000Y-125348946D01*
X157056489Y-125262123D01*
X157426526Y-125014872D01*
X157673777Y-124644835D01*
X157760600Y-124208346D01*
X157760600Y-124163654D01*
X157673777Y-123727165D01*
X157426526Y-123357128D01*
X157056489Y-123109877D01*
X156620000Y-123023054D01*
X156183511Y-123109877D01*
X155813474Y-123357128D01*
X155578360Y-123709000D01*
X145109000Y-123709000D01*
X144926460Y-123745309D01*
X144771710Y-123848710D01*
X135772505Y-132847915D01*
X135755731Y-132847900D01*
X135543583Y-132935558D01*
X135381129Y-133097729D01*
X135293100Y-133309724D01*
X135292900Y-133539269D01*
X124608849Y-133539269D01*
X122983849Y-131914269D01*
X135342900Y-131914269D01*
X135430558Y-132126417D01*
X135592729Y-132288871D01*
X135804724Y-132376900D01*
X136034269Y-132377100D01*
X136246417Y-132289442D01*
X136408871Y-132127271D01*
X136496900Y-131915276D01*
X136496915Y-131897665D01*
X146271580Y-122123000D01*
X155578360Y-122123000D01*
X155813474Y-122474872D01*
X156183511Y-122722123D01*
X156620000Y-122808946D01*
X157056489Y-122722123D01*
X157426526Y-122474872D01*
X157673777Y-122104835D01*
X157760600Y-121668346D01*
X157760600Y-121623654D01*
X157673777Y-121187165D01*
X157426526Y-120817128D01*
X157056489Y-120569877D01*
X156620000Y-120483054D01*
X156183511Y-120569877D01*
X155813474Y-120817128D01*
X155578360Y-121169000D01*
X146074000Y-121169000D01*
X145891460Y-121205309D01*
X145736710Y-121308710D01*
X136495035Y-130550385D01*
X136571900Y-130365276D01*
X136571915Y-130347665D01*
X147336580Y-119583000D01*
X155578360Y-119583000D01*
X155813474Y-119934872D01*
X156183511Y-120182123D01*
X156620000Y-120268946D01*
X157056489Y-120182123D01*
X157426526Y-119934872D01*
X157673777Y-119564835D01*
X157760600Y-119128346D01*
X157760600Y-119083654D01*
X157673777Y-118647165D01*
X157426526Y-118277128D01*
X157056489Y-118029877D01*
X156620000Y-117943054D01*
X156183511Y-118029877D01*
X155813474Y-118277128D01*
X155578360Y-118629000D01*
X147139000Y-118629000D01*
X146956460Y-118665309D01*
X146801710Y-118768710D01*
X135897505Y-129672915D01*
X135880731Y-129672900D01*
X135668583Y-129760558D01*
X135506129Y-129922729D01*
X135418100Y-130134724D01*
X135417900Y-130364269D01*
X135505558Y-130576417D01*
X135667729Y-130738871D01*
X135879724Y-130826900D01*
X136109269Y-130827100D01*
X136295107Y-130750313D01*
X135822505Y-131222915D01*
X135805731Y-131222900D01*
X135593583Y-131310558D01*
X135431129Y-131472729D01*
X135343100Y-131684724D01*
X135342900Y-131914269D01*
X122983849Y-131914269D01*
X119808849Y-128739269D01*
X135367900Y-128739269D01*
X135455558Y-128951417D01*
X135617729Y-129113871D01*
X135829724Y-129201900D01*
X136059269Y-129202100D01*
X136271417Y-129114442D01*
X136433871Y-128952271D01*
X136521900Y-128740276D01*
X136522100Y-128510731D01*
X136459964Y-128360352D01*
X147777316Y-117043000D01*
X155578360Y-117043000D01*
X155813474Y-117394872D01*
X156183511Y-117642123D01*
X156620000Y-117728946D01*
X157056489Y-117642123D01*
X157426526Y-117394872D01*
X157673777Y-117024835D01*
X157760600Y-116588346D01*
X157760600Y-116543654D01*
X157673777Y-116107165D01*
X157426526Y-115737128D01*
X157056489Y-115489877D01*
X156989610Y-115476574D01*
X157394947Y-115308688D01*
X157826821Y-114914490D01*
X158074968Y-114385027D01*
X157954469Y-114153000D01*
X156747000Y-114153000D01*
X156747000Y-114173000D01*
X156493000Y-114173000D01*
X156493000Y-114153000D01*
X155285531Y-114153000D01*
X155165032Y-114385027D01*
X155413179Y-114914490D01*
X155845053Y-115308688D01*
X156250390Y-115476574D01*
X156183511Y-115489877D01*
X155813474Y-115737128D01*
X155578360Y-116089000D01*
X147579736Y-116089000D01*
X147397195Y-116125309D01*
X147242446Y-116228710D01*
X135607710Y-127863446D01*
X135504309Y-128018196D01*
X135468000Y-128200736D01*
X135468000Y-128285879D01*
X135456129Y-128297729D01*
X135368100Y-128509724D01*
X135367900Y-128739269D01*
X119808849Y-128739269D01*
X119747000Y-128677420D01*
X119747000Y-127789121D01*
X119758871Y-127777271D01*
X119846900Y-127565276D01*
X119847100Y-127335731D01*
X119759442Y-127123583D01*
X119597271Y-126961129D01*
X119385276Y-126873100D01*
X119155731Y-126872900D01*
X118943583Y-126960558D01*
X118781129Y-127122729D01*
X118693100Y-127334724D01*
X118692900Y-127564269D01*
X109661850Y-127564269D01*
X109566821Y-127361510D01*
X109134947Y-126967312D01*
X108729610Y-126799426D01*
X108796489Y-126786123D01*
X109166526Y-126538872D01*
X109394468Y-126197734D01*
X109884024Y-126687290D01*
X110038774Y-126790691D01*
X110221314Y-126827000D01*
X132270000Y-126827000D01*
X132452540Y-126790691D01*
X132607290Y-126687290D01*
X133992495Y-125302085D01*
X134009269Y-125302100D01*
X134221417Y-125214442D01*
X134383871Y-125052271D01*
X134471900Y-124840276D01*
X134472100Y-124610731D01*
X134384442Y-124398583D01*
X134222271Y-124236129D01*
X134010276Y-124148100D01*
X133780731Y-124147900D01*
X133568583Y-124235558D01*
X133406129Y-124397729D01*
X133318100Y-124609724D01*
X133318085Y-124627335D01*
X132072420Y-125873000D01*
X110418894Y-125873000D01*
X109918604Y-125372710D01*
X109763854Y-125269309D01*
X109581314Y-125233000D01*
X109401640Y-125233000D01*
X109166526Y-124881128D01*
X108796489Y-124633877D01*
X108360000Y-124547054D01*
X107923511Y-124633877D01*
X107553474Y-124881128D01*
X107306223Y-125251165D01*
X107219400Y-125687654D01*
X107219400Y-125732346D01*
X107306223Y-126168835D01*
X107553474Y-126538872D01*
X107923511Y-126786123D01*
X107990390Y-126799426D01*
X107585053Y-126967312D01*
X107153179Y-127361510D01*
X106905032Y-127890973D01*
X106172000Y-127890973D01*
X106172000Y-123147654D01*
X107219400Y-123147654D01*
X107219400Y-123192346D01*
X107306223Y-123628835D01*
X107553474Y-123998872D01*
X107923511Y-124246123D01*
X108360000Y-124332946D01*
X108796489Y-124246123D01*
X109166526Y-123998872D01*
X109401640Y-123647000D01*
X117492420Y-123647000D01*
X118792915Y-124947495D01*
X118792900Y-124964269D01*
X118880558Y-125176417D01*
X119042729Y-125338871D01*
X119254724Y-125426900D01*
X119484269Y-125427100D01*
X119696417Y-125339442D01*
X119858871Y-125177271D01*
X119946900Y-124965276D01*
X119947100Y-124735731D01*
X119859442Y-124523583D01*
X119697271Y-124361129D01*
X119485276Y-124273100D01*
X119467665Y-124273085D01*
X118027290Y-122832710D01*
X117872540Y-122729309D01*
X117690000Y-122693000D01*
X109401640Y-122693000D01*
X109166526Y-122341128D01*
X108796489Y-122093877D01*
X108360000Y-122007054D01*
X107923511Y-122093877D01*
X107553474Y-122341128D01*
X107306223Y-122711165D01*
X107219400Y-123147654D01*
X106172000Y-123147654D01*
X106172000Y-120607654D01*
X107219400Y-120607654D01*
X107219400Y-120652346D01*
X107306223Y-121088835D01*
X107553474Y-121458872D01*
X107923511Y-121706123D01*
X108360000Y-121792946D01*
X108796489Y-121706123D01*
X109166526Y-121458872D01*
X109413777Y-121088835D01*
X109500600Y-120652346D01*
X109500600Y-120607654D01*
X109413777Y-120171165D01*
X109166526Y-119801128D01*
X108796489Y-119553877D01*
X108360000Y-119467054D01*
X107923511Y-119553877D01*
X107553474Y-119801128D01*
X107306223Y-120171165D01*
X107219400Y-120607654D01*
X106172000Y-120607654D01*
X106172000Y-118067654D01*
X107219400Y-118067654D01*
X107219400Y-118112346D01*
X107306223Y-118548835D01*
X107553474Y-118918872D01*
X107923511Y-119166123D01*
X108360000Y-119252946D01*
X108796489Y-119166123D01*
X109166526Y-118918872D01*
X109413777Y-118548835D01*
X109500600Y-118112346D01*
X109500600Y-118067654D01*
X109413777Y-117631165D01*
X109166526Y-117261128D01*
X109134906Y-117240000D01*
X110867574Y-117240000D01*
X110867574Y-118940000D01*
X110886889Y-119042650D01*
X110947555Y-119136927D01*
X111040120Y-119200175D01*
X111150000Y-119222426D01*
X112850000Y-119222426D01*
X112952650Y-119203111D01*
X113046927Y-119142445D01*
X113110175Y-119049880D01*
X113132426Y-118940000D01*
X113132426Y-117240000D01*
X113113111Y-117137350D01*
X113052445Y-117043073D01*
X112959880Y-116979825D01*
X112850000Y-116957574D01*
X111150000Y-116957574D01*
X111047350Y-116976889D01*
X110953073Y-117037555D01*
X110889825Y-117130120D01*
X110867574Y-117240000D01*
X109134906Y-117240000D01*
X108796489Y-117013877D01*
X108360000Y-116927054D01*
X107923511Y-117013877D01*
X107553474Y-117261128D01*
X107306223Y-117631165D01*
X107219400Y-118067654D01*
X106172000Y-118067654D01*
X106172000Y-115527654D01*
X107219400Y-115527654D01*
X107219400Y-115572346D01*
X107306223Y-116008835D01*
X107553474Y-116378872D01*
X107923511Y-116626123D01*
X108360000Y-116712946D01*
X108796489Y-116626123D01*
X109166526Y-116378872D01*
X109413777Y-116008835D01*
X109500600Y-115572346D01*
X109500600Y-115527654D01*
X109413777Y-115091165D01*
X109166526Y-114721128D01*
X108796489Y-114473877D01*
X108360000Y-114387054D01*
X107923511Y-114473877D01*
X107553474Y-114721128D01*
X107306223Y-115091165D01*
X107219400Y-115527654D01*
X106172000Y-115527654D01*
X106172000Y-112364269D01*
X147392900Y-112364269D01*
X147480558Y-112576417D01*
X147642729Y-112738871D01*
X147854724Y-112826900D01*
X148084269Y-112827100D01*
X148296417Y-112739442D01*
X148308881Y-112727000D01*
X155856000Y-112727000D01*
X155910710Y-112716118D01*
X155845053Y-112743312D01*
X155413179Y-113137510D01*
X155165032Y-113666973D01*
X155285531Y-113899000D01*
X156493000Y-113899000D01*
X156493000Y-113879000D01*
X156747000Y-113879000D01*
X156747000Y-113899000D01*
X157954469Y-113899000D01*
X158074968Y-113666973D01*
X157826821Y-113137510D01*
X157394947Y-112743312D01*
X156989610Y-112575426D01*
X157056489Y-112562123D01*
X157426526Y-112314872D01*
X157673777Y-111944835D01*
X157760600Y-111508346D01*
X157760600Y-111463654D01*
X157673777Y-111027165D01*
X157426526Y-110657128D01*
X157056489Y-110409877D01*
X156620000Y-110323054D01*
X156183511Y-110409877D01*
X155813474Y-110657128D01*
X155566223Y-111027165D01*
X155479400Y-111463654D01*
X155479400Y-111508346D01*
X155532043Y-111773000D01*
X148309121Y-111773000D01*
X148297271Y-111761129D01*
X148085276Y-111673100D01*
X147855731Y-111672900D01*
X147643583Y-111760558D01*
X147481129Y-111922729D01*
X147393100Y-112134724D01*
X147392900Y-112364269D01*
X106172000Y-112364269D01*
X106172000Y-108923654D01*
X155479400Y-108923654D01*
X155479400Y-108968346D01*
X155566223Y-109404835D01*
X155813474Y-109774872D01*
X156183511Y-110022123D01*
X156620000Y-110108946D01*
X157056489Y-110022123D01*
X157426526Y-109774872D01*
X157673777Y-109404835D01*
X157760600Y-108968346D01*
X157760600Y-108923654D01*
X157673777Y-108487165D01*
X157426526Y-108117128D01*
X157056489Y-107869877D01*
X156620000Y-107783054D01*
X156183511Y-107869877D01*
X155813474Y-108117128D01*
X155566223Y-108487165D01*
X155479400Y-108923654D01*
X106172000Y-108923654D01*
X106172000Y-106383654D01*
X155479400Y-106383654D01*
X155479400Y-106428346D01*
X155566223Y-106864835D01*
X155813474Y-107234872D01*
X156183511Y-107482123D01*
X156620000Y-107568946D01*
X157056489Y-107482123D01*
X157426526Y-107234872D01*
X157673777Y-106864835D01*
X157760600Y-106428346D01*
X157760600Y-106383654D01*
X157673777Y-105947165D01*
X157426526Y-105577128D01*
X157056489Y-105329877D01*
X156620000Y-105243054D01*
X156183511Y-105329877D01*
X155813474Y-105577128D01*
X155566223Y-105947165D01*
X155479400Y-106383654D01*
X106172000Y-106383654D01*
X106172000Y-101951720D01*
X106482675Y-101951720D01*
X106767829Y-102641846D01*
X107295376Y-103170316D01*
X107985004Y-103456674D01*
X108731720Y-103457325D01*
X108995251Y-103348436D01*
X137017827Y-103348436D01*
X137170051Y-103716846D01*
X137451672Y-103998959D01*
X137819816Y-104151825D01*
X138218436Y-104152173D01*
X138586846Y-103999949D01*
X138868959Y-103718328D01*
X139021825Y-103350184D01*
X139021826Y-103348436D01*
X142017827Y-103348436D01*
X142170051Y-103716846D01*
X142451672Y-103998959D01*
X142819816Y-104151825D01*
X143218436Y-104152173D01*
X143586846Y-103999949D01*
X143868959Y-103718328D01*
X144021825Y-103350184D01*
X144021937Y-103221720D01*
X154742675Y-103221720D01*
X155027829Y-103911846D01*
X155555376Y-104440316D01*
X156245004Y-104726674D01*
X156991720Y-104727325D01*
X157681846Y-104442171D01*
X158210316Y-103914624D01*
X158496674Y-103224996D01*
X158497325Y-102478280D01*
X158212171Y-101788154D01*
X157684624Y-101259684D01*
X156994996Y-100973326D01*
X156248280Y-100972675D01*
X155558154Y-101257829D01*
X155029684Y-101785376D01*
X154743326Y-102475004D01*
X154742675Y-103221720D01*
X144021937Y-103221720D01*
X144022173Y-102951564D01*
X143869949Y-102583154D01*
X143588328Y-102301041D01*
X143220184Y-102148175D01*
X142821564Y-102147827D01*
X142453154Y-102300051D01*
X142171041Y-102581672D01*
X142018175Y-102949816D01*
X142017827Y-103348436D01*
X139021826Y-103348436D01*
X139022173Y-102951564D01*
X138869949Y-102583154D01*
X138588328Y-102301041D01*
X138220184Y-102148175D01*
X137821564Y-102147827D01*
X137453154Y-102300051D01*
X137171041Y-102581672D01*
X137018175Y-102949816D01*
X137017827Y-103348436D01*
X108995251Y-103348436D01*
X109421846Y-103172171D01*
X109950316Y-102644624D01*
X110236674Y-101954996D01*
X110237325Y-101208280D01*
X109952171Y-100518154D01*
X109510752Y-100075962D01*
X136143000Y-100075962D01*
X136143000Y-100824038D01*
X136209758Y-101159651D01*
X136399867Y-101444171D01*
X136684387Y-101634280D01*
X137020000Y-101701038D01*
X137355613Y-101634280D01*
X137640133Y-101444171D01*
X137830242Y-101159651D01*
X137897000Y-100824038D01*
X137897000Y-100075962D01*
X143143000Y-100075962D01*
X143143000Y-100824038D01*
X143209758Y-101159651D01*
X143399867Y-101444171D01*
X143684387Y-101634280D01*
X144020000Y-101701038D01*
X144355613Y-101634280D01*
X144640133Y-101444171D01*
X144830242Y-101159651D01*
X144897000Y-100824038D01*
X144897000Y-100075962D01*
X144830242Y-99740349D01*
X144640133Y-99455829D01*
X144355613Y-99265720D01*
X144020000Y-99198962D01*
X143684387Y-99265720D01*
X143399867Y-99455829D01*
X143209758Y-99740349D01*
X143143000Y-100075962D01*
X137897000Y-100075962D01*
X137830242Y-99740349D01*
X137640133Y-99455829D01*
X137355613Y-99265720D01*
X137020000Y-99198962D01*
X136684387Y-99265720D01*
X136399867Y-99455829D01*
X136209758Y-99740349D01*
X136143000Y-100075962D01*
X109510752Y-100075962D01*
X109424624Y-99989684D01*
X108734996Y-99703326D01*
X107988280Y-99702675D01*
X107298154Y-99987829D01*
X106769684Y-100515376D01*
X106483326Y-101205004D01*
X106482675Y-101951720D01*
X106172000Y-101951720D01*
X106172000Y-98934800D01*
X158808000Y-98934800D01*
X158808000Y-151980197D01*
X158808000Y-151980197D01*
G37*
X158808000Y-151980197D02*
X157490196Y-153298000D01*
X146460000Y-153298000D01*
X146325295Y-153324794D01*
X146211098Y-153401098D01*
X146211096Y-153401101D01*
X143774196Y-155838000D01*
X109775803Y-155838000D01*
X107959524Y-154021720D01*
X111562675Y-154021720D01*
X111847829Y-154711846D01*
X112375376Y-155240316D01*
X113065004Y-155526674D01*
X113811720Y-155527325D01*
X114501846Y-155242171D01*
X115030316Y-154714624D01*
X115270569Y-154136027D01*
X129765032Y-154136027D01*
X130013179Y-154665490D01*
X130445053Y-155059688D01*
X130860974Y-155231958D01*
X131093000Y-155110817D01*
X131093000Y-153904000D01*
X129885531Y-153904000D01*
X129765032Y-154136027D01*
X115270569Y-154136027D01*
X115316674Y-154024996D01*
X115317325Y-153278280D01*
X115032171Y-152588154D01*
X114504624Y-152059684D01*
X113814996Y-151773326D01*
X113068280Y-151772675D01*
X112378154Y-152057829D01*
X111849684Y-152585376D01*
X111563326Y-153275004D01*
X111562675Y-154021720D01*
X107959524Y-154021720D01*
X107338902Y-153401098D01*
X107224705Y-153324794D01*
X107090000Y-153297999D01*
X107089995Y-153298000D01*
X106172000Y-153298000D01*
X106172000Y-151087654D01*
X107219400Y-151087654D01*
X107219400Y-151132346D01*
X107306223Y-151568835D01*
X107553474Y-151938872D01*
X107923511Y-152186123D01*
X108360000Y-152272946D01*
X108796489Y-152186123D01*
X109166526Y-151938872D01*
X109413777Y-151568835D01*
X109500600Y-151132346D01*
X109500600Y-151087654D01*
X109413777Y-150651165D01*
X109166526Y-150281128D01*
X108796489Y-150033877D01*
X108360000Y-149947054D01*
X107923511Y-150033877D01*
X107553474Y-150281128D01*
X107306223Y-150651165D01*
X107219400Y-151087654D01*
X106172000Y-151087654D01*
X106172000Y-148547654D01*
X107219400Y-148547654D01*
X107219400Y-148592346D01*
X107306223Y-149028835D01*
X107553474Y-149398872D01*
X107923511Y-149646123D01*
X108360000Y-149732946D01*
X108796489Y-149646123D01*
X109166526Y-149398872D01*
X109413777Y-149028835D01*
X109500600Y-148592346D01*
X109500600Y-148547654D01*
X109413777Y-148111165D01*
X109166526Y-147741128D01*
X108796489Y-147493877D01*
X108360000Y-147407054D01*
X107923511Y-147493877D01*
X107553474Y-147741128D01*
X107306223Y-148111165D01*
X107219400Y-148547654D01*
X106172000Y-148547654D01*
X106172000Y-146007654D01*
X107219400Y-146007654D01*
X107219400Y-146052346D01*
X107306223Y-146488835D01*
X107553474Y-146858872D01*
X107923511Y-147106123D01*
X108360000Y-147192946D01*
X108796489Y-147106123D01*
X109166526Y-146858872D01*
X109413777Y-146488835D01*
X109500600Y-146052346D01*
X109500600Y-146007654D01*
X109413777Y-145571165D01*
X109166526Y-145201128D01*
X108796489Y-144953877D01*
X108360000Y-144867054D01*
X107923511Y-144953877D01*
X107553474Y-145201128D01*
X107306223Y-145571165D01*
X107219400Y-146007654D01*
X106172000Y-146007654D01*
X106172000Y-143467654D01*
X107219400Y-143467654D01*
X107219400Y-143512346D01*
X107306223Y-143948835D01*
X107553474Y-144318872D01*
X107923511Y-144566123D01*
X108360000Y-144652946D01*
X108796489Y-144566123D01*
X109166526Y-144318872D01*
X109413777Y-143948835D01*
X109500600Y-143512346D01*
X109500600Y-143467654D01*
X109413777Y-143031165D01*
X109166526Y-142661128D01*
X108796489Y-142413877D01*
X108360000Y-142327054D01*
X107923511Y-142413877D01*
X107553474Y-142661128D01*
X107306223Y-143031165D01*
X107219400Y-143467654D01*
X106172000Y-143467654D01*
X106172000Y-140927654D01*
X107219400Y-140927654D01*
X107219400Y-140972346D01*
X107306223Y-141408835D01*
X107553474Y-141778872D01*
X107923511Y-142026123D01*
X108360000Y-142112946D01*
X108796489Y-142026123D01*
X109166526Y-141778872D01*
X109413777Y-141408835D01*
X109500600Y-140972346D01*
X109500600Y-140927654D01*
X109413777Y-140491165D01*
X109166526Y-140121128D01*
X108796489Y-139873877D01*
X108360000Y-139787054D01*
X107923511Y-139873877D01*
X107553474Y-140121128D01*
X107306223Y-140491165D01*
X107219400Y-140927654D01*
X106172000Y-140927654D01*
X106172000Y-138387654D01*
X107219400Y-138387654D01*
X107219400Y-138432346D01*
X107306223Y-138868835D01*
X107553474Y-139238872D01*
X107923511Y-139486123D01*
X108360000Y-139572946D01*
X108796489Y-139486123D01*
X109166526Y-139238872D01*
X109413777Y-138868835D01*
X109500600Y-138432346D01*
X109500600Y-138387654D01*
X109413777Y-137951165D01*
X109166526Y-137581128D01*
X108796489Y-137333877D01*
X108360000Y-137247054D01*
X107923511Y-137333877D01*
X107553474Y-137581128D01*
X107306223Y-137951165D01*
X107219400Y-138387654D01*
X106172000Y-138387654D01*
X106172000Y-131149027D01*
X106905032Y-131149027D01*
X107153179Y-131678490D01*
X107585053Y-132072688D01*
X107990390Y-132240574D01*
X107923511Y-132253877D01*
X107553474Y-132501128D01*
X107306223Y-132871165D01*
X107219400Y-133307654D01*
X107219400Y-133352346D01*
X107306223Y-133788835D01*
X107553474Y-134158872D01*
X107923511Y-134406123D01*
X108360000Y-134492946D01*
X108796489Y-134406123D01*
X109166526Y-134158872D01*
X109413777Y-133788835D01*
X109500600Y-133352346D01*
X109500600Y-133307654D01*
X109413777Y-132871165D01*
X109166526Y-132501128D01*
X108796489Y-132253877D01*
X108729610Y-132240574D01*
X109134947Y-132072688D01*
X109566821Y-131678490D01*
X109814968Y-131149027D01*
X109694469Y-130917000D01*
X108487000Y-130917000D01*
X108487000Y-130937000D01*
X108233000Y-130937000D01*
X108233000Y-130917000D01*
X107025531Y-130917000D01*
X106905032Y-131149027D01*
X106172000Y-131149027D01*
X106172000Y-128609027D01*
X106905032Y-128609027D01*
X107153179Y-129138490D01*
X107571152Y-129520000D01*
X107153179Y-129901510D01*
X106905032Y-130430973D01*
X107025531Y-130663000D01*
X108233000Y-130663000D01*
X108233000Y-128377000D01*
X108487000Y-128377000D01*
X108487000Y-130663000D01*
X109694469Y-130663000D01*
X109814968Y-130430973D01*
X109566821Y-129901510D01*
X109148848Y-129520000D01*
X109566821Y-129138490D01*
X109800794Y-128639269D01*
X115677900Y-128639269D01*
X115765558Y-128851417D01*
X115927729Y-129013871D01*
X116139724Y-129101900D01*
X116157335Y-129101915D01*
X130743000Y-143687580D01*
X130743000Y-150187946D01*
X130413474Y-150408128D01*
X130166223Y-150778165D01*
X130079400Y-151214654D01*
X130079400Y-151259346D01*
X130166223Y-151695835D01*
X130413474Y-152065872D01*
X130783511Y-152313123D01*
X130850390Y-152326426D01*
X130445053Y-152494312D01*
X130013179Y-152888510D01*
X129765032Y-153417973D01*
X129885531Y-153650000D01*
X131093000Y-153650000D01*
X131093000Y-153630000D01*
X131347000Y-153630000D01*
X131347000Y-153650000D01*
X131367000Y-153650000D01*
X131367000Y-153904000D01*
X131347000Y-153904000D01*
X131347000Y-155110817D01*
X131579026Y-155231958D01*
X131994947Y-155059688D01*
X132426821Y-154665490D01*
X132674968Y-154136027D01*
X132554470Y-153904002D01*
X132640217Y-153904002D01*
X132706223Y-154235835D01*
X132953474Y-154605872D01*
X133323511Y-154853123D01*
X133760000Y-154939946D01*
X134196489Y-154853123D01*
X134566526Y-154605872D01*
X134813777Y-154235835D01*
X134900600Y-153799346D01*
X134900600Y-153754654D01*
X134813777Y-153318165D01*
X134566526Y-152948128D01*
X134196489Y-152700877D01*
X133760000Y-152614054D01*
X133323511Y-152700877D01*
X132953474Y-152948128D01*
X132706223Y-153318165D01*
X132640217Y-153649998D01*
X132554470Y-153649998D01*
X132674968Y-153417973D01*
X132426821Y-152888510D01*
X131994947Y-152494312D01*
X131589610Y-152326426D01*
X131656489Y-152313123D01*
X132026526Y-152065872D01*
X132273777Y-151695835D01*
X132360600Y-151259346D01*
X132360600Y-151214654D01*
X132619400Y-151214654D01*
X132619400Y-151259346D01*
X132706223Y-151695835D01*
X132953474Y-152065872D01*
X133323511Y-152313123D01*
X133760000Y-152399946D01*
X134196489Y-152313123D01*
X134566526Y-152065872D01*
X134813777Y-151695835D01*
X134900600Y-151259346D01*
X134900600Y-151214654D01*
X134813777Y-150778165D01*
X134566526Y-150408128D01*
X134196489Y-150160877D01*
X133760000Y-150074054D01*
X133323511Y-150160877D01*
X132953474Y-150408128D01*
X132706223Y-150778165D01*
X132619400Y-151214654D01*
X132360600Y-151214654D01*
X132273777Y-150778165D01*
X132026526Y-150408128D01*
X131697000Y-150187946D01*
X131697000Y-143490000D01*
X131660691Y-143307460D01*
X131557290Y-143152710D01*
X116832085Y-128427505D01*
X116832100Y-128410731D01*
X116744442Y-128198583D01*
X116582271Y-128036129D01*
X116370276Y-127948100D01*
X116140731Y-127947900D01*
X115928583Y-128035558D01*
X115766129Y-128197729D01*
X115678100Y-128409724D01*
X115677900Y-128639269D01*
X109800794Y-128639269D01*
X109814968Y-128609027D01*
X109694469Y-128377000D01*
X108487000Y-128377000D01*
X108233000Y-128377000D01*
X107025531Y-128377000D01*
X106905032Y-128609027D01*
X106172000Y-128609027D01*
X106172000Y-127890973D01*
X106905032Y-127890973D01*
X107025531Y-128123000D01*
X108233000Y-128123000D01*
X108233000Y-128103000D01*
X108487000Y-128103000D01*
X108487000Y-128123000D01*
X109694469Y-128123000D01*
X109814968Y-127890973D01*
X109661850Y-127564269D01*
X118692900Y-127564269D01*
X118780558Y-127776417D01*
X118793000Y-127788881D01*
X118793000Y-128875000D01*
X118829309Y-129057540D01*
X118932710Y-129212290D01*
X137036601Y-147316181D01*
X137036601Y-150361406D01*
X136736489Y-150160877D01*
X136300000Y-150074054D01*
X135863511Y-150160877D01*
X135493474Y-150408128D01*
X135246223Y-150778165D01*
X135159400Y-151214654D01*
X135159400Y-151259346D01*
X135246223Y-151695835D01*
X135493474Y-152065872D01*
X135863511Y-152313123D01*
X136300000Y-152399946D01*
X136736489Y-152313123D01*
X137036601Y-152112594D01*
X137036601Y-152365819D01*
X136707341Y-152695079D01*
X136300000Y-152614054D01*
X135863511Y-152700877D01*
X135493474Y-152948128D01*
X135246223Y-153318165D01*
X135159400Y-153754654D01*
X135159400Y-153799346D01*
X135246223Y-154235835D01*
X135493474Y-154605872D01*
X135863511Y-154853123D01*
X136300000Y-154939946D01*
X136736489Y-154853123D01*
X137106526Y-154605872D01*
X137353777Y-154235835D01*
X137396367Y-154021720D01*
X139502675Y-154021720D01*
X139787829Y-154711846D01*
X140315376Y-155240316D01*
X141005004Y-155526674D01*
X141751720Y-155527325D01*
X142441846Y-155242171D01*
X142970316Y-154714624D01*
X143256674Y-154024996D01*
X143257325Y-153278280D01*
X142972171Y-152588154D01*
X142444624Y-152059684D01*
X141754996Y-151773326D01*
X141008280Y-151772675D01*
X140318154Y-152057829D01*
X139789684Y-152585376D01*
X139503326Y-153275004D01*
X139502675Y-154021720D01*
X137396367Y-154021720D01*
X137440600Y-153799346D01*
X137440600Y-153754654D01*
X137366990Y-153384590D01*
X137850891Y-152900689D01*
X137954292Y-152745939D01*
X137990601Y-152563399D01*
X137990601Y-147118601D01*
X137954292Y-146936061D01*
X137850891Y-146781311D01*
X133083849Y-142014269D01*
X135542900Y-142014269D01*
X135630558Y-142226417D01*
X135792729Y-142388871D01*
X136004724Y-142476900D01*
X136022335Y-142476915D01*
X144992710Y-151447290D01*
X145147460Y-151550691D01*
X145330000Y-151587000D01*
X155578360Y-151587000D01*
X155813474Y-151938872D01*
X156183511Y-152186123D01*
X156620000Y-152272946D01*
X157056489Y-152186123D01*
X157426526Y-151938872D01*
X157673777Y-151568835D01*
X157760600Y-151132346D01*
X157760600Y-151087654D01*
X157673777Y-150651165D01*
X157426526Y-150281128D01*
X157056489Y-150033877D01*
X156620000Y-149947054D01*
X156183511Y-150033877D01*
X155813474Y-150281128D01*
X155578360Y-150633000D01*
X145527580Y-150633000D01*
X137072873Y-142178293D01*
X137129724Y-142201900D01*
X137147335Y-142201915D01*
X143852710Y-148907290D01*
X144007460Y-149010691D01*
X144190000Y-149047000D01*
X155578360Y-149047000D01*
X155813474Y-149398872D01*
X156183511Y-149646123D01*
X156620000Y-149732946D01*
X157056489Y-149646123D01*
X157426526Y-149398872D01*
X157673777Y-149028835D01*
X157760600Y-148592346D01*
X157760600Y-148547654D01*
X157673777Y-148111165D01*
X157426526Y-147741128D01*
X157056489Y-147493877D01*
X156620000Y-147407054D01*
X156183511Y-147493877D01*
X155813474Y-147741128D01*
X155578360Y-148093000D01*
X144387580Y-148093000D01*
X141494580Y-145200000D01*
X152867574Y-145200000D01*
X152867574Y-146900000D01*
X152886889Y-147002650D01*
X152947555Y-147096927D01*
X153040120Y-147160175D01*
X153150000Y-147182426D01*
X154850000Y-147182426D01*
X154952650Y-147163111D01*
X155046927Y-147102445D01*
X155110175Y-147009880D01*
X155132426Y-146900000D01*
X155132426Y-146007654D01*
X155479400Y-146007654D01*
X155479400Y-146052346D01*
X155566223Y-146488835D01*
X155813474Y-146858872D01*
X156183511Y-147106123D01*
X156620000Y-147192946D01*
X157056489Y-147106123D01*
X157426526Y-146858872D01*
X157673777Y-146488835D01*
X157760600Y-146052346D01*
X157760600Y-146007654D01*
X157673777Y-145571165D01*
X157426526Y-145201128D01*
X157056489Y-144953877D01*
X156620000Y-144867054D01*
X156183511Y-144953877D01*
X155813474Y-145201128D01*
X155566223Y-145571165D01*
X155479400Y-146007654D01*
X155132426Y-146007654D01*
X155132426Y-145200000D01*
X155113111Y-145097350D01*
X155052445Y-145003073D01*
X154959880Y-144939825D01*
X154850000Y-144917574D01*
X153150000Y-144917574D01*
X153047350Y-144936889D01*
X152953073Y-144997555D01*
X152889825Y-145090120D01*
X152867574Y-145200000D01*
X141494580Y-145200000D01*
X139762234Y-143467654D01*
X155479400Y-143467654D01*
X155479400Y-143512346D01*
X155566223Y-143948835D01*
X155813474Y-144318872D01*
X156183511Y-144566123D01*
X156620000Y-144652946D01*
X157056489Y-144566123D01*
X157426526Y-144318872D01*
X157673777Y-143948835D01*
X157760600Y-143512346D01*
X157760600Y-143467654D01*
X157673777Y-143031165D01*
X157426526Y-142661128D01*
X157056489Y-142413877D01*
X156620000Y-142327054D01*
X156183511Y-142413877D01*
X155813474Y-142661128D01*
X155566223Y-143031165D01*
X155479400Y-143467654D01*
X139762234Y-143467654D01*
X137822085Y-141527505D01*
X137822100Y-141510731D01*
X137734442Y-141298583D01*
X137572271Y-141136129D01*
X137360276Y-141048100D01*
X137130731Y-141047900D01*
X136918583Y-141135558D01*
X136756129Y-141297729D01*
X136668100Y-141509724D01*
X136667921Y-141715113D01*
X136609442Y-141573583D01*
X136447271Y-141411129D01*
X136235276Y-141323100D01*
X136005731Y-141322900D01*
X135793583Y-141410558D01*
X135631129Y-141572729D01*
X135543100Y-141784724D01*
X135542900Y-142014269D01*
X133083849Y-142014269D01*
X131997234Y-140927654D01*
X155479400Y-140927654D01*
X155479400Y-140972346D01*
X155566223Y-141408835D01*
X155813474Y-141778872D01*
X156183511Y-142026123D01*
X156620000Y-142112946D01*
X157056489Y-142026123D01*
X157426526Y-141778872D01*
X157673777Y-141408835D01*
X157760600Y-140972346D01*
X157760600Y-140927654D01*
X157673777Y-140491165D01*
X157426526Y-140121128D01*
X157056489Y-139873877D01*
X156620000Y-139787054D01*
X156183511Y-139873877D01*
X155813474Y-140121128D01*
X155566223Y-140491165D01*
X155479400Y-140927654D01*
X131997234Y-140927654D01*
X129457234Y-138387654D01*
X155479400Y-138387654D01*
X155479400Y-138432346D01*
X155566223Y-138868835D01*
X155813474Y-139238872D01*
X156183511Y-139486123D01*
X156620000Y-139572946D01*
X157056489Y-139486123D01*
X157426526Y-139238872D01*
X157673777Y-138868835D01*
X157760600Y-138432346D01*
X157760600Y-138387654D01*
X157673777Y-137951165D01*
X157426526Y-137581128D01*
X157056489Y-137333877D01*
X156620000Y-137247054D01*
X156183511Y-137333877D01*
X155813474Y-137581128D01*
X155566223Y-137951165D01*
X155479400Y-138387654D01*
X129457234Y-138387654D01*
X126917234Y-135847654D01*
X155479400Y-135847654D01*
X155479400Y-135892346D01*
X155566223Y-136328835D01*
X155813474Y-136698872D01*
X156183511Y-136946123D01*
X156620000Y-137032946D01*
X157056489Y-136946123D01*
X157426526Y-136698872D01*
X157673777Y-136328835D01*
X157760600Y-135892346D01*
X157760600Y-135847654D01*
X157673777Y-135411165D01*
X157426526Y-135041128D01*
X157056489Y-134793877D01*
X156620000Y-134707054D01*
X156183511Y-134793877D01*
X155813474Y-135041128D01*
X155566223Y-135411165D01*
X155479400Y-135847654D01*
X126917234Y-135847654D01*
X125883849Y-134814269D01*
X135617900Y-134814269D01*
X135705558Y-135026417D01*
X135867729Y-135188871D01*
X136079724Y-135276900D01*
X136309269Y-135277100D01*
X136521417Y-135189442D01*
X136683871Y-135027271D01*
X136771900Y-134815276D01*
X136771915Y-134797665D01*
X139089580Y-132480000D01*
X152867574Y-132480000D01*
X152867574Y-134180000D01*
X152886889Y-134282650D01*
X152947555Y-134376927D01*
X153040120Y-134440175D01*
X153150000Y-134462426D01*
X154850000Y-134462426D01*
X154952650Y-134443111D01*
X155046927Y-134382445D01*
X155110175Y-134289880D01*
X155132426Y-134180000D01*
X155132426Y-133307654D01*
X155479400Y-133307654D01*
X155479400Y-133352346D01*
X155566223Y-133788835D01*
X155813474Y-134158872D01*
X156183511Y-134406123D01*
X156620000Y-134492946D01*
X157056489Y-134406123D01*
X157426526Y-134158872D01*
X157673777Y-133788835D01*
X157760600Y-133352346D01*
X157760600Y-133307654D01*
X157673777Y-132871165D01*
X157426526Y-132501128D01*
X157056489Y-132253877D01*
X156620000Y-132167054D01*
X156183511Y-132253877D01*
X155813474Y-132501128D01*
X155566223Y-132871165D01*
X155479400Y-133307654D01*
X155132426Y-133307654D01*
X155132426Y-132480000D01*
X155113111Y-132377350D01*
X155052445Y-132283073D01*
X154959880Y-132219825D01*
X154850000Y-132197574D01*
X153150000Y-132197574D01*
X153047350Y-132216889D01*
X152953073Y-132277555D01*
X152889825Y-132370120D01*
X152867574Y-132480000D01*
X139089580Y-132480000D01*
X143159580Y-128410000D01*
X152867574Y-128410000D01*
X152867574Y-130110000D01*
X152886889Y-130212650D01*
X152947555Y-130306927D01*
X153040120Y-130370175D01*
X153150000Y-130392426D01*
X154850000Y-130392426D01*
X154952650Y-130373111D01*
X155046927Y-130312445D01*
X155110175Y-130219880D01*
X155132426Y-130110000D01*
X155132426Y-129243654D01*
X155479400Y-129243654D01*
X155479400Y-129288346D01*
X155566223Y-129724835D01*
X155813474Y-130094872D01*
X156183511Y-130342123D01*
X156620000Y-130428946D01*
X157056489Y-130342123D01*
X157426526Y-130094872D01*
X157673777Y-129724835D01*
X157760600Y-129288346D01*
X157760600Y-129243654D01*
X157673777Y-128807165D01*
X157426526Y-128437128D01*
X157056489Y-128189877D01*
X156620000Y-128103054D01*
X156183511Y-128189877D01*
X155813474Y-128437128D01*
X155566223Y-128807165D01*
X155479400Y-129243654D01*
X155132426Y-129243654D01*
X155132426Y-128410000D01*
X155113111Y-128307350D01*
X155052445Y-128213073D01*
X154959880Y-128149825D01*
X154850000Y-128127574D01*
X153150000Y-128127574D01*
X153047350Y-128146889D01*
X152953073Y-128207555D01*
X152889825Y-128300120D01*
X152867574Y-128410000D01*
X143159580Y-128410000D01*
X144366580Y-127203000D01*
X155578360Y-127203000D01*
X155813474Y-127554872D01*
X156183511Y-127802123D01*
X156620000Y-127888946D01*
X157056489Y-127802123D01*
X157426526Y-127554872D01*
X157673777Y-127184835D01*
X157760600Y-126748346D01*
X157760600Y-126703654D01*
X157673777Y-126267165D01*
X157426526Y-125897128D01*
X157056489Y-125649877D01*
X156620000Y-125563054D01*
X156183511Y-125649877D01*
X155813474Y-125897128D01*
X155578360Y-126249000D01*
X144169000Y-126249000D01*
X143986460Y-126285309D01*
X143831710Y-126388710D01*
X136097505Y-134122915D01*
X136080731Y-134122900D01*
X135868583Y-134210558D01*
X135706129Y-134372729D01*
X135618100Y-134584724D01*
X135617900Y-134814269D01*
X125883849Y-134814269D01*
X124608849Y-133539269D01*
X135292900Y-133539269D01*
X135380558Y-133751417D01*
X135542729Y-133913871D01*
X135754724Y-134001900D01*
X135984269Y-134002100D01*
X136196417Y-133914442D01*
X136358871Y-133752271D01*
X136446900Y-133540276D01*
X136446915Y-133522665D01*
X145306580Y-124663000D01*
X155578360Y-124663000D01*
X155813474Y-125014872D01*
X156183511Y-125262123D01*
X156620000Y-125348946D01*
X157056489Y-125262123D01*
X157426526Y-125014872D01*
X157673777Y-124644835D01*
X157760600Y-124208346D01*
X157760600Y-124163654D01*
X157673777Y-123727165D01*
X157426526Y-123357128D01*
X157056489Y-123109877D01*
X156620000Y-123023054D01*
X156183511Y-123109877D01*
X155813474Y-123357128D01*
X155578360Y-123709000D01*
X145109000Y-123709000D01*
X144926460Y-123745309D01*
X144771710Y-123848710D01*
X135772505Y-132847915D01*
X135755731Y-132847900D01*
X135543583Y-132935558D01*
X135381129Y-133097729D01*
X135293100Y-133309724D01*
X135292900Y-133539269D01*
X124608849Y-133539269D01*
X122983849Y-131914269D01*
X135342900Y-131914269D01*
X135430558Y-132126417D01*
X135592729Y-132288871D01*
X135804724Y-132376900D01*
X136034269Y-132377100D01*
X136246417Y-132289442D01*
X136408871Y-132127271D01*
X136496900Y-131915276D01*
X136496915Y-131897665D01*
X146271580Y-122123000D01*
X155578360Y-122123000D01*
X155813474Y-122474872D01*
X156183511Y-122722123D01*
X156620000Y-122808946D01*
X157056489Y-122722123D01*
X157426526Y-122474872D01*
X157673777Y-122104835D01*
X157760600Y-121668346D01*
X157760600Y-121623654D01*
X157673777Y-121187165D01*
X157426526Y-120817128D01*
X157056489Y-120569877D01*
X156620000Y-120483054D01*
X156183511Y-120569877D01*
X155813474Y-120817128D01*
X155578360Y-121169000D01*
X146074000Y-121169000D01*
X145891460Y-121205309D01*
X145736710Y-121308710D01*
X136495035Y-130550385D01*
X136571900Y-130365276D01*
X136571915Y-130347665D01*
X147336580Y-119583000D01*
X155578360Y-119583000D01*
X155813474Y-119934872D01*
X156183511Y-120182123D01*
X156620000Y-120268946D01*
X157056489Y-120182123D01*
X157426526Y-119934872D01*
X157673777Y-119564835D01*
X157760600Y-119128346D01*
X157760600Y-119083654D01*
X157673777Y-118647165D01*
X157426526Y-118277128D01*
X157056489Y-118029877D01*
X156620000Y-117943054D01*
X156183511Y-118029877D01*
X155813474Y-118277128D01*
X155578360Y-118629000D01*
X147139000Y-118629000D01*
X146956460Y-118665309D01*
X146801710Y-118768710D01*
X135897505Y-129672915D01*
X135880731Y-129672900D01*
X135668583Y-129760558D01*
X135506129Y-129922729D01*
X135418100Y-130134724D01*
X135417900Y-130364269D01*
X135505558Y-130576417D01*
X135667729Y-130738871D01*
X135879724Y-130826900D01*
X136109269Y-130827100D01*
X136295107Y-130750313D01*
X135822505Y-131222915D01*
X135805731Y-131222900D01*
X135593583Y-131310558D01*
X135431129Y-131472729D01*
X135343100Y-131684724D01*
X135342900Y-131914269D01*
X122983849Y-131914269D01*
X119808849Y-128739269D01*
X135367900Y-128739269D01*
X135455558Y-128951417D01*
X135617729Y-129113871D01*
X135829724Y-129201900D01*
X136059269Y-129202100D01*
X136271417Y-129114442D01*
X136433871Y-128952271D01*
X136521900Y-128740276D01*
X136522100Y-128510731D01*
X136459964Y-128360352D01*
X147777316Y-117043000D01*
X155578360Y-117043000D01*
X155813474Y-117394872D01*
X156183511Y-117642123D01*
X156620000Y-117728946D01*
X157056489Y-117642123D01*
X157426526Y-117394872D01*
X157673777Y-117024835D01*
X157760600Y-116588346D01*
X157760600Y-116543654D01*
X157673777Y-116107165D01*
X157426526Y-115737128D01*
X157056489Y-115489877D01*
X156989610Y-115476574D01*
X157394947Y-115308688D01*
X157826821Y-114914490D01*
X158074968Y-114385027D01*
X157954469Y-114153000D01*
X156747000Y-114153000D01*
X156747000Y-114173000D01*
X156493000Y-114173000D01*
X156493000Y-114153000D01*
X155285531Y-114153000D01*
X155165032Y-114385027D01*
X155413179Y-114914490D01*
X155845053Y-115308688D01*
X156250390Y-115476574D01*
X156183511Y-115489877D01*
X155813474Y-115737128D01*
X155578360Y-116089000D01*
X147579736Y-116089000D01*
X147397195Y-116125309D01*
X147242446Y-116228710D01*
X135607710Y-127863446D01*
X135504309Y-128018196D01*
X135468000Y-128200736D01*
X135468000Y-128285879D01*
X135456129Y-128297729D01*
X135368100Y-128509724D01*
X135367900Y-128739269D01*
X119808849Y-128739269D01*
X119747000Y-128677420D01*
X119747000Y-127789121D01*
X119758871Y-127777271D01*
X119846900Y-127565276D01*
X119847100Y-127335731D01*
X119759442Y-127123583D01*
X119597271Y-126961129D01*
X119385276Y-126873100D01*
X119155731Y-126872900D01*
X118943583Y-126960558D01*
X118781129Y-127122729D01*
X118693100Y-127334724D01*
X118692900Y-127564269D01*
X109661850Y-127564269D01*
X109566821Y-127361510D01*
X109134947Y-126967312D01*
X108729610Y-126799426D01*
X108796489Y-126786123D01*
X109166526Y-126538872D01*
X109394468Y-126197734D01*
X109884024Y-126687290D01*
X110038774Y-126790691D01*
X110221314Y-126827000D01*
X132270000Y-126827000D01*
X132452540Y-126790691D01*
X132607290Y-126687290D01*
X133992495Y-125302085D01*
X134009269Y-125302100D01*
X134221417Y-125214442D01*
X134383871Y-125052271D01*
X134471900Y-124840276D01*
X134472100Y-124610731D01*
X134384442Y-124398583D01*
X134222271Y-124236129D01*
X134010276Y-124148100D01*
X133780731Y-124147900D01*
X133568583Y-124235558D01*
X133406129Y-124397729D01*
X133318100Y-124609724D01*
X133318085Y-124627335D01*
X132072420Y-125873000D01*
X110418894Y-125873000D01*
X109918604Y-125372710D01*
X109763854Y-125269309D01*
X109581314Y-125233000D01*
X109401640Y-125233000D01*
X109166526Y-124881128D01*
X108796489Y-124633877D01*
X108360000Y-124547054D01*
X107923511Y-124633877D01*
X107553474Y-124881128D01*
X107306223Y-125251165D01*
X107219400Y-125687654D01*
X107219400Y-125732346D01*
X107306223Y-126168835D01*
X107553474Y-126538872D01*
X107923511Y-126786123D01*
X107990390Y-126799426D01*
X107585053Y-126967312D01*
X107153179Y-127361510D01*
X106905032Y-127890973D01*
X106172000Y-127890973D01*
X106172000Y-123147654D01*
X107219400Y-123147654D01*
X107219400Y-123192346D01*
X107306223Y-123628835D01*
X107553474Y-123998872D01*
X107923511Y-124246123D01*
X108360000Y-124332946D01*
X108796489Y-124246123D01*
X109166526Y-123998872D01*
X109401640Y-123647000D01*
X117492420Y-123647000D01*
X118792915Y-124947495D01*
X118792900Y-124964269D01*
X118880558Y-125176417D01*
X119042729Y-125338871D01*
X119254724Y-125426900D01*
X119484269Y-125427100D01*
X119696417Y-125339442D01*
X119858871Y-125177271D01*
X119946900Y-124965276D01*
X119947100Y-124735731D01*
X119859442Y-124523583D01*
X119697271Y-124361129D01*
X119485276Y-124273100D01*
X119467665Y-124273085D01*
X118027290Y-122832710D01*
X117872540Y-122729309D01*
X117690000Y-122693000D01*
X109401640Y-122693000D01*
X109166526Y-122341128D01*
X108796489Y-122093877D01*
X108360000Y-122007054D01*
X107923511Y-122093877D01*
X107553474Y-122341128D01*
X107306223Y-122711165D01*
X107219400Y-123147654D01*
X106172000Y-123147654D01*
X106172000Y-120607654D01*
X107219400Y-120607654D01*
X107219400Y-120652346D01*
X107306223Y-121088835D01*
X107553474Y-121458872D01*
X107923511Y-121706123D01*
X108360000Y-121792946D01*
X108796489Y-121706123D01*
X109166526Y-121458872D01*
X109413777Y-121088835D01*
X109500600Y-120652346D01*
X109500600Y-120607654D01*
X109413777Y-120171165D01*
X109166526Y-119801128D01*
X108796489Y-119553877D01*
X108360000Y-119467054D01*
X107923511Y-119553877D01*
X107553474Y-119801128D01*
X107306223Y-120171165D01*
X107219400Y-120607654D01*
X106172000Y-120607654D01*
X106172000Y-118067654D01*
X107219400Y-118067654D01*
X107219400Y-118112346D01*
X107306223Y-118548835D01*
X107553474Y-118918872D01*
X107923511Y-119166123D01*
X108360000Y-119252946D01*
X108796489Y-119166123D01*
X109166526Y-118918872D01*
X109413777Y-118548835D01*
X109500600Y-118112346D01*
X109500600Y-118067654D01*
X109413777Y-117631165D01*
X109166526Y-117261128D01*
X109134906Y-117240000D01*
X110867574Y-117240000D01*
X110867574Y-118940000D01*
X110886889Y-119042650D01*
X110947555Y-119136927D01*
X111040120Y-119200175D01*
X111150000Y-119222426D01*
X112850000Y-119222426D01*
X112952650Y-119203111D01*
X113046927Y-119142445D01*
X113110175Y-119049880D01*
X113132426Y-118940000D01*
X113132426Y-117240000D01*
X113113111Y-117137350D01*
X113052445Y-117043073D01*
X112959880Y-116979825D01*
X112850000Y-116957574D01*
X111150000Y-116957574D01*
X111047350Y-116976889D01*
X110953073Y-117037555D01*
X110889825Y-117130120D01*
X110867574Y-117240000D01*
X109134906Y-117240000D01*
X108796489Y-117013877D01*
X108360000Y-116927054D01*
X107923511Y-117013877D01*
X107553474Y-117261128D01*
X107306223Y-117631165D01*
X107219400Y-118067654D01*
X106172000Y-118067654D01*
X106172000Y-115527654D01*
X107219400Y-115527654D01*
X107219400Y-115572346D01*
X107306223Y-116008835D01*
X107553474Y-116378872D01*
X107923511Y-116626123D01*
X108360000Y-116712946D01*
X108796489Y-116626123D01*
X109166526Y-116378872D01*
X109413777Y-116008835D01*
X109500600Y-115572346D01*
X109500600Y-115527654D01*
X109413777Y-115091165D01*
X109166526Y-114721128D01*
X108796489Y-114473877D01*
X108360000Y-114387054D01*
X107923511Y-114473877D01*
X107553474Y-114721128D01*
X107306223Y-115091165D01*
X107219400Y-115527654D01*
X106172000Y-115527654D01*
X106172000Y-112364269D01*
X147392900Y-112364269D01*
X147480558Y-112576417D01*
X147642729Y-112738871D01*
X147854724Y-112826900D01*
X148084269Y-112827100D01*
X148296417Y-112739442D01*
X148308881Y-112727000D01*
X155856000Y-112727000D01*
X155910710Y-112716118D01*
X155845053Y-112743312D01*
X155413179Y-113137510D01*
X155165032Y-113666973D01*
X155285531Y-113899000D01*
X156493000Y-113899000D01*
X156493000Y-113879000D01*
X156747000Y-113879000D01*
X156747000Y-113899000D01*
X157954469Y-113899000D01*
X158074968Y-113666973D01*
X157826821Y-113137510D01*
X157394947Y-112743312D01*
X156989610Y-112575426D01*
X157056489Y-112562123D01*
X157426526Y-112314872D01*
X157673777Y-111944835D01*
X157760600Y-111508346D01*
X157760600Y-111463654D01*
X157673777Y-111027165D01*
X157426526Y-110657128D01*
X157056489Y-110409877D01*
X156620000Y-110323054D01*
X156183511Y-110409877D01*
X155813474Y-110657128D01*
X155566223Y-111027165D01*
X155479400Y-111463654D01*
X155479400Y-111508346D01*
X155532043Y-111773000D01*
X148309121Y-111773000D01*
X148297271Y-111761129D01*
X148085276Y-111673100D01*
X147855731Y-111672900D01*
X147643583Y-111760558D01*
X147481129Y-111922729D01*
X147393100Y-112134724D01*
X147392900Y-112364269D01*
X106172000Y-112364269D01*
X106172000Y-108923654D01*
X155479400Y-108923654D01*
X155479400Y-108968346D01*
X155566223Y-109404835D01*
X155813474Y-109774872D01*
X156183511Y-110022123D01*
X156620000Y-110108946D01*
X157056489Y-110022123D01*
X157426526Y-109774872D01*
X157673777Y-109404835D01*
X157760600Y-108968346D01*
X157760600Y-108923654D01*
X157673777Y-108487165D01*
X157426526Y-108117128D01*
X157056489Y-107869877D01*
X156620000Y-107783054D01*
X156183511Y-107869877D01*
X155813474Y-108117128D01*
X155566223Y-108487165D01*
X155479400Y-108923654D01*
X106172000Y-108923654D01*
X106172000Y-106383654D01*
X155479400Y-106383654D01*
X155479400Y-106428346D01*
X155566223Y-106864835D01*
X155813474Y-107234872D01*
X156183511Y-107482123D01*
X156620000Y-107568946D01*
X157056489Y-107482123D01*
X157426526Y-107234872D01*
X157673777Y-106864835D01*
X157760600Y-106428346D01*
X157760600Y-106383654D01*
X157673777Y-105947165D01*
X157426526Y-105577128D01*
X157056489Y-105329877D01*
X156620000Y-105243054D01*
X156183511Y-105329877D01*
X155813474Y-105577128D01*
X155566223Y-105947165D01*
X155479400Y-106383654D01*
X106172000Y-106383654D01*
X106172000Y-101951720D01*
X106482675Y-101951720D01*
X106767829Y-102641846D01*
X107295376Y-103170316D01*
X107985004Y-103456674D01*
X108731720Y-103457325D01*
X108995251Y-103348436D01*
X137017827Y-103348436D01*
X137170051Y-103716846D01*
X137451672Y-103998959D01*
X137819816Y-104151825D01*
X138218436Y-104152173D01*
X138586846Y-103999949D01*
X138868959Y-103718328D01*
X139021825Y-103350184D01*
X139021826Y-103348436D01*
X142017827Y-103348436D01*
X142170051Y-103716846D01*
X142451672Y-103998959D01*
X142819816Y-104151825D01*
X143218436Y-104152173D01*
X143586846Y-103999949D01*
X143868959Y-103718328D01*
X144021825Y-103350184D01*
X144021937Y-103221720D01*
X154742675Y-103221720D01*
X155027829Y-103911846D01*
X155555376Y-104440316D01*
X156245004Y-104726674D01*
X156991720Y-104727325D01*
X157681846Y-104442171D01*
X158210316Y-103914624D01*
X158496674Y-103224996D01*
X158497325Y-102478280D01*
X158212171Y-101788154D01*
X157684624Y-101259684D01*
X156994996Y-100973326D01*
X156248280Y-100972675D01*
X155558154Y-101257829D01*
X155029684Y-101785376D01*
X154743326Y-102475004D01*
X154742675Y-103221720D01*
X144021937Y-103221720D01*
X144022173Y-102951564D01*
X143869949Y-102583154D01*
X143588328Y-102301041D01*
X143220184Y-102148175D01*
X142821564Y-102147827D01*
X142453154Y-102300051D01*
X142171041Y-102581672D01*
X142018175Y-102949816D01*
X142017827Y-103348436D01*
X139021826Y-103348436D01*
X139022173Y-102951564D01*
X138869949Y-102583154D01*
X138588328Y-102301041D01*
X138220184Y-102148175D01*
X137821564Y-102147827D01*
X137453154Y-102300051D01*
X137171041Y-102581672D01*
X137018175Y-102949816D01*
X137017827Y-103348436D01*
X108995251Y-103348436D01*
X109421846Y-103172171D01*
X109950316Y-102644624D01*
X110236674Y-101954996D01*
X110237325Y-101208280D01*
X109952171Y-100518154D01*
X109510752Y-100075962D01*
X136143000Y-100075962D01*
X136143000Y-100824038D01*
X136209758Y-101159651D01*
X136399867Y-101444171D01*
X136684387Y-101634280D01*
X137020000Y-101701038D01*
X137355613Y-101634280D01*
X137640133Y-101444171D01*
X137830242Y-101159651D01*
X137897000Y-100824038D01*
X137897000Y-100075962D01*
X143143000Y-100075962D01*
X143143000Y-100824038D01*
X143209758Y-101159651D01*
X143399867Y-101444171D01*
X143684387Y-101634280D01*
X144020000Y-101701038D01*
X144355613Y-101634280D01*
X144640133Y-101444171D01*
X144830242Y-101159651D01*
X144897000Y-100824038D01*
X144897000Y-100075962D01*
X144830242Y-99740349D01*
X144640133Y-99455829D01*
X144355613Y-99265720D01*
X144020000Y-99198962D01*
X143684387Y-99265720D01*
X143399867Y-99455829D01*
X143209758Y-99740349D01*
X143143000Y-100075962D01*
X137897000Y-100075962D01*
X137830242Y-99740349D01*
X137640133Y-99455829D01*
X137355613Y-99265720D01*
X137020000Y-99198962D01*
X136684387Y-99265720D01*
X136399867Y-99455829D01*
X136209758Y-99740349D01*
X136143000Y-100075962D01*
X109510752Y-100075962D01*
X109424624Y-99989684D01*
X108734996Y-99703326D01*
X107988280Y-99702675D01*
X107298154Y-99987829D01*
X106769684Y-100515376D01*
X106483326Y-101205004D01*
X106482675Y-101951720D01*
X106172000Y-101951720D01*
X106172000Y-98934800D01*
X158808000Y-98934800D01*
X158808000Y-151980197D01*
M02*
