M48
;DRILL file {KiCad 4.0.4-stable} date 07/06/18 23:02:26
;FORMAT={-:-/ absolute / inch / decimal}
FMAT,2
INCH,TZ
T1C0.016
T2C0.024
T3C0.033
T4C0.039
T5C0.040
%
G90
G05
M72
T1
X4.577Y-5.06
X4.6406Y-4.2264
X4.6957Y-5.0177
X4.6996Y-4.9154
X5.0687Y-4.7116
X5.2715Y-4.9104
X5.3492Y-5.253
X5.3512Y-5.189
X5.3522Y-5.064
X5.3541Y-5.128
X5.3591Y-5.5866
X5.362Y-5.3031
X5.4033Y-5.5758
X5.4908Y-4.1255
X5.5011Y-4.0104
X5.8256Y-4.4193
T3
X5.4339Y-4.061
X5.6307Y-4.061
T4
X4.4094Y-4.6492
X6.063Y-5.089
X6.063Y-5.2492
X6.063Y-5.75
T5
X4.2661Y-4.5492
X4.2661Y-4.6492
X4.2661Y-4.7492
X4.2661Y-4.8492
X4.2661Y-4.9492
X4.2661Y-5.0492
X4.2661Y-5.1492
X4.2661Y-5.2492
X4.2661Y-5.4492
X4.2661Y-5.5492
X4.2661Y-5.6492
X4.2661Y-5.7492
X4.2661Y-5.8492
X4.2661Y-5.9492
X5.1661Y-5.9542
X5.1661Y-6.0542
X5.2661Y-5.9542
X5.2661Y-6.0542
X5.3661Y-5.9542
X5.3661Y-6.0542
X6.1661Y-4.1892
X6.1661Y-4.2892
X6.1661Y-4.3892
X6.1661Y-4.4892
X6.1661Y-4.5892
X6.1661Y-4.6892
X6.1661Y-4.7892
X6.1661Y-4.8892
X6.1661Y-4.9892
X6.1661Y-5.0892
X6.1661Y-5.2492
X6.1661Y-5.3492
X6.1661Y-5.4492
X6.1661Y-5.5492
X6.1661Y-5.6492
X6.1661Y-5.7492
X6.1661Y-5.8492
X6.1661Y-5.9492
T2
X5.3945Y-3.9685G85X5.3945Y-3.9409
G05
X5.6701Y-3.9409G85X5.6701Y-3.9685
G05
T0
M30
