M48
;DRILL file {KiCad 4.0.4-stable} date 07/06/18 21:54:20
;FORMAT={-:-/ absolute / inch / decimal}
FMAT,2
INCH,TZ
T1C0.026
T2C0.039
T3C0.065
%
G90
G05
M72
T1
X4.7787Y-2.7894
X4.7787Y-2.8394
X4.8287Y-2.7894
X4.8287Y-2.8394
X4.8787Y-2.7894
X4.8787Y-2.8394
X4.9287Y-2.7894
X4.9287Y-2.8394
X4.9787Y-2.7894
X4.9787Y-2.8394
T2
X5.9055Y-3.1102
X5.9055Y-3.2102
X5.9055Y-3.3102
X5.9055Y-3.4102
X5.9055Y-3.5102
X6.4055Y-3.1102
X6.4055Y-3.2102
X6.4055Y-3.3102
X6.4055Y-3.4102
X6.4055Y-3.5102
T3
X4.6396Y-3.9213
X4.6996Y-3.9902
X5.0175Y-3.4311
X5.0992Y-3.3848
X5.1238Y-3.5197
T0
M30
