G04 #@! TF.FileFunction,Soldermask,Top*
%FSLAX46Y46*%
G04 Gerber Fmt 4.6, Leading zero omitted, Abs format (unit mm)*
G04 Created by KiCad (PCBNEW 4.0.4-stable) date 07/06/18 21:54:16*
%MOMM*%
%LPD*%
G01*
G04 APERTURE LIST*
%ADD10C,0.100000*%
%ADD11C,0.010000*%
%ADD12R,1.700000X1.700000*%
%ADD13O,1.700000X1.700000*%
%ADD14C,2.000000*%
%ADD15R,1.000000X1.000000*%
%ADD16O,1.000000X1.000000*%
%ADD17R,1.550000X1.300000*%
G04 APERTURE END LIST*
D10*
D11*
G36*
X143625781Y-70395526D02*
X143678434Y-70424793D01*
X143719432Y-70448469D01*
X143751237Y-70468221D01*
X143776312Y-70485719D01*
X143797120Y-70502630D01*
X143816123Y-70520624D01*
X143826887Y-70531787D01*
X143842248Y-70550174D01*
X143858604Y-70572913D01*
X143873554Y-70596174D01*
X143884701Y-70616130D01*
X143889643Y-70628952D01*
X143889260Y-70631322D01*
X143881215Y-70630370D01*
X143861209Y-70626152D01*
X143832638Y-70619416D01*
X143811627Y-70614182D01*
X143718252Y-70593474D01*
X143613734Y-70575641D01*
X143502661Y-70561399D01*
X143426333Y-70554178D01*
X143366176Y-70550695D01*
X143293871Y-70548745D01*
X143213064Y-70548258D01*
X143127400Y-70549160D01*
X143040524Y-70551381D01*
X142956082Y-70554848D01*
X142877720Y-70559490D01*
X142809082Y-70565236D01*
X142796312Y-70566569D01*
X142545744Y-70599933D01*
X142286662Y-70646462D01*
X142019335Y-70706095D01*
X141744030Y-70778771D01*
X141461014Y-70864429D01*
X141409691Y-70881084D01*
X141342196Y-70903512D01*
X141272564Y-70927205D01*
X141202403Y-70951567D01*
X141133323Y-70976004D01*
X141066935Y-70999921D01*
X141004846Y-71022721D01*
X140948668Y-71043810D01*
X140900009Y-71062593D01*
X140860479Y-71078474D01*
X140831688Y-71090859D01*
X140815245Y-71099152D01*
X140811937Y-71102127D01*
X140814755Y-71104310D01*
X140823698Y-71108303D01*
X140839501Y-71114348D01*
X140862896Y-71122685D01*
X140894619Y-71133557D01*
X140935404Y-71147205D01*
X140985984Y-71163870D01*
X141047094Y-71183794D01*
X141119467Y-71207218D01*
X141203838Y-71234383D01*
X141300940Y-71265532D01*
X141411509Y-71300905D01*
X141536277Y-71340743D01*
X141573937Y-71352757D01*
X141729342Y-71402465D01*
X141870842Y-71448047D01*
X141999735Y-71489948D01*
X142117318Y-71528618D01*
X142224887Y-71564503D01*
X142323741Y-71598050D01*
X142415177Y-71629707D01*
X142500490Y-71659922D01*
X142580980Y-71689142D01*
X142657942Y-71717814D01*
X142732674Y-71746386D01*
X142806474Y-71775305D01*
X142853978Y-71794267D01*
X143076854Y-71887607D01*
X143284730Y-71982599D01*
X143478440Y-72079766D01*
X143658819Y-72179632D01*
X143826701Y-72282719D01*
X143982921Y-72389551D01*
X144128314Y-72500651D01*
X144263715Y-72616543D01*
X144389957Y-72737749D01*
X144437023Y-72786716D01*
X144466834Y-72818822D01*
X144495262Y-72850116D01*
X144519149Y-72877082D01*
X144535338Y-72896203D01*
X144535720Y-72896679D01*
X144562406Y-72930014D01*
X144625906Y-72925951D01*
X144658058Y-72922287D01*
X144700267Y-72915198D01*
X144747339Y-72905661D01*
X144794078Y-72894656D01*
X144799694Y-72893211D01*
X144859647Y-72878753D01*
X144917071Y-72867014D01*
X144969306Y-72858387D01*
X145013692Y-72853268D01*
X145047569Y-72852050D01*
X145064682Y-72853983D01*
X145083953Y-72858820D01*
X145078833Y-72780363D01*
X145070619Y-72673435D01*
X145059994Y-72570586D01*
X145046417Y-72468284D01*
X145029344Y-72362994D01*
X145008235Y-72251184D01*
X144982548Y-72129318D01*
X144971279Y-72078775D01*
X144947692Y-71973941D01*
X144927482Y-71883172D01*
X144910355Y-71805089D01*
X144896016Y-71738311D01*
X144884172Y-71681459D01*
X144874529Y-71633153D01*
X144866792Y-71592014D01*
X144863287Y-71572199D01*
X144856627Y-71533789D01*
X144853836Y-71507839D01*
X144857024Y-71491031D01*
X144868304Y-71480046D01*
X144889787Y-71471566D01*
X144923586Y-71462275D01*
X144935235Y-71459159D01*
X145010263Y-71445390D01*
X145080230Y-71445656D01*
X145144200Y-71459791D01*
X145201234Y-71487628D01*
X145233458Y-71512371D01*
X145267009Y-71546775D01*
X145297432Y-71587339D01*
X145324979Y-71635008D01*
X145349900Y-71690729D01*
X145372446Y-71755448D01*
X145392868Y-71830111D01*
X145411418Y-71915664D01*
X145428345Y-72013054D01*
X145443901Y-72123225D01*
X145458337Y-72247124D01*
X145471904Y-72385698D01*
X145475307Y-72424093D01*
X145480859Y-72487048D01*
X145486350Y-72547611D01*
X145491535Y-72603203D01*
X145496168Y-72651246D01*
X145500004Y-72689162D01*
X145502799Y-72714374D01*
X145503226Y-72717781D01*
X145506903Y-72747875D01*
X145509586Y-72773246D01*
X145510692Y-72788332D01*
X145511571Y-72793801D01*
X145515490Y-72797626D01*
X145524681Y-72799982D01*
X145541374Y-72801042D01*
X145567804Y-72800980D01*
X145606202Y-72799969D01*
X145643890Y-72798705D01*
X145771231Y-72790278D01*
X145896233Y-72774409D01*
X145903843Y-72773173D01*
X145989479Y-72760972D01*
X146074533Y-72753055D01*
X146166836Y-72748706D01*
X146173718Y-72748518D01*
X146316593Y-72744780D01*
X146315995Y-72675718D01*
X146315228Y-72650228D01*
X146313092Y-72624423D01*
X146309159Y-72596543D01*
X146303001Y-72564825D01*
X146294192Y-72527509D01*
X146282303Y-72482835D01*
X146266907Y-72429042D01*
X146247577Y-72364368D01*
X146223885Y-72287053D01*
X146213477Y-72253437D01*
X146178890Y-72139415D01*
X146150148Y-72039034D01*
X146126995Y-71951281D01*
X146109172Y-71875141D01*
X146096422Y-71809602D01*
X146090415Y-71769787D01*
X146084675Y-71692287D01*
X146089032Y-71626633D01*
X146103435Y-71572946D01*
X146127837Y-71531346D01*
X146162187Y-71501953D01*
X146206436Y-71484888D01*
X146207496Y-71484657D01*
X146255552Y-71480721D01*
X146301216Y-71490377D01*
X146344975Y-71514029D01*
X146387314Y-71552080D01*
X146428718Y-71604937D01*
X146469674Y-71673002D01*
X146495836Y-71724650D01*
X146526550Y-71794357D01*
X146556201Y-71872979D01*
X146585151Y-71961751D01*
X146613762Y-72061910D01*
X146642396Y-72174693D01*
X146671416Y-72301335D01*
X146689337Y-72385321D01*
X146700742Y-72440001D01*
X146711899Y-72493319D01*
X146722110Y-72541965D01*
X146730681Y-72582626D01*
X146736916Y-72611991D01*
X146738159Y-72617787D01*
X146750808Y-72676542D01*
X146891962Y-72671243D01*
X146972458Y-72667433D01*
X147052046Y-72661945D01*
X147132566Y-72654512D01*
X147215860Y-72644861D01*
X147303767Y-72632725D01*
X147398129Y-72617832D01*
X147500785Y-72599913D01*
X147613578Y-72578699D01*
X147738346Y-72553918D01*
X147852500Y-72530411D01*
X147985014Y-72503216D01*
X148103451Y-72479855D01*
X148207584Y-72460368D01*
X148297183Y-72444794D01*
X148372019Y-72433176D01*
X148431863Y-72425552D01*
X148458526Y-72423060D01*
X148525012Y-72417950D01*
X148530089Y-72445010D01*
X148530283Y-72478086D01*
X148520917Y-72522229D01*
X148502312Y-72576082D01*
X148494627Y-72594750D01*
X148484484Y-72618392D01*
X148477081Y-72635326D01*
X148474385Y-72641157D01*
X148465954Y-72643360D01*
X148443058Y-72647296D01*
X148406995Y-72652800D01*
X148359062Y-72659705D01*
X148300554Y-72667845D01*
X148232769Y-72677054D01*
X148157003Y-72687166D01*
X148074553Y-72698013D01*
X147986716Y-72709429D01*
X147894788Y-72721249D01*
X147800066Y-72733305D01*
X147703846Y-72745432D01*
X147607426Y-72757463D01*
X147512102Y-72769232D01*
X147419171Y-72780571D01*
X147329929Y-72791316D01*
X147245674Y-72801300D01*
X147167701Y-72810355D01*
X147097307Y-72818317D01*
X147070750Y-72821247D01*
X147008130Y-72828154D01*
X146950744Y-72834597D01*
X146900445Y-72840359D01*
X146859091Y-72845222D01*
X146828536Y-72848969D01*
X146810635Y-72851383D01*
X146806635Y-72852156D01*
X146808309Y-72860025D01*
X146814327Y-72880567D01*
X146823949Y-72911416D01*
X146836438Y-72950206D01*
X146851054Y-72994571D01*
X146851679Y-72996448D01*
X146871259Y-73056689D01*
X146890060Y-73117807D01*
X146908571Y-73181691D01*
X146927285Y-73250229D01*
X146946691Y-73325308D01*
X146967281Y-73408817D01*
X146989544Y-73502644D01*
X147013973Y-73608678D01*
X147035050Y-73701982D01*
X147055698Y-73793792D01*
X147073464Y-73872156D01*
X147088851Y-73939137D01*
X147102364Y-73996800D01*
X147114507Y-74047208D01*
X147125786Y-74092424D01*
X147136703Y-74134511D01*
X147147765Y-74175534D01*
X147159476Y-74217555D01*
X147170906Y-74257656D01*
X147190699Y-74324288D01*
X147208707Y-74379184D01*
X147226450Y-74426136D01*
X147245442Y-74468935D01*
X147267200Y-74511375D01*
X147285181Y-74543406D01*
X147319182Y-74603616D01*
X147345405Y-74653218D01*
X147365029Y-74694710D01*
X147379236Y-74730589D01*
X147389205Y-74763352D01*
X147389308Y-74763750D01*
X147396700Y-74806826D01*
X147397841Y-74850256D01*
X147393303Y-74890751D01*
X147383663Y-74925025D01*
X147369492Y-74949791D01*
X147354915Y-74960691D01*
X147323034Y-74966817D01*
X147282732Y-74965740D01*
X147239601Y-74957714D01*
X147230320Y-74955051D01*
X147193959Y-74937260D01*
X147156408Y-74907248D01*
X147120798Y-74868070D01*
X147090258Y-74822783D01*
X147084996Y-74813188D01*
X147072177Y-74786949D01*
X147055803Y-74750643D01*
X147037967Y-74709038D01*
X147020763Y-74666905D01*
X147020540Y-74666344D01*
X147003386Y-74623617D01*
X146982170Y-74571599D01*
X146959073Y-74515596D01*
X146936278Y-74460914D01*
X146925595Y-74435534D01*
X146885368Y-74337662D01*
X146841380Y-74225500D01*
X146793544Y-74098819D01*
X146741777Y-73957394D01*
X146685994Y-73800997D01*
X146653466Y-73708217D01*
X146609775Y-73582977D01*
X146570939Y-73471832D01*
X146536633Y-73373867D01*
X146506538Y-73288170D01*
X146480330Y-73213827D01*
X146457687Y-73149925D01*
X146438287Y-73095550D01*
X146421808Y-73049789D01*
X146407927Y-73011730D01*
X146404907Y-73003531D01*
X146369737Y-72908281D01*
X146331259Y-72909618D01*
X146312284Y-72910934D01*
X146279728Y-72913921D01*
X146235771Y-72918334D01*
X146182589Y-72923924D01*
X146122362Y-72930445D01*
X146057267Y-72937650D01*
X145989484Y-72945293D01*
X145921189Y-72953127D01*
X145854562Y-72960904D01*
X145791781Y-72968378D01*
X145735023Y-72975302D01*
X145686468Y-72981429D01*
X145648293Y-72986513D01*
X145631984Y-72988854D01*
X145542687Y-73002223D01*
X145542687Y-73047342D01*
X145544066Y-73070121D01*
X145547886Y-73104904D01*
X145553672Y-73148092D01*
X145560951Y-73196086D01*
X145567356Y-73234528D01*
X145579153Y-73307899D01*
X145587133Y-73371684D01*
X145591885Y-73431545D01*
X145593952Y-73490218D01*
X145595120Y-73537827D01*
X145596927Y-73571923D01*
X145599638Y-73594867D01*
X145603515Y-73609015D01*
X145607982Y-73615946D01*
X145618843Y-73624737D01*
X145640070Y-73640295D01*
X145668817Y-73660587D01*
X145702239Y-73683580D01*
X145710042Y-73688870D01*
X145757967Y-73722983D01*
X145793599Y-73752992D01*
X145819038Y-73781497D01*
X145836382Y-73811094D01*
X145847730Y-73844383D01*
X145852093Y-73864750D01*
X145856772Y-73922621D01*
X145848130Y-73971885D01*
X145826171Y-74012523D01*
X145816502Y-74023529D01*
X145785272Y-74051242D01*
X145752235Y-74070655D01*
X145713897Y-74082929D01*
X145666767Y-74089223D01*
X145614125Y-74090734D01*
X145566818Y-74089622D01*
X145523485Y-74086066D01*
X145480331Y-74079343D01*
X145433563Y-74068735D01*
X145379389Y-74053519D01*
X145319540Y-74034766D01*
X145234303Y-74007210D01*
X145222325Y-73953839D01*
X145205141Y-73871270D01*
X145187872Y-73777085D01*
X145171212Y-73675523D01*
X145155856Y-73570824D01*
X145142497Y-73467227D01*
X145142102Y-73463906D01*
X145138188Y-73429360D01*
X145133622Y-73386570D01*
X145128679Y-73338375D01*
X145123630Y-73287613D01*
X145118748Y-73237123D01*
X145114305Y-73189744D01*
X145110576Y-73148316D01*
X145107831Y-73115676D01*
X145106344Y-73094664D01*
X145106157Y-73089644D01*
X145100469Y-73086077D01*
X145082601Y-73087018D01*
X145051286Y-73092576D01*
X145037384Y-73095530D01*
X145013560Y-73101064D01*
X144980320Y-73109234D01*
X144940338Y-73119336D01*
X144896290Y-73130665D01*
X144850850Y-73142518D01*
X144806696Y-73154192D01*
X144766500Y-73164982D01*
X144732940Y-73174184D01*
X144708689Y-73181096D01*
X144696424Y-73185012D01*
X144695510Y-73185468D01*
X144697497Y-73192992D01*
X144704400Y-73211523D01*
X144714865Y-73237485D01*
X144718259Y-73245621D01*
X144749965Y-73341114D01*
X144768042Y-73443208D01*
X144772485Y-73550350D01*
X144763287Y-73660991D01*
X144740444Y-73773581D01*
X144720407Y-73840767D01*
X144669640Y-73968675D01*
X144604874Y-74092186D01*
X144527552Y-74209404D01*
X144439119Y-74318434D01*
X144341020Y-74417381D01*
X144234699Y-74504350D01*
X144191629Y-74534405D01*
X144052256Y-74617618D01*
X143904127Y-74687645D01*
X143747355Y-74744467D01*
X143582052Y-74788063D01*
X143408329Y-74818415D01*
X143226300Y-74835503D01*
X143036077Y-74839309D01*
X142837771Y-74829812D01*
X142631496Y-74806993D01*
X142617718Y-74805035D01*
X142445689Y-74776165D01*
X142288323Y-74741234D01*
X142145608Y-74700239D01*
X142017535Y-74653176D01*
X141948574Y-74622437D01*
X141871257Y-74583437D01*
X141806124Y-74545978D01*
X141749908Y-74507947D01*
X141699345Y-74467229D01*
X141675973Y-74445968D01*
X141630157Y-74398586D01*
X141596826Y-74353788D01*
X141573765Y-74308174D01*
X141561689Y-74270659D01*
X141557356Y-74251921D01*
X141988114Y-74251921D01*
X141995085Y-74288101D01*
X142010875Y-74320992D01*
X142037269Y-74354585D01*
X142066829Y-74384277D01*
X142118675Y-74425554D01*
X142184419Y-74465469D01*
X142262096Y-74503359D01*
X142349745Y-74538560D01*
X142445401Y-74570411D01*
X142547103Y-74598249D01*
X142652888Y-74621410D01*
X142760792Y-74639232D01*
X142852956Y-74649710D01*
X142912485Y-74654426D01*
X142961848Y-74656767D01*
X143006578Y-74656743D01*
X143052203Y-74654365D01*
X143099080Y-74650172D01*
X143232172Y-74630317D01*
X143363600Y-74598392D01*
X143492099Y-74555285D01*
X143616406Y-74501884D01*
X143735255Y-74439077D01*
X143847382Y-74367752D01*
X143951522Y-74288796D01*
X144046412Y-74203097D01*
X144130785Y-74111543D01*
X144203378Y-74015021D01*
X144262927Y-73914420D01*
X144308166Y-73810628D01*
X144312460Y-73798332D01*
X144332660Y-73731745D01*
X144345416Y-73670148D01*
X144351892Y-73606372D01*
X144353329Y-73546359D01*
X144345321Y-73440091D01*
X144321668Y-73336459D01*
X144296454Y-73267000D01*
X144281719Y-73232134D01*
X144271284Y-73209732D01*
X144263207Y-73197663D01*
X144255548Y-73193795D01*
X144246368Y-73195994D01*
X144236271Y-73200865D01*
X144218124Y-73207884D01*
X144189525Y-73216714D01*
X144155543Y-73225834D01*
X144141718Y-73229191D01*
X143992290Y-73264357D01*
X143857226Y-73296303D01*
X143735417Y-73325348D01*
X143625750Y-73351811D01*
X143527115Y-73376011D01*
X143438402Y-73398267D01*
X143358498Y-73418896D01*
X143286294Y-73438219D01*
X143220679Y-73456554D01*
X143160541Y-73474219D01*
X143104770Y-73491534D01*
X143052255Y-73508816D01*
X143001885Y-73526386D01*
X142952549Y-73544562D01*
X142903135Y-73563663D01*
X142852535Y-73584006D01*
X142799635Y-73605912D01*
X142743326Y-73629699D01*
X142737675Y-73632104D01*
X142603852Y-73690976D01*
X142485023Y-73747306D01*
X142380572Y-73801447D01*
X142289883Y-73853754D01*
X142212341Y-73904580D01*
X142147332Y-73954278D01*
X142097812Y-73999560D01*
X142052262Y-74050286D01*
X142019973Y-74097901D01*
X141999476Y-74145205D01*
X141989299Y-74195001D01*
X141988177Y-74208463D01*
X141988114Y-74251921D01*
X141557356Y-74251921D01*
X141555349Y-74243244D01*
X141552898Y-74221394D01*
X141554311Y-74198610D01*
X141559567Y-74168395D01*
X141561299Y-74159798D01*
X141579651Y-74096298D01*
X141609229Y-74027038D01*
X141648213Y-73955307D01*
X141694786Y-73884394D01*
X141747129Y-73817587D01*
X141756451Y-73806896D01*
X141807873Y-73756085D01*
X141873127Y-73703478D01*
X141950438Y-73650173D01*
X142038030Y-73597267D01*
X142134125Y-73545858D01*
X142236948Y-73497043D01*
X142305582Y-73467621D01*
X142373074Y-73440793D01*
X142442758Y-73415011D01*
X142515840Y-73389959D01*
X142593521Y-73365321D01*
X142677008Y-73340781D01*
X142767503Y-73316022D01*
X142866211Y-73290726D01*
X142974336Y-73264579D01*
X143093083Y-73237263D01*
X143223654Y-73208462D01*
X143367255Y-73177859D01*
X143525090Y-73145138D01*
X143558312Y-73138344D01*
X143666775Y-73116036D01*
X143767765Y-73094919D01*
X143859983Y-73075277D01*
X143942133Y-73057392D01*
X144012916Y-73041549D01*
X144071035Y-73028030D01*
X144115192Y-73017119D01*
X144124209Y-73014750D01*
X144154325Y-73006699D01*
X144128240Y-72973365D01*
X144105503Y-72946426D01*
X144073308Y-72911196D01*
X144033997Y-72870002D01*
X143989909Y-72825175D01*
X143943386Y-72779043D01*
X143896769Y-72733937D01*
X143852397Y-72692184D01*
X143812613Y-72656116D01*
X143788500Y-72635289D01*
X143603732Y-72490124D01*
X143405772Y-72353567D01*
X143194842Y-72225737D01*
X142971165Y-72106754D01*
X142734962Y-71996739D01*
X142486458Y-71895809D01*
X142268468Y-71818171D01*
X142204612Y-71797075D01*
X142143783Y-71777628D01*
X142083728Y-71759202D01*
X142022192Y-71741169D01*
X141956921Y-71722903D01*
X141885661Y-71703773D01*
X141806158Y-71683154D01*
X141716158Y-71660416D01*
X141613406Y-71634932D01*
X141589812Y-71629127D01*
X141480804Y-71602177D01*
X141384975Y-71578095D01*
X141300017Y-71556244D01*
X141223627Y-71535988D01*
X141153498Y-71516690D01*
X141087325Y-71497715D01*
X141022803Y-71478425D01*
X140957625Y-71458184D01*
X140889487Y-71436357D01*
X140878466Y-71432775D01*
X140824028Y-71415244D01*
X140768071Y-71397553D01*
X140714762Y-71380997D01*
X140668270Y-71366871D01*
X140633343Y-71356634D01*
X140536105Y-71327898D01*
X140453483Y-71300808D01*
X140384382Y-71274739D01*
X140327708Y-71249063D01*
X140282365Y-71223155D01*
X140247259Y-71196389D01*
X140221294Y-71168138D01*
X140203375Y-71137776D01*
X140192408Y-71104678D01*
X140192366Y-71104490D01*
X140189293Y-71064166D01*
X140200442Y-71029592D01*
X140220475Y-71003928D01*
X140250204Y-70980204D01*
X140293927Y-70953915D01*
X140350097Y-70925736D01*
X140417167Y-70896343D01*
X140493591Y-70866410D01*
X140577821Y-70836615D01*
X140668312Y-70807631D01*
X140673834Y-70805955D01*
X140731619Y-70788922D01*
X140802626Y-70768741D01*
X140884645Y-70745987D01*
X140975465Y-70721237D01*
X141072877Y-70695069D01*
X141174671Y-70668060D01*
X141278637Y-70640785D01*
X141382565Y-70613823D01*
X141484245Y-70587751D01*
X141581468Y-70563144D01*
X141672022Y-70540580D01*
X141753699Y-70520637D01*
X141824289Y-70503890D01*
X141875562Y-70492237D01*
X142096209Y-70446443D01*
X142306665Y-70408832D01*
X142510117Y-70379033D01*
X142709748Y-70356679D01*
X142908745Y-70341401D01*
X143110292Y-70332831D01*
X143272562Y-70330562D01*
X143506718Y-70330034D01*
X143625781Y-70395526D01*
X143625781Y-70395526D01*
G37*
X143625781Y-70395526D02*
X143678434Y-70424793D01*
X143719432Y-70448469D01*
X143751237Y-70468221D01*
X143776312Y-70485719D01*
X143797120Y-70502630D01*
X143816123Y-70520624D01*
X143826887Y-70531787D01*
X143842248Y-70550174D01*
X143858604Y-70572913D01*
X143873554Y-70596174D01*
X143884701Y-70616130D01*
X143889643Y-70628952D01*
X143889260Y-70631322D01*
X143881215Y-70630370D01*
X143861209Y-70626152D01*
X143832638Y-70619416D01*
X143811627Y-70614182D01*
X143718252Y-70593474D01*
X143613734Y-70575641D01*
X143502661Y-70561399D01*
X143426333Y-70554178D01*
X143366176Y-70550695D01*
X143293871Y-70548745D01*
X143213064Y-70548258D01*
X143127400Y-70549160D01*
X143040524Y-70551381D01*
X142956082Y-70554848D01*
X142877720Y-70559490D01*
X142809082Y-70565236D01*
X142796312Y-70566569D01*
X142545744Y-70599933D01*
X142286662Y-70646462D01*
X142019335Y-70706095D01*
X141744030Y-70778771D01*
X141461014Y-70864429D01*
X141409691Y-70881084D01*
X141342196Y-70903512D01*
X141272564Y-70927205D01*
X141202403Y-70951567D01*
X141133323Y-70976004D01*
X141066935Y-70999921D01*
X141004846Y-71022721D01*
X140948668Y-71043810D01*
X140900009Y-71062593D01*
X140860479Y-71078474D01*
X140831688Y-71090859D01*
X140815245Y-71099152D01*
X140811937Y-71102127D01*
X140814755Y-71104310D01*
X140823698Y-71108303D01*
X140839501Y-71114348D01*
X140862896Y-71122685D01*
X140894619Y-71133557D01*
X140935404Y-71147205D01*
X140985984Y-71163870D01*
X141047094Y-71183794D01*
X141119467Y-71207218D01*
X141203838Y-71234383D01*
X141300940Y-71265532D01*
X141411509Y-71300905D01*
X141536277Y-71340743D01*
X141573937Y-71352757D01*
X141729342Y-71402465D01*
X141870842Y-71448047D01*
X141999735Y-71489948D01*
X142117318Y-71528618D01*
X142224887Y-71564503D01*
X142323741Y-71598050D01*
X142415177Y-71629707D01*
X142500490Y-71659922D01*
X142580980Y-71689142D01*
X142657942Y-71717814D01*
X142732674Y-71746386D01*
X142806474Y-71775305D01*
X142853978Y-71794267D01*
X143076854Y-71887607D01*
X143284730Y-71982599D01*
X143478440Y-72079766D01*
X143658819Y-72179632D01*
X143826701Y-72282719D01*
X143982921Y-72389551D01*
X144128314Y-72500651D01*
X144263715Y-72616543D01*
X144389957Y-72737749D01*
X144437023Y-72786716D01*
X144466834Y-72818822D01*
X144495262Y-72850116D01*
X144519149Y-72877082D01*
X144535338Y-72896203D01*
X144535720Y-72896679D01*
X144562406Y-72930014D01*
X144625906Y-72925951D01*
X144658058Y-72922287D01*
X144700267Y-72915198D01*
X144747339Y-72905661D01*
X144794078Y-72894656D01*
X144799694Y-72893211D01*
X144859647Y-72878753D01*
X144917071Y-72867014D01*
X144969306Y-72858387D01*
X145013692Y-72853268D01*
X145047569Y-72852050D01*
X145064682Y-72853983D01*
X145083953Y-72858820D01*
X145078833Y-72780363D01*
X145070619Y-72673435D01*
X145059994Y-72570586D01*
X145046417Y-72468284D01*
X145029344Y-72362994D01*
X145008235Y-72251184D01*
X144982548Y-72129318D01*
X144971279Y-72078775D01*
X144947692Y-71973941D01*
X144927482Y-71883172D01*
X144910355Y-71805089D01*
X144896016Y-71738311D01*
X144884172Y-71681459D01*
X144874529Y-71633153D01*
X144866792Y-71592014D01*
X144863287Y-71572199D01*
X144856627Y-71533789D01*
X144853836Y-71507839D01*
X144857024Y-71491031D01*
X144868304Y-71480046D01*
X144889787Y-71471566D01*
X144923586Y-71462275D01*
X144935235Y-71459159D01*
X145010263Y-71445390D01*
X145080230Y-71445656D01*
X145144200Y-71459791D01*
X145201234Y-71487628D01*
X145233458Y-71512371D01*
X145267009Y-71546775D01*
X145297432Y-71587339D01*
X145324979Y-71635008D01*
X145349900Y-71690729D01*
X145372446Y-71755448D01*
X145392868Y-71830111D01*
X145411418Y-71915664D01*
X145428345Y-72013054D01*
X145443901Y-72123225D01*
X145458337Y-72247124D01*
X145471904Y-72385698D01*
X145475307Y-72424093D01*
X145480859Y-72487048D01*
X145486350Y-72547611D01*
X145491535Y-72603203D01*
X145496168Y-72651246D01*
X145500004Y-72689162D01*
X145502799Y-72714374D01*
X145503226Y-72717781D01*
X145506903Y-72747875D01*
X145509586Y-72773246D01*
X145510692Y-72788332D01*
X145511571Y-72793801D01*
X145515490Y-72797626D01*
X145524681Y-72799982D01*
X145541374Y-72801042D01*
X145567804Y-72800980D01*
X145606202Y-72799969D01*
X145643890Y-72798705D01*
X145771231Y-72790278D01*
X145896233Y-72774409D01*
X145903843Y-72773173D01*
X145989479Y-72760972D01*
X146074533Y-72753055D01*
X146166836Y-72748706D01*
X146173718Y-72748518D01*
X146316593Y-72744780D01*
X146315995Y-72675718D01*
X146315228Y-72650228D01*
X146313092Y-72624423D01*
X146309159Y-72596543D01*
X146303001Y-72564825D01*
X146294192Y-72527509D01*
X146282303Y-72482835D01*
X146266907Y-72429042D01*
X146247577Y-72364368D01*
X146223885Y-72287053D01*
X146213477Y-72253437D01*
X146178890Y-72139415D01*
X146150148Y-72039034D01*
X146126995Y-71951281D01*
X146109172Y-71875141D01*
X146096422Y-71809602D01*
X146090415Y-71769787D01*
X146084675Y-71692287D01*
X146089032Y-71626633D01*
X146103435Y-71572946D01*
X146127837Y-71531346D01*
X146162187Y-71501953D01*
X146206436Y-71484888D01*
X146207496Y-71484657D01*
X146255552Y-71480721D01*
X146301216Y-71490377D01*
X146344975Y-71514029D01*
X146387314Y-71552080D01*
X146428718Y-71604937D01*
X146469674Y-71673002D01*
X146495836Y-71724650D01*
X146526550Y-71794357D01*
X146556201Y-71872979D01*
X146585151Y-71961751D01*
X146613762Y-72061910D01*
X146642396Y-72174693D01*
X146671416Y-72301335D01*
X146689337Y-72385321D01*
X146700742Y-72440001D01*
X146711899Y-72493319D01*
X146722110Y-72541965D01*
X146730681Y-72582626D01*
X146736916Y-72611991D01*
X146738159Y-72617787D01*
X146750808Y-72676542D01*
X146891962Y-72671243D01*
X146972458Y-72667433D01*
X147052046Y-72661945D01*
X147132566Y-72654512D01*
X147215860Y-72644861D01*
X147303767Y-72632725D01*
X147398129Y-72617832D01*
X147500785Y-72599913D01*
X147613578Y-72578699D01*
X147738346Y-72553918D01*
X147852500Y-72530411D01*
X147985014Y-72503216D01*
X148103451Y-72479855D01*
X148207584Y-72460368D01*
X148297183Y-72444794D01*
X148372019Y-72433176D01*
X148431863Y-72425552D01*
X148458526Y-72423060D01*
X148525012Y-72417950D01*
X148530089Y-72445010D01*
X148530283Y-72478086D01*
X148520917Y-72522229D01*
X148502312Y-72576082D01*
X148494627Y-72594750D01*
X148484484Y-72618392D01*
X148477081Y-72635326D01*
X148474385Y-72641157D01*
X148465954Y-72643360D01*
X148443058Y-72647296D01*
X148406995Y-72652800D01*
X148359062Y-72659705D01*
X148300554Y-72667845D01*
X148232769Y-72677054D01*
X148157003Y-72687166D01*
X148074553Y-72698013D01*
X147986716Y-72709429D01*
X147894788Y-72721249D01*
X147800066Y-72733305D01*
X147703846Y-72745432D01*
X147607426Y-72757463D01*
X147512102Y-72769232D01*
X147419171Y-72780571D01*
X147329929Y-72791316D01*
X147245674Y-72801300D01*
X147167701Y-72810355D01*
X147097307Y-72818317D01*
X147070750Y-72821247D01*
X147008130Y-72828154D01*
X146950744Y-72834597D01*
X146900445Y-72840359D01*
X146859091Y-72845222D01*
X146828536Y-72848969D01*
X146810635Y-72851383D01*
X146806635Y-72852156D01*
X146808309Y-72860025D01*
X146814327Y-72880567D01*
X146823949Y-72911416D01*
X146836438Y-72950206D01*
X146851054Y-72994571D01*
X146851679Y-72996448D01*
X146871259Y-73056689D01*
X146890060Y-73117807D01*
X146908571Y-73181691D01*
X146927285Y-73250229D01*
X146946691Y-73325308D01*
X146967281Y-73408817D01*
X146989544Y-73502644D01*
X147013973Y-73608678D01*
X147035050Y-73701982D01*
X147055698Y-73793792D01*
X147073464Y-73872156D01*
X147088851Y-73939137D01*
X147102364Y-73996800D01*
X147114507Y-74047208D01*
X147125786Y-74092424D01*
X147136703Y-74134511D01*
X147147765Y-74175534D01*
X147159476Y-74217555D01*
X147170906Y-74257656D01*
X147190699Y-74324288D01*
X147208707Y-74379184D01*
X147226450Y-74426136D01*
X147245442Y-74468935D01*
X147267200Y-74511375D01*
X147285181Y-74543406D01*
X147319182Y-74603616D01*
X147345405Y-74653218D01*
X147365029Y-74694710D01*
X147379236Y-74730589D01*
X147389205Y-74763352D01*
X147389308Y-74763750D01*
X147396700Y-74806826D01*
X147397841Y-74850256D01*
X147393303Y-74890751D01*
X147383663Y-74925025D01*
X147369492Y-74949791D01*
X147354915Y-74960691D01*
X147323034Y-74966817D01*
X147282732Y-74965740D01*
X147239601Y-74957714D01*
X147230320Y-74955051D01*
X147193959Y-74937260D01*
X147156408Y-74907248D01*
X147120798Y-74868070D01*
X147090258Y-74822783D01*
X147084996Y-74813188D01*
X147072177Y-74786949D01*
X147055803Y-74750643D01*
X147037967Y-74709038D01*
X147020763Y-74666905D01*
X147020540Y-74666344D01*
X147003386Y-74623617D01*
X146982170Y-74571599D01*
X146959073Y-74515596D01*
X146936278Y-74460914D01*
X146925595Y-74435534D01*
X146885368Y-74337662D01*
X146841380Y-74225500D01*
X146793544Y-74098819D01*
X146741777Y-73957394D01*
X146685994Y-73800997D01*
X146653466Y-73708217D01*
X146609775Y-73582977D01*
X146570939Y-73471832D01*
X146536633Y-73373867D01*
X146506538Y-73288170D01*
X146480330Y-73213827D01*
X146457687Y-73149925D01*
X146438287Y-73095550D01*
X146421808Y-73049789D01*
X146407927Y-73011730D01*
X146404907Y-73003531D01*
X146369737Y-72908281D01*
X146331259Y-72909618D01*
X146312284Y-72910934D01*
X146279728Y-72913921D01*
X146235771Y-72918334D01*
X146182589Y-72923924D01*
X146122362Y-72930445D01*
X146057267Y-72937650D01*
X145989484Y-72945293D01*
X145921189Y-72953127D01*
X145854562Y-72960904D01*
X145791781Y-72968378D01*
X145735023Y-72975302D01*
X145686468Y-72981429D01*
X145648293Y-72986513D01*
X145631984Y-72988854D01*
X145542687Y-73002223D01*
X145542687Y-73047342D01*
X145544066Y-73070121D01*
X145547886Y-73104904D01*
X145553672Y-73148092D01*
X145560951Y-73196086D01*
X145567356Y-73234528D01*
X145579153Y-73307899D01*
X145587133Y-73371684D01*
X145591885Y-73431545D01*
X145593952Y-73490218D01*
X145595120Y-73537827D01*
X145596927Y-73571923D01*
X145599638Y-73594867D01*
X145603515Y-73609015D01*
X145607982Y-73615946D01*
X145618843Y-73624737D01*
X145640070Y-73640295D01*
X145668817Y-73660587D01*
X145702239Y-73683580D01*
X145710042Y-73688870D01*
X145757967Y-73722983D01*
X145793599Y-73752992D01*
X145819038Y-73781497D01*
X145836382Y-73811094D01*
X145847730Y-73844383D01*
X145852093Y-73864750D01*
X145856772Y-73922621D01*
X145848130Y-73971885D01*
X145826171Y-74012523D01*
X145816502Y-74023529D01*
X145785272Y-74051242D01*
X145752235Y-74070655D01*
X145713897Y-74082929D01*
X145666767Y-74089223D01*
X145614125Y-74090734D01*
X145566818Y-74089622D01*
X145523485Y-74086066D01*
X145480331Y-74079343D01*
X145433563Y-74068735D01*
X145379389Y-74053519D01*
X145319540Y-74034766D01*
X145234303Y-74007210D01*
X145222325Y-73953839D01*
X145205141Y-73871270D01*
X145187872Y-73777085D01*
X145171212Y-73675523D01*
X145155856Y-73570824D01*
X145142497Y-73467227D01*
X145142102Y-73463906D01*
X145138188Y-73429360D01*
X145133622Y-73386570D01*
X145128679Y-73338375D01*
X145123630Y-73287613D01*
X145118748Y-73237123D01*
X145114305Y-73189744D01*
X145110576Y-73148316D01*
X145107831Y-73115676D01*
X145106344Y-73094664D01*
X145106157Y-73089644D01*
X145100469Y-73086077D01*
X145082601Y-73087018D01*
X145051286Y-73092576D01*
X145037384Y-73095530D01*
X145013560Y-73101064D01*
X144980320Y-73109234D01*
X144940338Y-73119336D01*
X144896290Y-73130665D01*
X144850850Y-73142518D01*
X144806696Y-73154192D01*
X144766500Y-73164982D01*
X144732940Y-73174184D01*
X144708689Y-73181096D01*
X144696424Y-73185012D01*
X144695510Y-73185468D01*
X144697497Y-73192992D01*
X144704400Y-73211523D01*
X144714865Y-73237485D01*
X144718259Y-73245621D01*
X144749965Y-73341114D01*
X144768042Y-73443208D01*
X144772485Y-73550350D01*
X144763287Y-73660991D01*
X144740444Y-73773581D01*
X144720407Y-73840767D01*
X144669640Y-73968675D01*
X144604874Y-74092186D01*
X144527552Y-74209404D01*
X144439119Y-74318434D01*
X144341020Y-74417381D01*
X144234699Y-74504350D01*
X144191629Y-74534405D01*
X144052256Y-74617618D01*
X143904127Y-74687645D01*
X143747355Y-74744467D01*
X143582052Y-74788063D01*
X143408329Y-74818415D01*
X143226300Y-74835503D01*
X143036077Y-74839309D01*
X142837771Y-74829812D01*
X142631496Y-74806993D01*
X142617718Y-74805035D01*
X142445689Y-74776165D01*
X142288323Y-74741234D01*
X142145608Y-74700239D01*
X142017535Y-74653176D01*
X141948574Y-74622437D01*
X141871257Y-74583437D01*
X141806124Y-74545978D01*
X141749908Y-74507947D01*
X141699345Y-74467229D01*
X141675973Y-74445968D01*
X141630157Y-74398586D01*
X141596826Y-74353788D01*
X141573765Y-74308174D01*
X141561689Y-74270659D01*
X141557356Y-74251921D01*
X141988114Y-74251921D01*
X141995085Y-74288101D01*
X142010875Y-74320992D01*
X142037269Y-74354585D01*
X142066829Y-74384277D01*
X142118675Y-74425554D01*
X142184419Y-74465469D01*
X142262096Y-74503359D01*
X142349745Y-74538560D01*
X142445401Y-74570411D01*
X142547103Y-74598249D01*
X142652888Y-74621410D01*
X142760792Y-74639232D01*
X142852956Y-74649710D01*
X142912485Y-74654426D01*
X142961848Y-74656767D01*
X143006578Y-74656743D01*
X143052203Y-74654365D01*
X143099080Y-74650172D01*
X143232172Y-74630317D01*
X143363600Y-74598392D01*
X143492099Y-74555285D01*
X143616406Y-74501884D01*
X143735255Y-74439077D01*
X143847382Y-74367752D01*
X143951522Y-74288796D01*
X144046412Y-74203097D01*
X144130785Y-74111543D01*
X144203378Y-74015021D01*
X144262927Y-73914420D01*
X144308166Y-73810628D01*
X144312460Y-73798332D01*
X144332660Y-73731745D01*
X144345416Y-73670148D01*
X144351892Y-73606372D01*
X144353329Y-73546359D01*
X144345321Y-73440091D01*
X144321668Y-73336459D01*
X144296454Y-73267000D01*
X144281719Y-73232134D01*
X144271284Y-73209732D01*
X144263207Y-73197663D01*
X144255548Y-73193795D01*
X144246368Y-73195994D01*
X144236271Y-73200865D01*
X144218124Y-73207884D01*
X144189525Y-73216714D01*
X144155543Y-73225834D01*
X144141718Y-73229191D01*
X143992290Y-73264357D01*
X143857226Y-73296303D01*
X143735417Y-73325348D01*
X143625750Y-73351811D01*
X143527115Y-73376011D01*
X143438402Y-73398267D01*
X143358498Y-73418896D01*
X143286294Y-73438219D01*
X143220679Y-73456554D01*
X143160541Y-73474219D01*
X143104770Y-73491534D01*
X143052255Y-73508816D01*
X143001885Y-73526386D01*
X142952549Y-73544562D01*
X142903135Y-73563663D01*
X142852535Y-73584006D01*
X142799635Y-73605912D01*
X142743326Y-73629699D01*
X142737675Y-73632104D01*
X142603852Y-73690976D01*
X142485023Y-73747306D01*
X142380572Y-73801447D01*
X142289883Y-73853754D01*
X142212341Y-73904580D01*
X142147332Y-73954278D01*
X142097812Y-73999560D01*
X142052262Y-74050286D01*
X142019973Y-74097901D01*
X141999476Y-74145205D01*
X141989299Y-74195001D01*
X141988177Y-74208463D01*
X141988114Y-74251921D01*
X141557356Y-74251921D01*
X141555349Y-74243244D01*
X141552898Y-74221394D01*
X141554311Y-74198610D01*
X141559567Y-74168395D01*
X141561299Y-74159798D01*
X141579651Y-74096298D01*
X141609229Y-74027038D01*
X141648213Y-73955307D01*
X141694786Y-73884394D01*
X141747129Y-73817587D01*
X141756451Y-73806896D01*
X141807873Y-73756085D01*
X141873127Y-73703478D01*
X141950438Y-73650173D01*
X142038030Y-73597267D01*
X142134125Y-73545858D01*
X142236948Y-73497043D01*
X142305582Y-73467621D01*
X142373074Y-73440793D01*
X142442758Y-73415011D01*
X142515840Y-73389959D01*
X142593521Y-73365321D01*
X142677008Y-73340781D01*
X142767503Y-73316022D01*
X142866211Y-73290726D01*
X142974336Y-73264579D01*
X143093083Y-73237263D01*
X143223654Y-73208462D01*
X143367255Y-73177859D01*
X143525090Y-73145138D01*
X143558312Y-73138344D01*
X143666775Y-73116036D01*
X143767765Y-73094919D01*
X143859983Y-73075277D01*
X143942133Y-73057392D01*
X144012916Y-73041549D01*
X144071035Y-73028030D01*
X144115192Y-73017119D01*
X144124209Y-73014750D01*
X144154325Y-73006699D01*
X144128240Y-72973365D01*
X144105503Y-72946426D01*
X144073308Y-72911196D01*
X144033997Y-72870002D01*
X143989909Y-72825175D01*
X143943386Y-72779043D01*
X143896769Y-72733937D01*
X143852397Y-72692184D01*
X143812613Y-72656116D01*
X143788500Y-72635289D01*
X143603732Y-72490124D01*
X143405772Y-72353567D01*
X143194842Y-72225737D01*
X142971165Y-72106754D01*
X142734962Y-71996739D01*
X142486458Y-71895809D01*
X142268468Y-71818171D01*
X142204612Y-71797075D01*
X142143783Y-71777628D01*
X142083728Y-71759202D01*
X142022192Y-71741169D01*
X141956921Y-71722903D01*
X141885661Y-71703773D01*
X141806158Y-71683154D01*
X141716158Y-71660416D01*
X141613406Y-71634932D01*
X141589812Y-71629127D01*
X141480804Y-71602177D01*
X141384975Y-71578095D01*
X141300017Y-71556244D01*
X141223627Y-71535988D01*
X141153498Y-71516690D01*
X141087325Y-71497715D01*
X141022803Y-71478425D01*
X140957625Y-71458184D01*
X140889487Y-71436357D01*
X140878466Y-71432775D01*
X140824028Y-71415244D01*
X140768071Y-71397553D01*
X140714762Y-71380997D01*
X140668270Y-71366871D01*
X140633343Y-71356634D01*
X140536105Y-71327898D01*
X140453483Y-71300808D01*
X140384382Y-71274739D01*
X140327708Y-71249063D01*
X140282365Y-71223155D01*
X140247259Y-71196389D01*
X140221294Y-71168138D01*
X140203375Y-71137776D01*
X140192408Y-71104678D01*
X140192366Y-71104490D01*
X140189293Y-71064166D01*
X140200442Y-71029592D01*
X140220475Y-71003928D01*
X140250204Y-70980204D01*
X140293927Y-70953915D01*
X140350097Y-70925736D01*
X140417167Y-70896343D01*
X140493591Y-70866410D01*
X140577821Y-70836615D01*
X140668312Y-70807631D01*
X140673834Y-70805955D01*
X140731619Y-70788922D01*
X140802626Y-70768741D01*
X140884645Y-70745987D01*
X140975465Y-70721237D01*
X141072877Y-70695069D01*
X141174671Y-70668060D01*
X141278637Y-70640785D01*
X141382565Y-70613823D01*
X141484245Y-70587751D01*
X141581468Y-70563144D01*
X141672022Y-70540580D01*
X141753699Y-70520637D01*
X141824289Y-70503890D01*
X141875562Y-70492237D01*
X142096209Y-70446443D01*
X142306665Y-70408832D01*
X142510117Y-70379033D01*
X142709748Y-70356679D01*
X142908745Y-70341401D01*
X143110292Y-70332831D01*
X143272562Y-70330562D01*
X143506718Y-70330034D01*
X143625781Y-70395526D01*
G36*
X157873612Y-103453119D02*
X157877244Y-103456938D01*
X157883235Y-103482344D01*
X157885514Y-103529720D01*
X157883677Y-103589418D01*
X157883129Y-103597384D01*
X157857616Y-103732992D01*
X157802664Y-103860563D01*
X157720192Y-103977290D01*
X157612118Y-104080368D01*
X157502110Y-104154839D01*
X157375651Y-104218425D01*
X157247434Y-104265908D01*
X157123201Y-104296036D01*
X157008696Y-104307560D01*
X156909661Y-104299227D01*
X156877918Y-104290805D01*
X156819927Y-104267681D01*
X156763315Y-104239047D01*
X156755406Y-104234323D01*
X156723274Y-104209926D01*
X156680077Y-104171163D01*
X156631353Y-104123785D01*
X156582637Y-104073539D01*
X156539467Y-104026175D01*
X156507381Y-103987441D01*
X156491913Y-103963087D01*
X156491289Y-103960093D01*
X156492750Y-103952675D01*
X156501028Y-103953014D01*
X156521966Y-103963741D01*
X156561406Y-103987490D01*
X156586658Y-104003073D01*
X156634304Y-104028612D01*
X156694867Y-104056040D01*
X156729712Y-104069862D01*
X156852583Y-104104784D01*
X156969964Y-104115243D01*
X157084254Y-104100297D01*
X157197854Y-104059006D01*
X157313165Y-103990429D01*
X157432587Y-103893624D01*
X157558521Y-103767651D01*
X157590412Y-103732490D01*
X157673693Y-103639517D01*
X157738593Y-103568178D01*
X157787576Y-103516104D01*
X157823104Y-103480928D01*
X157847644Y-103460284D01*
X157863658Y-103451803D01*
X157873612Y-103453119D01*
X157873612Y-103453119D01*
G37*
X157873612Y-103453119D02*
X157877244Y-103456938D01*
X157883235Y-103482344D01*
X157885514Y-103529720D01*
X157883677Y-103589418D01*
X157883129Y-103597384D01*
X157857616Y-103732992D01*
X157802664Y-103860563D01*
X157720192Y-103977290D01*
X157612118Y-104080368D01*
X157502110Y-104154839D01*
X157375651Y-104218425D01*
X157247434Y-104265908D01*
X157123201Y-104296036D01*
X157008696Y-104307560D01*
X156909661Y-104299227D01*
X156877918Y-104290805D01*
X156819927Y-104267681D01*
X156763315Y-104239047D01*
X156755406Y-104234323D01*
X156723274Y-104209926D01*
X156680077Y-104171163D01*
X156631353Y-104123785D01*
X156582637Y-104073539D01*
X156539467Y-104026175D01*
X156507381Y-103987441D01*
X156491913Y-103963087D01*
X156491289Y-103960093D01*
X156492750Y-103952675D01*
X156501028Y-103953014D01*
X156521966Y-103963741D01*
X156561406Y-103987490D01*
X156586658Y-104003073D01*
X156634304Y-104028612D01*
X156694867Y-104056040D01*
X156729712Y-104069862D01*
X156852583Y-104104784D01*
X156969964Y-104115243D01*
X157084254Y-104100297D01*
X157197854Y-104059006D01*
X157313165Y-103990429D01*
X157432587Y-103893624D01*
X157558521Y-103767651D01*
X157590412Y-103732490D01*
X157673693Y-103639517D01*
X157738593Y-103568178D01*
X157787576Y-103516104D01*
X157823104Y-103480928D01*
X157847644Y-103460284D01*
X157863658Y-103451803D01*
X157873612Y-103453119D01*
G36*
X159994635Y-100260013D02*
X160013313Y-100272014D01*
X160013590Y-100272215D01*
X160040740Y-100297152D01*
X160051240Y-100316141D01*
X160042718Y-100334896D01*
X160019081Y-100373941D01*
X159983822Y-100427790D01*
X159940435Y-100490957D01*
X159934783Y-100498997D01*
X159898466Y-100549490D01*
X159860937Y-100599190D01*
X159819860Y-100650726D01*
X159772897Y-100706725D01*
X159717710Y-100769816D01*
X159651962Y-100842626D01*
X159573316Y-100927782D01*
X159479435Y-101027914D01*
X159367980Y-101145648D01*
X159240975Y-101279044D01*
X159117102Y-101409513D01*
X159012356Y-101521498D01*
X158923407Y-101619018D01*
X158846928Y-101706091D01*
X158779591Y-101786737D01*
X158718067Y-101864974D01*
X158659029Y-101944822D01*
X158599148Y-102030299D01*
X158535096Y-102125425D01*
X158515224Y-102155453D01*
X158440819Y-102266595D01*
X158379969Y-102353181D01*
X158330063Y-102418024D01*
X158288488Y-102463941D01*
X158252631Y-102493746D01*
X158219880Y-102510252D01*
X158187623Y-102516275D01*
X158180119Y-102516473D01*
X158152209Y-102510402D01*
X158144355Y-102500285D01*
X158151935Y-102475473D01*
X158172682Y-102429006D01*
X158203604Y-102366609D01*
X158241712Y-102294006D01*
X158284013Y-102216918D01*
X158327518Y-102141071D01*
X158361886Y-102083988D01*
X158431112Y-101975843D01*
X158504756Y-101868748D01*
X158585089Y-101760015D01*
X158674382Y-101646960D01*
X158774909Y-101526897D01*
X158888939Y-101397138D01*
X159018745Y-101254997D01*
X159166598Y-101097790D01*
X159334770Y-100922829D01*
X159404448Y-100851158D01*
X159500221Y-100752632D01*
X159592842Y-100656834D01*
X159678967Y-100567259D01*
X159755253Y-100487402D01*
X159818359Y-100420760D01*
X159864942Y-100370827D01*
X159886247Y-100347328D01*
X159930121Y-100298286D01*
X159958902Y-100269691D01*
X159978453Y-100258086D01*
X159994635Y-100260013D01*
X159994635Y-100260013D01*
G37*
X159994635Y-100260013D02*
X160013313Y-100272014D01*
X160013590Y-100272215D01*
X160040740Y-100297152D01*
X160051240Y-100316141D01*
X160042718Y-100334896D01*
X160019081Y-100373941D01*
X159983822Y-100427790D01*
X159940435Y-100490957D01*
X159934783Y-100498997D01*
X159898466Y-100549490D01*
X159860937Y-100599190D01*
X159819860Y-100650726D01*
X159772897Y-100706725D01*
X159717710Y-100769816D01*
X159651962Y-100842626D01*
X159573316Y-100927782D01*
X159479435Y-101027914D01*
X159367980Y-101145648D01*
X159240975Y-101279044D01*
X159117102Y-101409513D01*
X159012356Y-101521498D01*
X158923407Y-101619018D01*
X158846928Y-101706091D01*
X158779591Y-101786737D01*
X158718067Y-101864974D01*
X158659029Y-101944822D01*
X158599148Y-102030299D01*
X158535096Y-102125425D01*
X158515224Y-102155453D01*
X158440819Y-102266595D01*
X158379969Y-102353181D01*
X158330063Y-102418024D01*
X158288488Y-102463941D01*
X158252631Y-102493746D01*
X158219880Y-102510252D01*
X158187623Y-102516275D01*
X158180119Y-102516473D01*
X158152209Y-102510402D01*
X158144355Y-102500285D01*
X158151935Y-102475473D01*
X158172682Y-102429006D01*
X158203604Y-102366609D01*
X158241712Y-102294006D01*
X158284013Y-102216918D01*
X158327518Y-102141071D01*
X158361886Y-102083988D01*
X158431112Y-101975843D01*
X158504756Y-101868748D01*
X158585089Y-101760015D01*
X158674382Y-101646960D01*
X158774909Y-101526897D01*
X158888939Y-101397138D01*
X159018745Y-101254997D01*
X159166598Y-101097790D01*
X159334770Y-100922829D01*
X159404448Y-100851158D01*
X159500221Y-100752632D01*
X159592842Y-100656834D01*
X159678967Y-100567259D01*
X159755253Y-100487402D01*
X159818359Y-100420760D01*
X159864942Y-100370827D01*
X159886247Y-100347328D01*
X159930121Y-100298286D01*
X159958902Y-100269691D01*
X159978453Y-100258086D01*
X159994635Y-100260013D01*
D12*
X150000000Y-79000000D03*
D13*
X150000000Y-81540000D03*
X150000000Y-84080000D03*
X150000000Y-86620000D03*
X150000000Y-89160000D03*
D12*
X162700000Y-79000000D03*
D13*
X162700000Y-81540000D03*
X162700000Y-84080000D03*
X162700000Y-86620000D03*
X162700000Y-89160000D03*
D14*
X129519994Y-85975000D03*
X127444997Y-87150003D03*
X130144994Y-89400003D03*
X119370000Y-101350000D03*
X117844999Y-99600000D03*
D15*
X121380000Y-72120000D03*
D16*
X121380000Y-70850000D03*
X122650000Y-72120000D03*
X122650000Y-70850000D03*
X123920000Y-72120000D03*
X123920000Y-70850000D03*
X125190000Y-72120000D03*
X125190000Y-70850000D03*
X126460000Y-72120000D03*
X126460000Y-70850000D03*
D17*
X115414997Y-120250000D03*
X115414997Y-115750000D03*
X123364997Y-115750000D03*
X123364997Y-120250000D03*
X130414997Y-120250000D03*
X130414997Y-115750000D03*
X138364997Y-115750000D03*
X138364997Y-120250000D03*
X145414997Y-120250000D03*
X145414997Y-115750000D03*
X153364997Y-115750000D03*
X153364997Y-120250000D03*
M02*
