G04 #@! TF.FileFunction,Copper,L1,Top,Signal*
%FSLAX46Y46*%
G04 Gerber Fmt 4.6, Leading zero omitted, Abs format (unit mm)*
G04 Created by KiCad (PCBNEW 4.0.4-stable) date 07/06/18 21:54:16*
%MOMM*%
%LPD*%
G01*
G04 APERTURE LIST*
%ADD10C,0.100000*%
%ADD11C,0.010000*%
%ADD12R,1.700000X1.700000*%
%ADD13O,1.700000X1.700000*%
%ADD14C,2.000000*%
%ADD15R,1.000000X1.000000*%
%ADD16O,1.000000X1.000000*%
%ADD17R,1.550000X1.300000*%
%ADD18C,0.400000*%
%ADD19C,0.254000*%
G04 APERTURE END LIST*
D10*
D11*
G36*
X143393354Y-70328845D02*
X143411121Y-70329593D01*
X143513960Y-70334978D01*
X143620459Y-70392222D01*
X143685229Y-70428127D01*
X143737239Y-70459586D01*
X143778478Y-70488020D01*
X143810938Y-70514849D01*
X143836611Y-70541492D01*
X143845859Y-70552984D01*
X143865414Y-70580729D01*
X143879395Y-70604702D01*
X143886732Y-70622497D01*
X143886355Y-70631707D01*
X143880864Y-70631732D01*
X143863572Y-70626594D01*
X143834133Y-70619384D01*
X143796026Y-70610828D01*
X143752732Y-70601654D01*
X143707730Y-70592586D01*
X143664499Y-70584353D01*
X143626520Y-70577681D01*
X143608211Y-70574804D01*
X143429531Y-70555070D01*
X143240275Y-70546819D01*
X143040783Y-70550006D01*
X142831397Y-70564590D01*
X142612457Y-70590526D01*
X142384303Y-70627772D01*
X142147277Y-70676283D01*
X141901719Y-70736018D01*
X141647969Y-70806932D01*
X141553606Y-70835522D01*
X141488404Y-70856058D01*
X141419149Y-70878558D01*
X141347341Y-70902477D01*
X141274485Y-70927268D01*
X141202082Y-70952387D01*
X141131636Y-70977288D01*
X141064648Y-71001425D01*
X141002622Y-71024253D01*
X140947059Y-71045227D01*
X140899463Y-71063802D01*
X140861336Y-71079431D01*
X140834180Y-71091570D01*
X140819498Y-71099672D01*
X140817521Y-71102726D01*
X140827007Y-71106965D01*
X140850491Y-71115614D01*
X140886832Y-71128296D01*
X140934891Y-71144638D01*
X140993528Y-71164263D01*
X141061604Y-71186797D01*
X141137979Y-71211863D01*
X141221514Y-71239088D01*
X141311068Y-71268096D01*
X141405502Y-71298511D01*
X141503677Y-71329958D01*
X141604453Y-71362063D01*
X141625314Y-71368687D01*
X141812031Y-71428304D01*
X141984568Y-71484203D01*
X142144067Y-71536812D01*
X142291672Y-71586561D01*
X142428525Y-71633880D01*
X142555769Y-71679199D01*
X142674547Y-71722946D01*
X142786003Y-71765552D01*
X142891279Y-71807446D01*
X142991517Y-71849059D01*
X143087862Y-71890818D01*
X143181455Y-71933155D01*
X143273440Y-71976499D01*
X143364960Y-72021278D01*
X143375750Y-72026661D01*
X143585516Y-72137475D01*
X143780157Y-72252671D01*
X143959833Y-72372354D01*
X144124706Y-72496628D01*
X144209187Y-72567019D01*
X144256801Y-72609580D01*
X144309143Y-72658761D01*
X144363055Y-72711401D01*
X144415374Y-72764342D01*
X144462943Y-72814423D01*
X144502599Y-72858485D01*
X144513577Y-72871365D01*
X144562406Y-72929699D01*
X144625906Y-72925586D01*
X144658368Y-72921863D01*
X144700745Y-72914699D01*
X144747712Y-72905098D01*
X144793945Y-72894068D01*
X144797109Y-72893244D01*
X144842555Y-72882226D01*
X144890320Y-72872176D01*
X144937553Y-72863529D01*
X144981401Y-72856717D01*
X145019012Y-72852173D01*
X145047535Y-72850332D01*
X145064116Y-72851625D01*
X145065933Y-72852407D01*
X145072677Y-72854011D01*
X145077064Y-72847851D01*
X145079212Y-72832235D01*
X145079239Y-72805469D01*
X145077264Y-72765859D01*
X145074626Y-72727874D01*
X145069010Y-72658729D01*
X145062531Y-72592745D01*
X145054828Y-72527812D01*
X145045543Y-72461822D01*
X145034317Y-72392665D01*
X145020791Y-72318233D01*
X145004606Y-72236417D01*
X144985402Y-72145107D01*
X144962822Y-72042194D01*
X144942608Y-71952401D01*
X144924926Y-71873462D01*
X144908381Y-71797568D01*
X144893316Y-71726438D01*
X144880075Y-71661791D01*
X144869001Y-71605344D01*
X144860437Y-71558816D01*
X144854727Y-71523924D01*
X144852214Y-71502388D01*
X144852125Y-71499575D01*
X144859626Y-71487259D01*
X144880406Y-71475213D01*
X144911876Y-71464227D01*
X144951448Y-71455093D01*
X144996533Y-71448600D01*
X145026750Y-71446215D01*
X145085432Y-71446128D01*
X145133691Y-71453847D01*
X145175685Y-71470899D01*
X145215570Y-71498810D01*
X145245292Y-71526461D01*
X145276455Y-71561234D01*
X145304540Y-71600093D01*
X145329827Y-71644135D01*
X145352598Y-71694455D01*
X145373135Y-71752146D01*
X145391719Y-71818305D01*
X145408630Y-71894026D01*
X145424152Y-71980404D01*
X145438564Y-72078534D01*
X145452149Y-72189511D01*
X145465188Y-72314430D01*
X145474973Y-72420125D01*
X145480638Y-72483214D01*
X145486385Y-72545431D01*
X145491922Y-72603768D01*
X145496962Y-72655220D01*
X145501214Y-72696778D01*
X145504312Y-72724792D01*
X145513650Y-72803241D01*
X145645247Y-72798665D01*
X145776597Y-72789752D01*
X145903843Y-72773039D01*
X145983622Y-72761431D01*
X146061567Y-72753738D01*
X146145264Y-72749267D01*
X146173718Y-72748423D01*
X146316593Y-72744859D01*
X146315679Y-72675757D01*
X146314897Y-72650528D01*
X146312940Y-72625681D01*
X146309363Y-72599348D01*
X146303720Y-72569659D01*
X146295563Y-72534747D01*
X146284447Y-72492743D01*
X146269926Y-72441779D01*
X146251552Y-72379986D01*
X146228880Y-72305495D01*
X146221427Y-72281218D01*
X146197093Y-72201846D01*
X146176957Y-72135576D01*
X146160449Y-72080366D01*
X146146997Y-72034176D01*
X146136031Y-71994965D01*
X146126981Y-71960693D01*
X146119275Y-71929319D01*
X146112345Y-71898803D01*
X146105618Y-71867103D01*
X146105542Y-71866735D01*
X146096465Y-71813287D01*
X146090367Y-71757340D01*
X146087359Y-71702568D01*
X146087551Y-71652646D01*
X146091055Y-71611251D01*
X146097066Y-71584501D01*
X146119882Y-71540650D01*
X146152047Y-71508123D01*
X146191204Y-71487519D01*
X146235000Y-71479436D01*
X146281077Y-71484472D01*
X146327082Y-71503225D01*
X146351775Y-71519815D01*
X146390993Y-71556106D01*
X146428615Y-71602903D01*
X146464860Y-71660787D01*
X146499949Y-71730343D01*
X146534102Y-71812153D01*
X146567537Y-71906801D01*
X146600474Y-72014870D01*
X146633134Y-72136941D01*
X146665735Y-72273600D01*
X146698498Y-72425429D01*
X146705078Y-72457611D01*
X146715662Y-72509612D01*
X146725457Y-72557348D01*
X146733936Y-72598288D01*
X146740574Y-72629899D01*
X146744845Y-72649649D01*
X146745873Y-72654064D01*
X146749042Y-72663726D01*
X146754844Y-72669645D01*
X146766630Y-72672732D01*
X146787756Y-72673898D01*
X146819501Y-72674055D01*
X146903935Y-72672486D01*
X146992397Y-72667817D01*
X147086293Y-72659854D01*
X147187027Y-72648404D01*
X147296003Y-72633272D01*
X147414627Y-72614264D01*
X147544302Y-72591186D01*
X147686434Y-72563845D01*
X147832656Y-72534081D01*
X147973484Y-72505259D01*
X148099141Y-72480565D01*
X148209598Y-72460006D01*
X148304826Y-72443586D01*
X148384795Y-72431311D01*
X148449476Y-72423186D01*
X148456968Y-72422414D01*
X148525656Y-72415551D01*
X148530026Y-72442480D01*
X148532149Y-72468811D01*
X148529194Y-72496390D01*
X148520325Y-72529165D01*
X148504707Y-72571083D01*
X148500820Y-72580621D01*
X148486882Y-72612391D01*
X148475692Y-72631988D01*
X148465208Y-72642375D01*
X148455750Y-72646091D01*
X148434649Y-72649831D01*
X148399174Y-72655252D01*
X148350717Y-72662179D01*
X148290669Y-72670439D01*
X148220423Y-72679855D01*
X148141370Y-72690253D01*
X148054903Y-72701460D01*
X147962412Y-72713299D01*
X147865290Y-72725596D01*
X147764929Y-72738177D01*
X147662721Y-72750866D01*
X147560058Y-72763490D01*
X147458331Y-72775872D01*
X147358933Y-72787839D01*
X147263255Y-72799216D01*
X147172689Y-72809828D01*
X147088627Y-72819501D01*
X147012461Y-72828059D01*
X146963500Y-72833410D01*
X146915858Y-72838625D01*
X146873966Y-72843367D01*
X146840249Y-72847350D01*
X146817133Y-72850285D01*
X146807044Y-72851886D01*
X146806810Y-72851986D01*
X146808600Y-72859737D01*
X146814697Y-72880285D01*
X146824390Y-72911365D01*
X146836972Y-72950712D01*
X146851732Y-72996061D01*
X146855684Y-73008085D01*
X146876489Y-73072898D01*
X146896434Y-73138673D01*
X146916057Y-73207471D01*
X146935891Y-73281348D01*
X146956474Y-73362366D01*
X146978341Y-73452582D01*
X147002027Y-73554055D01*
X147028068Y-73668845D01*
X147031058Y-73682187D01*
X147056139Y-73793479D01*
X147078523Y-73891066D01*
X147098666Y-73976804D01*
X147117028Y-74052545D01*
X147134066Y-74120143D01*
X147150238Y-74181454D01*
X147166001Y-74238330D01*
X147181815Y-74292625D01*
X147181966Y-74293133D01*
X147198465Y-74346718D01*
X147213825Y-74391774D01*
X147229834Y-74432377D01*
X147248280Y-74472603D01*
X147270951Y-74516528D01*
X147299634Y-74568226D01*
X147312638Y-74591031D01*
X147349373Y-74659597D01*
X147375458Y-74719359D01*
X147391522Y-74772689D01*
X147398193Y-74821955D01*
X147396099Y-74869529D01*
X147392316Y-74891736D01*
X147382425Y-74927902D01*
X147368916Y-74950818D01*
X147348837Y-74963097D01*
X147319239Y-74967349D01*
X147306796Y-74967435D01*
X147274193Y-74964887D01*
X147242004Y-74959093D01*
X147228011Y-74955064D01*
X147202568Y-74942688D01*
X147174457Y-74924156D01*
X147160542Y-74912924D01*
X147147837Y-74901399D01*
X147136287Y-74889896D01*
X147125318Y-74877234D01*
X147114356Y-74862228D01*
X147102827Y-74843696D01*
X147090159Y-74820454D01*
X147075777Y-74791320D01*
X147059108Y-74755111D01*
X147039578Y-74710643D01*
X147016613Y-74656733D01*
X146989641Y-74592199D01*
X146958086Y-74515857D01*
X146921376Y-74426524D01*
X146903128Y-74382030D01*
X146873146Y-74307804D01*
X146842328Y-74229234D01*
X146810101Y-74144770D01*
X146775894Y-74052858D01*
X146739137Y-73951948D01*
X146699257Y-73840486D01*
X146655683Y-73716922D01*
X146610354Y-73586937D01*
X146569282Y-73468913D01*
X146530742Y-73358746D01*
X146495133Y-73257563D01*
X146462857Y-73166492D01*
X146434314Y-73086662D01*
X146409904Y-73019199D01*
X146390027Y-72965232D01*
X146383920Y-72948959D01*
X146366303Y-72902324D01*
X146325573Y-72907434D01*
X146307520Y-72909590D01*
X146276021Y-72913233D01*
X146233407Y-72918099D01*
X146182010Y-72923923D01*
X146124162Y-72930440D01*
X146062194Y-72937386D01*
X146038781Y-72940001D01*
X145970367Y-72947751D01*
X145900282Y-72955901D01*
X145831941Y-72964036D01*
X145768761Y-72971747D01*
X145714154Y-72978620D01*
X145671538Y-72984244D01*
X145667703Y-72984772D01*
X145542687Y-73002086D01*
X145542687Y-73047911D01*
X145544095Y-73070964D01*
X145547994Y-73105980D01*
X145553898Y-73149330D01*
X145561323Y-73197384D01*
X145567745Y-73235165D01*
X145579326Y-73305251D01*
X145587240Y-73365566D01*
X145592069Y-73421633D01*
X145594400Y-73478974D01*
X145594584Y-73488936D01*
X145595613Y-73530079D01*
X145597212Y-73565816D01*
X145599189Y-73593003D01*
X145601350Y-73608498D01*
X145602073Y-73610514D01*
X145610525Y-73618085D01*
X145629688Y-73632368D01*
X145656928Y-73651477D01*
X145689609Y-73673532D01*
X145698218Y-73679217D01*
X145756402Y-73720702D01*
X145800337Y-73760071D01*
X145831123Y-73799250D01*
X145849864Y-73840166D01*
X145857659Y-73884746D01*
X145855612Y-73934917D01*
X145853365Y-73950598D01*
X145838597Y-73993248D01*
X145809663Y-74031059D01*
X145767945Y-74062417D01*
X145749647Y-74072012D01*
X145710776Y-74084618D01*
X145660919Y-74091975D01*
X145604136Y-74093889D01*
X145544489Y-74090165D01*
X145501784Y-74083835D01*
X145471088Y-74077286D01*
X145433547Y-74068119D01*
X145392282Y-74057234D01*
X145350416Y-74045531D01*
X145311071Y-74033910D01*
X145277369Y-74023270D01*
X145252433Y-74014512D01*
X145239384Y-74008535D01*
X145238726Y-74008012D01*
X145233968Y-73997138D01*
X145227254Y-73972704D01*
X145218999Y-73936846D01*
X145209618Y-73891701D01*
X145199527Y-73839405D01*
X145189140Y-73782096D01*
X145178872Y-73721910D01*
X145169137Y-73660983D01*
X145161886Y-73612261D01*
X145156207Y-73570444D01*
X145149844Y-73519885D01*
X145143066Y-73463106D01*
X145136142Y-73402626D01*
X145129341Y-73340967D01*
X145122933Y-73280647D01*
X145117186Y-73224188D01*
X145112370Y-73174110D01*
X145108755Y-73132933D01*
X145106609Y-73103178D01*
X145106125Y-73090241D01*
X145101903Y-73085897D01*
X145087685Y-73085895D01*
X145061145Y-73090313D01*
X145052546Y-73092069D01*
X145031346Y-73096899D01*
X144999992Y-73104556D01*
X144961117Y-73114348D01*
X144917351Y-73125583D01*
X144871326Y-73137566D01*
X144825673Y-73149607D01*
X144783024Y-73161011D01*
X144746011Y-73171087D01*
X144717264Y-73179141D01*
X144699415Y-73184481D01*
X144694805Y-73186241D01*
X144696534Y-73193964D01*
X144703834Y-73210866D01*
X144708564Y-73220468D01*
X144733754Y-73282166D01*
X144753019Y-73354907D01*
X144765914Y-73434834D01*
X144771994Y-73518090D01*
X144770814Y-73600819D01*
X144761928Y-73679163D01*
X144761694Y-73680513D01*
X144732062Y-73805721D01*
X144687672Y-73929386D01*
X144629642Y-74049847D01*
X144559088Y-74165441D01*
X144477128Y-74274509D01*
X144384878Y-74375389D01*
X144283456Y-74466418D01*
X144184457Y-74539079D01*
X144070235Y-74608609D01*
X143952317Y-74668055D01*
X143828568Y-74718175D01*
X143696851Y-74759724D01*
X143555029Y-74793458D01*
X143400967Y-74820134D01*
X143383687Y-74822600D01*
X143329719Y-74828390D01*
X143263292Y-74832716D01*
X143187752Y-74835577D01*
X143106448Y-74836976D01*
X143022728Y-74836914D01*
X142939938Y-74835391D01*
X142861426Y-74832410D01*
X142790540Y-74827971D01*
X142732812Y-74822345D01*
X142631357Y-74808391D01*
X142526685Y-74791055D01*
X142422315Y-74771076D01*
X142321768Y-74749192D01*
X142228561Y-74726141D01*
X142146214Y-74702663D01*
X142115605Y-74692816D01*
X142022690Y-74657936D01*
X141933163Y-74617126D01*
X141849013Y-74571673D01*
X141772229Y-74522863D01*
X141704799Y-74471983D01*
X141648710Y-74420317D01*
X141605952Y-74369154D01*
X141598779Y-74358478D01*
X141571381Y-74303226D01*
X141556718Y-74244507D01*
X141556147Y-74210367D01*
X141987023Y-74210367D01*
X141988907Y-74261578D01*
X142002091Y-74304307D01*
X142031616Y-74349025D01*
X142075887Y-74392851D01*
X142133780Y-74435246D01*
X142204170Y-74475671D01*
X142285933Y-74513591D01*
X142377942Y-74548466D01*
X142479075Y-74579758D01*
X142588206Y-74606930D01*
X142668985Y-74623253D01*
X142772331Y-74640286D01*
X142864698Y-74651144D01*
X142949636Y-74656051D01*
X143030694Y-74655229D01*
X143099080Y-74650203D01*
X143231873Y-74630404D01*
X143363138Y-74598477D01*
X143491584Y-74555319D01*
X143615924Y-74501827D01*
X143734867Y-74438897D01*
X143847125Y-74367427D01*
X143951408Y-74288312D01*
X144046426Y-74202450D01*
X144130890Y-74110737D01*
X144203512Y-74014071D01*
X144263000Y-73913347D01*
X144308068Y-73809463D01*
X144308122Y-73809311D01*
X144332997Y-73727828D01*
X144347524Y-73649941D01*
X144352980Y-73568434D01*
X144353095Y-73555187D01*
X144347194Y-73456029D01*
X144328467Y-73362583D01*
X144299043Y-73277375D01*
X144283422Y-73240078D01*
X144271960Y-73215470D01*
X144262904Y-73201504D01*
X144254502Y-73196134D01*
X144245003Y-73197314D01*
X144234533Y-73202053D01*
X144219915Y-73207288D01*
X144191271Y-73215607D01*
X144150068Y-73226647D01*
X144097777Y-73240043D01*
X144035867Y-73255432D01*
X143965807Y-73272450D01*
X143889066Y-73290735D01*
X143807113Y-73309922D01*
X143721418Y-73329648D01*
X143689281Y-73336960D01*
X143538365Y-73372287D01*
X143400380Y-73407074D01*
X143272449Y-73442254D01*
X143151696Y-73478758D01*
X143035245Y-73517520D01*
X142920220Y-73559472D01*
X142803746Y-73605548D01*
X142682944Y-73656679D01*
X142625745Y-73681881D01*
X142498966Y-73740758D01*
X142387423Y-73797737D01*
X142290636Y-73853151D01*
X142208123Y-73907333D01*
X142139404Y-73960617D01*
X142083999Y-74013336D01*
X142041425Y-74065823D01*
X142019089Y-74102440D01*
X141997180Y-74156179D01*
X141987023Y-74210367D01*
X141556147Y-74210367D01*
X141555747Y-74186507D01*
X141557133Y-74176266D01*
X141574474Y-74107523D01*
X141604664Y-74033535D01*
X141646543Y-73956521D01*
X141698950Y-73878701D01*
X141740026Y-73826435D01*
X141798450Y-73765520D01*
X141871578Y-73704735D01*
X141958245Y-73644700D01*
X142057287Y-73586033D01*
X142167540Y-73529350D01*
X142287841Y-73475271D01*
X142417024Y-73424413D01*
X142553927Y-73377395D01*
X142629625Y-73354123D01*
X142688302Y-73337021D01*
X142744930Y-73321039D01*
X142801194Y-73305782D01*
X142858777Y-73290855D01*
X142919364Y-73275865D01*
X142984639Y-73260416D01*
X143056286Y-73244113D01*
X143135989Y-73226561D01*
X143225432Y-73207367D01*
X143326300Y-73186135D01*
X143440277Y-73162470D01*
X143499014Y-73150362D01*
X143606014Y-73128226D01*
X143706228Y-73107258D01*
X143798661Y-73087678D01*
X143882319Y-73069703D01*
X143956209Y-73053553D01*
X144019335Y-73039448D01*
X144070703Y-73027606D01*
X144109320Y-73018247D01*
X144134190Y-73011590D01*
X144143696Y-73008265D01*
X144143321Y-73000203D01*
X144132409Y-72982475D01*
X144112007Y-72956271D01*
X144083162Y-72922782D01*
X144046919Y-72883198D01*
X144004325Y-72838709D01*
X143956425Y-72790505D01*
X143926623Y-72761312D01*
X143781374Y-72629873D01*
X143621667Y-72503119D01*
X143448353Y-72381534D01*
X143262283Y-72265604D01*
X143064307Y-72155813D01*
X142855278Y-72052646D01*
X142636046Y-71956587D01*
X142407463Y-71868122D01*
X142280848Y-71823818D01*
X142212444Y-71801027D01*
X142147716Y-71780132D01*
X142084374Y-71760488D01*
X142020123Y-71741453D01*
X141952674Y-71722385D01*
X141879732Y-71702640D01*
X141799006Y-71681577D01*
X141708203Y-71658551D01*
X141605031Y-71632921D01*
X141564285Y-71622900D01*
X141465323Y-71598523D01*
X141379619Y-71577174D01*
X141304979Y-71558248D01*
X141239209Y-71541138D01*
X141180113Y-71525238D01*
X141125498Y-71509942D01*
X141073168Y-71494645D01*
X141020928Y-71478739D01*
X140966585Y-71461618D01*
X140907943Y-71442678D01*
X140887343Y-71435947D01*
X140827709Y-71416724D01*
X140762898Y-71396348D01*
X140698006Y-71376386D01*
X140638126Y-71358406D01*
X140589687Y-71344352D01*
X140495382Y-71316072D01*
X140415870Y-71288502D01*
X140350127Y-71261023D01*
X140297126Y-71233017D01*
X140255842Y-71203866D01*
X140225250Y-71172953D01*
X140204323Y-71139660D01*
X140192398Y-71104986D01*
X140188703Y-71071093D01*
X140194874Y-71040789D01*
X140212059Y-71012689D01*
X140241403Y-70985411D01*
X140284052Y-70957571D01*
X140337811Y-70929402D01*
X140375219Y-70911972D01*
X140415825Y-70894614D01*
X140460732Y-70876985D01*
X140511046Y-70858745D01*
X140567870Y-70839552D01*
X140632309Y-70819066D01*
X140705465Y-70796945D01*
X140788445Y-70772848D01*
X140882351Y-70746434D01*
X140988288Y-70717361D01*
X141107359Y-70685289D01*
X141240670Y-70649876D01*
X141252468Y-70646760D01*
X141424444Y-70601918D01*
X141583029Y-70561794D01*
X141729883Y-70526061D01*
X141866667Y-70494394D01*
X141995043Y-70466465D01*
X142116670Y-70441948D01*
X142233209Y-70420517D01*
X142346322Y-70401846D01*
X142457670Y-70385607D01*
X142568912Y-70371474D01*
X142681710Y-70359120D01*
X142748687Y-70352625D01*
X142812567Y-70347372D01*
X142885192Y-70342534D01*
X142963644Y-70338214D01*
X143045006Y-70334514D01*
X143126361Y-70331533D01*
X143204791Y-70329375D01*
X143277378Y-70328140D01*
X143341205Y-70327929D01*
X143393354Y-70328845D01*
X143393354Y-70328845D01*
G37*
X143393354Y-70328845D02*
X143411121Y-70329593D01*
X143513960Y-70334978D01*
X143620459Y-70392222D01*
X143685229Y-70428127D01*
X143737239Y-70459586D01*
X143778478Y-70488020D01*
X143810938Y-70514849D01*
X143836611Y-70541492D01*
X143845859Y-70552984D01*
X143865414Y-70580729D01*
X143879395Y-70604702D01*
X143886732Y-70622497D01*
X143886355Y-70631707D01*
X143880864Y-70631732D01*
X143863572Y-70626594D01*
X143834133Y-70619384D01*
X143796026Y-70610828D01*
X143752732Y-70601654D01*
X143707730Y-70592586D01*
X143664499Y-70584353D01*
X143626520Y-70577681D01*
X143608211Y-70574804D01*
X143429531Y-70555070D01*
X143240275Y-70546819D01*
X143040783Y-70550006D01*
X142831397Y-70564590D01*
X142612457Y-70590526D01*
X142384303Y-70627772D01*
X142147277Y-70676283D01*
X141901719Y-70736018D01*
X141647969Y-70806932D01*
X141553606Y-70835522D01*
X141488404Y-70856058D01*
X141419149Y-70878558D01*
X141347341Y-70902477D01*
X141274485Y-70927268D01*
X141202082Y-70952387D01*
X141131636Y-70977288D01*
X141064648Y-71001425D01*
X141002622Y-71024253D01*
X140947059Y-71045227D01*
X140899463Y-71063802D01*
X140861336Y-71079431D01*
X140834180Y-71091570D01*
X140819498Y-71099672D01*
X140817521Y-71102726D01*
X140827007Y-71106965D01*
X140850491Y-71115614D01*
X140886832Y-71128296D01*
X140934891Y-71144638D01*
X140993528Y-71164263D01*
X141061604Y-71186797D01*
X141137979Y-71211863D01*
X141221514Y-71239088D01*
X141311068Y-71268096D01*
X141405502Y-71298511D01*
X141503677Y-71329958D01*
X141604453Y-71362063D01*
X141625314Y-71368687D01*
X141812031Y-71428304D01*
X141984568Y-71484203D01*
X142144067Y-71536812D01*
X142291672Y-71586561D01*
X142428525Y-71633880D01*
X142555769Y-71679199D01*
X142674547Y-71722946D01*
X142786003Y-71765552D01*
X142891279Y-71807446D01*
X142991517Y-71849059D01*
X143087862Y-71890818D01*
X143181455Y-71933155D01*
X143273440Y-71976499D01*
X143364960Y-72021278D01*
X143375750Y-72026661D01*
X143585516Y-72137475D01*
X143780157Y-72252671D01*
X143959833Y-72372354D01*
X144124706Y-72496628D01*
X144209187Y-72567019D01*
X144256801Y-72609580D01*
X144309143Y-72658761D01*
X144363055Y-72711401D01*
X144415374Y-72764342D01*
X144462943Y-72814423D01*
X144502599Y-72858485D01*
X144513577Y-72871365D01*
X144562406Y-72929699D01*
X144625906Y-72925586D01*
X144658368Y-72921863D01*
X144700745Y-72914699D01*
X144747712Y-72905098D01*
X144793945Y-72894068D01*
X144797109Y-72893244D01*
X144842555Y-72882226D01*
X144890320Y-72872176D01*
X144937553Y-72863529D01*
X144981401Y-72856717D01*
X145019012Y-72852173D01*
X145047535Y-72850332D01*
X145064116Y-72851625D01*
X145065933Y-72852407D01*
X145072677Y-72854011D01*
X145077064Y-72847851D01*
X145079212Y-72832235D01*
X145079239Y-72805469D01*
X145077264Y-72765859D01*
X145074626Y-72727874D01*
X145069010Y-72658729D01*
X145062531Y-72592745D01*
X145054828Y-72527812D01*
X145045543Y-72461822D01*
X145034317Y-72392665D01*
X145020791Y-72318233D01*
X145004606Y-72236417D01*
X144985402Y-72145107D01*
X144962822Y-72042194D01*
X144942608Y-71952401D01*
X144924926Y-71873462D01*
X144908381Y-71797568D01*
X144893316Y-71726438D01*
X144880075Y-71661791D01*
X144869001Y-71605344D01*
X144860437Y-71558816D01*
X144854727Y-71523924D01*
X144852214Y-71502388D01*
X144852125Y-71499575D01*
X144859626Y-71487259D01*
X144880406Y-71475213D01*
X144911876Y-71464227D01*
X144951448Y-71455093D01*
X144996533Y-71448600D01*
X145026750Y-71446215D01*
X145085432Y-71446128D01*
X145133691Y-71453847D01*
X145175685Y-71470899D01*
X145215570Y-71498810D01*
X145245292Y-71526461D01*
X145276455Y-71561234D01*
X145304540Y-71600093D01*
X145329827Y-71644135D01*
X145352598Y-71694455D01*
X145373135Y-71752146D01*
X145391719Y-71818305D01*
X145408630Y-71894026D01*
X145424152Y-71980404D01*
X145438564Y-72078534D01*
X145452149Y-72189511D01*
X145465188Y-72314430D01*
X145474973Y-72420125D01*
X145480638Y-72483214D01*
X145486385Y-72545431D01*
X145491922Y-72603768D01*
X145496962Y-72655220D01*
X145501214Y-72696778D01*
X145504312Y-72724792D01*
X145513650Y-72803241D01*
X145645247Y-72798665D01*
X145776597Y-72789752D01*
X145903843Y-72773039D01*
X145983622Y-72761431D01*
X146061567Y-72753738D01*
X146145264Y-72749267D01*
X146173718Y-72748423D01*
X146316593Y-72744859D01*
X146315679Y-72675757D01*
X146314897Y-72650528D01*
X146312940Y-72625681D01*
X146309363Y-72599348D01*
X146303720Y-72569659D01*
X146295563Y-72534747D01*
X146284447Y-72492743D01*
X146269926Y-72441779D01*
X146251552Y-72379986D01*
X146228880Y-72305495D01*
X146221427Y-72281218D01*
X146197093Y-72201846D01*
X146176957Y-72135576D01*
X146160449Y-72080366D01*
X146146997Y-72034176D01*
X146136031Y-71994965D01*
X146126981Y-71960693D01*
X146119275Y-71929319D01*
X146112345Y-71898803D01*
X146105618Y-71867103D01*
X146105542Y-71866735D01*
X146096465Y-71813287D01*
X146090367Y-71757340D01*
X146087359Y-71702568D01*
X146087551Y-71652646D01*
X146091055Y-71611251D01*
X146097066Y-71584501D01*
X146119882Y-71540650D01*
X146152047Y-71508123D01*
X146191204Y-71487519D01*
X146235000Y-71479436D01*
X146281077Y-71484472D01*
X146327082Y-71503225D01*
X146351775Y-71519815D01*
X146390993Y-71556106D01*
X146428615Y-71602903D01*
X146464860Y-71660787D01*
X146499949Y-71730343D01*
X146534102Y-71812153D01*
X146567537Y-71906801D01*
X146600474Y-72014870D01*
X146633134Y-72136941D01*
X146665735Y-72273600D01*
X146698498Y-72425429D01*
X146705078Y-72457611D01*
X146715662Y-72509612D01*
X146725457Y-72557348D01*
X146733936Y-72598288D01*
X146740574Y-72629899D01*
X146744845Y-72649649D01*
X146745873Y-72654064D01*
X146749042Y-72663726D01*
X146754844Y-72669645D01*
X146766630Y-72672732D01*
X146787756Y-72673898D01*
X146819501Y-72674055D01*
X146903935Y-72672486D01*
X146992397Y-72667817D01*
X147086293Y-72659854D01*
X147187027Y-72648404D01*
X147296003Y-72633272D01*
X147414627Y-72614264D01*
X147544302Y-72591186D01*
X147686434Y-72563845D01*
X147832656Y-72534081D01*
X147973484Y-72505259D01*
X148099141Y-72480565D01*
X148209598Y-72460006D01*
X148304826Y-72443586D01*
X148384795Y-72431311D01*
X148449476Y-72423186D01*
X148456968Y-72422414D01*
X148525656Y-72415551D01*
X148530026Y-72442480D01*
X148532149Y-72468811D01*
X148529194Y-72496390D01*
X148520325Y-72529165D01*
X148504707Y-72571083D01*
X148500820Y-72580621D01*
X148486882Y-72612391D01*
X148475692Y-72631988D01*
X148465208Y-72642375D01*
X148455750Y-72646091D01*
X148434649Y-72649831D01*
X148399174Y-72655252D01*
X148350717Y-72662179D01*
X148290669Y-72670439D01*
X148220423Y-72679855D01*
X148141370Y-72690253D01*
X148054903Y-72701460D01*
X147962412Y-72713299D01*
X147865290Y-72725596D01*
X147764929Y-72738177D01*
X147662721Y-72750866D01*
X147560058Y-72763490D01*
X147458331Y-72775872D01*
X147358933Y-72787839D01*
X147263255Y-72799216D01*
X147172689Y-72809828D01*
X147088627Y-72819501D01*
X147012461Y-72828059D01*
X146963500Y-72833410D01*
X146915858Y-72838625D01*
X146873966Y-72843367D01*
X146840249Y-72847350D01*
X146817133Y-72850285D01*
X146807044Y-72851886D01*
X146806810Y-72851986D01*
X146808600Y-72859737D01*
X146814697Y-72880285D01*
X146824390Y-72911365D01*
X146836972Y-72950712D01*
X146851732Y-72996061D01*
X146855684Y-73008085D01*
X146876489Y-73072898D01*
X146896434Y-73138673D01*
X146916057Y-73207471D01*
X146935891Y-73281348D01*
X146956474Y-73362366D01*
X146978341Y-73452582D01*
X147002027Y-73554055D01*
X147028068Y-73668845D01*
X147031058Y-73682187D01*
X147056139Y-73793479D01*
X147078523Y-73891066D01*
X147098666Y-73976804D01*
X147117028Y-74052545D01*
X147134066Y-74120143D01*
X147150238Y-74181454D01*
X147166001Y-74238330D01*
X147181815Y-74292625D01*
X147181966Y-74293133D01*
X147198465Y-74346718D01*
X147213825Y-74391774D01*
X147229834Y-74432377D01*
X147248280Y-74472603D01*
X147270951Y-74516528D01*
X147299634Y-74568226D01*
X147312638Y-74591031D01*
X147349373Y-74659597D01*
X147375458Y-74719359D01*
X147391522Y-74772689D01*
X147398193Y-74821955D01*
X147396099Y-74869529D01*
X147392316Y-74891736D01*
X147382425Y-74927902D01*
X147368916Y-74950818D01*
X147348837Y-74963097D01*
X147319239Y-74967349D01*
X147306796Y-74967435D01*
X147274193Y-74964887D01*
X147242004Y-74959093D01*
X147228011Y-74955064D01*
X147202568Y-74942688D01*
X147174457Y-74924156D01*
X147160542Y-74912924D01*
X147147837Y-74901399D01*
X147136287Y-74889896D01*
X147125318Y-74877234D01*
X147114356Y-74862228D01*
X147102827Y-74843696D01*
X147090159Y-74820454D01*
X147075777Y-74791320D01*
X147059108Y-74755111D01*
X147039578Y-74710643D01*
X147016613Y-74656733D01*
X146989641Y-74592199D01*
X146958086Y-74515857D01*
X146921376Y-74426524D01*
X146903128Y-74382030D01*
X146873146Y-74307804D01*
X146842328Y-74229234D01*
X146810101Y-74144770D01*
X146775894Y-74052858D01*
X146739137Y-73951948D01*
X146699257Y-73840486D01*
X146655683Y-73716922D01*
X146610354Y-73586937D01*
X146569282Y-73468913D01*
X146530742Y-73358746D01*
X146495133Y-73257563D01*
X146462857Y-73166492D01*
X146434314Y-73086662D01*
X146409904Y-73019199D01*
X146390027Y-72965232D01*
X146383920Y-72948959D01*
X146366303Y-72902324D01*
X146325573Y-72907434D01*
X146307520Y-72909590D01*
X146276021Y-72913233D01*
X146233407Y-72918099D01*
X146182010Y-72923923D01*
X146124162Y-72930440D01*
X146062194Y-72937386D01*
X146038781Y-72940001D01*
X145970367Y-72947751D01*
X145900282Y-72955901D01*
X145831941Y-72964036D01*
X145768761Y-72971747D01*
X145714154Y-72978620D01*
X145671538Y-72984244D01*
X145667703Y-72984772D01*
X145542687Y-73002086D01*
X145542687Y-73047911D01*
X145544095Y-73070964D01*
X145547994Y-73105980D01*
X145553898Y-73149330D01*
X145561323Y-73197384D01*
X145567745Y-73235165D01*
X145579326Y-73305251D01*
X145587240Y-73365566D01*
X145592069Y-73421633D01*
X145594400Y-73478974D01*
X145594584Y-73488936D01*
X145595613Y-73530079D01*
X145597212Y-73565816D01*
X145599189Y-73593003D01*
X145601350Y-73608498D01*
X145602073Y-73610514D01*
X145610525Y-73618085D01*
X145629688Y-73632368D01*
X145656928Y-73651477D01*
X145689609Y-73673532D01*
X145698218Y-73679217D01*
X145756402Y-73720702D01*
X145800337Y-73760071D01*
X145831123Y-73799250D01*
X145849864Y-73840166D01*
X145857659Y-73884746D01*
X145855612Y-73934917D01*
X145853365Y-73950598D01*
X145838597Y-73993248D01*
X145809663Y-74031059D01*
X145767945Y-74062417D01*
X145749647Y-74072012D01*
X145710776Y-74084618D01*
X145660919Y-74091975D01*
X145604136Y-74093889D01*
X145544489Y-74090165D01*
X145501784Y-74083835D01*
X145471088Y-74077286D01*
X145433547Y-74068119D01*
X145392282Y-74057234D01*
X145350416Y-74045531D01*
X145311071Y-74033910D01*
X145277369Y-74023270D01*
X145252433Y-74014512D01*
X145239384Y-74008535D01*
X145238726Y-74008012D01*
X145233968Y-73997138D01*
X145227254Y-73972704D01*
X145218999Y-73936846D01*
X145209618Y-73891701D01*
X145199527Y-73839405D01*
X145189140Y-73782096D01*
X145178872Y-73721910D01*
X145169137Y-73660983D01*
X145161886Y-73612261D01*
X145156207Y-73570444D01*
X145149844Y-73519885D01*
X145143066Y-73463106D01*
X145136142Y-73402626D01*
X145129341Y-73340967D01*
X145122933Y-73280647D01*
X145117186Y-73224188D01*
X145112370Y-73174110D01*
X145108755Y-73132933D01*
X145106609Y-73103178D01*
X145106125Y-73090241D01*
X145101903Y-73085897D01*
X145087685Y-73085895D01*
X145061145Y-73090313D01*
X145052546Y-73092069D01*
X145031346Y-73096899D01*
X144999992Y-73104556D01*
X144961117Y-73114348D01*
X144917351Y-73125583D01*
X144871326Y-73137566D01*
X144825673Y-73149607D01*
X144783024Y-73161011D01*
X144746011Y-73171087D01*
X144717264Y-73179141D01*
X144699415Y-73184481D01*
X144694805Y-73186241D01*
X144696534Y-73193964D01*
X144703834Y-73210866D01*
X144708564Y-73220468D01*
X144733754Y-73282166D01*
X144753019Y-73354907D01*
X144765914Y-73434834D01*
X144771994Y-73518090D01*
X144770814Y-73600819D01*
X144761928Y-73679163D01*
X144761694Y-73680513D01*
X144732062Y-73805721D01*
X144687672Y-73929386D01*
X144629642Y-74049847D01*
X144559088Y-74165441D01*
X144477128Y-74274509D01*
X144384878Y-74375389D01*
X144283456Y-74466418D01*
X144184457Y-74539079D01*
X144070235Y-74608609D01*
X143952317Y-74668055D01*
X143828568Y-74718175D01*
X143696851Y-74759724D01*
X143555029Y-74793458D01*
X143400967Y-74820134D01*
X143383687Y-74822600D01*
X143329719Y-74828390D01*
X143263292Y-74832716D01*
X143187752Y-74835577D01*
X143106448Y-74836976D01*
X143022728Y-74836914D01*
X142939938Y-74835391D01*
X142861426Y-74832410D01*
X142790540Y-74827971D01*
X142732812Y-74822345D01*
X142631357Y-74808391D01*
X142526685Y-74791055D01*
X142422315Y-74771076D01*
X142321768Y-74749192D01*
X142228561Y-74726141D01*
X142146214Y-74702663D01*
X142115605Y-74692816D01*
X142022690Y-74657936D01*
X141933163Y-74617126D01*
X141849013Y-74571673D01*
X141772229Y-74522863D01*
X141704799Y-74471983D01*
X141648710Y-74420317D01*
X141605952Y-74369154D01*
X141598779Y-74358478D01*
X141571381Y-74303226D01*
X141556718Y-74244507D01*
X141556147Y-74210367D01*
X141987023Y-74210367D01*
X141988907Y-74261578D01*
X142002091Y-74304307D01*
X142031616Y-74349025D01*
X142075887Y-74392851D01*
X142133780Y-74435246D01*
X142204170Y-74475671D01*
X142285933Y-74513591D01*
X142377942Y-74548466D01*
X142479075Y-74579758D01*
X142588206Y-74606930D01*
X142668985Y-74623253D01*
X142772331Y-74640286D01*
X142864698Y-74651144D01*
X142949636Y-74656051D01*
X143030694Y-74655229D01*
X143099080Y-74650203D01*
X143231873Y-74630404D01*
X143363138Y-74598477D01*
X143491584Y-74555319D01*
X143615924Y-74501827D01*
X143734867Y-74438897D01*
X143847125Y-74367427D01*
X143951408Y-74288312D01*
X144046426Y-74202450D01*
X144130890Y-74110737D01*
X144203512Y-74014071D01*
X144263000Y-73913347D01*
X144308068Y-73809463D01*
X144308122Y-73809311D01*
X144332997Y-73727828D01*
X144347524Y-73649941D01*
X144352980Y-73568434D01*
X144353095Y-73555187D01*
X144347194Y-73456029D01*
X144328467Y-73362583D01*
X144299043Y-73277375D01*
X144283422Y-73240078D01*
X144271960Y-73215470D01*
X144262904Y-73201504D01*
X144254502Y-73196134D01*
X144245003Y-73197314D01*
X144234533Y-73202053D01*
X144219915Y-73207288D01*
X144191271Y-73215607D01*
X144150068Y-73226647D01*
X144097777Y-73240043D01*
X144035867Y-73255432D01*
X143965807Y-73272450D01*
X143889066Y-73290735D01*
X143807113Y-73309922D01*
X143721418Y-73329648D01*
X143689281Y-73336960D01*
X143538365Y-73372287D01*
X143400380Y-73407074D01*
X143272449Y-73442254D01*
X143151696Y-73478758D01*
X143035245Y-73517520D01*
X142920220Y-73559472D01*
X142803746Y-73605548D01*
X142682944Y-73656679D01*
X142625745Y-73681881D01*
X142498966Y-73740758D01*
X142387423Y-73797737D01*
X142290636Y-73853151D01*
X142208123Y-73907333D01*
X142139404Y-73960617D01*
X142083999Y-74013336D01*
X142041425Y-74065823D01*
X142019089Y-74102440D01*
X141997180Y-74156179D01*
X141987023Y-74210367D01*
X141556147Y-74210367D01*
X141555747Y-74186507D01*
X141557133Y-74176266D01*
X141574474Y-74107523D01*
X141604664Y-74033535D01*
X141646543Y-73956521D01*
X141698950Y-73878701D01*
X141740026Y-73826435D01*
X141798450Y-73765520D01*
X141871578Y-73704735D01*
X141958245Y-73644700D01*
X142057287Y-73586033D01*
X142167540Y-73529350D01*
X142287841Y-73475271D01*
X142417024Y-73424413D01*
X142553927Y-73377395D01*
X142629625Y-73354123D01*
X142688302Y-73337021D01*
X142744930Y-73321039D01*
X142801194Y-73305782D01*
X142858777Y-73290855D01*
X142919364Y-73275865D01*
X142984639Y-73260416D01*
X143056286Y-73244113D01*
X143135989Y-73226561D01*
X143225432Y-73207367D01*
X143326300Y-73186135D01*
X143440277Y-73162470D01*
X143499014Y-73150362D01*
X143606014Y-73128226D01*
X143706228Y-73107258D01*
X143798661Y-73087678D01*
X143882319Y-73069703D01*
X143956209Y-73053553D01*
X144019335Y-73039448D01*
X144070703Y-73027606D01*
X144109320Y-73018247D01*
X144134190Y-73011590D01*
X144143696Y-73008265D01*
X144143321Y-73000203D01*
X144132409Y-72982475D01*
X144112007Y-72956271D01*
X144083162Y-72922782D01*
X144046919Y-72883198D01*
X144004325Y-72838709D01*
X143956425Y-72790505D01*
X143926623Y-72761312D01*
X143781374Y-72629873D01*
X143621667Y-72503119D01*
X143448353Y-72381534D01*
X143262283Y-72265604D01*
X143064307Y-72155813D01*
X142855278Y-72052646D01*
X142636046Y-71956587D01*
X142407463Y-71868122D01*
X142280848Y-71823818D01*
X142212444Y-71801027D01*
X142147716Y-71780132D01*
X142084374Y-71760488D01*
X142020123Y-71741453D01*
X141952674Y-71722385D01*
X141879732Y-71702640D01*
X141799006Y-71681577D01*
X141708203Y-71658551D01*
X141605031Y-71632921D01*
X141564285Y-71622900D01*
X141465323Y-71598523D01*
X141379619Y-71577174D01*
X141304979Y-71558248D01*
X141239209Y-71541138D01*
X141180113Y-71525238D01*
X141125498Y-71509942D01*
X141073168Y-71494645D01*
X141020928Y-71478739D01*
X140966585Y-71461618D01*
X140907943Y-71442678D01*
X140887343Y-71435947D01*
X140827709Y-71416724D01*
X140762898Y-71396348D01*
X140698006Y-71376386D01*
X140638126Y-71358406D01*
X140589687Y-71344352D01*
X140495382Y-71316072D01*
X140415870Y-71288502D01*
X140350127Y-71261023D01*
X140297126Y-71233017D01*
X140255842Y-71203866D01*
X140225250Y-71172953D01*
X140204323Y-71139660D01*
X140192398Y-71104986D01*
X140188703Y-71071093D01*
X140194874Y-71040789D01*
X140212059Y-71012689D01*
X140241403Y-70985411D01*
X140284052Y-70957571D01*
X140337811Y-70929402D01*
X140375219Y-70911972D01*
X140415825Y-70894614D01*
X140460732Y-70876985D01*
X140511046Y-70858745D01*
X140567870Y-70839552D01*
X140632309Y-70819066D01*
X140705465Y-70796945D01*
X140788445Y-70772848D01*
X140882351Y-70746434D01*
X140988288Y-70717361D01*
X141107359Y-70685289D01*
X141240670Y-70649876D01*
X141252468Y-70646760D01*
X141424444Y-70601918D01*
X141583029Y-70561794D01*
X141729883Y-70526061D01*
X141866667Y-70494394D01*
X141995043Y-70466465D01*
X142116670Y-70441948D01*
X142233209Y-70420517D01*
X142346322Y-70401846D01*
X142457670Y-70385607D01*
X142568912Y-70371474D01*
X142681710Y-70359120D01*
X142748687Y-70352625D01*
X142812567Y-70347372D01*
X142885192Y-70342534D01*
X142963644Y-70338214D01*
X143045006Y-70334514D01*
X143126361Y-70331533D01*
X143204791Y-70329375D01*
X143277378Y-70328140D01*
X143341205Y-70327929D01*
X143393354Y-70328845D01*
D12*
X150000000Y-79000000D03*
D13*
X150000000Y-81540000D03*
X150000000Y-84080000D03*
X150000000Y-86620000D03*
X150000000Y-89160000D03*
D12*
X162700000Y-79000000D03*
D13*
X162700000Y-81540000D03*
X162700000Y-84080000D03*
X162700000Y-86620000D03*
X162700000Y-89160000D03*
D14*
X129519994Y-85975000D03*
X127444997Y-87150003D03*
X130144994Y-89400003D03*
X119370000Y-101350000D03*
X117844999Y-99600000D03*
D15*
X121380000Y-72120000D03*
D16*
X121380000Y-70850000D03*
X122650000Y-72120000D03*
X122650000Y-70850000D03*
X123920000Y-72120000D03*
X123920000Y-70850000D03*
X125190000Y-72120000D03*
X125190000Y-70850000D03*
X126460000Y-72120000D03*
X126460000Y-70850000D03*
D17*
X115414997Y-120250000D03*
X115414997Y-115750000D03*
X123364997Y-115750000D03*
X123364997Y-120250000D03*
X130414997Y-120250000D03*
X130414997Y-115750000D03*
X138364997Y-115750000D03*
X138364997Y-120250000D03*
X145414997Y-120250000D03*
X145414997Y-115750000D03*
X153364997Y-115750000D03*
X153364997Y-120250000D03*
D18*
X129519994Y-85975000D02*
X129519994Y-80259994D01*
X129519994Y-80259994D02*
X121380000Y-72120000D01*
X123364997Y-115750000D02*
X125372310Y-115750000D01*
X125372310Y-115750000D02*
X157582310Y-83540000D01*
X157582310Y-83540000D02*
X160700000Y-83540000D01*
X160700000Y-83540000D02*
X162700000Y-81540000D01*
X115414997Y-115750000D02*
X116589997Y-115750000D01*
X116589997Y-115750000D02*
X123364997Y-115750000D01*
X138364997Y-115750000D02*
X138364997Y-114870185D01*
X138364997Y-114870185D02*
X143139419Y-110095763D01*
X143139419Y-110095763D02*
X143139419Y-103640581D01*
X143139419Y-103640581D02*
X162700000Y-84080000D01*
X130414997Y-115750000D02*
X131589997Y-115750000D01*
X131589997Y-115750000D02*
X138364997Y-115750000D01*
X153364997Y-115750000D02*
X153364997Y-95955003D01*
X153364997Y-95955003D02*
X162700000Y-86620000D01*
X145414997Y-115750000D02*
X146589997Y-115750000D01*
X146589997Y-115750000D02*
X153364997Y-115750000D01*
X130144994Y-89400003D02*
X130144994Y-87985790D01*
X130144994Y-87985790D02*
X130869995Y-87260789D01*
X130869995Y-87260789D02*
X130869995Y-75259995D01*
X130869995Y-75259995D02*
X126959999Y-71349999D01*
X126959999Y-71349999D02*
X126460000Y-70850000D01*
X119370000Y-101350000D02*
X119370000Y-72152894D01*
X119370000Y-72152894D02*
X120672894Y-70850000D01*
X120672894Y-70850000D02*
X121380000Y-70850000D01*
X117844999Y-99600000D02*
X117844999Y-70965001D01*
X117844999Y-70965001D02*
X119098248Y-69711752D01*
X119098248Y-69711752D02*
X121511752Y-69711752D01*
X121511752Y-69711752D02*
X122650000Y-70850000D01*
D19*
G36*
X161175825Y-67588632D02*
X162689777Y-68600223D01*
X163701367Y-70114174D01*
X164062997Y-71932210D01*
X164062997Y-116867796D01*
X163701367Y-118685832D01*
X162689777Y-120199783D01*
X161175825Y-121211374D01*
X159357790Y-121573003D01*
X109422203Y-121573003D01*
X107604167Y-121211372D01*
X106593028Y-120535750D01*
X114004997Y-120535750D01*
X114004997Y-121026310D01*
X114101670Y-121259699D01*
X114280299Y-121438327D01*
X114513688Y-121535000D01*
X115129247Y-121535000D01*
X115287997Y-121376250D01*
X115287997Y-120377000D01*
X115541997Y-120377000D01*
X115541997Y-121376250D01*
X115700747Y-121535000D01*
X116316306Y-121535000D01*
X116549695Y-121438327D01*
X116728324Y-121259699D01*
X116824997Y-121026310D01*
X116824997Y-120535750D01*
X121954997Y-120535750D01*
X121954997Y-121026310D01*
X122051670Y-121259699D01*
X122230299Y-121438327D01*
X122463688Y-121535000D01*
X123079247Y-121535000D01*
X123237997Y-121376250D01*
X123237997Y-120377000D01*
X123491997Y-120377000D01*
X123491997Y-121376250D01*
X123650747Y-121535000D01*
X124266306Y-121535000D01*
X124499695Y-121438327D01*
X124678324Y-121259699D01*
X124774997Y-121026310D01*
X124774997Y-120535750D01*
X129004997Y-120535750D01*
X129004997Y-121026310D01*
X129101670Y-121259699D01*
X129280299Y-121438327D01*
X129513688Y-121535000D01*
X130129247Y-121535000D01*
X130287997Y-121376250D01*
X130287997Y-120377000D01*
X130541997Y-120377000D01*
X130541997Y-121376250D01*
X130700747Y-121535000D01*
X131316306Y-121535000D01*
X131549695Y-121438327D01*
X131728324Y-121259699D01*
X131824997Y-121026310D01*
X131824997Y-120535750D01*
X136954997Y-120535750D01*
X136954997Y-121026310D01*
X137051670Y-121259699D01*
X137230299Y-121438327D01*
X137463688Y-121535000D01*
X138079247Y-121535000D01*
X138237997Y-121376250D01*
X138237997Y-120377000D01*
X138491997Y-120377000D01*
X138491997Y-121376250D01*
X138650747Y-121535000D01*
X139266306Y-121535000D01*
X139499695Y-121438327D01*
X139678324Y-121259699D01*
X139774997Y-121026310D01*
X139774997Y-120535750D01*
X144004997Y-120535750D01*
X144004997Y-121026310D01*
X144101670Y-121259699D01*
X144280299Y-121438327D01*
X144513688Y-121535000D01*
X145129247Y-121535000D01*
X145287997Y-121376250D01*
X145287997Y-120377000D01*
X145541997Y-120377000D01*
X145541997Y-121376250D01*
X145700747Y-121535000D01*
X146316306Y-121535000D01*
X146549695Y-121438327D01*
X146728324Y-121259699D01*
X146824997Y-121026310D01*
X146824997Y-120535750D01*
X151954997Y-120535750D01*
X151954997Y-121026310D01*
X152051670Y-121259699D01*
X152230299Y-121438327D01*
X152463688Y-121535000D01*
X153079247Y-121535000D01*
X153237997Y-121376250D01*
X153237997Y-120377000D01*
X153491997Y-120377000D01*
X153491997Y-121376250D01*
X153650747Y-121535000D01*
X154266306Y-121535000D01*
X154499695Y-121438327D01*
X154678324Y-121259699D01*
X154774997Y-121026310D01*
X154774997Y-120535750D01*
X154616247Y-120377000D01*
X153491997Y-120377000D01*
X153237997Y-120377000D01*
X152113747Y-120377000D01*
X151954997Y-120535750D01*
X146824997Y-120535750D01*
X146666247Y-120377000D01*
X145541997Y-120377000D01*
X145287997Y-120377000D01*
X144163747Y-120377000D01*
X144004997Y-120535750D01*
X139774997Y-120535750D01*
X139616247Y-120377000D01*
X138491997Y-120377000D01*
X138237997Y-120377000D01*
X137113747Y-120377000D01*
X136954997Y-120535750D01*
X131824997Y-120535750D01*
X131666247Y-120377000D01*
X130541997Y-120377000D01*
X130287997Y-120377000D01*
X129163747Y-120377000D01*
X129004997Y-120535750D01*
X124774997Y-120535750D01*
X124616247Y-120377000D01*
X123491997Y-120377000D01*
X123237997Y-120377000D01*
X122113747Y-120377000D01*
X121954997Y-120535750D01*
X116824997Y-120535750D01*
X116666247Y-120377000D01*
X115541997Y-120377000D01*
X115287997Y-120377000D01*
X114163747Y-120377000D01*
X114004997Y-120535750D01*
X106593028Y-120535750D01*
X106090216Y-120199782D01*
X105605058Y-119473690D01*
X114004997Y-119473690D01*
X114004997Y-119964250D01*
X114163747Y-120123000D01*
X115287997Y-120123000D01*
X115287997Y-119123750D01*
X115541997Y-119123750D01*
X115541997Y-120123000D01*
X116666247Y-120123000D01*
X116824997Y-119964250D01*
X116824997Y-119473690D01*
X121954997Y-119473690D01*
X121954997Y-119964250D01*
X122113747Y-120123000D01*
X123237997Y-120123000D01*
X123237997Y-119123750D01*
X123491997Y-119123750D01*
X123491997Y-120123000D01*
X124616247Y-120123000D01*
X124774997Y-119964250D01*
X124774997Y-119473690D01*
X129004997Y-119473690D01*
X129004997Y-119964250D01*
X129163747Y-120123000D01*
X130287997Y-120123000D01*
X130287997Y-119123750D01*
X130541997Y-119123750D01*
X130541997Y-120123000D01*
X131666247Y-120123000D01*
X131824997Y-119964250D01*
X131824997Y-119473690D01*
X136954997Y-119473690D01*
X136954997Y-119964250D01*
X137113747Y-120123000D01*
X138237997Y-120123000D01*
X138237997Y-119123750D01*
X138491997Y-119123750D01*
X138491997Y-120123000D01*
X139616247Y-120123000D01*
X139774997Y-119964250D01*
X139774997Y-119473690D01*
X144004997Y-119473690D01*
X144004997Y-119964250D01*
X144163747Y-120123000D01*
X145287997Y-120123000D01*
X145287997Y-119123750D01*
X145541997Y-119123750D01*
X145541997Y-120123000D01*
X146666247Y-120123000D01*
X146824997Y-119964250D01*
X146824997Y-119473690D01*
X151954997Y-119473690D01*
X151954997Y-119964250D01*
X152113747Y-120123000D01*
X153237997Y-120123000D01*
X153237997Y-119123750D01*
X153491997Y-119123750D01*
X153491997Y-120123000D01*
X154616247Y-120123000D01*
X154774997Y-119964250D01*
X154774997Y-119473690D01*
X154678324Y-119240301D01*
X154499695Y-119061673D01*
X154266306Y-118965000D01*
X153650747Y-118965000D01*
X153491997Y-119123750D01*
X153237997Y-119123750D01*
X153079247Y-118965000D01*
X152463688Y-118965000D01*
X152230299Y-119061673D01*
X152051670Y-119240301D01*
X151954997Y-119473690D01*
X146824997Y-119473690D01*
X146728324Y-119240301D01*
X146549695Y-119061673D01*
X146316306Y-118965000D01*
X145700747Y-118965000D01*
X145541997Y-119123750D01*
X145287997Y-119123750D01*
X145129247Y-118965000D01*
X144513688Y-118965000D01*
X144280299Y-119061673D01*
X144101670Y-119240301D01*
X144004997Y-119473690D01*
X139774997Y-119473690D01*
X139678324Y-119240301D01*
X139499695Y-119061673D01*
X139266306Y-118965000D01*
X138650747Y-118965000D01*
X138491997Y-119123750D01*
X138237997Y-119123750D01*
X138079247Y-118965000D01*
X137463688Y-118965000D01*
X137230299Y-119061673D01*
X137051670Y-119240301D01*
X136954997Y-119473690D01*
X131824997Y-119473690D01*
X131728324Y-119240301D01*
X131549695Y-119061673D01*
X131316306Y-118965000D01*
X130700747Y-118965000D01*
X130541997Y-119123750D01*
X130287997Y-119123750D01*
X130129247Y-118965000D01*
X129513688Y-118965000D01*
X129280299Y-119061673D01*
X129101670Y-119240301D01*
X129004997Y-119473690D01*
X124774997Y-119473690D01*
X124678324Y-119240301D01*
X124499695Y-119061673D01*
X124266306Y-118965000D01*
X123650747Y-118965000D01*
X123491997Y-119123750D01*
X123237997Y-119123750D01*
X123079247Y-118965000D01*
X122463688Y-118965000D01*
X122230299Y-119061673D01*
X122051670Y-119240301D01*
X121954997Y-119473690D01*
X116824997Y-119473690D01*
X116728324Y-119240301D01*
X116549695Y-119061673D01*
X116316306Y-118965000D01*
X115700747Y-118965000D01*
X115541997Y-119123750D01*
X115287997Y-119123750D01*
X115129247Y-118965000D01*
X114513688Y-118965000D01*
X114280299Y-119061673D01*
X114101670Y-119240301D01*
X114004997Y-119473690D01*
X105605058Y-119473690D01*
X105078627Y-118685830D01*
X104723404Y-116900003D01*
X107462997Y-116900003D01*
X107609681Y-117637434D01*
X108027402Y-118262598D01*
X108652566Y-118680319D01*
X109389997Y-118827003D01*
X110127428Y-118680319D01*
X110752592Y-118262598D01*
X111170313Y-117637434D01*
X111316997Y-116900003D01*
X157462997Y-116900003D01*
X157609681Y-117637434D01*
X158027402Y-118262598D01*
X158652566Y-118680319D01*
X159389997Y-118827003D01*
X160127428Y-118680319D01*
X160752592Y-118262598D01*
X161170313Y-117637434D01*
X161316997Y-116900003D01*
X161170313Y-116162572D01*
X160752592Y-115537408D01*
X160127428Y-115119687D01*
X159389997Y-114973003D01*
X158652566Y-115119687D01*
X158027402Y-115537408D01*
X157609681Y-116162572D01*
X157462997Y-116900003D01*
X111316997Y-116900003D01*
X111170313Y-116162572D01*
X110752592Y-115537408D01*
X110127428Y-115119687D01*
X110028455Y-115100000D01*
X114357571Y-115100000D01*
X114357571Y-116400000D01*
X114376886Y-116502650D01*
X114437552Y-116596927D01*
X114530117Y-116660175D01*
X114639997Y-116682426D01*
X116189997Y-116682426D01*
X116292647Y-116663111D01*
X116386924Y-116602445D01*
X116450172Y-116509880D01*
X116472423Y-116400000D01*
X116472423Y-116227000D01*
X122307571Y-116227000D01*
X122307571Y-116400000D01*
X122326886Y-116502650D01*
X122387552Y-116596927D01*
X122480117Y-116660175D01*
X122589997Y-116682426D01*
X124139997Y-116682426D01*
X124242647Y-116663111D01*
X124336924Y-116602445D01*
X124400172Y-116509880D01*
X124422423Y-116400000D01*
X124422423Y-116227000D01*
X125372310Y-116227000D01*
X125554850Y-116190691D01*
X125709600Y-116087290D01*
X126696890Y-115100000D01*
X129357571Y-115100000D01*
X129357571Y-116400000D01*
X129376886Y-116502650D01*
X129437552Y-116596927D01*
X129530117Y-116660175D01*
X129639997Y-116682426D01*
X131189997Y-116682426D01*
X131292647Y-116663111D01*
X131386924Y-116602445D01*
X131450172Y-116509880D01*
X131472423Y-116400000D01*
X131472423Y-116227000D01*
X137307571Y-116227000D01*
X137307571Y-116400000D01*
X137326886Y-116502650D01*
X137387552Y-116596927D01*
X137480117Y-116660175D01*
X137589997Y-116682426D01*
X139139997Y-116682426D01*
X139242647Y-116663111D01*
X139336924Y-116602445D01*
X139400172Y-116509880D01*
X139422423Y-116400000D01*
X139422423Y-115100000D01*
X144357571Y-115100000D01*
X144357571Y-116400000D01*
X144376886Y-116502650D01*
X144437552Y-116596927D01*
X144530117Y-116660175D01*
X144639997Y-116682426D01*
X146189997Y-116682426D01*
X146292647Y-116663111D01*
X146386924Y-116602445D01*
X146450172Y-116509880D01*
X146472423Y-116400000D01*
X146472423Y-116227000D01*
X152307571Y-116227000D01*
X152307571Y-116400000D01*
X152326886Y-116502650D01*
X152387552Y-116596927D01*
X152480117Y-116660175D01*
X152589997Y-116682426D01*
X154139997Y-116682426D01*
X154242647Y-116663111D01*
X154336924Y-116602445D01*
X154400172Y-116509880D01*
X154422423Y-116400000D01*
X154422423Y-115100000D01*
X154403108Y-114997350D01*
X154342442Y-114903073D01*
X154249877Y-114839825D01*
X154139997Y-114817574D01*
X153841997Y-114817574D01*
X153841997Y-96152583D01*
X160834580Y-89160000D01*
X161550921Y-89160000D01*
X161636709Y-89591284D01*
X161881012Y-89956909D01*
X162246637Y-90201212D01*
X162677921Y-90287000D01*
X162722079Y-90287000D01*
X163153363Y-90201212D01*
X163518988Y-89956909D01*
X163763291Y-89591284D01*
X163849079Y-89160000D01*
X163763291Y-88728716D01*
X163518988Y-88363091D01*
X163153363Y-88118788D01*
X162722079Y-88033000D01*
X162677921Y-88033000D01*
X162246637Y-88118788D01*
X161881012Y-88363091D01*
X161636709Y-88728716D01*
X161550921Y-89160000D01*
X160834580Y-89160000D01*
X162318978Y-87675602D01*
X162677921Y-87747000D01*
X162722079Y-87747000D01*
X163153363Y-87661212D01*
X163518988Y-87416909D01*
X163763291Y-87051284D01*
X163849079Y-86620000D01*
X163763291Y-86188716D01*
X163518988Y-85823091D01*
X163153363Y-85578788D01*
X162722079Y-85493000D01*
X162677921Y-85493000D01*
X162246637Y-85578788D01*
X161881012Y-85823091D01*
X161636709Y-86188716D01*
X161550921Y-86620000D01*
X161629646Y-87015774D01*
X153027707Y-95617713D01*
X152924306Y-95772463D01*
X152887997Y-95955003D01*
X152887997Y-114817574D01*
X152589997Y-114817574D01*
X152487347Y-114836889D01*
X152393070Y-114897555D01*
X152329822Y-114990120D01*
X152307571Y-115100000D01*
X152307571Y-115273000D01*
X146472423Y-115273000D01*
X146472423Y-115100000D01*
X146453108Y-114997350D01*
X146392442Y-114903073D01*
X146299877Y-114839825D01*
X146189997Y-114817574D01*
X144639997Y-114817574D01*
X144537347Y-114836889D01*
X144443070Y-114897555D01*
X144379822Y-114990120D01*
X144357571Y-115100000D01*
X139422423Y-115100000D01*
X139403108Y-114997350D01*
X139342442Y-114903073D01*
X139249877Y-114839825D01*
X139139997Y-114817574D01*
X139092188Y-114817574D01*
X143476709Y-110433053D01*
X143580110Y-110278304D01*
X143616419Y-110095763D01*
X143616419Y-103838161D01*
X162318978Y-85135602D01*
X162677921Y-85207000D01*
X162722079Y-85207000D01*
X163153363Y-85121212D01*
X163518988Y-84876909D01*
X163763291Y-84511284D01*
X163849079Y-84080000D01*
X163763291Y-83648716D01*
X163518988Y-83283091D01*
X163153363Y-83038788D01*
X162722079Y-82953000D01*
X162677921Y-82953000D01*
X162246637Y-83038788D01*
X161881012Y-83283091D01*
X161636709Y-83648716D01*
X161550921Y-84080000D01*
X161629646Y-84475774D01*
X142802129Y-103303291D01*
X142698728Y-103458041D01*
X142662419Y-103640581D01*
X142662419Y-109898183D01*
X138027707Y-114532895D01*
X137924306Y-114687645D01*
X137898462Y-114817574D01*
X137589997Y-114817574D01*
X137487347Y-114836889D01*
X137393070Y-114897555D01*
X137329822Y-114990120D01*
X137307571Y-115100000D01*
X137307571Y-115273000D01*
X131472423Y-115273000D01*
X131472423Y-115100000D01*
X131453108Y-114997350D01*
X131392442Y-114903073D01*
X131299877Y-114839825D01*
X131189997Y-114817574D01*
X129639997Y-114817574D01*
X129537347Y-114836889D01*
X129443070Y-114897555D01*
X129379822Y-114990120D01*
X129357571Y-115100000D01*
X126696890Y-115100000D01*
X132896887Y-108900003D01*
X136012997Y-108900003D01*
X136155875Y-109618300D01*
X136562758Y-110227242D01*
X137171700Y-110634125D01*
X137889997Y-110777003D01*
X138608294Y-110634125D01*
X139217236Y-110227242D01*
X139624119Y-109618300D01*
X139766997Y-108900003D01*
X139624119Y-108181706D01*
X139217236Y-107572764D01*
X138608294Y-107165881D01*
X137889997Y-107023003D01*
X137171700Y-107165881D01*
X136562758Y-107572764D01*
X136155875Y-108181706D01*
X136012997Y-108900003D01*
X132896887Y-108900003D01*
X157779890Y-84017000D01*
X160700000Y-84017000D01*
X160882540Y-83980691D01*
X161037290Y-83877290D01*
X162318978Y-82595602D01*
X162677921Y-82667000D01*
X162722079Y-82667000D01*
X163153363Y-82581212D01*
X163518988Y-82336909D01*
X163763291Y-81971284D01*
X163849079Y-81540000D01*
X163763291Y-81108716D01*
X163518988Y-80743091D01*
X163153363Y-80498788D01*
X162722079Y-80413000D01*
X162677921Y-80413000D01*
X162246637Y-80498788D01*
X161881012Y-80743091D01*
X161636709Y-81108716D01*
X161550921Y-81540000D01*
X161629646Y-81935774D01*
X160502420Y-83063000D01*
X157582310Y-83063000D01*
X157399770Y-83099309D01*
X157245020Y-83202710D01*
X151114651Y-89333079D01*
X151149079Y-89160000D01*
X151063291Y-88728716D01*
X150818988Y-88363091D01*
X150453363Y-88118788D01*
X150022079Y-88033000D01*
X149977921Y-88033000D01*
X149546637Y-88118788D01*
X149181012Y-88363091D01*
X148936709Y-88728716D01*
X148850921Y-89160000D01*
X148936709Y-89591284D01*
X149181012Y-89956909D01*
X149546637Y-90201212D01*
X149977921Y-90287000D01*
X150022079Y-90287000D01*
X150195158Y-90252572D01*
X125174730Y-115273000D01*
X124422423Y-115273000D01*
X124422423Y-115100000D01*
X124403108Y-114997350D01*
X124342442Y-114903073D01*
X124249877Y-114839825D01*
X124139997Y-114817574D01*
X122589997Y-114817574D01*
X122487347Y-114836889D01*
X122393070Y-114897555D01*
X122329822Y-114990120D01*
X122307571Y-115100000D01*
X122307571Y-115273000D01*
X116472423Y-115273000D01*
X116472423Y-115100000D01*
X116453108Y-114997350D01*
X116392442Y-114903073D01*
X116299877Y-114839825D01*
X116189997Y-114817574D01*
X114639997Y-114817574D01*
X114537347Y-114836889D01*
X114443070Y-114897555D01*
X114379822Y-114990120D01*
X114357571Y-115100000D01*
X110028455Y-115100000D01*
X109389997Y-114973003D01*
X108652566Y-115119687D01*
X108027402Y-115537408D01*
X107609681Y-116162572D01*
X107462997Y-116900003D01*
X104723404Y-116900003D01*
X104716997Y-116867795D01*
X104716997Y-108900003D01*
X107012997Y-108900003D01*
X107155875Y-109618300D01*
X107562758Y-110227242D01*
X108171700Y-110634125D01*
X108889997Y-110777003D01*
X109608294Y-110634125D01*
X110217236Y-110227242D01*
X110624119Y-109618300D01*
X110766997Y-108900003D01*
X110624119Y-108181706D01*
X110217236Y-107572764D01*
X109608294Y-107165881D01*
X108889997Y-107023003D01*
X108171700Y-107165881D01*
X107562758Y-107572764D01*
X107155875Y-108181706D01*
X107012997Y-108900003D01*
X104716997Y-108900003D01*
X104716997Y-99852897D01*
X116567778Y-99852897D01*
X116761780Y-100322417D01*
X117120692Y-100681957D01*
X117589874Y-100876778D01*
X118097896Y-100877221D01*
X118201349Y-100834475D01*
X118093222Y-101094875D01*
X118092779Y-101602897D01*
X118286781Y-102072417D01*
X118645693Y-102431957D01*
X119114875Y-102626778D01*
X119622897Y-102627221D01*
X120092417Y-102433219D01*
X120451957Y-102074307D01*
X120646778Y-101605125D01*
X120647221Y-101097103D01*
X120453219Y-100627583D01*
X120094307Y-100268043D01*
X119847000Y-100165352D01*
X119847000Y-72350474D01*
X120602678Y-71594796D01*
X120597574Y-71620000D01*
X120597574Y-72620000D01*
X120616889Y-72722650D01*
X120677555Y-72816927D01*
X120770120Y-72880175D01*
X120880000Y-72902426D01*
X121487846Y-72902426D01*
X129042994Y-80457574D01*
X129042994Y-84790377D01*
X128797577Y-84891781D01*
X128438037Y-85250693D01*
X128249515Y-85704705D01*
X127709536Y-85504095D01*
X127059537Y-85528147D01*
X126570733Y-85730616D01*
X126472070Y-85997471D01*
X126746702Y-86272103D01*
X126639037Y-86344043D01*
X126567097Y-86451708D01*
X126292465Y-86177076D01*
X126025610Y-86275739D01*
X125799089Y-86885464D01*
X125823141Y-87535463D01*
X126025610Y-88024267D01*
X126292465Y-88122930D01*
X126567097Y-87848298D01*
X126639037Y-87955963D01*
X126746702Y-88027903D01*
X126472070Y-88302535D01*
X126570733Y-88569390D01*
X127180458Y-88795911D01*
X127830457Y-88771859D01*
X128319261Y-88569390D01*
X128417924Y-88302535D01*
X128143292Y-88027903D01*
X128250957Y-87955963D01*
X128322897Y-87848298D01*
X128597529Y-88122930D01*
X128864384Y-88024267D01*
X129090905Y-87414542D01*
X129082074Y-87175875D01*
X129264869Y-87251778D01*
X129772891Y-87252221D01*
X130242411Y-87058219D01*
X130392995Y-86907898D01*
X130392995Y-87063209D01*
X129807704Y-87648500D01*
X129704303Y-87803250D01*
X129667994Y-87985790D01*
X129667994Y-88215380D01*
X129422577Y-88316784D01*
X129063037Y-88675696D01*
X128868216Y-89144878D01*
X128867773Y-89652900D01*
X129061775Y-90122420D01*
X129420687Y-90481960D01*
X129889869Y-90676781D01*
X130397891Y-90677224D01*
X130867411Y-90483222D01*
X131226951Y-90124310D01*
X131421772Y-89655128D01*
X131422215Y-89147106D01*
X131228213Y-88677586D01*
X130869301Y-88318046D01*
X130621994Y-88215355D01*
X130621994Y-88183370D01*
X131207285Y-87598079D01*
X131310686Y-87443329D01*
X131346995Y-87260789D01*
X131346995Y-86620000D01*
X148850921Y-86620000D01*
X148936709Y-87051284D01*
X149181012Y-87416909D01*
X149546637Y-87661212D01*
X149977921Y-87747000D01*
X150022079Y-87747000D01*
X150453363Y-87661212D01*
X150818988Y-87416909D01*
X151063291Y-87051284D01*
X151149079Y-86620000D01*
X151063291Y-86188716D01*
X150818988Y-85823091D01*
X150453363Y-85578788D01*
X150022079Y-85493000D01*
X149977921Y-85493000D01*
X149546637Y-85578788D01*
X149181012Y-85823091D01*
X148936709Y-86188716D01*
X148850921Y-86620000D01*
X131346995Y-86620000D01*
X131346995Y-81896890D01*
X148558524Y-81896890D01*
X148728355Y-82306924D01*
X149118642Y-82735183D01*
X149643108Y-82981486D01*
X149872998Y-82860820D01*
X149872998Y-82973871D01*
X149546637Y-83038788D01*
X149181012Y-83283091D01*
X148936709Y-83648716D01*
X148850921Y-84080000D01*
X148936709Y-84511284D01*
X149181012Y-84876909D01*
X149546637Y-85121212D01*
X149977921Y-85207000D01*
X150022079Y-85207000D01*
X150453363Y-85121212D01*
X150818988Y-84876909D01*
X151063291Y-84511284D01*
X151149079Y-84080000D01*
X151063291Y-83648716D01*
X150818988Y-83283091D01*
X150453363Y-83038788D01*
X150127002Y-82973871D01*
X150127002Y-82860820D01*
X150356892Y-82981486D01*
X150881358Y-82735183D01*
X151271645Y-82306924D01*
X151441476Y-81896890D01*
X151320155Y-81667000D01*
X150127000Y-81667000D01*
X150127000Y-81687000D01*
X149873000Y-81687000D01*
X149873000Y-81667000D01*
X148679845Y-81667000D01*
X148558524Y-81896890D01*
X131346995Y-81896890D01*
X131346995Y-79900003D01*
X136012997Y-79900003D01*
X136155875Y-80618300D01*
X136562758Y-81227242D01*
X137171700Y-81634125D01*
X137889997Y-81777003D01*
X138608294Y-81634125D01*
X139217236Y-81227242D01*
X139246724Y-81183110D01*
X148558524Y-81183110D01*
X148679845Y-81413000D01*
X149873000Y-81413000D01*
X149873000Y-81393000D01*
X150127000Y-81393000D01*
X150127000Y-81413000D01*
X151320155Y-81413000D01*
X151441476Y-81183110D01*
X151271645Y-80773076D01*
X150881358Y-80344817D01*
X150429103Y-80132426D01*
X150850000Y-80132426D01*
X150952650Y-80113111D01*
X151046927Y-80052445D01*
X151110175Y-79959880D01*
X151132426Y-79850000D01*
X151132426Y-78150000D01*
X161567574Y-78150000D01*
X161567574Y-79850000D01*
X161586889Y-79952650D01*
X161647555Y-80046927D01*
X161740120Y-80110175D01*
X161850000Y-80132426D01*
X163550000Y-80132426D01*
X163652650Y-80113111D01*
X163746927Y-80052445D01*
X163810175Y-79959880D01*
X163832426Y-79850000D01*
X163832426Y-78150000D01*
X163813111Y-78047350D01*
X163752445Y-77953073D01*
X163659880Y-77889825D01*
X163550000Y-77867574D01*
X161850000Y-77867574D01*
X161747350Y-77886889D01*
X161653073Y-77947555D01*
X161589825Y-78040120D01*
X161567574Y-78150000D01*
X151132426Y-78150000D01*
X151113111Y-78047350D01*
X151052445Y-77953073D01*
X150959880Y-77889825D01*
X150850000Y-77867574D01*
X149150000Y-77867574D01*
X149047350Y-77886889D01*
X148953073Y-77947555D01*
X148889825Y-78040120D01*
X148867574Y-78150000D01*
X148867574Y-79850000D01*
X148886889Y-79952650D01*
X148947555Y-80046927D01*
X149040120Y-80110175D01*
X149150000Y-80132426D01*
X149570897Y-80132426D01*
X149118642Y-80344817D01*
X148728355Y-80773076D01*
X148558524Y-81183110D01*
X139246724Y-81183110D01*
X139624119Y-80618300D01*
X139766997Y-79900003D01*
X139624119Y-79181706D01*
X139217236Y-78572764D01*
X138608294Y-78165881D01*
X137889997Y-78023003D01*
X137171700Y-78165881D01*
X136562758Y-78572764D01*
X136155875Y-79181706D01*
X136012997Y-79900003D01*
X131346995Y-79900003D01*
X131346995Y-75259995D01*
X131330306Y-75176091D01*
X131310686Y-75077454D01*
X131207285Y-74922705D01*
X127222533Y-70937953D01*
X127237000Y-70865222D01*
X127237000Y-70834778D01*
X127177854Y-70537433D01*
X127009422Y-70285356D01*
X126757345Y-70116924D01*
X126460000Y-70057778D01*
X126162655Y-70116924D01*
X125910578Y-70285356D01*
X125825000Y-70413433D01*
X125739422Y-70285356D01*
X125487345Y-70116924D01*
X125190000Y-70057778D01*
X124892655Y-70116924D01*
X124640578Y-70285356D01*
X124555000Y-70413433D01*
X124469422Y-70285356D01*
X124217345Y-70116924D01*
X123920000Y-70057778D01*
X123622655Y-70116924D01*
X123370578Y-70285356D01*
X123285000Y-70413433D01*
X123199422Y-70285356D01*
X122947345Y-70116924D01*
X122650000Y-70057778D01*
X122551876Y-70077296D01*
X122164580Y-69690000D01*
X139233000Y-69690000D01*
X139233000Y-75690000D01*
X139241685Y-75736159D01*
X139268965Y-75778553D01*
X139310590Y-75806994D01*
X139360000Y-75817000D01*
X149360000Y-75817000D01*
X149406159Y-75808315D01*
X149448553Y-75781035D01*
X149476994Y-75739410D01*
X149487000Y-75690000D01*
X149487000Y-71900003D01*
X157462997Y-71900003D01*
X157609681Y-72637434D01*
X158027402Y-73262598D01*
X158652566Y-73680319D01*
X159389997Y-73827003D01*
X160127428Y-73680319D01*
X160752592Y-73262598D01*
X161170313Y-72637434D01*
X161316997Y-71900003D01*
X161170313Y-71162572D01*
X160752592Y-70537408D01*
X160127428Y-70119687D01*
X159389997Y-69973003D01*
X158652566Y-70119687D01*
X158027402Y-70537408D01*
X157609681Y-71162572D01*
X157462997Y-71900003D01*
X149487000Y-71900003D01*
X149487000Y-69690000D01*
X149478315Y-69643841D01*
X149451035Y-69601447D01*
X149409410Y-69573006D01*
X149360000Y-69563000D01*
X139360000Y-69563000D01*
X139313841Y-69571685D01*
X139271447Y-69598965D01*
X139243006Y-69640590D01*
X139233000Y-69690000D01*
X122164580Y-69690000D01*
X121849042Y-69374462D01*
X121694292Y-69271061D01*
X121511752Y-69234752D01*
X119098248Y-69234752D01*
X118915708Y-69271061D01*
X118760958Y-69374462D01*
X117507709Y-70627711D01*
X117404308Y-70782461D01*
X117367999Y-70965001D01*
X117367999Y-98415377D01*
X117122582Y-98516781D01*
X116763042Y-98875693D01*
X116568221Y-99344875D01*
X116567778Y-99852897D01*
X104716997Y-99852897D01*
X104716997Y-79900003D01*
X107012997Y-79900003D01*
X107155875Y-80618300D01*
X107562758Y-81227242D01*
X108171700Y-81634125D01*
X108889997Y-81777003D01*
X109608294Y-81634125D01*
X110217236Y-81227242D01*
X110624119Y-80618300D01*
X110766997Y-79900003D01*
X110624119Y-79181706D01*
X110217236Y-78572764D01*
X109608294Y-78165881D01*
X108889997Y-78023003D01*
X108171700Y-78165881D01*
X107562758Y-78572764D01*
X107155875Y-79181706D01*
X107012997Y-79900003D01*
X104716997Y-79900003D01*
X104716997Y-71932210D01*
X104723403Y-71900003D01*
X107462997Y-71900003D01*
X107609681Y-72637434D01*
X108027402Y-73262598D01*
X108652566Y-73680319D01*
X109389997Y-73827003D01*
X110127428Y-73680319D01*
X110752592Y-73262598D01*
X111170313Y-72637434D01*
X111316997Y-71900003D01*
X111170313Y-71162572D01*
X110752592Y-70537408D01*
X110127428Y-70119687D01*
X109389997Y-69973003D01*
X108652566Y-70119687D01*
X108027402Y-70537408D01*
X107609681Y-71162572D01*
X107462997Y-71900003D01*
X104723403Y-71900003D01*
X105078626Y-70114175D01*
X106090217Y-68600223D01*
X107604168Y-67588633D01*
X109422204Y-67227003D01*
X159357790Y-67227003D01*
X161175825Y-67588632D01*
X161175825Y-67588632D01*
G37*
X161175825Y-67588632D02*
X162689777Y-68600223D01*
X163701367Y-70114174D01*
X164062997Y-71932210D01*
X164062997Y-116867796D01*
X163701367Y-118685832D01*
X162689777Y-120199783D01*
X161175825Y-121211374D01*
X159357790Y-121573003D01*
X109422203Y-121573003D01*
X107604167Y-121211372D01*
X106593028Y-120535750D01*
X114004997Y-120535750D01*
X114004997Y-121026310D01*
X114101670Y-121259699D01*
X114280299Y-121438327D01*
X114513688Y-121535000D01*
X115129247Y-121535000D01*
X115287997Y-121376250D01*
X115287997Y-120377000D01*
X115541997Y-120377000D01*
X115541997Y-121376250D01*
X115700747Y-121535000D01*
X116316306Y-121535000D01*
X116549695Y-121438327D01*
X116728324Y-121259699D01*
X116824997Y-121026310D01*
X116824997Y-120535750D01*
X121954997Y-120535750D01*
X121954997Y-121026310D01*
X122051670Y-121259699D01*
X122230299Y-121438327D01*
X122463688Y-121535000D01*
X123079247Y-121535000D01*
X123237997Y-121376250D01*
X123237997Y-120377000D01*
X123491997Y-120377000D01*
X123491997Y-121376250D01*
X123650747Y-121535000D01*
X124266306Y-121535000D01*
X124499695Y-121438327D01*
X124678324Y-121259699D01*
X124774997Y-121026310D01*
X124774997Y-120535750D01*
X129004997Y-120535750D01*
X129004997Y-121026310D01*
X129101670Y-121259699D01*
X129280299Y-121438327D01*
X129513688Y-121535000D01*
X130129247Y-121535000D01*
X130287997Y-121376250D01*
X130287997Y-120377000D01*
X130541997Y-120377000D01*
X130541997Y-121376250D01*
X130700747Y-121535000D01*
X131316306Y-121535000D01*
X131549695Y-121438327D01*
X131728324Y-121259699D01*
X131824997Y-121026310D01*
X131824997Y-120535750D01*
X136954997Y-120535750D01*
X136954997Y-121026310D01*
X137051670Y-121259699D01*
X137230299Y-121438327D01*
X137463688Y-121535000D01*
X138079247Y-121535000D01*
X138237997Y-121376250D01*
X138237997Y-120377000D01*
X138491997Y-120377000D01*
X138491997Y-121376250D01*
X138650747Y-121535000D01*
X139266306Y-121535000D01*
X139499695Y-121438327D01*
X139678324Y-121259699D01*
X139774997Y-121026310D01*
X139774997Y-120535750D01*
X144004997Y-120535750D01*
X144004997Y-121026310D01*
X144101670Y-121259699D01*
X144280299Y-121438327D01*
X144513688Y-121535000D01*
X145129247Y-121535000D01*
X145287997Y-121376250D01*
X145287997Y-120377000D01*
X145541997Y-120377000D01*
X145541997Y-121376250D01*
X145700747Y-121535000D01*
X146316306Y-121535000D01*
X146549695Y-121438327D01*
X146728324Y-121259699D01*
X146824997Y-121026310D01*
X146824997Y-120535750D01*
X151954997Y-120535750D01*
X151954997Y-121026310D01*
X152051670Y-121259699D01*
X152230299Y-121438327D01*
X152463688Y-121535000D01*
X153079247Y-121535000D01*
X153237997Y-121376250D01*
X153237997Y-120377000D01*
X153491997Y-120377000D01*
X153491997Y-121376250D01*
X153650747Y-121535000D01*
X154266306Y-121535000D01*
X154499695Y-121438327D01*
X154678324Y-121259699D01*
X154774997Y-121026310D01*
X154774997Y-120535750D01*
X154616247Y-120377000D01*
X153491997Y-120377000D01*
X153237997Y-120377000D01*
X152113747Y-120377000D01*
X151954997Y-120535750D01*
X146824997Y-120535750D01*
X146666247Y-120377000D01*
X145541997Y-120377000D01*
X145287997Y-120377000D01*
X144163747Y-120377000D01*
X144004997Y-120535750D01*
X139774997Y-120535750D01*
X139616247Y-120377000D01*
X138491997Y-120377000D01*
X138237997Y-120377000D01*
X137113747Y-120377000D01*
X136954997Y-120535750D01*
X131824997Y-120535750D01*
X131666247Y-120377000D01*
X130541997Y-120377000D01*
X130287997Y-120377000D01*
X129163747Y-120377000D01*
X129004997Y-120535750D01*
X124774997Y-120535750D01*
X124616247Y-120377000D01*
X123491997Y-120377000D01*
X123237997Y-120377000D01*
X122113747Y-120377000D01*
X121954997Y-120535750D01*
X116824997Y-120535750D01*
X116666247Y-120377000D01*
X115541997Y-120377000D01*
X115287997Y-120377000D01*
X114163747Y-120377000D01*
X114004997Y-120535750D01*
X106593028Y-120535750D01*
X106090216Y-120199782D01*
X105605058Y-119473690D01*
X114004997Y-119473690D01*
X114004997Y-119964250D01*
X114163747Y-120123000D01*
X115287997Y-120123000D01*
X115287997Y-119123750D01*
X115541997Y-119123750D01*
X115541997Y-120123000D01*
X116666247Y-120123000D01*
X116824997Y-119964250D01*
X116824997Y-119473690D01*
X121954997Y-119473690D01*
X121954997Y-119964250D01*
X122113747Y-120123000D01*
X123237997Y-120123000D01*
X123237997Y-119123750D01*
X123491997Y-119123750D01*
X123491997Y-120123000D01*
X124616247Y-120123000D01*
X124774997Y-119964250D01*
X124774997Y-119473690D01*
X129004997Y-119473690D01*
X129004997Y-119964250D01*
X129163747Y-120123000D01*
X130287997Y-120123000D01*
X130287997Y-119123750D01*
X130541997Y-119123750D01*
X130541997Y-120123000D01*
X131666247Y-120123000D01*
X131824997Y-119964250D01*
X131824997Y-119473690D01*
X136954997Y-119473690D01*
X136954997Y-119964250D01*
X137113747Y-120123000D01*
X138237997Y-120123000D01*
X138237997Y-119123750D01*
X138491997Y-119123750D01*
X138491997Y-120123000D01*
X139616247Y-120123000D01*
X139774997Y-119964250D01*
X139774997Y-119473690D01*
X144004997Y-119473690D01*
X144004997Y-119964250D01*
X144163747Y-120123000D01*
X145287997Y-120123000D01*
X145287997Y-119123750D01*
X145541997Y-119123750D01*
X145541997Y-120123000D01*
X146666247Y-120123000D01*
X146824997Y-119964250D01*
X146824997Y-119473690D01*
X151954997Y-119473690D01*
X151954997Y-119964250D01*
X152113747Y-120123000D01*
X153237997Y-120123000D01*
X153237997Y-119123750D01*
X153491997Y-119123750D01*
X153491997Y-120123000D01*
X154616247Y-120123000D01*
X154774997Y-119964250D01*
X154774997Y-119473690D01*
X154678324Y-119240301D01*
X154499695Y-119061673D01*
X154266306Y-118965000D01*
X153650747Y-118965000D01*
X153491997Y-119123750D01*
X153237997Y-119123750D01*
X153079247Y-118965000D01*
X152463688Y-118965000D01*
X152230299Y-119061673D01*
X152051670Y-119240301D01*
X151954997Y-119473690D01*
X146824997Y-119473690D01*
X146728324Y-119240301D01*
X146549695Y-119061673D01*
X146316306Y-118965000D01*
X145700747Y-118965000D01*
X145541997Y-119123750D01*
X145287997Y-119123750D01*
X145129247Y-118965000D01*
X144513688Y-118965000D01*
X144280299Y-119061673D01*
X144101670Y-119240301D01*
X144004997Y-119473690D01*
X139774997Y-119473690D01*
X139678324Y-119240301D01*
X139499695Y-119061673D01*
X139266306Y-118965000D01*
X138650747Y-118965000D01*
X138491997Y-119123750D01*
X138237997Y-119123750D01*
X138079247Y-118965000D01*
X137463688Y-118965000D01*
X137230299Y-119061673D01*
X137051670Y-119240301D01*
X136954997Y-119473690D01*
X131824997Y-119473690D01*
X131728324Y-119240301D01*
X131549695Y-119061673D01*
X131316306Y-118965000D01*
X130700747Y-118965000D01*
X130541997Y-119123750D01*
X130287997Y-119123750D01*
X130129247Y-118965000D01*
X129513688Y-118965000D01*
X129280299Y-119061673D01*
X129101670Y-119240301D01*
X129004997Y-119473690D01*
X124774997Y-119473690D01*
X124678324Y-119240301D01*
X124499695Y-119061673D01*
X124266306Y-118965000D01*
X123650747Y-118965000D01*
X123491997Y-119123750D01*
X123237997Y-119123750D01*
X123079247Y-118965000D01*
X122463688Y-118965000D01*
X122230299Y-119061673D01*
X122051670Y-119240301D01*
X121954997Y-119473690D01*
X116824997Y-119473690D01*
X116728324Y-119240301D01*
X116549695Y-119061673D01*
X116316306Y-118965000D01*
X115700747Y-118965000D01*
X115541997Y-119123750D01*
X115287997Y-119123750D01*
X115129247Y-118965000D01*
X114513688Y-118965000D01*
X114280299Y-119061673D01*
X114101670Y-119240301D01*
X114004997Y-119473690D01*
X105605058Y-119473690D01*
X105078627Y-118685830D01*
X104723404Y-116900003D01*
X107462997Y-116900003D01*
X107609681Y-117637434D01*
X108027402Y-118262598D01*
X108652566Y-118680319D01*
X109389997Y-118827003D01*
X110127428Y-118680319D01*
X110752592Y-118262598D01*
X111170313Y-117637434D01*
X111316997Y-116900003D01*
X157462997Y-116900003D01*
X157609681Y-117637434D01*
X158027402Y-118262598D01*
X158652566Y-118680319D01*
X159389997Y-118827003D01*
X160127428Y-118680319D01*
X160752592Y-118262598D01*
X161170313Y-117637434D01*
X161316997Y-116900003D01*
X161170313Y-116162572D01*
X160752592Y-115537408D01*
X160127428Y-115119687D01*
X159389997Y-114973003D01*
X158652566Y-115119687D01*
X158027402Y-115537408D01*
X157609681Y-116162572D01*
X157462997Y-116900003D01*
X111316997Y-116900003D01*
X111170313Y-116162572D01*
X110752592Y-115537408D01*
X110127428Y-115119687D01*
X110028455Y-115100000D01*
X114357571Y-115100000D01*
X114357571Y-116400000D01*
X114376886Y-116502650D01*
X114437552Y-116596927D01*
X114530117Y-116660175D01*
X114639997Y-116682426D01*
X116189997Y-116682426D01*
X116292647Y-116663111D01*
X116386924Y-116602445D01*
X116450172Y-116509880D01*
X116472423Y-116400000D01*
X116472423Y-116227000D01*
X122307571Y-116227000D01*
X122307571Y-116400000D01*
X122326886Y-116502650D01*
X122387552Y-116596927D01*
X122480117Y-116660175D01*
X122589997Y-116682426D01*
X124139997Y-116682426D01*
X124242647Y-116663111D01*
X124336924Y-116602445D01*
X124400172Y-116509880D01*
X124422423Y-116400000D01*
X124422423Y-116227000D01*
X125372310Y-116227000D01*
X125554850Y-116190691D01*
X125709600Y-116087290D01*
X126696890Y-115100000D01*
X129357571Y-115100000D01*
X129357571Y-116400000D01*
X129376886Y-116502650D01*
X129437552Y-116596927D01*
X129530117Y-116660175D01*
X129639997Y-116682426D01*
X131189997Y-116682426D01*
X131292647Y-116663111D01*
X131386924Y-116602445D01*
X131450172Y-116509880D01*
X131472423Y-116400000D01*
X131472423Y-116227000D01*
X137307571Y-116227000D01*
X137307571Y-116400000D01*
X137326886Y-116502650D01*
X137387552Y-116596927D01*
X137480117Y-116660175D01*
X137589997Y-116682426D01*
X139139997Y-116682426D01*
X139242647Y-116663111D01*
X139336924Y-116602445D01*
X139400172Y-116509880D01*
X139422423Y-116400000D01*
X139422423Y-115100000D01*
X144357571Y-115100000D01*
X144357571Y-116400000D01*
X144376886Y-116502650D01*
X144437552Y-116596927D01*
X144530117Y-116660175D01*
X144639997Y-116682426D01*
X146189997Y-116682426D01*
X146292647Y-116663111D01*
X146386924Y-116602445D01*
X146450172Y-116509880D01*
X146472423Y-116400000D01*
X146472423Y-116227000D01*
X152307571Y-116227000D01*
X152307571Y-116400000D01*
X152326886Y-116502650D01*
X152387552Y-116596927D01*
X152480117Y-116660175D01*
X152589997Y-116682426D01*
X154139997Y-116682426D01*
X154242647Y-116663111D01*
X154336924Y-116602445D01*
X154400172Y-116509880D01*
X154422423Y-116400000D01*
X154422423Y-115100000D01*
X154403108Y-114997350D01*
X154342442Y-114903073D01*
X154249877Y-114839825D01*
X154139997Y-114817574D01*
X153841997Y-114817574D01*
X153841997Y-96152583D01*
X160834580Y-89160000D01*
X161550921Y-89160000D01*
X161636709Y-89591284D01*
X161881012Y-89956909D01*
X162246637Y-90201212D01*
X162677921Y-90287000D01*
X162722079Y-90287000D01*
X163153363Y-90201212D01*
X163518988Y-89956909D01*
X163763291Y-89591284D01*
X163849079Y-89160000D01*
X163763291Y-88728716D01*
X163518988Y-88363091D01*
X163153363Y-88118788D01*
X162722079Y-88033000D01*
X162677921Y-88033000D01*
X162246637Y-88118788D01*
X161881012Y-88363091D01*
X161636709Y-88728716D01*
X161550921Y-89160000D01*
X160834580Y-89160000D01*
X162318978Y-87675602D01*
X162677921Y-87747000D01*
X162722079Y-87747000D01*
X163153363Y-87661212D01*
X163518988Y-87416909D01*
X163763291Y-87051284D01*
X163849079Y-86620000D01*
X163763291Y-86188716D01*
X163518988Y-85823091D01*
X163153363Y-85578788D01*
X162722079Y-85493000D01*
X162677921Y-85493000D01*
X162246637Y-85578788D01*
X161881012Y-85823091D01*
X161636709Y-86188716D01*
X161550921Y-86620000D01*
X161629646Y-87015774D01*
X153027707Y-95617713D01*
X152924306Y-95772463D01*
X152887997Y-95955003D01*
X152887997Y-114817574D01*
X152589997Y-114817574D01*
X152487347Y-114836889D01*
X152393070Y-114897555D01*
X152329822Y-114990120D01*
X152307571Y-115100000D01*
X152307571Y-115273000D01*
X146472423Y-115273000D01*
X146472423Y-115100000D01*
X146453108Y-114997350D01*
X146392442Y-114903073D01*
X146299877Y-114839825D01*
X146189997Y-114817574D01*
X144639997Y-114817574D01*
X144537347Y-114836889D01*
X144443070Y-114897555D01*
X144379822Y-114990120D01*
X144357571Y-115100000D01*
X139422423Y-115100000D01*
X139403108Y-114997350D01*
X139342442Y-114903073D01*
X139249877Y-114839825D01*
X139139997Y-114817574D01*
X139092188Y-114817574D01*
X143476709Y-110433053D01*
X143580110Y-110278304D01*
X143616419Y-110095763D01*
X143616419Y-103838161D01*
X162318978Y-85135602D01*
X162677921Y-85207000D01*
X162722079Y-85207000D01*
X163153363Y-85121212D01*
X163518988Y-84876909D01*
X163763291Y-84511284D01*
X163849079Y-84080000D01*
X163763291Y-83648716D01*
X163518988Y-83283091D01*
X163153363Y-83038788D01*
X162722079Y-82953000D01*
X162677921Y-82953000D01*
X162246637Y-83038788D01*
X161881012Y-83283091D01*
X161636709Y-83648716D01*
X161550921Y-84080000D01*
X161629646Y-84475774D01*
X142802129Y-103303291D01*
X142698728Y-103458041D01*
X142662419Y-103640581D01*
X142662419Y-109898183D01*
X138027707Y-114532895D01*
X137924306Y-114687645D01*
X137898462Y-114817574D01*
X137589997Y-114817574D01*
X137487347Y-114836889D01*
X137393070Y-114897555D01*
X137329822Y-114990120D01*
X137307571Y-115100000D01*
X137307571Y-115273000D01*
X131472423Y-115273000D01*
X131472423Y-115100000D01*
X131453108Y-114997350D01*
X131392442Y-114903073D01*
X131299877Y-114839825D01*
X131189997Y-114817574D01*
X129639997Y-114817574D01*
X129537347Y-114836889D01*
X129443070Y-114897555D01*
X129379822Y-114990120D01*
X129357571Y-115100000D01*
X126696890Y-115100000D01*
X132896887Y-108900003D01*
X136012997Y-108900003D01*
X136155875Y-109618300D01*
X136562758Y-110227242D01*
X137171700Y-110634125D01*
X137889997Y-110777003D01*
X138608294Y-110634125D01*
X139217236Y-110227242D01*
X139624119Y-109618300D01*
X139766997Y-108900003D01*
X139624119Y-108181706D01*
X139217236Y-107572764D01*
X138608294Y-107165881D01*
X137889997Y-107023003D01*
X137171700Y-107165881D01*
X136562758Y-107572764D01*
X136155875Y-108181706D01*
X136012997Y-108900003D01*
X132896887Y-108900003D01*
X157779890Y-84017000D01*
X160700000Y-84017000D01*
X160882540Y-83980691D01*
X161037290Y-83877290D01*
X162318978Y-82595602D01*
X162677921Y-82667000D01*
X162722079Y-82667000D01*
X163153363Y-82581212D01*
X163518988Y-82336909D01*
X163763291Y-81971284D01*
X163849079Y-81540000D01*
X163763291Y-81108716D01*
X163518988Y-80743091D01*
X163153363Y-80498788D01*
X162722079Y-80413000D01*
X162677921Y-80413000D01*
X162246637Y-80498788D01*
X161881012Y-80743091D01*
X161636709Y-81108716D01*
X161550921Y-81540000D01*
X161629646Y-81935774D01*
X160502420Y-83063000D01*
X157582310Y-83063000D01*
X157399770Y-83099309D01*
X157245020Y-83202710D01*
X151114651Y-89333079D01*
X151149079Y-89160000D01*
X151063291Y-88728716D01*
X150818988Y-88363091D01*
X150453363Y-88118788D01*
X150022079Y-88033000D01*
X149977921Y-88033000D01*
X149546637Y-88118788D01*
X149181012Y-88363091D01*
X148936709Y-88728716D01*
X148850921Y-89160000D01*
X148936709Y-89591284D01*
X149181012Y-89956909D01*
X149546637Y-90201212D01*
X149977921Y-90287000D01*
X150022079Y-90287000D01*
X150195158Y-90252572D01*
X125174730Y-115273000D01*
X124422423Y-115273000D01*
X124422423Y-115100000D01*
X124403108Y-114997350D01*
X124342442Y-114903073D01*
X124249877Y-114839825D01*
X124139997Y-114817574D01*
X122589997Y-114817574D01*
X122487347Y-114836889D01*
X122393070Y-114897555D01*
X122329822Y-114990120D01*
X122307571Y-115100000D01*
X122307571Y-115273000D01*
X116472423Y-115273000D01*
X116472423Y-115100000D01*
X116453108Y-114997350D01*
X116392442Y-114903073D01*
X116299877Y-114839825D01*
X116189997Y-114817574D01*
X114639997Y-114817574D01*
X114537347Y-114836889D01*
X114443070Y-114897555D01*
X114379822Y-114990120D01*
X114357571Y-115100000D01*
X110028455Y-115100000D01*
X109389997Y-114973003D01*
X108652566Y-115119687D01*
X108027402Y-115537408D01*
X107609681Y-116162572D01*
X107462997Y-116900003D01*
X104723404Y-116900003D01*
X104716997Y-116867795D01*
X104716997Y-108900003D01*
X107012997Y-108900003D01*
X107155875Y-109618300D01*
X107562758Y-110227242D01*
X108171700Y-110634125D01*
X108889997Y-110777003D01*
X109608294Y-110634125D01*
X110217236Y-110227242D01*
X110624119Y-109618300D01*
X110766997Y-108900003D01*
X110624119Y-108181706D01*
X110217236Y-107572764D01*
X109608294Y-107165881D01*
X108889997Y-107023003D01*
X108171700Y-107165881D01*
X107562758Y-107572764D01*
X107155875Y-108181706D01*
X107012997Y-108900003D01*
X104716997Y-108900003D01*
X104716997Y-99852897D01*
X116567778Y-99852897D01*
X116761780Y-100322417D01*
X117120692Y-100681957D01*
X117589874Y-100876778D01*
X118097896Y-100877221D01*
X118201349Y-100834475D01*
X118093222Y-101094875D01*
X118092779Y-101602897D01*
X118286781Y-102072417D01*
X118645693Y-102431957D01*
X119114875Y-102626778D01*
X119622897Y-102627221D01*
X120092417Y-102433219D01*
X120451957Y-102074307D01*
X120646778Y-101605125D01*
X120647221Y-101097103D01*
X120453219Y-100627583D01*
X120094307Y-100268043D01*
X119847000Y-100165352D01*
X119847000Y-72350474D01*
X120602678Y-71594796D01*
X120597574Y-71620000D01*
X120597574Y-72620000D01*
X120616889Y-72722650D01*
X120677555Y-72816927D01*
X120770120Y-72880175D01*
X120880000Y-72902426D01*
X121487846Y-72902426D01*
X129042994Y-80457574D01*
X129042994Y-84790377D01*
X128797577Y-84891781D01*
X128438037Y-85250693D01*
X128249515Y-85704705D01*
X127709536Y-85504095D01*
X127059537Y-85528147D01*
X126570733Y-85730616D01*
X126472070Y-85997471D01*
X126746702Y-86272103D01*
X126639037Y-86344043D01*
X126567097Y-86451708D01*
X126292465Y-86177076D01*
X126025610Y-86275739D01*
X125799089Y-86885464D01*
X125823141Y-87535463D01*
X126025610Y-88024267D01*
X126292465Y-88122930D01*
X126567097Y-87848298D01*
X126639037Y-87955963D01*
X126746702Y-88027903D01*
X126472070Y-88302535D01*
X126570733Y-88569390D01*
X127180458Y-88795911D01*
X127830457Y-88771859D01*
X128319261Y-88569390D01*
X128417924Y-88302535D01*
X128143292Y-88027903D01*
X128250957Y-87955963D01*
X128322897Y-87848298D01*
X128597529Y-88122930D01*
X128864384Y-88024267D01*
X129090905Y-87414542D01*
X129082074Y-87175875D01*
X129264869Y-87251778D01*
X129772891Y-87252221D01*
X130242411Y-87058219D01*
X130392995Y-86907898D01*
X130392995Y-87063209D01*
X129807704Y-87648500D01*
X129704303Y-87803250D01*
X129667994Y-87985790D01*
X129667994Y-88215380D01*
X129422577Y-88316784D01*
X129063037Y-88675696D01*
X128868216Y-89144878D01*
X128867773Y-89652900D01*
X129061775Y-90122420D01*
X129420687Y-90481960D01*
X129889869Y-90676781D01*
X130397891Y-90677224D01*
X130867411Y-90483222D01*
X131226951Y-90124310D01*
X131421772Y-89655128D01*
X131422215Y-89147106D01*
X131228213Y-88677586D01*
X130869301Y-88318046D01*
X130621994Y-88215355D01*
X130621994Y-88183370D01*
X131207285Y-87598079D01*
X131310686Y-87443329D01*
X131346995Y-87260789D01*
X131346995Y-86620000D01*
X148850921Y-86620000D01*
X148936709Y-87051284D01*
X149181012Y-87416909D01*
X149546637Y-87661212D01*
X149977921Y-87747000D01*
X150022079Y-87747000D01*
X150453363Y-87661212D01*
X150818988Y-87416909D01*
X151063291Y-87051284D01*
X151149079Y-86620000D01*
X151063291Y-86188716D01*
X150818988Y-85823091D01*
X150453363Y-85578788D01*
X150022079Y-85493000D01*
X149977921Y-85493000D01*
X149546637Y-85578788D01*
X149181012Y-85823091D01*
X148936709Y-86188716D01*
X148850921Y-86620000D01*
X131346995Y-86620000D01*
X131346995Y-81896890D01*
X148558524Y-81896890D01*
X148728355Y-82306924D01*
X149118642Y-82735183D01*
X149643108Y-82981486D01*
X149872998Y-82860820D01*
X149872998Y-82973871D01*
X149546637Y-83038788D01*
X149181012Y-83283091D01*
X148936709Y-83648716D01*
X148850921Y-84080000D01*
X148936709Y-84511284D01*
X149181012Y-84876909D01*
X149546637Y-85121212D01*
X149977921Y-85207000D01*
X150022079Y-85207000D01*
X150453363Y-85121212D01*
X150818988Y-84876909D01*
X151063291Y-84511284D01*
X151149079Y-84080000D01*
X151063291Y-83648716D01*
X150818988Y-83283091D01*
X150453363Y-83038788D01*
X150127002Y-82973871D01*
X150127002Y-82860820D01*
X150356892Y-82981486D01*
X150881358Y-82735183D01*
X151271645Y-82306924D01*
X151441476Y-81896890D01*
X151320155Y-81667000D01*
X150127000Y-81667000D01*
X150127000Y-81687000D01*
X149873000Y-81687000D01*
X149873000Y-81667000D01*
X148679845Y-81667000D01*
X148558524Y-81896890D01*
X131346995Y-81896890D01*
X131346995Y-79900003D01*
X136012997Y-79900003D01*
X136155875Y-80618300D01*
X136562758Y-81227242D01*
X137171700Y-81634125D01*
X137889997Y-81777003D01*
X138608294Y-81634125D01*
X139217236Y-81227242D01*
X139246724Y-81183110D01*
X148558524Y-81183110D01*
X148679845Y-81413000D01*
X149873000Y-81413000D01*
X149873000Y-81393000D01*
X150127000Y-81393000D01*
X150127000Y-81413000D01*
X151320155Y-81413000D01*
X151441476Y-81183110D01*
X151271645Y-80773076D01*
X150881358Y-80344817D01*
X150429103Y-80132426D01*
X150850000Y-80132426D01*
X150952650Y-80113111D01*
X151046927Y-80052445D01*
X151110175Y-79959880D01*
X151132426Y-79850000D01*
X151132426Y-78150000D01*
X161567574Y-78150000D01*
X161567574Y-79850000D01*
X161586889Y-79952650D01*
X161647555Y-80046927D01*
X161740120Y-80110175D01*
X161850000Y-80132426D01*
X163550000Y-80132426D01*
X163652650Y-80113111D01*
X163746927Y-80052445D01*
X163810175Y-79959880D01*
X163832426Y-79850000D01*
X163832426Y-78150000D01*
X163813111Y-78047350D01*
X163752445Y-77953073D01*
X163659880Y-77889825D01*
X163550000Y-77867574D01*
X161850000Y-77867574D01*
X161747350Y-77886889D01*
X161653073Y-77947555D01*
X161589825Y-78040120D01*
X161567574Y-78150000D01*
X151132426Y-78150000D01*
X151113111Y-78047350D01*
X151052445Y-77953073D01*
X150959880Y-77889825D01*
X150850000Y-77867574D01*
X149150000Y-77867574D01*
X149047350Y-77886889D01*
X148953073Y-77947555D01*
X148889825Y-78040120D01*
X148867574Y-78150000D01*
X148867574Y-79850000D01*
X148886889Y-79952650D01*
X148947555Y-80046927D01*
X149040120Y-80110175D01*
X149150000Y-80132426D01*
X149570897Y-80132426D01*
X149118642Y-80344817D01*
X148728355Y-80773076D01*
X148558524Y-81183110D01*
X139246724Y-81183110D01*
X139624119Y-80618300D01*
X139766997Y-79900003D01*
X139624119Y-79181706D01*
X139217236Y-78572764D01*
X138608294Y-78165881D01*
X137889997Y-78023003D01*
X137171700Y-78165881D01*
X136562758Y-78572764D01*
X136155875Y-79181706D01*
X136012997Y-79900003D01*
X131346995Y-79900003D01*
X131346995Y-75259995D01*
X131330306Y-75176091D01*
X131310686Y-75077454D01*
X131207285Y-74922705D01*
X127222533Y-70937953D01*
X127237000Y-70865222D01*
X127237000Y-70834778D01*
X127177854Y-70537433D01*
X127009422Y-70285356D01*
X126757345Y-70116924D01*
X126460000Y-70057778D01*
X126162655Y-70116924D01*
X125910578Y-70285356D01*
X125825000Y-70413433D01*
X125739422Y-70285356D01*
X125487345Y-70116924D01*
X125190000Y-70057778D01*
X124892655Y-70116924D01*
X124640578Y-70285356D01*
X124555000Y-70413433D01*
X124469422Y-70285356D01*
X124217345Y-70116924D01*
X123920000Y-70057778D01*
X123622655Y-70116924D01*
X123370578Y-70285356D01*
X123285000Y-70413433D01*
X123199422Y-70285356D01*
X122947345Y-70116924D01*
X122650000Y-70057778D01*
X122551876Y-70077296D01*
X122164580Y-69690000D01*
X139233000Y-69690000D01*
X139233000Y-75690000D01*
X139241685Y-75736159D01*
X139268965Y-75778553D01*
X139310590Y-75806994D01*
X139360000Y-75817000D01*
X149360000Y-75817000D01*
X149406159Y-75808315D01*
X149448553Y-75781035D01*
X149476994Y-75739410D01*
X149487000Y-75690000D01*
X149487000Y-71900003D01*
X157462997Y-71900003D01*
X157609681Y-72637434D01*
X158027402Y-73262598D01*
X158652566Y-73680319D01*
X159389997Y-73827003D01*
X160127428Y-73680319D01*
X160752592Y-73262598D01*
X161170313Y-72637434D01*
X161316997Y-71900003D01*
X161170313Y-71162572D01*
X160752592Y-70537408D01*
X160127428Y-70119687D01*
X159389997Y-69973003D01*
X158652566Y-70119687D01*
X158027402Y-70537408D01*
X157609681Y-71162572D01*
X157462997Y-71900003D01*
X149487000Y-71900003D01*
X149487000Y-69690000D01*
X149478315Y-69643841D01*
X149451035Y-69601447D01*
X149409410Y-69573006D01*
X149360000Y-69563000D01*
X139360000Y-69563000D01*
X139313841Y-69571685D01*
X139271447Y-69598965D01*
X139243006Y-69640590D01*
X139233000Y-69690000D01*
X122164580Y-69690000D01*
X121849042Y-69374462D01*
X121694292Y-69271061D01*
X121511752Y-69234752D01*
X119098248Y-69234752D01*
X118915708Y-69271061D01*
X118760958Y-69374462D01*
X117507709Y-70627711D01*
X117404308Y-70782461D01*
X117367999Y-70965001D01*
X117367999Y-98415377D01*
X117122582Y-98516781D01*
X116763042Y-98875693D01*
X116568221Y-99344875D01*
X116567778Y-99852897D01*
X104716997Y-99852897D01*
X104716997Y-79900003D01*
X107012997Y-79900003D01*
X107155875Y-80618300D01*
X107562758Y-81227242D01*
X108171700Y-81634125D01*
X108889997Y-81777003D01*
X109608294Y-81634125D01*
X110217236Y-81227242D01*
X110624119Y-80618300D01*
X110766997Y-79900003D01*
X110624119Y-79181706D01*
X110217236Y-78572764D01*
X109608294Y-78165881D01*
X108889997Y-78023003D01*
X108171700Y-78165881D01*
X107562758Y-78572764D01*
X107155875Y-79181706D01*
X107012997Y-79900003D01*
X104716997Y-79900003D01*
X104716997Y-71932210D01*
X104723403Y-71900003D01*
X107462997Y-71900003D01*
X107609681Y-72637434D01*
X108027402Y-73262598D01*
X108652566Y-73680319D01*
X109389997Y-73827003D01*
X110127428Y-73680319D01*
X110752592Y-73262598D01*
X111170313Y-72637434D01*
X111316997Y-71900003D01*
X111170313Y-71162572D01*
X110752592Y-70537408D01*
X110127428Y-70119687D01*
X109389997Y-69973003D01*
X108652566Y-70119687D01*
X108027402Y-70537408D01*
X107609681Y-71162572D01*
X107462997Y-71900003D01*
X104723403Y-71900003D01*
X105078626Y-70114175D01*
X106090217Y-68600223D01*
X107604168Y-67588633D01*
X109422204Y-67227003D01*
X159357790Y-67227003D01*
X161175825Y-67588632D01*
G36*
X127444997Y-86970398D02*
X127459140Y-86956256D01*
X127638745Y-87135861D01*
X127624602Y-87150003D01*
X127860449Y-87385850D01*
X127788509Y-87493515D01*
X127680844Y-87565455D01*
X127444997Y-87329608D01*
X127209150Y-87565455D01*
X127101485Y-87493515D01*
X127029545Y-87385850D01*
X127265392Y-87150003D01*
X127029545Y-86914156D01*
X127101485Y-86806491D01*
X127209150Y-86734551D01*
X127444997Y-86970398D01*
X127444997Y-86970398D01*
G37*
X127444997Y-86970398D02*
X127459140Y-86956256D01*
X127638745Y-87135861D01*
X127624602Y-87150003D01*
X127860449Y-87385850D01*
X127788509Y-87493515D01*
X127680844Y-87565455D01*
X127444997Y-87329608D01*
X127209150Y-87565455D01*
X127101485Y-87493515D01*
X127029545Y-87385850D01*
X127265392Y-87150003D01*
X127029545Y-86914156D01*
X127101485Y-86806491D01*
X127209150Y-86734551D01*
X127444997Y-86970398D01*
G36*
X122777000Y-71993000D02*
X123793000Y-71993000D01*
X123793000Y-71973000D01*
X124047000Y-71973000D01*
X124047000Y-71993000D01*
X124067000Y-71993000D01*
X124067000Y-72247000D01*
X124047000Y-72247000D01*
X124047000Y-73087954D01*
X124221874Y-73214119D01*
X124480209Y-73107127D01*
X124815323Y-72817604D01*
X124821416Y-72805476D01*
X124892655Y-72853076D01*
X125190000Y-72912222D01*
X125487345Y-72853076D01*
X125739422Y-72684644D01*
X125825000Y-72556567D01*
X125910578Y-72684644D01*
X126162655Y-72853076D01*
X126460000Y-72912222D01*
X126757345Y-72853076D01*
X127009422Y-72684644D01*
X127177854Y-72432567D01*
X127209399Y-72273979D01*
X130392995Y-75457575D01*
X130392995Y-85041997D01*
X130244301Y-84893043D01*
X129996994Y-84790352D01*
X129996994Y-80259994D01*
X129960685Y-80077454D01*
X129857284Y-79922704D01*
X123091056Y-73156476D01*
X123210209Y-73107127D01*
X123285000Y-73042511D01*
X123359791Y-73107127D01*
X123618126Y-73214119D01*
X123793000Y-73087954D01*
X123793000Y-72247000D01*
X122777000Y-72247000D01*
X122777000Y-72267000D01*
X122523000Y-72267000D01*
X122523000Y-72247000D01*
X122503000Y-72247000D01*
X122503000Y-71993000D01*
X122523000Y-71993000D01*
X122523000Y-71973000D01*
X122777000Y-71973000D01*
X122777000Y-71993000D01*
X122777000Y-71993000D01*
G37*
X122777000Y-71993000D02*
X123793000Y-71993000D01*
X123793000Y-71973000D01*
X124047000Y-71973000D01*
X124047000Y-71993000D01*
X124067000Y-71993000D01*
X124067000Y-72247000D01*
X124047000Y-72247000D01*
X124047000Y-73087954D01*
X124221874Y-73214119D01*
X124480209Y-73107127D01*
X124815323Y-72817604D01*
X124821416Y-72805476D01*
X124892655Y-72853076D01*
X125190000Y-72912222D01*
X125487345Y-72853076D01*
X125739422Y-72684644D01*
X125825000Y-72556567D01*
X125910578Y-72684644D01*
X126162655Y-72853076D01*
X126460000Y-72912222D01*
X126757345Y-72853076D01*
X127009422Y-72684644D01*
X127177854Y-72432567D01*
X127209399Y-72273979D01*
X130392995Y-75457575D01*
X130392995Y-85041997D01*
X130244301Y-84893043D01*
X129996994Y-84790352D01*
X129996994Y-80259994D01*
X129960685Y-80077454D01*
X129857284Y-79922704D01*
X123091056Y-73156476D01*
X123210209Y-73107127D01*
X123285000Y-73042511D01*
X123359791Y-73107127D01*
X123618126Y-73214119D01*
X123793000Y-73087954D01*
X123793000Y-72247000D01*
X122777000Y-72247000D01*
X122777000Y-72267000D01*
X122523000Y-72267000D01*
X122523000Y-72247000D01*
X122503000Y-72247000D01*
X122503000Y-71993000D01*
X122523000Y-71993000D01*
X122523000Y-71973000D01*
X122777000Y-71973000D01*
X122777000Y-71993000D01*
M02*
