G04 #@! TF.FileFunction,Profile,NP*
%FSLAX46Y46*%
G04 Gerber Fmt 4.6, Leading zero omitted, Abs format (unit mm)*
G04 Created by KiCad (PCBNEW 4.0.4-stable) date 07/06/18 22:39:36*
%MOMM*%
%LPD*%
G01*
G04 APERTURE LIST*
%ADD10C,0.100000*%
G04 APERTURE END LIST*
D10*
X172620000Y-65350000D02*
G75*
G02X175620000Y-68350000I0J-3000000D01*
G01*
X165287191Y-65350000D02*
X172620000Y-65350000D01*
X165287191Y-65350000D02*
G75*
G02X160859772Y-64316491I0J10000000D01*
G01*
X150213079Y-59059434D02*
X160859777Y-64316491D01*
X145785664Y-58025926D02*
G75*
G02X150213084Y-59059435I1J-10000000D01*
G01*
X130454335Y-58025926D02*
X145785665Y-58025926D01*
X126026915Y-59059435D02*
G75*
G02X130454334Y-58025926I4427420J-8966491D01*
G01*
X126026921Y-59059434D02*
X115380223Y-64316491D01*
X115380228Y-64316491D02*
G75*
G02X110952808Y-65350000I-4427419J8966491D01*
G01*
X103620000Y-65350000D02*
X110952809Y-65350000D01*
X100620000Y-68350000D02*
G75*
G02X103620000Y-65350000I3000000J0D01*
G01*
X104870000Y-68350000D02*
G75*
G03X104870000Y-68350000I-1250000J0D01*
G01*
X104870000Y-97350000D02*
G75*
G03X104870000Y-97350000I-1250000J0D01*
G01*
X173870000Y-68350000D02*
G75*
G03X173870000Y-68350000I-1250000J0D01*
G01*
X173870000Y-97350000D02*
G75*
G03X173870000Y-97350000I-1250000J0D01*
G01*
X175620000Y-68350000D02*
X175620000Y-97350000D01*
X175620000Y-97350000D02*
G75*
G02X172620000Y-100350000I-3000000J0D01*
G01*
X172620000Y-100350000D02*
X103620000Y-100350000D01*
X103620000Y-100350000D02*
G75*
G02X100620000Y-97350000I0J3000000D01*
G01*
X100620000Y-97350000D02*
X100620000Y-68350000D01*
M02*
