G04 #@! TF.FileFunction,Legend,Bot*
%FSLAX46Y46*%
G04 Gerber Fmt 4.6, Leading zero omitted, Abs format (unit mm)*
G04 Created by KiCad (PCBNEW 4.0.4-stable) date 07/06/18 22:39:36*
%MOMM*%
%LPD*%
G01*
G04 APERTURE LIST*
%ADD10C,0.100000*%
%ADD11C,0.300000*%
%ADD12C,0.120000*%
%ADD13C,0.150000*%
G04 APERTURE END LIST*
D10*
D11*
X174062857Y-89478571D02*
X174062857Y-87978571D01*
X173562857Y-89050000D01*
X173062857Y-87978571D01*
X173062857Y-89478571D01*
X172062857Y-87978571D02*
X171777143Y-87978571D01*
X171634285Y-88050000D01*
X171491428Y-88192857D01*
X171420000Y-88478571D01*
X171420000Y-88978571D01*
X171491428Y-89264286D01*
X171634285Y-89407143D01*
X171777143Y-89478571D01*
X172062857Y-89478571D01*
X172205714Y-89407143D01*
X172348571Y-89264286D01*
X172420000Y-88978571D01*
X172420000Y-88478571D01*
X172348571Y-88192857D01*
X172205714Y-88050000D01*
X172062857Y-87978571D01*
X170777142Y-89478571D02*
X170777142Y-87978571D01*
X170419999Y-87978571D01*
X170205714Y-88050000D01*
X170062856Y-88192857D01*
X169991428Y-88335714D01*
X169919999Y-88621429D01*
X169919999Y-88835714D01*
X169991428Y-89121429D01*
X170062856Y-89264286D01*
X170205714Y-89407143D01*
X170419999Y-89478571D01*
X170777142Y-89478571D01*
X168777142Y-88692857D02*
X168562856Y-88764286D01*
X168491428Y-88835714D01*
X168419999Y-88978571D01*
X168419999Y-89192857D01*
X168491428Y-89335714D01*
X168562856Y-89407143D01*
X168705714Y-89478571D01*
X169277142Y-89478571D01*
X169277142Y-87978571D01*
X168777142Y-87978571D01*
X168634285Y-88050000D01*
X168562856Y-88121429D01*
X168491428Y-88264286D01*
X168491428Y-88407143D01*
X168562856Y-88550000D01*
X168634285Y-88621429D01*
X168777142Y-88692857D01*
X169277142Y-88692857D01*
X167562856Y-89478571D02*
X167705714Y-89407143D01*
X167777142Y-89335714D01*
X167848571Y-89192857D01*
X167848571Y-88764286D01*
X167777142Y-88621429D01*
X167705714Y-88550000D01*
X167562856Y-88478571D01*
X167348571Y-88478571D01*
X167205714Y-88550000D01*
X167134285Y-88621429D01*
X167062856Y-88764286D01*
X167062856Y-89192857D01*
X167134285Y-89335714D01*
X167205714Y-89407143D01*
X167348571Y-89478571D01*
X167562856Y-89478571D01*
X166562856Y-88478571D02*
X166205713Y-89478571D01*
X165848571Y-88478571D02*
X166205713Y-89478571D01*
X166348571Y-89835714D01*
X166419999Y-89907143D01*
X166562856Y-89978571D01*
X165634285Y-89621429D02*
X164491428Y-89621429D01*
X164348571Y-87978571D02*
X163848571Y-89478571D01*
X163348571Y-87978571D01*
X162562857Y-87978571D02*
X162420000Y-87978571D01*
X162277143Y-88050000D01*
X162205714Y-88121429D01*
X162134285Y-88264286D01*
X162062857Y-88550000D01*
X162062857Y-88907143D01*
X162134285Y-89192857D01*
X162205714Y-89335714D01*
X162277143Y-89407143D01*
X162420000Y-89478571D01*
X162562857Y-89478571D01*
X162705714Y-89407143D01*
X162777143Y-89335714D01*
X162848571Y-89192857D01*
X162920000Y-88907143D01*
X162920000Y-88550000D01*
X162848571Y-88264286D01*
X162777143Y-88121429D01*
X162705714Y-88050000D01*
X162562857Y-87978571D01*
X160634286Y-89478571D02*
X161491429Y-89478571D01*
X161062857Y-89478571D02*
X161062857Y-87978571D01*
X161205714Y-88192857D01*
X161348572Y-88335714D01*
X161491429Y-88407143D01*
X159991429Y-88478571D02*
X159991429Y-89978571D01*
X159991429Y-88550000D02*
X159848572Y-88478571D01*
X159562858Y-88478571D01*
X159420001Y-88550000D01*
X159348572Y-88621429D01*
X159277143Y-88764286D01*
X159277143Y-89192857D01*
X159348572Y-89335714D01*
X159420001Y-89407143D01*
X159562858Y-89478571D01*
X159848572Y-89478571D01*
X159991429Y-89407143D01*
X174062857Y-92028571D02*
X174062857Y-90528571D01*
X173205714Y-92028571D02*
X173848571Y-91171429D01*
X173205714Y-90528571D02*
X174062857Y-91385714D01*
X172562857Y-92028571D02*
X172562857Y-91028571D01*
X172562857Y-90528571D02*
X172634286Y-90600000D01*
X172562857Y-90671429D01*
X172491429Y-90600000D01*
X172562857Y-90528571D01*
X172562857Y-90671429D01*
X171205714Y-91957143D02*
X171348571Y-92028571D01*
X171634285Y-92028571D01*
X171777143Y-91957143D01*
X171848571Y-91885714D01*
X171920000Y-91742857D01*
X171920000Y-91314286D01*
X171848571Y-91171429D01*
X171777143Y-91100000D01*
X171634285Y-91028571D01*
X171348571Y-91028571D01*
X171205714Y-91100000D01*
X170562857Y-92028571D02*
X170562857Y-90528571D01*
X170420000Y-91457143D02*
X169991429Y-92028571D01*
X169991429Y-91028571D02*
X170562857Y-91600000D01*
X169420000Y-91957143D02*
X169277143Y-92028571D01*
X168991428Y-92028571D01*
X168848571Y-91957143D01*
X168777143Y-91814286D01*
X168777143Y-91742857D01*
X168848571Y-91600000D01*
X168991428Y-91528571D01*
X169205714Y-91528571D01*
X169348571Y-91457143D01*
X169420000Y-91314286D01*
X169420000Y-91242857D01*
X169348571Y-91100000D01*
X169205714Y-91028571D01*
X168991428Y-91028571D01*
X168848571Y-91100000D01*
X168348571Y-91028571D02*
X167777142Y-91028571D01*
X168134285Y-90528571D02*
X168134285Y-91814286D01*
X168062857Y-91957143D01*
X167919999Y-92028571D01*
X167777142Y-92028571D01*
X166634285Y-92028571D02*
X166634285Y-91242857D01*
X166705714Y-91100000D01*
X166848571Y-91028571D01*
X167134285Y-91028571D01*
X167277142Y-91100000D01*
X166634285Y-91957143D02*
X166777142Y-92028571D01*
X167134285Y-92028571D01*
X167277142Y-91957143D01*
X167348571Y-91814286D01*
X167348571Y-91671429D01*
X167277142Y-91528571D01*
X167134285Y-91457143D01*
X166777142Y-91457143D01*
X166634285Y-91385714D01*
X165919999Y-92028571D02*
X165919999Y-91028571D01*
X165919999Y-91314286D02*
X165848571Y-91171429D01*
X165777142Y-91100000D01*
X165634285Y-91028571D01*
X165491428Y-91028571D01*
X165205714Y-91028571D02*
X164634285Y-91028571D01*
X164991428Y-90528571D02*
X164991428Y-91814286D01*
X164920000Y-91957143D01*
X164777142Y-92028571D01*
X164634285Y-92028571D01*
X163562857Y-91957143D02*
X163705714Y-92028571D01*
X163991428Y-92028571D01*
X164134285Y-91957143D01*
X164205714Y-91814286D01*
X164205714Y-91242857D01*
X164134285Y-91100000D01*
X163991428Y-91028571D01*
X163705714Y-91028571D01*
X163562857Y-91100000D01*
X163491428Y-91242857D01*
X163491428Y-91385714D01*
X164205714Y-91528571D01*
X162848571Y-92028571D02*
X162848571Y-91028571D01*
X162848571Y-91314286D02*
X162777143Y-91171429D01*
X162705714Y-91100000D01*
X162562857Y-91028571D01*
X162420000Y-91028571D01*
X160777143Y-92028571D02*
X160777143Y-90528571D01*
X160420000Y-90528571D01*
X160205715Y-90600000D01*
X160062857Y-90742857D01*
X159991429Y-90885714D01*
X159920000Y-91171429D01*
X159920000Y-91385714D01*
X159991429Y-91671429D01*
X160062857Y-91814286D01*
X160205715Y-91957143D01*
X160420000Y-92028571D01*
X160777143Y-92028571D01*
X158705715Y-91957143D02*
X158848572Y-92028571D01*
X159134286Y-92028571D01*
X159277143Y-91957143D01*
X159348572Y-91814286D01*
X159348572Y-91242857D01*
X159277143Y-91100000D01*
X159134286Y-91028571D01*
X158848572Y-91028571D01*
X158705715Y-91100000D01*
X158634286Y-91242857D01*
X158634286Y-91385714D01*
X159348572Y-91528571D01*
X157991429Y-92028571D02*
X157991429Y-91028571D01*
X157991429Y-91171429D02*
X157920001Y-91100000D01*
X157777143Y-91028571D01*
X157562858Y-91028571D01*
X157420001Y-91100000D01*
X157348572Y-91242857D01*
X157348572Y-92028571D01*
X157348572Y-91242857D02*
X157277143Y-91100000D01*
X157134286Y-91028571D01*
X156920001Y-91028571D01*
X156777143Y-91100000D01*
X156705715Y-91242857D01*
X156705715Y-92028571D01*
X155777143Y-92028571D02*
X155920001Y-91957143D01*
X155991429Y-91885714D01*
X156062858Y-91742857D01*
X156062858Y-91314286D01*
X155991429Y-91171429D01*
X155920001Y-91100000D01*
X155777143Y-91028571D01*
X155562858Y-91028571D01*
X155420001Y-91100000D01*
X155348572Y-91171429D01*
X155277143Y-91314286D01*
X155277143Y-91742857D01*
X155348572Y-91885714D01*
X155420001Y-91957143D01*
X155562858Y-92028571D01*
X155777143Y-92028571D01*
X152991429Y-91242857D02*
X152777143Y-91314286D01*
X152705715Y-91385714D01*
X152634286Y-91528571D01*
X152634286Y-91742857D01*
X152705715Y-91885714D01*
X152777143Y-91957143D01*
X152920001Y-92028571D01*
X153491429Y-92028571D01*
X153491429Y-90528571D01*
X152991429Y-90528571D01*
X152848572Y-90600000D01*
X152777143Y-90671429D01*
X152705715Y-90814286D01*
X152705715Y-90957143D01*
X152777143Y-91100000D01*
X152848572Y-91171429D01*
X152991429Y-91242857D01*
X153491429Y-91242857D01*
X151777143Y-92028571D02*
X151920001Y-91957143D01*
X151991429Y-91885714D01*
X152062858Y-91742857D01*
X152062858Y-91314286D01*
X151991429Y-91171429D01*
X151920001Y-91100000D01*
X151777143Y-91028571D01*
X151562858Y-91028571D01*
X151420001Y-91100000D01*
X151348572Y-91171429D01*
X151277143Y-91314286D01*
X151277143Y-91742857D01*
X151348572Y-91885714D01*
X151420001Y-91957143D01*
X151562858Y-92028571D01*
X151777143Y-92028571D01*
X149991429Y-92028571D02*
X149991429Y-91242857D01*
X150062858Y-91100000D01*
X150205715Y-91028571D01*
X150491429Y-91028571D01*
X150634286Y-91100000D01*
X149991429Y-91957143D02*
X150134286Y-92028571D01*
X150491429Y-92028571D01*
X150634286Y-91957143D01*
X150705715Y-91814286D01*
X150705715Y-91671429D01*
X150634286Y-91528571D01*
X150491429Y-91457143D01*
X150134286Y-91457143D01*
X149991429Y-91385714D01*
X149277143Y-92028571D02*
X149277143Y-91028571D01*
X149277143Y-91314286D02*
X149205715Y-91171429D01*
X149134286Y-91100000D01*
X148991429Y-91028571D01*
X148848572Y-91028571D01*
X147705715Y-92028571D02*
X147705715Y-90528571D01*
X147705715Y-91957143D02*
X147848572Y-92028571D01*
X148134286Y-92028571D01*
X148277144Y-91957143D01*
X148348572Y-91885714D01*
X148420001Y-91742857D01*
X148420001Y-91314286D01*
X148348572Y-91171429D01*
X148277144Y-91100000D01*
X148134286Y-91028571D01*
X147848572Y-91028571D01*
X147705715Y-91100000D01*
X146062858Y-91028571D02*
X145491429Y-91028571D01*
X145848572Y-92028571D02*
X145848572Y-90742857D01*
X145777144Y-90600000D01*
X145634286Y-90528571D01*
X145491429Y-90528571D01*
X144777143Y-92028571D02*
X144920001Y-91957143D01*
X144991429Y-91885714D01*
X145062858Y-91742857D01*
X145062858Y-91314286D01*
X144991429Y-91171429D01*
X144920001Y-91100000D01*
X144777143Y-91028571D01*
X144562858Y-91028571D01*
X144420001Y-91100000D01*
X144348572Y-91171429D01*
X144277143Y-91314286D01*
X144277143Y-91742857D01*
X144348572Y-91885714D01*
X144420001Y-91957143D01*
X144562858Y-92028571D01*
X144777143Y-92028571D01*
X143634286Y-92028571D02*
X143634286Y-91028571D01*
X143634286Y-91314286D02*
X143562858Y-91171429D01*
X143491429Y-91100000D01*
X143348572Y-91028571D01*
X143205715Y-91028571D01*
X141562858Y-92028571D02*
X141562858Y-90528571D01*
X141562858Y-91242857D02*
X140705715Y-91242857D01*
X140705715Y-92028571D02*
X140705715Y-90528571D01*
X139134286Y-91885714D02*
X139205715Y-91957143D01*
X139420001Y-92028571D01*
X139562858Y-92028571D01*
X139777143Y-91957143D01*
X139920001Y-91814286D01*
X139991429Y-91671429D01*
X140062858Y-91385714D01*
X140062858Y-91171429D01*
X139991429Y-90885714D01*
X139920001Y-90742857D01*
X139777143Y-90600000D01*
X139562858Y-90528571D01*
X139420001Y-90528571D01*
X139205715Y-90600000D01*
X139134286Y-90671429D01*
X137634286Y-91885714D02*
X137705715Y-91957143D01*
X137920001Y-92028571D01*
X138062858Y-92028571D01*
X138277143Y-91957143D01*
X138420001Y-91814286D01*
X138491429Y-91671429D01*
X138562858Y-91385714D01*
X138562858Y-91171429D01*
X138491429Y-90885714D01*
X138420001Y-90742857D01*
X138277143Y-90600000D01*
X138062858Y-90528571D01*
X137920001Y-90528571D01*
X137705715Y-90600000D01*
X137634286Y-90671429D01*
X135848572Y-92028571D02*
X135848572Y-90528571D01*
X135348572Y-91600000D01*
X134848572Y-90528571D01*
X134848572Y-92028571D01*
X133848572Y-90528571D02*
X133562858Y-90528571D01*
X133420000Y-90600000D01*
X133277143Y-90742857D01*
X133205715Y-91028571D01*
X133205715Y-91528571D01*
X133277143Y-91814286D01*
X133420000Y-91957143D01*
X133562858Y-92028571D01*
X133848572Y-92028571D01*
X133991429Y-91957143D01*
X134134286Y-91814286D01*
X134205715Y-91528571D01*
X134205715Y-91028571D01*
X134134286Y-90742857D01*
X133991429Y-90600000D01*
X133848572Y-90528571D01*
X132562857Y-92028571D02*
X132562857Y-90528571D01*
X132205714Y-90528571D01*
X131991429Y-90600000D01*
X131848571Y-90742857D01*
X131777143Y-90885714D01*
X131705714Y-91171429D01*
X131705714Y-91385714D01*
X131777143Y-91671429D01*
X131848571Y-91814286D01*
X131991429Y-91957143D01*
X132205714Y-92028571D01*
X132562857Y-92028571D01*
X131062857Y-90528571D02*
X131062857Y-91742857D01*
X130991429Y-91885714D01*
X130920000Y-91957143D01*
X130777143Y-92028571D01*
X130491429Y-92028571D01*
X130348571Y-91957143D01*
X130277143Y-91885714D01*
X130205714Y-91742857D01*
X130205714Y-90528571D01*
X128777142Y-92028571D02*
X129491428Y-92028571D01*
X129491428Y-90528571D01*
X128277142Y-91242857D02*
X127777142Y-91242857D01*
X127562856Y-92028571D02*
X128277142Y-92028571D01*
X128277142Y-90528571D01*
X127562856Y-90528571D01*
X173777143Y-93864286D02*
X173777143Y-94578571D01*
X174277143Y-93078571D02*
X173777143Y-93864286D01*
X173277143Y-93078571D01*
X172562857Y-94578571D02*
X172705715Y-94507143D01*
X172777143Y-94435714D01*
X172848572Y-94292857D01*
X172848572Y-93864286D01*
X172777143Y-93721429D01*
X172705715Y-93650000D01*
X172562857Y-93578571D01*
X172348572Y-93578571D01*
X172205715Y-93650000D01*
X172134286Y-93721429D01*
X172062857Y-93864286D01*
X172062857Y-94292857D01*
X172134286Y-94435714D01*
X172205715Y-94507143D01*
X172348572Y-94578571D01*
X172562857Y-94578571D01*
X170777143Y-93578571D02*
X170777143Y-94578571D01*
X171420000Y-93578571D02*
X171420000Y-94364286D01*
X171348572Y-94507143D01*
X171205714Y-94578571D01*
X170991429Y-94578571D01*
X170848572Y-94507143D01*
X170777143Y-94435714D01*
X170277143Y-93078571D02*
X169420000Y-93078571D01*
X169848571Y-94578571D02*
X169848571Y-93078571D01*
X168277143Y-93578571D02*
X168277143Y-94578571D01*
X168920000Y-93578571D02*
X168920000Y-94364286D01*
X168848572Y-94507143D01*
X168705714Y-94578571D01*
X168491429Y-94578571D01*
X168348572Y-94507143D01*
X168277143Y-94435714D01*
X167562857Y-94578571D02*
X167562857Y-93078571D01*
X167562857Y-93650000D02*
X167420000Y-93578571D01*
X167134286Y-93578571D01*
X166991429Y-93650000D01*
X166920000Y-93721429D01*
X166848571Y-93864286D01*
X166848571Y-94292857D01*
X166920000Y-94435714D01*
X166991429Y-94507143D01*
X167134286Y-94578571D01*
X167420000Y-94578571D01*
X167562857Y-94507143D01*
X165634286Y-94507143D02*
X165777143Y-94578571D01*
X166062857Y-94578571D01*
X166205714Y-94507143D01*
X166277143Y-94364286D01*
X166277143Y-93792857D01*
X166205714Y-93650000D01*
X166062857Y-93578571D01*
X165777143Y-93578571D01*
X165634286Y-93650000D01*
X165562857Y-93792857D01*
X165562857Y-93935714D01*
X166277143Y-94078571D01*
X164920000Y-94435714D02*
X164848572Y-94507143D01*
X164920000Y-94578571D01*
X164991429Y-94507143D01*
X164920000Y-94435714D01*
X164920000Y-94578571D01*
X163562857Y-94507143D02*
X163705714Y-94578571D01*
X163991428Y-94578571D01*
X164134286Y-94507143D01*
X164205714Y-94435714D01*
X164277143Y-94292857D01*
X164277143Y-93864286D01*
X164205714Y-93721429D01*
X164134286Y-93650000D01*
X163991428Y-93578571D01*
X163705714Y-93578571D01*
X163562857Y-93650000D01*
X162705714Y-94578571D02*
X162848572Y-94507143D01*
X162920000Y-94435714D01*
X162991429Y-94292857D01*
X162991429Y-93864286D01*
X162920000Y-93721429D01*
X162848572Y-93650000D01*
X162705714Y-93578571D01*
X162491429Y-93578571D01*
X162348572Y-93650000D01*
X162277143Y-93721429D01*
X162205714Y-93864286D01*
X162205714Y-94292857D01*
X162277143Y-94435714D01*
X162348572Y-94507143D01*
X162491429Y-94578571D01*
X162705714Y-94578571D01*
X161562857Y-94578571D02*
X161562857Y-93578571D01*
X161562857Y-93721429D02*
X161491429Y-93650000D01*
X161348571Y-93578571D01*
X161134286Y-93578571D01*
X160991429Y-93650000D01*
X160920000Y-93792857D01*
X160920000Y-94578571D01*
X160920000Y-93792857D02*
X160848571Y-93650000D01*
X160705714Y-93578571D01*
X160491429Y-93578571D01*
X160348571Y-93650000D01*
X160277143Y-93792857D01*
X160277143Y-94578571D01*
X158491429Y-93007143D02*
X159777143Y-94935714D01*
X158062857Y-94507143D02*
X157848571Y-94578571D01*
X157491428Y-94578571D01*
X157348571Y-94507143D01*
X157277142Y-94435714D01*
X157205714Y-94292857D01*
X157205714Y-94150000D01*
X157277142Y-94007143D01*
X157348571Y-93935714D01*
X157491428Y-93864286D01*
X157777142Y-93792857D01*
X157920000Y-93721429D01*
X157991428Y-93650000D01*
X158062857Y-93507143D01*
X158062857Y-93364286D01*
X157991428Y-93221429D01*
X157920000Y-93150000D01*
X157777142Y-93078571D01*
X157420000Y-93078571D01*
X157205714Y-93150000D01*
X155991429Y-94507143D02*
X156134286Y-94578571D01*
X156420000Y-94578571D01*
X156562857Y-94507143D01*
X156634286Y-94364286D01*
X156634286Y-93792857D01*
X156562857Y-93650000D01*
X156420000Y-93578571D01*
X156134286Y-93578571D01*
X155991429Y-93650000D01*
X155920000Y-93792857D01*
X155920000Y-93935714D01*
X156634286Y-94078571D01*
X154634286Y-94578571D02*
X154634286Y-93792857D01*
X154705715Y-93650000D01*
X154848572Y-93578571D01*
X155134286Y-93578571D01*
X155277143Y-93650000D01*
X154634286Y-94507143D02*
X154777143Y-94578571D01*
X155134286Y-94578571D01*
X155277143Y-94507143D01*
X155348572Y-94364286D01*
X155348572Y-94221429D01*
X155277143Y-94078571D01*
X155134286Y-94007143D01*
X154777143Y-94007143D01*
X154634286Y-93935714D01*
X153920000Y-93578571D02*
X153920000Y-94578571D01*
X153920000Y-93721429D02*
X153848572Y-93650000D01*
X153705714Y-93578571D01*
X153491429Y-93578571D01*
X153348572Y-93650000D01*
X153277143Y-93792857D01*
X153277143Y-94578571D01*
X152562857Y-94578571D02*
X152562857Y-93078571D01*
X152562857Y-93792857D02*
X151705714Y-93792857D01*
X151705714Y-94578571D02*
X151705714Y-93078571D01*
X150777142Y-94578571D02*
X150920000Y-94507143D01*
X150991428Y-94435714D01*
X151062857Y-94292857D01*
X151062857Y-93864286D01*
X150991428Y-93721429D01*
X150920000Y-93650000D01*
X150777142Y-93578571D01*
X150562857Y-93578571D01*
X150420000Y-93650000D01*
X150348571Y-93721429D01*
X150277142Y-93864286D01*
X150277142Y-94292857D01*
X150348571Y-94435714D01*
X150420000Y-94507143D01*
X150562857Y-94578571D01*
X150777142Y-94578571D01*
X148991428Y-94578571D02*
X148991428Y-93078571D01*
X148991428Y-94507143D02*
X149134285Y-94578571D01*
X149419999Y-94578571D01*
X149562857Y-94507143D01*
X149634285Y-94435714D01*
X149705714Y-94292857D01*
X149705714Y-93864286D01*
X149634285Y-93721429D01*
X149562857Y-93650000D01*
X149419999Y-93578571D01*
X149134285Y-93578571D01*
X148991428Y-93650000D01*
X147634285Y-93578571D02*
X147634285Y-94792857D01*
X147705714Y-94935714D01*
X147777142Y-95007143D01*
X147919999Y-95078571D01*
X148134285Y-95078571D01*
X148277142Y-95007143D01*
X147634285Y-94507143D02*
X147777142Y-94578571D01*
X148062856Y-94578571D01*
X148205714Y-94507143D01*
X148277142Y-94435714D01*
X148348571Y-94292857D01*
X148348571Y-93864286D01*
X148277142Y-93721429D01*
X148205714Y-93650000D01*
X148062856Y-93578571D01*
X147777142Y-93578571D01*
X147634285Y-93650000D01*
X146919999Y-94578571D02*
X146919999Y-93578571D01*
X146919999Y-93078571D02*
X146991428Y-93150000D01*
X146919999Y-93221429D01*
X146848571Y-93150000D01*
X146919999Y-93078571D01*
X146919999Y-93221429D01*
X146205713Y-93578571D02*
X146205713Y-94578571D01*
X146205713Y-93721429D02*
X146134285Y-93650000D01*
X145991427Y-93578571D01*
X145777142Y-93578571D01*
X145634285Y-93650000D01*
X145562856Y-93792857D01*
X145562856Y-94578571D01*
X144919999Y-94507143D02*
X144777142Y-94578571D01*
X144491427Y-94578571D01*
X144348570Y-94507143D01*
X144277142Y-94364286D01*
X144277142Y-94292857D01*
X144348570Y-94150000D01*
X144491427Y-94078571D01*
X144705713Y-94078571D01*
X144848570Y-94007143D01*
X144919999Y-93864286D01*
X144919999Y-93792857D01*
X144848570Y-93650000D01*
X144705713Y-93578571D01*
X144491427Y-93578571D01*
X144348570Y-93650000D01*
X143134284Y-93792857D02*
X143634284Y-93792857D01*
X143634284Y-94578571D02*
X143634284Y-93078571D01*
X142919998Y-93078571D01*
X142348570Y-94578571D02*
X142348570Y-93578571D01*
X142348570Y-93078571D02*
X142419999Y-93150000D01*
X142348570Y-93221429D01*
X142277142Y-93150000D01*
X142348570Y-93078571D01*
X142348570Y-93221429D01*
X141419998Y-94578571D02*
X141562856Y-94507143D01*
X141634284Y-94364286D01*
X141634284Y-93078571D01*
X140848570Y-94578571D02*
X140848570Y-93578571D01*
X140848570Y-93721429D02*
X140777142Y-93650000D01*
X140634284Y-93578571D01*
X140419999Y-93578571D01*
X140277142Y-93650000D01*
X140205713Y-93792857D01*
X140205713Y-94578571D01*
X140205713Y-93792857D02*
X140134284Y-93650000D01*
X139991427Y-93578571D01*
X139777142Y-93578571D01*
X139634284Y-93650000D01*
X139562856Y-93792857D01*
X139562856Y-94578571D01*
X138919999Y-94507143D02*
X138777142Y-94578571D01*
X138491427Y-94578571D01*
X138348570Y-94507143D01*
X138277142Y-94364286D01*
X138277142Y-94292857D01*
X138348570Y-94150000D01*
X138491427Y-94078571D01*
X138705713Y-94078571D01*
X138848570Y-94007143D01*
X138919999Y-93864286D01*
X138919999Y-93792857D01*
X138848570Y-93650000D01*
X138705713Y-93578571D01*
X138491427Y-93578571D01*
X138348570Y-93650000D01*
D12*
X117695000Y-91450000D02*
X117695000Y-90625000D01*
X117695000Y-90625000D02*
X109545000Y-90625000D01*
X109545000Y-90625000D02*
X109545000Y-91450000D01*
X117695000Y-95000000D02*
X117695000Y-95825000D01*
X117695000Y-95825000D02*
X115395000Y-95825000D01*
X109545000Y-95000000D02*
X109545000Y-95825000D01*
X109545000Y-95825000D02*
X111845000Y-95825000D01*
X115395000Y-95825000D02*
X115395000Y-98225000D01*
D13*
X114405714Y-89653571D02*
X114262857Y-89701190D01*
X114215238Y-89748810D01*
X114167619Y-89844048D01*
X114167619Y-89986905D01*
X114215238Y-90082143D01*
X114262857Y-90129762D01*
X114358095Y-90177381D01*
X114739048Y-90177381D01*
X114739048Y-89177381D01*
X114405714Y-89177381D01*
X114310476Y-89225000D01*
X114262857Y-89272619D01*
X114215238Y-89367857D01*
X114215238Y-89463095D01*
X114262857Y-89558333D01*
X114310476Y-89605952D01*
X114405714Y-89653571D01*
X114739048Y-89653571D01*
X113881905Y-89177381D02*
X113310476Y-89177381D01*
X113596191Y-90177381D02*
X113596191Y-89177381D01*
X112453333Y-90177381D02*
X113024762Y-90177381D01*
X112739048Y-90177381D02*
X112739048Y-89177381D01*
X112834286Y-89320238D01*
X112929524Y-89415476D01*
X113024762Y-89463095D01*
M02*
