G04 #@! TF.FileFunction,Paste,Top*
%FSLAX46Y46*%
G04 Gerber Fmt 4.6, Leading zero omitted, Abs format (unit mm)*
G04 Created by KiCad (PCBNEW 4.0.4-stable) date 07/06/18 22:39:36*
%MOMM*%
%LPD*%
G01*
G04 APERTURE LIST*
%ADD10C,0.100000*%
%ADD11O,3.000000X1.500000*%
%ADD12R,1.700000X0.900000*%
%ADD13R,1.500000X1.900000*%
%ADD14R,0.400000X1.350000*%
%ADD15R,1.200000X1.900000*%
%ADD16R,1.300000X1.550000*%
%ADD17R,0.700000X1.500000*%
%ADD18R,1.000000X0.800000*%
%ADD19O,1.500000X3.000000*%
G04 APERTURE END LIST*
D10*
D11*
X128820000Y-72566000D03*
X128820000Y-70566000D03*
X128820000Y-68566000D03*
X146820000Y-68566000D03*
X146820000Y-70566000D03*
X146820000Y-72566000D03*
D12*
X150220000Y-73500000D03*
X150220000Y-70600000D03*
D13*
X137120000Y-59350000D03*
D14*
X138770000Y-62050000D03*
X139420000Y-62050000D03*
X136820000Y-62050000D03*
X137470000Y-62050000D03*
X138120000Y-62050000D03*
D13*
X139120000Y-59350000D03*
D15*
X135220000Y-59350000D03*
X141020000Y-59350000D03*
D16*
X164120000Y-97325000D03*
X159620000Y-97325000D03*
X159620000Y-89375000D03*
X164120000Y-89375000D03*
X155870000Y-86825000D03*
X151370000Y-86825000D03*
X151370000Y-78875000D03*
X155870000Y-78875000D03*
X164120000Y-76325000D03*
X159620000Y-76325000D03*
X159620000Y-68375000D03*
X164120000Y-68375000D03*
X172370000Y-86825000D03*
X167870000Y-86825000D03*
X167870000Y-78875000D03*
X172370000Y-78875000D03*
D17*
X120420000Y-96750000D03*
X123420000Y-96750000D03*
X124920000Y-96750000D03*
D18*
X119020000Y-99610000D03*
X126320000Y-99610000D03*
X126320000Y-97400000D03*
X119020000Y-97400000D03*
D17*
X151270000Y-96990000D03*
X154270000Y-96990000D03*
X155770000Y-96990000D03*
D18*
X149870000Y-99850000D03*
X157170000Y-99850000D03*
X157170000Y-97640000D03*
X149870000Y-97640000D03*
D10*
G36*
X155046519Y-65734589D02*
X155772904Y-64308978D01*
X157554917Y-65216959D01*
X156828532Y-66642570D01*
X155046519Y-65734589D01*
X155046519Y-65734589D01*
G37*
G36*
X150235083Y-63283041D02*
X150961468Y-61857430D01*
X152743481Y-62765411D01*
X152017096Y-64191022D01*
X150235083Y-63283041D01*
X150235083Y-63283041D01*
G37*
G36*
X124147904Y-64366022D02*
X123421519Y-62940411D01*
X125203532Y-62032430D01*
X125929917Y-63458041D01*
X124147904Y-64366022D01*
X124147904Y-64366022D01*
G37*
G36*
X119336468Y-66817570D02*
X118610083Y-65391959D01*
X120392096Y-64483978D01*
X121118481Y-65909589D01*
X119336468Y-66817570D01*
X119336468Y-66817570D01*
G37*
D11*
X129120000Y-88350000D03*
X129120000Y-86350000D03*
X129120000Y-84350000D03*
X129120000Y-82350000D03*
X129120000Y-94350000D03*
X129120000Y-90350000D03*
X129120000Y-96350000D03*
X129120000Y-92350000D03*
X129120000Y-80350000D03*
X129120000Y-78350000D03*
D19*
X133120000Y-98350000D03*
X135120000Y-98350000D03*
X137120000Y-98350000D03*
X139120000Y-98350000D03*
X141120000Y-98350000D03*
X143120000Y-98350000D03*
D11*
X147120000Y-84350000D03*
X147120000Y-82350000D03*
X147120000Y-86350000D03*
X147120000Y-88350000D03*
X147120000Y-80350000D03*
X147120000Y-78350000D03*
X147120000Y-94350000D03*
X147120000Y-96350000D03*
X147120000Y-90350000D03*
X147120000Y-92350000D03*
D19*
X136120000Y-76350000D03*
X140120000Y-76350000D03*
X134120000Y-76350000D03*
X138120000Y-76350000D03*
X142120000Y-76350000D03*
M02*
