M48
;DRILL file {KiCad 4.0.4-stable} date 07/06/18 22:44:24
;FORMAT={-:-/ absolute / inch / decimal}
FMAT,2
INCH,TZ
T1C0.016
T2C0.024
T3C0.033
T4C0.035
T5C0.039
T6C0.065
%
G90
G05
M72
T1
X4.4339Y-3.6004
X4.7409Y-3.7382
X4.7921Y-2.5453
X4.9811Y-2.8602
X4.9929Y-2.4429
X5.0795Y-2.9232
X5.1189Y-2.4823
X5.1701Y-3.124
X5.2803Y-2.9075
X5.2803Y-3.1161
X5.3118Y-3.7736
X5.3236Y-3.7264
X5.3472Y-2.6437
X5.3551Y-3.6004
X5.3866Y-2.3957
X5.5087Y-2.502
X5.5362Y-2.502
X5.5362Y-2.9114
X5.5992Y-3.0925
X5.5992Y-3.2421
X5.7016Y-2.8563
X5.7016Y-3.7776
X5.8669Y-2.8484
X5.8827Y-3.7697
X5.9102Y-2.9429
X5.9575Y-3.7657
X6.1346Y-3.7657
X6.1386Y-3.2579
X6.2252Y-2.6004
X6.4614Y-2.8484
X6.4614Y-2.9075
X6.4614Y-3.6594
X6.7843Y-3.2579
T3
X5.3394Y-2.4429
X5.5362Y-2.4429
T4
X4.7705Y-3.8783
X4.8886Y-3.8783
X5.985Y-3.8878
X6.1031Y-3.8878
T5
X4.424Y-2.9075
X4.5028Y-2.9075
X4.5815Y-2.9075
X4.8571Y-3.1831
X4.8571Y-3.2618
X4.8571Y-3.3406
X5.1228Y-2.5728
X5.2228Y-2.5728
X5.3228Y-2.5728
X5.4228Y-2.5728
X5.5228Y-2.5728
X5.6228Y-2.5728
X5.7228Y-2.5728
T6
X4.2665Y-3.0256
X4.739Y-3.498
T2
X5.3Y-2.3504G85X5.3Y-2.3228
G05
X5.5756Y-2.3228G85X5.5756Y-2.3504
G05
T0
M30
