G04 #@! TF.FileFunction,Copper,L2,Bot,Signal*
%FSLAX46Y46*%
G04 Gerber Fmt 4.6, Leading zero omitted, Abs format (unit mm)*
G04 Created by KiCad (PCBNEW 4.0.4-stable) date 07/06/18 22:39:36*
%MOMM*%
%LPD*%
G01*
G04 APERTURE LIST*
%ADD10C,0.100000*%
%ADD11C,0.010000*%
%ADD12R,1.700000X1.700000*%
%ADD13O,1.700000X1.700000*%
%ADD14R,1.000000X5.500000*%
%ADD15R,1.600000X3.000000*%
%ADD16C,1.450000*%
%ADD17O,1.200000X1.900000*%
%ADD18O,3.000000X1.600000*%
%ADD19O,1.600000X3.000000*%
%ADD20C,1.650000*%
%ADD21C,0.600000*%
%ADD22C,0.200000*%
%ADD23C,0.400000*%
%ADD24C,0.600000*%
%ADD25C,0.254000*%
G04 APERTURE END LIST*
D10*
D11*
G36*
X111886646Y-65788845D02*
X111868879Y-65789593D01*
X111766040Y-65794978D01*
X111659541Y-65852222D01*
X111594771Y-65888127D01*
X111542761Y-65919586D01*
X111501522Y-65948020D01*
X111469062Y-65974849D01*
X111443389Y-66001492D01*
X111434141Y-66012984D01*
X111414586Y-66040729D01*
X111400605Y-66064702D01*
X111393268Y-66082497D01*
X111393645Y-66091707D01*
X111399136Y-66091732D01*
X111416428Y-66086594D01*
X111445867Y-66079384D01*
X111483974Y-66070828D01*
X111527268Y-66061654D01*
X111572270Y-66052586D01*
X111615501Y-66044353D01*
X111653480Y-66037681D01*
X111671789Y-66034804D01*
X111850469Y-66015070D01*
X112039725Y-66006819D01*
X112239217Y-66010006D01*
X112448603Y-66024590D01*
X112667543Y-66050526D01*
X112895697Y-66087772D01*
X113132723Y-66136283D01*
X113378281Y-66196018D01*
X113632031Y-66266932D01*
X113726394Y-66295522D01*
X113791596Y-66316058D01*
X113860851Y-66338558D01*
X113932659Y-66362477D01*
X114005515Y-66387268D01*
X114077918Y-66412387D01*
X114148364Y-66437288D01*
X114215352Y-66461425D01*
X114277378Y-66484253D01*
X114332941Y-66505227D01*
X114380537Y-66523802D01*
X114418664Y-66539431D01*
X114445820Y-66551570D01*
X114460502Y-66559672D01*
X114462479Y-66562726D01*
X114452993Y-66566965D01*
X114429509Y-66575614D01*
X114393168Y-66588296D01*
X114345109Y-66604638D01*
X114286472Y-66624263D01*
X114218396Y-66646797D01*
X114142021Y-66671863D01*
X114058486Y-66699088D01*
X113968932Y-66728096D01*
X113874498Y-66758511D01*
X113776323Y-66789958D01*
X113675547Y-66822063D01*
X113654686Y-66828687D01*
X113467969Y-66888304D01*
X113295432Y-66944203D01*
X113135933Y-66996812D01*
X112988328Y-67046561D01*
X112851475Y-67093880D01*
X112724231Y-67139199D01*
X112605453Y-67182946D01*
X112493997Y-67225552D01*
X112388721Y-67267446D01*
X112288483Y-67309059D01*
X112192138Y-67350818D01*
X112098545Y-67393155D01*
X112006560Y-67436499D01*
X111915040Y-67481278D01*
X111904250Y-67486661D01*
X111694484Y-67597475D01*
X111499843Y-67712671D01*
X111320167Y-67832354D01*
X111155294Y-67956628D01*
X111070813Y-68027019D01*
X111023199Y-68069580D01*
X110970857Y-68118761D01*
X110916945Y-68171401D01*
X110864626Y-68224342D01*
X110817057Y-68274423D01*
X110777401Y-68318485D01*
X110766423Y-68331365D01*
X110717594Y-68389699D01*
X110654094Y-68385586D01*
X110621632Y-68381863D01*
X110579255Y-68374699D01*
X110532288Y-68365098D01*
X110486055Y-68354068D01*
X110482891Y-68353244D01*
X110437445Y-68342226D01*
X110389680Y-68332176D01*
X110342447Y-68323529D01*
X110298599Y-68316717D01*
X110260988Y-68312173D01*
X110232465Y-68310332D01*
X110215884Y-68311625D01*
X110214067Y-68312407D01*
X110207323Y-68314011D01*
X110202936Y-68307851D01*
X110200788Y-68292235D01*
X110200761Y-68265469D01*
X110202736Y-68225859D01*
X110205374Y-68187874D01*
X110210990Y-68118729D01*
X110217469Y-68052745D01*
X110225172Y-67987812D01*
X110234457Y-67921822D01*
X110245683Y-67852665D01*
X110259209Y-67778233D01*
X110275394Y-67696417D01*
X110294598Y-67605107D01*
X110317178Y-67502194D01*
X110337392Y-67412401D01*
X110355074Y-67333462D01*
X110371619Y-67257568D01*
X110386684Y-67186438D01*
X110399925Y-67121791D01*
X110410999Y-67065344D01*
X110419563Y-67018816D01*
X110425273Y-66983924D01*
X110427786Y-66962388D01*
X110427875Y-66959575D01*
X110420374Y-66947259D01*
X110399594Y-66935213D01*
X110368124Y-66924227D01*
X110328552Y-66915093D01*
X110283467Y-66908600D01*
X110253250Y-66906215D01*
X110194568Y-66906128D01*
X110146309Y-66913847D01*
X110104315Y-66930899D01*
X110064430Y-66958810D01*
X110034708Y-66986461D01*
X110003545Y-67021234D01*
X109975460Y-67060093D01*
X109950173Y-67104135D01*
X109927402Y-67154455D01*
X109906865Y-67212146D01*
X109888281Y-67278305D01*
X109871370Y-67354026D01*
X109855848Y-67440404D01*
X109841436Y-67538534D01*
X109827851Y-67649511D01*
X109814812Y-67774430D01*
X109805027Y-67880125D01*
X109799362Y-67943214D01*
X109793615Y-68005431D01*
X109788078Y-68063768D01*
X109783038Y-68115220D01*
X109778786Y-68156778D01*
X109775688Y-68184792D01*
X109766350Y-68263241D01*
X109634753Y-68258665D01*
X109503403Y-68249752D01*
X109376157Y-68233039D01*
X109296378Y-68221431D01*
X109218433Y-68213738D01*
X109134736Y-68209267D01*
X109106282Y-68208423D01*
X108963407Y-68204859D01*
X108964321Y-68135757D01*
X108965103Y-68110528D01*
X108967060Y-68085681D01*
X108970637Y-68059348D01*
X108976280Y-68029659D01*
X108984437Y-67994747D01*
X108995553Y-67952743D01*
X109010074Y-67901779D01*
X109028448Y-67839986D01*
X109051120Y-67765495D01*
X109058573Y-67741218D01*
X109082907Y-67661846D01*
X109103043Y-67595576D01*
X109119551Y-67540366D01*
X109133003Y-67494176D01*
X109143969Y-67454965D01*
X109153019Y-67420693D01*
X109160725Y-67389319D01*
X109167655Y-67358803D01*
X109174382Y-67327103D01*
X109174458Y-67326735D01*
X109183535Y-67273287D01*
X109189633Y-67217340D01*
X109192641Y-67162568D01*
X109192449Y-67112646D01*
X109188945Y-67071251D01*
X109182934Y-67044501D01*
X109160118Y-67000650D01*
X109127953Y-66968123D01*
X109088796Y-66947519D01*
X109045000Y-66939436D01*
X108998923Y-66944472D01*
X108952918Y-66963225D01*
X108928225Y-66979815D01*
X108889007Y-67016106D01*
X108851385Y-67062903D01*
X108815140Y-67120787D01*
X108780051Y-67190343D01*
X108745898Y-67272153D01*
X108712463Y-67366801D01*
X108679526Y-67474870D01*
X108646866Y-67596941D01*
X108614265Y-67733600D01*
X108581502Y-67885429D01*
X108574922Y-67917611D01*
X108564338Y-67969612D01*
X108554543Y-68017348D01*
X108546064Y-68058288D01*
X108539426Y-68089899D01*
X108535155Y-68109649D01*
X108534127Y-68114064D01*
X108530958Y-68123726D01*
X108525156Y-68129645D01*
X108513370Y-68132732D01*
X108492244Y-68133898D01*
X108460499Y-68134055D01*
X108376065Y-68132486D01*
X108287603Y-68127817D01*
X108193707Y-68119854D01*
X108092973Y-68108404D01*
X107983997Y-68093272D01*
X107865373Y-68074264D01*
X107735698Y-68051186D01*
X107593566Y-68023845D01*
X107447344Y-67994081D01*
X107306516Y-67965259D01*
X107180859Y-67940565D01*
X107070402Y-67920006D01*
X106975174Y-67903586D01*
X106895205Y-67891311D01*
X106830524Y-67883186D01*
X106823032Y-67882414D01*
X106754344Y-67875551D01*
X106749974Y-67902480D01*
X106747851Y-67928811D01*
X106750806Y-67956390D01*
X106759675Y-67989165D01*
X106775293Y-68031083D01*
X106779180Y-68040621D01*
X106793118Y-68072391D01*
X106804308Y-68091988D01*
X106814792Y-68102375D01*
X106824250Y-68106091D01*
X106845351Y-68109831D01*
X106880826Y-68115252D01*
X106929283Y-68122179D01*
X106989331Y-68130439D01*
X107059577Y-68139855D01*
X107138630Y-68150253D01*
X107225097Y-68161460D01*
X107317588Y-68173299D01*
X107414710Y-68185596D01*
X107515071Y-68198177D01*
X107617279Y-68210866D01*
X107719942Y-68223490D01*
X107821669Y-68235872D01*
X107921067Y-68247839D01*
X108016745Y-68259216D01*
X108107311Y-68269828D01*
X108191373Y-68279501D01*
X108267539Y-68288059D01*
X108316500Y-68293410D01*
X108364142Y-68298625D01*
X108406034Y-68303367D01*
X108439751Y-68307350D01*
X108462867Y-68310285D01*
X108472956Y-68311886D01*
X108473190Y-68311986D01*
X108471400Y-68319737D01*
X108465303Y-68340285D01*
X108455610Y-68371365D01*
X108443028Y-68410712D01*
X108428268Y-68456061D01*
X108424316Y-68468085D01*
X108403511Y-68532898D01*
X108383566Y-68598673D01*
X108363943Y-68667471D01*
X108344109Y-68741348D01*
X108323526Y-68822366D01*
X108301659Y-68912582D01*
X108277973Y-69014055D01*
X108251932Y-69128845D01*
X108248942Y-69142187D01*
X108223861Y-69253479D01*
X108201477Y-69351066D01*
X108181334Y-69436804D01*
X108162972Y-69512545D01*
X108145934Y-69580143D01*
X108129762Y-69641454D01*
X108113999Y-69698330D01*
X108098185Y-69752625D01*
X108098034Y-69753133D01*
X108081535Y-69806718D01*
X108066175Y-69851774D01*
X108050166Y-69892377D01*
X108031720Y-69932603D01*
X108009049Y-69976528D01*
X107980366Y-70028226D01*
X107967362Y-70051031D01*
X107930627Y-70119597D01*
X107904542Y-70179359D01*
X107888478Y-70232689D01*
X107881807Y-70281955D01*
X107883901Y-70329529D01*
X107887684Y-70351736D01*
X107897575Y-70387902D01*
X107911084Y-70410818D01*
X107931163Y-70423097D01*
X107960761Y-70427349D01*
X107973204Y-70427435D01*
X108005807Y-70424887D01*
X108037996Y-70419093D01*
X108051989Y-70415064D01*
X108077432Y-70402688D01*
X108105543Y-70384156D01*
X108119458Y-70372924D01*
X108132163Y-70361399D01*
X108143713Y-70349896D01*
X108154682Y-70337234D01*
X108165644Y-70322228D01*
X108177173Y-70303696D01*
X108189841Y-70280454D01*
X108204223Y-70251320D01*
X108220892Y-70215111D01*
X108240422Y-70170643D01*
X108263387Y-70116733D01*
X108290359Y-70052199D01*
X108321914Y-69975857D01*
X108358624Y-69886524D01*
X108376872Y-69842030D01*
X108406854Y-69767804D01*
X108437672Y-69689234D01*
X108469899Y-69604770D01*
X108504106Y-69512858D01*
X108540863Y-69411948D01*
X108580743Y-69300486D01*
X108624317Y-69176922D01*
X108669646Y-69046937D01*
X108710718Y-68928913D01*
X108749258Y-68818746D01*
X108784867Y-68717563D01*
X108817143Y-68626492D01*
X108845686Y-68546662D01*
X108870096Y-68479199D01*
X108889973Y-68425232D01*
X108896080Y-68408959D01*
X108913697Y-68362324D01*
X108954427Y-68367434D01*
X108972480Y-68369590D01*
X109003979Y-68373233D01*
X109046593Y-68378099D01*
X109097990Y-68383923D01*
X109155838Y-68390440D01*
X109217806Y-68397386D01*
X109241219Y-68400001D01*
X109309633Y-68407751D01*
X109379718Y-68415901D01*
X109448059Y-68424036D01*
X109511239Y-68431747D01*
X109565846Y-68438620D01*
X109608462Y-68444244D01*
X109612297Y-68444772D01*
X109737313Y-68462086D01*
X109737313Y-68507911D01*
X109735905Y-68530964D01*
X109732006Y-68565980D01*
X109726102Y-68609330D01*
X109718677Y-68657384D01*
X109712255Y-68695165D01*
X109700674Y-68765251D01*
X109692760Y-68825566D01*
X109687931Y-68881633D01*
X109685600Y-68938974D01*
X109685416Y-68948936D01*
X109684387Y-68990079D01*
X109682788Y-69025816D01*
X109680811Y-69053003D01*
X109678650Y-69068498D01*
X109677927Y-69070514D01*
X109669475Y-69078085D01*
X109650312Y-69092368D01*
X109623072Y-69111477D01*
X109590391Y-69133532D01*
X109581782Y-69139217D01*
X109523598Y-69180702D01*
X109479663Y-69220071D01*
X109448877Y-69259250D01*
X109430136Y-69300166D01*
X109422341Y-69344746D01*
X109424388Y-69394917D01*
X109426635Y-69410598D01*
X109441403Y-69453248D01*
X109470337Y-69491059D01*
X109512055Y-69522417D01*
X109530353Y-69532012D01*
X109569224Y-69544618D01*
X109619081Y-69551975D01*
X109675864Y-69553889D01*
X109735511Y-69550165D01*
X109778216Y-69543835D01*
X109808912Y-69537286D01*
X109846453Y-69528119D01*
X109887718Y-69517234D01*
X109929584Y-69505531D01*
X109968929Y-69493910D01*
X110002631Y-69483270D01*
X110027567Y-69474512D01*
X110040616Y-69468535D01*
X110041274Y-69468012D01*
X110046032Y-69457138D01*
X110052746Y-69432704D01*
X110061001Y-69396846D01*
X110070382Y-69351701D01*
X110080473Y-69299405D01*
X110090860Y-69242096D01*
X110101128Y-69181910D01*
X110110863Y-69120983D01*
X110118114Y-69072261D01*
X110123793Y-69030444D01*
X110130156Y-68979885D01*
X110136934Y-68923106D01*
X110143858Y-68862626D01*
X110150659Y-68800967D01*
X110157067Y-68740647D01*
X110162814Y-68684188D01*
X110167630Y-68634110D01*
X110171245Y-68592933D01*
X110173391Y-68563178D01*
X110173875Y-68550241D01*
X110178097Y-68545897D01*
X110192315Y-68545895D01*
X110218855Y-68550313D01*
X110227454Y-68552069D01*
X110248654Y-68556899D01*
X110280008Y-68564556D01*
X110318883Y-68574348D01*
X110362649Y-68585583D01*
X110408674Y-68597566D01*
X110454327Y-68609607D01*
X110496976Y-68621011D01*
X110533989Y-68631087D01*
X110562736Y-68639141D01*
X110580585Y-68644481D01*
X110585195Y-68646241D01*
X110583466Y-68653964D01*
X110576166Y-68670866D01*
X110571436Y-68680468D01*
X110546246Y-68742166D01*
X110526981Y-68814907D01*
X110514086Y-68894834D01*
X110508006Y-68978090D01*
X110509186Y-69060819D01*
X110518072Y-69139163D01*
X110518306Y-69140513D01*
X110547938Y-69265721D01*
X110592328Y-69389386D01*
X110650358Y-69509847D01*
X110720912Y-69625441D01*
X110802872Y-69734509D01*
X110895122Y-69835389D01*
X110996544Y-69926418D01*
X111095543Y-69999079D01*
X111209765Y-70068609D01*
X111327683Y-70128055D01*
X111451432Y-70178175D01*
X111583149Y-70219724D01*
X111724971Y-70253458D01*
X111879033Y-70280134D01*
X111896313Y-70282600D01*
X111950281Y-70288390D01*
X112016708Y-70292716D01*
X112092248Y-70295577D01*
X112173552Y-70296976D01*
X112257272Y-70296914D01*
X112340062Y-70295391D01*
X112418574Y-70292410D01*
X112489460Y-70287971D01*
X112547188Y-70282345D01*
X112648643Y-70268391D01*
X112753315Y-70251055D01*
X112857685Y-70231076D01*
X112958232Y-70209192D01*
X113051439Y-70186141D01*
X113133786Y-70162663D01*
X113164395Y-70152816D01*
X113257310Y-70117936D01*
X113346837Y-70077126D01*
X113430987Y-70031673D01*
X113507771Y-69982863D01*
X113575201Y-69931983D01*
X113631290Y-69880317D01*
X113674048Y-69829154D01*
X113681221Y-69818478D01*
X113708619Y-69763226D01*
X113723282Y-69704507D01*
X113723853Y-69670367D01*
X113292977Y-69670367D01*
X113291093Y-69721578D01*
X113277909Y-69764307D01*
X113248384Y-69809025D01*
X113204113Y-69852851D01*
X113146220Y-69895246D01*
X113075830Y-69935671D01*
X112994067Y-69973591D01*
X112902058Y-70008466D01*
X112800925Y-70039758D01*
X112691794Y-70066930D01*
X112611015Y-70083253D01*
X112507669Y-70100286D01*
X112415302Y-70111144D01*
X112330364Y-70116051D01*
X112249306Y-70115229D01*
X112180920Y-70110203D01*
X112048127Y-70090404D01*
X111916862Y-70058477D01*
X111788416Y-70015319D01*
X111664076Y-69961827D01*
X111545133Y-69898897D01*
X111432875Y-69827427D01*
X111328592Y-69748312D01*
X111233574Y-69662450D01*
X111149110Y-69570737D01*
X111076488Y-69474071D01*
X111017000Y-69373347D01*
X110971932Y-69269463D01*
X110971878Y-69269311D01*
X110947003Y-69187828D01*
X110932476Y-69109941D01*
X110927020Y-69028434D01*
X110926905Y-69015187D01*
X110932806Y-68916029D01*
X110951533Y-68822583D01*
X110980957Y-68737375D01*
X110996578Y-68700078D01*
X111008040Y-68675470D01*
X111017096Y-68661504D01*
X111025498Y-68656134D01*
X111034997Y-68657314D01*
X111045467Y-68662053D01*
X111060085Y-68667288D01*
X111088729Y-68675607D01*
X111129932Y-68686647D01*
X111182223Y-68700043D01*
X111244133Y-68715432D01*
X111314193Y-68732450D01*
X111390934Y-68750735D01*
X111472887Y-68769922D01*
X111558582Y-68789648D01*
X111590719Y-68796960D01*
X111741635Y-68832287D01*
X111879620Y-68867074D01*
X112007551Y-68902254D01*
X112128304Y-68938758D01*
X112244755Y-68977520D01*
X112359780Y-69019472D01*
X112476254Y-69065548D01*
X112597056Y-69116679D01*
X112654255Y-69141881D01*
X112781034Y-69200758D01*
X112892577Y-69257737D01*
X112989364Y-69313151D01*
X113071877Y-69367333D01*
X113140596Y-69420617D01*
X113196001Y-69473336D01*
X113238575Y-69525823D01*
X113260911Y-69562440D01*
X113282820Y-69616179D01*
X113292977Y-69670367D01*
X113723853Y-69670367D01*
X113724253Y-69646507D01*
X113722867Y-69636266D01*
X113705526Y-69567523D01*
X113675336Y-69493535D01*
X113633457Y-69416521D01*
X113581050Y-69338701D01*
X113539974Y-69286435D01*
X113481550Y-69225520D01*
X113408422Y-69164735D01*
X113321755Y-69104700D01*
X113222713Y-69046033D01*
X113112460Y-68989350D01*
X112992159Y-68935271D01*
X112862976Y-68884413D01*
X112726073Y-68837395D01*
X112650375Y-68814123D01*
X112591698Y-68797021D01*
X112535070Y-68781039D01*
X112478806Y-68765782D01*
X112421223Y-68750855D01*
X112360636Y-68735865D01*
X112295361Y-68720416D01*
X112223714Y-68704113D01*
X112144011Y-68686561D01*
X112054568Y-68667367D01*
X111953700Y-68646135D01*
X111839723Y-68622470D01*
X111780986Y-68610362D01*
X111673986Y-68588226D01*
X111573772Y-68567258D01*
X111481339Y-68547678D01*
X111397681Y-68529703D01*
X111323791Y-68513553D01*
X111260665Y-68499448D01*
X111209297Y-68487606D01*
X111170680Y-68478247D01*
X111145810Y-68471590D01*
X111136304Y-68468265D01*
X111136679Y-68460203D01*
X111147591Y-68442475D01*
X111167993Y-68416271D01*
X111196838Y-68382782D01*
X111233081Y-68343198D01*
X111275675Y-68298709D01*
X111323575Y-68250505D01*
X111353377Y-68221312D01*
X111498626Y-68089873D01*
X111658333Y-67963119D01*
X111831647Y-67841534D01*
X112017717Y-67725604D01*
X112215693Y-67615813D01*
X112424722Y-67512646D01*
X112643954Y-67416587D01*
X112872537Y-67328122D01*
X112999152Y-67283818D01*
X113067556Y-67261027D01*
X113132284Y-67240132D01*
X113195626Y-67220488D01*
X113259877Y-67201453D01*
X113327326Y-67182385D01*
X113400268Y-67162640D01*
X113480994Y-67141577D01*
X113571797Y-67118551D01*
X113674969Y-67092921D01*
X113715715Y-67082900D01*
X113814677Y-67058523D01*
X113900381Y-67037174D01*
X113975021Y-67018248D01*
X114040791Y-67001138D01*
X114099887Y-66985238D01*
X114154502Y-66969942D01*
X114206832Y-66954645D01*
X114259072Y-66938739D01*
X114313415Y-66921618D01*
X114372057Y-66902678D01*
X114392657Y-66895947D01*
X114452291Y-66876724D01*
X114517102Y-66856348D01*
X114581994Y-66836386D01*
X114641874Y-66818406D01*
X114690313Y-66804352D01*
X114784618Y-66776072D01*
X114864130Y-66748502D01*
X114929873Y-66721023D01*
X114982874Y-66693017D01*
X115024158Y-66663866D01*
X115054750Y-66632953D01*
X115075677Y-66599660D01*
X115087602Y-66564986D01*
X115091297Y-66531093D01*
X115085126Y-66500789D01*
X115067941Y-66472689D01*
X115038597Y-66445411D01*
X114995948Y-66417571D01*
X114942189Y-66389402D01*
X114904781Y-66371972D01*
X114864175Y-66354614D01*
X114819268Y-66336985D01*
X114768954Y-66318745D01*
X114712130Y-66299552D01*
X114647691Y-66279066D01*
X114574535Y-66256945D01*
X114491555Y-66232848D01*
X114397649Y-66206434D01*
X114291712Y-66177361D01*
X114172641Y-66145289D01*
X114039330Y-66109876D01*
X114027532Y-66106760D01*
X113855556Y-66061918D01*
X113696971Y-66021794D01*
X113550117Y-65986061D01*
X113413333Y-65954394D01*
X113284957Y-65926465D01*
X113163330Y-65901948D01*
X113046791Y-65880517D01*
X112933678Y-65861846D01*
X112822330Y-65845607D01*
X112711088Y-65831474D01*
X112598290Y-65819120D01*
X112531313Y-65812625D01*
X112467433Y-65807372D01*
X112394808Y-65802534D01*
X112316356Y-65798214D01*
X112234994Y-65794514D01*
X112153639Y-65791533D01*
X112075209Y-65789375D01*
X112002622Y-65788140D01*
X111938795Y-65787929D01*
X111886646Y-65788845D01*
X111886646Y-65788845D01*
G37*
X111886646Y-65788845D02*
X111868879Y-65789593D01*
X111766040Y-65794978D01*
X111659541Y-65852222D01*
X111594771Y-65888127D01*
X111542761Y-65919586D01*
X111501522Y-65948020D01*
X111469062Y-65974849D01*
X111443389Y-66001492D01*
X111434141Y-66012984D01*
X111414586Y-66040729D01*
X111400605Y-66064702D01*
X111393268Y-66082497D01*
X111393645Y-66091707D01*
X111399136Y-66091732D01*
X111416428Y-66086594D01*
X111445867Y-66079384D01*
X111483974Y-66070828D01*
X111527268Y-66061654D01*
X111572270Y-66052586D01*
X111615501Y-66044353D01*
X111653480Y-66037681D01*
X111671789Y-66034804D01*
X111850469Y-66015070D01*
X112039725Y-66006819D01*
X112239217Y-66010006D01*
X112448603Y-66024590D01*
X112667543Y-66050526D01*
X112895697Y-66087772D01*
X113132723Y-66136283D01*
X113378281Y-66196018D01*
X113632031Y-66266932D01*
X113726394Y-66295522D01*
X113791596Y-66316058D01*
X113860851Y-66338558D01*
X113932659Y-66362477D01*
X114005515Y-66387268D01*
X114077918Y-66412387D01*
X114148364Y-66437288D01*
X114215352Y-66461425D01*
X114277378Y-66484253D01*
X114332941Y-66505227D01*
X114380537Y-66523802D01*
X114418664Y-66539431D01*
X114445820Y-66551570D01*
X114460502Y-66559672D01*
X114462479Y-66562726D01*
X114452993Y-66566965D01*
X114429509Y-66575614D01*
X114393168Y-66588296D01*
X114345109Y-66604638D01*
X114286472Y-66624263D01*
X114218396Y-66646797D01*
X114142021Y-66671863D01*
X114058486Y-66699088D01*
X113968932Y-66728096D01*
X113874498Y-66758511D01*
X113776323Y-66789958D01*
X113675547Y-66822063D01*
X113654686Y-66828687D01*
X113467969Y-66888304D01*
X113295432Y-66944203D01*
X113135933Y-66996812D01*
X112988328Y-67046561D01*
X112851475Y-67093880D01*
X112724231Y-67139199D01*
X112605453Y-67182946D01*
X112493997Y-67225552D01*
X112388721Y-67267446D01*
X112288483Y-67309059D01*
X112192138Y-67350818D01*
X112098545Y-67393155D01*
X112006560Y-67436499D01*
X111915040Y-67481278D01*
X111904250Y-67486661D01*
X111694484Y-67597475D01*
X111499843Y-67712671D01*
X111320167Y-67832354D01*
X111155294Y-67956628D01*
X111070813Y-68027019D01*
X111023199Y-68069580D01*
X110970857Y-68118761D01*
X110916945Y-68171401D01*
X110864626Y-68224342D01*
X110817057Y-68274423D01*
X110777401Y-68318485D01*
X110766423Y-68331365D01*
X110717594Y-68389699D01*
X110654094Y-68385586D01*
X110621632Y-68381863D01*
X110579255Y-68374699D01*
X110532288Y-68365098D01*
X110486055Y-68354068D01*
X110482891Y-68353244D01*
X110437445Y-68342226D01*
X110389680Y-68332176D01*
X110342447Y-68323529D01*
X110298599Y-68316717D01*
X110260988Y-68312173D01*
X110232465Y-68310332D01*
X110215884Y-68311625D01*
X110214067Y-68312407D01*
X110207323Y-68314011D01*
X110202936Y-68307851D01*
X110200788Y-68292235D01*
X110200761Y-68265469D01*
X110202736Y-68225859D01*
X110205374Y-68187874D01*
X110210990Y-68118729D01*
X110217469Y-68052745D01*
X110225172Y-67987812D01*
X110234457Y-67921822D01*
X110245683Y-67852665D01*
X110259209Y-67778233D01*
X110275394Y-67696417D01*
X110294598Y-67605107D01*
X110317178Y-67502194D01*
X110337392Y-67412401D01*
X110355074Y-67333462D01*
X110371619Y-67257568D01*
X110386684Y-67186438D01*
X110399925Y-67121791D01*
X110410999Y-67065344D01*
X110419563Y-67018816D01*
X110425273Y-66983924D01*
X110427786Y-66962388D01*
X110427875Y-66959575D01*
X110420374Y-66947259D01*
X110399594Y-66935213D01*
X110368124Y-66924227D01*
X110328552Y-66915093D01*
X110283467Y-66908600D01*
X110253250Y-66906215D01*
X110194568Y-66906128D01*
X110146309Y-66913847D01*
X110104315Y-66930899D01*
X110064430Y-66958810D01*
X110034708Y-66986461D01*
X110003545Y-67021234D01*
X109975460Y-67060093D01*
X109950173Y-67104135D01*
X109927402Y-67154455D01*
X109906865Y-67212146D01*
X109888281Y-67278305D01*
X109871370Y-67354026D01*
X109855848Y-67440404D01*
X109841436Y-67538534D01*
X109827851Y-67649511D01*
X109814812Y-67774430D01*
X109805027Y-67880125D01*
X109799362Y-67943214D01*
X109793615Y-68005431D01*
X109788078Y-68063768D01*
X109783038Y-68115220D01*
X109778786Y-68156778D01*
X109775688Y-68184792D01*
X109766350Y-68263241D01*
X109634753Y-68258665D01*
X109503403Y-68249752D01*
X109376157Y-68233039D01*
X109296378Y-68221431D01*
X109218433Y-68213738D01*
X109134736Y-68209267D01*
X109106282Y-68208423D01*
X108963407Y-68204859D01*
X108964321Y-68135757D01*
X108965103Y-68110528D01*
X108967060Y-68085681D01*
X108970637Y-68059348D01*
X108976280Y-68029659D01*
X108984437Y-67994747D01*
X108995553Y-67952743D01*
X109010074Y-67901779D01*
X109028448Y-67839986D01*
X109051120Y-67765495D01*
X109058573Y-67741218D01*
X109082907Y-67661846D01*
X109103043Y-67595576D01*
X109119551Y-67540366D01*
X109133003Y-67494176D01*
X109143969Y-67454965D01*
X109153019Y-67420693D01*
X109160725Y-67389319D01*
X109167655Y-67358803D01*
X109174382Y-67327103D01*
X109174458Y-67326735D01*
X109183535Y-67273287D01*
X109189633Y-67217340D01*
X109192641Y-67162568D01*
X109192449Y-67112646D01*
X109188945Y-67071251D01*
X109182934Y-67044501D01*
X109160118Y-67000650D01*
X109127953Y-66968123D01*
X109088796Y-66947519D01*
X109045000Y-66939436D01*
X108998923Y-66944472D01*
X108952918Y-66963225D01*
X108928225Y-66979815D01*
X108889007Y-67016106D01*
X108851385Y-67062903D01*
X108815140Y-67120787D01*
X108780051Y-67190343D01*
X108745898Y-67272153D01*
X108712463Y-67366801D01*
X108679526Y-67474870D01*
X108646866Y-67596941D01*
X108614265Y-67733600D01*
X108581502Y-67885429D01*
X108574922Y-67917611D01*
X108564338Y-67969612D01*
X108554543Y-68017348D01*
X108546064Y-68058288D01*
X108539426Y-68089899D01*
X108535155Y-68109649D01*
X108534127Y-68114064D01*
X108530958Y-68123726D01*
X108525156Y-68129645D01*
X108513370Y-68132732D01*
X108492244Y-68133898D01*
X108460499Y-68134055D01*
X108376065Y-68132486D01*
X108287603Y-68127817D01*
X108193707Y-68119854D01*
X108092973Y-68108404D01*
X107983997Y-68093272D01*
X107865373Y-68074264D01*
X107735698Y-68051186D01*
X107593566Y-68023845D01*
X107447344Y-67994081D01*
X107306516Y-67965259D01*
X107180859Y-67940565D01*
X107070402Y-67920006D01*
X106975174Y-67903586D01*
X106895205Y-67891311D01*
X106830524Y-67883186D01*
X106823032Y-67882414D01*
X106754344Y-67875551D01*
X106749974Y-67902480D01*
X106747851Y-67928811D01*
X106750806Y-67956390D01*
X106759675Y-67989165D01*
X106775293Y-68031083D01*
X106779180Y-68040621D01*
X106793118Y-68072391D01*
X106804308Y-68091988D01*
X106814792Y-68102375D01*
X106824250Y-68106091D01*
X106845351Y-68109831D01*
X106880826Y-68115252D01*
X106929283Y-68122179D01*
X106989331Y-68130439D01*
X107059577Y-68139855D01*
X107138630Y-68150253D01*
X107225097Y-68161460D01*
X107317588Y-68173299D01*
X107414710Y-68185596D01*
X107515071Y-68198177D01*
X107617279Y-68210866D01*
X107719942Y-68223490D01*
X107821669Y-68235872D01*
X107921067Y-68247839D01*
X108016745Y-68259216D01*
X108107311Y-68269828D01*
X108191373Y-68279501D01*
X108267539Y-68288059D01*
X108316500Y-68293410D01*
X108364142Y-68298625D01*
X108406034Y-68303367D01*
X108439751Y-68307350D01*
X108462867Y-68310285D01*
X108472956Y-68311886D01*
X108473190Y-68311986D01*
X108471400Y-68319737D01*
X108465303Y-68340285D01*
X108455610Y-68371365D01*
X108443028Y-68410712D01*
X108428268Y-68456061D01*
X108424316Y-68468085D01*
X108403511Y-68532898D01*
X108383566Y-68598673D01*
X108363943Y-68667471D01*
X108344109Y-68741348D01*
X108323526Y-68822366D01*
X108301659Y-68912582D01*
X108277973Y-69014055D01*
X108251932Y-69128845D01*
X108248942Y-69142187D01*
X108223861Y-69253479D01*
X108201477Y-69351066D01*
X108181334Y-69436804D01*
X108162972Y-69512545D01*
X108145934Y-69580143D01*
X108129762Y-69641454D01*
X108113999Y-69698330D01*
X108098185Y-69752625D01*
X108098034Y-69753133D01*
X108081535Y-69806718D01*
X108066175Y-69851774D01*
X108050166Y-69892377D01*
X108031720Y-69932603D01*
X108009049Y-69976528D01*
X107980366Y-70028226D01*
X107967362Y-70051031D01*
X107930627Y-70119597D01*
X107904542Y-70179359D01*
X107888478Y-70232689D01*
X107881807Y-70281955D01*
X107883901Y-70329529D01*
X107887684Y-70351736D01*
X107897575Y-70387902D01*
X107911084Y-70410818D01*
X107931163Y-70423097D01*
X107960761Y-70427349D01*
X107973204Y-70427435D01*
X108005807Y-70424887D01*
X108037996Y-70419093D01*
X108051989Y-70415064D01*
X108077432Y-70402688D01*
X108105543Y-70384156D01*
X108119458Y-70372924D01*
X108132163Y-70361399D01*
X108143713Y-70349896D01*
X108154682Y-70337234D01*
X108165644Y-70322228D01*
X108177173Y-70303696D01*
X108189841Y-70280454D01*
X108204223Y-70251320D01*
X108220892Y-70215111D01*
X108240422Y-70170643D01*
X108263387Y-70116733D01*
X108290359Y-70052199D01*
X108321914Y-69975857D01*
X108358624Y-69886524D01*
X108376872Y-69842030D01*
X108406854Y-69767804D01*
X108437672Y-69689234D01*
X108469899Y-69604770D01*
X108504106Y-69512858D01*
X108540863Y-69411948D01*
X108580743Y-69300486D01*
X108624317Y-69176922D01*
X108669646Y-69046937D01*
X108710718Y-68928913D01*
X108749258Y-68818746D01*
X108784867Y-68717563D01*
X108817143Y-68626492D01*
X108845686Y-68546662D01*
X108870096Y-68479199D01*
X108889973Y-68425232D01*
X108896080Y-68408959D01*
X108913697Y-68362324D01*
X108954427Y-68367434D01*
X108972480Y-68369590D01*
X109003979Y-68373233D01*
X109046593Y-68378099D01*
X109097990Y-68383923D01*
X109155838Y-68390440D01*
X109217806Y-68397386D01*
X109241219Y-68400001D01*
X109309633Y-68407751D01*
X109379718Y-68415901D01*
X109448059Y-68424036D01*
X109511239Y-68431747D01*
X109565846Y-68438620D01*
X109608462Y-68444244D01*
X109612297Y-68444772D01*
X109737313Y-68462086D01*
X109737313Y-68507911D01*
X109735905Y-68530964D01*
X109732006Y-68565980D01*
X109726102Y-68609330D01*
X109718677Y-68657384D01*
X109712255Y-68695165D01*
X109700674Y-68765251D01*
X109692760Y-68825566D01*
X109687931Y-68881633D01*
X109685600Y-68938974D01*
X109685416Y-68948936D01*
X109684387Y-68990079D01*
X109682788Y-69025816D01*
X109680811Y-69053003D01*
X109678650Y-69068498D01*
X109677927Y-69070514D01*
X109669475Y-69078085D01*
X109650312Y-69092368D01*
X109623072Y-69111477D01*
X109590391Y-69133532D01*
X109581782Y-69139217D01*
X109523598Y-69180702D01*
X109479663Y-69220071D01*
X109448877Y-69259250D01*
X109430136Y-69300166D01*
X109422341Y-69344746D01*
X109424388Y-69394917D01*
X109426635Y-69410598D01*
X109441403Y-69453248D01*
X109470337Y-69491059D01*
X109512055Y-69522417D01*
X109530353Y-69532012D01*
X109569224Y-69544618D01*
X109619081Y-69551975D01*
X109675864Y-69553889D01*
X109735511Y-69550165D01*
X109778216Y-69543835D01*
X109808912Y-69537286D01*
X109846453Y-69528119D01*
X109887718Y-69517234D01*
X109929584Y-69505531D01*
X109968929Y-69493910D01*
X110002631Y-69483270D01*
X110027567Y-69474512D01*
X110040616Y-69468535D01*
X110041274Y-69468012D01*
X110046032Y-69457138D01*
X110052746Y-69432704D01*
X110061001Y-69396846D01*
X110070382Y-69351701D01*
X110080473Y-69299405D01*
X110090860Y-69242096D01*
X110101128Y-69181910D01*
X110110863Y-69120983D01*
X110118114Y-69072261D01*
X110123793Y-69030444D01*
X110130156Y-68979885D01*
X110136934Y-68923106D01*
X110143858Y-68862626D01*
X110150659Y-68800967D01*
X110157067Y-68740647D01*
X110162814Y-68684188D01*
X110167630Y-68634110D01*
X110171245Y-68592933D01*
X110173391Y-68563178D01*
X110173875Y-68550241D01*
X110178097Y-68545897D01*
X110192315Y-68545895D01*
X110218855Y-68550313D01*
X110227454Y-68552069D01*
X110248654Y-68556899D01*
X110280008Y-68564556D01*
X110318883Y-68574348D01*
X110362649Y-68585583D01*
X110408674Y-68597566D01*
X110454327Y-68609607D01*
X110496976Y-68621011D01*
X110533989Y-68631087D01*
X110562736Y-68639141D01*
X110580585Y-68644481D01*
X110585195Y-68646241D01*
X110583466Y-68653964D01*
X110576166Y-68670866D01*
X110571436Y-68680468D01*
X110546246Y-68742166D01*
X110526981Y-68814907D01*
X110514086Y-68894834D01*
X110508006Y-68978090D01*
X110509186Y-69060819D01*
X110518072Y-69139163D01*
X110518306Y-69140513D01*
X110547938Y-69265721D01*
X110592328Y-69389386D01*
X110650358Y-69509847D01*
X110720912Y-69625441D01*
X110802872Y-69734509D01*
X110895122Y-69835389D01*
X110996544Y-69926418D01*
X111095543Y-69999079D01*
X111209765Y-70068609D01*
X111327683Y-70128055D01*
X111451432Y-70178175D01*
X111583149Y-70219724D01*
X111724971Y-70253458D01*
X111879033Y-70280134D01*
X111896313Y-70282600D01*
X111950281Y-70288390D01*
X112016708Y-70292716D01*
X112092248Y-70295577D01*
X112173552Y-70296976D01*
X112257272Y-70296914D01*
X112340062Y-70295391D01*
X112418574Y-70292410D01*
X112489460Y-70287971D01*
X112547188Y-70282345D01*
X112648643Y-70268391D01*
X112753315Y-70251055D01*
X112857685Y-70231076D01*
X112958232Y-70209192D01*
X113051439Y-70186141D01*
X113133786Y-70162663D01*
X113164395Y-70152816D01*
X113257310Y-70117936D01*
X113346837Y-70077126D01*
X113430987Y-70031673D01*
X113507771Y-69982863D01*
X113575201Y-69931983D01*
X113631290Y-69880317D01*
X113674048Y-69829154D01*
X113681221Y-69818478D01*
X113708619Y-69763226D01*
X113723282Y-69704507D01*
X113723853Y-69670367D01*
X113292977Y-69670367D01*
X113291093Y-69721578D01*
X113277909Y-69764307D01*
X113248384Y-69809025D01*
X113204113Y-69852851D01*
X113146220Y-69895246D01*
X113075830Y-69935671D01*
X112994067Y-69973591D01*
X112902058Y-70008466D01*
X112800925Y-70039758D01*
X112691794Y-70066930D01*
X112611015Y-70083253D01*
X112507669Y-70100286D01*
X112415302Y-70111144D01*
X112330364Y-70116051D01*
X112249306Y-70115229D01*
X112180920Y-70110203D01*
X112048127Y-70090404D01*
X111916862Y-70058477D01*
X111788416Y-70015319D01*
X111664076Y-69961827D01*
X111545133Y-69898897D01*
X111432875Y-69827427D01*
X111328592Y-69748312D01*
X111233574Y-69662450D01*
X111149110Y-69570737D01*
X111076488Y-69474071D01*
X111017000Y-69373347D01*
X110971932Y-69269463D01*
X110971878Y-69269311D01*
X110947003Y-69187828D01*
X110932476Y-69109941D01*
X110927020Y-69028434D01*
X110926905Y-69015187D01*
X110932806Y-68916029D01*
X110951533Y-68822583D01*
X110980957Y-68737375D01*
X110996578Y-68700078D01*
X111008040Y-68675470D01*
X111017096Y-68661504D01*
X111025498Y-68656134D01*
X111034997Y-68657314D01*
X111045467Y-68662053D01*
X111060085Y-68667288D01*
X111088729Y-68675607D01*
X111129932Y-68686647D01*
X111182223Y-68700043D01*
X111244133Y-68715432D01*
X111314193Y-68732450D01*
X111390934Y-68750735D01*
X111472887Y-68769922D01*
X111558582Y-68789648D01*
X111590719Y-68796960D01*
X111741635Y-68832287D01*
X111879620Y-68867074D01*
X112007551Y-68902254D01*
X112128304Y-68938758D01*
X112244755Y-68977520D01*
X112359780Y-69019472D01*
X112476254Y-69065548D01*
X112597056Y-69116679D01*
X112654255Y-69141881D01*
X112781034Y-69200758D01*
X112892577Y-69257737D01*
X112989364Y-69313151D01*
X113071877Y-69367333D01*
X113140596Y-69420617D01*
X113196001Y-69473336D01*
X113238575Y-69525823D01*
X113260911Y-69562440D01*
X113282820Y-69616179D01*
X113292977Y-69670367D01*
X113723853Y-69670367D01*
X113724253Y-69646507D01*
X113722867Y-69636266D01*
X113705526Y-69567523D01*
X113675336Y-69493535D01*
X113633457Y-69416521D01*
X113581050Y-69338701D01*
X113539974Y-69286435D01*
X113481550Y-69225520D01*
X113408422Y-69164735D01*
X113321755Y-69104700D01*
X113222713Y-69046033D01*
X113112460Y-68989350D01*
X112992159Y-68935271D01*
X112862976Y-68884413D01*
X112726073Y-68837395D01*
X112650375Y-68814123D01*
X112591698Y-68797021D01*
X112535070Y-68781039D01*
X112478806Y-68765782D01*
X112421223Y-68750855D01*
X112360636Y-68735865D01*
X112295361Y-68720416D01*
X112223714Y-68704113D01*
X112144011Y-68686561D01*
X112054568Y-68667367D01*
X111953700Y-68646135D01*
X111839723Y-68622470D01*
X111780986Y-68610362D01*
X111673986Y-68588226D01*
X111573772Y-68567258D01*
X111481339Y-68547678D01*
X111397681Y-68529703D01*
X111323791Y-68513553D01*
X111260665Y-68499448D01*
X111209297Y-68487606D01*
X111170680Y-68478247D01*
X111145810Y-68471590D01*
X111136304Y-68468265D01*
X111136679Y-68460203D01*
X111147591Y-68442475D01*
X111167993Y-68416271D01*
X111196838Y-68382782D01*
X111233081Y-68343198D01*
X111275675Y-68298709D01*
X111323575Y-68250505D01*
X111353377Y-68221312D01*
X111498626Y-68089873D01*
X111658333Y-67963119D01*
X111831647Y-67841534D01*
X112017717Y-67725604D01*
X112215693Y-67615813D01*
X112424722Y-67512646D01*
X112643954Y-67416587D01*
X112872537Y-67328122D01*
X112999152Y-67283818D01*
X113067556Y-67261027D01*
X113132284Y-67240132D01*
X113195626Y-67220488D01*
X113259877Y-67201453D01*
X113327326Y-67182385D01*
X113400268Y-67162640D01*
X113480994Y-67141577D01*
X113571797Y-67118551D01*
X113674969Y-67092921D01*
X113715715Y-67082900D01*
X113814677Y-67058523D01*
X113900381Y-67037174D01*
X113975021Y-67018248D01*
X114040791Y-67001138D01*
X114099887Y-66985238D01*
X114154502Y-66969942D01*
X114206832Y-66954645D01*
X114259072Y-66938739D01*
X114313415Y-66921618D01*
X114372057Y-66902678D01*
X114392657Y-66895947D01*
X114452291Y-66876724D01*
X114517102Y-66856348D01*
X114581994Y-66836386D01*
X114641874Y-66818406D01*
X114690313Y-66804352D01*
X114784618Y-66776072D01*
X114864130Y-66748502D01*
X114929873Y-66721023D01*
X114982874Y-66693017D01*
X115024158Y-66663866D01*
X115054750Y-66632953D01*
X115075677Y-66599660D01*
X115087602Y-66564986D01*
X115091297Y-66531093D01*
X115085126Y-66500789D01*
X115067941Y-66472689D01*
X115038597Y-66445411D01*
X114995948Y-66417571D01*
X114942189Y-66389402D01*
X114904781Y-66371972D01*
X114864175Y-66354614D01*
X114819268Y-66336985D01*
X114768954Y-66318745D01*
X114712130Y-66299552D01*
X114647691Y-66279066D01*
X114574535Y-66256945D01*
X114491555Y-66232848D01*
X114397649Y-66206434D01*
X114291712Y-66177361D01*
X114172641Y-66145289D01*
X114039330Y-66109876D01*
X114027532Y-66106760D01*
X113855556Y-66061918D01*
X113696971Y-66021794D01*
X113550117Y-65986061D01*
X113413333Y-65954394D01*
X113284957Y-65926465D01*
X113163330Y-65901948D01*
X113046791Y-65880517D01*
X112933678Y-65861846D01*
X112822330Y-65845607D01*
X112711088Y-65831474D01*
X112598290Y-65819120D01*
X112531313Y-65812625D01*
X112467433Y-65807372D01*
X112394808Y-65802534D01*
X112316356Y-65798214D01*
X112234994Y-65794514D01*
X112153639Y-65791533D01*
X112075209Y-65789375D01*
X112002622Y-65788140D01*
X111938795Y-65787929D01*
X111886646Y-65788845D01*
D12*
X145360000Y-65350000D03*
D13*
X142820000Y-65350000D03*
X140280000Y-65350000D03*
X137740000Y-65350000D03*
X135200000Y-65350000D03*
X132660000Y-65350000D03*
X130120000Y-65350000D03*
D14*
X114620000Y-95475000D03*
X112620000Y-95475000D03*
D15*
X117020000Y-93225000D03*
X110220000Y-93225000D03*
D16*
X140620000Y-62050000D03*
X135620000Y-62050000D03*
D17*
X141620000Y-59350000D03*
X134620000Y-59350000D03*
D18*
X123370000Y-82850000D03*
X123370000Y-84850000D03*
X123370000Y-80850000D03*
D19*
X116370000Y-73850000D03*
X114370000Y-73850000D03*
X112370000Y-73850000D03*
D20*
X120370000Y-88850000D03*
X108370000Y-76850000D03*
D21*
X129020000Y-74250000D03*
X149020000Y-72350000D03*
X144820000Y-72550000D03*
X158120000Y-66050000D03*
X126820000Y-62050000D03*
X112620000Y-91450000D03*
X155820000Y-95650000D03*
X164120000Y-92950000D03*
X172320000Y-82750000D03*
X164120000Y-73850000D03*
X164120000Y-72350000D03*
X155920000Y-82750000D03*
X149420000Y-95750000D03*
X144820000Y-95950000D03*
X134120000Y-79150000D03*
X134120000Y-73850000D03*
X126520000Y-72650000D03*
X130020000Y-63050000D03*
X136820000Y-60850000D03*
X151320000Y-95650000D03*
X131320000Y-79350000D03*
X121720000Y-64650000D03*
X136020000Y-91450000D03*
X134920000Y-95850000D03*
X135220000Y-94650000D03*
X135820000Y-67150000D03*
X120420000Y-94950000D03*
X139920000Y-63550000D03*
X140620000Y-63550000D03*
X150120000Y-74750000D03*
X140620000Y-73950000D03*
X142220000Y-78550000D03*
X142220000Y-82350000D03*
D22*
X134120000Y-73850000D02*
X134120000Y-73425736D01*
X134120000Y-73425736D02*
X134995736Y-72550000D01*
X134995736Y-72550000D02*
X144395736Y-72550000D01*
X144395736Y-72550000D02*
X144820000Y-72550000D01*
X134120000Y-73850000D02*
X129420000Y-73850000D01*
X129420000Y-73850000D02*
X129020000Y-74250000D01*
X112620000Y-95475000D02*
X112620000Y-92525000D01*
X112620000Y-92525000D02*
X112620000Y-91450000D01*
X164120000Y-72350000D02*
X164120000Y-73850000D01*
X144895736Y-93350000D02*
X149020000Y-93350000D01*
X149020000Y-93350000D02*
X151320000Y-95650000D01*
X131320000Y-79350000D02*
X131320000Y-79774264D01*
X131320000Y-79774264D02*
X144895736Y-93350000D01*
X122720000Y-77725736D02*
X122720000Y-65650000D01*
X122720000Y-65650000D02*
X121720000Y-64650000D01*
X136020000Y-91450000D02*
X136020000Y-91025736D01*
X136020000Y-91025736D02*
X122720000Y-77725736D01*
D23*
X134920000Y-95850000D02*
X134620001Y-95550001D01*
X134620001Y-95550001D02*
X131743642Y-95550001D01*
X131743642Y-95550001D02*
X114370000Y-78176359D01*
X114370000Y-78176359D02*
X114370000Y-75750000D01*
X114370000Y-75750000D02*
X114370000Y-73850000D01*
X135220000Y-94650000D02*
X135220000Y-94000000D01*
X135220000Y-94000000D02*
X124070000Y-82850000D01*
X124070000Y-82850000D02*
X123370000Y-82850000D01*
D22*
X135820000Y-67150000D02*
X137620000Y-65350000D01*
X137620000Y-65350000D02*
X137740000Y-65350000D01*
X137720000Y-65150000D02*
X137900000Y-65150000D01*
D24*
X114620000Y-95475000D02*
X119895000Y-95475000D01*
X119895000Y-95475000D02*
X120420000Y-94950000D01*
X146070002Y-63550000D02*
X140620000Y-63550000D01*
X150120000Y-74750000D02*
X150120000Y-67599998D01*
X150120000Y-67599998D02*
X146070002Y-63550000D01*
X141944264Y-74850000D02*
X150020000Y-74850000D01*
X150020000Y-74850000D02*
X150120000Y-74750000D01*
X140620000Y-73950000D02*
X141044264Y-73950000D01*
X141044264Y-73950000D02*
X141944264Y-74850000D01*
X142220000Y-82350000D02*
X142220000Y-78550000D01*
D25*
G36*
X133999867Y-58355829D02*
X133809758Y-58640349D01*
X133743000Y-58975962D01*
X133743000Y-59724038D01*
X133809758Y-60059651D01*
X133999867Y-60344171D01*
X134284387Y-60534280D01*
X134620000Y-60601038D01*
X134955613Y-60534280D01*
X135240133Y-60344171D01*
X135430242Y-60059651D01*
X135497000Y-59724038D01*
X135497000Y-58975962D01*
X135430242Y-58640349D01*
X135240133Y-58355829D01*
X135235788Y-58352926D01*
X141004212Y-58352926D01*
X140999867Y-58355829D01*
X140809758Y-58640349D01*
X140743000Y-58975962D01*
X140743000Y-59724038D01*
X140809758Y-60059651D01*
X140999867Y-60344171D01*
X141284387Y-60534280D01*
X141620000Y-60601038D01*
X141955613Y-60534280D01*
X142240133Y-60344171D01*
X142430242Y-60059651D01*
X142497000Y-59724038D01*
X142497000Y-58975962D01*
X142430242Y-58640349D01*
X142240133Y-58355829D01*
X142235788Y-58352926D01*
X145753457Y-58352926D01*
X149511769Y-59100500D01*
X150073105Y-59355009D01*
X160715001Y-64609695D01*
X160720285Y-64611114D01*
X160724742Y-64614309D01*
X161325327Y-64886613D01*
X161361878Y-64895145D01*
X161396562Y-64909512D01*
X165223396Y-65670717D01*
X165255604Y-65670717D01*
X165287191Y-65677000D01*
X172587793Y-65677000D01*
X173640462Y-65886389D01*
X174505566Y-66464434D01*
X175083612Y-67329539D01*
X175293000Y-68382208D01*
X175293000Y-97317792D01*
X175083612Y-98370461D01*
X174505566Y-99235566D01*
X173640462Y-99813611D01*
X172587793Y-100023000D01*
X103652208Y-100023000D01*
X102599539Y-99813612D01*
X101734434Y-99235566D01*
X101156389Y-98370462D01*
X100953407Y-97350000D01*
X102043000Y-97350000D01*
X102163042Y-97953492D01*
X102504893Y-98465107D01*
X103016508Y-98806958D01*
X103620000Y-98927000D01*
X104223492Y-98806958D01*
X104735107Y-98465107D01*
X105076958Y-97953492D01*
X105197000Y-97350000D01*
X105076958Y-96746508D01*
X104735107Y-96234893D01*
X104223492Y-95893042D01*
X103620000Y-95773000D01*
X103016508Y-95893042D01*
X102504893Y-96234893D01*
X102163042Y-96746508D01*
X102043000Y-97350000D01*
X100953407Y-97350000D01*
X100947000Y-97317793D01*
X100947000Y-95760750D01*
X111485000Y-95760750D01*
X111485000Y-98351310D01*
X111581673Y-98584699D01*
X111760302Y-98763327D01*
X111993691Y-98860000D01*
X112334250Y-98860000D01*
X112493000Y-98701250D01*
X112493000Y-95602000D01*
X112747000Y-95602000D01*
X112747000Y-98701250D01*
X112905750Y-98860000D01*
X113246309Y-98860000D01*
X113479698Y-98763327D01*
X113589050Y-98653975D01*
X120442874Y-98653975D01*
X120553320Y-98921275D01*
X120757650Y-99125961D01*
X121024756Y-99236874D01*
X121313975Y-99237126D01*
X121581275Y-99126680D01*
X121785961Y-98922350D01*
X121896874Y-98655244D01*
X121896875Y-98653975D01*
X123442874Y-98653975D01*
X123553320Y-98921275D01*
X123757650Y-99125961D01*
X124024756Y-99236874D01*
X124313975Y-99237126D01*
X124581275Y-99126680D01*
X124785961Y-98922350D01*
X124797743Y-98893975D01*
X151292874Y-98893975D01*
X151403320Y-99161275D01*
X151607650Y-99365961D01*
X151874756Y-99476874D01*
X152163975Y-99477126D01*
X152431275Y-99366680D01*
X152635961Y-99162350D01*
X152746874Y-98895244D01*
X152746875Y-98893975D01*
X154292874Y-98893975D01*
X154403320Y-99161275D01*
X154607650Y-99365961D01*
X154874756Y-99476874D01*
X155163975Y-99477126D01*
X155431275Y-99366680D01*
X155635961Y-99162350D01*
X155746874Y-98895244D01*
X155747126Y-98606025D01*
X155636680Y-98338725D01*
X155432350Y-98134039D01*
X155165244Y-98023126D01*
X154876025Y-98022874D01*
X154608725Y-98133320D01*
X154404039Y-98337650D01*
X154293126Y-98604756D01*
X154292874Y-98893975D01*
X152746875Y-98893975D01*
X152747126Y-98606025D01*
X152636680Y-98338725D01*
X152432350Y-98134039D01*
X152165244Y-98023126D01*
X151876025Y-98022874D01*
X151608725Y-98133320D01*
X151404039Y-98337650D01*
X151293126Y-98604756D01*
X151292874Y-98893975D01*
X124797743Y-98893975D01*
X124896874Y-98655244D01*
X124897126Y-98366025D01*
X124786680Y-98098725D01*
X124582350Y-97894039D01*
X124315244Y-97783126D01*
X124026025Y-97782874D01*
X123758725Y-97893320D01*
X123554039Y-98097650D01*
X123443126Y-98364756D01*
X123442874Y-98653975D01*
X121896875Y-98653975D01*
X121897126Y-98366025D01*
X121786680Y-98098725D01*
X121582350Y-97894039D01*
X121315244Y-97783126D01*
X121026025Y-97782874D01*
X120758725Y-97893320D01*
X120554039Y-98097650D01*
X120443126Y-98364756D01*
X120442874Y-98653975D01*
X113589050Y-98653975D01*
X113658327Y-98584699D01*
X113755000Y-98351310D01*
X113755000Y-95760750D01*
X113596250Y-95602000D01*
X112747000Y-95602000D01*
X112493000Y-95602000D01*
X111643750Y-95602000D01*
X111485000Y-95760750D01*
X100947000Y-95760750D01*
X100947000Y-91725000D01*
X109137574Y-91725000D01*
X109137574Y-94725000D01*
X109156889Y-94827650D01*
X109217555Y-94921927D01*
X109310120Y-94985175D01*
X109420000Y-95007426D01*
X111020000Y-95007426D01*
X111122650Y-94988111D01*
X111216927Y-94927445D01*
X111280175Y-94834880D01*
X111302426Y-94725000D01*
X111302426Y-92598690D01*
X111485000Y-92598690D01*
X111485000Y-95189250D01*
X111643750Y-95348000D01*
X112493000Y-95348000D01*
X112493000Y-92248750D01*
X112747000Y-92248750D01*
X112747000Y-95348000D01*
X113596250Y-95348000D01*
X113755000Y-95189250D01*
X113755000Y-92725000D01*
X113837574Y-92725000D01*
X113837574Y-98225000D01*
X113856889Y-98327650D01*
X113917555Y-98421927D01*
X114010120Y-98485175D01*
X114120000Y-98507426D01*
X115120000Y-98507426D01*
X115222650Y-98488111D01*
X115316927Y-98427445D01*
X115380175Y-98334880D01*
X115402426Y-98225000D01*
X115402426Y-97350000D01*
X171043000Y-97350000D01*
X171163042Y-97953492D01*
X171504893Y-98465107D01*
X172016508Y-98806958D01*
X172620000Y-98927000D01*
X173223492Y-98806958D01*
X173735107Y-98465107D01*
X174076958Y-97953492D01*
X174197000Y-97350000D01*
X174076958Y-96746508D01*
X173735107Y-96234893D01*
X173223492Y-95893042D01*
X172620000Y-95773000D01*
X172016508Y-95893042D01*
X171504893Y-96234893D01*
X171163042Y-96746508D01*
X171043000Y-97350000D01*
X115402426Y-97350000D01*
X115402426Y-96052000D01*
X119894995Y-96052000D01*
X119895000Y-96052001D01*
X120115808Y-96008078D01*
X120303001Y-95883001D01*
X120828001Y-95358001D01*
X120828003Y-95357998D01*
X120908871Y-95277271D01*
X120996900Y-95065276D01*
X120997100Y-94835731D01*
X120909442Y-94623583D01*
X120828003Y-94542002D01*
X120828001Y-94541999D01*
X120827998Y-94541997D01*
X120747271Y-94461129D01*
X120535276Y-94373100D01*
X120305731Y-94372900D01*
X120093583Y-94460558D01*
X120012002Y-94541997D01*
X120011999Y-94541999D01*
X120011495Y-94542503D01*
X119931129Y-94622729D01*
X119931030Y-94622968D01*
X119655998Y-94898000D01*
X118037046Y-94898000D01*
X118080175Y-94834880D01*
X118102426Y-94725000D01*
X118102426Y-91725000D01*
X118083111Y-91622350D01*
X118022445Y-91528073D01*
X117929880Y-91464825D01*
X117820000Y-91442574D01*
X116220000Y-91442574D01*
X116117350Y-91461889D01*
X116023073Y-91522555D01*
X115959825Y-91615120D01*
X115937574Y-91725000D01*
X115937574Y-94725000D01*
X115956889Y-94827650D01*
X116002158Y-94898000D01*
X115402426Y-94898000D01*
X115402426Y-92725000D01*
X115383111Y-92622350D01*
X115322445Y-92528073D01*
X115229880Y-92464825D01*
X115120000Y-92442574D01*
X114120000Y-92442574D01*
X114017350Y-92461889D01*
X113923073Y-92522555D01*
X113859825Y-92615120D01*
X113837574Y-92725000D01*
X113755000Y-92725000D01*
X113755000Y-92598690D01*
X113658327Y-92365301D01*
X113479698Y-92186673D01*
X113246309Y-92090000D01*
X112905750Y-92090000D01*
X112747000Y-92248750D01*
X112493000Y-92248750D01*
X112334250Y-92090000D01*
X111993691Y-92090000D01*
X111760302Y-92186673D01*
X111581673Y-92365301D01*
X111485000Y-92598690D01*
X111302426Y-92598690D01*
X111302426Y-91725000D01*
X111283111Y-91622350D01*
X111222445Y-91528073D01*
X111129880Y-91464825D01*
X111020000Y-91442574D01*
X109420000Y-91442574D01*
X109317350Y-91461889D01*
X109223073Y-91522555D01*
X109159825Y-91615120D01*
X109137574Y-91725000D01*
X100947000Y-91725000D01*
X100947000Y-89068240D01*
X119267810Y-89068240D01*
X119435225Y-89473417D01*
X119744952Y-89783685D01*
X120149837Y-89951808D01*
X120588240Y-89952190D01*
X120993417Y-89784775D01*
X121303685Y-89475048D01*
X121471808Y-89070163D01*
X121472190Y-88631760D01*
X121304775Y-88226583D01*
X120995048Y-87916315D01*
X120590163Y-87748192D01*
X120151760Y-87747810D01*
X119746583Y-87915225D01*
X119436315Y-88224952D01*
X119268192Y-88629837D01*
X119267810Y-89068240D01*
X100947000Y-89068240D01*
X100947000Y-77068240D01*
X107267810Y-77068240D01*
X107435225Y-77473417D01*
X107744952Y-77783685D01*
X108149837Y-77951808D01*
X108588240Y-77952190D01*
X108993417Y-77784775D01*
X109303685Y-77475048D01*
X109471808Y-77070163D01*
X109472190Y-76631760D01*
X109304775Y-76226583D01*
X108995048Y-75916315D01*
X108590163Y-75748192D01*
X108151760Y-75747810D01*
X107746583Y-75915225D01*
X107436315Y-76224952D01*
X107268192Y-76629837D01*
X107267810Y-77068240D01*
X100947000Y-77068240D01*
X100947000Y-73115187D01*
X111293000Y-73115187D01*
X111293000Y-74584813D01*
X111374982Y-74996963D01*
X111608446Y-75346367D01*
X111957850Y-75579831D01*
X112370000Y-75661813D01*
X112782150Y-75579831D01*
X113131554Y-75346367D01*
X113365018Y-74996963D01*
X113370000Y-74971917D01*
X113374982Y-74996963D01*
X113608446Y-75346367D01*
X113893000Y-75536500D01*
X113893000Y-78176359D01*
X113929309Y-78358899D01*
X114032710Y-78513649D01*
X131406352Y-95887291D01*
X131561102Y-95990692D01*
X131743642Y-96027001D01*
X134368820Y-96027001D01*
X134430558Y-96176417D01*
X134592729Y-96338871D01*
X134804724Y-96426900D01*
X135034269Y-96427100D01*
X135246417Y-96339442D01*
X135408871Y-96177271D01*
X135496900Y-95965276D01*
X135497100Y-95735731D01*
X135409442Y-95523583D01*
X135247271Y-95361129D01*
X135035276Y-95273100D01*
X135017665Y-95273085D01*
X134957291Y-95212711D01*
X134802541Y-95109310D01*
X134620001Y-95073001D01*
X131941222Y-95073001D01*
X123153221Y-86285000D01*
X123243000Y-86285000D01*
X123243000Y-84977000D01*
X123223000Y-84977000D01*
X123223000Y-84723000D01*
X123243000Y-84723000D01*
X123243000Y-84703000D01*
X123497000Y-84703000D01*
X123497000Y-84723000D01*
X123517000Y-84723000D01*
X123517000Y-84977000D01*
X123497000Y-84977000D01*
X123497000Y-86285000D01*
X124197000Y-86285000D01*
X124736483Y-86127166D01*
X125174500Y-85774896D01*
X125444367Y-85281819D01*
X125461904Y-85199039D01*
X125339916Y-84977002D01*
X125505000Y-84977002D01*
X125505000Y-84959580D01*
X134743000Y-94197580D01*
X134743000Y-94310879D01*
X134731129Y-94322729D01*
X134643100Y-94534724D01*
X134642900Y-94764269D01*
X134730558Y-94976417D01*
X134892729Y-95138871D01*
X135104724Y-95226900D01*
X135334269Y-95227100D01*
X135546417Y-95139442D01*
X135708871Y-94977271D01*
X135796900Y-94765276D01*
X135797100Y-94535731D01*
X135709442Y-94323583D01*
X135697000Y-94311119D01*
X135697000Y-94000000D01*
X135660691Y-93817460D01*
X135557290Y-93662710D01*
X125109271Y-83214691D01*
X125181813Y-82850000D01*
X125099831Y-82437850D01*
X124866367Y-82088446D01*
X124516963Y-81854982D01*
X124491917Y-81850000D01*
X124516963Y-81845018D01*
X124866367Y-81611554D01*
X125099831Y-81262150D01*
X125181813Y-80850000D01*
X125149709Y-80688603D01*
X135557504Y-91096399D01*
X135531129Y-91122729D01*
X135443100Y-91334724D01*
X135442900Y-91564269D01*
X135530558Y-91776417D01*
X135692729Y-91938871D01*
X135904724Y-92026900D01*
X136134269Y-92027100D01*
X136346417Y-91939442D01*
X136508871Y-91777271D01*
X136596900Y-91565276D01*
X136597100Y-91335731D01*
X136509442Y-91123583D01*
X136393326Y-91007264D01*
X136368303Y-90881464D01*
X136362581Y-90872900D01*
X136286579Y-90759156D01*
X124991692Y-79464269D01*
X130742900Y-79464269D01*
X130830558Y-79676417D01*
X130946674Y-79792736D01*
X130971697Y-79918536D01*
X131053421Y-80040843D01*
X144629157Y-93616579D01*
X144751464Y-93698303D01*
X144895736Y-93727000D01*
X148863842Y-93727000D01*
X150743038Y-95606196D01*
X150742900Y-95764269D01*
X150830558Y-95976417D01*
X150992729Y-96138871D01*
X151204724Y-96226900D01*
X151434269Y-96227100D01*
X151646417Y-96139442D01*
X151808871Y-95977271D01*
X151896900Y-95765276D01*
X151897100Y-95535731D01*
X151809442Y-95323583D01*
X151647271Y-95161129D01*
X151435276Y-95073100D01*
X151276119Y-95072961D01*
X149286579Y-93083421D01*
X149164272Y-93001697D01*
X149020000Y-92973000D01*
X145051894Y-92973000D01*
X131782495Y-79703601D01*
X131808871Y-79677271D01*
X131896900Y-79465276D01*
X131897100Y-79235731D01*
X131809442Y-79023583D01*
X131647271Y-78861129D01*
X131435276Y-78773100D01*
X131205731Y-78772900D01*
X130993583Y-78860558D01*
X130831129Y-79022729D01*
X130743100Y-79234724D01*
X130742900Y-79464269D01*
X124991692Y-79464269D01*
X124191692Y-78664269D01*
X141642900Y-78664269D01*
X141643000Y-78664511D01*
X141643000Y-82349497D01*
X141642900Y-82464269D01*
X141730558Y-82676417D01*
X141811997Y-82757998D01*
X141811999Y-82758001D01*
X141812002Y-82758003D01*
X141892729Y-82838871D01*
X142104724Y-82926900D01*
X142334269Y-82927100D01*
X142546417Y-82839442D01*
X142627998Y-82758003D01*
X142628001Y-82758001D01*
X142628003Y-82757998D01*
X142708871Y-82677271D01*
X142796900Y-82465276D01*
X142797100Y-82235731D01*
X142797000Y-82235489D01*
X142797000Y-78550000D01*
X142797100Y-78435731D01*
X142709442Y-78223583D01*
X142628003Y-78142002D01*
X142628001Y-78141999D01*
X142627998Y-78141997D01*
X142547271Y-78061129D01*
X142335276Y-77973100D01*
X142105731Y-77972900D01*
X141893583Y-78060558D01*
X141812002Y-78141997D01*
X141811999Y-78141999D01*
X141811997Y-78142002D01*
X141731129Y-78222729D01*
X141643100Y-78434724D01*
X141642900Y-78664269D01*
X124191692Y-78664269D01*
X123097000Y-77569578D01*
X123097000Y-67264269D01*
X135242900Y-67264269D01*
X135330558Y-67476417D01*
X135492729Y-67638871D01*
X135704724Y-67726900D01*
X135934269Y-67727100D01*
X136146417Y-67639442D01*
X136308871Y-67477271D01*
X136396900Y-67265276D01*
X136397039Y-67106120D01*
X137177526Y-66325633D01*
X137308716Y-66413291D01*
X137740000Y-66499079D01*
X138171284Y-66413291D01*
X138536909Y-66168988D01*
X138781212Y-65803363D01*
X138867000Y-65372079D01*
X138867000Y-65327921D01*
X139153000Y-65327921D01*
X139153000Y-65372079D01*
X139238788Y-65803363D01*
X139483091Y-66168988D01*
X139848716Y-66413291D01*
X140280000Y-66499079D01*
X140711284Y-66413291D01*
X141076909Y-66168988D01*
X141321212Y-65803363D01*
X141407000Y-65372079D01*
X141407000Y-65327921D01*
X141693000Y-65327921D01*
X141693000Y-65372079D01*
X141778788Y-65803363D01*
X142023091Y-66168988D01*
X142388716Y-66413291D01*
X142820000Y-66499079D01*
X143251284Y-66413291D01*
X143616909Y-66168988D01*
X143861212Y-65803363D01*
X143947000Y-65372079D01*
X143947000Y-65327921D01*
X143861212Y-64896637D01*
X143616909Y-64531012D01*
X143251284Y-64286709D01*
X142820000Y-64200921D01*
X142388716Y-64286709D01*
X142023091Y-64531012D01*
X141778788Y-64896637D01*
X141693000Y-65327921D01*
X141407000Y-65327921D01*
X141321212Y-64896637D01*
X141076909Y-64531012D01*
X140711284Y-64286709D01*
X140280000Y-64200921D01*
X139848716Y-64286709D01*
X139483091Y-64531012D01*
X139238788Y-64896637D01*
X139153000Y-65327921D01*
X138867000Y-65327921D01*
X138781212Y-64896637D01*
X138536909Y-64531012D01*
X138171284Y-64286709D01*
X137740000Y-64200921D01*
X137308716Y-64286709D01*
X136943091Y-64531012D01*
X136698788Y-64896637D01*
X136613000Y-65327921D01*
X136613000Y-65372079D01*
X136687952Y-65748889D01*
X135863804Y-66573038D01*
X135705731Y-66572900D01*
X135493583Y-66660558D01*
X135331129Y-66822729D01*
X135243100Y-67034724D01*
X135242900Y-67264269D01*
X123097000Y-67264269D01*
X123097000Y-65706892D01*
X128678514Y-65706892D01*
X128924817Y-66231358D01*
X129353076Y-66621645D01*
X129763110Y-66791476D01*
X129993000Y-66670155D01*
X129993000Y-65477000D01*
X128799181Y-65477000D01*
X128678514Y-65706892D01*
X123097000Y-65706892D01*
X123097000Y-65650000D01*
X123068303Y-65505728D01*
X123006377Y-65413050D01*
X122986580Y-65383421D01*
X122596267Y-64993108D01*
X128678514Y-64993108D01*
X128799181Y-65223000D01*
X129993000Y-65223000D01*
X129993000Y-64029845D01*
X130247000Y-64029845D01*
X130247000Y-65223000D01*
X130267000Y-65223000D01*
X130267000Y-65477000D01*
X130247000Y-65477000D01*
X130247000Y-66670155D01*
X130476890Y-66791476D01*
X130886924Y-66621645D01*
X131315183Y-66231358D01*
X131561486Y-65706892D01*
X131440820Y-65477002D01*
X131553871Y-65477002D01*
X131618788Y-65803363D01*
X131863091Y-66168988D01*
X132228716Y-66413291D01*
X132660000Y-66499079D01*
X133091284Y-66413291D01*
X133456909Y-66168988D01*
X133701212Y-65803363D01*
X133787000Y-65372079D01*
X133787000Y-65327921D01*
X134073000Y-65327921D01*
X134073000Y-65372079D01*
X134158788Y-65803363D01*
X134403091Y-66168988D01*
X134768716Y-66413291D01*
X135200000Y-66499079D01*
X135631284Y-66413291D01*
X135996909Y-66168988D01*
X136241212Y-65803363D01*
X136327000Y-65372079D01*
X136327000Y-65327921D01*
X136241212Y-64896637D01*
X135996909Y-64531012D01*
X135631284Y-64286709D01*
X135200000Y-64200921D01*
X134768716Y-64286709D01*
X134403091Y-64531012D01*
X134158788Y-64896637D01*
X134073000Y-65327921D01*
X133787000Y-65327921D01*
X133701212Y-64896637D01*
X133456909Y-64531012D01*
X133091284Y-64286709D01*
X132660000Y-64200921D01*
X132228716Y-64286709D01*
X131863091Y-64531012D01*
X131618788Y-64896637D01*
X131553871Y-65222998D01*
X131440820Y-65222998D01*
X131561486Y-64993108D01*
X131315183Y-64468642D01*
X130886924Y-64078355D01*
X130476890Y-63908524D01*
X130247000Y-64029845D01*
X129993000Y-64029845D01*
X129763110Y-63908524D01*
X129353076Y-64078355D01*
X128924817Y-64468642D01*
X128678514Y-64993108D01*
X122596267Y-64993108D01*
X122296962Y-64693804D01*
X122297100Y-64535731D01*
X122209442Y-64323583D01*
X122047271Y-64161129D01*
X121835276Y-64073100D01*
X121605731Y-64072900D01*
X121393583Y-64160558D01*
X121231129Y-64322729D01*
X121143100Y-64534724D01*
X121142900Y-64764269D01*
X121230558Y-64976417D01*
X121392729Y-65138871D01*
X121604724Y-65226900D01*
X121763880Y-65227039D01*
X122343000Y-65806159D01*
X122343000Y-77725736D01*
X122371697Y-77870008D01*
X122453421Y-77992315D01*
X124266210Y-79805104D01*
X124104813Y-79773000D01*
X122635187Y-79773000D01*
X122223037Y-79854982D01*
X121873633Y-80088446D01*
X121640169Y-80437850D01*
X121558187Y-80850000D01*
X121640169Y-81262150D01*
X121873633Y-81611554D01*
X122223037Y-81845018D01*
X122248083Y-81850000D01*
X122223037Y-81854982D01*
X121873633Y-82088446D01*
X121640169Y-82437850D01*
X121558187Y-82850000D01*
X121640169Y-83262150D01*
X121873633Y-83611554D01*
X121918279Y-83641386D01*
X121565500Y-83925104D01*
X121295633Y-84418181D01*
X121294019Y-84425798D01*
X114847000Y-77978779D01*
X114847000Y-75536500D01*
X115131554Y-75346367D01*
X115161386Y-75301721D01*
X115445104Y-75654500D01*
X115938181Y-75924367D01*
X116020961Y-75941904D01*
X116243000Y-75819915D01*
X116243000Y-73977000D01*
X116497000Y-73977000D01*
X116497000Y-75819915D01*
X116719039Y-75941904D01*
X116801819Y-75924367D01*
X117294896Y-75654500D01*
X117647166Y-75216483D01*
X117805000Y-74677000D01*
X117805000Y-73977000D01*
X116497000Y-73977000D01*
X116243000Y-73977000D01*
X116223000Y-73977000D01*
X116223000Y-73723000D01*
X116243000Y-73723000D01*
X116243000Y-71880085D01*
X116497000Y-71880085D01*
X116497000Y-73723000D01*
X117805000Y-73723000D01*
X117805000Y-73023000D01*
X117647166Y-72483517D01*
X117294896Y-72045500D01*
X116801819Y-71775633D01*
X116719039Y-71758096D01*
X116497000Y-71880085D01*
X116243000Y-71880085D01*
X116020961Y-71758096D01*
X115938181Y-71775633D01*
X115445104Y-72045500D01*
X115161386Y-72398279D01*
X115131554Y-72353633D01*
X114782150Y-72120169D01*
X114370000Y-72038187D01*
X113957850Y-72120169D01*
X113608446Y-72353633D01*
X113374982Y-72703037D01*
X113370000Y-72728083D01*
X113365018Y-72703037D01*
X113131554Y-72353633D01*
X112782150Y-72120169D01*
X112370000Y-72038187D01*
X111957850Y-72120169D01*
X111608446Y-72353633D01*
X111374982Y-72703037D01*
X111293000Y-73115187D01*
X100947000Y-73115187D01*
X100947000Y-68382207D01*
X100953406Y-68350000D01*
X102043000Y-68350000D01*
X102163042Y-68953492D01*
X102504893Y-69465107D01*
X103016508Y-69806958D01*
X103620000Y-69927000D01*
X104223492Y-69806958D01*
X104735107Y-69465107D01*
X105076958Y-68953492D01*
X105197000Y-68350000D01*
X105076958Y-67746508D01*
X104735107Y-67234893D01*
X104223492Y-66893042D01*
X103620000Y-66773000D01*
X103016508Y-66893042D01*
X102504893Y-67234893D01*
X102163042Y-67746508D01*
X102043000Y-68350000D01*
X100953406Y-68350000D01*
X101156389Y-67329538D01*
X101734434Y-66464434D01*
X102599539Y-65886388D01*
X103652208Y-65677000D01*
X106293000Y-65677000D01*
X106293000Y-70450000D01*
X106301685Y-70496159D01*
X106328965Y-70538553D01*
X106370590Y-70566994D01*
X106420000Y-70577000D01*
X107683329Y-70577000D01*
X107713703Y-70605025D01*
X107741448Y-70636090D01*
X107753846Y-70642065D01*
X107763961Y-70651398D01*
X107784040Y-70663677D01*
X107785855Y-70664345D01*
X107787295Y-70665638D01*
X107837409Y-70683310D01*
X107887305Y-70701666D01*
X107889240Y-70701588D01*
X107891063Y-70702231D01*
X107920661Y-70706483D01*
X107939921Y-70705448D01*
X107958812Y-70709342D01*
X107971255Y-70709428D01*
X107983148Y-70707148D01*
X107995176Y-70708578D01*
X108027779Y-70706030D01*
X108041506Y-70702167D01*
X108055764Y-70702427D01*
X108087953Y-70696633D01*
X108101509Y-70691306D01*
X108116022Y-70690084D01*
X108130015Y-70686055D01*
X108151716Y-70674848D01*
X108175341Y-70668655D01*
X108200784Y-70656279D01*
X108215517Y-70645100D01*
X108232645Y-70638130D01*
X108260757Y-70619598D01*
X108270517Y-70609958D01*
X108282667Y-70603590D01*
X108296582Y-70592357D01*
X108301859Y-70586033D01*
X108308927Y-70581792D01*
X108314209Y-70577000D01*
X112071674Y-70577000D01*
X112081575Y-70577375D01*
X112083921Y-70577000D01*
X112084929Y-70577000D01*
X112087396Y-70577535D01*
X112168700Y-70578934D01*
X112171234Y-70578475D01*
X112173761Y-70578976D01*
X112257481Y-70578914D01*
X112259966Y-70578418D01*
X112262459Y-70578866D01*
X112345249Y-70577343D01*
X112346822Y-70577000D01*
X112349584Y-70577000D01*
X112350761Y-70577188D01*
X112355713Y-70577000D01*
X115120000Y-70577000D01*
X115166159Y-70568315D01*
X115208553Y-70541035D01*
X115236994Y-70499410D01*
X115247000Y-70450000D01*
X115247000Y-66839592D01*
X115255192Y-66831314D01*
X115272245Y-66805502D01*
X115293502Y-66783025D01*
X115314429Y-66749732D01*
X115326008Y-66719413D01*
X115342347Y-66691372D01*
X115354272Y-66656699D01*
X115358501Y-66625540D01*
X115367941Y-66595548D01*
X115371636Y-66561655D01*
X115367823Y-66518322D01*
X115367626Y-66474822D01*
X115361455Y-66444518D01*
X115342563Y-66399488D01*
X115325703Y-66353660D01*
X115308518Y-66325560D01*
X115282448Y-66297307D01*
X115259941Y-66266146D01*
X115247000Y-66254116D01*
X115247000Y-64690843D01*
X115465022Y-64632306D01*
X115493907Y-64618043D01*
X115525000Y-64609695D01*
X117439695Y-63664269D01*
X139342900Y-63664269D01*
X139430558Y-63876417D01*
X139592729Y-64038871D01*
X139804724Y-64126900D01*
X140034269Y-64127100D01*
X140246417Y-64039442D01*
X140269899Y-64016001D01*
X140292729Y-64038871D01*
X140504724Y-64126900D01*
X140734269Y-64127100D01*
X140734511Y-64127000D01*
X145831000Y-64127000D01*
X145921574Y-64217574D01*
X144510000Y-64217574D01*
X144407350Y-64236889D01*
X144313073Y-64297555D01*
X144249825Y-64390120D01*
X144227574Y-64500000D01*
X144227574Y-66200000D01*
X144246889Y-66302650D01*
X144307555Y-66396927D01*
X144400120Y-66460175D01*
X144510000Y-66482426D01*
X146210000Y-66482426D01*
X146312650Y-66463111D01*
X146406927Y-66402445D01*
X146470175Y-66309880D01*
X146492426Y-66200000D01*
X146492426Y-64788426D01*
X149543000Y-67839000D01*
X149543000Y-74273000D01*
X142183265Y-74273000D01*
X141452265Y-73541999D01*
X141265072Y-73416922D01*
X141044264Y-73372999D01*
X141044259Y-73373000D01*
X140620504Y-73373000D01*
X140505731Y-73372900D01*
X140293583Y-73460558D01*
X140212002Y-73541997D01*
X140211999Y-73541999D01*
X140211997Y-73542002D01*
X140131129Y-73622729D01*
X140043100Y-73834724D01*
X140042900Y-74064269D01*
X140130558Y-74276417D01*
X140211997Y-74357998D01*
X140211999Y-74358001D01*
X140212002Y-74358003D01*
X140292729Y-74438871D01*
X140504724Y-74526900D01*
X140734269Y-74527100D01*
X140734511Y-74527000D01*
X140805262Y-74527000D01*
X141536261Y-75257998D01*
X141536263Y-75258001D01*
X141668514Y-75346367D01*
X141723456Y-75383078D01*
X141944264Y-75427000D01*
X150019995Y-75427000D01*
X150020000Y-75427001D01*
X150240808Y-75383078D01*
X150428001Y-75258001D01*
X150527998Y-75158003D01*
X150528001Y-75158001D01*
X150528003Y-75157998D01*
X150608871Y-75077271D01*
X150696900Y-74865276D01*
X150697100Y-74635731D01*
X150697000Y-74635489D01*
X150697000Y-68350000D01*
X171043000Y-68350000D01*
X171163042Y-68953492D01*
X171504893Y-69465107D01*
X172016508Y-69806958D01*
X172620000Y-69927000D01*
X173223492Y-69806958D01*
X173735107Y-69465107D01*
X174076958Y-68953492D01*
X174197000Y-68350000D01*
X174076958Y-67746508D01*
X173735107Y-67234893D01*
X173223492Y-66893042D01*
X172620000Y-66773000D01*
X172016508Y-66893042D01*
X171504893Y-67234893D01*
X171163042Y-67746508D01*
X171043000Y-68350000D01*
X150697000Y-68350000D01*
X150697000Y-67599998D01*
X150653078Y-67379190D01*
X150528001Y-67191997D01*
X146478003Y-63141999D01*
X146290810Y-63016922D01*
X146070002Y-62972999D01*
X146069997Y-62973000D01*
X141010049Y-62973000D01*
X141186846Y-62899949D01*
X141468959Y-62618328D01*
X141621825Y-62250184D01*
X141622173Y-61851564D01*
X141469949Y-61483154D01*
X141188328Y-61201041D01*
X140820184Y-61048175D01*
X140421564Y-61047827D01*
X140053154Y-61200051D01*
X139771041Y-61481672D01*
X139618175Y-61849816D01*
X139617827Y-62248436D01*
X139770051Y-62616846D01*
X140051672Y-62898959D01*
X140367397Y-63030059D01*
X140293583Y-63060558D01*
X140270101Y-63083999D01*
X140247271Y-63061129D01*
X140035276Y-62973100D01*
X139805731Y-62972900D01*
X139593583Y-63060558D01*
X139431129Y-63222729D01*
X139343100Y-63434724D01*
X139342900Y-63664269D01*
X117439695Y-63664269D01*
X120307069Y-62248436D01*
X134617827Y-62248436D01*
X134770051Y-62616846D01*
X135051672Y-62898959D01*
X135419816Y-63051825D01*
X135818436Y-63052173D01*
X136186846Y-62899949D01*
X136468959Y-62618328D01*
X136621825Y-62250184D01*
X136622173Y-61851564D01*
X136469949Y-61483154D01*
X136188328Y-61201041D01*
X135820184Y-61048175D01*
X135421564Y-61047827D01*
X135053154Y-61200051D01*
X134771041Y-61481672D01*
X134618175Y-61849816D01*
X134617827Y-62248436D01*
X120307069Y-62248436D01*
X126142822Y-59366896D01*
X129843683Y-58373248D01*
X130459720Y-58352926D01*
X134004212Y-58352926D01*
X133999867Y-58355829D01*
X133999867Y-58355829D01*
G37*
X133999867Y-58355829D02*
X133809758Y-58640349D01*
X133743000Y-58975962D01*
X133743000Y-59724038D01*
X133809758Y-60059651D01*
X133999867Y-60344171D01*
X134284387Y-60534280D01*
X134620000Y-60601038D01*
X134955613Y-60534280D01*
X135240133Y-60344171D01*
X135430242Y-60059651D01*
X135497000Y-59724038D01*
X135497000Y-58975962D01*
X135430242Y-58640349D01*
X135240133Y-58355829D01*
X135235788Y-58352926D01*
X141004212Y-58352926D01*
X140999867Y-58355829D01*
X140809758Y-58640349D01*
X140743000Y-58975962D01*
X140743000Y-59724038D01*
X140809758Y-60059651D01*
X140999867Y-60344171D01*
X141284387Y-60534280D01*
X141620000Y-60601038D01*
X141955613Y-60534280D01*
X142240133Y-60344171D01*
X142430242Y-60059651D01*
X142497000Y-59724038D01*
X142497000Y-58975962D01*
X142430242Y-58640349D01*
X142240133Y-58355829D01*
X142235788Y-58352926D01*
X145753457Y-58352926D01*
X149511769Y-59100500D01*
X150073105Y-59355009D01*
X160715001Y-64609695D01*
X160720285Y-64611114D01*
X160724742Y-64614309D01*
X161325327Y-64886613D01*
X161361878Y-64895145D01*
X161396562Y-64909512D01*
X165223396Y-65670717D01*
X165255604Y-65670717D01*
X165287191Y-65677000D01*
X172587793Y-65677000D01*
X173640462Y-65886389D01*
X174505566Y-66464434D01*
X175083612Y-67329539D01*
X175293000Y-68382208D01*
X175293000Y-97317792D01*
X175083612Y-98370461D01*
X174505566Y-99235566D01*
X173640462Y-99813611D01*
X172587793Y-100023000D01*
X103652208Y-100023000D01*
X102599539Y-99813612D01*
X101734434Y-99235566D01*
X101156389Y-98370462D01*
X100953407Y-97350000D01*
X102043000Y-97350000D01*
X102163042Y-97953492D01*
X102504893Y-98465107D01*
X103016508Y-98806958D01*
X103620000Y-98927000D01*
X104223492Y-98806958D01*
X104735107Y-98465107D01*
X105076958Y-97953492D01*
X105197000Y-97350000D01*
X105076958Y-96746508D01*
X104735107Y-96234893D01*
X104223492Y-95893042D01*
X103620000Y-95773000D01*
X103016508Y-95893042D01*
X102504893Y-96234893D01*
X102163042Y-96746508D01*
X102043000Y-97350000D01*
X100953407Y-97350000D01*
X100947000Y-97317793D01*
X100947000Y-95760750D01*
X111485000Y-95760750D01*
X111485000Y-98351310D01*
X111581673Y-98584699D01*
X111760302Y-98763327D01*
X111993691Y-98860000D01*
X112334250Y-98860000D01*
X112493000Y-98701250D01*
X112493000Y-95602000D01*
X112747000Y-95602000D01*
X112747000Y-98701250D01*
X112905750Y-98860000D01*
X113246309Y-98860000D01*
X113479698Y-98763327D01*
X113589050Y-98653975D01*
X120442874Y-98653975D01*
X120553320Y-98921275D01*
X120757650Y-99125961D01*
X121024756Y-99236874D01*
X121313975Y-99237126D01*
X121581275Y-99126680D01*
X121785961Y-98922350D01*
X121896874Y-98655244D01*
X121896875Y-98653975D01*
X123442874Y-98653975D01*
X123553320Y-98921275D01*
X123757650Y-99125961D01*
X124024756Y-99236874D01*
X124313975Y-99237126D01*
X124581275Y-99126680D01*
X124785961Y-98922350D01*
X124797743Y-98893975D01*
X151292874Y-98893975D01*
X151403320Y-99161275D01*
X151607650Y-99365961D01*
X151874756Y-99476874D01*
X152163975Y-99477126D01*
X152431275Y-99366680D01*
X152635961Y-99162350D01*
X152746874Y-98895244D01*
X152746875Y-98893975D01*
X154292874Y-98893975D01*
X154403320Y-99161275D01*
X154607650Y-99365961D01*
X154874756Y-99476874D01*
X155163975Y-99477126D01*
X155431275Y-99366680D01*
X155635961Y-99162350D01*
X155746874Y-98895244D01*
X155747126Y-98606025D01*
X155636680Y-98338725D01*
X155432350Y-98134039D01*
X155165244Y-98023126D01*
X154876025Y-98022874D01*
X154608725Y-98133320D01*
X154404039Y-98337650D01*
X154293126Y-98604756D01*
X154292874Y-98893975D01*
X152746875Y-98893975D01*
X152747126Y-98606025D01*
X152636680Y-98338725D01*
X152432350Y-98134039D01*
X152165244Y-98023126D01*
X151876025Y-98022874D01*
X151608725Y-98133320D01*
X151404039Y-98337650D01*
X151293126Y-98604756D01*
X151292874Y-98893975D01*
X124797743Y-98893975D01*
X124896874Y-98655244D01*
X124897126Y-98366025D01*
X124786680Y-98098725D01*
X124582350Y-97894039D01*
X124315244Y-97783126D01*
X124026025Y-97782874D01*
X123758725Y-97893320D01*
X123554039Y-98097650D01*
X123443126Y-98364756D01*
X123442874Y-98653975D01*
X121896875Y-98653975D01*
X121897126Y-98366025D01*
X121786680Y-98098725D01*
X121582350Y-97894039D01*
X121315244Y-97783126D01*
X121026025Y-97782874D01*
X120758725Y-97893320D01*
X120554039Y-98097650D01*
X120443126Y-98364756D01*
X120442874Y-98653975D01*
X113589050Y-98653975D01*
X113658327Y-98584699D01*
X113755000Y-98351310D01*
X113755000Y-95760750D01*
X113596250Y-95602000D01*
X112747000Y-95602000D01*
X112493000Y-95602000D01*
X111643750Y-95602000D01*
X111485000Y-95760750D01*
X100947000Y-95760750D01*
X100947000Y-91725000D01*
X109137574Y-91725000D01*
X109137574Y-94725000D01*
X109156889Y-94827650D01*
X109217555Y-94921927D01*
X109310120Y-94985175D01*
X109420000Y-95007426D01*
X111020000Y-95007426D01*
X111122650Y-94988111D01*
X111216927Y-94927445D01*
X111280175Y-94834880D01*
X111302426Y-94725000D01*
X111302426Y-92598690D01*
X111485000Y-92598690D01*
X111485000Y-95189250D01*
X111643750Y-95348000D01*
X112493000Y-95348000D01*
X112493000Y-92248750D01*
X112747000Y-92248750D01*
X112747000Y-95348000D01*
X113596250Y-95348000D01*
X113755000Y-95189250D01*
X113755000Y-92725000D01*
X113837574Y-92725000D01*
X113837574Y-98225000D01*
X113856889Y-98327650D01*
X113917555Y-98421927D01*
X114010120Y-98485175D01*
X114120000Y-98507426D01*
X115120000Y-98507426D01*
X115222650Y-98488111D01*
X115316927Y-98427445D01*
X115380175Y-98334880D01*
X115402426Y-98225000D01*
X115402426Y-97350000D01*
X171043000Y-97350000D01*
X171163042Y-97953492D01*
X171504893Y-98465107D01*
X172016508Y-98806958D01*
X172620000Y-98927000D01*
X173223492Y-98806958D01*
X173735107Y-98465107D01*
X174076958Y-97953492D01*
X174197000Y-97350000D01*
X174076958Y-96746508D01*
X173735107Y-96234893D01*
X173223492Y-95893042D01*
X172620000Y-95773000D01*
X172016508Y-95893042D01*
X171504893Y-96234893D01*
X171163042Y-96746508D01*
X171043000Y-97350000D01*
X115402426Y-97350000D01*
X115402426Y-96052000D01*
X119894995Y-96052000D01*
X119895000Y-96052001D01*
X120115808Y-96008078D01*
X120303001Y-95883001D01*
X120828001Y-95358001D01*
X120828003Y-95357998D01*
X120908871Y-95277271D01*
X120996900Y-95065276D01*
X120997100Y-94835731D01*
X120909442Y-94623583D01*
X120828003Y-94542002D01*
X120828001Y-94541999D01*
X120827998Y-94541997D01*
X120747271Y-94461129D01*
X120535276Y-94373100D01*
X120305731Y-94372900D01*
X120093583Y-94460558D01*
X120012002Y-94541997D01*
X120011999Y-94541999D01*
X120011495Y-94542503D01*
X119931129Y-94622729D01*
X119931030Y-94622968D01*
X119655998Y-94898000D01*
X118037046Y-94898000D01*
X118080175Y-94834880D01*
X118102426Y-94725000D01*
X118102426Y-91725000D01*
X118083111Y-91622350D01*
X118022445Y-91528073D01*
X117929880Y-91464825D01*
X117820000Y-91442574D01*
X116220000Y-91442574D01*
X116117350Y-91461889D01*
X116023073Y-91522555D01*
X115959825Y-91615120D01*
X115937574Y-91725000D01*
X115937574Y-94725000D01*
X115956889Y-94827650D01*
X116002158Y-94898000D01*
X115402426Y-94898000D01*
X115402426Y-92725000D01*
X115383111Y-92622350D01*
X115322445Y-92528073D01*
X115229880Y-92464825D01*
X115120000Y-92442574D01*
X114120000Y-92442574D01*
X114017350Y-92461889D01*
X113923073Y-92522555D01*
X113859825Y-92615120D01*
X113837574Y-92725000D01*
X113755000Y-92725000D01*
X113755000Y-92598690D01*
X113658327Y-92365301D01*
X113479698Y-92186673D01*
X113246309Y-92090000D01*
X112905750Y-92090000D01*
X112747000Y-92248750D01*
X112493000Y-92248750D01*
X112334250Y-92090000D01*
X111993691Y-92090000D01*
X111760302Y-92186673D01*
X111581673Y-92365301D01*
X111485000Y-92598690D01*
X111302426Y-92598690D01*
X111302426Y-91725000D01*
X111283111Y-91622350D01*
X111222445Y-91528073D01*
X111129880Y-91464825D01*
X111020000Y-91442574D01*
X109420000Y-91442574D01*
X109317350Y-91461889D01*
X109223073Y-91522555D01*
X109159825Y-91615120D01*
X109137574Y-91725000D01*
X100947000Y-91725000D01*
X100947000Y-89068240D01*
X119267810Y-89068240D01*
X119435225Y-89473417D01*
X119744952Y-89783685D01*
X120149837Y-89951808D01*
X120588240Y-89952190D01*
X120993417Y-89784775D01*
X121303685Y-89475048D01*
X121471808Y-89070163D01*
X121472190Y-88631760D01*
X121304775Y-88226583D01*
X120995048Y-87916315D01*
X120590163Y-87748192D01*
X120151760Y-87747810D01*
X119746583Y-87915225D01*
X119436315Y-88224952D01*
X119268192Y-88629837D01*
X119267810Y-89068240D01*
X100947000Y-89068240D01*
X100947000Y-77068240D01*
X107267810Y-77068240D01*
X107435225Y-77473417D01*
X107744952Y-77783685D01*
X108149837Y-77951808D01*
X108588240Y-77952190D01*
X108993417Y-77784775D01*
X109303685Y-77475048D01*
X109471808Y-77070163D01*
X109472190Y-76631760D01*
X109304775Y-76226583D01*
X108995048Y-75916315D01*
X108590163Y-75748192D01*
X108151760Y-75747810D01*
X107746583Y-75915225D01*
X107436315Y-76224952D01*
X107268192Y-76629837D01*
X107267810Y-77068240D01*
X100947000Y-77068240D01*
X100947000Y-73115187D01*
X111293000Y-73115187D01*
X111293000Y-74584813D01*
X111374982Y-74996963D01*
X111608446Y-75346367D01*
X111957850Y-75579831D01*
X112370000Y-75661813D01*
X112782150Y-75579831D01*
X113131554Y-75346367D01*
X113365018Y-74996963D01*
X113370000Y-74971917D01*
X113374982Y-74996963D01*
X113608446Y-75346367D01*
X113893000Y-75536500D01*
X113893000Y-78176359D01*
X113929309Y-78358899D01*
X114032710Y-78513649D01*
X131406352Y-95887291D01*
X131561102Y-95990692D01*
X131743642Y-96027001D01*
X134368820Y-96027001D01*
X134430558Y-96176417D01*
X134592729Y-96338871D01*
X134804724Y-96426900D01*
X135034269Y-96427100D01*
X135246417Y-96339442D01*
X135408871Y-96177271D01*
X135496900Y-95965276D01*
X135497100Y-95735731D01*
X135409442Y-95523583D01*
X135247271Y-95361129D01*
X135035276Y-95273100D01*
X135017665Y-95273085D01*
X134957291Y-95212711D01*
X134802541Y-95109310D01*
X134620001Y-95073001D01*
X131941222Y-95073001D01*
X123153221Y-86285000D01*
X123243000Y-86285000D01*
X123243000Y-84977000D01*
X123223000Y-84977000D01*
X123223000Y-84723000D01*
X123243000Y-84723000D01*
X123243000Y-84703000D01*
X123497000Y-84703000D01*
X123497000Y-84723000D01*
X123517000Y-84723000D01*
X123517000Y-84977000D01*
X123497000Y-84977000D01*
X123497000Y-86285000D01*
X124197000Y-86285000D01*
X124736483Y-86127166D01*
X125174500Y-85774896D01*
X125444367Y-85281819D01*
X125461904Y-85199039D01*
X125339916Y-84977002D01*
X125505000Y-84977002D01*
X125505000Y-84959580D01*
X134743000Y-94197580D01*
X134743000Y-94310879D01*
X134731129Y-94322729D01*
X134643100Y-94534724D01*
X134642900Y-94764269D01*
X134730558Y-94976417D01*
X134892729Y-95138871D01*
X135104724Y-95226900D01*
X135334269Y-95227100D01*
X135546417Y-95139442D01*
X135708871Y-94977271D01*
X135796900Y-94765276D01*
X135797100Y-94535731D01*
X135709442Y-94323583D01*
X135697000Y-94311119D01*
X135697000Y-94000000D01*
X135660691Y-93817460D01*
X135557290Y-93662710D01*
X125109271Y-83214691D01*
X125181813Y-82850000D01*
X125099831Y-82437850D01*
X124866367Y-82088446D01*
X124516963Y-81854982D01*
X124491917Y-81850000D01*
X124516963Y-81845018D01*
X124866367Y-81611554D01*
X125099831Y-81262150D01*
X125181813Y-80850000D01*
X125149709Y-80688603D01*
X135557504Y-91096399D01*
X135531129Y-91122729D01*
X135443100Y-91334724D01*
X135442900Y-91564269D01*
X135530558Y-91776417D01*
X135692729Y-91938871D01*
X135904724Y-92026900D01*
X136134269Y-92027100D01*
X136346417Y-91939442D01*
X136508871Y-91777271D01*
X136596900Y-91565276D01*
X136597100Y-91335731D01*
X136509442Y-91123583D01*
X136393326Y-91007264D01*
X136368303Y-90881464D01*
X136362581Y-90872900D01*
X136286579Y-90759156D01*
X124991692Y-79464269D01*
X130742900Y-79464269D01*
X130830558Y-79676417D01*
X130946674Y-79792736D01*
X130971697Y-79918536D01*
X131053421Y-80040843D01*
X144629157Y-93616579D01*
X144751464Y-93698303D01*
X144895736Y-93727000D01*
X148863842Y-93727000D01*
X150743038Y-95606196D01*
X150742900Y-95764269D01*
X150830558Y-95976417D01*
X150992729Y-96138871D01*
X151204724Y-96226900D01*
X151434269Y-96227100D01*
X151646417Y-96139442D01*
X151808871Y-95977271D01*
X151896900Y-95765276D01*
X151897100Y-95535731D01*
X151809442Y-95323583D01*
X151647271Y-95161129D01*
X151435276Y-95073100D01*
X151276119Y-95072961D01*
X149286579Y-93083421D01*
X149164272Y-93001697D01*
X149020000Y-92973000D01*
X145051894Y-92973000D01*
X131782495Y-79703601D01*
X131808871Y-79677271D01*
X131896900Y-79465276D01*
X131897100Y-79235731D01*
X131809442Y-79023583D01*
X131647271Y-78861129D01*
X131435276Y-78773100D01*
X131205731Y-78772900D01*
X130993583Y-78860558D01*
X130831129Y-79022729D01*
X130743100Y-79234724D01*
X130742900Y-79464269D01*
X124991692Y-79464269D01*
X124191692Y-78664269D01*
X141642900Y-78664269D01*
X141643000Y-78664511D01*
X141643000Y-82349497D01*
X141642900Y-82464269D01*
X141730558Y-82676417D01*
X141811997Y-82757998D01*
X141811999Y-82758001D01*
X141812002Y-82758003D01*
X141892729Y-82838871D01*
X142104724Y-82926900D01*
X142334269Y-82927100D01*
X142546417Y-82839442D01*
X142627998Y-82758003D01*
X142628001Y-82758001D01*
X142628003Y-82757998D01*
X142708871Y-82677271D01*
X142796900Y-82465276D01*
X142797100Y-82235731D01*
X142797000Y-82235489D01*
X142797000Y-78550000D01*
X142797100Y-78435731D01*
X142709442Y-78223583D01*
X142628003Y-78142002D01*
X142628001Y-78141999D01*
X142627998Y-78141997D01*
X142547271Y-78061129D01*
X142335276Y-77973100D01*
X142105731Y-77972900D01*
X141893583Y-78060558D01*
X141812002Y-78141997D01*
X141811999Y-78141999D01*
X141811997Y-78142002D01*
X141731129Y-78222729D01*
X141643100Y-78434724D01*
X141642900Y-78664269D01*
X124191692Y-78664269D01*
X123097000Y-77569578D01*
X123097000Y-67264269D01*
X135242900Y-67264269D01*
X135330558Y-67476417D01*
X135492729Y-67638871D01*
X135704724Y-67726900D01*
X135934269Y-67727100D01*
X136146417Y-67639442D01*
X136308871Y-67477271D01*
X136396900Y-67265276D01*
X136397039Y-67106120D01*
X137177526Y-66325633D01*
X137308716Y-66413291D01*
X137740000Y-66499079D01*
X138171284Y-66413291D01*
X138536909Y-66168988D01*
X138781212Y-65803363D01*
X138867000Y-65372079D01*
X138867000Y-65327921D01*
X139153000Y-65327921D01*
X139153000Y-65372079D01*
X139238788Y-65803363D01*
X139483091Y-66168988D01*
X139848716Y-66413291D01*
X140280000Y-66499079D01*
X140711284Y-66413291D01*
X141076909Y-66168988D01*
X141321212Y-65803363D01*
X141407000Y-65372079D01*
X141407000Y-65327921D01*
X141693000Y-65327921D01*
X141693000Y-65372079D01*
X141778788Y-65803363D01*
X142023091Y-66168988D01*
X142388716Y-66413291D01*
X142820000Y-66499079D01*
X143251284Y-66413291D01*
X143616909Y-66168988D01*
X143861212Y-65803363D01*
X143947000Y-65372079D01*
X143947000Y-65327921D01*
X143861212Y-64896637D01*
X143616909Y-64531012D01*
X143251284Y-64286709D01*
X142820000Y-64200921D01*
X142388716Y-64286709D01*
X142023091Y-64531012D01*
X141778788Y-64896637D01*
X141693000Y-65327921D01*
X141407000Y-65327921D01*
X141321212Y-64896637D01*
X141076909Y-64531012D01*
X140711284Y-64286709D01*
X140280000Y-64200921D01*
X139848716Y-64286709D01*
X139483091Y-64531012D01*
X139238788Y-64896637D01*
X139153000Y-65327921D01*
X138867000Y-65327921D01*
X138781212Y-64896637D01*
X138536909Y-64531012D01*
X138171284Y-64286709D01*
X137740000Y-64200921D01*
X137308716Y-64286709D01*
X136943091Y-64531012D01*
X136698788Y-64896637D01*
X136613000Y-65327921D01*
X136613000Y-65372079D01*
X136687952Y-65748889D01*
X135863804Y-66573038D01*
X135705731Y-66572900D01*
X135493583Y-66660558D01*
X135331129Y-66822729D01*
X135243100Y-67034724D01*
X135242900Y-67264269D01*
X123097000Y-67264269D01*
X123097000Y-65706892D01*
X128678514Y-65706892D01*
X128924817Y-66231358D01*
X129353076Y-66621645D01*
X129763110Y-66791476D01*
X129993000Y-66670155D01*
X129993000Y-65477000D01*
X128799181Y-65477000D01*
X128678514Y-65706892D01*
X123097000Y-65706892D01*
X123097000Y-65650000D01*
X123068303Y-65505728D01*
X123006377Y-65413050D01*
X122986580Y-65383421D01*
X122596267Y-64993108D01*
X128678514Y-64993108D01*
X128799181Y-65223000D01*
X129993000Y-65223000D01*
X129993000Y-64029845D01*
X130247000Y-64029845D01*
X130247000Y-65223000D01*
X130267000Y-65223000D01*
X130267000Y-65477000D01*
X130247000Y-65477000D01*
X130247000Y-66670155D01*
X130476890Y-66791476D01*
X130886924Y-66621645D01*
X131315183Y-66231358D01*
X131561486Y-65706892D01*
X131440820Y-65477002D01*
X131553871Y-65477002D01*
X131618788Y-65803363D01*
X131863091Y-66168988D01*
X132228716Y-66413291D01*
X132660000Y-66499079D01*
X133091284Y-66413291D01*
X133456909Y-66168988D01*
X133701212Y-65803363D01*
X133787000Y-65372079D01*
X133787000Y-65327921D01*
X134073000Y-65327921D01*
X134073000Y-65372079D01*
X134158788Y-65803363D01*
X134403091Y-66168988D01*
X134768716Y-66413291D01*
X135200000Y-66499079D01*
X135631284Y-66413291D01*
X135996909Y-66168988D01*
X136241212Y-65803363D01*
X136327000Y-65372079D01*
X136327000Y-65327921D01*
X136241212Y-64896637D01*
X135996909Y-64531012D01*
X135631284Y-64286709D01*
X135200000Y-64200921D01*
X134768716Y-64286709D01*
X134403091Y-64531012D01*
X134158788Y-64896637D01*
X134073000Y-65327921D01*
X133787000Y-65327921D01*
X133701212Y-64896637D01*
X133456909Y-64531012D01*
X133091284Y-64286709D01*
X132660000Y-64200921D01*
X132228716Y-64286709D01*
X131863091Y-64531012D01*
X131618788Y-64896637D01*
X131553871Y-65222998D01*
X131440820Y-65222998D01*
X131561486Y-64993108D01*
X131315183Y-64468642D01*
X130886924Y-64078355D01*
X130476890Y-63908524D01*
X130247000Y-64029845D01*
X129993000Y-64029845D01*
X129763110Y-63908524D01*
X129353076Y-64078355D01*
X128924817Y-64468642D01*
X128678514Y-64993108D01*
X122596267Y-64993108D01*
X122296962Y-64693804D01*
X122297100Y-64535731D01*
X122209442Y-64323583D01*
X122047271Y-64161129D01*
X121835276Y-64073100D01*
X121605731Y-64072900D01*
X121393583Y-64160558D01*
X121231129Y-64322729D01*
X121143100Y-64534724D01*
X121142900Y-64764269D01*
X121230558Y-64976417D01*
X121392729Y-65138871D01*
X121604724Y-65226900D01*
X121763880Y-65227039D01*
X122343000Y-65806159D01*
X122343000Y-77725736D01*
X122371697Y-77870008D01*
X122453421Y-77992315D01*
X124266210Y-79805104D01*
X124104813Y-79773000D01*
X122635187Y-79773000D01*
X122223037Y-79854982D01*
X121873633Y-80088446D01*
X121640169Y-80437850D01*
X121558187Y-80850000D01*
X121640169Y-81262150D01*
X121873633Y-81611554D01*
X122223037Y-81845018D01*
X122248083Y-81850000D01*
X122223037Y-81854982D01*
X121873633Y-82088446D01*
X121640169Y-82437850D01*
X121558187Y-82850000D01*
X121640169Y-83262150D01*
X121873633Y-83611554D01*
X121918279Y-83641386D01*
X121565500Y-83925104D01*
X121295633Y-84418181D01*
X121294019Y-84425798D01*
X114847000Y-77978779D01*
X114847000Y-75536500D01*
X115131554Y-75346367D01*
X115161386Y-75301721D01*
X115445104Y-75654500D01*
X115938181Y-75924367D01*
X116020961Y-75941904D01*
X116243000Y-75819915D01*
X116243000Y-73977000D01*
X116497000Y-73977000D01*
X116497000Y-75819915D01*
X116719039Y-75941904D01*
X116801819Y-75924367D01*
X117294896Y-75654500D01*
X117647166Y-75216483D01*
X117805000Y-74677000D01*
X117805000Y-73977000D01*
X116497000Y-73977000D01*
X116243000Y-73977000D01*
X116223000Y-73977000D01*
X116223000Y-73723000D01*
X116243000Y-73723000D01*
X116243000Y-71880085D01*
X116497000Y-71880085D01*
X116497000Y-73723000D01*
X117805000Y-73723000D01*
X117805000Y-73023000D01*
X117647166Y-72483517D01*
X117294896Y-72045500D01*
X116801819Y-71775633D01*
X116719039Y-71758096D01*
X116497000Y-71880085D01*
X116243000Y-71880085D01*
X116020961Y-71758096D01*
X115938181Y-71775633D01*
X115445104Y-72045500D01*
X115161386Y-72398279D01*
X115131554Y-72353633D01*
X114782150Y-72120169D01*
X114370000Y-72038187D01*
X113957850Y-72120169D01*
X113608446Y-72353633D01*
X113374982Y-72703037D01*
X113370000Y-72728083D01*
X113365018Y-72703037D01*
X113131554Y-72353633D01*
X112782150Y-72120169D01*
X112370000Y-72038187D01*
X111957850Y-72120169D01*
X111608446Y-72353633D01*
X111374982Y-72703037D01*
X111293000Y-73115187D01*
X100947000Y-73115187D01*
X100947000Y-68382207D01*
X100953406Y-68350000D01*
X102043000Y-68350000D01*
X102163042Y-68953492D01*
X102504893Y-69465107D01*
X103016508Y-69806958D01*
X103620000Y-69927000D01*
X104223492Y-69806958D01*
X104735107Y-69465107D01*
X105076958Y-68953492D01*
X105197000Y-68350000D01*
X105076958Y-67746508D01*
X104735107Y-67234893D01*
X104223492Y-66893042D01*
X103620000Y-66773000D01*
X103016508Y-66893042D01*
X102504893Y-67234893D01*
X102163042Y-67746508D01*
X102043000Y-68350000D01*
X100953406Y-68350000D01*
X101156389Y-67329538D01*
X101734434Y-66464434D01*
X102599539Y-65886388D01*
X103652208Y-65677000D01*
X106293000Y-65677000D01*
X106293000Y-70450000D01*
X106301685Y-70496159D01*
X106328965Y-70538553D01*
X106370590Y-70566994D01*
X106420000Y-70577000D01*
X107683329Y-70577000D01*
X107713703Y-70605025D01*
X107741448Y-70636090D01*
X107753846Y-70642065D01*
X107763961Y-70651398D01*
X107784040Y-70663677D01*
X107785855Y-70664345D01*
X107787295Y-70665638D01*
X107837409Y-70683310D01*
X107887305Y-70701666D01*
X107889240Y-70701588D01*
X107891063Y-70702231D01*
X107920661Y-70706483D01*
X107939921Y-70705448D01*
X107958812Y-70709342D01*
X107971255Y-70709428D01*
X107983148Y-70707148D01*
X107995176Y-70708578D01*
X108027779Y-70706030D01*
X108041506Y-70702167D01*
X108055764Y-70702427D01*
X108087953Y-70696633D01*
X108101509Y-70691306D01*
X108116022Y-70690084D01*
X108130015Y-70686055D01*
X108151716Y-70674848D01*
X108175341Y-70668655D01*
X108200784Y-70656279D01*
X108215517Y-70645100D01*
X108232645Y-70638130D01*
X108260757Y-70619598D01*
X108270517Y-70609958D01*
X108282667Y-70603590D01*
X108296582Y-70592357D01*
X108301859Y-70586033D01*
X108308927Y-70581792D01*
X108314209Y-70577000D01*
X112071674Y-70577000D01*
X112081575Y-70577375D01*
X112083921Y-70577000D01*
X112084929Y-70577000D01*
X112087396Y-70577535D01*
X112168700Y-70578934D01*
X112171234Y-70578475D01*
X112173761Y-70578976D01*
X112257481Y-70578914D01*
X112259966Y-70578418D01*
X112262459Y-70578866D01*
X112345249Y-70577343D01*
X112346822Y-70577000D01*
X112349584Y-70577000D01*
X112350761Y-70577188D01*
X112355713Y-70577000D01*
X115120000Y-70577000D01*
X115166159Y-70568315D01*
X115208553Y-70541035D01*
X115236994Y-70499410D01*
X115247000Y-70450000D01*
X115247000Y-66839592D01*
X115255192Y-66831314D01*
X115272245Y-66805502D01*
X115293502Y-66783025D01*
X115314429Y-66749732D01*
X115326008Y-66719413D01*
X115342347Y-66691372D01*
X115354272Y-66656699D01*
X115358501Y-66625540D01*
X115367941Y-66595548D01*
X115371636Y-66561655D01*
X115367823Y-66518322D01*
X115367626Y-66474822D01*
X115361455Y-66444518D01*
X115342563Y-66399488D01*
X115325703Y-66353660D01*
X115308518Y-66325560D01*
X115282448Y-66297307D01*
X115259941Y-66266146D01*
X115247000Y-66254116D01*
X115247000Y-64690843D01*
X115465022Y-64632306D01*
X115493907Y-64618043D01*
X115525000Y-64609695D01*
X117439695Y-63664269D01*
X139342900Y-63664269D01*
X139430558Y-63876417D01*
X139592729Y-64038871D01*
X139804724Y-64126900D01*
X140034269Y-64127100D01*
X140246417Y-64039442D01*
X140269899Y-64016001D01*
X140292729Y-64038871D01*
X140504724Y-64126900D01*
X140734269Y-64127100D01*
X140734511Y-64127000D01*
X145831000Y-64127000D01*
X145921574Y-64217574D01*
X144510000Y-64217574D01*
X144407350Y-64236889D01*
X144313073Y-64297555D01*
X144249825Y-64390120D01*
X144227574Y-64500000D01*
X144227574Y-66200000D01*
X144246889Y-66302650D01*
X144307555Y-66396927D01*
X144400120Y-66460175D01*
X144510000Y-66482426D01*
X146210000Y-66482426D01*
X146312650Y-66463111D01*
X146406927Y-66402445D01*
X146470175Y-66309880D01*
X146492426Y-66200000D01*
X146492426Y-64788426D01*
X149543000Y-67839000D01*
X149543000Y-74273000D01*
X142183265Y-74273000D01*
X141452265Y-73541999D01*
X141265072Y-73416922D01*
X141044264Y-73372999D01*
X141044259Y-73373000D01*
X140620504Y-73373000D01*
X140505731Y-73372900D01*
X140293583Y-73460558D01*
X140212002Y-73541997D01*
X140211999Y-73541999D01*
X140211997Y-73542002D01*
X140131129Y-73622729D01*
X140043100Y-73834724D01*
X140042900Y-74064269D01*
X140130558Y-74276417D01*
X140211997Y-74357998D01*
X140211999Y-74358001D01*
X140212002Y-74358003D01*
X140292729Y-74438871D01*
X140504724Y-74526900D01*
X140734269Y-74527100D01*
X140734511Y-74527000D01*
X140805262Y-74527000D01*
X141536261Y-75257998D01*
X141536263Y-75258001D01*
X141668514Y-75346367D01*
X141723456Y-75383078D01*
X141944264Y-75427000D01*
X150019995Y-75427000D01*
X150020000Y-75427001D01*
X150240808Y-75383078D01*
X150428001Y-75258001D01*
X150527998Y-75158003D01*
X150528001Y-75158001D01*
X150528003Y-75157998D01*
X150608871Y-75077271D01*
X150696900Y-74865276D01*
X150697100Y-74635731D01*
X150697000Y-74635489D01*
X150697000Y-68350000D01*
X171043000Y-68350000D01*
X171163042Y-68953492D01*
X171504893Y-69465107D01*
X172016508Y-69806958D01*
X172620000Y-69927000D01*
X173223492Y-69806958D01*
X173735107Y-69465107D01*
X174076958Y-68953492D01*
X174197000Y-68350000D01*
X174076958Y-67746508D01*
X173735107Y-67234893D01*
X173223492Y-66893042D01*
X172620000Y-66773000D01*
X172016508Y-66893042D01*
X171504893Y-67234893D01*
X171163042Y-67746508D01*
X171043000Y-68350000D01*
X150697000Y-68350000D01*
X150697000Y-67599998D01*
X150653078Y-67379190D01*
X150528001Y-67191997D01*
X146478003Y-63141999D01*
X146290810Y-63016922D01*
X146070002Y-62972999D01*
X146069997Y-62973000D01*
X141010049Y-62973000D01*
X141186846Y-62899949D01*
X141468959Y-62618328D01*
X141621825Y-62250184D01*
X141622173Y-61851564D01*
X141469949Y-61483154D01*
X141188328Y-61201041D01*
X140820184Y-61048175D01*
X140421564Y-61047827D01*
X140053154Y-61200051D01*
X139771041Y-61481672D01*
X139618175Y-61849816D01*
X139617827Y-62248436D01*
X139770051Y-62616846D01*
X140051672Y-62898959D01*
X140367397Y-63030059D01*
X140293583Y-63060558D01*
X140270101Y-63083999D01*
X140247271Y-63061129D01*
X140035276Y-62973100D01*
X139805731Y-62972900D01*
X139593583Y-63060558D01*
X139431129Y-63222729D01*
X139343100Y-63434724D01*
X139342900Y-63664269D01*
X117439695Y-63664269D01*
X120307069Y-62248436D01*
X134617827Y-62248436D01*
X134770051Y-62616846D01*
X135051672Y-62898959D01*
X135419816Y-63051825D01*
X135818436Y-63052173D01*
X136186846Y-62899949D01*
X136468959Y-62618328D01*
X136621825Y-62250184D01*
X136622173Y-61851564D01*
X136469949Y-61483154D01*
X136188328Y-61201041D01*
X135820184Y-61048175D01*
X135421564Y-61047827D01*
X135053154Y-61200051D01*
X134771041Y-61481672D01*
X134618175Y-61849816D01*
X134617827Y-62248436D01*
X120307069Y-62248436D01*
X126142822Y-59366896D01*
X129843683Y-58373248D01*
X130459720Y-58352926D01*
X134004212Y-58352926D01*
X133999867Y-58355829D01*
M02*
