G04 #@! TF.FileFunction,Legend,Top*
%FSLAX46Y46*%
G04 Gerber Fmt 4.6, Leading zero omitted, Abs format (unit mm)*
G04 Created by KiCad (PCBNEW 4.0.4-stable) date 07/06/18 22:39:36*
%MOMM*%
%LPD*%
G01*
G04 APERTURE LIST*
%ADD10C,0.100000*%
%ADD11C,0.300000*%
%ADD12C,0.250000*%
%ADD13C,0.120000*%
%ADD14C,0.150000*%
%ADD15C,0.500000*%
%ADD16C,0.010000*%
G04 APERTURE END LIST*
D10*
D11*
X150705714Y-95128571D02*
X150705714Y-93628571D01*
X151205714Y-94700000D01*
X151705714Y-93628571D01*
X151705714Y-95128571D01*
X152705714Y-93628571D02*
X152991428Y-93628571D01*
X153134286Y-93700000D01*
X153277143Y-93842857D01*
X153348571Y-94128571D01*
X153348571Y-94628571D01*
X153277143Y-94914286D01*
X153134286Y-95057143D01*
X152991428Y-95128571D01*
X152705714Y-95128571D01*
X152562857Y-95057143D01*
X152420000Y-94914286D01*
X152348571Y-94628571D01*
X152348571Y-94128571D01*
X152420000Y-93842857D01*
X152562857Y-93700000D01*
X152705714Y-93628571D01*
X153991429Y-95128571D02*
X153991429Y-93628571D01*
X154348572Y-93628571D01*
X154562857Y-93700000D01*
X154705715Y-93842857D01*
X154777143Y-93985714D01*
X154848572Y-94271429D01*
X154848572Y-94485714D01*
X154777143Y-94771429D01*
X154705715Y-94914286D01*
X154562857Y-95057143D01*
X154348572Y-95128571D01*
X153991429Y-95128571D01*
X155491429Y-94342857D02*
X155991429Y-94342857D01*
X156205715Y-95128571D02*
X155491429Y-95128571D01*
X155491429Y-93628571D01*
X156205715Y-93628571D01*
X118734285Y-93028571D02*
X119019999Y-93028571D01*
X119162857Y-93100000D01*
X119305714Y-93242857D01*
X119377142Y-93528571D01*
X119377142Y-94028571D01*
X119305714Y-94314286D01*
X119162857Y-94457143D01*
X119019999Y-94528571D01*
X118734285Y-94528571D01*
X118591428Y-94457143D01*
X118448571Y-94314286D01*
X118377142Y-94028571D01*
X118377142Y-93528571D01*
X118448571Y-93242857D01*
X118591428Y-93100000D01*
X118734285Y-93028571D01*
X120020000Y-94528571D02*
X120020000Y-93028571D01*
X120877143Y-94528571D01*
X120877143Y-93028571D01*
X122662857Y-92957143D02*
X121377143Y-94885714D01*
X123448572Y-93028571D02*
X123734286Y-93028571D01*
X123877144Y-93100000D01*
X124020001Y-93242857D01*
X124091429Y-93528571D01*
X124091429Y-94028571D01*
X124020001Y-94314286D01*
X123877144Y-94457143D01*
X123734286Y-94528571D01*
X123448572Y-94528571D01*
X123305715Y-94457143D01*
X123162858Y-94314286D01*
X123091429Y-94028571D01*
X123091429Y-93528571D01*
X123162858Y-93242857D01*
X123305715Y-93100000D01*
X123448572Y-93028571D01*
X125234287Y-93742857D02*
X124734287Y-93742857D01*
X124734287Y-94528571D02*
X124734287Y-93028571D01*
X125448573Y-93028571D01*
X126520001Y-93742857D02*
X126020001Y-93742857D01*
X126020001Y-94528571D02*
X126020001Y-93028571D01*
X126734287Y-93028571D01*
X166152001Y-73610571D02*
X167152001Y-75110571D01*
X167152001Y-73610571D02*
X166152001Y-75110571D01*
X158270000Y-85826286D02*
X158270000Y-86540571D01*
X157770000Y-85040571D02*
X158270000Y-85826286D01*
X158770000Y-85040571D01*
X166759143Y-95406857D02*
X166973429Y-95478286D01*
X167044857Y-95549714D01*
X167116286Y-95692571D01*
X167116286Y-95906857D01*
X167044857Y-96049714D01*
X166973429Y-96121143D01*
X166830571Y-96192571D01*
X166259143Y-96192571D01*
X166259143Y-94692571D01*
X166759143Y-94692571D01*
X166902000Y-94764000D01*
X166973429Y-94835429D01*
X167044857Y-94978286D01*
X167044857Y-95121143D01*
X166973429Y-95264000D01*
X166902000Y-95335429D01*
X166759143Y-95406857D01*
X166259143Y-95406857D01*
X174168857Y-85604000D02*
X174883143Y-85604000D01*
X174026000Y-86032571D02*
X174526000Y-84532571D01*
X175026000Y-86032571D01*
D12*
X122213176Y-68161678D02*
X122362081Y-68139251D01*
X122574226Y-68031158D01*
X122637465Y-67945492D01*
X122658275Y-67881444D01*
X122657467Y-67774968D01*
X122614230Y-67690110D01*
X122528564Y-67626871D01*
X122464516Y-67606061D01*
X122358040Y-67606869D01*
X122166705Y-67650914D01*
X122060229Y-67651723D01*
X121996181Y-67630912D01*
X121910515Y-67567673D01*
X121867278Y-67482816D01*
X121866470Y-67376339D01*
X121887280Y-67312292D01*
X121950519Y-67226626D01*
X122162664Y-67118533D01*
X122311569Y-67096106D01*
X122695854Y-67220967D02*
X123035285Y-67048019D01*
X122671810Y-66859110D02*
X123060945Y-67622830D01*
X123146611Y-67686069D01*
X123253087Y-67685261D01*
X123337945Y-67642023D01*
X124016808Y-67296125D02*
X123779004Y-66829407D01*
X123693338Y-66766168D01*
X123586861Y-66766976D01*
X123417145Y-66853451D01*
X123353906Y-66939117D01*
X123995190Y-67253697D02*
X123931951Y-67339363D01*
X123719806Y-67447456D01*
X123613329Y-67448264D01*
X123527663Y-67385025D01*
X123484426Y-67300167D01*
X123483618Y-67193691D01*
X123546857Y-67108025D01*
X123759002Y-66999932D01*
X123822241Y-66914266D01*
X124441097Y-67079940D02*
X124138436Y-66485935D01*
X124224910Y-66655650D02*
X124224102Y-66549174D01*
X124244912Y-66485127D01*
X124308152Y-66399461D01*
X124393010Y-66356223D01*
X124562725Y-66269749D02*
X124902156Y-66096800D01*
X124538682Y-65907891D02*
X124927817Y-66671611D01*
X125013483Y-66734850D01*
X125119959Y-66734042D01*
X125204817Y-66690805D01*
X150356156Y-66210618D02*
X150461824Y-66317902D01*
X150673969Y-66425996D01*
X150780446Y-66426804D01*
X150844493Y-66405994D01*
X150930159Y-66342755D01*
X150973396Y-66257897D01*
X150974204Y-66151421D01*
X150953394Y-66087373D01*
X150890156Y-66001707D01*
X150742058Y-65872803D01*
X150678819Y-65787137D01*
X150658008Y-65723090D01*
X150658817Y-65616613D01*
X150702054Y-65531756D01*
X150787720Y-65468516D01*
X150851767Y-65447706D01*
X150958244Y-65448515D01*
X151170389Y-65556608D01*
X151276057Y-65663892D01*
X151586594Y-66837557D02*
X151480118Y-66836749D01*
X151310402Y-66750274D01*
X151247163Y-66664608D01*
X151247971Y-66558132D01*
X151420920Y-66218701D01*
X151506586Y-66155461D01*
X151613062Y-66156270D01*
X151782779Y-66242745D01*
X151846018Y-66328410D01*
X151845209Y-66434887D01*
X151801972Y-66519745D01*
X151334445Y-66388417D01*
X152116551Y-67161028D02*
X152053312Y-67075362D01*
X152054120Y-66968886D01*
X152443255Y-66205166D01*
X152817033Y-67464497D02*
X152710556Y-67463689D01*
X152540840Y-67377214D01*
X152477601Y-67291548D01*
X152478409Y-67185072D01*
X152651358Y-66845640D01*
X152737024Y-66782401D01*
X152843501Y-66783209D01*
X153013217Y-66869684D01*
X153076456Y-66955350D01*
X153075648Y-67061826D01*
X153032410Y-67146685D01*
X152564884Y-67015356D01*
X153623181Y-67875250D02*
X153516705Y-67874442D01*
X153346989Y-67787967D01*
X153283750Y-67702301D01*
X153262940Y-67638254D01*
X153263748Y-67531778D01*
X153393460Y-67277204D01*
X153479126Y-67213965D01*
X153543173Y-67193154D01*
X153649649Y-67193963D01*
X153819366Y-67280437D01*
X153882605Y-67366103D01*
X154158796Y-67453386D02*
X154498227Y-67626335D01*
X154437413Y-67221240D02*
X154048278Y-67984960D01*
X154047470Y-68091436D01*
X154110709Y-68177102D01*
X154195567Y-68220339D01*
D10*
X128820000Y-74050000D02*
X128820000Y-67050000D01*
X146820000Y-67050000D02*
X146820000Y-74050000D01*
X128820000Y-67050000D02*
X146820000Y-67050000D01*
X128820000Y-74050000D02*
X146820000Y-74050000D01*
D13*
X128790000Y-64020000D02*
X128790000Y-66680000D01*
X144090000Y-64020000D02*
X128790000Y-64020000D01*
X144090000Y-66680000D02*
X128790000Y-66680000D01*
X144090000Y-64020000D02*
X144090000Y-66680000D01*
X145360000Y-64020000D02*
X146690000Y-64020000D01*
X146690000Y-64020000D02*
X146690000Y-65350000D01*
X151290000Y-71050000D02*
X151290000Y-73050000D01*
X149150000Y-73050000D02*
X149150000Y-71050000D01*
X142020000Y-62350000D02*
X141570000Y-62350000D01*
X142020000Y-60500000D02*
X142020000Y-62350000D01*
X134220000Y-57950000D02*
X134220000Y-58200000D01*
X142020000Y-57950000D02*
X142020000Y-58200000D01*
X134220000Y-60500000D02*
X134220000Y-62350000D01*
X134220000Y-62350000D02*
X134670000Y-62350000D01*
X139820000Y-62900000D02*
X139370000Y-62900000D01*
X139820000Y-62900000D02*
X139820000Y-62450000D01*
D14*
X163620714Y-93350000D02*
G75*
G03X163620714Y-93350000I-1750714J0D01*
G01*
X158645000Y-90125000D02*
X158770000Y-90125000D01*
X165095000Y-90125000D02*
X164970000Y-90125000D01*
X165095000Y-96575000D02*
X164970000Y-96575000D01*
X158770000Y-96575000D02*
X158645000Y-96575000D01*
X160470000Y-90125000D02*
X163270000Y-90125000D01*
X158645000Y-96575000D02*
X158645000Y-90125000D01*
X160470000Y-96575000D02*
X163270000Y-96575000D01*
X165095000Y-96575000D02*
X165095000Y-90125000D01*
X155370714Y-82850000D02*
G75*
G03X155370714Y-82850000I-1750714J0D01*
G01*
X150395000Y-79625000D02*
X150520000Y-79625000D01*
X156845000Y-79625000D02*
X156720000Y-79625000D01*
X156845000Y-86075000D02*
X156720000Y-86075000D01*
X150520000Y-86075000D02*
X150395000Y-86075000D01*
X152220000Y-79625000D02*
X155020000Y-79625000D01*
X150395000Y-86075000D02*
X150395000Y-79625000D01*
X152220000Y-86075000D02*
X155020000Y-86075000D01*
X156845000Y-86075000D02*
X156845000Y-79625000D01*
X163620714Y-72350000D02*
G75*
G03X163620714Y-72350000I-1750714J0D01*
G01*
X158645000Y-69125000D02*
X158770000Y-69125000D01*
X165095000Y-69125000D02*
X164970000Y-69125000D01*
X165095000Y-75575000D02*
X164970000Y-75575000D01*
X158770000Y-75575000D02*
X158645000Y-75575000D01*
X160470000Y-69125000D02*
X163270000Y-69125000D01*
X158645000Y-75575000D02*
X158645000Y-69125000D01*
X160470000Y-75575000D02*
X163270000Y-75575000D01*
X165095000Y-75575000D02*
X165095000Y-69125000D01*
X171870714Y-82850000D02*
G75*
G03X171870714Y-82850000I-1750714J0D01*
G01*
X166895000Y-79625000D02*
X167020000Y-79625000D01*
X173345000Y-79625000D02*
X173220000Y-79625000D01*
X173345000Y-86075000D02*
X173220000Y-86075000D01*
X167020000Y-86075000D02*
X166895000Y-86075000D01*
X168720000Y-79625000D02*
X171520000Y-79625000D01*
X166895000Y-86075000D02*
X166895000Y-79625000D01*
X168720000Y-86075000D02*
X171520000Y-86075000D01*
X173345000Y-86075000D02*
X173345000Y-79625000D01*
D13*
X124070000Y-97060000D02*
X124270000Y-97060000D01*
X121270000Y-101200000D02*
X121470000Y-101410000D01*
X122570000Y-101200000D02*
X122370000Y-101410000D01*
X121270000Y-99910000D02*
X121270000Y-101200000D01*
X121470000Y-101410000D02*
X122370000Y-101410000D01*
X122570000Y-101200000D02*
X122570000Y-99910000D01*
X119820000Y-99910000D02*
X125520000Y-99910000D01*
X121070000Y-97060000D02*
X122770000Y-97060000D01*
X119220000Y-98110000D02*
X119220000Y-98900000D01*
X126120000Y-98900000D02*
X126120000Y-98110000D01*
X154920000Y-97300000D02*
X155120000Y-97300000D01*
X152120000Y-101440000D02*
X152320000Y-101650000D01*
X153420000Y-101440000D02*
X153220000Y-101650000D01*
X152120000Y-100150000D02*
X152120000Y-101440000D01*
X152320000Y-101650000D02*
X153220000Y-101650000D01*
X153420000Y-101440000D02*
X153420000Y-100150000D01*
X150670000Y-100150000D02*
X156370000Y-100150000D01*
X151920000Y-97300000D02*
X153620000Y-97300000D01*
X150070000Y-98350000D02*
X150070000Y-99140000D01*
X156970000Y-99140000D02*
X156970000Y-98350000D01*
X157497003Y-64009008D02*
X157201909Y-64588163D01*
X155817238Y-67305733D02*
X156112332Y-66726578D01*
X150588091Y-63911837D02*
X150292997Y-64490992D01*
X151972762Y-61194267D02*
X151677668Y-61773422D01*
X157497003Y-64009008D02*
X151972762Y-61194267D01*
X150292997Y-64490992D02*
X155817238Y-67305733D01*
X124192238Y-61369267D02*
X124487332Y-61948422D01*
X125872003Y-64665992D02*
X125576909Y-64086837D01*
X120052668Y-66901578D02*
X120347762Y-67480733D01*
X118667997Y-64184008D02*
X118963091Y-64763163D01*
X124192238Y-61369267D02*
X118667997Y-64184008D01*
X120347762Y-67480733D02*
X125872003Y-64665992D01*
D15*
X129827107Y-76350000D02*
G75*
G03X129827107Y-76350000I-707107J0D01*
G01*
D10*
X129120000Y-98350000D02*
X129120000Y-76350000D01*
X147120000Y-98350000D02*
X129120000Y-98350000D01*
X147120000Y-76350000D02*
X147120000Y-98350000D01*
X129120000Y-76350000D02*
X147120000Y-76350000D01*
D15*
X119960170Y-82850000D02*
G75*
G03X119960170Y-82850000I-5590170J0D01*
G01*
D10*
X109195000Y-76850000D02*
G75*
G03X109195000Y-76850000I-825000J0D01*
G01*
X121195000Y-88850000D02*
G75*
G03X121195000Y-88850000I-825000J0D01*
G01*
X123370000Y-75971323D02*
X123370000Y-89728677D01*
X123370000Y-89728677D02*
X121248677Y-91850000D01*
X121248677Y-91850000D02*
X107491323Y-91850000D01*
X107491323Y-91850000D02*
X105370000Y-89728677D01*
X105370000Y-89728677D02*
X105370000Y-75971323D01*
X105370000Y-75971323D02*
X107491323Y-73850000D01*
X107491323Y-73850000D02*
X121248677Y-73850000D01*
X123370000Y-75971323D02*
X121248677Y-73850000D01*
D16*
G36*
X112017518Y-97530883D02*
X112063250Y-97692983D01*
X112106860Y-97847215D01*
X112147506Y-97990626D01*
X112184348Y-98120263D01*
X112216542Y-98233173D01*
X112243249Y-98326404D01*
X112263626Y-98397002D01*
X112276832Y-98442016D01*
X112281358Y-98456719D01*
X112285581Y-98466778D01*
X112290333Y-98470660D01*
X112296220Y-98466230D01*
X112303847Y-98451353D01*
X112313820Y-98423894D01*
X112326745Y-98381719D01*
X112343227Y-98322692D01*
X112363871Y-98244678D01*
X112389283Y-98145543D01*
X112420069Y-98023152D01*
X112456835Y-97875369D01*
X112500185Y-97700060D01*
X112528202Y-97586474D01*
X112756450Y-96660639D01*
X112824949Y-96660639D01*
X112867328Y-96661831D01*
X112885270Y-96669140D01*
X112886125Y-96688168D01*
X112882307Y-96704350D01*
X112876996Y-96725805D01*
X112864675Y-96775937D01*
X112845884Y-96852544D01*
X112821161Y-96953421D01*
X112791047Y-97076367D01*
X112756081Y-97219177D01*
X112716802Y-97379649D01*
X112673750Y-97555579D01*
X112627463Y-97744765D01*
X112578482Y-97945003D01*
X112527346Y-98154090D01*
X112511635Y-98218336D01*
X112152102Y-99688611D01*
X112085363Y-99693499D01*
X112044500Y-99693786D01*
X112020949Y-99688711D01*
X112018674Y-99685551D01*
X112022290Y-99667311D01*
X112032472Y-99622278D01*
X112048255Y-99554546D01*
X112068677Y-99468208D01*
X112092777Y-99367357D01*
X112119590Y-99256088D01*
X112121990Y-99246171D01*
X112149129Y-99132857D01*
X112173599Y-99028357D01*
X112194421Y-98937033D01*
X112210619Y-98863251D01*
X112221216Y-98811373D01*
X112225232Y-98785764D01*
X112225243Y-98785219D01*
X112221079Y-98766452D01*
X112209156Y-98720140D01*
X112190321Y-98649340D01*
X112165423Y-98557110D01*
X112135311Y-98446507D01*
X112100832Y-98320588D01*
X112062835Y-98182410D01*
X112022167Y-98035031D01*
X111979678Y-97881509D01*
X111936215Y-97724899D01*
X111892627Y-97568260D01*
X111849762Y-97414649D01*
X111808468Y-97267123D01*
X111769593Y-97128740D01*
X111733986Y-97002556D01*
X111702494Y-96891630D01*
X111675967Y-96799017D01*
X111655251Y-96727776D01*
X111643504Y-96688455D01*
X111642921Y-96670948D01*
X111659958Y-96662740D01*
X111701508Y-96660641D01*
X111703639Y-96660639D01*
X111772275Y-96660639D01*
X112017518Y-97530883D01*
X112017518Y-97530883D01*
G37*
X112017518Y-97530883D02*
X112063250Y-97692983D01*
X112106860Y-97847215D01*
X112147506Y-97990626D01*
X112184348Y-98120263D01*
X112216542Y-98233173D01*
X112243249Y-98326404D01*
X112263626Y-98397002D01*
X112276832Y-98442016D01*
X112281358Y-98456719D01*
X112285581Y-98466778D01*
X112290333Y-98470660D01*
X112296220Y-98466230D01*
X112303847Y-98451353D01*
X112313820Y-98423894D01*
X112326745Y-98381719D01*
X112343227Y-98322692D01*
X112363871Y-98244678D01*
X112389283Y-98145543D01*
X112420069Y-98023152D01*
X112456835Y-97875369D01*
X112500185Y-97700060D01*
X112528202Y-97586474D01*
X112756450Y-96660639D01*
X112824949Y-96660639D01*
X112867328Y-96661831D01*
X112885270Y-96669140D01*
X112886125Y-96688168D01*
X112882307Y-96704350D01*
X112876996Y-96725805D01*
X112864675Y-96775937D01*
X112845884Y-96852544D01*
X112821161Y-96953421D01*
X112791047Y-97076367D01*
X112756081Y-97219177D01*
X112716802Y-97379649D01*
X112673750Y-97555579D01*
X112627463Y-97744765D01*
X112578482Y-97945003D01*
X112527346Y-98154090D01*
X112511635Y-98218336D01*
X112152102Y-99688611D01*
X112085363Y-99693499D01*
X112044500Y-99693786D01*
X112020949Y-99688711D01*
X112018674Y-99685551D01*
X112022290Y-99667311D01*
X112032472Y-99622278D01*
X112048255Y-99554546D01*
X112068677Y-99468208D01*
X112092777Y-99367357D01*
X112119590Y-99256088D01*
X112121990Y-99246171D01*
X112149129Y-99132857D01*
X112173599Y-99028357D01*
X112194421Y-98937033D01*
X112210619Y-98863251D01*
X112221216Y-98811373D01*
X112225232Y-98785764D01*
X112225243Y-98785219D01*
X112221079Y-98766452D01*
X112209156Y-98720140D01*
X112190321Y-98649340D01*
X112165423Y-98557110D01*
X112135311Y-98446507D01*
X112100832Y-98320588D01*
X112062835Y-98182410D01*
X112022167Y-98035031D01*
X111979678Y-97881509D01*
X111936215Y-97724899D01*
X111892627Y-97568260D01*
X111849762Y-97414649D01*
X111808468Y-97267123D01*
X111769593Y-97128740D01*
X111733986Y-97002556D01*
X111702494Y-96891630D01*
X111675967Y-96799017D01*
X111655251Y-96727776D01*
X111643504Y-96688455D01*
X111642921Y-96670948D01*
X111659958Y-96662740D01*
X111701508Y-96660641D01*
X111703639Y-96660639D01*
X111772275Y-96660639D01*
X112017518Y-97530883D01*
G36*
X114938411Y-97973076D02*
X114948088Y-97974535D01*
X114987748Y-97984583D01*
X115004326Y-98001861D01*
X115006859Y-98022061D01*
X115003087Y-98045013D01*
X114992466Y-98094554D01*
X114976033Y-98166480D01*
X114954828Y-98256586D01*
X114929888Y-98360666D01*
X114902252Y-98474514D01*
X114872960Y-98593926D01*
X114843049Y-98714696D01*
X114813558Y-98832619D01*
X114785527Y-98943490D01*
X114759993Y-99043103D01*
X114737995Y-99127253D01*
X114720572Y-99191734D01*
X114708762Y-99232342D01*
X114705765Y-99241165D01*
X114691044Y-99268006D01*
X114668011Y-99279235D01*
X114627891Y-99277358D01*
X114597566Y-99272074D01*
X114569135Y-99256333D01*
X114561993Y-99238476D01*
X114565802Y-99217796D01*
X114576469Y-99170773D01*
X114592987Y-99101392D01*
X114614348Y-99013635D01*
X114639546Y-98911486D01*
X114667574Y-98798930D01*
X114697423Y-98679949D01*
X114728088Y-98558527D01*
X114758560Y-98438648D01*
X114787832Y-98324296D01*
X114814898Y-98219453D01*
X114838750Y-98128105D01*
X114858380Y-98054234D01*
X114872782Y-98001823D01*
X114880949Y-97974858D01*
X114882170Y-97972144D01*
X114900977Y-97969803D01*
X114938411Y-97973076D01*
X114938411Y-97973076D01*
G37*
X114938411Y-97973076D02*
X114948088Y-97974535D01*
X114987748Y-97984583D01*
X115004326Y-98001861D01*
X115006859Y-98022061D01*
X115003087Y-98045013D01*
X114992466Y-98094554D01*
X114976033Y-98166480D01*
X114954828Y-98256586D01*
X114929888Y-98360666D01*
X114902252Y-98474514D01*
X114872960Y-98593926D01*
X114843049Y-98714696D01*
X114813558Y-98832619D01*
X114785527Y-98943490D01*
X114759993Y-99043103D01*
X114737995Y-99127253D01*
X114720572Y-99191734D01*
X114708762Y-99232342D01*
X114705765Y-99241165D01*
X114691044Y-99268006D01*
X114668011Y-99279235D01*
X114627891Y-99277358D01*
X114597566Y-99272074D01*
X114569135Y-99256333D01*
X114561993Y-99238476D01*
X114565802Y-99217796D01*
X114576469Y-99170773D01*
X114592987Y-99101392D01*
X114614348Y-99013635D01*
X114639546Y-98911486D01*
X114667574Y-98798930D01*
X114697423Y-98679949D01*
X114728088Y-98558527D01*
X114758560Y-98438648D01*
X114787832Y-98324296D01*
X114814898Y-98219453D01*
X114838750Y-98128105D01*
X114858380Y-98054234D01*
X114872782Y-98001823D01*
X114880949Y-97974858D01*
X114882170Y-97972144D01*
X114900977Y-97969803D01*
X114938411Y-97973076D01*
G36*
X115235267Y-98049836D02*
X115270833Y-98057516D01*
X115287240Y-98061557D01*
X115352016Y-98077999D01*
X115254040Y-98470038D01*
X115156064Y-98862078D01*
X115108706Y-98866805D01*
X115071344Y-98866742D01*
X115049998Y-98860182D01*
X115042834Y-98847519D01*
X115040189Y-98825729D01*
X115042653Y-98791426D01*
X115050810Y-98741224D01*
X115065249Y-98671735D01*
X115086557Y-98579574D01*
X115115320Y-98461352D01*
X115127950Y-98410402D01*
X115153342Y-98308636D01*
X115176149Y-98217801D01*
X115195273Y-98142231D01*
X115209612Y-98086257D01*
X115218068Y-98054214D01*
X115219859Y-98048278D01*
X115235267Y-98049836D01*
X115235267Y-98049836D01*
G37*
X115235267Y-98049836D02*
X115270833Y-98057516D01*
X115287240Y-98061557D01*
X115352016Y-98077999D01*
X115254040Y-98470038D01*
X115156064Y-98862078D01*
X115108706Y-98866805D01*
X115071344Y-98866742D01*
X115049998Y-98860182D01*
X115042834Y-98847519D01*
X115040189Y-98825729D01*
X115042653Y-98791426D01*
X115050810Y-98741224D01*
X115065249Y-98671735D01*
X115086557Y-98579574D01*
X115115320Y-98461352D01*
X115127950Y-98410402D01*
X115153342Y-98308636D01*
X115176149Y-98217801D01*
X115195273Y-98142231D01*
X115209612Y-98086257D01*
X115218068Y-98054214D01*
X115219859Y-98048278D01*
X115235267Y-98049836D01*
G36*
X110958273Y-96644895D02*
X111080693Y-96682933D01*
X111172256Y-96732912D01*
X111266876Y-96812436D01*
X111339745Y-96912538D01*
X111382830Y-97006030D01*
X111391082Y-97029328D01*
X111397788Y-97052974D01*
X111403081Y-97080312D01*
X111407092Y-97114683D01*
X111409954Y-97159433D01*
X111411798Y-97217904D01*
X111412756Y-97293439D01*
X111412961Y-97389382D01*
X111412544Y-97509076D01*
X111411637Y-97655865D01*
X111411162Y-97723601D01*
X111406671Y-98353442D01*
X111362048Y-98448811D01*
X111295348Y-98555437D01*
X111206392Y-98643494D01*
X111100409Y-98710388D01*
X110982627Y-98753524D01*
X110858275Y-98770309D01*
X110736783Y-98759057D01*
X110619443Y-98718463D01*
X110512055Y-98650537D01*
X110419516Y-98559329D01*
X110346724Y-98448892D01*
X110336317Y-98427753D01*
X110294030Y-98337547D01*
X110294030Y-97856159D01*
X110429625Y-97856159D01*
X110429809Y-97982146D01*
X110430377Y-98083085D01*
X110431514Y-98162347D01*
X110433405Y-98223302D01*
X110436235Y-98269321D01*
X110440188Y-98303776D01*
X110445448Y-98330036D01*
X110452201Y-98351472D01*
X110460631Y-98371456D01*
X110467082Y-98385232D01*
X110529859Y-98483830D01*
X110612044Y-98558837D01*
X110710220Y-98608072D01*
X110820969Y-98629350D01*
X110850351Y-98630044D01*
X110912080Y-98626384D01*
X110968885Y-98617894D01*
X110996330Y-98610525D01*
X111092229Y-98559730D01*
X111175954Y-98485821D01*
X111231827Y-98408109D01*
X111279512Y-98321652D01*
X111279512Y-97081853D01*
X111231827Y-96995693D01*
X111162727Y-96901531D01*
X111074927Y-96831946D01*
X110971953Y-96788789D01*
X110857334Y-96773914D01*
X110813054Y-96775914D01*
X110699031Y-96801154D01*
X110600230Y-96853673D01*
X110519403Y-96931505D01*
X110462175Y-97026221D01*
X110453874Y-97045988D01*
X110447124Y-97067133D01*
X110441766Y-97093004D01*
X110437636Y-97126950D01*
X110434575Y-97172317D01*
X110432420Y-97232455D01*
X110431012Y-97310711D01*
X110430187Y-97410434D01*
X110429785Y-97534972D01*
X110429646Y-97687672D01*
X110429641Y-97701753D01*
X110429625Y-97856159D01*
X110294030Y-97856159D01*
X110294030Y-97065958D01*
X110336317Y-96975752D01*
X110406493Y-96859885D01*
X110495418Y-96766752D01*
X110599075Y-96697520D01*
X110713447Y-96653355D01*
X110834519Y-96635424D01*
X110958273Y-96644895D01*
X110958273Y-96644895D01*
G37*
X110958273Y-96644895D02*
X111080693Y-96682933D01*
X111172256Y-96732912D01*
X111266876Y-96812436D01*
X111339745Y-96912538D01*
X111382830Y-97006030D01*
X111391082Y-97029328D01*
X111397788Y-97052974D01*
X111403081Y-97080312D01*
X111407092Y-97114683D01*
X111409954Y-97159433D01*
X111411798Y-97217904D01*
X111412756Y-97293439D01*
X111412961Y-97389382D01*
X111412544Y-97509076D01*
X111411637Y-97655865D01*
X111411162Y-97723601D01*
X111406671Y-98353442D01*
X111362048Y-98448811D01*
X111295348Y-98555437D01*
X111206392Y-98643494D01*
X111100409Y-98710388D01*
X110982627Y-98753524D01*
X110858275Y-98770309D01*
X110736783Y-98759057D01*
X110619443Y-98718463D01*
X110512055Y-98650537D01*
X110419516Y-98559329D01*
X110346724Y-98448892D01*
X110336317Y-98427753D01*
X110294030Y-98337547D01*
X110294030Y-97856159D01*
X110429625Y-97856159D01*
X110429809Y-97982146D01*
X110430377Y-98083085D01*
X110431514Y-98162347D01*
X110433405Y-98223302D01*
X110436235Y-98269321D01*
X110440188Y-98303776D01*
X110445448Y-98330036D01*
X110452201Y-98351472D01*
X110460631Y-98371456D01*
X110467082Y-98385232D01*
X110529859Y-98483830D01*
X110612044Y-98558837D01*
X110710220Y-98608072D01*
X110820969Y-98629350D01*
X110850351Y-98630044D01*
X110912080Y-98626384D01*
X110968885Y-98617894D01*
X110996330Y-98610525D01*
X111092229Y-98559730D01*
X111175954Y-98485821D01*
X111231827Y-98408109D01*
X111279512Y-98321652D01*
X111279512Y-97081853D01*
X111231827Y-96995693D01*
X111162727Y-96901531D01*
X111074927Y-96831946D01*
X110971953Y-96788789D01*
X110857334Y-96773914D01*
X110813054Y-96775914D01*
X110699031Y-96801154D01*
X110600230Y-96853673D01*
X110519403Y-96931505D01*
X110462175Y-97026221D01*
X110453874Y-97045988D01*
X110447124Y-97067133D01*
X110441766Y-97093004D01*
X110437636Y-97126950D01*
X110434575Y-97172317D01*
X110432420Y-97232455D01*
X110431012Y-97310711D01*
X110430187Y-97410434D01*
X110429785Y-97534972D01*
X110429646Y-97687672D01*
X110429641Y-97701753D01*
X110429625Y-97856159D01*
X110294030Y-97856159D01*
X110294030Y-97065958D01*
X110336317Y-96975752D01*
X110406493Y-96859885D01*
X110495418Y-96766752D01*
X110599075Y-96697520D01*
X110713447Y-96653355D01*
X110834519Y-96635424D01*
X110958273Y-96644895D01*
G36*
X109026414Y-95884217D02*
X109372128Y-95889757D01*
X109476197Y-95939063D01*
X109538635Y-95972045D01*
X109598182Y-96009119D01*
X109637745Y-96038836D01*
X109717201Y-96127513D01*
X109780464Y-96235901D01*
X109823131Y-96354285D01*
X109840796Y-96472949D01*
X109841026Y-96487264D01*
X109829766Y-96586547D01*
X109798812Y-96690233D01*
X109752403Y-96789195D01*
X109694780Y-96874305D01*
X109633505Y-96934021D01*
X109602815Y-96959299D01*
X109587206Y-96977218D01*
X109586708Y-96979111D01*
X109599844Y-96991288D01*
X109633082Y-97010030D01*
X109652930Y-97019465D01*
X109733764Y-97069557D01*
X109812581Y-97142960D01*
X109881838Y-97231679D01*
X109925122Y-97307953D01*
X109976133Y-97415645D01*
X109981652Y-97779909D01*
X109982850Y-97935520D01*
X109981332Y-98062918D01*
X109977130Y-98161030D01*
X109970274Y-98228787D01*
X109968253Y-98240331D01*
X109926674Y-98374961D01*
X109859636Y-98492457D01*
X109769681Y-98590217D01*
X109659354Y-98665638D01*
X109531197Y-98716119D01*
X109494531Y-98724995D01*
X109451558Y-98730597D01*
X109382131Y-98735395D01*
X109291582Y-98739175D01*
X109185241Y-98741727D01*
X109068438Y-98742836D01*
X109045501Y-98742866D01*
X108680701Y-98742866D01*
X108680701Y-97089800D01*
X108823755Y-97089800D01*
X108823755Y-98602035D01*
X109169468Y-98596950D01*
X109284028Y-98595076D01*
X109371563Y-98592951D01*
X109436841Y-98590103D01*
X109484627Y-98586060D01*
X109519685Y-98580348D01*
X109546782Y-98572495D01*
X109570683Y-98562028D01*
X109582313Y-98555994D01*
X109679797Y-98487117D01*
X109760305Y-98396583D01*
X109802954Y-98323276D01*
X109814606Y-98297102D01*
X109823580Y-98271918D01*
X109830226Y-98243279D01*
X109834896Y-98206738D01*
X109837941Y-98157846D01*
X109839713Y-98092156D01*
X109840563Y-98005222D01*
X109840842Y-97892596D01*
X109840871Y-97843371D01*
X109841026Y-97444565D01*
X109792216Y-97346886D01*
X109729557Y-97249088D01*
X109649861Y-97176134D01*
X109548000Y-97123394D01*
X109542401Y-97121267D01*
X109509431Y-97110236D01*
X109474320Y-97102085D01*
X109431719Y-97096394D01*
X109376279Y-97092745D01*
X109302652Y-97090718D01*
X109205490Y-97089893D01*
X109141056Y-97089800D01*
X108823755Y-97089800D01*
X108680701Y-97089800D01*
X108680701Y-96949372D01*
X108823755Y-96949372D01*
X109097941Y-96943980D01*
X109199685Y-96941640D01*
X109275275Y-96938758D01*
X109330349Y-96934654D01*
X109370542Y-96928649D01*
X109401492Y-96920063D01*
X109428833Y-96908217D01*
X109439239Y-96902832D01*
X109543032Y-96833431D01*
X109621020Y-96748437D01*
X109659936Y-96682429D01*
X109696574Y-96573622D01*
X109703915Y-96462314D01*
X109683586Y-96353349D01*
X109637220Y-96251573D01*
X109566445Y-96161832D01*
X109472893Y-96088973D01*
X109457254Y-96079942D01*
X109425376Y-96062826D01*
X109397046Y-96050343D01*
X109366430Y-96041642D01*
X109327695Y-96035872D01*
X109275008Y-96032180D01*
X109202535Y-96029717D01*
X109104444Y-96027630D01*
X109097941Y-96027505D01*
X108823755Y-96022218D01*
X108823755Y-96949372D01*
X108680701Y-96949372D01*
X108680701Y-95878677D01*
X109026414Y-95884217D01*
X109026414Y-95884217D01*
G37*
X109026414Y-95884217D02*
X109372128Y-95889757D01*
X109476197Y-95939063D01*
X109538635Y-95972045D01*
X109598182Y-96009119D01*
X109637745Y-96038836D01*
X109717201Y-96127513D01*
X109780464Y-96235901D01*
X109823131Y-96354285D01*
X109840796Y-96472949D01*
X109841026Y-96487264D01*
X109829766Y-96586547D01*
X109798812Y-96690233D01*
X109752403Y-96789195D01*
X109694780Y-96874305D01*
X109633505Y-96934021D01*
X109602815Y-96959299D01*
X109587206Y-96977218D01*
X109586708Y-96979111D01*
X109599844Y-96991288D01*
X109633082Y-97010030D01*
X109652930Y-97019465D01*
X109733764Y-97069557D01*
X109812581Y-97142960D01*
X109881838Y-97231679D01*
X109925122Y-97307953D01*
X109976133Y-97415645D01*
X109981652Y-97779909D01*
X109982850Y-97935520D01*
X109981332Y-98062918D01*
X109977130Y-98161030D01*
X109970274Y-98228787D01*
X109968253Y-98240331D01*
X109926674Y-98374961D01*
X109859636Y-98492457D01*
X109769681Y-98590217D01*
X109659354Y-98665638D01*
X109531197Y-98716119D01*
X109494531Y-98724995D01*
X109451558Y-98730597D01*
X109382131Y-98735395D01*
X109291582Y-98739175D01*
X109185241Y-98741727D01*
X109068438Y-98742836D01*
X109045501Y-98742866D01*
X108680701Y-98742866D01*
X108680701Y-97089800D01*
X108823755Y-97089800D01*
X108823755Y-98602035D01*
X109169468Y-98596950D01*
X109284028Y-98595076D01*
X109371563Y-98592951D01*
X109436841Y-98590103D01*
X109484627Y-98586060D01*
X109519685Y-98580348D01*
X109546782Y-98572495D01*
X109570683Y-98562028D01*
X109582313Y-98555994D01*
X109679797Y-98487117D01*
X109760305Y-98396583D01*
X109802954Y-98323276D01*
X109814606Y-98297102D01*
X109823580Y-98271918D01*
X109830226Y-98243279D01*
X109834896Y-98206738D01*
X109837941Y-98157846D01*
X109839713Y-98092156D01*
X109840563Y-98005222D01*
X109840842Y-97892596D01*
X109840871Y-97843371D01*
X109841026Y-97444565D01*
X109792216Y-97346886D01*
X109729557Y-97249088D01*
X109649861Y-97176134D01*
X109548000Y-97123394D01*
X109542401Y-97121267D01*
X109509431Y-97110236D01*
X109474320Y-97102085D01*
X109431719Y-97096394D01*
X109376279Y-97092745D01*
X109302652Y-97090718D01*
X109205490Y-97089893D01*
X109141056Y-97089800D01*
X108823755Y-97089800D01*
X108680701Y-97089800D01*
X108680701Y-96949372D01*
X108823755Y-96949372D01*
X109097941Y-96943980D01*
X109199685Y-96941640D01*
X109275275Y-96938758D01*
X109330349Y-96934654D01*
X109370542Y-96928649D01*
X109401492Y-96920063D01*
X109428833Y-96908217D01*
X109439239Y-96902832D01*
X109543032Y-96833431D01*
X109621020Y-96748437D01*
X109659936Y-96682429D01*
X109696574Y-96573622D01*
X109703915Y-96462314D01*
X109683586Y-96353349D01*
X109637220Y-96251573D01*
X109566445Y-96161832D01*
X109472893Y-96088973D01*
X109457254Y-96079942D01*
X109425376Y-96062826D01*
X109397046Y-96050343D01*
X109366430Y-96041642D01*
X109327695Y-96035872D01*
X109275008Y-96032180D01*
X109202535Y-96029717D01*
X109104444Y-96027630D01*
X109097941Y-96027505D01*
X108823755Y-96022218D01*
X108823755Y-96949372D01*
X108680701Y-96949372D01*
X108680701Y-95878677D01*
X109026414Y-95884217D01*
G36*
X114595972Y-97888771D02*
X114639397Y-97905112D01*
X114656413Y-97927155D01*
X114657172Y-97934743D01*
X114653361Y-97959614D01*
X114642861Y-98009577D01*
X114627069Y-98078978D01*
X114607383Y-98162165D01*
X114585202Y-98253485D01*
X114561922Y-98347285D01*
X114538942Y-98437912D01*
X114517659Y-98519715D01*
X114499472Y-98587040D01*
X114485778Y-98634234D01*
X114479935Y-98651471D01*
X114459071Y-98682692D01*
X114425351Y-98693343D01*
X114371832Y-98685441D01*
X114367090Y-98684225D01*
X114343506Y-98670392D01*
X114339274Y-98660685D01*
X114343038Y-98641372D01*
X114353624Y-98595618D01*
X114369973Y-98527775D01*
X114391025Y-98442200D01*
X114415722Y-98343246D01*
X114437024Y-98258825D01*
X114534773Y-97873237D01*
X114595972Y-97888771D01*
X114595972Y-97888771D01*
G37*
X114595972Y-97888771D02*
X114639397Y-97905112D01*
X114656413Y-97927155D01*
X114657172Y-97934743D01*
X114653361Y-97959614D01*
X114642861Y-98009577D01*
X114627069Y-98078978D01*
X114607383Y-98162165D01*
X114585202Y-98253485D01*
X114561922Y-98347285D01*
X114538942Y-98437912D01*
X114517659Y-98519715D01*
X114499472Y-98587040D01*
X114485778Y-98634234D01*
X114479935Y-98651471D01*
X114459071Y-98682692D01*
X114425351Y-98693343D01*
X114371832Y-98685441D01*
X114367090Y-98684225D01*
X114343506Y-98670392D01*
X114339274Y-98660685D01*
X114343038Y-98641372D01*
X114353624Y-98595618D01*
X114369973Y-98527775D01*
X114391025Y-98442200D01*
X114415722Y-98343246D01*
X114437024Y-98258825D01*
X114534773Y-97873237D01*
X114595972Y-97888771D01*
G36*
X116356810Y-92443029D02*
X116395090Y-92465212D01*
X116427069Y-92500664D01*
X116467980Y-92562081D01*
X116515969Y-92645523D01*
X116569182Y-92747053D01*
X116625766Y-92862729D01*
X116683867Y-92988614D01*
X116741631Y-93120768D01*
X116797205Y-93255251D01*
X116848736Y-93388125D01*
X116894369Y-93515450D01*
X116907033Y-93553192D01*
X117002987Y-93886550D01*
X117068355Y-94211463D01*
X117103151Y-94528106D01*
X117107388Y-94836656D01*
X117081078Y-95137288D01*
X117040628Y-95360735D01*
X116996283Y-95541252D01*
X116945201Y-95711385D01*
X116885232Y-95875540D01*
X116814225Y-96038125D01*
X116730029Y-96203548D01*
X116630494Y-96376216D01*
X116513469Y-96560536D01*
X116376802Y-96760916D01*
X116314403Y-96849003D01*
X116278429Y-96902073D01*
X116252316Y-96945975D01*
X116239799Y-96974152D01*
X116239700Y-96980136D01*
X116254284Y-96992280D01*
X116276531Y-96989678D01*
X116309177Y-96970397D01*
X116354958Y-96932507D01*
X116416611Y-96874075D01*
X116479706Y-96810725D01*
X116659869Y-96627019D01*
X116709391Y-96655750D01*
X116768237Y-96702123D01*
X116827316Y-96769713D01*
X116878905Y-96848957D01*
X116900555Y-96892380D01*
X116928683Y-96991861D01*
X116934648Y-97110687D01*
X116918553Y-97245510D01*
X116885860Y-97375908D01*
X116867626Y-97438437D01*
X116843926Y-97524378D01*
X116816752Y-97626241D01*
X116788099Y-97736535D01*
X116759961Y-97847770D01*
X116755759Y-97864675D01*
X116728725Y-97970450D01*
X116704063Y-98060675D01*
X116682873Y-98131703D01*
X116666259Y-98179887D01*
X116655321Y-98201581D01*
X116653684Y-98202441D01*
X116634618Y-98194527D01*
X116593388Y-98172613D01*
X116534856Y-98139438D01*
X116463884Y-98097743D01*
X116405243Y-98062423D01*
X116307555Y-98002650D01*
X116194681Y-97933058D01*
X116078274Y-97860861D01*
X115969989Y-97793275D01*
X115931180Y-97768909D01*
X115687229Y-97615412D01*
X115565598Y-97717933D01*
X115460444Y-97796582D01*
X115365590Y-97846274D01*
X115279730Y-97867649D01*
X115257979Y-97868649D01*
X115209252Y-97863799D01*
X115139313Y-97850607D01*
X115055458Y-97831106D01*
X114964986Y-97807328D01*
X114875195Y-97781308D01*
X114793381Y-97755079D01*
X114726843Y-97730674D01*
X114682877Y-97710128D01*
X114677978Y-97707032D01*
X114628955Y-97662560D01*
X114582482Y-97596177D01*
X114536660Y-97504635D01*
X114489924Y-97385625D01*
X114462121Y-97307921D01*
X114277512Y-97318639D01*
X114192428Y-97323701D01*
X114108132Y-97328924D01*
X114035969Y-97333596D01*
X113997535Y-97336242D01*
X113839923Y-97347442D01*
X113701454Y-97356861D01*
X113569591Y-97365339D01*
X113492872Y-97370054D01*
X113417624Y-97374386D01*
X113368523Y-97375911D01*
X113339989Y-97373812D01*
X113326440Y-97367271D01*
X113322296Y-97355469D01*
X113322003Y-97345003D01*
X113325927Y-97316415D01*
X113336930Y-97261729D01*
X113338929Y-97252728D01*
X113549095Y-97252728D01*
X113813052Y-97241665D01*
X113903583Y-97237595D01*
X113984704Y-97233434D01*
X114050328Y-97229534D01*
X114094368Y-97226248D01*
X114108799Y-97224558D01*
X114136180Y-97221545D01*
X114188191Y-97217647D01*
X114257699Y-97213341D01*
X114337573Y-97209102D01*
X114348639Y-97208567D01*
X114556689Y-97198619D01*
X114593729Y-97328704D01*
X114633336Y-97438766D01*
X114685522Y-97540731D01*
X114745484Y-97626433D01*
X114801991Y-97682801D01*
X114848901Y-97709752D01*
X114900090Y-97724294D01*
X114946267Y-97725459D01*
X114978140Y-97712281D01*
X114985174Y-97701862D01*
X114985962Y-97677245D01*
X114981027Y-97629033D01*
X114971308Y-97564712D01*
X114960807Y-97507149D01*
X114944810Y-97417669D01*
X114928195Y-97311833D01*
X114913270Y-97204940D01*
X114905041Y-97137485D01*
X114897565Y-97050428D01*
X114891576Y-96940010D01*
X114887130Y-96813051D01*
X114884281Y-96676370D01*
X114883086Y-96536785D01*
X114883599Y-96401116D01*
X114885876Y-96276182D01*
X114889971Y-96168802D01*
X114895939Y-96085794D01*
X114896492Y-96080476D01*
X114927712Y-95820405D01*
X114963512Y-95585553D01*
X115005423Y-95369497D01*
X115054973Y-95165815D01*
X115113693Y-94968081D01*
X115183111Y-94769874D01*
X115228241Y-94655257D01*
X115388643Y-94655257D01*
X115401629Y-94758966D01*
X115421648Y-94816851D01*
X115454363Y-94874466D01*
X115500304Y-94932548D01*
X115551863Y-94983293D01*
X115601435Y-95018894D01*
X115629793Y-95030400D01*
X115709336Y-95045812D01*
X115770228Y-95051568D01*
X115824103Y-95047674D01*
X115882597Y-95034133D01*
X115895086Y-95030502D01*
X115969946Y-94996783D01*
X116041509Y-94944568D01*
X116101524Y-94881556D01*
X116141740Y-94815447D01*
X116149613Y-94792992D01*
X116165816Y-94678063D01*
X116151784Y-94567522D01*
X116108543Y-94465549D01*
X116051047Y-94390253D01*
X115967559Y-94321910D01*
X115875262Y-94283456D01*
X115786518Y-94273229D01*
X115677636Y-94287336D01*
X115582029Y-94326859D01*
X115502512Y-94387606D01*
X115441899Y-94465383D01*
X115403004Y-94555998D01*
X115388643Y-94655257D01*
X115228241Y-94655257D01*
X115247476Y-94606408D01*
X115349199Y-94373351D01*
X115456390Y-94158074D01*
X115572641Y-93955192D01*
X115701540Y-93759322D01*
X115846677Y-93565080D01*
X116011643Y-93367082D01*
X116200026Y-93159943D01*
X116239987Y-93117826D01*
X116296157Y-93058352D01*
X116343499Y-93007008D01*
X116378094Y-92968137D01*
X116396028Y-92946083D01*
X116397660Y-92942983D01*
X116391504Y-92925216D01*
X116374955Y-92885362D01*
X116350890Y-92830222D01*
X116334392Y-92793408D01*
X116306042Y-92731941D01*
X116282314Y-92690466D01*
X116258031Y-92668556D01*
X116228017Y-92665782D01*
X116187094Y-92681720D01*
X116130087Y-92715940D01*
X116051819Y-92768016D01*
X116049064Y-92769867D01*
X115752805Y-92984685D01*
X115485173Y-93212320D01*
X115245296Y-93453735D01*
X115032303Y-93709893D01*
X114845323Y-93981757D01*
X114683485Y-94270291D01*
X114672498Y-94292303D01*
X114606876Y-94433787D01*
X114550278Y-94576440D01*
X114501542Y-94724942D01*
X114459504Y-94883971D01*
X114423001Y-95058208D01*
X114390869Y-95252331D01*
X114361946Y-95471019D01*
X114347330Y-95600243D01*
X114326567Y-95744899D01*
X114296891Y-95862270D01*
X114255717Y-95956226D01*
X114200462Y-96030637D01*
X114128541Y-96089371D01*
X114037369Y-96136298D01*
X113973437Y-96160035D01*
X113871424Y-96203709D01*
X113795938Y-96259647D01*
X113742829Y-96331781D01*
X113712725Y-96406907D01*
X113697549Y-96464391D01*
X113678550Y-96545985D01*
X113657196Y-96644452D01*
X113634958Y-96752555D01*
X113613303Y-96863059D01*
X113593701Y-96968726D01*
X113577622Y-97062320D01*
X113570854Y-97105743D01*
X113549095Y-97252728D01*
X113338929Y-97252728D01*
X113353857Y-97185549D01*
X113375551Y-97092481D01*
X113400857Y-96987130D01*
X113428619Y-96874103D01*
X113457682Y-96758004D01*
X113486889Y-96643439D01*
X113515087Y-96535013D01*
X113541118Y-96437333D01*
X113563828Y-96355003D01*
X113582060Y-96292630D01*
X113594660Y-96254819D01*
X113596849Y-96249626D01*
X113649255Y-96166694D01*
X113719446Y-96097600D01*
X113794787Y-96052888D01*
X113841169Y-96033943D01*
X113902826Y-96008924D01*
X113959417Y-95986067D01*
X114020857Y-95956723D01*
X114077110Y-95922086D01*
X114112506Y-95892923D01*
X114135640Y-95866872D01*
X114154250Y-95840257D01*
X114169112Y-95809080D01*
X114181004Y-95769341D01*
X114190705Y-95717041D01*
X114198990Y-95648180D01*
X114206637Y-95558760D01*
X114214424Y-95444782D01*
X114221266Y-95333417D01*
X114226414Y-95250842D01*
X114231139Y-95186194D01*
X114236593Y-95126754D01*
X114243929Y-95059804D01*
X114252959Y-94983730D01*
X114286574Y-94799208D01*
X114344414Y-94598574D01*
X114425439Y-94385009D01*
X114507279Y-94204881D01*
X114617526Y-93996709D01*
X114742287Y-93797007D01*
X114883709Y-93603471D01*
X115043938Y-93413798D01*
X115225122Y-93225684D01*
X115429407Y-93036824D01*
X115658942Y-92844914D01*
X115915872Y-92647650D01*
X116047973Y-92551523D01*
X116146553Y-92487339D01*
X116229148Y-92448294D01*
X116298365Y-92433740D01*
X116356810Y-92443029D01*
X116356810Y-92443029D01*
G37*
X116356810Y-92443029D02*
X116395090Y-92465212D01*
X116427069Y-92500664D01*
X116467980Y-92562081D01*
X116515969Y-92645523D01*
X116569182Y-92747053D01*
X116625766Y-92862729D01*
X116683867Y-92988614D01*
X116741631Y-93120768D01*
X116797205Y-93255251D01*
X116848736Y-93388125D01*
X116894369Y-93515450D01*
X116907033Y-93553192D01*
X117002987Y-93886550D01*
X117068355Y-94211463D01*
X117103151Y-94528106D01*
X117107388Y-94836656D01*
X117081078Y-95137288D01*
X117040628Y-95360735D01*
X116996283Y-95541252D01*
X116945201Y-95711385D01*
X116885232Y-95875540D01*
X116814225Y-96038125D01*
X116730029Y-96203548D01*
X116630494Y-96376216D01*
X116513469Y-96560536D01*
X116376802Y-96760916D01*
X116314403Y-96849003D01*
X116278429Y-96902073D01*
X116252316Y-96945975D01*
X116239799Y-96974152D01*
X116239700Y-96980136D01*
X116254284Y-96992280D01*
X116276531Y-96989678D01*
X116309177Y-96970397D01*
X116354958Y-96932507D01*
X116416611Y-96874075D01*
X116479706Y-96810725D01*
X116659869Y-96627019D01*
X116709391Y-96655750D01*
X116768237Y-96702123D01*
X116827316Y-96769713D01*
X116878905Y-96848957D01*
X116900555Y-96892380D01*
X116928683Y-96991861D01*
X116934648Y-97110687D01*
X116918553Y-97245510D01*
X116885860Y-97375908D01*
X116867626Y-97438437D01*
X116843926Y-97524378D01*
X116816752Y-97626241D01*
X116788099Y-97736535D01*
X116759961Y-97847770D01*
X116755759Y-97864675D01*
X116728725Y-97970450D01*
X116704063Y-98060675D01*
X116682873Y-98131703D01*
X116666259Y-98179887D01*
X116655321Y-98201581D01*
X116653684Y-98202441D01*
X116634618Y-98194527D01*
X116593388Y-98172613D01*
X116534856Y-98139438D01*
X116463884Y-98097743D01*
X116405243Y-98062423D01*
X116307555Y-98002650D01*
X116194681Y-97933058D01*
X116078274Y-97860861D01*
X115969989Y-97793275D01*
X115931180Y-97768909D01*
X115687229Y-97615412D01*
X115565598Y-97717933D01*
X115460444Y-97796582D01*
X115365590Y-97846274D01*
X115279730Y-97867649D01*
X115257979Y-97868649D01*
X115209252Y-97863799D01*
X115139313Y-97850607D01*
X115055458Y-97831106D01*
X114964986Y-97807328D01*
X114875195Y-97781308D01*
X114793381Y-97755079D01*
X114726843Y-97730674D01*
X114682877Y-97710128D01*
X114677978Y-97707032D01*
X114628955Y-97662560D01*
X114582482Y-97596177D01*
X114536660Y-97504635D01*
X114489924Y-97385625D01*
X114462121Y-97307921D01*
X114277512Y-97318639D01*
X114192428Y-97323701D01*
X114108132Y-97328924D01*
X114035969Y-97333596D01*
X113997535Y-97336242D01*
X113839923Y-97347442D01*
X113701454Y-97356861D01*
X113569591Y-97365339D01*
X113492872Y-97370054D01*
X113417624Y-97374386D01*
X113368523Y-97375911D01*
X113339989Y-97373812D01*
X113326440Y-97367271D01*
X113322296Y-97355469D01*
X113322003Y-97345003D01*
X113325927Y-97316415D01*
X113336930Y-97261729D01*
X113338929Y-97252728D01*
X113549095Y-97252728D01*
X113813052Y-97241665D01*
X113903583Y-97237595D01*
X113984704Y-97233434D01*
X114050328Y-97229534D01*
X114094368Y-97226248D01*
X114108799Y-97224558D01*
X114136180Y-97221545D01*
X114188191Y-97217647D01*
X114257699Y-97213341D01*
X114337573Y-97209102D01*
X114348639Y-97208567D01*
X114556689Y-97198619D01*
X114593729Y-97328704D01*
X114633336Y-97438766D01*
X114685522Y-97540731D01*
X114745484Y-97626433D01*
X114801991Y-97682801D01*
X114848901Y-97709752D01*
X114900090Y-97724294D01*
X114946267Y-97725459D01*
X114978140Y-97712281D01*
X114985174Y-97701862D01*
X114985962Y-97677245D01*
X114981027Y-97629033D01*
X114971308Y-97564712D01*
X114960807Y-97507149D01*
X114944810Y-97417669D01*
X114928195Y-97311833D01*
X114913270Y-97204940D01*
X114905041Y-97137485D01*
X114897565Y-97050428D01*
X114891576Y-96940010D01*
X114887130Y-96813051D01*
X114884281Y-96676370D01*
X114883086Y-96536785D01*
X114883599Y-96401116D01*
X114885876Y-96276182D01*
X114889971Y-96168802D01*
X114895939Y-96085794D01*
X114896492Y-96080476D01*
X114927712Y-95820405D01*
X114963512Y-95585553D01*
X115005423Y-95369497D01*
X115054973Y-95165815D01*
X115113693Y-94968081D01*
X115183111Y-94769874D01*
X115228241Y-94655257D01*
X115388643Y-94655257D01*
X115401629Y-94758966D01*
X115421648Y-94816851D01*
X115454363Y-94874466D01*
X115500304Y-94932548D01*
X115551863Y-94983293D01*
X115601435Y-95018894D01*
X115629793Y-95030400D01*
X115709336Y-95045812D01*
X115770228Y-95051568D01*
X115824103Y-95047674D01*
X115882597Y-95034133D01*
X115895086Y-95030502D01*
X115969946Y-94996783D01*
X116041509Y-94944568D01*
X116101524Y-94881556D01*
X116141740Y-94815447D01*
X116149613Y-94792992D01*
X116165816Y-94678063D01*
X116151784Y-94567522D01*
X116108543Y-94465549D01*
X116051047Y-94390253D01*
X115967559Y-94321910D01*
X115875262Y-94283456D01*
X115786518Y-94273229D01*
X115677636Y-94287336D01*
X115582029Y-94326859D01*
X115502512Y-94387606D01*
X115441899Y-94465383D01*
X115403004Y-94555998D01*
X115388643Y-94655257D01*
X115228241Y-94655257D01*
X115247476Y-94606408D01*
X115349199Y-94373351D01*
X115456390Y-94158074D01*
X115572641Y-93955192D01*
X115701540Y-93759322D01*
X115846677Y-93565080D01*
X116011643Y-93367082D01*
X116200026Y-93159943D01*
X116239987Y-93117826D01*
X116296157Y-93058352D01*
X116343499Y-93007008D01*
X116378094Y-92968137D01*
X116396028Y-92946083D01*
X116397660Y-92942983D01*
X116391504Y-92925216D01*
X116374955Y-92885362D01*
X116350890Y-92830222D01*
X116334392Y-92793408D01*
X116306042Y-92731941D01*
X116282314Y-92690466D01*
X116258031Y-92668556D01*
X116228017Y-92665782D01*
X116187094Y-92681720D01*
X116130087Y-92715940D01*
X116051819Y-92768016D01*
X116049064Y-92769867D01*
X115752805Y-92984685D01*
X115485173Y-93212320D01*
X115245296Y-93453735D01*
X115032303Y-93709893D01*
X114845323Y-93981757D01*
X114683485Y-94270291D01*
X114672498Y-94292303D01*
X114606876Y-94433787D01*
X114550278Y-94576440D01*
X114501542Y-94724942D01*
X114459504Y-94883971D01*
X114423001Y-95058208D01*
X114390869Y-95252331D01*
X114361946Y-95471019D01*
X114347330Y-95600243D01*
X114326567Y-95744899D01*
X114296891Y-95862270D01*
X114255717Y-95956226D01*
X114200462Y-96030637D01*
X114128541Y-96089371D01*
X114037369Y-96136298D01*
X113973437Y-96160035D01*
X113871424Y-96203709D01*
X113795938Y-96259647D01*
X113742829Y-96331781D01*
X113712725Y-96406907D01*
X113697549Y-96464391D01*
X113678550Y-96545985D01*
X113657196Y-96644452D01*
X113634958Y-96752555D01*
X113613303Y-96863059D01*
X113593701Y-96968726D01*
X113577622Y-97062320D01*
X113570854Y-97105743D01*
X113549095Y-97252728D01*
X113338929Y-97252728D01*
X113353857Y-97185549D01*
X113375551Y-97092481D01*
X113400857Y-96987130D01*
X113428619Y-96874103D01*
X113457682Y-96758004D01*
X113486889Y-96643439D01*
X113515087Y-96535013D01*
X113541118Y-96437333D01*
X113563828Y-96355003D01*
X113582060Y-96292630D01*
X113594660Y-96254819D01*
X113596849Y-96249626D01*
X113649255Y-96166694D01*
X113719446Y-96097600D01*
X113794787Y-96052888D01*
X113841169Y-96033943D01*
X113902826Y-96008924D01*
X113959417Y-95986067D01*
X114020857Y-95956723D01*
X114077110Y-95922086D01*
X114112506Y-95892923D01*
X114135640Y-95866872D01*
X114154250Y-95840257D01*
X114169112Y-95809080D01*
X114181004Y-95769341D01*
X114190705Y-95717041D01*
X114198990Y-95648180D01*
X114206637Y-95558760D01*
X114214424Y-95444782D01*
X114221266Y-95333417D01*
X114226414Y-95250842D01*
X114231139Y-95186194D01*
X114236593Y-95126754D01*
X114243929Y-95059804D01*
X114252959Y-94983730D01*
X114286574Y-94799208D01*
X114344414Y-94598574D01*
X114425439Y-94385009D01*
X114507279Y-94204881D01*
X114617526Y-93996709D01*
X114742287Y-93797007D01*
X114883709Y-93603471D01*
X115043938Y-93413798D01*
X115225122Y-93225684D01*
X115429407Y-93036824D01*
X115658942Y-92844914D01*
X115915872Y-92647650D01*
X116047973Y-92551523D01*
X116146553Y-92487339D01*
X116229148Y-92448294D01*
X116298365Y-92433740D01*
X116356810Y-92443029D01*
G36*
X111394266Y-92701107D02*
X111531342Y-92741412D01*
X111651004Y-92807945D01*
X111751550Y-92899403D01*
X111831279Y-93014485D01*
X111848776Y-93048931D01*
X111899412Y-93155820D01*
X111899412Y-95126784D01*
X111848776Y-95233673D01*
X111775311Y-95353650D01*
X111680146Y-95451898D01*
X111566343Y-95525975D01*
X111436960Y-95573436D01*
X111417810Y-95577811D01*
X111330377Y-95591842D01*
X111253997Y-95591758D01*
X111171603Y-95577082D01*
X111144791Y-95570202D01*
X111080878Y-95549000D01*
X111017382Y-95521715D01*
X110991932Y-95508238D01*
X110918640Y-95453750D01*
X110845026Y-95379497D01*
X110780215Y-95296067D01*
X110733329Y-95214051D01*
X110728287Y-95202231D01*
X110691402Y-95110889D01*
X110691402Y-94332850D01*
X110826477Y-94332850D01*
X110826587Y-94510762D01*
X110827142Y-94661982D01*
X110828450Y-94789059D01*
X110830814Y-94894540D01*
X110834539Y-94980974D01*
X110839932Y-95050911D01*
X110847298Y-95106897D01*
X110856941Y-95151483D01*
X110869166Y-95187216D01*
X110884280Y-95216645D01*
X110902587Y-95242319D01*
X110924393Y-95266786D01*
X110950002Y-95292594D01*
X110968464Y-95310926D01*
X111038389Y-95372394D01*
X111104465Y-95414554D01*
X111128590Y-95424909D01*
X111226487Y-95446493D01*
X111333701Y-95449085D01*
X111434461Y-95432579D01*
X111452088Y-95427100D01*
X111528079Y-95388855D01*
X111605201Y-95329179D01*
X111674240Y-95256695D01*
X111725980Y-95180031D01*
X111734395Y-95162867D01*
X111772253Y-95079099D01*
X111772253Y-93203505D01*
X111734395Y-93119737D01*
X111687889Y-93043327D01*
X111621982Y-92969132D01*
X111545891Y-92905777D01*
X111468832Y-92861888D01*
X111452088Y-92855504D01*
X111343400Y-92833215D01*
X111228862Y-92835159D01*
X111139382Y-92855280D01*
X111062200Y-92894149D01*
X110984664Y-92954692D01*
X110916169Y-93028325D01*
X110867491Y-93103662D01*
X110826508Y-93185904D01*
X110826508Y-94125697D01*
X110826477Y-94332850D01*
X110691402Y-94332850D01*
X110691402Y-93171715D01*
X110728513Y-93079770D01*
X110790618Y-92965241D01*
X110875344Y-92867091D01*
X110977771Y-92788119D01*
X111092980Y-92731122D01*
X111216053Y-92698898D01*
X111342070Y-92694245D01*
X111394266Y-92701107D01*
X111394266Y-92701107D01*
G37*
X111394266Y-92701107D02*
X111531342Y-92741412D01*
X111651004Y-92807945D01*
X111751550Y-92899403D01*
X111831279Y-93014485D01*
X111848776Y-93048931D01*
X111899412Y-93155820D01*
X111899412Y-95126784D01*
X111848776Y-95233673D01*
X111775311Y-95353650D01*
X111680146Y-95451898D01*
X111566343Y-95525975D01*
X111436960Y-95573436D01*
X111417810Y-95577811D01*
X111330377Y-95591842D01*
X111253997Y-95591758D01*
X111171603Y-95577082D01*
X111144791Y-95570202D01*
X111080878Y-95549000D01*
X111017382Y-95521715D01*
X110991932Y-95508238D01*
X110918640Y-95453750D01*
X110845026Y-95379497D01*
X110780215Y-95296067D01*
X110733329Y-95214051D01*
X110728287Y-95202231D01*
X110691402Y-95110889D01*
X110691402Y-94332850D01*
X110826477Y-94332850D01*
X110826587Y-94510762D01*
X110827142Y-94661982D01*
X110828450Y-94789059D01*
X110830814Y-94894540D01*
X110834539Y-94980974D01*
X110839932Y-95050911D01*
X110847298Y-95106897D01*
X110856941Y-95151483D01*
X110869166Y-95187216D01*
X110884280Y-95216645D01*
X110902587Y-95242319D01*
X110924393Y-95266786D01*
X110950002Y-95292594D01*
X110968464Y-95310926D01*
X111038389Y-95372394D01*
X111104465Y-95414554D01*
X111128590Y-95424909D01*
X111226487Y-95446493D01*
X111333701Y-95449085D01*
X111434461Y-95432579D01*
X111452088Y-95427100D01*
X111528079Y-95388855D01*
X111605201Y-95329179D01*
X111674240Y-95256695D01*
X111725980Y-95180031D01*
X111734395Y-95162867D01*
X111772253Y-95079099D01*
X111772253Y-93203505D01*
X111734395Y-93119737D01*
X111687889Y-93043327D01*
X111621982Y-92969132D01*
X111545891Y-92905777D01*
X111468832Y-92861888D01*
X111452088Y-92855504D01*
X111343400Y-92833215D01*
X111228862Y-92835159D01*
X111139382Y-92855280D01*
X111062200Y-92894149D01*
X110984664Y-92954692D01*
X110916169Y-93028325D01*
X110867491Y-93103662D01*
X110826508Y-93185904D01*
X110826508Y-94125697D01*
X110826477Y-94332850D01*
X110691402Y-94332850D01*
X110691402Y-93171715D01*
X110728513Y-93079770D01*
X110790618Y-92965241D01*
X110875344Y-92867091D01*
X110977771Y-92788119D01*
X111092980Y-92731122D01*
X111216053Y-92698898D01*
X111342070Y-92694245D01*
X111394266Y-92701107D01*
G36*
X108915607Y-92961108D02*
X108941321Y-93030991D01*
X108976338Y-93126198D01*
X109018998Y-93242214D01*
X109067641Y-93374524D01*
X109120606Y-93518612D01*
X109176234Y-93669963D01*
X109232865Y-93824063D01*
X109269386Y-93923450D01*
X109321636Y-94064773D01*
X109370817Y-94196103D01*
X109415818Y-94314592D01*
X109455528Y-94417396D01*
X109488837Y-94501669D01*
X109514634Y-94564567D01*
X109531809Y-94603243D01*
X109539232Y-94614877D01*
X109546496Y-94598087D01*
X109563630Y-94553990D01*
X109589675Y-94485169D01*
X109623675Y-94394207D01*
X109664671Y-94283686D01*
X109711706Y-94156189D01*
X109763823Y-94014299D01*
X109820064Y-93860598D01*
X109879472Y-93697669D01*
X109888666Y-93672403D01*
X109948447Y-93508091D01*
X110005092Y-93352414D01*
X110057651Y-93207982D01*
X110105176Y-93077401D01*
X110146718Y-92963278D01*
X110181327Y-92868221D01*
X110208054Y-92794838D01*
X110225950Y-92745735D01*
X110234066Y-92723521D01*
X110234375Y-92722685D01*
X110254442Y-92709672D01*
X110297137Y-92703163D01*
X110311626Y-92702816D01*
X110381452Y-92702816D01*
X110381452Y-95563893D01*
X110238398Y-95563893D01*
X110237747Y-94336014D01*
X110237096Y-93108136D01*
X109903938Y-94022090D01*
X109844179Y-94185857D01*
X109787207Y-94341660D01*
X109734026Y-94486774D01*
X109685641Y-94618473D01*
X109643056Y-94734031D01*
X109607276Y-94830723D01*
X109579306Y-94905822D01*
X109560150Y-94956602D01*
X109550812Y-94980338D01*
X109550661Y-94980676D01*
X109546129Y-94988375D01*
X109540707Y-94990758D01*
X109533565Y-94985788D01*
X109523877Y-94971429D01*
X109510813Y-94945644D01*
X109493546Y-94906396D01*
X109471247Y-94851648D01*
X109443088Y-94779365D01*
X109408241Y-94687509D01*
X109365878Y-94574044D01*
X109315170Y-94436933D01*
X109255290Y-94274139D01*
X109185409Y-94083626D01*
X109181123Y-94071932D01*
X108831702Y-93118556D01*
X108827630Y-94341224D01*
X108823559Y-95563893D01*
X108680701Y-95563893D01*
X108680701Y-92702816D01*
X108820524Y-92702816D01*
X108915607Y-92961108D01*
X108915607Y-92961108D01*
G37*
X108915607Y-92961108D02*
X108941321Y-93030991D01*
X108976338Y-93126198D01*
X109018998Y-93242214D01*
X109067641Y-93374524D01*
X109120606Y-93518612D01*
X109176234Y-93669963D01*
X109232865Y-93824063D01*
X109269386Y-93923450D01*
X109321636Y-94064773D01*
X109370817Y-94196103D01*
X109415818Y-94314592D01*
X109455528Y-94417396D01*
X109488837Y-94501669D01*
X109514634Y-94564567D01*
X109531809Y-94603243D01*
X109539232Y-94614877D01*
X109546496Y-94598087D01*
X109563630Y-94553990D01*
X109589675Y-94485169D01*
X109623675Y-94394207D01*
X109664671Y-94283686D01*
X109711706Y-94156189D01*
X109763823Y-94014299D01*
X109820064Y-93860598D01*
X109879472Y-93697669D01*
X109888666Y-93672403D01*
X109948447Y-93508091D01*
X110005092Y-93352414D01*
X110057651Y-93207982D01*
X110105176Y-93077401D01*
X110146718Y-92963278D01*
X110181327Y-92868221D01*
X110208054Y-92794838D01*
X110225950Y-92745735D01*
X110234066Y-92723521D01*
X110234375Y-92722685D01*
X110254442Y-92709672D01*
X110297137Y-92703163D01*
X110311626Y-92702816D01*
X110381452Y-92702816D01*
X110381452Y-95563893D01*
X110238398Y-95563893D01*
X110237747Y-94336014D01*
X110237096Y-93108136D01*
X109903938Y-94022090D01*
X109844179Y-94185857D01*
X109787207Y-94341660D01*
X109734026Y-94486774D01*
X109685641Y-94618473D01*
X109643056Y-94734031D01*
X109607276Y-94830723D01*
X109579306Y-94905822D01*
X109560150Y-94956602D01*
X109550812Y-94980338D01*
X109550661Y-94980676D01*
X109546129Y-94988375D01*
X109540707Y-94990758D01*
X109533565Y-94985788D01*
X109523877Y-94971429D01*
X109510813Y-94945644D01*
X109493546Y-94906396D01*
X109471247Y-94851648D01*
X109443088Y-94779365D01*
X109408241Y-94687509D01*
X109365878Y-94574044D01*
X109315170Y-94436933D01*
X109255290Y-94274139D01*
X109185409Y-94083626D01*
X109181123Y-94071932D01*
X108831702Y-93118556D01*
X108827630Y-94341224D01*
X108823559Y-95563893D01*
X108680701Y-95563893D01*
X108680701Y-92702816D01*
X108820524Y-92702816D01*
X108915607Y-92961108D01*
G36*
X112555075Y-92706221D02*
X112673813Y-92708563D01*
X112765704Y-92711140D01*
X112835691Y-92714416D01*
X112888716Y-92718852D01*
X112929721Y-92724912D01*
X112963648Y-92733056D01*
X112995440Y-92743749D01*
X113008026Y-92748590D01*
X113112278Y-92804975D01*
X113208175Y-92886014D01*
X113288196Y-92984585D01*
X113325593Y-93049447D01*
X113377635Y-93155165D01*
X113377635Y-95126784D01*
X113323316Y-95226963D01*
X113255564Y-95327046D01*
X113169724Y-95415765D01*
X113073980Y-95485566D01*
X113008026Y-95518119D01*
X112975747Y-95529904D01*
X112943217Y-95538965D01*
X112905492Y-95545764D01*
X112857631Y-95550765D01*
X112794691Y-95554428D01*
X112711730Y-95557217D01*
X112603806Y-95559594D01*
X112555075Y-95560488D01*
X112193467Y-95566912D01*
X112193467Y-92845870D01*
X112336521Y-92845870D01*
X112336521Y-95420839D01*
X112612142Y-95420839D01*
X112711900Y-95420707D01*
X112785829Y-95419796D01*
X112839888Y-95417331D01*
X112880038Y-95412536D01*
X112912237Y-95404637D01*
X112942448Y-95392860D01*
X112976629Y-95376429D01*
X112984679Y-95372410D01*
X113089349Y-95304827D01*
X113169744Y-95217804D01*
X113217007Y-95135539D01*
X113224035Y-95119629D01*
X113230003Y-95102967D01*
X113234999Y-95082960D01*
X113239108Y-95057019D01*
X113242417Y-95022551D01*
X113245013Y-94976968D01*
X113246982Y-94917676D01*
X113248410Y-94842087D01*
X113249385Y-94747608D01*
X113249992Y-94631650D01*
X113250319Y-94491620D01*
X113250451Y-94324930D01*
X113250476Y-94133355D01*
X113250450Y-93938043D01*
X113250314Y-93771930D01*
X113249983Y-93632425D01*
X113249369Y-93516937D01*
X113248386Y-93422876D01*
X113246947Y-93347650D01*
X113244966Y-93288668D01*
X113242356Y-93243341D01*
X113239031Y-93209076D01*
X113234905Y-93183284D01*
X113229890Y-93163373D01*
X113223900Y-93146752D01*
X113217007Y-93131170D01*
X113153338Y-93027123D01*
X113067646Y-92944811D01*
X112984679Y-92894299D01*
X112948945Y-92876817D01*
X112918406Y-92864148D01*
X112887101Y-92855516D01*
X112849069Y-92850147D01*
X112798352Y-92847267D01*
X112728988Y-92846100D01*
X112635018Y-92845871D01*
X112612142Y-92845870D01*
X112336521Y-92845870D01*
X112193467Y-92845870D01*
X112193467Y-92699797D01*
X112555075Y-92706221D01*
X112555075Y-92706221D01*
G37*
X112555075Y-92706221D02*
X112673813Y-92708563D01*
X112765704Y-92711140D01*
X112835691Y-92714416D01*
X112888716Y-92718852D01*
X112929721Y-92724912D01*
X112963648Y-92733056D01*
X112995440Y-92743749D01*
X113008026Y-92748590D01*
X113112278Y-92804975D01*
X113208175Y-92886014D01*
X113288196Y-92984585D01*
X113325593Y-93049447D01*
X113377635Y-93155165D01*
X113377635Y-95126784D01*
X113323316Y-95226963D01*
X113255564Y-95327046D01*
X113169724Y-95415765D01*
X113073980Y-95485566D01*
X113008026Y-95518119D01*
X112975747Y-95529904D01*
X112943217Y-95538965D01*
X112905492Y-95545764D01*
X112857631Y-95550765D01*
X112794691Y-95554428D01*
X112711730Y-95557217D01*
X112603806Y-95559594D01*
X112555075Y-95560488D01*
X112193467Y-95566912D01*
X112193467Y-92845870D01*
X112336521Y-92845870D01*
X112336521Y-95420839D01*
X112612142Y-95420839D01*
X112711900Y-95420707D01*
X112785829Y-95419796D01*
X112839888Y-95417331D01*
X112880038Y-95412536D01*
X112912237Y-95404637D01*
X112942448Y-95392860D01*
X112976629Y-95376429D01*
X112984679Y-95372410D01*
X113089349Y-95304827D01*
X113169744Y-95217804D01*
X113217007Y-95135539D01*
X113224035Y-95119629D01*
X113230003Y-95102967D01*
X113234999Y-95082960D01*
X113239108Y-95057019D01*
X113242417Y-95022551D01*
X113245013Y-94976968D01*
X113246982Y-94917676D01*
X113248410Y-94842087D01*
X113249385Y-94747608D01*
X113249992Y-94631650D01*
X113250319Y-94491620D01*
X113250451Y-94324930D01*
X113250476Y-94133355D01*
X113250450Y-93938043D01*
X113250314Y-93771930D01*
X113249983Y-93632425D01*
X113249369Y-93516937D01*
X113248386Y-93422876D01*
X113246947Y-93347650D01*
X113244966Y-93288668D01*
X113242356Y-93243341D01*
X113239031Y-93209076D01*
X113234905Y-93183284D01*
X113229890Y-93163373D01*
X113223900Y-93146752D01*
X113217007Y-93131170D01*
X113153338Y-93027123D01*
X113067646Y-92944811D01*
X112984679Y-92894299D01*
X112948945Y-92876817D01*
X112918406Y-92864148D01*
X112887101Y-92855516D01*
X112849069Y-92850147D01*
X112798352Y-92847267D01*
X112728988Y-92846100D01*
X112635018Y-92845871D01*
X112612142Y-92845870D01*
X112336521Y-92845870D01*
X112193467Y-92845870D01*
X112193467Y-92699797D01*
X112555075Y-92706221D01*
D10*
G36*
X173719993Y-74214819D02*
X173719597Y-74291526D01*
X173718199Y-74360278D01*
X173717836Y-74371275D01*
X173712556Y-74520192D01*
X173584653Y-74544162D01*
X173485380Y-74562838D01*
X173397077Y-74579594D01*
X173320880Y-74594210D01*
X173257927Y-74606464D01*
X173209353Y-74616135D01*
X173176294Y-74623002D01*
X173159888Y-74626843D01*
X173159509Y-74626957D01*
X173145812Y-74636696D01*
X173130665Y-74658785D01*
X173113272Y-74694751D01*
X173092835Y-74746123D01*
X173082064Y-74775715D01*
X173065397Y-74819496D01*
X173044216Y-74870926D01*
X173022107Y-74921418D01*
X173013210Y-74940694D01*
X172989403Y-74992782D01*
X172973885Y-75032508D01*
X172966460Y-75063548D01*
X172966929Y-75089574D01*
X172975094Y-75114261D01*
X172990758Y-75141283D01*
X173001565Y-75157138D01*
X173064763Y-75248034D01*
X173119622Y-75328016D01*
X173165661Y-75396363D01*
X173202401Y-75452353D01*
X173229363Y-75495267D01*
X173246068Y-75524383D01*
X173247151Y-75526497D01*
X173271215Y-75574245D01*
X173074865Y-75773432D01*
X173025474Y-75823156D01*
X172979515Y-75868701D01*
X172938691Y-75908436D01*
X172904707Y-75940728D01*
X172879265Y-75963946D01*
X172864069Y-75976459D01*
X172861194Y-75978116D01*
X172852056Y-75979299D01*
X172840088Y-75976908D01*
X172823574Y-75969927D01*
X172800800Y-75957343D01*
X172770051Y-75938141D01*
X172729610Y-75911307D01*
X172677765Y-75875827D01*
X172617643Y-75834065D01*
X172568389Y-75800096D01*
X172520837Y-75768000D01*
X172478230Y-75739914D01*
X172443811Y-75717975D01*
X172420823Y-75704318D01*
X172420223Y-75703994D01*
X172372482Y-75678322D01*
X172334045Y-75699615D01*
X172297297Y-75719527D01*
X172258599Y-75739761D01*
X172221342Y-75758637D01*
X172188918Y-75774473D01*
X172164719Y-75785590D01*
X172152137Y-75790306D01*
X172151146Y-75790237D01*
X172144997Y-75778466D01*
X172132864Y-75751763D01*
X172115530Y-75712028D01*
X172093779Y-75661163D01*
X172068395Y-75601069D01*
X172040163Y-75533646D01*
X172009866Y-75460795D01*
X171978289Y-75384417D01*
X171946214Y-75306413D01*
X171914428Y-75228684D01*
X171883712Y-75153130D01*
X171854853Y-75081653D01*
X171828632Y-75016152D01*
X171805835Y-74958530D01*
X171787246Y-74910687D01*
X171775212Y-74878786D01*
X171748094Y-74805238D01*
X171811924Y-74761624D01*
X171891160Y-74700584D01*
X171961897Y-74632363D01*
X172021630Y-74559892D01*
X172067855Y-74486102D01*
X172090859Y-74435168D01*
X172100937Y-74402337D01*
X172111019Y-74359806D01*
X172119164Y-74315915D01*
X172120198Y-74309046D01*
X172126241Y-74205467D01*
X172114987Y-74103165D01*
X172087237Y-74004410D01*
X172043795Y-73911471D01*
X171985464Y-73826616D01*
X171927997Y-73765505D01*
X171848927Y-73703807D01*
X171760664Y-73655401D01*
X171666235Y-73621264D01*
X171568667Y-73602377D01*
X171470985Y-73599718D01*
X171428704Y-73603948D01*
X171320868Y-73627497D01*
X171222503Y-73665898D01*
X171134533Y-73718412D01*
X171057883Y-73784298D01*
X170993477Y-73862816D01*
X170942238Y-73953227D01*
X170918278Y-74012646D01*
X170896989Y-74094773D01*
X170886189Y-74184841D01*
X170886292Y-74275704D01*
X170897708Y-74360216D01*
X170898126Y-74362112D01*
X170928433Y-74457160D01*
X170975202Y-74546161D01*
X171037306Y-74627520D01*
X171113621Y-74699643D01*
X171161387Y-74734893D01*
X171195651Y-74758844D01*
X171224656Y-74780685D01*
X171244754Y-74797577D01*
X171251717Y-74805171D01*
X171254241Y-74809012D01*
X171256175Y-74812720D01*
X171257009Y-74817660D01*
X171256232Y-74825200D01*
X171253335Y-74836704D01*
X171247808Y-74853539D01*
X171239139Y-74877071D01*
X171226819Y-74908665D01*
X171210337Y-74949688D01*
X171189184Y-75001506D01*
X171162849Y-75065484D01*
X171130821Y-75142989D01*
X171092591Y-75235386D01*
X171076349Y-75274643D01*
X171034252Y-75376298D01*
X170998420Y-75462556D01*
X170968251Y-75534809D01*
X170943139Y-75594453D01*
X170922482Y-75642882D01*
X170905675Y-75681489D01*
X170892115Y-75711670D01*
X170881198Y-75734818D01*
X170872320Y-75752328D01*
X170864878Y-75765594D01*
X170861123Y-75771673D01*
X170847813Y-75792452D01*
X170745084Y-75737655D01*
X170705403Y-75716957D01*
X170670911Y-75699840D01*
X170645044Y-75687946D01*
X170631240Y-75682921D01*
X170630551Y-75682857D01*
X170619097Y-75687711D01*
X170595168Y-75701195D01*
X170561262Y-75721693D01*
X170519876Y-75747588D01*
X170473507Y-75777264D01*
X170424654Y-75809104D01*
X170375814Y-75841492D01*
X170329484Y-75872811D01*
X170288161Y-75901446D01*
X170254345Y-75925779D01*
X170248630Y-75930041D01*
X170214456Y-75954031D01*
X170184659Y-75971806D01*
X170163215Y-75981095D01*
X170157916Y-75981926D01*
X170146829Y-75977514D01*
X170127772Y-75963969D01*
X170099877Y-75940520D01*
X170062277Y-75906402D01*
X170014106Y-75860844D01*
X169954498Y-75803081D01*
X169939304Y-75788208D01*
X169889137Y-75738511D01*
X169843795Y-75692599D01*
X169804830Y-75652118D01*
X169773794Y-75618716D01*
X169752238Y-75594041D01*
X169741713Y-75579739D01*
X169740926Y-75577586D01*
X169741677Y-75550355D01*
X169749975Y-75527408D01*
X169766267Y-75503285D01*
X169779953Y-75484468D01*
X169801698Y-75453695D01*
X169829516Y-75413854D01*
X169861419Y-75367834D01*
X169895423Y-75318526D01*
X169929540Y-75268817D01*
X169961785Y-75221598D01*
X169990170Y-75179757D01*
X170012710Y-75146184D01*
X170027418Y-75123768D01*
X170029911Y-75119805D01*
X170049877Y-75087430D01*
X169978202Y-74905281D01*
X169955497Y-74848198D01*
X169933461Y-74793918D01*
X169913479Y-74745773D01*
X169896939Y-74707093D01*
X169885227Y-74681211D01*
X169883302Y-74677299D01*
X169875538Y-74662039D01*
X169868083Y-74649758D01*
X169858862Y-74639734D01*
X169845803Y-74631246D01*
X169826832Y-74623573D01*
X169799874Y-74615995D01*
X169762856Y-74607789D01*
X169713705Y-74598236D01*
X169650346Y-74586613D01*
X169592322Y-74576117D01*
X169531298Y-74564902D01*
X169473536Y-74553973D01*
X169422392Y-74543988D01*
X169381222Y-74535606D01*
X169353384Y-74529488D01*
X169347393Y-74527998D01*
X169302036Y-74515999D01*
X169299647Y-74216172D01*
X169297259Y-73916345D01*
X169390362Y-73897213D01*
X169429648Y-73889357D01*
X169481980Y-73879206D01*
X169542545Y-73867676D01*
X169606532Y-73855684D01*
X169664893Y-73844920D01*
X169721109Y-73834476D01*
X169772100Y-73824683D01*
X169814840Y-73816149D01*
X169846306Y-73809479D01*
X169863472Y-73805281D01*
X169864795Y-73804841D01*
X169871507Y-73800832D01*
X169878993Y-73792644D01*
X169888050Y-73778624D01*
X169899478Y-73757124D01*
X169914074Y-73726492D01*
X169932638Y-73685077D01*
X169955969Y-73631229D01*
X169984864Y-73563298D01*
X170006636Y-73511694D01*
X170025227Y-73466540D01*
X170040957Y-73426434D01*
X170052564Y-73394737D01*
X170058790Y-73374814D01*
X170059500Y-73370587D01*
X170054568Y-73357486D01*
X170041106Y-73333012D01*
X170021122Y-73300562D01*
X169996620Y-73263535D01*
X169994394Y-73260286D01*
X169927531Y-73162566D01*
X169871182Y-73079306D01*
X169825200Y-73010283D01*
X169789442Y-72955275D01*
X169763763Y-72914059D01*
X169748019Y-72886411D01*
X169742064Y-72872110D01*
X169742000Y-72871311D01*
X169748065Y-72860857D01*
X169764977Y-72839559D01*
X169790818Y-72809464D01*
X169823668Y-72772617D01*
X169861606Y-72731065D01*
X169902713Y-72686853D01*
X169945069Y-72642027D01*
X169986755Y-72598634D01*
X170025849Y-72558718D01*
X170060432Y-72524326D01*
X170088585Y-72497505D01*
X170108387Y-72480299D01*
X170110301Y-72478836D01*
X170135029Y-72463404D01*
X170157274Y-72454388D01*
X170163855Y-72453429D01*
X170179673Y-72458711D01*
X170205012Y-72472797D01*
X170235317Y-72493044D01*
X170246866Y-72501561D01*
X170280857Y-72526242D01*
X170324347Y-72556288D01*
X170371340Y-72587622D01*
X170409467Y-72612162D01*
X170453470Y-72640550D01*
X170497838Y-72670271D01*
X170537093Y-72697593D01*
X170563349Y-72716917D01*
X170602309Y-72746112D01*
X170630944Y-72765017D01*
X170652578Y-72775299D01*
X170670534Y-72778620D01*
X170684203Y-72777435D01*
X170699779Y-72772534D01*
X170729837Y-72761172D01*
X170772266Y-72744222D01*
X170824954Y-72722558D01*
X170885789Y-72697053D01*
X170952659Y-72668580D01*
X171023453Y-72638012D01*
X171062482Y-72620982D01*
X171090284Y-72608803D01*
X171141033Y-72326673D01*
X171155286Y-72249318D01*
X171168693Y-72180167D01*
X171180852Y-72121106D01*
X171191357Y-72074020D01*
X171199802Y-72040795D01*
X171205783Y-72023316D01*
X171206422Y-72022200D01*
X171221061Y-71999858D01*
X171505492Y-71999858D01*
X171588237Y-72000003D01*
X171654525Y-72000487D01*
X171706042Y-72001378D01*
X171744470Y-72002746D01*
X171771496Y-72004660D01*
X171788804Y-72007190D01*
X171798077Y-72010406D01*
X171800011Y-72012014D01*
X171806935Y-72027675D01*
X171815963Y-72059722D01*
X171826750Y-72106568D01*
X171838954Y-72166622D01*
X171852228Y-72238296D01*
X171864617Y-72310283D01*
X171874140Y-72365389D01*
X171885081Y-72425546D01*
X171895864Y-72482231D01*
X171902436Y-72515086D01*
X171909445Y-72549996D01*
X171915573Y-72576011D01*
X171923294Y-72595490D01*
X171935082Y-72610792D01*
X171953411Y-72624277D01*
X171980754Y-72638304D01*
X172019586Y-72655231D01*
X172072380Y-72677419D01*
X172072884Y-72677632D01*
X172121039Y-72697994D01*
X172172301Y-72719689D01*
X172219005Y-72739473D01*
X172241179Y-72748876D01*
X172277278Y-72763073D01*
X172309712Y-72773852D01*
X172332944Y-72779436D01*
X172337510Y-72779834D01*
X172357680Y-72773912D01*
X172389618Y-72756536D01*
X172431781Y-72728581D01*
X172446367Y-72718136D01*
X172501113Y-72678984D01*
X172560386Y-72637704D01*
X172620856Y-72596520D01*
X172679194Y-72557657D01*
X172732071Y-72523338D01*
X172776157Y-72495787D01*
X172801815Y-72480698D01*
X172854452Y-72451160D01*
X172878610Y-72472705D01*
X172912475Y-72503508D01*
X172952557Y-72540932D01*
X172996804Y-72582965D01*
X173043165Y-72627591D01*
X173089589Y-72672795D01*
X173134025Y-72716565D01*
X173174419Y-72756885D01*
X173208722Y-72791741D01*
X173234882Y-72819118D01*
X173250847Y-72837003D01*
X173254227Y-72841528D01*
X173262538Y-72857204D01*
X173266087Y-72872418D01*
X173263842Y-72889668D01*
X173254767Y-72911452D01*
X173237828Y-72940269D01*
X173211991Y-72978616D01*
X173177143Y-73027708D01*
X173122431Y-73104076D01*
X173077447Y-73167200D01*
X173041222Y-73218492D01*
X173012789Y-73259363D01*
X172991181Y-73291226D01*
X172975431Y-73315491D01*
X172964571Y-73333571D01*
X172957634Y-73346878D01*
X172956172Y-73350150D01*
X172949828Y-73367548D01*
X172948847Y-73382700D01*
X172954158Y-73401350D01*
X172966689Y-73429242D01*
X172970091Y-73436329D01*
X172983839Y-73466378D01*
X173001910Y-73508037D01*
X173022049Y-73556011D01*
X173042002Y-73605001D01*
X173043798Y-73609495D01*
X173071502Y-73676857D01*
X173094768Y-73728459D01*
X173114484Y-73765881D01*
X173131540Y-73790706D01*
X173146825Y-73804517D01*
X173155460Y-73808161D01*
X173172840Y-73811889D01*
X173204802Y-73818279D01*
X173248086Y-73826713D01*
X173299430Y-73836574D01*
X173355573Y-73847243D01*
X173413255Y-73858104D01*
X173469214Y-73868539D01*
X173520188Y-73877931D01*
X173562916Y-73885662D01*
X173588286Y-73890118D01*
X173626761Y-73897301D01*
X173660897Y-73904694D01*
X173684763Y-73910984D01*
X173688921Y-73912415D01*
X173712448Y-73921472D01*
X173717782Y-74071915D01*
X173719387Y-74138750D01*
X173719993Y-74214819D01*
X173719993Y-74214819D01*
X173719993Y-74214819D01*
G37*
X173719993Y-74214819D02*
X173719597Y-74291526D01*
X173718199Y-74360278D01*
X173717836Y-74371275D01*
X173712556Y-74520192D01*
X173584653Y-74544162D01*
X173485380Y-74562838D01*
X173397077Y-74579594D01*
X173320880Y-74594210D01*
X173257927Y-74606464D01*
X173209353Y-74616135D01*
X173176294Y-74623002D01*
X173159888Y-74626843D01*
X173159509Y-74626957D01*
X173145812Y-74636696D01*
X173130665Y-74658785D01*
X173113272Y-74694751D01*
X173092835Y-74746123D01*
X173082064Y-74775715D01*
X173065397Y-74819496D01*
X173044216Y-74870926D01*
X173022107Y-74921418D01*
X173013210Y-74940694D01*
X172989403Y-74992782D01*
X172973885Y-75032508D01*
X172966460Y-75063548D01*
X172966929Y-75089574D01*
X172975094Y-75114261D01*
X172990758Y-75141283D01*
X173001565Y-75157138D01*
X173064763Y-75248034D01*
X173119622Y-75328016D01*
X173165661Y-75396363D01*
X173202401Y-75452353D01*
X173229363Y-75495267D01*
X173246068Y-75524383D01*
X173247151Y-75526497D01*
X173271215Y-75574245D01*
X173074865Y-75773432D01*
X173025474Y-75823156D01*
X172979515Y-75868701D01*
X172938691Y-75908436D01*
X172904707Y-75940728D01*
X172879265Y-75963946D01*
X172864069Y-75976459D01*
X172861194Y-75978116D01*
X172852056Y-75979299D01*
X172840088Y-75976908D01*
X172823574Y-75969927D01*
X172800800Y-75957343D01*
X172770051Y-75938141D01*
X172729610Y-75911307D01*
X172677765Y-75875827D01*
X172617643Y-75834065D01*
X172568389Y-75800096D01*
X172520837Y-75768000D01*
X172478230Y-75739914D01*
X172443811Y-75717975D01*
X172420823Y-75704318D01*
X172420223Y-75703994D01*
X172372482Y-75678322D01*
X172334045Y-75699615D01*
X172297297Y-75719527D01*
X172258599Y-75739761D01*
X172221342Y-75758637D01*
X172188918Y-75774473D01*
X172164719Y-75785590D01*
X172152137Y-75790306D01*
X172151146Y-75790237D01*
X172144997Y-75778466D01*
X172132864Y-75751763D01*
X172115530Y-75712028D01*
X172093779Y-75661163D01*
X172068395Y-75601069D01*
X172040163Y-75533646D01*
X172009866Y-75460795D01*
X171978289Y-75384417D01*
X171946214Y-75306413D01*
X171914428Y-75228684D01*
X171883712Y-75153130D01*
X171854853Y-75081653D01*
X171828632Y-75016152D01*
X171805835Y-74958530D01*
X171787246Y-74910687D01*
X171775212Y-74878786D01*
X171748094Y-74805238D01*
X171811924Y-74761624D01*
X171891160Y-74700584D01*
X171961897Y-74632363D01*
X172021630Y-74559892D01*
X172067855Y-74486102D01*
X172090859Y-74435168D01*
X172100937Y-74402337D01*
X172111019Y-74359806D01*
X172119164Y-74315915D01*
X172120198Y-74309046D01*
X172126241Y-74205467D01*
X172114987Y-74103165D01*
X172087237Y-74004410D01*
X172043795Y-73911471D01*
X171985464Y-73826616D01*
X171927997Y-73765505D01*
X171848927Y-73703807D01*
X171760664Y-73655401D01*
X171666235Y-73621264D01*
X171568667Y-73602377D01*
X171470985Y-73599718D01*
X171428704Y-73603948D01*
X171320868Y-73627497D01*
X171222503Y-73665898D01*
X171134533Y-73718412D01*
X171057883Y-73784298D01*
X170993477Y-73862816D01*
X170942238Y-73953227D01*
X170918278Y-74012646D01*
X170896989Y-74094773D01*
X170886189Y-74184841D01*
X170886292Y-74275704D01*
X170897708Y-74360216D01*
X170898126Y-74362112D01*
X170928433Y-74457160D01*
X170975202Y-74546161D01*
X171037306Y-74627520D01*
X171113621Y-74699643D01*
X171161387Y-74734893D01*
X171195651Y-74758844D01*
X171224656Y-74780685D01*
X171244754Y-74797577D01*
X171251717Y-74805171D01*
X171254241Y-74809012D01*
X171256175Y-74812720D01*
X171257009Y-74817660D01*
X171256232Y-74825200D01*
X171253335Y-74836704D01*
X171247808Y-74853539D01*
X171239139Y-74877071D01*
X171226819Y-74908665D01*
X171210337Y-74949688D01*
X171189184Y-75001506D01*
X171162849Y-75065484D01*
X171130821Y-75142989D01*
X171092591Y-75235386D01*
X171076349Y-75274643D01*
X171034252Y-75376298D01*
X170998420Y-75462556D01*
X170968251Y-75534809D01*
X170943139Y-75594453D01*
X170922482Y-75642882D01*
X170905675Y-75681489D01*
X170892115Y-75711670D01*
X170881198Y-75734818D01*
X170872320Y-75752328D01*
X170864878Y-75765594D01*
X170861123Y-75771673D01*
X170847813Y-75792452D01*
X170745084Y-75737655D01*
X170705403Y-75716957D01*
X170670911Y-75699840D01*
X170645044Y-75687946D01*
X170631240Y-75682921D01*
X170630551Y-75682857D01*
X170619097Y-75687711D01*
X170595168Y-75701195D01*
X170561262Y-75721693D01*
X170519876Y-75747588D01*
X170473507Y-75777264D01*
X170424654Y-75809104D01*
X170375814Y-75841492D01*
X170329484Y-75872811D01*
X170288161Y-75901446D01*
X170254345Y-75925779D01*
X170248630Y-75930041D01*
X170214456Y-75954031D01*
X170184659Y-75971806D01*
X170163215Y-75981095D01*
X170157916Y-75981926D01*
X170146829Y-75977514D01*
X170127772Y-75963969D01*
X170099877Y-75940520D01*
X170062277Y-75906402D01*
X170014106Y-75860844D01*
X169954498Y-75803081D01*
X169939304Y-75788208D01*
X169889137Y-75738511D01*
X169843795Y-75692599D01*
X169804830Y-75652118D01*
X169773794Y-75618716D01*
X169752238Y-75594041D01*
X169741713Y-75579739D01*
X169740926Y-75577586D01*
X169741677Y-75550355D01*
X169749975Y-75527408D01*
X169766267Y-75503285D01*
X169779953Y-75484468D01*
X169801698Y-75453695D01*
X169829516Y-75413854D01*
X169861419Y-75367834D01*
X169895423Y-75318526D01*
X169929540Y-75268817D01*
X169961785Y-75221598D01*
X169990170Y-75179757D01*
X170012710Y-75146184D01*
X170027418Y-75123768D01*
X170029911Y-75119805D01*
X170049877Y-75087430D01*
X169978202Y-74905281D01*
X169955497Y-74848198D01*
X169933461Y-74793918D01*
X169913479Y-74745773D01*
X169896939Y-74707093D01*
X169885227Y-74681211D01*
X169883302Y-74677299D01*
X169875538Y-74662039D01*
X169868083Y-74649758D01*
X169858862Y-74639734D01*
X169845803Y-74631246D01*
X169826832Y-74623573D01*
X169799874Y-74615995D01*
X169762856Y-74607789D01*
X169713705Y-74598236D01*
X169650346Y-74586613D01*
X169592322Y-74576117D01*
X169531298Y-74564902D01*
X169473536Y-74553973D01*
X169422392Y-74543988D01*
X169381222Y-74535606D01*
X169353384Y-74529488D01*
X169347393Y-74527998D01*
X169302036Y-74515999D01*
X169299647Y-74216172D01*
X169297259Y-73916345D01*
X169390362Y-73897213D01*
X169429648Y-73889357D01*
X169481980Y-73879206D01*
X169542545Y-73867676D01*
X169606532Y-73855684D01*
X169664893Y-73844920D01*
X169721109Y-73834476D01*
X169772100Y-73824683D01*
X169814840Y-73816149D01*
X169846306Y-73809479D01*
X169863472Y-73805281D01*
X169864795Y-73804841D01*
X169871507Y-73800832D01*
X169878993Y-73792644D01*
X169888050Y-73778624D01*
X169899478Y-73757124D01*
X169914074Y-73726492D01*
X169932638Y-73685077D01*
X169955969Y-73631229D01*
X169984864Y-73563298D01*
X170006636Y-73511694D01*
X170025227Y-73466540D01*
X170040957Y-73426434D01*
X170052564Y-73394737D01*
X170058790Y-73374814D01*
X170059500Y-73370587D01*
X170054568Y-73357486D01*
X170041106Y-73333012D01*
X170021122Y-73300562D01*
X169996620Y-73263535D01*
X169994394Y-73260286D01*
X169927531Y-73162566D01*
X169871182Y-73079306D01*
X169825200Y-73010283D01*
X169789442Y-72955275D01*
X169763763Y-72914059D01*
X169748019Y-72886411D01*
X169742064Y-72872110D01*
X169742000Y-72871311D01*
X169748065Y-72860857D01*
X169764977Y-72839559D01*
X169790818Y-72809464D01*
X169823668Y-72772617D01*
X169861606Y-72731065D01*
X169902713Y-72686853D01*
X169945069Y-72642027D01*
X169986755Y-72598634D01*
X170025849Y-72558718D01*
X170060432Y-72524326D01*
X170088585Y-72497505D01*
X170108387Y-72480299D01*
X170110301Y-72478836D01*
X170135029Y-72463404D01*
X170157274Y-72454388D01*
X170163855Y-72453429D01*
X170179673Y-72458711D01*
X170205012Y-72472797D01*
X170235317Y-72493044D01*
X170246866Y-72501561D01*
X170280857Y-72526242D01*
X170324347Y-72556288D01*
X170371340Y-72587622D01*
X170409467Y-72612162D01*
X170453470Y-72640550D01*
X170497838Y-72670271D01*
X170537093Y-72697593D01*
X170563349Y-72716917D01*
X170602309Y-72746112D01*
X170630944Y-72765017D01*
X170652578Y-72775299D01*
X170670534Y-72778620D01*
X170684203Y-72777435D01*
X170699779Y-72772534D01*
X170729837Y-72761172D01*
X170772266Y-72744222D01*
X170824954Y-72722558D01*
X170885789Y-72697053D01*
X170952659Y-72668580D01*
X171023453Y-72638012D01*
X171062482Y-72620982D01*
X171090284Y-72608803D01*
X171141033Y-72326673D01*
X171155286Y-72249318D01*
X171168693Y-72180167D01*
X171180852Y-72121106D01*
X171191357Y-72074020D01*
X171199802Y-72040795D01*
X171205783Y-72023316D01*
X171206422Y-72022200D01*
X171221061Y-71999858D01*
X171505492Y-71999858D01*
X171588237Y-72000003D01*
X171654525Y-72000487D01*
X171706042Y-72001378D01*
X171744470Y-72002746D01*
X171771496Y-72004660D01*
X171788804Y-72007190D01*
X171798077Y-72010406D01*
X171800011Y-72012014D01*
X171806935Y-72027675D01*
X171815963Y-72059722D01*
X171826750Y-72106568D01*
X171838954Y-72166622D01*
X171852228Y-72238296D01*
X171864617Y-72310283D01*
X171874140Y-72365389D01*
X171885081Y-72425546D01*
X171895864Y-72482231D01*
X171902436Y-72515086D01*
X171909445Y-72549996D01*
X171915573Y-72576011D01*
X171923294Y-72595490D01*
X171935082Y-72610792D01*
X171953411Y-72624277D01*
X171980754Y-72638304D01*
X172019586Y-72655231D01*
X172072380Y-72677419D01*
X172072884Y-72677632D01*
X172121039Y-72697994D01*
X172172301Y-72719689D01*
X172219005Y-72739473D01*
X172241179Y-72748876D01*
X172277278Y-72763073D01*
X172309712Y-72773852D01*
X172332944Y-72779436D01*
X172337510Y-72779834D01*
X172357680Y-72773912D01*
X172389618Y-72756536D01*
X172431781Y-72728581D01*
X172446367Y-72718136D01*
X172501113Y-72678984D01*
X172560386Y-72637704D01*
X172620856Y-72596520D01*
X172679194Y-72557657D01*
X172732071Y-72523338D01*
X172776157Y-72495787D01*
X172801815Y-72480698D01*
X172854452Y-72451160D01*
X172878610Y-72472705D01*
X172912475Y-72503508D01*
X172952557Y-72540932D01*
X172996804Y-72582965D01*
X173043165Y-72627591D01*
X173089589Y-72672795D01*
X173134025Y-72716565D01*
X173174419Y-72756885D01*
X173208722Y-72791741D01*
X173234882Y-72819118D01*
X173250847Y-72837003D01*
X173254227Y-72841528D01*
X173262538Y-72857204D01*
X173266087Y-72872418D01*
X173263842Y-72889668D01*
X173254767Y-72911452D01*
X173237828Y-72940269D01*
X173211991Y-72978616D01*
X173177143Y-73027708D01*
X173122431Y-73104076D01*
X173077447Y-73167200D01*
X173041222Y-73218492D01*
X173012789Y-73259363D01*
X172991181Y-73291226D01*
X172975431Y-73315491D01*
X172964571Y-73333571D01*
X172957634Y-73346878D01*
X172956172Y-73350150D01*
X172949828Y-73367548D01*
X172948847Y-73382700D01*
X172954158Y-73401350D01*
X172966689Y-73429242D01*
X172970091Y-73436329D01*
X172983839Y-73466378D01*
X173001910Y-73508037D01*
X173022049Y-73556011D01*
X173042002Y-73605001D01*
X173043798Y-73609495D01*
X173071502Y-73676857D01*
X173094768Y-73728459D01*
X173114484Y-73765881D01*
X173131540Y-73790706D01*
X173146825Y-73804517D01*
X173155460Y-73808161D01*
X173172840Y-73811889D01*
X173204802Y-73818279D01*
X173248086Y-73826713D01*
X173299430Y-73836574D01*
X173355573Y-73847243D01*
X173413255Y-73858104D01*
X173469214Y-73868539D01*
X173520188Y-73877931D01*
X173562916Y-73885662D01*
X173588286Y-73890118D01*
X173626761Y-73897301D01*
X173660897Y-73904694D01*
X173684763Y-73910984D01*
X173688921Y-73912415D01*
X173712448Y-73921472D01*
X173717782Y-74071915D01*
X173719387Y-74138750D01*
X173719993Y-74214819D01*
X173719993Y-74214819D01*
D14*
X147142381Y-66159523D02*
X147856667Y-66159523D01*
X147999524Y-66207143D01*
X148094762Y-66302381D01*
X148142381Y-66445238D01*
X148142381Y-66540476D01*
X148142381Y-65159523D02*
X148142381Y-65730952D01*
X148142381Y-65445238D02*
X147142381Y-65445238D01*
X147285238Y-65540476D01*
X147380476Y-65635714D01*
X147428095Y-65730952D01*
X148142381Y-64207142D02*
X148142381Y-64778571D01*
X148142381Y-64492857D02*
X147142381Y-64492857D01*
X147285238Y-64588095D01*
X147380476Y-64683333D01*
X147428095Y-64778571D01*
X152156571Y-73741333D02*
X152156571Y-74074667D01*
X152680381Y-74074667D02*
X151680381Y-74074667D01*
X151680381Y-73598476D01*
X152680381Y-72693714D02*
X152680381Y-73265143D01*
X152680381Y-72979429D02*
X151680381Y-72979429D01*
X151823238Y-73074667D01*
X151918476Y-73169905D01*
X151966095Y-73265143D01*
X143204667Y-59660381D02*
X143204667Y-60374667D01*
X143157047Y-60517524D01*
X143061809Y-60612762D01*
X142918952Y-60660381D01*
X142823714Y-60660381D01*
X144204667Y-60660381D02*
X143633238Y-60660381D01*
X143918952Y-60660381D02*
X143918952Y-59660381D01*
X143823714Y-59803238D01*
X143728476Y-59898476D01*
X143633238Y-59946095D01*
X159677380Y-93861904D02*
X160391666Y-93861904D01*
X160534523Y-93909524D01*
X160629761Y-94004762D01*
X160677380Y-94147619D01*
X160677380Y-94242857D01*
X159772618Y-93433333D02*
X159724999Y-93385714D01*
X159677380Y-93290476D01*
X159677380Y-93052380D01*
X159724999Y-92957142D01*
X159772618Y-92909523D01*
X159867856Y-92861904D01*
X159963094Y-92861904D01*
X160105951Y-92909523D01*
X160677380Y-93480952D01*
X160677380Y-92861904D01*
X152972381Y-83283333D02*
X153686667Y-83283333D01*
X153829524Y-83330953D01*
X153924762Y-83426191D01*
X153972381Y-83569048D01*
X153972381Y-83664286D01*
X152972381Y-82902381D02*
X152972381Y-82283333D01*
X153353333Y-82616667D01*
X153353333Y-82473809D01*
X153400952Y-82378571D01*
X153448571Y-82330952D01*
X153543810Y-82283333D01*
X153781905Y-82283333D01*
X153877143Y-82330952D01*
X153924762Y-82378571D01*
X153972381Y-82473809D01*
X153972381Y-82759524D01*
X153924762Y-82854762D01*
X153877143Y-82902381D01*
X160822381Y-72708333D02*
X161536667Y-72708333D01*
X161679524Y-72755953D01*
X161774762Y-72851191D01*
X161822381Y-72994048D01*
X161822381Y-73089286D01*
X161155714Y-71803571D02*
X161822381Y-71803571D01*
X160774762Y-72041667D02*
X161489048Y-72279762D01*
X161489048Y-71660714D01*
X168572381Y-83208333D02*
X169286667Y-83208333D01*
X169429524Y-83255953D01*
X169524762Y-83351191D01*
X169572381Y-83494048D01*
X169572381Y-83589286D01*
X168572381Y-82255952D02*
X168572381Y-82732143D01*
X169048571Y-82779762D01*
X169000952Y-82732143D01*
X168953333Y-82636905D01*
X168953333Y-82398809D01*
X169000952Y-82303571D01*
X169048571Y-82255952D01*
X169143810Y-82208333D01*
X169381905Y-82208333D01*
X169477143Y-82255952D01*
X169524762Y-82303571D01*
X169572381Y-82398809D01*
X169572381Y-82636905D01*
X169524762Y-82732143D01*
X169477143Y-82779762D01*
X121386667Y-96802381D02*
X121386667Y-97516667D01*
X121339047Y-97659524D01*
X121243809Y-97754762D01*
X121100952Y-97802381D01*
X121005714Y-97802381D01*
X122005714Y-97230952D02*
X121910476Y-97183333D01*
X121862857Y-97135714D01*
X121815238Y-97040476D01*
X121815238Y-96992857D01*
X121862857Y-96897619D01*
X121910476Y-96850000D01*
X122005714Y-96802381D01*
X122196191Y-96802381D01*
X122291429Y-96850000D01*
X122339048Y-96897619D01*
X122386667Y-96992857D01*
X122386667Y-97040476D01*
X122339048Y-97135714D01*
X122291429Y-97183333D01*
X122196191Y-97230952D01*
X122005714Y-97230952D01*
X121910476Y-97278571D01*
X121862857Y-97326190D01*
X121815238Y-97421429D01*
X121815238Y-97611905D01*
X121862857Y-97707143D01*
X121910476Y-97754762D01*
X122005714Y-97802381D01*
X122196191Y-97802381D01*
X122291429Y-97754762D01*
X122339048Y-97707143D01*
X122386667Y-97611905D01*
X122386667Y-97421429D01*
X122339048Y-97326190D01*
X122291429Y-97278571D01*
X122196191Y-97230952D01*
X152886667Y-97602381D02*
X152886667Y-98316667D01*
X152839047Y-98459524D01*
X152743809Y-98554762D01*
X152600952Y-98602381D01*
X152505714Y-98602381D01*
X153410476Y-98602381D02*
X153600952Y-98602381D01*
X153696191Y-98554762D01*
X153743810Y-98507143D01*
X153839048Y-98364286D01*
X153886667Y-98173810D01*
X153886667Y-97792857D01*
X153839048Y-97697619D01*
X153791429Y-97650000D01*
X153696191Y-97602381D01*
X153505714Y-97602381D01*
X153410476Y-97650000D01*
X153362857Y-97697619D01*
X153315238Y-97792857D01*
X153315238Y-98030952D01*
X153362857Y-98126190D01*
X153410476Y-98173810D01*
X153505714Y-98221429D01*
X153696191Y-98221429D01*
X153791429Y-98173810D01*
X153839048Y-98126190D01*
X153886667Y-98030952D01*
X153771612Y-63410738D02*
X153447333Y-64047171D01*
X153340047Y-64152839D01*
X153211953Y-64194459D01*
X153063048Y-64172033D01*
X152978190Y-64128795D01*
X154577761Y-63821491D02*
X154408045Y-63735016D01*
X154301568Y-63734208D01*
X154237521Y-63755018D01*
X154087807Y-63839068D01*
X153958904Y-63987165D01*
X153785955Y-64326596D01*
X153785147Y-64433072D01*
X153805957Y-64497120D01*
X153869196Y-64582786D01*
X154038913Y-64669261D01*
X154145389Y-64670069D01*
X154209436Y-64649259D01*
X154295102Y-64586020D01*
X154403195Y-64373875D01*
X154404004Y-64267398D01*
X154383194Y-64203351D01*
X154319955Y-64117685D01*
X154150238Y-64031210D01*
X154043762Y-64030402D01*
X153979715Y-64051212D01*
X153894048Y-64114452D01*
X117349384Y-66688398D02*
X117673663Y-67324831D01*
X117696089Y-67473737D01*
X117654469Y-67601832D01*
X117548801Y-67709116D01*
X117463943Y-67752353D01*
X117688815Y-66515449D02*
X118282820Y-66212789D01*
X118354950Y-67298363D01*
X113774762Y-87402381D02*
X113441428Y-86926190D01*
X113203333Y-87402381D02*
X113203333Y-86402381D01*
X113584286Y-86402381D01*
X113679524Y-86450000D01*
X113727143Y-86497619D01*
X113774762Y-86592857D01*
X113774762Y-86735714D01*
X113727143Y-86830952D01*
X113679524Y-86878571D01*
X113584286Y-86926190D01*
X113203333Y-86926190D01*
X114060476Y-86402381D02*
X114393809Y-87402381D01*
X114727143Y-86402381D01*
X115584286Y-87402381D02*
X115012857Y-87402381D01*
X115298571Y-87402381D02*
X115298571Y-86402381D01*
X115203333Y-86545238D01*
X115108095Y-86640476D01*
X115012857Y-86688095D01*
M02*
