G04 #@! TF.FileFunction,Soldermask,Top*
%FSLAX46Y46*%
G04 Gerber Fmt 4.6, Leading zero omitted, Abs format (unit mm)*
G04 Created by KiCad (PCBNEW 4.0.4-stable) date 07/06/18 22:39:36*
%MOMM*%
%LPD*%
G01*
G04 APERTURE LIST*
%ADD10C,0.100000*%
%ADD11C,0.010000*%
%ADD12O,3.000000X1.500000*%
%ADD13R,1.700000X1.700000*%
%ADD14O,1.700000X1.700000*%
%ADD15R,1.700000X0.900000*%
%ADD16R,1.500000X1.900000*%
%ADD17C,1.450000*%
%ADD18R,0.400000X1.350000*%
%ADD19O,1.200000X1.900000*%
%ADD20R,1.200000X1.900000*%
%ADD21R,1.300000X1.550000*%
%ADD22C,0.900000*%
%ADD23R,0.700000X1.500000*%
%ADD24R,1.000000X0.800000*%
%ADD25O,1.500000X3.000000*%
%ADD26O,3.000000X1.600000*%
%ADD27O,1.600000X3.000000*%
%ADD28C,1.650000*%
G04 APERTURE END LIST*
D10*
D11*
G36*
X116263940Y-92684191D02*
X116291191Y-92724166D01*
X116325979Y-92792773D01*
X116331729Y-92805228D01*
X116392956Y-92939137D01*
X116151564Y-93198480D01*
X115987308Y-93380245D01*
X115844947Y-93549962D01*
X115720173Y-93713583D01*
X115608678Y-93877060D01*
X115506154Y-94046345D01*
X115411694Y-94220776D01*
X115311562Y-94428545D01*
X115218446Y-94647827D01*
X115134998Y-94871110D01*
X115063870Y-95090880D01*
X115007714Y-95299624D01*
X114974118Y-95460576D01*
X114955491Y-95572531D01*
X114936262Y-95698516D01*
X114917740Y-95829044D01*
X114901234Y-95954630D01*
X114888051Y-96065786D01*
X114880941Y-96136108D01*
X114877045Y-96200435D01*
X114874314Y-96288649D01*
X114872702Y-96394438D01*
X114872163Y-96511490D01*
X114872651Y-96633496D01*
X114874119Y-96754142D01*
X114876521Y-96867119D01*
X114879811Y-96966115D01*
X114883943Y-97044818D01*
X114887928Y-97089800D01*
X114896969Y-97158574D01*
X114908830Y-97240991D01*
X114922397Y-97330128D01*
X114936554Y-97419064D01*
X114950187Y-97500877D01*
X114962183Y-97568644D01*
X114971425Y-97615445D01*
X114974765Y-97629167D01*
X114980562Y-97671498D01*
X114966292Y-97700276D01*
X114964871Y-97701733D01*
X114939026Y-97720528D01*
X114909094Y-97722306D01*
X114864398Y-97707234D01*
X114855562Y-97703444D01*
X114787435Y-97657836D01*
X114723438Y-97583708D01*
X114665665Y-97484269D01*
X114616208Y-97362723D01*
X114600300Y-97312328D01*
X114565344Y-97193117D01*
X114400651Y-97197737D01*
X114327136Y-97200303D01*
X114261891Y-97203490D01*
X114213828Y-97206816D01*
X114196220Y-97208792D01*
X114166138Y-97211805D01*
X114111403Y-97215577D01*
X114039131Y-97219677D01*
X113956437Y-97223674D01*
X113933955Y-97224650D01*
X113845453Y-97228782D01*
X113761378Y-97233391D01*
X113690330Y-97237963D01*
X113640906Y-97241979D01*
X113634983Y-97242602D01*
X113558538Y-97251130D01*
X113567443Y-97198281D01*
X113574969Y-97152754D01*
X113584837Y-97091968D01*
X113591561Y-97050063D01*
X113618991Y-96888344D01*
X113647558Y-96738842D01*
X113676397Y-96605230D01*
X113704645Y-96491185D01*
X113731437Y-96400383D01*
X113755911Y-96336498D01*
X113762128Y-96324123D01*
X113800766Y-96267004D01*
X113849897Y-96226547D01*
X113883848Y-96207858D01*
X113931800Y-96185745D01*
X113970122Y-96171233D01*
X113985289Y-96167898D01*
X114023060Y-96158273D01*
X114074805Y-96133289D01*
X114130803Y-96098777D01*
X114181335Y-96060570D01*
X114209475Y-96033370D01*
X114253137Y-95978289D01*
X114287555Y-95920654D01*
X114314417Y-95854979D01*
X114335411Y-95775776D01*
X114352223Y-95677560D01*
X114366542Y-95554844D01*
X114370987Y-95508261D01*
X114405850Y-95215538D01*
X114455586Y-94946741D01*
X114522117Y-94696763D01*
X114607365Y-94460498D01*
X114713253Y-94232838D01*
X114841701Y-94008677D01*
X114994634Y-93782909D01*
X115047054Y-93712141D01*
X115220299Y-93497845D01*
X115402096Y-93304553D01*
X115602690Y-93121524D01*
X115641397Y-93088995D01*
X115723166Y-93022914D01*
X115810988Y-92955119D01*
X115900724Y-92888484D01*
X115988234Y-92825884D01*
X116069377Y-92770192D01*
X116140016Y-92724284D01*
X116196009Y-92691034D01*
X116233218Y-92673317D01*
X116243120Y-92671173D01*
X116263940Y-92684191D01*
X116263940Y-92684191D01*
G37*
X116263940Y-92684191D02*
X116291191Y-92724166D01*
X116325979Y-92792773D01*
X116331729Y-92805228D01*
X116392956Y-92939137D01*
X116151564Y-93198480D01*
X115987308Y-93380245D01*
X115844947Y-93549962D01*
X115720173Y-93713583D01*
X115608678Y-93877060D01*
X115506154Y-94046345D01*
X115411694Y-94220776D01*
X115311562Y-94428545D01*
X115218446Y-94647827D01*
X115134998Y-94871110D01*
X115063870Y-95090880D01*
X115007714Y-95299624D01*
X114974118Y-95460576D01*
X114955491Y-95572531D01*
X114936262Y-95698516D01*
X114917740Y-95829044D01*
X114901234Y-95954630D01*
X114888051Y-96065786D01*
X114880941Y-96136108D01*
X114877045Y-96200435D01*
X114874314Y-96288649D01*
X114872702Y-96394438D01*
X114872163Y-96511490D01*
X114872651Y-96633496D01*
X114874119Y-96754142D01*
X114876521Y-96867119D01*
X114879811Y-96966115D01*
X114883943Y-97044818D01*
X114887928Y-97089800D01*
X114896969Y-97158574D01*
X114908830Y-97240991D01*
X114922397Y-97330128D01*
X114936554Y-97419064D01*
X114950187Y-97500877D01*
X114962183Y-97568644D01*
X114971425Y-97615445D01*
X114974765Y-97629167D01*
X114980562Y-97671498D01*
X114966292Y-97700276D01*
X114964871Y-97701733D01*
X114939026Y-97720528D01*
X114909094Y-97722306D01*
X114864398Y-97707234D01*
X114855562Y-97703444D01*
X114787435Y-97657836D01*
X114723438Y-97583708D01*
X114665665Y-97484269D01*
X114616208Y-97362723D01*
X114600300Y-97312328D01*
X114565344Y-97193117D01*
X114400651Y-97197737D01*
X114327136Y-97200303D01*
X114261891Y-97203490D01*
X114213828Y-97206816D01*
X114196220Y-97208792D01*
X114166138Y-97211805D01*
X114111403Y-97215577D01*
X114039131Y-97219677D01*
X113956437Y-97223674D01*
X113933955Y-97224650D01*
X113845453Y-97228782D01*
X113761378Y-97233391D01*
X113690330Y-97237963D01*
X113640906Y-97241979D01*
X113634983Y-97242602D01*
X113558538Y-97251130D01*
X113567443Y-97198281D01*
X113574969Y-97152754D01*
X113584837Y-97091968D01*
X113591561Y-97050063D01*
X113618991Y-96888344D01*
X113647558Y-96738842D01*
X113676397Y-96605230D01*
X113704645Y-96491185D01*
X113731437Y-96400383D01*
X113755911Y-96336498D01*
X113762128Y-96324123D01*
X113800766Y-96267004D01*
X113849897Y-96226547D01*
X113883848Y-96207858D01*
X113931800Y-96185745D01*
X113970122Y-96171233D01*
X113985289Y-96167898D01*
X114023060Y-96158273D01*
X114074805Y-96133289D01*
X114130803Y-96098777D01*
X114181335Y-96060570D01*
X114209475Y-96033370D01*
X114253137Y-95978289D01*
X114287555Y-95920654D01*
X114314417Y-95854979D01*
X114335411Y-95775776D01*
X114352223Y-95677560D01*
X114366542Y-95554844D01*
X114370987Y-95508261D01*
X114405850Y-95215538D01*
X114455586Y-94946741D01*
X114522117Y-94696763D01*
X114607365Y-94460498D01*
X114713253Y-94232838D01*
X114841701Y-94008677D01*
X114994634Y-93782909D01*
X115047054Y-93712141D01*
X115220299Y-93497845D01*
X115402096Y-93304553D01*
X115602690Y-93121524D01*
X115641397Y-93088995D01*
X115723166Y-93022914D01*
X115810988Y-92955119D01*
X115900724Y-92888484D01*
X115988234Y-92825884D01*
X116069377Y-92770192D01*
X116140016Y-92724284D01*
X116196009Y-92691034D01*
X116233218Y-92673317D01*
X116243120Y-92671173D01*
X116263940Y-92684191D01*
D12*
X128820000Y-72566000D03*
X128820000Y-70566000D03*
X128820000Y-68566000D03*
X146820000Y-68566000D03*
X146820000Y-70566000D03*
X146820000Y-72566000D03*
D13*
X145360000Y-65350000D03*
D14*
X142820000Y-65350000D03*
X140280000Y-65350000D03*
X137740000Y-65350000D03*
X135200000Y-65350000D03*
X132660000Y-65350000D03*
X130120000Y-65350000D03*
D15*
X150220000Y-73500000D03*
X150220000Y-70600000D03*
D16*
X137120000Y-59350000D03*
D17*
X140620000Y-62050000D03*
D18*
X138770000Y-62050000D03*
X139420000Y-62050000D03*
X136820000Y-62050000D03*
X137470000Y-62050000D03*
X138120000Y-62050000D03*
D17*
X135620000Y-62050000D03*
D16*
X139120000Y-59350000D03*
D19*
X141620000Y-59350000D03*
X134620000Y-59350000D03*
D20*
X135220000Y-59350000D03*
X141020000Y-59350000D03*
D21*
X164120000Y-97325000D03*
X159620000Y-97325000D03*
X159620000Y-89375000D03*
X164120000Y-89375000D03*
X155870000Y-86825000D03*
X151370000Y-86825000D03*
X151370000Y-78875000D03*
X155870000Y-78875000D03*
X164120000Y-76325000D03*
X159620000Y-76325000D03*
X159620000Y-68375000D03*
X164120000Y-68375000D03*
X172370000Y-86825000D03*
X167870000Y-86825000D03*
X167870000Y-78875000D03*
X172370000Y-78875000D03*
D22*
X121170000Y-98510000D03*
X124170000Y-98510000D03*
D23*
X120420000Y-96750000D03*
X123420000Y-96750000D03*
X124920000Y-96750000D03*
D24*
X119020000Y-99610000D03*
X126320000Y-99610000D03*
X126320000Y-97400000D03*
X119020000Y-97400000D03*
D22*
X152020000Y-98750000D03*
X155020000Y-98750000D03*
D23*
X151270000Y-96990000D03*
X154270000Y-96990000D03*
X155770000Y-96990000D03*
D24*
X149870000Y-99850000D03*
X157170000Y-99850000D03*
X157170000Y-97640000D03*
X149870000Y-97640000D03*
D10*
G36*
X155046519Y-65734589D02*
X155772904Y-64308978D01*
X157554917Y-65216959D01*
X156828532Y-66642570D01*
X155046519Y-65734589D01*
X155046519Y-65734589D01*
G37*
G36*
X150235083Y-63283041D02*
X150961468Y-61857430D01*
X152743481Y-62765411D01*
X152017096Y-64191022D01*
X150235083Y-63283041D01*
X150235083Y-63283041D01*
G37*
G36*
X124147904Y-64366022D02*
X123421519Y-62940411D01*
X125203532Y-62032430D01*
X125929917Y-63458041D01*
X124147904Y-64366022D01*
X124147904Y-64366022D01*
G37*
G36*
X119336468Y-66817570D02*
X118610083Y-65391959D01*
X120392096Y-64483978D01*
X121118481Y-65909589D01*
X119336468Y-66817570D01*
X119336468Y-66817570D01*
G37*
D12*
X129120000Y-88350000D03*
X129120000Y-86350000D03*
X129120000Y-84350000D03*
X129120000Y-82350000D03*
X129120000Y-94350000D03*
X129120000Y-90350000D03*
X129120000Y-96350000D03*
X129120000Y-92350000D03*
X129120000Y-80350000D03*
X129120000Y-78350000D03*
D25*
X133120000Y-98350000D03*
X135120000Y-98350000D03*
X137120000Y-98350000D03*
X139120000Y-98350000D03*
X141120000Y-98350000D03*
X143120000Y-98350000D03*
D12*
X147120000Y-84350000D03*
X147120000Y-82350000D03*
X147120000Y-86350000D03*
X147120000Y-88350000D03*
X147120000Y-80350000D03*
X147120000Y-78350000D03*
X147120000Y-94350000D03*
X147120000Y-96350000D03*
X147120000Y-90350000D03*
X147120000Y-92350000D03*
D25*
X136120000Y-76350000D03*
X140120000Y-76350000D03*
X134120000Y-76350000D03*
X138120000Y-76350000D03*
X142120000Y-76350000D03*
D26*
X123370000Y-82850000D03*
X123370000Y-84850000D03*
X123370000Y-80850000D03*
D27*
X116370000Y-73850000D03*
X114370000Y-73850000D03*
X112370000Y-73850000D03*
D28*
X120370000Y-88850000D03*
X108370000Y-76850000D03*
M02*
