G04 #@! TF.FileFunction,Soldermask,Bot*
%FSLAX46Y46*%
G04 Gerber Fmt 4.6, Leading zero omitted, Abs format (unit mm)*
G04 Created by KiCad (PCBNEW 4.0.4-stable) date 07/06/18 22:39:36*
%MOMM*%
%LPD*%
G01*
G04 APERTURE LIST*
%ADD10C,0.100000*%
%ADD11C,0.010000*%
%ADD12R,1.700000X1.700000*%
%ADD13O,1.700000X1.700000*%
%ADD14R,1.000000X5.500000*%
%ADD15R,1.600000X3.000000*%
%ADD16C,1.450000*%
%ADD17O,1.200000X1.900000*%
%ADD18C,0.900000*%
%ADD19O,3.000000X1.600000*%
%ADD20O,1.600000X3.000000*%
%ADD21C,1.650000*%
G04 APERTURE END LIST*
D10*
D11*
G36*
X111654219Y-65855526D02*
X111601566Y-65884793D01*
X111560568Y-65908469D01*
X111528763Y-65928221D01*
X111503688Y-65945719D01*
X111482880Y-65962630D01*
X111463877Y-65980624D01*
X111453113Y-65991787D01*
X111437752Y-66010174D01*
X111421396Y-66032913D01*
X111406446Y-66056174D01*
X111395299Y-66076130D01*
X111390357Y-66088952D01*
X111390740Y-66091322D01*
X111398785Y-66090370D01*
X111418791Y-66086152D01*
X111447362Y-66079416D01*
X111468373Y-66074182D01*
X111561748Y-66053474D01*
X111666266Y-66035641D01*
X111777339Y-66021399D01*
X111853667Y-66014178D01*
X111913824Y-66010695D01*
X111986129Y-66008745D01*
X112066936Y-66008258D01*
X112152600Y-66009160D01*
X112239476Y-66011381D01*
X112323918Y-66014848D01*
X112402280Y-66019490D01*
X112470918Y-66025236D01*
X112483688Y-66026569D01*
X112734256Y-66059933D01*
X112993338Y-66106462D01*
X113260665Y-66166095D01*
X113535970Y-66238771D01*
X113818986Y-66324429D01*
X113870309Y-66341084D01*
X113937804Y-66363512D01*
X114007436Y-66387205D01*
X114077597Y-66411567D01*
X114146677Y-66436004D01*
X114213065Y-66459921D01*
X114275154Y-66482721D01*
X114331332Y-66503810D01*
X114379991Y-66522593D01*
X114419521Y-66538474D01*
X114448312Y-66550859D01*
X114464755Y-66559152D01*
X114468063Y-66562127D01*
X114465245Y-66564310D01*
X114456302Y-66568303D01*
X114440499Y-66574348D01*
X114417104Y-66582685D01*
X114385381Y-66593557D01*
X114344596Y-66607205D01*
X114294016Y-66623870D01*
X114232906Y-66643794D01*
X114160533Y-66667218D01*
X114076162Y-66694383D01*
X113979060Y-66725532D01*
X113868491Y-66760905D01*
X113743723Y-66800743D01*
X113706063Y-66812757D01*
X113550658Y-66862465D01*
X113409158Y-66908047D01*
X113280265Y-66949948D01*
X113162682Y-66988618D01*
X113055113Y-67024503D01*
X112956259Y-67058050D01*
X112864823Y-67089707D01*
X112779510Y-67119922D01*
X112699020Y-67149142D01*
X112622058Y-67177814D01*
X112547326Y-67206386D01*
X112473526Y-67235305D01*
X112426022Y-67254267D01*
X112203146Y-67347607D01*
X111995270Y-67442599D01*
X111801560Y-67539766D01*
X111621181Y-67639632D01*
X111453299Y-67742719D01*
X111297079Y-67849551D01*
X111151686Y-67960651D01*
X111016285Y-68076543D01*
X110890043Y-68197749D01*
X110842977Y-68246716D01*
X110813166Y-68278822D01*
X110784738Y-68310116D01*
X110760851Y-68337082D01*
X110744662Y-68356203D01*
X110744280Y-68356679D01*
X110717594Y-68390014D01*
X110654094Y-68385951D01*
X110621942Y-68382287D01*
X110579733Y-68375198D01*
X110532661Y-68365661D01*
X110485922Y-68354656D01*
X110480306Y-68353211D01*
X110420353Y-68338753D01*
X110362929Y-68327014D01*
X110310694Y-68318387D01*
X110266308Y-68313268D01*
X110232431Y-68312050D01*
X110215318Y-68313983D01*
X110196047Y-68318820D01*
X110201167Y-68240363D01*
X110209381Y-68133435D01*
X110220006Y-68030586D01*
X110233583Y-67928284D01*
X110250656Y-67822994D01*
X110271765Y-67711184D01*
X110297452Y-67589318D01*
X110308721Y-67538775D01*
X110332308Y-67433941D01*
X110352518Y-67343172D01*
X110369645Y-67265089D01*
X110383984Y-67198311D01*
X110395828Y-67141459D01*
X110405471Y-67093153D01*
X110413208Y-67052014D01*
X110416713Y-67032199D01*
X110423373Y-66993789D01*
X110426164Y-66967839D01*
X110422976Y-66951031D01*
X110411696Y-66940046D01*
X110390213Y-66931566D01*
X110356414Y-66922275D01*
X110344765Y-66919159D01*
X110269737Y-66905390D01*
X110199770Y-66905656D01*
X110135800Y-66919791D01*
X110078766Y-66947628D01*
X110046542Y-66972371D01*
X110012991Y-67006775D01*
X109982568Y-67047339D01*
X109955021Y-67095008D01*
X109930100Y-67150729D01*
X109907554Y-67215448D01*
X109887132Y-67290111D01*
X109868582Y-67375664D01*
X109851655Y-67473054D01*
X109836099Y-67583225D01*
X109821663Y-67707124D01*
X109808096Y-67845698D01*
X109804693Y-67884093D01*
X109799141Y-67947048D01*
X109793650Y-68007611D01*
X109788465Y-68063203D01*
X109783832Y-68111246D01*
X109779996Y-68149162D01*
X109777201Y-68174374D01*
X109776774Y-68177781D01*
X109773097Y-68207875D01*
X109770414Y-68233246D01*
X109769308Y-68248332D01*
X109768429Y-68253801D01*
X109764510Y-68257626D01*
X109755319Y-68259982D01*
X109738626Y-68261042D01*
X109712196Y-68260980D01*
X109673798Y-68259969D01*
X109636110Y-68258705D01*
X109508769Y-68250278D01*
X109383767Y-68234409D01*
X109376157Y-68233173D01*
X109290521Y-68220972D01*
X109205467Y-68213055D01*
X109113164Y-68208706D01*
X109106282Y-68208518D01*
X108963407Y-68204780D01*
X108964005Y-68135718D01*
X108964772Y-68110228D01*
X108966908Y-68084423D01*
X108970841Y-68056543D01*
X108976999Y-68024825D01*
X108985808Y-67987509D01*
X108997697Y-67942835D01*
X109013093Y-67889042D01*
X109032423Y-67824368D01*
X109056115Y-67747053D01*
X109066523Y-67713437D01*
X109101110Y-67599415D01*
X109129852Y-67499034D01*
X109153005Y-67411281D01*
X109170828Y-67335141D01*
X109183578Y-67269602D01*
X109189585Y-67229787D01*
X109195325Y-67152287D01*
X109190968Y-67086633D01*
X109176565Y-67032946D01*
X109152163Y-66991346D01*
X109117813Y-66961953D01*
X109073564Y-66944888D01*
X109072504Y-66944657D01*
X109024448Y-66940721D01*
X108978784Y-66950377D01*
X108935025Y-66974029D01*
X108892686Y-67012080D01*
X108851282Y-67064937D01*
X108810326Y-67133002D01*
X108784164Y-67184650D01*
X108753450Y-67254357D01*
X108723799Y-67332979D01*
X108694849Y-67421751D01*
X108666238Y-67521910D01*
X108637604Y-67634693D01*
X108608584Y-67761335D01*
X108590663Y-67845321D01*
X108579258Y-67900001D01*
X108568101Y-67953319D01*
X108557890Y-68001965D01*
X108549319Y-68042626D01*
X108543084Y-68071991D01*
X108541841Y-68077787D01*
X108529192Y-68136542D01*
X108388038Y-68131243D01*
X108307542Y-68127433D01*
X108227954Y-68121945D01*
X108147434Y-68114512D01*
X108064140Y-68104861D01*
X107976233Y-68092725D01*
X107881871Y-68077832D01*
X107779215Y-68059913D01*
X107666422Y-68038699D01*
X107541654Y-68013918D01*
X107427500Y-67990411D01*
X107294986Y-67963216D01*
X107176549Y-67939855D01*
X107072416Y-67920368D01*
X106982817Y-67904794D01*
X106907981Y-67893176D01*
X106848137Y-67885552D01*
X106821474Y-67883060D01*
X106754988Y-67877950D01*
X106749911Y-67905010D01*
X106749717Y-67938086D01*
X106759083Y-67982229D01*
X106777688Y-68036082D01*
X106785373Y-68054750D01*
X106795516Y-68078392D01*
X106802919Y-68095326D01*
X106805615Y-68101157D01*
X106814046Y-68103360D01*
X106836942Y-68107296D01*
X106873005Y-68112800D01*
X106920938Y-68119705D01*
X106979446Y-68127845D01*
X107047231Y-68137054D01*
X107122997Y-68147166D01*
X107205447Y-68158013D01*
X107293284Y-68169429D01*
X107385212Y-68181249D01*
X107479934Y-68193305D01*
X107576154Y-68205432D01*
X107672574Y-68217463D01*
X107767898Y-68229232D01*
X107860829Y-68240571D01*
X107950071Y-68251316D01*
X108034326Y-68261300D01*
X108112299Y-68270355D01*
X108182693Y-68278317D01*
X108209250Y-68281247D01*
X108271870Y-68288154D01*
X108329256Y-68294597D01*
X108379555Y-68300359D01*
X108420909Y-68305222D01*
X108451464Y-68308969D01*
X108469365Y-68311383D01*
X108473365Y-68312156D01*
X108471691Y-68320025D01*
X108465673Y-68340567D01*
X108456051Y-68371416D01*
X108443562Y-68410206D01*
X108428946Y-68454571D01*
X108428321Y-68456448D01*
X108408741Y-68516689D01*
X108389940Y-68577807D01*
X108371429Y-68641691D01*
X108352715Y-68710229D01*
X108333309Y-68785308D01*
X108312719Y-68868817D01*
X108290456Y-68962644D01*
X108266027Y-69068678D01*
X108244950Y-69161982D01*
X108224302Y-69253792D01*
X108206536Y-69332156D01*
X108191149Y-69399137D01*
X108177636Y-69456800D01*
X108165493Y-69507208D01*
X108154214Y-69552424D01*
X108143297Y-69594511D01*
X108132235Y-69635534D01*
X108120524Y-69677555D01*
X108109094Y-69717656D01*
X108089301Y-69784288D01*
X108071293Y-69839184D01*
X108053550Y-69886136D01*
X108034558Y-69928935D01*
X108012800Y-69971375D01*
X107994819Y-70003406D01*
X107960818Y-70063616D01*
X107934595Y-70113218D01*
X107914971Y-70154710D01*
X107900764Y-70190589D01*
X107890795Y-70223352D01*
X107890692Y-70223750D01*
X107883300Y-70266826D01*
X107882159Y-70310256D01*
X107886697Y-70350751D01*
X107896337Y-70385025D01*
X107910508Y-70409791D01*
X107925085Y-70420691D01*
X107956966Y-70426817D01*
X107997268Y-70425740D01*
X108040399Y-70417714D01*
X108049680Y-70415051D01*
X108086041Y-70397260D01*
X108123592Y-70367248D01*
X108159202Y-70328070D01*
X108189742Y-70282783D01*
X108195004Y-70273188D01*
X108207823Y-70246949D01*
X108224197Y-70210643D01*
X108242033Y-70169038D01*
X108259237Y-70126905D01*
X108259460Y-70126344D01*
X108276614Y-70083617D01*
X108297830Y-70031599D01*
X108320927Y-69975596D01*
X108343722Y-69920914D01*
X108354405Y-69895534D01*
X108394632Y-69797662D01*
X108438620Y-69685500D01*
X108486456Y-69558819D01*
X108538223Y-69417394D01*
X108594006Y-69260997D01*
X108626534Y-69168217D01*
X108670225Y-69042977D01*
X108709061Y-68931832D01*
X108743367Y-68833867D01*
X108773462Y-68748170D01*
X108799670Y-68673827D01*
X108822313Y-68609925D01*
X108841713Y-68555550D01*
X108858192Y-68509789D01*
X108872073Y-68471730D01*
X108875093Y-68463531D01*
X108910263Y-68368281D01*
X108948741Y-68369618D01*
X108967716Y-68370934D01*
X109000272Y-68373921D01*
X109044229Y-68378334D01*
X109097411Y-68383924D01*
X109157638Y-68390445D01*
X109222733Y-68397650D01*
X109290516Y-68405293D01*
X109358811Y-68413127D01*
X109425438Y-68420904D01*
X109488219Y-68428378D01*
X109544977Y-68435302D01*
X109593532Y-68441429D01*
X109631707Y-68446513D01*
X109648016Y-68448854D01*
X109737313Y-68462223D01*
X109737313Y-68507342D01*
X109735934Y-68530121D01*
X109732114Y-68564904D01*
X109726328Y-68608092D01*
X109719049Y-68656086D01*
X109712644Y-68694528D01*
X109700847Y-68767899D01*
X109692867Y-68831684D01*
X109688115Y-68891545D01*
X109686048Y-68950218D01*
X109684880Y-68997827D01*
X109683073Y-69031923D01*
X109680362Y-69054867D01*
X109676485Y-69069015D01*
X109672018Y-69075946D01*
X109661157Y-69084737D01*
X109639930Y-69100295D01*
X109611183Y-69120587D01*
X109577761Y-69143580D01*
X109569958Y-69148870D01*
X109522033Y-69182983D01*
X109486401Y-69212992D01*
X109460962Y-69241497D01*
X109443618Y-69271094D01*
X109432270Y-69304383D01*
X109427907Y-69324750D01*
X109423228Y-69382621D01*
X109431870Y-69431885D01*
X109453829Y-69472523D01*
X109463498Y-69483529D01*
X109494728Y-69511242D01*
X109527765Y-69530655D01*
X109566103Y-69542929D01*
X109613233Y-69549223D01*
X109665875Y-69550734D01*
X109713182Y-69549622D01*
X109756515Y-69546066D01*
X109799669Y-69539343D01*
X109846437Y-69528735D01*
X109900611Y-69513519D01*
X109960460Y-69494766D01*
X110045697Y-69467210D01*
X110057675Y-69413839D01*
X110074859Y-69331270D01*
X110092128Y-69237085D01*
X110108788Y-69135523D01*
X110124144Y-69030824D01*
X110137503Y-68927227D01*
X110137898Y-68923906D01*
X110141812Y-68889360D01*
X110146378Y-68846570D01*
X110151321Y-68798375D01*
X110156370Y-68747613D01*
X110161252Y-68697123D01*
X110165695Y-68649744D01*
X110169424Y-68608316D01*
X110172169Y-68575676D01*
X110173656Y-68554664D01*
X110173843Y-68549644D01*
X110179531Y-68546077D01*
X110197399Y-68547018D01*
X110228714Y-68552576D01*
X110242616Y-68555530D01*
X110266440Y-68561064D01*
X110299680Y-68569234D01*
X110339662Y-68579336D01*
X110383710Y-68590665D01*
X110429150Y-68602518D01*
X110473304Y-68614192D01*
X110513500Y-68624982D01*
X110547060Y-68634184D01*
X110571311Y-68641096D01*
X110583576Y-68645012D01*
X110584490Y-68645468D01*
X110582503Y-68652992D01*
X110575600Y-68671523D01*
X110565135Y-68697485D01*
X110561741Y-68705621D01*
X110530035Y-68801114D01*
X110511958Y-68903208D01*
X110507515Y-69010350D01*
X110516713Y-69120991D01*
X110539556Y-69233581D01*
X110559593Y-69300767D01*
X110610360Y-69428675D01*
X110675126Y-69552186D01*
X110752448Y-69669404D01*
X110840881Y-69778434D01*
X110938980Y-69877381D01*
X111045301Y-69964350D01*
X111088371Y-69994405D01*
X111227744Y-70077618D01*
X111375873Y-70147645D01*
X111532645Y-70204467D01*
X111697948Y-70248063D01*
X111871671Y-70278415D01*
X112053700Y-70295503D01*
X112243923Y-70299309D01*
X112442229Y-70289812D01*
X112648504Y-70266993D01*
X112662282Y-70265035D01*
X112834311Y-70236165D01*
X112991677Y-70201234D01*
X113134392Y-70160239D01*
X113262465Y-70113176D01*
X113331426Y-70082437D01*
X113408743Y-70043437D01*
X113473876Y-70005978D01*
X113530092Y-69967947D01*
X113580655Y-69927229D01*
X113604027Y-69905968D01*
X113649843Y-69858586D01*
X113683174Y-69813788D01*
X113706235Y-69768174D01*
X113718311Y-69730659D01*
X113722644Y-69711921D01*
X113291886Y-69711921D01*
X113284915Y-69748101D01*
X113269125Y-69780992D01*
X113242731Y-69814585D01*
X113213171Y-69844277D01*
X113161325Y-69885554D01*
X113095581Y-69925469D01*
X113017904Y-69963359D01*
X112930255Y-69998560D01*
X112834599Y-70030411D01*
X112732897Y-70058249D01*
X112627112Y-70081410D01*
X112519208Y-70099232D01*
X112427044Y-70109710D01*
X112367515Y-70114426D01*
X112318152Y-70116767D01*
X112273422Y-70116743D01*
X112227797Y-70114365D01*
X112180920Y-70110172D01*
X112047828Y-70090317D01*
X111916400Y-70058392D01*
X111787901Y-70015285D01*
X111663594Y-69961884D01*
X111544745Y-69899077D01*
X111432618Y-69827752D01*
X111328478Y-69748796D01*
X111233588Y-69663097D01*
X111149215Y-69571543D01*
X111076622Y-69475021D01*
X111017073Y-69374420D01*
X110971834Y-69270628D01*
X110967540Y-69258332D01*
X110947340Y-69191745D01*
X110934584Y-69130148D01*
X110928108Y-69066372D01*
X110926671Y-69006359D01*
X110934679Y-68900091D01*
X110958332Y-68796459D01*
X110983546Y-68727000D01*
X110998281Y-68692134D01*
X111008716Y-68669732D01*
X111016793Y-68657663D01*
X111024452Y-68653795D01*
X111033632Y-68655994D01*
X111043729Y-68660865D01*
X111061876Y-68667884D01*
X111090475Y-68676714D01*
X111124457Y-68685834D01*
X111138282Y-68689191D01*
X111287710Y-68724357D01*
X111422774Y-68756303D01*
X111544583Y-68785348D01*
X111654250Y-68811811D01*
X111752885Y-68836011D01*
X111841598Y-68858267D01*
X111921502Y-68878896D01*
X111993706Y-68898219D01*
X112059321Y-68916554D01*
X112119459Y-68934219D01*
X112175230Y-68951534D01*
X112227745Y-68968816D01*
X112278115Y-68986386D01*
X112327451Y-69004562D01*
X112376865Y-69023663D01*
X112427465Y-69044006D01*
X112480365Y-69065912D01*
X112536674Y-69089699D01*
X112542325Y-69092104D01*
X112676148Y-69150976D01*
X112794977Y-69207306D01*
X112899428Y-69261447D01*
X112990117Y-69313754D01*
X113067659Y-69364580D01*
X113132668Y-69414278D01*
X113182188Y-69459560D01*
X113227738Y-69510286D01*
X113260027Y-69557901D01*
X113280524Y-69605205D01*
X113290701Y-69655001D01*
X113291823Y-69668463D01*
X113291886Y-69711921D01*
X113722644Y-69711921D01*
X113724651Y-69703244D01*
X113727102Y-69681394D01*
X113725689Y-69658610D01*
X113720433Y-69628395D01*
X113718701Y-69619798D01*
X113700349Y-69556298D01*
X113670771Y-69487038D01*
X113631787Y-69415307D01*
X113585214Y-69344394D01*
X113532871Y-69277587D01*
X113523549Y-69266896D01*
X113472127Y-69216085D01*
X113406873Y-69163478D01*
X113329562Y-69110173D01*
X113241970Y-69057267D01*
X113145875Y-69005858D01*
X113043052Y-68957043D01*
X112974418Y-68927621D01*
X112906926Y-68900793D01*
X112837242Y-68875011D01*
X112764160Y-68849959D01*
X112686479Y-68825321D01*
X112602992Y-68800781D01*
X112512497Y-68776022D01*
X112413789Y-68750726D01*
X112305664Y-68724579D01*
X112186917Y-68697263D01*
X112056346Y-68668462D01*
X111912745Y-68637859D01*
X111754910Y-68605138D01*
X111721688Y-68598344D01*
X111613225Y-68576036D01*
X111512235Y-68554919D01*
X111420017Y-68535277D01*
X111337867Y-68517392D01*
X111267084Y-68501549D01*
X111208965Y-68488030D01*
X111164808Y-68477119D01*
X111155791Y-68474750D01*
X111125675Y-68466699D01*
X111151760Y-68433365D01*
X111174497Y-68406426D01*
X111206692Y-68371196D01*
X111246003Y-68330002D01*
X111290091Y-68285175D01*
X111336614Y-68239043D01*
X111383231Y-68193937D01*
X111427603Y-68152184D01*
X111467387Y-68116116D01*
X111491500Y-68095289D01*
X111676268Y-67950124D01*
X111874228Y-67813567D01*
X112085158Y-67685737D01*
X112308835Y-67566754D01*
X112545038Y-67456739D01*
X112793542Y-67355809D01*
X113011532Y-67278171D01*
X113075388Y-67257075D01*
X113136217Y-67237628D01*
X113196272Y-67219202D01*
X113257808Y-67201169D01*
X113323079Y-67182903D01*
X113394339Y-67163773D01*
X113473842Y-67143154D01*
X113563842Y-67120416D01*
X113666594Y-67094932D01*
X113690188Y-67089127D01*
X113799196Y-67062177D01*
X113895025Y-67038095D01*
X113979983Y-67016244D01*
X114056373Y-66995988D01*
X114126502Y-66976690D01*
X114192675Y-66957715D01*
X114257197Y-66938425D01*
X114322375Y-66918184D01*
X114390513Y-66896357D01*
X114401534Y-66892775D01*
X114455972Y-66875244D01*
X114511929Y-66857553D01*
X114565238Y-66840997D01*
X114611730Y-66826871D01*
X114646657Y-66816634D01*
X114743895Y-66787898D01*
X114826517Y-66760808D01*
X114895618Y-66734739D01*
X114952292Y-66709063D01*
X114997635Y-66683155D01*
X115032741Y-66656389D01*
X115058706Y-66628138D01*
X115076625Y-66597776D01*
X115087592Y-66564678D01*
X115087634Y-66564490D01*
X115090707Y-66524166D01*
X115079558Y-66489592D01*
X115059525Y-66463928D01*
X115029796Y-66440204D01*
X114986073Y-66413915D01*
X114929903Y-66385736D01*
X114862833Y-66356343D01*
X114786409Y-66326410D01*
X114702179Y-66296615D01*
X114611688Y-66267631D01*
X114606166Y-66265955D01*
X114548381Y-66248922D01*
X114477374Y-66228741D01*
X114395355Y-66205987D01*
X114304535Y-66181237D01*
X114207123Y-66155069D01*
X114105329Y-66128060D01*
X114001363Y-66100785D01*
X113897435Y-66073823D01*
X113795755Y-66047751D01*
X113698532Y-66023144D01*
X113607978Y-66000580D01*
X113526301Y-65980637D01*
X113455711Y-65963890D01*
X113404438Y-65952237D01*
X113183791Y-65906443D01*
X112973335Y-65868832D01*
X112769883Y-65839033D01*
X112570252Y-65816679D01*
X112371255Y-65801401D01*
X112169708Y-65792831D01*
X112007438Y-65790562D01*
X111773282Y-65790034D01*
X111654219Y-65855526D01*
X111654219Y-65855526D01*
G37*
X111654219Y-65855526D02*
X111601566Y-65884793D01*
X111560568Y-65908469D01*
X111528763Y-65928221D01*
X111503688Y-65945719D01*
X111482880Y-65962630D01*
X111463877Y-65980624D01*
X111453113Y-65991787D01*
X111437752Y-66010174D01*
X111421396Y-66032913D01*
X111406446Y-66056174D01*
X111395299Y-66076130D01*
X111390357Y-66088952D01*
X111390740Y-66091322D01*
X111398785Y-66090370D01*
X111418791Y-66086152D01*
X111447362Y-66079416D01*
X111468373Y-66074182D01*
X111561748Y-66053474D01*
X111666266Y-66035641D01*
X111777339Y-66021399D01*
X111853667Y-66014178D01*
X111913824Y-66010695D01*
X111986129Y-66008745D01*
X112066936Y-66008258D01*
X112152600Y-66009160D01*
X112239476Y-66011381D01*
X112323918Y-66014848D01*
X112402280Y-66019490D01*
X112470918Y-66025236D01*
X112483688Y-66026569D01*
X112734256Y-66059933D01*
X112993338Y-66106462D01*
X113260665Y-66166095D01*
X113535970Y-66238771D01*
X113818986Y-66324429D01*
X113870309Y-66341084D01*
X113937804Y-66363512D01*
X114007436Y-66387205D01*
X114077597Y-66411567D01*
X114146677Y-66436004D01*
X114213065Y-66459921D01*
X114275154Y-66482721D01*
X114331332Y-66503810D01*
X114379991Y-66522593D01*
X114419521Y-66538474D01*
X114448312Y-66550859D01*
X114464755Y-66559152D01*
X114468063Y-66562127D01*
X114465245Y-66564310D01*
X114456302Y-66568303D01*
X114440499Y-66574348D01*
X114417104Y-66582685D01*
X114385381Y-66593557D01*
X114344596Y-66607205D01*
X114294016Y-66623870D01*
X114232906Y-66643794D01*
X114160533Y-66667218D01*
X114076162Y-66694383D01*
X113979060Y-66725532D01*
X113868491Y-66760905D01*
X113743723Y-66800743D01*
X113706063Y-66812757D01*
X113550658Y-66862465D01*
X113409158Y-66908047D01*
X113280265Y-66949948D01*
X113162682Y-66988618D01*
X113055113Y-67024503D01*
X112956259Y-67058050D01*
X112864823Y-67089707D01*
X112779510Y-67119922D01*
X112699020Y-67149142D01*
X112622058Y-67177814D01*
X112547326Y-67206386D01*
X112473526Y-67235305D01*
X112426022Y-67254267D01*
X112203146Y-67347607D01*
X111995270Y-67442599D01*
X111801560Y-67539766D01*
X111621181Y-67639632D01*
X111453299Y-67742719D01*
X111297079Y-67849551D01*
X111151686Y-67960651D01*
X111016285Y-68076543D01*
X110890043Y-68197749D01*
X110842977Y-68246716D01*
X110813166Y-68278822D01*
X110784738Y-68310116D01*
X110760851Y-68337082D01*
X110744662Y-68356203D01*
X110744280Y-68356679D01*
X110717594Y-68390014D01*
X110654094Y-68385951D01*
X110621942Y-68382287D01*
X110579733Y-68375198D01*
X110532661Y-68365661D01*
X110485922Y-68354656D01*
X110480306Y-68353211D01*
X110420353Y-68338753D01*
X110362929Y-68327014D01*
X110310694Y-68318387D01*
X110266308Y-68313268D01*
X110232431Y-68312050D01*
X110215318Y-68313983D01*
X110196047Y-68318820D01*
X110201167Y-68240363D01*
X110209381Y-68133435D01*
X110220006Y-68030586D01*
X110233583Y-67928284D01*
X110250656Y-67822994D01*
X110271765Y-67711184D01*
X110297452Y-67589318D01*
X110308721Y-67538775D01*
X110332308Y-67433941D01*
X110352518Y-67343172D01*
X110369645Y-67265089D01*
X110383984Y-67198311D01*
X110395828Y-67141459D01*
X110405471Y-67093153D01*
X110413208Y-67052014D01*
X110416713Y-67032199D01*
X110423373Y-66993789D01*
X110426164Y-66967839D01*
X110422976Y-66951031D01*
X110411696Y-66940046D01*
X110390213Y-66931566D01*
X110356414Y-66922275D01*
X110344765Y-66919159D01*
X110269737Y-66905390D01*
X110199770Y-66905656D01*
X110135800Y-66919791D01*
X110078766Y-66947628D01*
X110046542Y-66972371D01*
X110012991Y-67006775D01*
X109982568Y-67047339D01*
X109955021Y-67095008D01*
X109930100Y-67150729D01*
X109907554Y-67215448D01*
X109887132Y-67290111D01*
X109868582Y-67375664D01*
X109851655Y-67473054D01*
X109836099Y-67583225D01*
X109821663Y-67707124D01*
X109808096Y-67845698D01*
X109804693Y-67884093D01*
X109799141Y-67947048D01*
X109793650Y-68007611D01*
X109788465Y-68063203D01*
X109783832Y-68111246D01*
X109779996Y-68149162D01*
X109777201Y-68174374D01*
X109776774Y-68177781D01*
X109773097Y-68207875D01*
X109770414Y-68233246D01*
X109769308Y-68248332D01*
X109768429Y-68253801D01*
X109764510Y-68257626D01*
X109755319Y-68259982D01*
X109738626Y-68261042D01*
X109712196Y-68260980D01*
X109673798Y-68259969D01*
X109636110Y-68258705D01*
X109508769Y-68250278D01*
X109383767Y-68234409D01*
X109376157Y-68233173D01*
X109290521Y-68220972D01*
X109205467Y-68213055D01*
X109113164Y-68208706D01*
X109106282Y-68208518D01*
X108963407Y-68204780D01*
X108964005Y-68135718D01*
X108964772Y-68110228D01*
X108966908Y-68084423D01*
X108970841Y-68056543D01*
X108976999Y-68024825D01*
X108985808Y-67987509D01*
X108997697Y-67942835D01*
X109013093Y-67889042D01*
X109032423Y-67824368D01*
X109056115Y-67747053D01*
X109066523Y-67713437D01*
X109101110Y-67599415D01*
X109129852Y-67499034D01*
X109153005Y-67411281D01*
X109170828Y-67335141D01*
X109183578Y-67269602D01*
X109189585Y-67229787D01*
X109195325Y-67152287D01*
X109190968Y-67086633D01*
X109176565Y-67032946D01*
X109152163Y-66991346D01*
X109117813Y-66961953D01*
X109073564Y-66944888D01*
X109072504Y-66944657D01*
X109024448Y-66940721D01*
X108978784Y-66950377D01*
X108935025Y-66974029D01*
X108892686Y-67012080D01*
X108851282Y-67064937D01*
X108810326Y-67133002D01*
X108784164Y-67184650D01*
X108753450Y-67254357D01*
X108723799Y-67332979D01*
X108694849Y-67421751D01*
X108666238Y-67521910D01*
X108637604Y-67634693D01*
X108608584Y-67761335D01*
X108590663Y-67845321D01*
X108579258Y-67900001D01*
X108568101Y-67953319D01*
X108557890Y-68001965D01*
X108549319Y-68042626D01*
X108543084Y-68071991D01*
X108541841Y-68077787D01*
X108529192Y-68136542D01*
X108388038Y-68131243D01*
X108307542Y-68127433D01*
X108227954Y-68121945D01*
X108147434Y-68114512D01*
X108064140Y-68104861D01*
X107976233Y-68092725D01*
X107881871Y-68077832D01*
X107779215Y-68059913D01*
X107666422Y-68038699D01*
X107541654Y-68013918D01*
X107427500Y-67990411D01*
X107294986Y-67963216D01*
X107176549Y-67939855D01*
X107072416Y-67920368D01*
X106982817Y-67904794D01*
X106907981Y-67893176D01*
X106848137Y-67885552D01*
X106821474Y-67883060D01*
X106754988Y-67877950D01*
X106749911Y-67905010D01*
X106749717Y-67938086D01*
X106759083Y-67982229D01*
X106777688Y-68036082D01*
X106785373Y-68054750D01*
X106795516Y-68078392D01*
X106802919Y-68095326D01*
X106805615Y-68101157D01*
X106814046Y-68103360D01*
X106836942Y-68107296D01*
X106873005Y-68112800D01*
X106920938Y-68119705D01*
X106979446Y-68127845D01*
X107047231Y-68137054D01*
X107122997Y-68147166D01*
X107205447Y-68158013D01*
X107293284Y-68169429D01*
X107385212Y-68181249D01*
X107479934Y-68193305D01*
X107576154Y-68205432D01*
X107672574Y-68217463D01*
X107767898Y-68229232D01*
X107860829Y-68240571D01*
X107950071Y-68251316D01*
X108034326Y-68261300D01*
X108112299Y-68270355D01*
X108182693Y-68278317D01*
X108209250Y-68281247D01*
X108271870Y-68288154D01*
X108329256Y-68294597D01*
X108379555Y-68300359D01*
X108420909Y-68305222D01*
X108451464Y-68308969D01*
X108469365Y-68311383D01*
X108473365Y-68312156D01*
X108471691Y-68320025D01*
X108465673Y-68340567D01*
X108456051Y-68371416D01*
X108443562Y-68410206D01*
X108428946Y-68454571D01*
X108428321Y-68456448D01*
X108408741Y-68516689D01*
X108389940Y-68577807D01*
X108371429Y-68641691D01*
X108352715Y-68710229D01*
X108333309Y-68785308D01*
X108312719Y-68868817D01*
X108290456Y-68962644D01*
X108266027Y-69068678D01*
X108244950Y-69161982D01*
X108224302Y-69253792D01*
X108206536Y-69332156D01*
X108191149Y-69399137D01*
X108177636Y-69456800D01*
X108165493Y-69507208D01*
X108154214Y-69552424D01*
X108143297Y-69594511D01*
X108132235Y-69635534D01*
X108120524Y-69677555D01*
X108109094Y-69717656D01*
X108089301Y-69784288D01*
X108071293Y-69839184D01*
X108053550Y-69886136D01*
X108034558Y-69928935D01*
X108012800Y-69971375D01*
X107994819Y-70003406D01*
X107960818Y-70063616D01*
X107934595Y-70113218D01*
X107914971Y-70154710D01*
X107900764Y-70190589D01*
X107890795Y-70223352D01*
X107890692Y-70223750D01*
X107883300Y-70266826D01*
X107882159Y-70310256D01*
X107886697Y-70350751D01*
X107896337Y-70385025D01*
X107910508Y-70409791D01*
X107925085Y-70420691D01*
X107956966Y-70426817D01*
X107997268Y-70425740D01*
X108040399Y-70417714D01*
X108049680Y-70415051D01*
X108086041Y-70397260D01*
X108123592Y-70367248D01*
X108159202Y-70328070D01*
X108189742Y-70282783D01*
X108195004Y-70273188D01*
X108207823Y-70246949D01*
X108224197Y-70210643D01*
X108242033Y-70169038D01*
X108259237Y-70126905D01*
X108259460Y-70126344D01*
X108276614Y-70083617D01*
X108297830Y-70031599D01*
X108320927Y-69975596D01*
X108343722Y-69920914D01*
X108354405Y-69895534D01*
X108394632Y-69797662D01*
X108438620Y-69685500D01*
X108486456Y-69558819D01*
X108538223Y-69417394D01*
X108594006Y-69260997D01*
X108626534Y-69168217D01*
X108670225Y-69042977D01*
X108709061Y-68931832D01*
X108743367Y-68833867D01*
X108773462Y-68748170D01*
X108799670Y-68673827D01*
X108822313Y-68609925D01*
X108841713Y-68555550D01*
X108858192Y-68509789D01*
X108872073Y-68471730D01*
X108875093Y-68463531D01*
X108910263Y-68368281D01*
X108948741Y-68369618D01*
X108967716Y-68370934D01*
X109000272Y-68373921D01*
X109044229Y-68378334D01*
X109097411Y-68383924D01*
X109157638Y-68390445D01*
X109222733Y-68397650D01*
X109290516Y-68405293D01*
X109358811Y-68413127D01*
X109425438Y-68420904D01*
X109488219Y-68428378D01*
X109544977Y-68435302D01*
X109593532Y-68441429D01*
X109631707Y-68446513D01*
X109648016Y-68448854D01*
X109737313Y-68462223D01*
X109737313Y-68507342D01*
X109735934Y-68530121D01*
X109732114Y-68564904D01*
X109726328Y-68608092D01*
X109719049Y-68656086D01*
X109712644Y-68694528D01*
X109700847Y-68767899D01*
X109692867Y-68831684D01*
X109688115Y-68891545D01*
X109686048Y-68950218D01*
X109684880Y-68997827D01*
X109683073Y-69031923D01*
X109680362Y-69054867D01*
X109676485Y-69069015D01*
X109672018Y-69075946D01*
X109661157Y-69084737D01*
X109639930Y-69100295D01*
X109611183Y-69120587D01*
X109577761Y-69143580D01*
X109569958Y-69148870D01*
X109522033Y-69182983D01*
X109486401Y-69212992D01*
X109460962Y-69241497D01*
X109443618Y-69271094D01*
X109432270Y-69304383D01*
X109427907Y-69324750D01*
X109423228Y-69382621D01*
X109431870Y-69431885D01*
X109453829Y-69472523D01*
X109463498Y-69483529D01*
X109494728Y-69511242D01*
X109527765Y-69530655D01*
X109566103Y-69542929D01*
X109613233Y-69549223D01*
X109665875Y-69550734D01*
X109713182Y-69549622D01*
X109756515Y-69546066D01*
X109799669Y-69539343D01*
X109846437Y-69528735D01*
X109900611Y-69513519D01*
X109960460Y-69494766D01*
X110045697Y-69467210D01*
X110057675Y-69413839D01*
X110074859Y-69331270D01*
X110092128Y-69237085D01*
X110108788Y-69135523D01*
X110124144Y-69030824D01*
X110137503Y-68927227D01*
X110137898Y-68923906D01*
X110141812Y-68889360D01*
X110146378Y-68846570D01*
X110151321Y-68798375D01*
X110156370Y-68747613D01*
X110161252Y-68697123D01*
X110165695Y-68649744D01*
X110169424Y-68608316D01*
X110172169Y-68575676D01*
X110173656Y-68554664D01*
X110173843Y-68549644D01*
X110179531Y-68546077D01*
X110197399Y-68547018D01*
X110228714Y-68552576D01*
X110242616Y-68555530D01*
X110266440Y-68561064D01*
X110299680Y-68569234D01*
X110339662Y-68579336D01*
X110383710Y-68590665D01*
X110429150Y-68602518D01*
X110473304Y-68614192D01*
X110513500Y-68624982D01*
X110547060Y-68634184D01*
X110571311Y-68641096D01*
X110583576Y-68645012D01*
X110584490Y-68645468D01*
X110582503Y-68652992D01*
X110575600Y-68671523D01*
X110565135Y-68697485D01*
X110561741Y-68705621D01*
X110530035Y-68801114D01*
X110511958Y-68903208D01*
X110507515Y-69010350D01*
X110516713Y-69120991D01*
X110539556Y-69233581D01*
X110559593Y-69300767D01*
X110610360Y-69428675D01*
X110675126Y-69552186D01*
X110752448Y-69669404D01*
X110840881Y-69778434D01*
X110938980Y-69877381D01*
X111045301Y-69964350D01*
X111088371Y-69994405D01*
X111227744Y-70077618D01*
X111375873Y-70147645D01*
X111532645Y-70204467D01*
X111697948Y-70248063D01*
X111871671Y-70278415D01*
X112053700Y-70295503D01*
X112243923Y-70299309D01*
X112442229Y-70289812D01*
X112648504Y-70266993D01*
X112662282Y-70265035D01*
X112834311Y-70236165D01*
X112991677Y-70201234D01*
X113134392Y-70160239D01*
X113262465Y-70113176D01*
X113331426Y-70082437D01*
X113408743Y-70043437D01*
X113473876Y-70005978D01*
X113530092Y-69967947D01*
X113580655Y-69927229D01*
X113604027Y-69905968D01*
X113649843Y-69858586D01*
X113683174Y-69813788D01*
X113706235Y-69768174D01*
X113718311Y-69730659D01*
X113722644Y-69711921D01*
X113291886Y-69711921D01*
X113284915Y-69748101D01*
X113269125Y-69780992D01*
X113242731Y-69814585D01*
X113213171Y-69844277D01*
X113161325Y-69885554D01*
X113095581Y-69925469D01*
X113017904Y-69963359D01*
X112930255Y-69998560D01*
X112834599Y-70030411D01*
X112732897Y-70058249D01*
X112627112Y-70081410D01*
X112519208Y-70099232D01*
X112427044Y-70109710D01*
X112367515Y-70114426D01*
X112318152Y-70116767D01*
X112273422Y-70116743D01*
X112227797Y-70114365D01*
X112180920Y-70110172D01*
X112047828Y-70090317D01*
X111916400Y-70058392D01*
X111787901Y-70015285D01*
X111663594Y-69961884D01*
X111544745Y-69899077D01*
X111432618Y-69827752D01*
X111328478Y-69748796D01*
X111233588Y-69663097D01*
X111149215Y-69571543D01*
X111076622Y-69475021D01*
X111017073Y-69374420D01*
X110971834Y-69270628D01*
X110967540Y-69258332D01*
X110947340Y-69191745D01*
X110934584Y-69130148D01*
X110928108Y-69066372D01*
X110926671Y-69006359D01*
X110934679Y-68900091D01*
X110958332Y-68796459D01*
X110983546Y-68727000D01*
X110998281Y-68692134D01*
X111008716Y-68669732D01*
X111016793Y-68657663D01*
X111024452Y-68653795D01*
X111033632Y-68655994D01*
X111043729Y-68660865D01*
X111061876Y-68667884D01*
X111090475Y-68676714D01*
X111124457Y-68685834D01*
X111138282Y-68689191D01*
X111287710Y-68724357D01*
X111422774Y-68756303D01*
X111544583Y-68785348D01*
X111654250Y-68811811D01*
X111752885Y-68836011D01*
X111841598Y-68858267D01*
X111921502Y-68878896D01*
X111993706Y-68898219D01*
X112059321Y-68916554D01*
X112119459Y-68934219D01*
X112175230Y-68951534D01*
X112227745Y-68968816D01*
X112278115Y-68986386D01*
X112327451Y-69004562D01*
X112376865Y-69023663D01*
X112427465Y-69044006D01*
X112480365Y-69065912D01*
X112536674Y-69089699D01*
X112542325Y-69092104D01*
X112676148Y-69150976D01*
X112794977Y-69207306D01*
X112899428Y-69261447D01*
X112990117Y-69313754D01*
X113067659Y-69364580D01*
X113132668Y-69414278D01*
X113182188Y-69459560D01*
X113227738Y-69510286D01*
X113260027Y-69557901D01*
X113280524Y-69605205D01*
X113290701Y-69655001D01*
X113291823Y-69668463D01*
X113291886Y-69711921D01*
X113722644Y-69711921D01*
X113724651Y-69703244D01*
X113727102Y-69681394D01*
X113725689Y-69658610D01*
X113720433Y-69628395D01*
X113718701Y-69619798D01*
X113700349Y-69556298D01*
X113670771Y-69487038D01*
X113631787Y-69415307D01*
X113585214Y-69344394D01*
X113532871Y-69277587D01*
X113523549Y-69266896D01*
X113472127Y-69216085D01*
X113406873Y-69163478D01*
X113329562Y-69110173D01*
X113241970Y-69057267D01*
X113145875Y-69005858D01*
X113043052Y-68957043D01*
X112974418Y-68927621D01*
X112906926Y-68900793D01*
X112837242Y-68875011D01*
X112764160Y-68849959D01*
X112686479Y-68825321D01*
X112602992Y-68800781D01*
X112512497Y-68776022D01*
X112413789Y-68750726D01*
X112305664Y-68724579D01*
X112186917Y-68697263D01*
X112056346Y-68668462D01*
X111912745Y-68637859D01*
X111754910Y-68605138D01*
X111721688Y-68598344D01*
X111613225Y-68576036D01*
X111512235Y-68554919D01*
X111420017Y-68535277D01*
X111337867Y-68517392D01*
X111267084Y-68501549D01*
X111208965Y-68488030D01*
X111164808Y-68477119D01*
X111155791Y-68474750D01*
X111125675Y-68466699D01*
X111151760Y-68433365D01*
X111174497Y-68406426D01*
X111206692Y-68371196D01*
X111246003Y-68330002D01*
X111290091Y-68285175D01*
X111336614Y-68239043D01*
X111383231Y-68193937D01*
X111427603Y-68152184D01*
X111467387Y-68116116D01*
X111491500Y-68095289D01*
X111676268Y-67950124D01*
X111874228Y-67813567D01*
X112085158Y-67685737D01*
X112308835Y-67566754D01*
X112545038Y-67456739D01*
X112793542Y-67355809D01*
X113011532Y-67278171D01*
X113075388Y-67257075D01*
X113136217Y-67237628D01*
X113196272Y-67219202D01*
X113257808Y-67201169D01*
X113323079Y-67182903D01*
X113394339Y-67163773D01*
X113473842Y-67143154D01*
X113563842Y-67120416D01*
X113666594Y-67094932D01*
X113690188Y-67089127D01*
X113799196Y-67062177D01*
X113895025Y-67038095D01*
X113979983Y-67016244D01*
X114056373Y-66995988D01*
X114126502Y-66976690D01*
X114192675Y-66957715D01*
X114257197Y-66938425D01*
X114322375Y-66918184D01*
X114390513Y-66896357D01*
X114401534Y-66892775D01*
X114455972Y-66875244D01*
X114511929Y-66857553D01*
X114565238Y-66840997D01*
X114611730Y-66826871D01*
X114646657Y-66816634D01*
X114743895Y-66787898D01*
X114826517Y-66760808D01*
X114895618Y-66734739D01*
X114952292Y-66709063D01*
X114997635Y-66683155D01*
X115032741Y-66656389D01*
X115058706Y-66628138D01*
X115076625Y-66597776D01*
X115087592Y-66564678D01*
X115087634Y-66564490D01*
X115090707Y-66524166D01*
X115079558Y-66489592D01*
X115059525Y-66463928D01*
X115029796Y-66440204D01*
X114986073Y-66413915D01*
X114929903Y-66385736D01*
X114862833Y-66356343D01*
X114786409Y-66326410D01*
X114702179Y-66296615D01*
X114611688Y-66267631D01*
X114606166Y-66265955D01*
X114548381Y-66248922D01*
X114477374Y-66228741D01*
X114395355Y-66205987D01*
X114304535Y-66181237D01*
X114207123Y-66155069D01*
X114105329Y-66128060D01*
X114001363Y-66100785D01*
X113897435Y-66073823D01*
X113795755Y-66047751D01*
X113698532Y-66023144D01*
X113607978Y-66000580D01*
X113526301Y-65980637D01*
X113455711Y-65963890D01*
X113404438Y-65952237D01*
X113183791Y-65906443D01*
X112973335Y-65868832D01*
X112769883Y-65839033D01*
X112570252Y-65816679D01*
X112371255Y-65801401D01*
X112169708Y-65792831D01*
X112007438Y-65790562D01*
X111773282Y-65790034D01*
X111654219Y-65855526D01*
D12*
X145360000Y-65350000D03*
D13*
X142820000Y-65350000D03*
X140280000Y-65350000D03*
X137740000Y-65350000D03*
X135200000Y-65350000D03*
X132660000Y-65350000D03*
X130120000Y-65350000D03*
D14*
X114620000Y-95475000D03*
X112620000Y-95475000D03*
D15*
X117020000Y-93225000D03*
X110220000Y-93225000D03*
D16*
X140620000Y-62050000D03*
X135620000Y-62050000D03*
D17*
X141620000Y-59350000D03*
X134620000Y-59350000D03*
D18*
X121170000Y-98510000D03*
X124170000Y-98510000D03*
X152020000Y-98750000D03*
X155020000Y-98750000D03*
D19*
X123370000Y-82850000D03*
X123370000Y-84850000D03*
X123370000Y-80850000D03*
D20*
X116370000Y-73850000D03*
X114370000Y-73850000D03*
X112370000Y-73850000D03*
D21*
X120370000Y-88850000D03*
X108370000Y-76850000D03*
M02*
