G04 #@! TF.FileFunction,Soldermask,Top*
%FSLAX46Y46*%
G04 Gerber Fmt 4.6, Leading zero omitted, Abs format (unit mm)*
G04 Created by KiCad (PCBNEW 4.0.4-stable) date 07/06/18 22:48:26*
%MOMM*%
%LPD*%
G01*
G04 APERTURE LIST*
%ADD10C,0.100000*%
%ADD11C,0.010000*%
%ADD12R,1.500000X1.900000*%
%ADD13C,1.450000*%
%ADD14R,0.400000X1.350000*%
%ADD15O,1.200000X1.900000*%
%ADD16R,1.200000X1.900000*%
%ADD17C,2.286000*%
%ADD18R,0.700000X0.350000*%
%ADD19O,3.000000X1.500000*%
%ADD20O,1.500000X3.000000*%
%ADD21R,1.000000X1.250000*%
%ADD22R,1.250000X1.000000*%
%ADD23R,0.750000X1.500000*%
G04 APERTURE END LIST*
D10*
D11*
G36*
X177601781Y-132081526D02*
X177654434Y-132110793D01*
X177695432Y-132134469D01*
X177727237Y-132154221D01*
X177752312Y-132171719D01*
X177773120Y-132188630D01*
X177792123Y-132206624D01*
X177802887Y-132217787D01*
X177818248Y-132236174D01*
X177834604Y-132258913D01*
X177849554Y-132282174D01*
X177860701Y-132302130D01*
X177865643Y-132314952D01*
X177865260Y-132317322D01*
X177857215Y-132316370D01*
X177837209Y-132312152D01*
X177808638Y-132305416D01*
X177787627Y-132300182D01*
X177694252Y-132279474D01*
X177589734Y-132261641D01*
X177478661Y-132247399D01*
X177402333Y-132240178D01*
X177342176Y-132236695D01*
X177269871Y-132234745D01*
X177189064Y-132234258D01*
X177103400Y-132235160D01*
X177016524Y-132237381D01*
X176932082Y-132240848D01*
X176853720Y-132245490D01*
X176785082Y-132251236D01*
X176772312Y-132252569D01*
X176521744Y-132285933D01*
X176262662Y-132332462D01*
X175995335Y-132392095D01*
X175720030Y-132464771D01*
X175437014Y-132550429D01*
X175385691Y-132567084D01*
X175318196Y-132589512D01*
X175248564Y-132613205D01*
X175178403Y-132637567D01*
X175109323Y-132662004D01*
X175042935Y-132685921D01*
X174980846Y-132708721D01*
X174924668Y-132729810D01*
X174876009Y-132748593D01*
X174836479Y-132764474D01*
X174807688Y-132776859D01*
X174791245Y-132785152D01*
X174787937Y-132788127D01*
X174790755Y-132790310D01*
X174799698Y-132794303D01*
X174815501Y-132800348D01*
X174838896Y-132808685D01*
X174870619Y-132819557D01*
X174911404Y-132833205D01*
X174961984Y-132849870D01*
X175023094Y-132869794D01*
X175095467Y-132893218D01*
X175179838Y-132920383D01*
X175276940Y-132951532D01*
X175387509Y-132986905D01*
X175512277Y-133026743D01*
X175549937Y-133038757D01*
X175705342Y-133088465D01*
X175846842Y-133134047D01*
X175975735Y-133175948D01*
X176093318Y-133214618D01*
X176200887Y-133250503D01*
X176299741Y-133284050D01*
X176391177Y-133315707D01*
X176476490Y-133345922D01*
X176556980Y-133375142D01*
X176633942Y-133403814D01*
X176708674Y-133432386D01*
X176782474Y-133461305D01*
X176829978Y-133480267D01*
X177052854Y-133573607D01*
X177260730Y-133668599D01*
X177454440Y-133765766D01*
X177634819Y-133865632D01*
X177802701Y-133968719D01*
X177958921Y-134075551D01*
X178104314Y-134186651D01*
X178239715Y-134302543D01*
X178365957Y-134423749D01*
X178413023Y-134472716D01*
X178442834Y-134504822D01*
X178471262Y-134536116D01*
X178495149Y-134563082D01*
X178511338Y-134582203D01*
X178511720Y-134582679D01*
X178538406Y-134616014D01*
X178601906Y-134611951D01*
X178634058Y-134608287D01*
X178676267Y-134601198D01*
X178723339Y-134591661D01*
X178770078Y-134580656D01*
X178775694Y-134579211D01*
X178835647Y-134564753D01*
X178893071Y-134553014D01*
X178945306Y-134544387D01*
X178989692Y-134539268D01*
X179023569Y-134538050D01*
X179040682Y-134539983D01*
X179059953Y-134544820D01*
X179054833Y-134466363D01*
X179046619Y-134359435D01*
X179035994Y-134256586D01*
X179022417Y-134154284D01*
X179005344Y-134048994D01*
X178984235Y-133937184D01*
X178958548Y-133815318D01*
X178947279Y-133764775D01*
X178923692Y-133659941D01*
X178903482Y-133569172D01*
X178886355Y-133491089D01*
X178872016Y-133424311D01*
X178860172Y-133367459D01*
X178850529Y-133319153D01*
X178842792Y-133278014D01*
X178839287Y-133258199D01*
X178832627Y-133219789D01*
X178829836Y-133193839D01*
X178833024Y-133177031D01*
X178844304Y-133166046D01*
X178865787Y-133157566D01*
X178899586Y-133148275D01*
X178911235Y-133145159D01*
X178986263Y-133131390D01*
X179056230Y-133131656D01*
X179120200Y-133145791D01*
X179177234Y-133173628D01*
X179209458Y-133198371D01*
X179243009Y-133232775D01*
X179273432Y-133273339D01*
X179300979Y-133321008D01*
X179325900Y-133376729D01*
X179348446Y-133441448D01*
X179368868Y-133516111D01*
X179387418Y-133601664D01*
X179404345Y-133699054D01*
X179419901Y-133809225D01*
X179434337Y-133933124D01*
X179447904Y-134071698D01*
X179451307Y-134110093D01*
X179456859Y-134173048D01*
X179462350Y-134233611D01*
X179467535Y-134289203D01*
X179472168Y-134337246D01*
X179476004Y-134375162D01*
X179478799Y-134400374D01*
X179479226Y-134403781D01*
X179482903Y-134433875D01*
X179485586Y-134459246D01*
X179486692Y-134474332D01*
X179487571Y-134479801D01*
X179491490Y-134483626D01*
X179500681Y-134485982D01*
X179517374Y-134487042D01*
X179543804Y-134486980D01*
X179582202Y-134485969D01*
X179619890Y-134484705D01*
X179747231Y-134476278D01*
X179872233Y-134460409D01*
X179879843Y-134459173D01*
X179965479Y-134446972D01*
X180050533Y-134439055D01*
X180142836Y-134434706D01*
X180149718Y-134434518D01*
X180292593Y-134430780D01*
X180291995Y-134361718D01*
X180291228Y-134336228D01*
X180289092Y-134310423D01*
X180285159Y-134282543D01*
X180279001Y-134250825D01*
X180270192Y-134213509D01*
X180258303Y-134168835D01*
X180242907Y-134115042D01*
X180223577Y-134050368D01*
X180199885Y-133973053D01*
X180189477Y-133939437D01*
X180154890Y-133825415D01*
X180126148Y-133725034D01*
X180102995Y-133637281D01*
X180085172Y-133561141D01*
X180072422Y-133495602D01*
X180066415Y-133455787D01*
X180060675Y-133378287D01*
X180065032Y-133312633D01*
X180079435Y-133258946D01*
X180103837Y-133217346D01*
X180138187Y-133187953D01*
X180182436Y-133170888D01*
X180183496Y-133170657D01*
X180231552Y-133166721D01*
X180277216Y-133176377D01*
X180320975Y-133200029D01*
X180363314Y-133238080D01*
X180404718Y-133290937D01*
X180445674Y-133359002D01*
X180471836Y-133410650D01*
X180502550Y-133480357D01*
X180532201Y-133558979D01*
X180561151Y-133647751D01*
X180589762Y-133747910D01*
X180618396Y-133860693D01*
X180647416Y-133987335D01*
X180665337Y-134071321D01*
X180676742Y-134126001D01*
X180687899Y-134179319D01*
X180698110Y-134227965D01*
X180706681Y-134268626D01*
X180712916Y-134297991D01*
X180714159Y-134303787D01*
X180726808Y-134362542D01*
X180867962Y-134357243D01*
X180948458Y-134353433D01*
X181028046Y-134347945D01*
X181108566Y-134340512D01*
X181191860Y-134330861D01*
X181279767Y-134318725D01*
X181374129Y-134303832D01*
X181476785Y-134285913D01*
X181589578Y-134264699D01*
X181714346Y-134239918D01*
X181828500Y-134216411D01*
X181961014Y-134189216D01*
X182079451Y-134165855D01*
X182183584Y-134146368D01*
X182273183Y-134130794D01*
X182348019Y-134119176D01*
X182407863Y-134111552D01*
X182434526Y-134109060D01*
X182501012Y-134103950D01*
X182506089Y-134131010D01*
X182506283Y-134164086D01*
X182496917Y-134208229D01*
X182478312Y-134262082D01*
X182470627Y-134280750D01*
X182460484Y-134304392D01*
X182453081Y-134321326D01*
X182450385Y-134327157D01*
X182441954Y-134329360D01*
X182419058Y-134333296D01*
X182382995Y-134338800D01*
X182335062Y-134345705D01*
X182276554Y-134353845D01*
X182208769Y-134363054D01*
X182133003Y-134373166D01*
X182050553Y-134384013D01*
X181962716Y-134395429D01*
X181870788Y-134407249D01*
X181776066Y-134419305D01*
X181679846Y-134431432D01*
X181583426Y-134443463D01*
X181488102Y-134455232D01*
X181395171Y-134466571D01*
X181305929Y-134477316D01*
X181221674Y-134487300D01*
X181143701Y-134496355D01*
X181073307Y-134504317D01*
X181046750Y-134507247D01*
X180984130Y-134514154D01*
X180926744Y-134520597D01*
X180876445Y-134526359D01*
X180835091Y-134531222D01*
X180804536Y-134534969D01*
X180786635Y-134537383D01*
X180782635Y-134538156D01*
X180784309Y-134546025D01*
X180790327Y-134566567D01*
X180799949Y-134597416D01*
X180812438Y-134636206D01*
X180827054Y-134680571D01*
X180827679Y-134682448D01*
X180847259Y-134742689D01*
X180866060Y-134803807D01*
X180884571Y-134867691D01*
X180903285Y-134936229D01*
X180922691Y-135011308D01*
X180943281Y-135094817D01*
X180965544Y-135188644D01*
X180989973Y-135294678D01*
X181011050Y-135387982D01*
X181031698Y-135479792D01*
X181049464Y-135558156D01*
X181064851Y-135625137D01*
X181078364Y-135682800D01*
X181090507Y-135733208D01*
X181101786Y-135778424D01*
X181112703Y-135820511D01*
X181123765Y-135861534D01*
X181135476Y-135903555D01*
X181146906Y-135943656D01*
X181166699Y-136010288D01*
X181184707Y-136065184D01*
X181202450Y-136112136D01*
X181221442Y-136154935D01*
X181243200Y-136197375D01*
X181261181Y-136229406D01*
X181295182Y-136289616D01*
X181321405Y-136339218D01*
X181341029Y-136380710D01*
X181355236Y-136416589D01*
X181365205Y-136449352D01*
X181365308Y-136449750D01*
X181372700Y-136492826D01*
X181373841Y-136536256D01*
X181369303Y-136576751D01*
X181359663Y-136611025D01*
X181345492Y-136635791D01*
X181330915Y-136646691D01*
X181299034Y-136652817D01*
X181258732Y-136651740D01*
X181215601Y-136643714D01*
X181206320Y-136641051D01*
X181169959Y-136623260D01*
X181132408Y-136593248D01*
X181096798Y-136554070D01*
X181066258Y-136508783D01*
X181060996Y-136499188D01*
X181048177Y-136472949D01*
X181031803Y-136436643D01*
X181013967Y-136395038D01*
X180996763Y-136352905D01*
X180996540Y-136352344D01*
X180979386Y-136309617D01*
X180958170Y-136257599D01*
X180935073Y-136201596D01*
X180912278Y-136146914D01*
X180901595Y-136121534D01*
X180861368Y-136023662D01*
X180817380Y-135911500D01*
X180769544Y-135784819D01*
X180717777Y-135643394D01*
X180661994Y-135486997D01*
X180629466Y-135394217D01*
X180585775Y-135268977D01*
X180546939Y-135157832D01*
X180512633Y-135059867D01*
X180482538Y-134974170D01*
X180456330Y-134899827D01*
X180433687Y-134835925D01*
X180414287Y-134781550D01*
X180397808Y-134735789D01*
X180383927Y-134697730D01*
X180380907Y-134689531D01*
X180345737Y-134594281D01*
X180307259Y-134595618D01*
X180288284Y-134596934D01*
X180255728Y-134599921D01*
X180211771Y-134604334D01*
X180158589Y-134609924D01*
X180098362Y-134616445D01*
X180033267Y-134623650D01*
X179965484Y-134631293D01*
X179897189Y-134639127D01*
X179830562Y-134646904D01*
X179767781Y-134654378D01*
X179711023Y-134661302D01*
X179662468Y-134667429D01*
X179624293Y-134672513D01*
X179607984Y-134674854D01*
X179518687Y-134688223D01*
X179518687Y-134733342D01*
X179520066Y-134756121D01*
X179523886Y-134790904D01*
X179529672Y-134834092D01*
X179536951Y-134882086D01*
X179543356Y-134920528D01*
X179555153Y-134993899D01*
X179563133Y-135057684D01*
X179567885Y-135117545D01*
X179569952Y-135176218D01*
X179571120Y-135223827D01*
X179572927Y-135257923D01*
X179575638Y-135280867D01*
X179579515Y-135295015D01*
X179583982Y-135301946D01*
X179594843Y-135310737D01*
X179616070Y-135326295D01*
X179644817Y-135346587D01*
X179678239Y-135369580D01*
X179686042Y-135374870D01*
X179733967Y-135408983D01*
X179769599Y-135438992D01*
X179795038Y-135467497D01*
X179812382Y-135497094D01*
X179823730Y-135530383D01*
X179828093Y-135550750D01*
X179832772Y-135608621D01*
X179824130Y-135657885D01*
X179802171Y-135698523D01*
X179792502Y-135709529D01*
X179761272Y-135737242D01*
X179728235Y-135756655D01*
X179689897Y-135768929D01*
X179642767Y-135775223D01*
X179590125Y-135776734D01*
X179542818Y-135775622D01*
X179499485Y-135772066D01*
X179456331Y-135765343D01*
X179409563Y-135754735D01*
X179355389Y-135739519D01*
X179295540Y-135720766D01*
X179210303Y-135693210D01*
X179198325Y-135639839D01*
X179181141Y-135557270D01*
X179163872Y-135463085D01*
X179147212Y-135361523D01*
X179131856Y-135256824D01*
X179118497Y-135153227D01*
X179118102Y-135149906D01*
X179114188Y-135115360D01*
X179109622Y-135072570D01*
X179104679Y-135024375D01*
X179099630Y-134973613D01*
X179094748Y-134923123D01*
X179090305Y-134875744D01*
X179086576Y-134834316D01*
X179083831Y-134801676D01*
X179082344Y-134780664D01*
X179082157Y-134775644D01*
X179076469Y-134772077D01*
X179058601Y-134773018D01*
X179027286Y-134778576D01*
X179013384Y-134781530D01*
X178989560Y-134787064D01*
X178956320Y-134795234D01*
X178916338Y-134805336D01*
X178872290Y-134816665D01*
X178826850Y-134828518D01*
X178782696Y-134840192D01*
X178742500Y-134850982D01*
X178708940Y-134860184D01*
X178684689Y-134867096D01*
X178672424Y-134871012D01*
X178671510Y-134871468D01*
X178673497Y-134878992D01*
X178680400Y-134897523D01*
X178690865Y-134923485D01*
X178694259Y-134931621D01*
X178725965Y-135027114D01*
X178744042Y-135129208D01*
X178748485Y-135236350D01*
X178739287Y-135346991D01*
X178716444Y-135459581D01*
X178696407Y-135526767D01*
X178645640Y-135654675D01*
X178580874Y-135778186D01*
X178503552Y-135895404D01*
X178415119Y-136004434D01*
X178317020Y-136103381D01*
X178210699Y-136190350D01*
X178167629Y-136220405D01*
X178028256Y-136303618D01*
X177880127Y-136373645D01*
X177723355Y-136430467D01*
X177558052Y-136474063D01*
X177384329Y-136504415D01*
X177202300Y-136521503D01*
X177012077Y-136525309D01*
X176813771Y-136515812D01*
X176607496Y-136492993D01*
X176593718Y-136491035D01*
X176421689Y-136462165D01*
X176264323Y-136427234D01*
X176121608Y-136386239D01*
X175993535Y-136339176D01*
X175924574Y-136308437D01*
X175847257Y-136269437D01*
X175782124Y-136231978D01*
X175725908Y-136193947D01*
X175675345Y-136153229D01*
X175651973Y-136131968D01*
X175606157Y-136084586D01*
X175572826Y-136039788D01*
X175549765Y-135994174D01*
X175537689Y-135956659D01*
X175533356Y-135937921D01*
X175964114Y-135937921D01*
X175971085Y-135974101D01*
X175986875Y-136006992D01*
X176013269Y-136040585D01*
X176042829Y-136070277D01*
X176094675Y-136111554D01*
X176160419Y-136151469D01*
X176238096Y-136189359D01*
X176325745Y-136224560D01*
X176421401Y-136256411D01*
X176523103Y-136284249D01*
X176628888Y-136307410D01*
X176736792Y-136325232D01*
X176828956Y-136335710D01*
X176888485Y-136340426D01*
X176937848Y-136342767D01*
X176982578Y-136342743D01*
X177028203Y-136340365D01*
X177075080Y-136336172D01*
X177208172Y-136316317D01*
X177339600Y-136284392D01*
X177468099Y-136241285D01*
X177592406Y-136187884D01*
X177711255Y-136125077D01*
X177823382Y-136053752D01*
X177927522Y-135974796D01*
X178022412Y-135889097D01*
X178106785Y-135797543D01*
X178179378Y-135701021D01*
X178238927Y-135600420D01*
X178284166Y-135496628D01*
X178288460Y-135484332D01*
X178308660Y-135417745D01*
X178321416Y-135356148D01*
X178327892Y-135292372D01*
X178329329Y-135232359D01*
X178321321Y-135126091D01*
X178297668Y-135022459D01*
X178272454Y-134953000D01*
X178257719Y-134918134D01*
X178247284Y-134895732D01*
X178239207Y-134883663D01*
X178231548Y-134879795D01*
X178222368Y-134881994D01*
X178212271Y-134886865D01*
X178194124Y-134893884D01*
X178165525Y-134902714D01*
X178131543Y-134911834D01*
X178117718Y-134915191D01*
X177968290Y-134950357D01*
X177833226Y-134982303D01*
X177711417Y-135011348D01*
X177601750Y-135037811D01*
X177503115Y-135062011D01*
X177414402Y-135084267D01*
X177334498Y-135104896D01*
X177262294Y-135124219D01*
X177196679Y-135142554D01*
X177136541Y-135160219D01*
X177080770Y-135177534D01*
X177028255Y-135194816D01*
X176977885Y-135212386D01*
X176928549Y-135230562D01*
X176879135Y-135249663D01*
X176828535Y-135270006D01*
X176775635Y-135291912D01*
X176719326Y-135315699D01*
X176713675Y-135318104D01*
X176579852Y-135376976D01*
X176461023Y-135433306D01*
X176356572Y-135487447D01*
X176265883Y-135539754D01*
X176188341Y-135590580D01*
X176123332Y-135640278D01*
X176073812Y-135685560D01*
X176028262Y-135736286D01*
X175995973Y-135783901D01*
X175975476Y-135831205D01*
X175965299Y-135881001D01*
X175964177Y-135894463D01*
X175964114Y-135937921D01*
X175533356Y-135937921D01*
X175531349Y-135929244D01*
X175528898Y-135907394D01*
X175530311Y-135884610D01*
X175535567Y-135854395D01*
X175537299Y-135845798D01*
X175555651Y-135782298D01*
X175585229Y-135713038D01*
X175624213Y-135641307D01*
X175670786Y-135570394D01*
X175723129Y-135503587D01*
X175732451Y-135492896D01*
X175783873Y-135442085D01*
X175849127Y-135389478D01*
X175926438Y-135336173D01*
X176014030Y-135283267D01*
X176110125Y-135231858D01*
X176212948Y-135183043D01*
X176281582Y-135153621D01*
X176349074Y-135126793D01*
X176418758Y-135101011D01*
X176491840Y-135075959D01*
X176569521Y-135051321D01*
X176653008Y-135026781D01*
X176743503Y-135002022D01*
X176842211Y-134976726D01*
X176950336Y-134950579D01*
X177069083Y-134923263D01*
X177199654Y-134894462D01*
X177343255Y-134863859D01*
X177501090Y-134831138D01*
X177534312Y-134824344D01*
X177642775Y-134802036D01*
X177743765Y-134780919D01*
X177835983Y-134761277D01*
X177918133Y-134743392D01*
X177988916Y-134727549D01*
X178047035Y-134714030D01*
X178091192Y-134703119D01*
X178100209Y-134700750D01*
X178130325Y-134692699D01*
X178104240Y-134659365D01*
X178081503Y-134632426D01*
X178049308Y-134597196D01*
X178009997Y-134556002D01*
X177965909Y-134511175D01*
X177919386Y-134465043D01*
X177872769Y-134419937D01*
X177828397Y-134378184D01*
X177788613Y-134342116D01*
X177764500Y-134321289D01*
X177579732Y-134176124D01*
X177381772Y-134039567D01*
X177170842Y-133911737D01*
X176947165Y-133792754D01*
X176710962Y-133682739D01*
X176462458Y-133581809D01*
X176244468Y-133504171D01*
X176180612Y-133483075D01*
X176119783Y-133463628D01*
X176059728Y-133445202D01*
X175998192Y-133427169D01*
X175932921Y-133408903D01*
X175861661Y-133389773D01*
X175782158Y-133369154D01*
X175692158Y-133346416D01*
X175589406Y-133320932D01*
X175565812Y-133315127D01*
X175456804Y-133288177D01*
X175360975Y-133264095D01*
X175276017Y-133242244D01*
X175199627Y-133221988D01*
X175129498Y-133202690D01*
X175063325Y-133183715D01*
X174998803Y-133164425D01*
X174933625Y-133144184D01*
X174865487Y-133122357D01*
X174854466Y-133118775D01*
X174800028Y-133101244D01*
X174744071Y-133083553D01*
X174690762Y-133066997D01*
X174644270Y-133052871D01*
X174609343Y-133042634D01*
X174512105Y-133013898D01*
X174429483Y-132986808D01*
X174360382Y-132960739D01*
X174303708Y-132935063D01*
X174258365Y-132909155D01*
X174223259Y-132882389D01*
X174197294Y-132854138D01*
X174179375Y-132823776D01*
X174168408Y-132790678D01*
X174168366Y-132790490D01*
X174165293Y-132750166D01*
X174176442Y-132715592D01*
X174196475Y-132689928D01*
X174226204Y-132666204D01*
X174269927Y-132639915D01*
X174326097Y-132611736D01*
X174393167Y-132582343D01*
X174469591Y-132552410D01*
X174553821Y-132522615D01*
X174644312Y-132493631D01*
X174649834Y-132491955D01*
X174707619Y-132474922D01*
X174778626Y-132454741D01*
X174860645Y-132431987D01*
X174951465Y-132407237D01*
X175048877Y-132381069D01*
X175150671Y-132354060D01*
X175254637Y-132326785D01*
X175358565Y-132299823D01*
X175460245Y-132273751D01*
X175557468Y-132249144D01*
X175648022Y-132226580D01*
X175729699Y-132206637D01*
X175800289Y-132189890D01*
X175851562Y-132178237D01*
X176072209Y-132132443D01*
X176282665Y-132094832D01*
X176486117Y-132065033D01*
X176685748Y-132042679D01*
X176884745Y-132027401D01*
X177086292Y-132018831D01*
X177248562Y-132016562D01*
X177482718Y-132016034D01*
X177601781Y-132081526D01*
X177601781Y-132081526D01*
G37*
X177601781Y-132081526D02*
X177654434Y-132110793D01*
X177695432Y-132134469D01*
X177727237Y-132154221D01*
X177752312Y-132171719D01*
X177773120Y-132188630D01*
X177792123Y-132206624D01*
X177802887Y-132217787D01*
X177818248Y-132236174D01*
X177834604Y-132258913D01*
X177849554Y-132282174D01*
X177860701Y-132302130D01*
X177865643Y-132314952D01*
X177865260Y-132317322D01*
X177857215Y-132316370D01*
X177837209Y-132312152D01*
X177808638Y-132305416D01*
X177787627Y-132300182D01*
X177694252Y-132279474D01*
X177589734Y-132261641D01*
X177478661Y-132247399D01*
X177402333Y-132240178D01*
X177342176Y-132236695D01*
X177269871Y-132234745D01*
X177189064Y-132234258D01*
X177103400Y-132235160D01*
X177016524Y-132237381D01*
X176932082Y-132240848D01*
X176853720Y-132245490D01*
X176785082Y-132251236D01*
X176772312Y-132252569D01*
X176521744Y-132285933D01*
X176262662Y-132332462D01*
X175995335Y-132392095D01*
X175720030Y-132464771D01*
X175437014Y-132550429D01*
X175385691Y-132567084D01*
X175318196Y-132589512D01*
X175248564Y-132613205D01*
X175178403Y-132637567D01*
X175109323Y-132662004D01*
X175042935Y-132685921D01*
X174980846Y-132708721D01*
X174924668Y-132729810D01*
X174876009Y-132748593D01*
X174836479Y-132764474D01*
X174807688Y-132776859D01*
X174791245Y-132785152D01*
X174787937Y-132788127D01*
X174790755Y-132790310D01*
X174799698Y-132794303D01*
X174815501Y-132800348D01*
X174838896Y-132808685D01*
X174870619Y-132819557D01*
X174911404Y-132833205D01*
X174961984Y-132849870D01*
X175023094Y-132869794D01*
X175095467Y-132893218D01*
X175179838Y-132920383D01*
X175276940Y-132951532D01*
X175387509Y-132986905D01*
X175512277Y-133026743D01*
X175549937Y-133038757D01*
X175705342Y-133088465D01*
X175846842Y-133134047D01*
X175975735Y-133175948D01*
X176093318Y-133214618D01*
X176200887Y-133250503D01*
X176299741Y-133284050D01*
X176391177Y-133315707D01*
X176476490Y-133345922D01*
X176556980Y-133375142D01*
X176633942Y-133403814D01*
X176708674Y-133432386D01*
X176782474Y-133461305D01*
X176829978Y-133480267D01*
X177052854Y-133573607D01*
X177260730Y-133668599D01*
X177454440Y-133765766D01*
X177634819Y-133865632D01*
X177802701Y-133968719D01*
X177958921Y-134075551D01*
X178104314Y-134186651D01*
X178239715Y-134302543D01*
X178365957Y-134423749D01*
X178413023Y-134472716D01*
X178442834Y-134504822D01*
X178471262Y-134536116D01*
X178495149Y-134563082D01*
X178511338Y-134582203D01*
X178511720Y-134582679D01*
X178538406Y-134616014D01*
X178601906Y-134611951D01*
X178634058Y-134608287D01*
X178676267Y-134601198D01*
X178723339Y-134591661D01*
X178770078Y-134580656D01*
X178775694Y-134579211D01*
X178835647Y-134564753D01*
X178893071Y-134553014D01*
X178945306Y-134544387D01*
X178989692Y-134539268D01*
X179023569Y-134538050D01*
X179040682Y-134539983D01*
X179059953Y-134544820D01*
X179054833Y-134466363D01*
X179046619Y-134359435D01*
X179035994Y-134256586D01*
X179022417Y-134154284D01*
X179005344Y-134048994D01*
X178984235Y-133937184D01*
X178958548Y-133815318D01*
X178947279Y-133764775D01*
X178923692Y-133659941D01*
X178903482Y-133569172D01*
X178886355Y-133491089D01*
X178872016Y-133424311D01*
X178860172Y-133367459D01*
X178850529Y-133319153D01*
X178842792Y-133278014D01*
X178839287Y-133258199D01*
X178832627Y-133219789D01*
X178829836Y-133193839D01*
X178833024Y-133177031D01*
X178844304Y-133166046D01*
X178865787Y-133157566D01*
X178899586Y-133148275D01*
X178911235Y-133145159D01*
X178986263Y-133131390D01*
X179056230Y-133131656D01*
X179120200Y-133145791D01*
X179177234Y-133173628D01*
X179209458Y-133198371D01*
X179243009Y-133232775D01*
X179273432Y-133273339D01*
X179300979Y-133321008D01*
X179325900Y-133376729D01*
X179348446Y-133441448D01*
X179368868Y-133516111D01*
X179387418Y-133601664D01*
X179404345Y-133699054D01*
X179419901Y-133809225D01*
X179434337Y-133933124D01*
X179447904Y-134071698D01*
X179451307Y-134110093D01*
X179456859Y-134173048D01*
X179462350Y-134233611D01*
X179467535Y-134289203D01*
X179472168Y-134337246D01*
X179476004Y-134375162D01*
X179478799Y-134400374D01*
X179479226Y-134403781D01*
X179482903Y-134433875D01*
X179485586Y-134459246D01*
X179486692Y-134474332D01*
X179487571Y-134479801D01*
X179491490Y-134483626D01*
X179500681Y-134485982D01*
X179517374Y-134487042D01*
X179543804Y-134486980D01*
X179582202Y-134485969D01*
X179619890Y-134484705D01*
X179747231Y-134476278D01*
X179872233Y-134460409D01*
X179879843Y-134459173D01*
X179965479Y-134446972D01*
X180050533Y-134439055D01*
X180142836Y-134434706D01*
X180149718Y-134434518D01*
X180292593Y-134430780D01*
X180291995Y-134361718D01*
X180291228Y-134336228D01*
X180289092Y-134310423D01*
X180285159Y-134282543D01*
X180279001Y-134250825D01*
X180270192Y-134213509D01*
X180258303Y-134168835D01*
X180242907Y-134115042D01*
X180223577Y-134050368D01*
X180199885Y-133973053D01*
X180189477Y-133939437D01*
X180154890Y-133825415D01*
X180126148Y-133725034D01*
X180102995Y-133637281D01*
X180085172Y-133561141D01*
X180072422Y-133495602D01*
X180066415Y-133455787D01*
X180060675Y-133378287D01*
X180065032Y-133312633D01*
X180079435Y-133258946D01*
X180103837Y-133217346D01*
X180138187Y-133187953D01*
X180182436Y-133170888D01*
X180183496Y-133170657D01*
X180231552Y-133166721D01*
X180277216Y-133176377D01*
X180320975Y-133200029D01*
X180363314Y-133238080D01*
X180404718Y-133290937D01*
X180445674Y-133359002D01*
X180471836Y-133410650D01*
X180502550Y-133480357D01*
X180532201Y-133558979D01*
X180561151Y-133647751D01*
X180589762Y-133747910D01*
X180618396Y-133860693D01*
X180647416Y-133987335D01*
X180665337Y-134071321D01*
X180676742Y-134126001D01*
X180687899Y-134179319D01*
X180698110Y-134227965D01*
X180706681Y-134268626D01*
X180712916Y-134297991D01*
X180714159Y-134303787D01*
X180726808Y-134362542D01*
X180867962Y-134357243D01*
X180948458Y-134353433D01*
X181028046Y-134347945D01*
X181108566Y-134340512D01*
X181191860Y-134330861D01*
X181279767Y-134318725D01*
X181374129Y-134303832D01*
X181476785Y-134285913D01*
X181589578Y-134264699D01*
X181714346Y-134239918D01*
X181828500Y-134216411D01*
X181961014Y-134189216D01*
X182079451Y-134165855D01*
X182183584Y-134146368D01*
X182273183Y-134130794D01*
X182348019Y-134119176D01*
X182407863Y-134111552D01*
X182434526Y-134109060D01*
X182501012Y-134103950D01*
X182506089Y-134131010D01*
X182506283Y-134164086D01*
X182496917Y-134208229D01*
X182478312Y-134262082D01*
X182470627Y-134280750D01*
X182460484Y-134304392D01*
X182453081Y-134321326D01*
X182450385Y-134327157D01*
X182441954Y-134329360D01*
X182419058Y-134333296D01*
X182382995Y-134338800D01*
X182335062Y-134345705D01*
X182276554Y-134353845D01*
X182208769Y-134363054D01*
X182133003Y-134373166D01*
X182050553Y-134384013D01*
X181962716Y-134395429D01*
X181870788Y-134407249D01*
X181776066Y-134419305D01*
X181679846Y-134431432D01*
X181583426Y-134443463D01*
X181488102Y-134455232D01*
X181395171Y-134466571D01*
X181305929Y-134477316D01*
X181221674Y-134487300D01*
X181143701Y-134496355D01*
X181073307Y-134504317D01*
X181046750Y-134507247D01*
X180984130Y-134514154D01*
X180926744Y-134520597D01*
X180876445Y-134526359D01*
X180835091Y-134531222D01*
X180804536Y-134534969D01*
X180786635Y-134537383D01*
X180782635Y-134538156D01*
X180784309Y-134546025D01*
X180790327Y-134566567D01*
X180799949Y-134597416D01*
X180812438Y-134636206D01*
X180827054Y-134680571D01*
X180827679Y-134682448D01*
X180847259Y-134742689D01*
X180866060Y-134803807D01*
X180884571Y-134867691D01*
X180903285Y-134936229D01*
X180922691Y-135011308D01*
X180943281Y-135094817D01*
X180965544Y-135188644D01*
X180989973Y-135294678D01*
X181011050Y-135387982D01*
X181031698Y-135479792D01*
X181049464Y-135558156D01*
X181064851Y-135625137D01*
X181078364Y-135682800D01*
X181090507Y-135733208D01*
X181101786Y-135778424D01*
X181112703Y-135820511D01*
X181123765Y-135861534D01*
X181135476Y-135903555D01*
X181146906Y-135943656D01*
X181166699Y-136010288D01*
X181184707Y-136065184D01*
X181202450Y-136112136D01*
X181221442Y-136154935D01*
X181243200Y-136197375D01*
X181261181Y-136229406D01*
X181295182Y-136289616D01*
X181321405Y-136339218D01*
X181341029Y-136380710D01*
X181355236Y-136416589D01*
X181365205Y-136449352D01*
X181365308Y-136449750D01*
X181372700Y-136492826D01*
X181373841Y-136536256D01*
X181369303Y-136576751D01*
X181359663Y-136611025D01*
X181345492Y-136635791D01*
X181330915Y-136646691D01*
X181299034Y-136652817D01*
X181258732Y-136651740D01*
X181215601Y-136643714D01*
X181206320Y-136641051D01*
X181169959Y-136623260D01*
X181132408Y-136593248D01*
X181096798Y-136554070D01*
X181066258Y-136508783D01*
X181060996Y-136499188D01*
X181048177Y-136472949D01*
X181031803Y-136436643D01*
X181013967Y-136395038D01*
X180996763Y-136352905D01*
X180996540Y-136352344D01*
X180979386Y-136309617D01*
X180958170Y-136257599D01*
X180935073Y-136201596D01*
X180912278Y-136146914D01*
X180901595Y-136121534D01*
X180861368Y-136023662D01*
X180817380Y-135911500D01*
X180769544Y-135784819D01*
X180717777Y-135643394D01*
X180661994Y-135486997D01*
X180629466Y-135394217D01*
X180585775Y-135268977D01*
X180546939Y-135157832D01*
X180512633Y-135059867D01*
X180482538Y-134974170D01*
X180456330Y-134899827D01*
X180433687Y-134835925D01*
X180414287Y-134781550D01*
X180397808Y-134735789D01*
X180383927Y-134697730D01*
X180380907Y-134689531D01*
X180345737Y-134594281D01*
X180307259Y-134595618D01*
X180288284Y-134596934D01*
X180255728Y-134599921D01*
X180211771Y-134604334D01*
X180158589Y-134609924D01*
X180098362Y-134616445D01*
X180033267Y-134623650D01*
X179965484Y-134631293D01*
X179897189Y-134639127D01*
X179830562Y-134646904D01*
X179767781Y-134654378D01*
X179711023Y-134661302D01*
X179662468Y-134667429D01*
X179624293Y-134672513D01*
X179607984Y-134674854D01*
X179518687Y-134688223D01*
X179518687Y-134733342D01*
X179520066Y-134756121D01*
X179523886Y-134790904D01*
X179529672Y-134834092D01*
X179536951Y-134882086D01*
X179543356Y-134920528D01*
X179555153Y-134993899D01*
X179563133Y-135057684D01*
X179567885Y-135117545D01*
X179569952Y-135176218D01*
X179571120Y-135223827D01*
X179572927Y-135257923D01*
X179575638Y-135280867D01*
X179579515Y-135295015D01*
X179583982Y-135301946D01*
X179594843Y-135310737D01*
X179616070Y-135326295D01*
X179644817Y-135346587D01*
X179678239Y-135369580D01*
X179686042Y-135374870D01*
X179733967Y-135408983D01*
X179769599Y-135438992D01*
X179795038Y-135467497D01*
X179812382Y-135497094D01*
X179823730Y-135530383D01*
X179828093Y-135550750D01*
X179832772Y-135608621D01*
X179824130Y-135657885D01*
X179802171Y-135698523D01*
X179792502Y-135709529D01*
X179761272Y-135737242D01*
X179728235Y-135756655D01*
X179689897Y-135768929D01*
X179642767Y-135775223D01*
X179590125Y-135776734D01*
X179542818Y-135775622D01*
X179499485Y-135772066D01*
X179456331Y-135765343D01*
X179409563Y-135754735D01*
X179355389Y-135739519D01*
X179295540Y-135720766D01*
X179210303Y-135693210D01*
X179198325Y-135639839D01*
X179181141Y-135557270D01*
X179163872Y-135463085D01*
X179147212Y-135361523D01*
X179131856Y-135256824D01*
X179118497Y-135153227D01*
X179118102Y-135149906D01*
X179114188Y-135115360D01*
X179109622Y-135072570D01*
X179104679Y-135024375D01*
X179099630Y-134973613D01*
X179094748Y-134923123D01*
X179090305Y-134875744D01*
X179086576Y-134834316D01*
X179083831Y-134801676D01*
X179082344Y-134780664D01*
X179082157Y-134775644D01*
X179076469Y-134772077D01*
X179058601Y-134773018D01*
X179027286Y-134778576D01*
X179013384Y-134781530D01*
X178989560Y-134787064D01*
X178956320Y-134795234D01*
X178916338Y-134805336D01*
X178872290Y-134816665D01*
X178826850Y-134828518D01*
X178782696Y-134840192D01*
X178742500Y-134850982D01*
X178708940Y-134860184D01*
X178684689Y-134867096D01*
X178672424Y-134871012D01*
X178671510Y-134871468D01*
X178673497Y-134878992D01*
X178680400Y-134897523D01*
X178690865Y-134923485D01*
X178694259Y-134931621D01*
X178725965Y-135027114D01*
X178744042Y-135129208D01*
X178748485Y-135236350D01*
X178739287Y-135346991D01*
X178716444Y-135459581D01*
X178696407Y-135526767D01*
X178645640Y-135654675D01*
X178580874Y-135778186D01*
X178503552Y-135895404D01*
X178415119Y-136004434D01*
X178317020Y-136103381D01*
X178210699Y-136190350D01*
X178167629Y-136220405D01*
X178028256Y-136303618D01*
X177880127Y-136373645D01*
X177723355Y-136430467D01*
X177558052Y-136474063D01*
X177384329Y-136504415D01*
X177202300Y-136521503D01*
X177012077Y-136525309D01*
X176813771Y-136515812D01*
X176607496Y-136492993D01*
X176593718Y-136491035D01*
X176421689Y-136462165D01*
X176264323Y-136427234D01*
X176121608Y-136386239D01*
X175993535Y-136339176D01*
X175924574Y-136308437D01*
X175847257Y-136269437D01*
X175782124Y-136231978D01*
X175725908Y-136193947D01*
X175675345Y-136153229D01*
X175651973Y-136131968D01*
X175606157Y-136084586D01*
X175572826Y-136039788D01*
X175549765Y-135994174D01*
X175537689Y-135956659D01*
X175533356Y-135937921D01*
X175964114Y-135937921D01*
X175971085Y-135974101D01*
X175986875Y-136006992D01*
X176013269Y-136040585D01*
X176042829Y-136070277D01*
X176094675Y-136111554D01*
X176160419Y-136151469D01*
X176238096Y-136189359D01*
X176325745Y-136224560D01*
X176421401Y-136256411D01*
X176523103Y-136284249D01*
X176628888Y-136307410D01*
X176736792Y-136325232D01*
X176828956Y-136335710D01*
X176888485Y-136340426D01*
X176937848Y-136342767D01*
X176982578Y-136342743D01*
X177028203Y-136340365D01*
X177075080Y-136336172D01*
X177208172Y-136316317D01*
X177339600Y-136284392D01*
X177468099Y-136241285D01*
X177592406Y-136187884D01*
X177711255Y-136125077D01*
X177823382Y-136053752D01*
X177927522Y-135974796D01*
X178022412Y-135889097D01*
X178106785Y-135797543D01*
X178179378Y-135701021D01*
X178238927Y-135600420D01*
X178284166Y-135496628D01*
X178288460Y-135484332D01*
X178308660Y-135417745D01*
X178321416Y-135356148D01*
X178327892Y-135292372D01*
X178329329Y-135232359D01*
X178321321Y-135126091D01*
X178297668Y-135022459D01*
X178272454Y-134953000D01*
X178257719Y-134918134D01*
X178247284Y-134895732D01*
X178239207Y-134883663D01*
X178231548Y-134879795D01*
X178222368Y-134881994D01*
X178212271Y-134886865D01*
X178194124Y-134893884D01*
X178165525Y-134902714D01*
X178131543Y-134911834D01*
X178117718Y-134915191D01*
X177968290Y-134950357D01*
X177833226Y-134982303D01*
X177711417Y-135011348D01*
X177601750Y-135037811D01*
X177503115Y-135062011D01*
X177414402Y-135084267D01*
X177334498Y-135104896D01*
X177262294Y-135124219D01*
X177196679Y-135142554D01*
X177136541Y-135160219D01*
X177080770Y-135177534D01*
X177028255Y-135194816D01*
X176977885Y-135212386D01*
X176928549Y-135230562D01*
X176879135Y-135249663D01*
X176828535Y-135270006D01*
X176775635Y-135291912D01*
X176719326Y-135315699D01*
X176713675Y-135318104D01*
X176579852Y-135376976D01*
X176461023Y-135433306D01*
X176356572Y-135487447D01*
X176265883Y-135539754D01*
X176188341Y-135590580D01*
X176123332Y-135640278D01*
X176073812Y-135685560D01*
X176028262Y-135736286D01*
X175995973Y-135783901D01*
X175975476Y-135831205D01*
X175965299Y-135881001D01*
X175964177Y-135894463D01*
X175964114Y-135937921D01*
X175533356Y-135937921D01*
X175531349Y-135929244D01*
X175528898Y-135907394D01*
X175530311Y-135884610D01*
X175535567Y-135854395D01*
X175537299Y-135845798D01*
X175555651Y-135782298D01*
X175585229Y-135713038D01*
X175624213Y-135641307D01*
X175670786Y-135570394D01*
X175723129Y-135503587D01*
X175732451Y-135492896D01*
X175783873Y-135442085D01*
X175849127Y-135389478D01*
X175926438Y-135336173D01*
X176014030Y-135283267D01*
X176110125Y-135231858D01*
X176212948Y-135183043D01*
X176281582Y-135153621D01*
X176349074Y-135126793D01*
X176418758Y-135101011D01*
X176491840Y-135075959D01*
X176569521Y-135051321D01*
X176653008Y-135026781D01*
X176743503Y-135002022D01*
X176842211Y-134976726D01*
X176950336Y-134950579D01*
X177069083Y-134923263D01*
X177199654Y-134894462D01*
X177343255Y-134863859D01*
X177501090Y-134831138D01*
X177534312Y-134824344D01*
X177642775Y-134802036D01*
X177743765Y-134780919D01*
X177835983Y-134761277D01*
X177918133Y-134743392D01*
X177988916Y-134727549D01*
X178047035Y-134714030D01*
X178091192Y-134703119D01*
X178100209Y-134700750D01*
X178130325Y-134692699D01*
X178104240Y-134659365D01*
X178081503Y-134632426D01*
X178049308Y-134597196D01*
X178009997Y-134556002D01*
X177965909Y-134511175D01*
X177919386Y-134465043D01*
X177872769Y-134419937D01*
X177828397Y-134378184D01*
X177788613Y-134342116D01*
X177764500Y-134321289D01*
X177579732Y-134176124D01*
X177381772Y-134039567D01*
X177170842Y-133911737D01*
X176947165Y-133792754D01*
X176710962Y-133682739D01*
X176462458Y-133581809D01*
X176244468Y-133504171D01*
X176180612Y-133483075D01*
X176119783Y-133463628D01*
X176059728Y-133445202D01*
X175998192Y-133427169D01*
X175932921Y-133408903D01*
X175861661Y-133389773D01*
X175782158Y-133369154D01*
X175692158Y-133346416D01*
X175589406Y-133320932D01*
X175565812Y-133315127D01*
X175456804Y-133288177D01*
X175360975Y-133264095D01*
X175276017Y-133242244D01*
X175199627Y-133221988D01*
X175129498Y-133202690D01*
X175063325Y-133183715D01*
X174998803Y-133164425D01*
X174933625Y-133144184D01*
X174865487Y-133122357D01*
X174854466Y-133118775D01*
X174800028Y-133101244D01*
X174744071Y-133083553D01*
X174690762Y-133066997D01*
X174644270Y-133052871D01*
X174609343Y-133042634D01*
X174512105Y-133013898D01*
X174429483Y-132986808D01*
X174360382Y-132960739D01*
X174303708Y-132935063D01*
X174258365Y-132909155D01*
X174223259Y-132882389D01*
X174197294Y-132854138D01*
X174179375Y-132823776D01*
X174168408Y-132790678D01*
X174168366Y-132790490D01*
X174165293Y-132750166D01*
X174176442Y-132715592D01*
X174196475Y-132689928D01*
X174226204Y-132666204D01*
X174269927Y-132639915D01*
X174326097Y-132611736D01*
X174393167Y-132582343D01*
X174469591Y-132552410D01*
X174553821Y-132522615D01*
X174644312Y-132493631D01*
X174649834Y-132491955D01*
X174707619Y-132474922D01*
X174778626Y-132454741D01*
X174860645Y-132431987D01*
X174951465Y-132407237D01*
X175048877Y-132381069D01*
X175150671Y-132354060D01*
X175254637Y-132326785D01*
X175358565Y-132299823D01*
X175460245Y-132273751D01*
X175557468Y-132249144D01*
X175648022Y-132226580D01*
X175729699Y-132206637D01*
X175800289Y-132189890D01*
X175851562Y-132178237D01*
X176072209Y-132132443D01*
X176282665Y-132094832D01*
X176486117Y-132065033D01*
X176685748Y-132042679D01*
X176884745Y-132027401D01*
X177086292Y-132018831D01*
X177248562Y-132016562D01*
X177482718Y-132016034D01*
X177601781Y-132081526D01*
D12*
X225320000Y-104200000D03*
D13*
X228820000Y-106900000D03*
D14*
X226970000Y-106900000D03*
X227620000Y-106900000D03*
X225020000Y-106900000D03*
X225670000Y-106900000D03*
X226320000Y-106900000D03*
D13*
X223820000Y-106900000D03*
D12*
X227320000Y-104200000D03*
D15*
X229820000Y-104200000D03*
X222820000Y-104200000D03*
D16*
X223420000Y-104200000D03*
X229220000Y-104200000D03*
D17*
X174160000Y-143170000D03*
X167810000Y-145710000D03*
X193160000Y-143170000D03*
X186810000Y-145710000D03*
X212160000Y-143170000D03*
X205810000Y-145710000D03*
X174160000Y-162170000D03*
X167810000Y-164710000D03*
X212160000Y-162170000D03*
X205810000Y-164710000D03*
X231160000Y-143170000D03*
X224810000Y-145710000D03*
X193160000Y-162170000D03*
X186810000Y-164710000D03*
X231160000Y-162170000D03*
X224810000Y-164710000D03*
D18*
X227932000Y-138706000D03*
X229832000Y-138706000D03*
X227932000Y-139456000D03*
X229832000Y-139456000D03*
X227932000Y-140206000D03*
X229832000Y-140206000D03*
X208628000Y-138706000D03*
X210528000Y-138706000D03*
X208628000Y-139456000D03*
X210528000Y-139456000D03*
X208628000Y-140206000D03*
X210528000Y-140206000D03*
X189578000Y-138706000D03*
X191478000Y-138706000D03*
X189578000Y-139456000D03*
X191478000Y-139456000D03*
X189578000Y-140206000D03*
X191478000Y-140206000D03*
D19*
X217120000Y-123450000D03*
X217120000Y-121450000D03*
X217120000Y-119450000D03*
X217120000Y-117450000D03*
X217120000Y-129450000D03*
X217120000Y-125450000D03*
X217120000Y-131450000D03*
X217120000Y-127450000D03*
X217120000Y-115450000D03*
X217120000Y-113450000D03*
D20*
X221120000Y-133450000D03*
X223120000Y-133450000D03*
X225120000Y-133450000D03*
X227120000Y-133450000D03*
X229120000Y-133450000D03*
X231120000Y-133450000D03*
D19*
X235120000Y-119450000D03*
X235120000Y-117450000D03*
X235120000Y-121450000D03*
X235120000Y-123450000D03*
X235120000Y-115450000D03*
X235120000Y-113450000D03*
X235120000Y-129450000D03*
X235120000Y-131450000D03*
X235120000Y-125450000D03*
X235120000Y-127450000D03*
D20*
X224120000Y-111450000D03*
X228120000Y-111450000D03*
X222120000Y-111450000D03*
X226120000Y-111450000D03*
X230120000Y-111450000D03*
D18*
X170340000Y-138718000D03*
X172240000Y-138718000D03*
X170340000Y-139468000D03*
X172240000Y-139468000D03*
X170340000Y-140218000D03*
X172240000Y-140218000D03*
X172428000Y-159510000D03*
X170528000Y-159510000D03*
X172428000Y-158760000D03*
X170528000Y-158760000D03*
X172428000Y-158010000D03*
X170528000Y-158010000D03*
X191732000Y-159510000D03*
X189832000Y-159510000D03*
X191732000Y-158760000D03*
X189832000Y-158760000D03*
X191732000Y-158010000D03*
X189832000Y-158010000D03*
X210340000Y-159498000D03*
X208440000Y-159498000D03*
X210340000Y-158748000D03*
X208440000Y-158748000D03*
X210340000Y-157998000D03*
X208440000Y-157998000D03*
X229832000Y-159510000D03*
X227932000Y-159510000D03*
X229832000Y-158760000D03*
X227932000Y-158760000D03*
X229832000Y-158010000D03*
X227932000Y-158010000D03*
D21*
X168446000Y-135646000D03*
X170446000Y-135646000D03*
D22*
X234724000Y-159252000D03*
X234724000Y-157252000D03*
D23*
X236610000Y-136662000D03*
X235498800Y-136662000D03*
X234425600Y-136662000D03*
M02*
