G04 #@! TF.FileFunction,Copper,L1,Top,Signal*
%FSLAX46Y46*%
G04 Gerber Fmt 4.6, Leading zero omitted, Abs format (unit mm)*
G04 Created by KiCad (PCBNEW 4.0.4-stable) date 07/06/18 22:48:26*
%MOMM*%
%LPD*%
G01*
G04 APERTURE LIST*
%ADD10C,0.100000*%
%ADD11R,1.500000X1.900000*%
%ADD12C,1.450000*%
%ADD13R,0.400000X1.350000*%
%ADD14O,1.200000X1.900000*%
%ADD15R,1.200000X1.900000*%
%ADD16C,2.286000*%
%ADD17R,0.700000X0.350000*%
%ADD18O,3.000000X1.500000*%
%ADD19O,1.500000X3.000000*%
%ADD20R,1.000000X1.250000*%
%ADD21R,1.250000X1.000000*%
%ADD22R,0.750000X1.500000*%
%ADD23C,0.600000*%
%ADD24C,0.400000*%
%ADD25C,0.200000*%
%ADD26C,0.254000*%
G04 APERTURE END LIST*
D10*
D11*
X225320000Y-104200000D03*
D12*
X228820000Y-106900000D03*
D13*
X226970000Y-106900000D03*
X227620000Y-106900000D03*
X225020000Y-106900000D03*
X225670000Y-106900000D03*
X226320000Y-106900000D03*
D12*
X223820000Y-106900000D03*
D11*
X227320000Y-104200000D03*
D14*
X229820000Y-104200000D03*
X222820000Y-104200000D03*
D15*
X223420000Y-104200000D03*
X229220000Y-104200000D03*
D16*
X174160000Y-143170000D03*
X167810000Y-145710000D03*
X193160000Y-143170000D03*
X186810000Y-145710000D03*
X212160000Y-143170000D03*
X205810000Y-145710000D03*
X174160000Y-162170000D03*
X167810000Y-164710000D03*
X212160000Y-162170000D03*
X205810000Y-164710000D03*
X231160000Y-143170000D03*
X224810000Y-145710000D03*
X193160000Y-162170000D03*
X186810000Y-164710000D03*
X231160000Y-162170000D03*
X224810000Y-164710000D03*
D17*
X227932000Y-138706000D03*
X229832000Y-138706000D03*
X227932000Y-139456000D03*
X229832000Y-139456000D03*
X227932000Y-140206000D03*
X229832000Y-140206000D03*
X208628000Y-138706000D03*
X210528000Y-138706000D03*
X208628000Y-139456000D03*
X210528000Y-139456000D03*
X208628000Y-140206000D03*
X210528000Y-140206000D03*
X189578000Y-138706000D03*
X191478000Y-138706000D03*
X189578000Y-139456000D03*
X191478000Y-139456000D03*
X189578000Y-140206000D03*
X191478000Y-140206000D03*
D18*
X217120000Y-123450000D03*
X217120000Y-121450000D03*
X217120000Y-119450000D03*
X217120000Y-117450000D03*
X217120000Y-129450000D03*
X217120000Y-125450000D03*
X217120000Y-131450000D03*
X217120000Y-127450000D03*
X217120000Y-115450000D03*
X217120000Y-113450000D03*
D19*
X221120000Y-133450000D03*
X223120000Y-133450000D03*
X225120000Y-133450000D03*
X227120000Y-133450000D03*
X229120000Y-133450000D03*
X231120000Y-133450000D03*
D18*
X235120000Y-119450000D03*
X235120000Y-117450000D03*
X235120000Y-121450000D03*
X235120000Y-123450000D03*
X235120000Y-115450000D03*
X235120000Y-113450000D03*
X235120000Y-129450000D03*
X235120000Y-131450000D03*
X235120000Y-125450000D03*
X235120000Y-127450000D03*
D19*
X224120000Y-111450000D03*
X228120000Y-111450000D03*
X222120000Y-111450000D03*
X226120000Y-111450000D03*
X230120000Y-111450000D03*
D17*
X170340000Y-138718000D03*
X172240000Y-138718000D03*
X170340000Y-139468000D03*
X172240000Y-139468000D03*
X170340000Y-140218000D03*
X172240000Y-140218000D03*
X172428000Y-159510000D03*
X170528000Y-159510000D03*
X172428000Y-158760000D03*
X170528000Y-158760000D03*
X172428000Y-158010000D03*
X170528000Y-158010000D03*
X191732000Y-159510000D03*
X189832000Y-159510000D03*
X191732000Y-158760000D03*
X189832000Y-158760000D03*
X191732000Y-158010000D03*
X189832000Y-158010000D03*
X210340000Y-159498000D03*
X208440000Y-159498000D03*
X210340000Y-158748000D03*
X208440000Y-158748000D03*
X210340000Y-157998000D03*
X208440000Y-157998000D03*
X229832000Y-159510000D03*
X227932000Y-159510000D03*
X229832000Y-158760000D03*
X227932000Y-158760000D03*
X229832000Y-158010000D03*
X227932000Y-158010000D03*
D20*
X168446000Y-135646000D03*
X170446000Y-135646000D03*
D21*
X234724000Y-159252000D03*
X234724000Y-157252000D03*
D22*
X236610000Y-136662000D03*
X235498800Y-136662000D03*
X234425600Y-136662000D03*
D23*
X237264000Y-131328000D03*
X231168000Y-138694000D03*
X211864000Y-138694000D03*
X192560000Y-138694000D03*
X173256000Y-138694000D03*
X169446000Y-159522000D03*
X188750000Y-159522000D03*
X207292000Y-159522000D03*
X226850000Y-159522000D03*
X205260000Y-128280000D03*
X213649999Y-124170001D03*
X212372000Y-126756000D03*
X213642000Y-127518000D03*
X213896000Y-130566000D03*
X232438000Y-123708000D03*
X232184000Y-127518000D03*
X232946000Y-128534000D03*
X236248000Y-159268000D03*
X236494091Y-138686091D03*
D24*
X235120000Y-131450000D02*
X237142000Y-131450000D01*
X237142000Y-131450000D02*
X237264000Y-131328000D01*
D25*
X229832000Y-138706000D02*
X231156000Y-138706000D01*
X231156000Y-138706000D02*
X231168000Y-138694000D01*
X210528000Y-138706000D02*
X211852000Y-138706000D01*
X211852000Y-138706000D02*
X211864000Y-138694000D01*
X191478000Y-138706000D02*
X192548000Y-138706000D01*
X192548000Y-138706000D02*
X192560000Y-138694000D01*
X172240000Y-138718000D02*
X173232000Y-138718000D01*
X173232000Y-138718000D02*
X173256000Y-138694000D01*
X170528000Y-159510000D02*
X169458000Y-159510000D01*
X169458000Y-159510000D02*
X169446000Y-159522000D01*
X189832000Y-159510000D02*
X188762000Y-159510000D01*
X188762000Y-159510000D02*
X188750000Y-159522000D01*
X208440000Y-159498000D02*
X207316000Y-159498000D01*
X207316000Y-159498000D02*
X207292000Y-159522000D01*
X227932000Y-159510000D02*
X226862000Y-159510000D01*
X226862000Y-159510000D02*
X226850000Y-159522000D01*
X226120000Y-111450000D02*
X226120000Y-109750000D01*
X226120000Y-109750000D02*
X226970000Y-108900000D01*
X226970000Y-108900000D02*
X226970000Y-107775000D01*
X226970000Y-107775000D02*
X226970000Y-106900000D01*
D24*
X219738000Y-134884000D02*
X220415999Y-135561999D01*
X220415999Y-135561999D02*
X236153801Y-135561999D01*
X236153801Y-135561999D02*
X236610000Y-136018198D01*
X236610000Y-136018198D02*
X236610000Y-136662000D01*
X219738000Y-120582000D02*
X219738000Y-134884000D01*
X228120000Y-111450000D02*
X228120000Y-112200000D01*
X228120000Y-112200000D02*
X219738000Y-120582000D01*
D25*
X228120000Y-111450000D02*
X228120000Y-109750000D01*
X228120000Y-109750000D02*
X227620000Y-109250000D01*
X227620000Y-109250000D02*
X227620000Y-107775000D01*
X227620000Y-107775000D02*
X227620000Y-106900000D01*
X226320000Y-106900000D02*
X226320000Y-108500000D01*
X226320000Y-108500000D02*
X224120000Y-110700000D01*
X224120000Y-110700000D02*
X224120000Y-111450000D01*
D24*
X205260000Y-128280000D02*
X211356000Y-122184000D01*
X213636000Y-122184000D02*
X216370000Y-119450000D01*
X211356000Y-122184000D02*
X213636000Y-122184000D01*
X216370000Y-119450000D02*
X217120000Y-119450000D01*
X213649999Y-124170001D02*
X216370000Y-121450000D01*
X216370000Y-121450000D02*
X217120000Y-121450000D01*
X212372000Y-126756000D02*
X215678000Y-123450000D01*
X215678000Y-123450000D02*
X217120000Y-123450000D01*
X213642000Y-127518000D02*
X213941999Y-127218001D01*
X213941999Y-127218001D02*
X214601999Y-127218001D01*
X214601999Y-127218001D02*
X216370000Y-125450000D01*
X216370000Y-125450000D02*
X217120000Y-125450000D01*
X213896000Y-130566000D02*
X214195999Y-130266001D01*
X214195999Y-130266001D02*
X214195999Y-129624001D01*
X214195999Y-129624001D02*
X216370000Y-127450000D01*
X216370000Y-127450000D02*
X217120000Y-127450000D01*
X232438000Y-123708000D02*
X234862000Y-123708000D01*
X234862000Y-123708000D02*
X235120000Y-123450000D01*
X232184000Y-127518000D02*
X234252000Y-125450000D01*
X234252000Y-125450000D02*
X235120000Y-125450000D01*
X232946000Y-128534000D02*
X234030000Y-127450000D01*
X234030000Y-127450000D02*
X235120000Y-127450000D01*
D25*
X227932000Y-139456000D02*
X210528000Y-139456000D01*
X229832000Y-139456000D02*
X236877657Y-139456000D01*
X236877657Y-139456000D02*
X237518000Y-138815657D01*
X237518000Y-138815657D02*
X237518000Y-135920798D01*
X237518000Y-135920798D02*
X236227202Y-134630000D01*
X236227202Y-134630000D02*
X234978000Y-134630000D01*
X234978000Y-134630000D02*
X230914000Y-130566000D01*
X230914000Y-130566000D02*
X230914000Y-114818000D01*
X232282000Y-113450000D02*
X235120000Y-113450000D01*
X230914000Y-114818000D02*
X232282000Y-113450000D01*
X227932000Y-140206000D02*
X210528000Y-140206000D01*
X235120000Y-115450000D02*
X235870000Y-115450000D01*
X235870000Y-115450000D02*
X238026000Y-117606000D01*
X238026000Y-117606000D02*
X238026000Y-138995343D01*
X238026000Y-138995343D02*
X236815343Y-140206000D01*
X236815343Y-140206000D02*
X229832000Y-140206000D01*
X208628000Y-139456000D02*
X191478000Y-139456000D01*
X208628000Y-140206000D02*
X191478000Y-140206000D01*
X189578000Y-139456000D02*
X172252000Y-139456000D01*
X172252000Y-139456000D02*
X172240000Y-139468000D01*
X189578000Y-140206000D02*
X172252000Y-140206000D01*
X172252000Y-140206000D02*
X172240000Y-140218000D01*
D24*
X218976000Y-135392000D02*
X220246000Y-136662000D01*
X220246000Y-136662000D02*
X234425600Y-136662000D01*
X218976000Y-114556000D02*
X218976000Y-135392000D01*
X217120000Y-113450000D02*
X217870000Y-113450000D01*
X217870000Y-113450000D02*
X218976000Y-114556000D01*
D25*
X170340000Y-139468000D02*
X167923012Y-139468000D01*
X167923012Y-139468000D02*
X164523990Y-142867022D01*
X164523990Y-142867022D02*
X164523990Y-153305990D01*
X164523990Y-153305990D02*
X169978000Y-158760000D01*
X169978000Y-158760000D02*
X170528000Y-158760000D01*
X164874000Y-143012000D02*
X167668000Y-140218000D01*
X167668000Y-140218000D02*
X170340000Y-140218000D01*
X164874000Y-152906000D02*
X164874000Y-143012000D01*
X170528000Y-158010000D02*
X169978000Y-158010000D01*
X169978000Y-158010000D02*
X164874000Y-152906000D01*
X172428000Y-158760000D02*
X189832000Y-158760000D01*
X172428000Y-158010000D02*
X189832000Y-158010000D01*
X191732000Y-158760000D02*
X208428000Y-158760000D01*
X208428000Y-158760000D02*
X208440000Y-158748000D01*
X191732000Y-158010000D02*
X208428000Y-158010000D01*
X208428000Y-158010000D02*
X208440000Y-157998000D01*
X210340000Y-158748000D02*
X227920000Y-158748000D01*
X227920000Y-158748000D02*
X227932000Y-158760000D01*
X210340000Y-157998000D02*
X227920000Y-157998000D01*
X227920000Y-157998000D02*
X227932000Y-158010000D01*
X235486000Y-137424000D02*
X235486000Y-137612000D01*
X235486000Y-137424000D02*
X235486000Y-137678000D01*
X235486000Y-136662000D02*
X235486000Y-137424000D01*
X235486000Y-137678000D02*
X236494091Y-138686091D01*
X169216000Y-138718000D02*
X168446000Y-137948000D01*
X168446000Y-137948000D02*
X168446000Y-135646000D01*
X170340000Y-138718000D02*
X169216000Y-138718000D01*
X189578000Y-138706000D02*
X189028000Y-138706000D01*
X189028000Y-138706000D02*
X188465999Y-138143999D01*
X188465999Y-138143999D02*
X171464001Y-138143999D01*
X171464001Y-138143999D02*
X170890000Y-138718000D01*
X208628000Y-138706000D02*
X208078000Y-138706000D01*
X208078000Y-138706000D02*
X207515999Y-138143999D01*
X207515999Y-138143999D02*
X190690001Y-138143999D01*
X190690001Y-138143999D02*
X190128000Y-138706000D01*
X190128000Y-138706000D02*
X189578000Y-138706000D01*
X227932000Y-138706000D02*
X227382000Y-138706000D01*
X227382000Y-138706000D02*
X226819999Y-138143999D01*
X226819999Y-138143999D02*
X209740001Y-138143999D01*
X209740001Y-138143999D02*
X209178000Y-138706000D01*
X209178000Y-138706000D02*
X208628000Y-138706000D01*
X235486000Y-137612000D02*
X234954001Y-138143999D01*
X234954001Y-138143999D02*
X229044001Y-138143999D01*
X229044001Y-138143999D02*
X228482000Y-138706000D01*
X228482000Y-138706000D02*
X227932000Y-138706000D01*
X191732000Y-159510000D02*
X191182000Y-159510000D01*
X191182000Y-159510000D02*
X190619999Y-160072001D01*
X190619999Y-160072001D02*
X173540001Y-160072001D01*
X173540001Y-160072001D02*
X172978000Y-159510000D01*
X172978000Y-159510000D02*
X172428000Y-159510000D01*
X210340000Y-159498000D02*
X209790000Y-159498000D01*
X209790000Y-159498000D02*
X209215999Y-160072001D01*
X209215999Y-160072001D02*
X192844001Y-160072001D01*
X192844001Y-160072001D02*
X192282000Y-159510000D01*
X192282000Y-159510000D02*
X191732000Y-159510000D01*
X210340000Y-159498000D02*
X210890000Y-159498000D01*
X210890000Y-159498000D02*
X211464001Y-160072001D01*
X211464001Y-160072001D02*
X228719999Y-160072001D01*
X228719999Y-160072001D02*
X229282000Y-159510000D01*
X229282000Y-159510000D02*
X229832000Y-159510000D01*
X229832000Y-159510000D02*
X234466000Y-159510000D01*
X234466000Y-159510000D02*
X234724000Y-159252000D01*
X236248000Y-159268000D02*
X234740000Y-159268000D01*
X234740000Y-159268000D02*
X234724000Y-159252000D01*
X170890000Y-138718000D02*
X170340000Y-138718000D01*
D26*
G36*
X236640462Y-102786389D02*
X237505566Y-103364434D01*
X238083612Y-104229539D01*
X238293000Y-105282208D01*
X238293000Y-117340050D01*
X238292579Y-117339420D01*
X236830621Y-115877462D01*
X236853637Y-115843016D01*
X236931813Y-115450000D01*
X236853637Y-115056984D01*
X236631012Y-114723801D01*
X236297829Y-114501176D01*
X236040551Y-114450000D01*
X236297829Y-114398824D01*
X236631012Y-114176199D01*
X236853637Y-113843016D01*
X236931813Y-113450000D01*
X236853637Y-113056984D01*
X236631012Y-112723801D01*
X236297829Y-112501176D01*
X235904813Y-112423000D01*
X234335187Y-112423000D01*
X233942171Y-112501176D01*
X233608988Y-112723801D01*
X233386363Y-113056984D01*
X233383177Y-113073000D01*
X232282000Y-113073000D01*
X232137728Y-113101697D01*
X232015421Y-113183421D01*
X230647421Y-114551421D01*
X230565697Y-114673728D01*
X230537000Y-114818000D01*
X230537000Y-130566000D01*
X230565697Y-130710272D01*
X230647421Y-130832579D01*
X231567831Y-131752989D01*
X231513016Y-131716363D01*
X231120000Y-131638187D01*
X230726984Y-131716363D01*
X230393801Y-131938988D01*
X230171176Y-132272171D01*
X230120000Y-132529449D01*
X230068824Y-132272171D01*
X229846199Y-131938988D01*
X229513016Y-131716363D01*
X229120000Y-131638187D01*
X228726984Y-131716363D01*
X228393801Y-131938988D01*
X228171176Y-132272171D01*
X228120000Y-132529449D01*
X228068824Y-132272171D01*
X227846199Y-131938988D01*
X227513016Y-131716363D01*
X227120000Y-131638187D01*
X226726984Y-131716363D01*
X226393801Y-131938988D01*
X226171176Y-132272171D01*
X226120000Y-132529449D01*
X226068824Y-132272171D01*
X225846199Y-131938988D01*
X225513016Y-131716363D01*
X225120000Y-131638187D01*
X224726984Y-131716363D01*
X224393801Y-131938988D01*
X224171176Y-132272171D01*
X224120000Y-132529449D01*
X224068824Y-132272171D01*
X223846199Y-131938988D01*
X223513016Y-131716363D01*
X223120000Y-131638187D01*
X222726984Y-131716363D01*
X222393801Y-131938988D01*
X222171176Y-132272171D01*
X222120000Y-132529449D01*
X222068824Y-132272171D01*
X221846199Y-131938988D01*
X221513016Y-131716363D01*
X221120000Y-131638187D01*
X220726984Y-131716363D01*
X220393801Y-131938988D01*
X220215000Y-132206584D01*
X220215000Y-120779580D01*
X227797013Y-113197567D01*
X228120000Y-113261813D01*
X228513016Y-113183637D01*
X228846199Y-112961012D01*
X229068824Y-112627829D01*
X229120000Y-112370551D01*
X229171176Y-112627829D01*
X229393801Y-112961012D01*
X229726984Y-113183637D01*
X230120000Y-113261813D01*
X230513016Y-113183637D01*
X230846199Y-112961012D01*
X231068824Y-112627829D01*
X231147000Y-112234813D01*
X231147000Y-110665187D01*
X231068824Y-110272171D01*
X230846199Y-109938988D01*
X230513016Y-109716363D01*
X230120000Y-109638187D01*
X229726984Y-109716363D01*
X229393801Y-109938988D01*
X229171176Y-110272171D01*
X229120000Y-110529449D01*
X229068824Y-110272171D01*
X228846199Y-109938988D01*
X228513016Y-109716363D01*
X228489374Y-109711660D01*
X228468303Y-109605728D01*
X228386579Y-109483421D01*
X227997000Y-109093842D01*
X227997000Y-107790268D01*
X228016927Y-107777445D01*
X228080175Y-107684880D01*
X228098309Y-107595328D01*
X228251672Y-107748959D01*
X228619816Y-107901825D01*
X229018436Y-107902173D01*
X229386846Y-107749949D01*
X229668959Y-107468328D01*
X229821825Y-107100184D01*
X229822173Y-106701564D01*
X229669949Y-106333154D01*
X229388328Y-106051041D01*
X229020184Y-105898175D01*
X228621564Y-105897827D01*
X228253154Y-106050051D01*
X228098548Y-106204388D01*
X228083111Y-106122350D01*
X228022445Y-106028073D01*
X227929880Y-105964825D01*
X227820000Y-105942574D01*
X227420000Y-105942574D01*
X227317350Y-105961889D01*
X227295840Y-105975730D01*
X227279880Y-105964825D01*
X227170000Y-105942574D01*
X226770000Y-105942574D01*
X226667350Y-105961889D01*
X226645840Y-105975730D01*
X226629880Y-105964825D01*
X226520000Y-105942574D01*
X226440335Y-105942574D01*
X226408327Y-105865301D01*
X226229698Y-105686673D01*
X225996309Y-105590000D01*
X225928750Y-105590000D01*
X225770000Y-105748750D01*
X225770000Y-106773000D01*
X225817000Y-106773000D01*
X225817000Y-107027000D01*
X225770000Y-107027000D01*
X225770000Y-108051250D01*
X225928750Y-108210000D01*
X225943000Y-108210000D01*
X225943000Y-108343842D01*
X224547463Y-109739379D01*
X224513016Y-109716363D01*
X224120000Y-109638187D01*
X223726984Y-109716363D01*
X223393801Y-109938988D01*
X223332830Y-110030238D01*
X223009540Y-109630855D01*
X222532684Y-109371827D01*
X222461185Y-109357682D01*
X222247000Y-109480344D01*
X222247000Y-111323000D01*
X222267000Y-111323000D01*
X222267000Y-111577000D01*
X222247000Y-111577000D01*
X222247000Y-113419656D01*
X222461185Y-113542318D01*
X222532684Y-113528173D01*
X223009540Y-113269145D01*
X223332830Y-112869762D01*
X223393801Y-112961012D01*
X223726984Y-113183637D01*
X224120000Y-113261813D01*
X224513016Y-113183637D01*
X224846199Y-112961012D01*
X225068824Y-112627829D01*
X225120000Y-112370551D01*
X225171176Y-112627829D01*
X225393801Y-112961012D01*
X225726984Y-113183637D01*
X226120000Y-113261813D01*
X226449062Y-113196358D01*
X219453000Y-120192420D01*
X219453000Y-114556000D01*
X219416691Y-114373460D01*
X219313290Y-114218710D01*
X218867567Y-113772987D01*
X218931813Y-113450000D01*
X218853637Y-113056984D01*
X218631012Y-112723801D01*
X218297829Y-112501176D01*
X217904813Y-112423000D01*
X216335187Y-112423000D01*
X215942171Y-112501176D01*
X215608988Y-112723801D01*
X215386363Y-113056984D01*
X215308187Y-113450000D01*
X215386363Y-113843016D01*
X215608988Y-114176199D01*
X215942171Y-114398824D01*
X216199449Y-114450000D01*
X215942171Y-114501176D01*
X215608988Y-114723801D01*
X215386363Y-115056984D01*
X215308187Y-115450000D01*
X215386363Y-115843016D01*
X215608988Y-116176199D01*
X215942171Y-116398824D01*
X216199449Y-116450000D01*
X215942171Y-116501176D01*
X215608988Y-116723801D01*
X215386363Y-117056984D01*
X215308187Y-117450000D01*
X215386363Y-117843016D01*
X215608988Y-118176199D01*
X215942171Y-118398824D01*
X216199449Y-118450000D01*
X215942171Y-118501176D01*
X215608988Y-118723801D01*
X215386363Y-119056984D01*
X215308187Y-119450000D01*
X215372433Y-119772987D01*
X213438420Y-121707000D01*
X211356000Y-121707000D01*
X211173460Y-121743309D01*
X211018710Y-121846710D01*
X205162505Y-127702915D01*
X205145731Y-127702900D01*
X204933583Y-127790558D01*
X204771129Y-127952729D01*
X204683100Y-128164724D01*
X204682900Y-128394269D01*
X204770558Y-128606417D01*
X204932729Y-128768871D01*
X205144724Y-128856900D01*
X205374269Y-128857100D01*
X205586417Y-128769442D01*
X205748871Y-128607271D01*
X205836900Y-128395276D01*
X205836915Y-128377665D01*
X211553580Y-122661000D01*
X213636000Y-122661000D01*
X213818540Y-122624691D01*
X213973290Y-122521290D01*
X215373642Y-121120938D01*
X215308187Y-121450000D01*
X215372433Y-121772987D01*
X213552504Y-123592916D01*
X213535730Y-123592901D01*
X213323582Y-123680559D01*
X213161128Y-123842730D01*
X213073099Y-124054725D01*
X213072899Y-124284270D01*
X213160557Y-124496418D01*
X213322728Y-124658872D01*
X213534723Y-124746901D01*
X213706369Y-124747051D01*
X212274505Y-126178915D01*
X212257731Y-126178900D01*
X212045583Y-126266558D01*
X211883129Y-126428729D01*
X211795100Y-126640724D01*
X211794900Y-126870269D01*
X211882558Y-127082417D01*
X212044729Y-127244871D01*
X212256724Y-127332900D01*
X212486269Y-127333100D01*
X212698417Y-127245442D01*
X212860871Y-127083271D01*
X212948900Y-126871276D01*
X212948915Y-126853665D01*
X215619414Y-124183166D01*
X215942171Y-124398824D01*
X216199449Y-124450000D01*
X215942171Y-124501176D01*
X215608988Y-124723801D01*
X215386363Y-125056984D01*
X215308187Y-125450000D01*
X215372433Y-125772987D01*
X214404419Y-126741001D01*
X213941999Y-126741001D01*
X213759459Y-126777310D01*
X213604709Y-126880711D01*
X213544505Y-126940915D01*
X213527731Y-126940900D01*
X213315583Y-127028558D01*
X213153129Y-127190729D01*
X213065100Y-127402724D01*
X213064900Y-127632269D01*
X213152558Y-127844417D01*
X213314729Y-128006871D01*
X213526724Y-128094900D01*
X213756269Y-128095100D01*
X213968417Y-128007442D01*
X214130871Y-127845271D01*
X214193269Y-127695001D01*
X214601999Y-127695001D01*
X214784539Y-127658692D01*
X214939289Y-127555291D01*
X215373642Y-127120938D01*
X215308187Y-127450000D01*
X215372433Y-127772987D01*
X213858709Y-129286711D01*
X213755308Y-129441461D01*
X213718999Y-129624001D01*
X213718999Y-130014820D01*
X213569583Y-130076558D01*
X213407129Y-130238729D01*
X213319100Y-130450724D01*
X213318900Y-130680269D01*
X213406558Y-130892417D01*
X213568729Y-131054871D01*
X213780724Y-131142900D01*
X214010269Y-131143100D01*
X214222417Y-131055442D01*
X214384871Y-130893271D01*
X214472900Y-130681276D01*
X214472915Y-130663665D01*
X214533289Y-130603291D01*
X214636690Y-130448541D01*
X214672999Y-130266001D01*
X214672999Y-129821581D01*
X215373642Y-129120938D01*
X215308187Y-129450000D01*
X215386363Y-129843016D01*
X215608988Y-130176199D01*
X215942171Y-130398824D01*
X216199449Y-130450000D01*
X215942171Y-130501176D01*
X215608988Y-130723801D01*
X215386363Y-131056984D01*
X215308187Y-131450000D01*
X215386363Y-131843016D01*
X215608988Y-132176199D01*
X215942171Y-132398824D01*
X216335187Y-132477000D01*
X217904813Y-132477000D01*
X218297829Y-132398824D01*
X218499000Y-132264406D01*
X218499000Y-135392000D01*
X218535309Y-135574540D01*
X218638710Y-135729290D01*
X219908710Y-136999290D01*
X220063460Y-137102691D01*
X220246000Y-137139000D01*
X233768174Y-137139000D01*
X233768174Y-137412000D01*
X233787489Y-137514650D01*
X233848155Y-137608927D01*
X233940720Y-137672175D01*
X234050600Y-137694426D01*
X234800600Y-137694426D01*
X234886598Y-137678244D01*
X234797843Y-137766999D01*
X229044001Y-137766999D01*
X228899729Y-137795696D01*
X228777421Y-137877420D01*
X228385341Y-138269501D01*
X228282000Y-138248574D01*
X227582000Y-138248574D01*
X227479350Y-138267889D01*
X227477949Y-138268790D01*
X227086578Y-137877420D01*
X226964271Y-137795696D01*
X226819999Y-137766999D01*
X209740001Y-137766999D01*
X209595729Y-137795696D01*
X209473421Y-137877420D01*
X209081341Y-138269501D01*
X208978000Y-138248574D01*
X208278000Y-138248574D01*
X208175350Y-138267889D01*
X208173949Y-138268790D01*
X207782578Y-137877420D01*
X207660271Y-137795696D01*
X207515999Y-137766999D01*
X190690001Y-137766999D01*
X190545729Y-137795696D01*
X190423421Y-137877420D01*
X190031341Y-138269501D01*
X189928000Y-138248574D01*
X189228000Y-138248574D01*
X189125350Y-138267889D01*
X189123949Y-138268790D01*
X188732578Y-137877420D01*
X188610271Y-137795696D01*
X188465999Y-137766999D01*
X171464001Y-137766999D01*
X171319729Y-137795696D01*
X171197422Y-137877420D01*
X170793341Y-138281501D01*
X170690000Y-138260574D01*
X169990000Y-138260574D01*
X169887350Y-138279889D01*
X169793073Y-138340555D01*
X169792769Y-138341000D01*
X169372159Y-138341000D01*
X168823000Y-137791842D01*
X168823000Y-136553426D01*
X168946000Y-136553426D01*
X169048650Y-136534111D01*
X169142927Y-136473445D01*
X169206175Y-136380880D01*
X169228426Y-136271000D01*
X169228426Y-135931750D01*
X169311000Y-135931750D01*
X169311000Y-136397310D01*
X169407673Y-136630699D01*
X169586302Y-136809327D01*
X169819691Y-136906000D01*
X170160250Y-136906000D01*
X170319000Y-136747250D01*
X170319000Y-135773000D01*
X170573000Y-135773000D01*
X170573000Y-136747250D01*
X170731750Y-136906000D01*
X171072309Y-136906000D01*
X171305698Y-136809327D01*
X171484327Y-136630699D01*
X171581000Y-136397310D01*
X171581000Y-135931750D01*
X171422250Y-135773000D01*
X170573000Y-135773000D01*
X170319000Y-135773000D01*
X169469750Y-135773000D01*
X169311000Y-135931750D01*
X169228426Y-135931750D01*
X169228426Y-135021000D01*
X169209111Y-134918350D01*
X169193887Y-134894690D01*
X169311000Y-134894690D01*
X169311000Y-135360250D01*
X169469750Y-135519000D01*
X170319000Y-135519000D01*
X170319000Y-134544750D01*
X170573000Y-134544750D01*
X170573000Y-135519000D01*
X171422250Y-135519000D01*
X171581000Y-135360250D01*
X171581000Y-134894690D01*
X171484327Y-134661301D01*
X171305698Y-134482673D01*
X171072309Y-134386000D01*
X170731750Y-134386000D01*
X170573000Y-134544750D01*
X170319000Y-134544750D01*
X170160250Y-134386000D01*
X169819691Y-134386000D01*
X169586302Y-134482673D01*
X169407673Y-134661301D01*
X169311000Y-134894690D01*
X169193887Y-134894690D01*
X169148445Y-134824073D01*
X169055880Y-134760825D01*
X168946000Y-134738574D01*
X167946000Y-134738574D01*
X167843350Y-134757889D01*
X167749073Y-134818555D01*
X167685825Y-134911120D01*
X167663574Y-135021000D01*
X167663574Y-136271000D01*
X167682889Y-136373650D01*
X167743555Y-136467927D01*
X167836120Y-136531175D01*
X167946000Y-136553426D01*
X168069000Y-136553426D01*
X168069000Y-137948000D01*
X168097697Y-138092272D01*
X168179421Y-138214579D01*
X168949420Y-138984579D01*
X169003666Y-139020825D01*
X169071728Y-139066303D01*
X169195890Y-139091000D01*
X167923012Y-139091000D01*
X167778740Y-139119697D01*
X167656433Y-139201421D01*
X164257411Y-142600443D01*
X164175687Y-142722750D01*
X164146990Y-142867022D01*
X164146990Y-153305990D01*
X164175687Y-153450262D01*
X164257411Y-153572569D01*
X169649908Y-158965066D01*
X169639673Y-158975301D01*
X169543000Y-159208690D01*
X169543000Y-159263750D01*
X169701750Y-159422500D01*
X170401000Y-159422500D01*
X170401000Y-159363000D01*
X170655000Y-159363000D01*
X170655000Y-159422500D01*
X171354250Y-159422500D01*
X171513000Y-159263750D01*
X171513000Y-159208690D01*
X171416327Y-158975301D01*
X171237698Y-158796673D01*
X171160426Y-158764666D01*
X171160426Y-158585000D01*
X171141111Y-158482350D01*
X171080445Y-158388073D01*
X171076391Y-158385303D01*
X171138175Y-158294880D01*
X171160426Y-158185000D01*
X171160426Y-157835000D01*
X171795574Y-157835000D01*
X171795574Y-158185000D01*
X171814889Y-158287650D01*
X171875555Y-158381927D01*
X171879609Y-158384697D01*
X171817825Y-158475120D01*
X171795574Y-158585000D01*
X171795574Y-158935000D01*
X171814889Y-159037650D01*
X171875555Y-159131927D01*
X171879609Y-159134697D01*
X171817825Y-159225120D01*
X171795574Y-159335000D01*
X171795574Y-159685000D01*
X171814889Y-159787650D01*
X171875555Y-159881927D01*
X171968120Y-159945175D01*
X172078000Y-159967426D01*
X172778000Y-159967426D01*
X172880650Y-159948111D01*
X172882051Y-159947209D01*
X173273421Y-160338580D01*
X173395729Y-160420304D01*
X173540001Y-160449001D01*
X190619999Y-160449001D01*
X190764271Y-160420304D01*
X190886578Y-160338580D01*
X191278659Y-159946499D01*
X191382000Y-159967426D01*
X192082000Y-159967426D01*
X192184650Y-159948111D01*
X192186051Y-159947209D01*
X192577421Y-160338580D01*
X192699729Y-160420304D01*
X192844001Y-160449001D01*
X209215999Y-160449001D01*
X209360271Y-160420304D01*
X209482578Y-160338580D01*
X209886659Y-159934499D01*
X209990000Y-159955426D01*
X210690000Y-159955426D01*
X210792650Y-159936111D01*
X210794051Y-159935209D01*
X211197422Y-160338580D01*
X211319729Y-160420304D01*
X211464001Y-160449001D01*
X228719999Y-160449001D01*
X228864271Y-160420304D01*
X228986578Y-160338580D01*
X229378659Y-159946499D01*
X229482000Y-159967426D01*
X230182000Y-159967426D01*
X230284650Y-159948111D01*
X230378927Y-159887445D01*
X230379231Y-159887000D01*
X233856706Y-159887000D01*
X233896555Y-159948927D01*
X233989120Y-160012175D01*
X234099000Y-160034426D01*
X235349000Y-160034426D01*
X235451650Y-160015111D01*
X235545927Y-159954445D01*
X235609175Y-159861880D01*
X235631426Y-159752000D01*
X235631426Y-159645000D01*
X235809053Y-159645000D01*
X235920729Y-159756871D01*
X236132724Y-159844900D01*
X236362269Y-159845100D01*
X236574417Y-159757442D01*
X236736871Y-159595271D01*
X236824900Y-159383276D01*
X236825100Y-159153731D01*
X236737442Y-158941583D01*
X236575271Y-158779129D01*
X236363276Y-158691100D01*
X236133731Y-158690900D01*
X235921583Y-158778558D01*
X235808945Y-158891000D01*
X235631426Y-158891000D01*
X235631426Y-158752000D01*
X235612111Y-158649350D01*
X235551445Y-158555073D01*
X235458880Y-158491825D01*
X235349000Y-158469574D01*
X234099000Y-158469574D01*
X233996350Y-158488889D01*
X233902073Y-158549555D01*
X233838825Y-158642120D01*
X233816574Y-158752000D01*
X233816574Y-159133000D01*
X230381964Y-159133000D01*
X230442175Y-159044880D01*
X230464426Y-158935000D01*
X230464426Y-158585000D01*
X230445111Y-158482350D01*
X230384445Y-158388073D01*
X230380391Y-158385303D01*
X230442175Y-158294880D01*
X230464426Y-158185000D01*
X230464426Y-157835000D01*
X230445111Y-157732350D01*
X230384445Y-157638073D01*
X230291880Y-157574825D01*
X230182000Y-157552574D01*
X229482000Y-157552574D01*
X229379350Y-157571889D01*
X229285073Y-157632555D01*
X229221825Y-157725120D01*
X229199574Y-157835000D01*
X229199574Y-158185000D01*
X229218889Y-158287650D01*
X229279555Y-158381927D01*
X229283609Y-158384697D01*
X229221825Y-158475120D01*
X229199574Y-158585000D01*
X229199574Y-158935000D01*
X229218889Y-159037650D01*
X229279555Y-159131927D01*
X229281323Y-159133135D01*
X229137728Y-159161697D01*
X229015420Y-159243421D01*
X228875843Y-159382998D01*
X228797752Y-159382998D01*
X228917000Y-159263750D01*
X228917000Y-159208690D01*
X228820327Y-158975301D01*
X228641698Y-158796673D01*
X228564426Y-158764666D01*
X228564426Y-158585000D01*
X228545111Y-158482350D01*
X228484445Y-158388073D01*
X228480391Y-158385303D01*
X228542175Y-158294880D01*
X228564426Y-158185000D01*
X228564426Y-157835000D01*
X228545111Y-157732350D01*
X228484445Y-157638073D01*
X228391880Y-157574825D01*
X228282000Y-157552574D01*
X227582000Y-157552574D01*
X227479350Y-157571889D01*
X227403030Y-157621000D01*
X210885021Y-157621000D01*
X210799880Y-157562825D01*
X210690000Y-157540574D01*
X209990000Y-157540574D01*
X209887350Y-157559889D01*
X209793073Y-157620555D01*
X209729825Y-157713120D01*
X209707574Y-157823000D01*
X209707574Y-158173000D01*
X209726889Y-158275650D01*
X209787555Y-158369927D01*
X209791609Y-158372697D01*
X209729825Y-158463120D01*
X209707574Y-158573000D01*
X209707574Y-158923000D01*
X209726889Y-159025650D01*
X209787555Y-159119927D01*
X209789323Y-159121135D01*
X209645728Y-159149697D01*
X209523421Y-159231421D01*
X209383844Y-159370998D01*
X209305752Y-159370998D01*
X209425000Y-159251750D01*
X209425000Y-159196690D01*
X209328327Y-158963301D01*
X209149698Y-158784673D01*
X209072426Y-158752666D01*
X209072426Y-158573000D01*
X209053111Y-158470350D01*
X208992445Y-158376073D01*
X208988391Y-158373303D01*
X209050175Y-158282880D01*
X209072426Y-158173000D01*
X209072426Y-157823000D01*
X209053111Y-157720350D01*
X208992445Y-157626073D01*
X208899880Y-157562825D01*
X208790000Y-157540574D01*
X208090000Y-157540574D01*
X207987350Y-157559889D01*
X207893073Y-157620555D01*
X207884570Y-157633000D01*
X192277021Y-157633000D01*
X192191880Y-157574825D01*
X192082000Y-157552574D01*
X191382000Y-157552574D01*
X191279350Y-157571889D01*
X191185073Y-157632555D01*
X191121825Y-157725120D01*
X191099574Y-157835000D01*
X191099574Y-158185000D01*
X191118889Y-158287650D01*
X191179555Y-158381927D01*
X191183609Y-158384697D01*
X191121825Y-158475120D01*
X191099574Y-158585000D01*
X191099574Y-158935000D01*
X191118889Y-159037650D01*
X191179555Y-159131927D01*
X191181323Y-159133135D01*
X191037728Y-159161697D01*
X190915420Y-159243421D01*
X190775843Y-159382998D01*
X190697752Y-159382998D01*
X190817000Y-159263750D01*
X190817000Y-159208690D01*
X190720327Y-158975301D01*
X190541698Y-158796673D01*
X190464426Y-158764666D01*
X190464426Y-158585000D01*
X190445111Y-158482350D01*
X190384445Y-158388073D01*
X190380391Y-158385303D01*
X190442175Y-158294880D01*
X190464426Y-158185000D01*
X190464426Y-157835000D01*
X190445111Y-157732350D01*
X190384445Y-157638073D01*
X190291880Y-157574825D01*
X190182000Y-157552574D01*
X189482000Y-157552574D01*
X189379350Y-157571889D01*
X189285073Y-157632555D01*
X189284769Y-157633000D01*
X172973021Y-157633000D01*
X172887880Y-157574825D01*
X172778000Y-157552574D01*
X172078000Y-157552574D01*
X171975350Y-157571889D01*
X171881073Y-157632555D01*
X171817825Y-157725120D01*
X171795574Y-157835000D01*
X171160426Y-157835000D01*
X171141111Y-157732350D01*
X171080445Y-157638073D01*
X170987880Y-157574825D01*
X170878000Y-157552574D01*
X170178000Y-157552574D01*
X170075350Y-157571889D01*
X170073949Y-157572791D01*
X170038908Y-157537750D01*
X233464000Y-157537750D01*
X233464000Y-157878309D01*
X233560673Y-158111698D01*
X233739301Y-158290327D01*
X233972690Y-158387000D01*
X234438250Y-158387000D01*
X234597000Y-158228250D01*
X234597000Y-157379000D01*
X234851000Y-157379000D01*
X234851000Y-158228250D01*
X235009750Y-158387000D01*
X235475310Y-158387000D01*
X235708699Y-158290327D01*
X235887327Y-158111698D01*
X235984000Y-157878309D01*
X235984000Y-157537750D01*
X235825250Y-157379000D01*
X234851000Y-157379000D01*
X234597000Y-157379000D01*
X233622750Y-157379000D01*
X233464000Y-157537750D01*
X170038908Y-157537750D01*
X169126849Y-156625691D01*
X233464000Y-156625691D01*
X233464000Y-156966250D01*
X233622750Y-157125000D01*
X234597000Y-157125000D01*
X234597000Y-156275750D01*
X234851000Y-156275750D01*
X234851000Y-157125000D01*
X235825250Y-157125000D01*
X235984000Y-156966250D01*
X235984000Y-156625691D01*
X235887327Y-156392302D01*
X235708699Y-156213673D01*
X235475310Y-156117000D01*
X235009750Y-156117000D01*
X234851000Y-156275750D01*
X234597000Y-156275750D01*
X234438250Y-156117000D01*
X233972690Y-156117000D01*
X233739301Y-156213673D01*
X233560673Y-156392302D01*
X233464000Y-156625691D01*
X169126849Y-156625691D01*
X165251000Y-152749842D01*
X165251000Y-148473369D01*
X165411905Y-148473369D01*
X165583255Y-148888069D01*
X165900262Y-149205630D01*
X166314663Y-149377704D01*
X166763369Y-149378095D01*
X167178069Y-149206745D01*
X167495630Y-148889738D01*
X167574528Y-148699728D01*
X169348706Y-148699728D01*
X169693702Y-149534681D01*
X170331959Y-150174053D01*
X171166308Y-150520505D01*
X172069728Y-150521294D01*
X172904681Y-150176298D01*
X173544053Y-149538041D01*
X173890505Y-148703692D01*
X173890706Y-148473369D01*
X175571905Y-148473369D01*
X175743255Y-148888069D01*
X176060262Y-149205630D01*
X176474663Y-149377704D01*
X176923369Y-149378095D01*
X177338069Y-149206745D01*
X177655630Y-148889738D01*
X177827704Y-148475337D01*
X177827705Y-148473369D01*
X184411905Y-148473369D01*
X184583255Y-148888069D01*
X184900262Y-149205630D01*
X185314663Y-149377704D01*
X185763369Y-149378095D01*
X186178069Y-149206745D01*
X186495630Y-148889738D01*
X186574528Y-148699728D01*
X188348706Y-148699728D01*
X188693702Y-149534681D01*
X189331959Y-150174053D01*
X190166308Y-150520505D01*
X191069728Y-150521294D01*
X191904681Y-150176298D01*
X192544053Y-149538041D01*
X192890505Y-148703692D01*
X192890706Y-148473369D01*
X194571905Y-148473369D01*
X194743255Y-148888069D01*
X195060262Y-149205630D01*
X195474663Y-149377704D01*
X195923369Y-149378095D01*
X196338069Y-149206745D01*
X196655630Y-148889738D01*
X196827704Y-148475337D01*
X196827705Y-148473369D01*
X203411905Y-148473369D01*
X203583255Y-148888069D01*
X203900262Y-149205630D01*
X204314663Y-149377704D01*
X204763369Y-149378095D01*
X205178069Y-149206745D01*
X205495630Y-148889738D01*
X205574528Y-148699728D01*
X207348706Y-148699728D01*
X207693702Y-149534681D01*
X208331959Y-150174053D01*
X209166308Y-150520505D01*
X210069728Y-150521294D01*
X210904681Y-150176298D01*
X211544053Y-149538041D01*
X211890505Y-148703692D01*
X211890706Y-148473369D01*
X213571905Y-148473369D01*
X213743255Y-148888069D01*
X214060262Y-149205630D01*
X214474663Y-149377704D01*
X214923369Y-149378095D01*
X215338069Y-149206745D01*
X215655630Y-148889738D01*
X215827704Y-148475337D01*
X215827705Y-148473369D01*
X222411905Y-148473369D01*
X222583255Y-148888069D01*
X222900262Y-149205630D01*
X223314663Y-149377704D01*
X223763369Y-149378095D01*
X224178069Y-149206745D01*
X224495630Y-148889738D01*
X224574528Y-148699728D01*
X226348706Y-148699728D01*
X226693702Y-149534681D01*
X227331959Y-150174053D01*
X228166308Y-150520505D01*
X229069728Y-150521294D01*
X229904681Y-150176298D01*
X230544053Y-149538041D01*
X230890505Y-148703692D01*
X230890706Y-148473369D01*
X232571905Y-148473369D01*
X232743255Y-148888069D01*
X233060262Y-149205630D01*
X233474663Y-149377704D01*
X233923369Y-149378095D01*
X234338069Y-149206745D01*
X234655630Y-148889738D01*
X234827704Y-148475337D01*
X234828095Y-148026631D01*
X234656745Y-147611931D01*
X234339738Y-147294370D01*
X233925337Y-147122296D01*
X233476631Y-147121905D01*
X233061931Y-147293255D01*
X232744370Y-147610262D01*
X232572296Y-148024663D01*
X232571905Y-148473369D01*
X230890706Y-148473369D01*
X230891294Y-147800272D01*
X230546298Y-146965319D01*
X229908041Y-146325947D01*
X229073692Y-145979495D01*
X228170272Y-145978706D01*
X227335319Y-146323702D01*
X226695947Y-146961959D01*
X226349495Y-147796308D01*
X226348706Y-148699728D01*
X224574528Y-148699728D01*
X224667704Y-148475337D01*
X224668095Y-148026631D01*
X224496745Y-147611931D01*
X224305175Y-147420026D01*
X224511333Y-147498062D01*
X225218329Y-147476249D01*
X225770194Y-147247658D01*
X225886358Y-146965963D01*
X224810000Y-145889605D01*
X223733642Y-146965963D01*
X223804881Y-147138716D01*
X223765337Y-147122296D01*
X223316631Y-147121905D01*
X222901931Y-147293255D01*
X222584370Y-147610262D01*
X222412296Y-148024663D01*
X222411905Y-148473369D01*
X215827705Y-148473369D01*
X215828095Y-148026631D01*
X215656745Y-147611931D01*
X215339738Y-147294370D01*
X214925337Y-147122296D01*
X214476631Y-147121905D01*
X214061931Y-147293255D01*
X213744370Y-147610262D01*
X213572296Y-148024663D01*
X213571905Y-148473369D01*
X211890706Y-148473369D01*
X211891294Y-147800272D01*
X211546298Y-146965319D01*
X210908041Y-146325947D01*
X210073692Y-145979495D01*
X209170272Y-145978706D01*
X208335319Y-146323702D01*
X207695947Y-146961959D01*
X207349495Y-147796308D01*
X207348706Y-148699728D01*
X205574528Y-148699728D01*
X205667704Y-148475337D01*
X205668095Y-148026631D01*
X205496745Y-147611931D01*
X205305175Y-147420026D01*
X205511333Y-147498062D01*
X206218329Y-147476249D01*
X206770194Y-147247658D01*
X206886358Y-146965963D01*
X205810000Y-145889605D01*
X204733642Y-146965963D01*
X204804881Y-147138716D01*
X204765337Y-147122296D01*
X204316631Y-147121905D01*
X203901931Y-147293255D01*
X203584370Y-147610262D01*
X203412296Y-148024663D01*
X203411905Y-148473369D01*
X196827705Y-148473369D01*
X196828095Y-148026631D01*
X196656745Y-147611931D01*
X196339738Y-147294370D01*
X195925337Y-147122296D01*
X195476631Y-147121905D01*
X195061931Y-147293255D01*
X194744370Y-147610262D01*
X194572296Y-148024663D01*
X194571905Y-148473369D01*
X192890706Y-148473369D01*
X192891294Y-147800272D01*
X192546298Y-146965319D01*
X191908041Y-146325947D01*
X191073692Y-145979495D01*
X190170272Y-145978706D01*
X189335319Y-146323702D01*
X188695947Y-146961959D01*
X188349495Y-147796308D01*
X188348706Y-148699728D01*
X186574528Y-148699728D01*
X186667704Y-148475337D01*
X186668095Y-148026631D01*
X186496745Y-147611931D01*
X186305175Y-147420026D01*
X186511333Y-147498062D01*
X187218329Y-147476249D01*
X187770194Y-147247658D01*
X187886358Y-146965963D01*
X186810000Y-145889605D01*
X185733642Y-146965963D01*
X185804881Y-147138716D01*
X185765337Y-147122296D01*
X185316631Y-147121905D01*
X184901931Y-147293255D01*
X184584370Y-147610262D01*
X184412296Y-148024663D01*
X184411905Y-148473369D01*
X177827705Y-148473369D01*
X177828095Y-148026631D01*
X177656745Y-147611931D01*
X177339738Y-147294370D01*
X176925337Y-147122296D01*
X176476631Y-147121905D01*
X176061931Y-147293255D01*
X175744370Y-147610262D01*
X175572296Y-148024663D01*
X175571905Y-148473369D01*
X173890706Y-148473369D01*
X173891294Y-147800272D01*
X173546298Y-146965319D01*
X172908041Y-146325947D01*
X172073692Y-145979495D01*
X171170272Y-145978706D01*
X170335319Y-146323702D01*
X169695947Y-146961959D01*
X169349495Y-147796308D01*
X169348706Y-148699728D01*
X167574528Y-148699728D01*
X167667704Y-148475337D01*
X167668095Y-148026631D01*
X167496745Y-147611931D01*
X167305175Y-147420026D01*
X167511333Y-147498062D01*
X168218329Y-147476249D01*
X168770194Y-147247658D01*
X168886358Y-146965963D01*
X167810000Y-145889605D01*
X166733642Y-146965963D01*
X166804881Y-147138716D01*
X166765337Y-147122296D01*
X166316631Y-147121905D01*
X165901931Y-147293255D01*
X165584370Y-147610262D01*
X165412296Y-148024663D01*
X165411905Y-148473369D01*
X165251000Y-148473369D01*
X165251000Y-145411333D01*
X166021938Y-145411333D01*
X166043751Y-146118329D01*
X166272342Y-146670194D01*
X166554037Y-146786358D01*
X167630395Y-145710000D01*
X167989605Y-145710000D01*
X169065963Y-146786358D01*
X169347658Y-146670194D01*
X169598062Y-146008667D01*
X169579633Y-145411333D01*
X185021938Y-145411333D01*
X185043751Y-146118329D01*
X185272342Y-146670194D01*
X185554037Y-146786358D01*
X186630395Y-145710000D01*
X186989605Y-145710000D01*
X188065963Y-146786358D01*
X188347658Y-146670194D01*
X188598062Y-146008667D01*
X188579633Y-145411333D01*
X204021938Y-145411333D01*
X204043751Y-146118329D01*
X204272342Y-146670194D01*
X204554037Y-146786358D01*
X205630395Y-145710000D01*
X205989605Y-145710000D01*
X207065963Y-146786358D01*
X207347658Y-146670194D01*
X207598062Y-146008667D01*
X207579633Y-145411333D01*
X223021938Y-145411333D01*
X223043751Y-146118329D01*
X223272342Y-146670194D01*
X223554037Y-146786358D01*
X224630395Y-145710000D01*
X224989605Y-145710000D01*
X226065963Y-146786358D01*
X226347658Y-146670194D01*
X226598062Y-146008667D01*
X226576249Y-145301671D01*
X226347658Y-144749806D01*
X226065963Y-144633642D01*
X224989605Y-145710000D01*
X224630395Y-145710000D01*
X223554037Y-144633642D01*
X223272342Y-144749806D01*
X223021938Y-145411333D01*
X207579633Y-145411333D01*
X207576249Y-145301671D01*
X207347658Y-144749806D01*
X207065963Y-144633642D01*
X205989605Y-145710000D01*
X205630395Y-145710000D01*
X204554037Y-144633642D01*
X204272342Y-144749806D01*
X204021938Y-145411333D01*
X188579633Y-145411333D01*
X188576249Y-145301671D01*
X188347658Y-144749806D01*
X188065963Y-144633642D01*
X186989605Y-145710000D01*
X186630395Y-145710000D01*
X185554037Y-144633642D01*
X185272342Y-144749806D01*
X185021938Y-145411333D01*
X169579633Y-145411333D01*
X169576249Y-145301671D01*
X169347658Y-144749806D01*
X169065963Y-144633642D01*
X167989605Y-145710000D01*
X167630395Y-145710000D01*
X166554037Y-144633642D01*
X166272342Y-144749806D01*
X166021938Y-145411333D01*
X165251000Y-145411333D01*
X165251000Y-144454037D01*
X166733642Y-144454037D01*
X167810000Y-145530395D01*
X168886358Y-144454037D01*
X168770194Y-144172342D01*
X168108667Y-143921938D01*
X167401671Y-143943751D01*
X166849806Y-144172342D01*
X166733642Y-144454037D01*
X165251000Y-144454037D01*
X165251000Y-143451216D01*
X172739754Y-143451216D01*
X172955481Y-143973314D01*
X173354585Y-144373115D01*
X173876305Y-144589753D01*
X174441216Y-144590246D01*
X174770866Y-144454037D01*
X185733642Y-144454037D01*
X186810000Y-145530395D01*
X187886358Y-144454037D01*
X187770194Y-144172342D01*
X187108667Y-143921938D01*
X186401671Y-143943751D01*
X185849806Y-144172342D01*
X185733642Y-144454037D01*
X174770866Y-144454037D01*
X174963314Y-144374519D01*
X175363115Y-143975415D01*
X175579753Y-143453695D01*
X175579755Y-143451216D01*
X191739754Y-143451216D01*
X191955481Y-143973314D01*
X192354585Y-144373115D01*
X192876305Y-144589753D01*
X193441216Y-144590246D01*
X193770866Y-144454037D01*
X204733642Y-144454037D01*
X205810000Y-145530395D01*
X206886358Y-144454037D01*
X206770194Y-144172342D01*
X206108667Y-143921938D01*
X205401671Y-143943751D01*
X204849806Y-144172342D01*
X204733642Y-144454037D01*
X193770866Y-144454037D01*
X193963314Y-144374519D01*
X194363115Y-143975415D01*
X194579753Y-143453695D01*
X194579755Y-143451216D01*
X210739754Y-143451216D01*
X210955481Y-143973314D01*
X211354585Y-144373115D01*
X211876305Y-144589753D01*
X212441216Y-144590246D01*
X212770866Y-144454037D01*
X223733642Y-144454037D01*
X224810000Y-145530395D01*
X225886358Y-144454037D01*
X225770194Y-144172342D01*
X225108667Y-143921938D01*
X224401671Y-143943751D01*
X223849806Y-144172342D01*
X223733642Y-144454037D01*
X212770866Y-144454037D01*
X212963314Y-144374519D01*
X213363115Y-143975415D01*
X213579753Y-143453695D01*
X213579755Y-143451216D01*
X229739754Y-143451216D01*
X229955481Y-143973314D01*
X230354585Y-144373115D01*
X230876305Y-144589753D01*
X231441216Y-144590246D01*
X231963314Y-144374519D01*
X232363115Y-143975415D01*
X232579753Y-143453695D01*
X232580246Y-142888784D01*
X232364519Y-142366686D01*
X231965415Y-141966885D01*
X231443695Y-141750247D01*
X230878784Y-141749754D01*
X230356686Y-141965481D01*
X229956885Y-142364585D01*
X229740247Y-142886305D01*
X229739754Y-143451216D01*
X213579755Y-143451216D01*
X213580246Y-142888784D01*
X213364519Y-142366686D01*
X212965415Y-141966885D01*
X212443695Y-141750247D01*
X211878784Y-141749754D01*
X211356686Y-141965481D01*
X210956885Y-142364585D01*
X210740247Y-142886305D01*
X210739754Y-143451216D01*
X194579755Y-143451216D01*
X194580246Y-142888784D01*
X194364519Y-142366686D01*
X193965415Y-141966885D01*
X193443695Y-141750247D01*
X192878784Y-141749754D01*
X192356686Y-141965481D01*
X191956885Y-142364585D01*
X191740247Y-142886305D01*
X191739754Y-143451216D01*
X175579755Y-143451216D01*
X175580246Y-142888784D01*
X175364519Y-142366686D01*
X174965415Y-141966885D01*
X174443695Y-141750247D01*
X173878784Y-141749754D01*
X173356686Y-141965481D01*
X172956885Y-142364585D01*
X172740247Y-142886305D01*
X172739754Y-143451216D01*
X165251000Y-143451216D01*
X165251000Y-143168158D01*
X167824158Y-140595000D01*
X169794979Y-140595000D01*
X169880120Y-140653175D01*
X169990000Y-140675426D01*
X170690000Y-140675426D01*
X170792650Y-140656111D01*
X170886927Y-140595445D01*
X170950175Y-140502880D01*
X170972426Y-140393000D01*
X170972426Y-140043000D01*
X170953111Y-139940350D01*
X170892445Y-139846073D01*
X170888391Y-139843303D01*
X170950175Y-139752880D01*
X170972426Y-139643000D01*
X170972426Y-139293000D01*
X170953111Y-139190350D01*
X170892445Y-139096073D01*
X170890677Y-139094865D01*
X171034272Y-139066303D01*
X171156579Y-138984579D01*
X171296156Y-138845002D01*
X171374248Y-138845002D01*
X171255000Y-138964250D01*
X171255000Y-139019310D01*
X171351673Y-139252699D01*
X171530302Y-139431327D01*
X171607574Y-139463334D01*
X171607574Y-139643000D01*
X171626889Y-139745650D01*
X171687555Y-139839927D01*
X171691609Y-139842697D01*
X171629825Y-139933120D01*
X171607574Y-140043000D01*
X171607574Y-140393000D01*
X171626889Y-140495650D01*
X171687555Y-140589927D01*
X171780120Y-140653175D01*
X171890000Y-140675426D01*
X172590000Y-140675426D01*
X172692650Y-140656111D01*
X172786927Y-140595445D01*
X172795430Y-140583000D01*
X189032979Y-140583000D01*
X189118120Y-140641175D01*
X189228000Y-140663426D01*
X189928000Y-140663426D01*
X190030650Y-140644111D01*
X190124927Y-140583445D01*
X190188175Y-140490880D01*
X190210426Y-140381000D01*
X190210426Y-140031000D01*
X190191111Y-139928350D01*
X190130445Y-139834073D01*
X190126391Y-139831303D01*
X190188175Y-139740880D01*
X190210426Y-139631000D01*
X190210426Y-139281000D01*
X190191111Y-139178350D01*
X190130445Y-139084073D01*
X190128677Y-139082865D01*
X190272272Y-139054303D01*
X190394579Y-138972579D01*
X190534156Y-138833002D01*
X190612248Y-138833002D01*
X190493000Y-138952250D01*
X190493000Y-139007310D01*
X190589673Y-139240699D01*
X190768302Y-139419327D01*
X190845574Y-139451334D01*
X190845574Y-139631000D01*
X190864889Y-139733650D01*
X190925555Y-139827927D01*
X190929609Y-139830697D01*
X190867825Y-139921120D01*
X190845574Y-140031000D01*
X190845574Y-140381000D01*
X190864889Y-140483650D01*
X190925555Y-140577927D01*
X191018120Y-140641175D01*
X191128000Y-140663426D01*
X191828000Y-140663426D01*
X191930650Y-140644111D01*
X192024927Y-140583445D01*
X192025231Y-140583000D01*
X208082979Y-140583000D01*
X208168120Y-140641175D01*
X208278000Y-140663426D01*
X208978000Y-140663426D01*
X209080650Y-140644111D01*
X209174927Y-140583445D01*
X209238175Y-140490880D01*
X209260426Y-140381000D01*
X209260426Y-140031000D01*
X209241111Y-139928350D01*
X209180445Y-139834073D01*
X209176391Y-139831303D01*
X209238175Y-139740880D01*
X209260426Y-139631000D01*
X209260426Y-139281000D01*
X209241111Y-139178350D01*
X209180445Y-139084073D01*
X209178677Y-139082865D01*
X209322272Y-139054303D01*
X209444579Y-138972579D01*
X209584156Y-138833002D01*
X209662248Y-138833002D01*
X209543000Y-138952250D01*
X209543000Y-139007310D01*
X209639673Y-139240699D01*
X209818302Y-139419327D01*
X209895574Y-139451334D01*
X209895574Y-139631000D01*
X209914889Y-139733650D01*
X209975555Y-139827927D01*
X209979609Y-139830697D01*
X209917825Y-139921120D01*
X209895574Y-140031000D01*
X209895574Y-140381000D01*
X209914889Y-140483650D01*
X209975555Y-140577927D01*
X210068120Y-140641175D01*
X210178000Y-140663426D01*
X210878000Y-140663426D01*
X210980650Y-140644111D01*
X211074927Y-140583445D01*
X211075231Y-140583000D01*
X227386979Y-140583000D01*
X227472120Y-140641175D01*
X227582000Y-140663426D01*
X228282000Y-140663426D01*
X228384650Y-140644111D01*
X228478927Y-140583445D01*
X228542175Y-140490880D01*
X228564426Y-140381000D01*
X228564426Y-140031000D01*
X228545111Y-139928350D01*
X228484445Y-139834073D01*
X228480391Y-139831303D01*
X228542175Y-139740880D01*
X228564426Y-139631000D01*
X228564426Y-139281000D01*
X228545111Y-139178350D01*
X228484445Y-139084073D01*
X228482677Y-139082865D01*
X228626272Y-139054303D01*
X228748579Y-138972579D01*
X228888156Y-138833002D01*
X228966248Y-138833002D01*
X228847000Y-138952250D01*
X228847000Y-139007310D01*
X228943673Y-139240699D01*
X229122302Y-139419327D01*
X229199574Y-139451334D01*
X229199574Y-139631000D01*
X229218889Y-139733650D01*
X229279555Y-139827927D01*
X229283609Y-139830697D01*
X229221825Y-139921120D01*
X229199574Y-140031000D01*
X229199574Y-140381000D01*
X229218889Y-140483650D01*
X229279555Y-140577927D01*
X229372120Y-140641175D01*
X229482000Y-140663426D01*
X230182000Y-140663426D01*
X230284650Y-140644111D01*
X230378927Y-140583445D01*
X230379231Y-140583000D01*
X236815343Y-140583000D01*
X236959615Y-140554303D01*
X237081922Y-140472579D01*
X238292580Y-139261922D01*
X238293000Y-139261293D01*
X238293000Y-176217792D01*
X238083612Y-177270461D01*
X237505566Y-178135566D01*
X236640462Y-178713611D01*
X235587793Y-178923000D01*
X164652208Y-178923000D01*
X163599539Y-178713612D01*
X162734434Y-178135566D01*
X162156389Y-177270462D01*
X161953407Y-176250000D01*
X163293000Y-176250000D01*
X163394012Y-176757821D01*
X163681669Y-177188331D01*
X164112179Y-177475988D01*
X164620000Y-177577000D01*
X165127821Y-177475988D01*
X165558331Y-177188331D01*
X165845988Y-176757821D01*
X165947000Y-176250000D01*
X234293000Y-176250000D01*
X234394012Y-176757821D01*
X234681669Y-177188331D01*
X235112179Y-177475988D01*
X235620000Y-177577000D01*
X236127821Y-177475988D01*
X236558331Y-177188331D01*
X236845988Y-176757821D01*
X236947000Y-176250000D01*
X236845988Y-175742179D01*
X236558331Y-175311669D01*
X236127821Y-175024012D01*
X235620000Y-174923000D01*
X235112179Y-175024012D01*
X234681669Y-175311669D01*
X234394012Y-175742179D01*
X234293000Y-176250000D01*
X165947000Y-176250000D01*
X165845988Y-175742179D01*
X165558331Y-175311669D01*
X165127821Y-175024012D01*
X164620000Y-174923000D01*
X164112179Y-175024012D01*
X163681669Y-175311669D01*
X163394012Y-175742179D01*
X163293000Y-176250000D01*
X161953407Y-176250000D01*
X161947000Y-176217793D01*
X161947000Y-167473369D01*
X165411905Y-167473369D01*
X165583255Y-167888069D01*
X165900262Y-168205630D01*
X166314663Y-168377704D01*
X166763369Y-168378095D01*
X167178069Y-168206745D01*
X167495630Y-167889738D01*
X167574528Y-167699728D01*
X169348706Y-167699728D01*
X169693702Y-168534681D01*
X170331959Y-169174053D01*
X171166308Y-169520505D01*
X172069728Y-169521294D01*
X172904681Y-169176298D01*
X173544053Y-168538041D01*
X173890505Y-167703692D01*
X173890706Y-167473369D01*
X175571905Y-167473369D01*
X175743255Y-167888069D01*
X176060262Y-168205630D01*
X176474663Y-168377704D01*
X176923369Y-168378095D01*
X177338069Y-168206745D01*
X177655630Y-167889738D01*
X177827704Y-167475337D01*
X177827705Y-167473369D01*
X184411905Y-167473369D01*
X184583255Y-167888069D01*
X184900262Y-168205630D01*
X185314663Y-168377704D01*
X185763369Y-168378095D01*
X186178069Y-168206745D01*
X186495630Y-167889738D01*
X186574528Y-167699728D01*
X188348706Y-167699728D01*
X188693702Y-168534681D01*
X189331959Y-169174053D01*
X190166308Y-169520505D01*
X191069728Y-169521294D01*
X191904681Y-169176298D01*
X192544053Y-168538041D01*
X192890505Y-167703692D01*
X192890706Y-167473369D01*
X194571905Y-167473369D01*
X194743255Y-167888069D01*
X195060262Y-168205630D01*
X195474663Y-168377704D01*
X195923369Y-168378095D01*
X196338069Y-168206745D01*
X196655630Y-167889738D01*
X196827704Y-167475337D01*
X196827705Y-167473369D01*
X203411905Y-167473369D01*
X203583255Y-167888069D01*
X203900262Y-168205630D01*
X204314663Y-168377704D01*
X204763369Y-168378095D01*
X205178069Y-168206745D01*
X205495630Y-167889738D01*
X205574528Y-167699728D01*
X207348706Y-167699728D01*
X207693702Y-168534681D01*
X208331959Y-169174053D01*
X209166308Y-169520505D01*
X210069728Y-169521294D01*
X210904681Y-169176298D01*
X211544053Y-168538041D01*
X211890505Y-167703692D01*
X211890706Y-167473369D01*
X213571905Y-167473369D01*
X213743255Y-167888069D01*
X214060262Y-168205630D01*
X214474663Y-168377704D01*
X214923369Y-168378095D01*
X215338069Y-168206745D01*
X215655630Y-167889738D01*
X215827704Y-167475337D01*
X215827705Y-167473369D01*
X222411905Y-167473369D01*
X222583255Y-167888069D01*
X222900262Y-168205630D01*
X223314663Y-168377704D01*
X223763369Y-168378095D01*
X224178069Y-168206745D01*
X224495630Y-167889738D01*
X224574528Y-167699728D01*
X226348706Y-167699728D01*
X226693702Y-168534681D01*
X227331959Y-169174053D01*
X228166308Y-169520505D01*
X229069728Y-169521294D01*
X229904681Y-169176298D01*
X230544053Y-168538041D01*
X230890505Y-167703692D01*
X230890706Y-167473369D01*
X232571905Y-167473369D01*
X232743255Y-167888069D01*
X233060262Y-168205630D01*
X233474663Y-168377704D01*
X233923369Y-168378095D01*
X234338069Y-168206745D01*
X234655630Y-167889738D01*
X234827704Y-167475337D01*
X234828095Y-167026631D01*
X234656745Y-166611931D01*
X234339738Y-166294370D01*
X233925337Y-166122296D01*
X233476631Y-166121905D01*
X233061931Y-166293255D01*
X232744370Y-166610262D01*
X232572296Y-167024663D01*
X232571905Y-167473369D01*
X230890706Y-167473369D01*
X230891294Y-166800272D01*
X230546298Y-165965319D01*
X229908041Y-165325947D01*
X229073692Y-164979495D01*
X228170272Y-164978706D01*
X227335319Y-165323702D01*
X226695947Y-165961959D01*
X226349495Y-166796308D01*
X226348706Y-167699728D01*
X224574528Y-167699728D01*
X224667704Y-167475337D01*
X224668095Y-167026631D01*
X224496745Y-166611931D01*
X224305175Y-166420026D01*
X224511333Y-166498062D01*
X225218329Y-166476249D01*
X225770194Y-166247658D01*
X225886358Y-165965963D01*
X224810000Y-164889605D01*
X223733642Y-165965963D01*
X223804881Y-166138716D01*
X223765337Y-166122296D01*
X223316631Y-166121905D01*
X222901931Y-166293255D01*
X222584370Y-166610262D01*
X222412296Y-167024663D01*
X222411905Y-167473369D01*
X215827705Y-167473369D01*
X215828095Y-167026631D01*
X215656745Y-166611931D01*
X215339738Y-166294370D01*
X214925337Y-166122296D01*
X214476631Y-166121905D01*
X214061931Y-166293255D01*
X213744370Y-166610262D01*
X213572296Y-167024663D01*
X213571905Y-167473369D01*
X211890706Y-167473369D01*
X211891294Y-166800272D01*
X211546298Y-165965319D01*
X210908041Y-165325947D01*
X210073692Y-164979495D01*
X209170272Y-164978706D01*
X208335319Y-165323702D01*
X207695947Y-165961959D01*
X207349495Y-166796308D01*
X207348706Y-167699728D01*
X205574528Y-167699728D01*
X205667704Y-167475337D01*
X205668095Y-167026631D01*
X205496745Y-166611931D01*
X205305175Y-166420026D01*
X205511333Y-166498062D01*
X206218329Y-166476249D01*
X206770194Y-166247658D01*
X206886358Y-165965963D01*
X205810000Y-164889605D01*
X204733642Y-165965963D01*
X204804881Y-166138716D01*
X204765337Y-166122296D01*
X204316631Y-166121905D01*
X203901931Y-166293255D01*
X203584370Y-166610262D01*
X203412296Y-167024663D01*
X203411905Y-167473369D01*
X196827705Y-167473369D01*
X196828095Y-167026631D01*
X196656745Y-166611931D01*
X196339738Y-166294370D01*
X195925337Y-166122296D01*
X195476631Y-166121905D01*
X195061931Y-166293255D01*
X194744370Y-166610262D01*
X194572296Y-167024663D01*
X194571905Y-167473369D01*
X192890706Y-167473369D01*
X192891294Y-166800272D01*
X192546298Y-165965319D01*
X191908041Y-165325947D01*
X191073692Y-164979495D01*
X190170272Y-164978706D01*
X189335319Y-165323702D01*
X188695947Y-165961959D01*
X188349495Y-166796308D01*
X188348706Y-167699728D01*
X186574528Y-167699728D01*
X186667704Y-167475337D01*
X186668095Y-167026631D01*
X186496745Y-166611931D01*
X186305175Y-166420026D01*
X186511333Y-166498062D01*
X187218329Y-166476249D01*
X187770194Y-166247658D01*
X187886358Y-165965963D01*
X186810000Y-164889605D01*
X185733642Y-165965963D01*
X185804881Y-166138716D01*
X185765337Y-166122296D01*
X185316631Y-166121905D01*
X184901931Y-166293255D01*
X184584370Y-166610262D01*
X184412296Y-167024663D01*
X184411905Y-167473369D01*
X177827705Y-167473369D01*
X177828095Y-167026631D01*
X177656745Y-166611931D01*
X177339738Y-166294370D01*
X176925337Y-166122296D01*
X176476631Y-166121905D01*
X176061931Y-166293255D01*
X175744370Y-166610262D01*
X175572296Y-167024663D01*
X175571905Y-167473369D01*
X173890706Y-167473369D01*
X173891294Y-166800272D01*
X173546298Y-165965319D01*
X172908041Y-165325947D01*
X172073692Y-164979495D01*
X171170272Y-164978706D01*
X170335319Y-165323702D01*
X169695947Y-165961959D01*
X169349495Y-166796308D01*
X169348706Y-167699728D01*
X167574528Y-167699728D01*
X167667704Y-167475337D01*
X167668095Y-167026631D01*
X167496745Y-166611931D01*
X167305175Y-166420026D01*
X167511333Y-166498062D01*
X168218329Y-166476249D01*
X168770194Y-166247658D01*
X168886358Y-165965963D01*
X167810000Y-164889605D01*
X166733642Y-165965963D01*
X166804881Y-166138716D01*
X166765337Y-166122296D01*
X166316631Y-166121905D01*
X165901931Y-166293255D01*
X165584370Y-166610262D01*
X165412296Y-167024663D01*
X165411905Y-167473369D01*
X161947000Y-167473369D01*
X161947000Y-164411333D01*
X166021938Y-164411333D01*
X166043751Y-165118329D01*
X166272342Y-165670194D01*
X166554037Y-165786358D01*
X167630395Y-164710000D01*
X167989605Y-164710000D01*
X169065963Y-165786358D01*
X169347658Y-165670194D01*
X169598062Y-165008667D01*
X169579633Y-164411333D01*
X185021938Y-164411333D01*
X185043751Y-165118329D01*
X185272342Y-165670194D01*
X185554037Y-165786358D01*
X186630395Y-164710000D01*
X186989605Y-164710000D01*
X188065963Y-165786358D01*
X188347658Y-165670194D01*
X188598062Y-165008667D01*
X188579633Y-164411333D01*
X204021938Y-164411333D01*
X204043751Y-165118329D01*
X204272342Y-165670194D01*
X204554037Y-165786358D01*
X205630395Y-164710000D01*
X205989605Y-164710000D01*
X207065963Y-165786358D01*
X207347658Y-165670194D01*
X207598062Y-165008667D01*
X207579633Y-164411333D01*
X223021938Y-164411333D01*
X223043751Y-165118329D01*
X223272342Y-165670194D01*
X223554037Y-165786358D01*
X224630395Y-164710000D01*
X224989605Y-164710000D01*
X226065963Y-165786358D01*
X226347658Y-165670194D01*
X226598062Y-165008667D01*
X226576249Y-164301671D01*
X226347658Y-163749806D01*
X226065963Y-163633642D01*
X224989605Y-164710000D01*
X224630395Y-164710000D01*
X223554037Y-163633642D01*
X223272342Y-163749806D01*
X223021938Y-164411333D01*
X207579633Y-164411333D01*
X207576249Y-164301671D01*
X207347658Y-163749806D01*
X207065963Y-163633642D01*
X205989605Y-164710000D01*
X205630395Y-164710000D01*
X204554037Y-163633642D01*
X204272342Y-163749806D01*
X204021938Y-164411333D01*
X188579633Y-164411333D01*
X188576249Y-164301671D01*
X188347658Y-163749806D01*
X188065963Y-163633642D01*
X186989605Y-164710000D01*
X186630395Y-164710000D01*
X185554037Y-163633642D01*
X185272342Y-163749806D01*
X185021938Y-164411333D01*
X169579633Y-164411333D01*
X169576249Y-164301671D01*
X169347658Y-163749806D01*
X169065963Y-163633642D01*
X167989605Y-164710000D01*
X167630395Y-164710000D01*
X166554037Y-163633642D01*
X166272342Y-163749806D01*
X166021938Y-164411333D01*
X161947000Y-164411333D01*
X161947000Y-163454037D01*
X166733642Y-163454037D01*
X167810000Y-164530395D01*
X168886358Y-163454037D01*
X168770194Y-163172342D01*
X168108667Y-162921938D01*
X167401671Y-162943751D01*
X166849806Y-163172342D01*
X166733642Y-163454037D01*
X161947000Y-163454037D01*
X161947000Y-162451216D01*
X172739754Y-162451216D01*
X172955481Y-162973314D01*
X173354585Y-163373115D01*
X173876305Y-163589753D01*
X174441216Y-163590246D01*
X174770866Y-163454037D01*
X185733642Y-163454037D01*
X186810000Y-164530395D01*
X187886358Y-163454037D01*
X187770194Y-163172342D01*
X187108667Y-162921938D01*
X186401671Y-162943751D01*
X185849806Y-163172342D01*
X185733642Y-163454037D01*
X174770866Y-163454037D01*
X174963314Y-163374519D01*
X175363115Y-162975415D01*
X175579753Y-162453695D01*
X175579755Y-162451216D01*
X191739754Y-162451216D01*
X191955481Y-162973314D01*
X192354585Y-163373115D01*
X192876305Y-163589753D01*
X193441216Y-163590246D01*
X193770866Y-163454037D01*
X204733642Y-163454037D01*
X205810000Y-164530395D01*
X206886358Y-163454037D01*
X206770194Y-163172342D01*
X206108667Y-162921938D01*
X205401671Y-162943751D01*
X204849806Y-163172342D01*
X204733642Y-163454037D01*
X193770866Y-163454037D01*
X193963314Y-163374519D01*
X194363115Y-162975415D01*
X194579753Y-162453695D01*
X194579755Y-162451216D01*
X210739754Y-162451216D01*
X210955481Y-162973314D01*
X211354585Y-163373115D01*
X211876305Y-163589753D01*
X212441216Y-163590246D01*
X212770866Y-163454037D01*
X223733642Y-163454037D01*
X224810000Y-164530395D01*
X225886358Y-163454037D01*
X225770194Y-163172342D01*
X225108667Y-162921938D01*
X224401671Y-162943751D01*
X223849806Y-163172342D01*
X223733642Y-163454037D01*
X212770866Y-163454037D01*
X212963314Y-163374519D01*
X213363115Y-162975415D01*
X213579753Y-162453695D01*
X213579755Y-162451216D01*
X229739754Y-162451216D01*
X229955481Y-162973314D01*
X230354585Y-163373115D01*
X230876305Y-163589753D01*
X231441216Y-163590246D01*
X231963314Y-163374519D01*
X232363115Y-162975415D01*
X232579753Y-162453695D01*
X232580246Y-161888784D01*
X232364519Y-161366686D01*
X231965415Y-160966885D01*
X231443695Y-160750247D01*
X230878784Y-160749754D01*
X230356686Y-160965481D01*
X229956885Y-161364585D01*
X229740247Y-161886305D01*
X229739754Y-162451216D01*
X213579755Y-162451216D01*
X213580246Y-161888784D01*
X213364519Y-161366686D01*
X212965415Y-160966885D01*
X212443695Y-160750247D01*
X211878784Y-160749754D01*
X211356686Y-160965481D01*
X210956885Y-161364585D01*
X210740247Y-161886305D01*
X210739754Y-162451216D01*
X194579755Y-162451216D01*
X194580246Y-161888784D01*
X194364519Y-161366686D01*
X193965415Y-160966885D01*
X193443695Y-160750247D01*
X192878784Y-160749754D01*
X192356686Y-160965481D01*
X191956885Y-161364585D01*
X191740247Y-161886305D01*
X191739754Y-162451216D01*
X175579755Y-162451216D01*
X175580246Y-161888784D01*
X175364519Y-161366686D01*
X174965415Y-160966885D01*
X174443695Y-160750247D01*
X173878784Y-160749754D01*
X173356686Y-160965481D01*
X172956885Y-161364585D01*
X172740247Y-161886305D01*
X172739754Y-162451216D01*
X161947000Y-162451216D01*
X161947000Y-159756250D01*
X169543000Y-159756250D01*
X169543000Y-159811310D01*
X169639673Y-160044699D01*
X169818302Y-160223327D01*
X170051691Y-160320000D01*
X170242250Y-160320000D01*
X170401000Y-160161250D01*
X170401000Y-159597500D01*
X170655000Y-159597500D01*
X170655000Y-160161250D01*
X170813750Y-160320000D01*
X171004309Y-160320000D01*
X171237698Y-160223327D01*
X171416327Y-160044699D01*
X171513000Y-159811310D01*
X171513000Y-159756250D01*
X171354250Y-159597500D01*
X170655000Y-159597500D01*
X170401000Y-159597500D01*
X169701750Y-159597500D01*
X169543000Y-159756250D01*
X161947000Y-159756250D01*
X161947000Y-136584188D01*
X161953406Y-136551981D01*
X163293000Y-136551981D01*
X163394012Y-137059802D01*
X163681669Y-137490312D01*
X164112179Y-137777969D01*
X164620000Y-137878981D01*
X165127821Y-137777969D01*
X165558331Y-137490312D01*
X165845988Y-137059802D01*
X165947000Y-136551981D01*
X165845988Y-136044160D01*
X165558331Y-135613650D01*
X165127821Y-135325993D01*
X164620000Y-135224981D01*
X164112179Y-135325993D01*
X163681669Y-135613650D01*
X163394012Y-136044160D01*
X163293000Y-136551981D01*
X161953406Y-136551981D01*
X162156389Y-135531519D01*
X162734434Y-134666415D01*
X163617827Y-134076150D01*
X163938512Y-133967292D01*
X211481091Y-121228296D01*
X211490818Y-121223499D01*
X211501567Y-121222084D01*
X211873160Y-121095946D01*
X211910204Y-121074559D01*
X211949722Y-121058190D01*
X212922991Y-120407872D01*
X213013210Y-120317653D01*
X213663529Y-119344383D01*
X213663530Y-119344382D01*
X213695392Y-119267460D01*
X213712356Y-119226507D01*
X213712356Y-119226505D01*
X213940717Y-118078455D01*
X213940717Y-118046248D01*
X213947000Y-118014661D01*
X213947000Y-111577000D01*
X220735000Y-111577000D01*
X220735000Y-112327000D01*
X220889028Y-112847349D01*
X221230460Y-113269145D01*
X221707316Y-113528173D01*
X221778815Y-113542318D01*
X221993000Y-113419656D01*
X221993000Y-111577000D01*
X220735000Y-111577000D01*
X213947000Y-111577000D01*
X213947000Y-110573000D01*
X220735000Y-110573000D01*
X220735000Y-111323000D01*
X221993000Y-111323000D01*
X221993000Y-109480344D01*
X221778815Y-109357682D01*
X221707316Y-109371827D01*
X221230460Y-109630855D01*
X220889028Y-110052651D01*
X220735000Y-110573000D01*
X213947000Y-110573000D01*
X213947000Y-107098436D01*
X222817827Y-107098436D01*
X222970051Y-107466846D01*
X223251672Y-107748959D01*
X223619816Y-107901825D01*
X224018436Y-107902173D01*
X224386846Y-107749949D01*
X224541452Y-107595612D01*
X224556889Y-107677650D01*
X224617555Y-107771927D01*
X224710120Y-107835175D01*
X224820000Y-107857426D01*
X224899665Y-107857426D01*
X224931673Y-107934699D01*
X225110302Y-108113327D01*
X225343691Y-108210000D01*
X225411250Y-108210000D01*
X225570000Y-108051250D01*
X225570000Y-107027000D01*
X225523000Y-107027000D01*
X225523000Y-106773000D01*
X225570000Y-106773000D01*
X225570000Y-105748750D01*
X225411250Y-105590000D01*
X225343691Y-105590000D01*
X225110302Y-105686673D01*
X224931673Y-105865301D01*
X224899665Y-105942574D01*
X224820000Y-105942574D01*
X224717350Y-105961889D01*
X224623073Y-106022555D01*
X224559825Y-106115120D01*
X224541691Y-106204672D01*
X224388328Y-106051041D01*
X224020184Y-105898175D01*
X223621564Y-105897827D01*
X223253154Y-106050051D01*
X222971041Y-106331672D01*
X222818175Y-106699816D01*
X222817827Y-107098436D01*
X213947000Y-107098436D01*
X213947000Y-105282207D01*
X213953406Y-105250000D01*
X215293000Y-105250000D01*
X215394012Y-105757821D01*
X215681669Y-106188331D01*
X216112179Y-106475988D01*
X216620000Y-106577000D01*
X217127821Y-106475988D01*
X217558331Y-106188331D01*
X217845988Y-105757821D01*
X217947000Y-105250000D01*
X217845988Y-104742179D01*
X217558331Y-104311669D01*
X217127821Y-104024012D01*
X216620000Y-103923000D01*
X216112179Y-104024012D01*
X215681669Y-104311669D01*
X215394012Y-104742179D01*
X215293000Y-105250000D01*
X213953406Y-105250000D01*
X214156389Y-104229538D01*
X214426050Y-103825962D01*
X221943000Y-103825962D01*
X221943000Y-104574038D01*
X222009758Y-104909651D01*
X222199867Y-105194171D01*
X222484387Y-105384280D01*
X222820000Y-105451038D01*
X222913568Y-105432426D01*
X224020000Y-105432426D01*
X224122650Y-105413111D01*
X224216927Y-105352445D01*
X224280175Y-105259880D01*
X224294727Y-105188017D01*
X224306889Y-105252650D01*
X224367555Y-105346927D01*
X224460120Y-105410175D01*
X224570000Y-105432426D01*
X226070000Y-105432426D01*
X226172650Y-105413111D01*
X226266927Y-105352445D01*
X226320579Y-105273924D01*
X226367555Y-105346927D01*
X226460120Y-105410175D01*
X226570000Y-105432426D01*
X228070000Y-105432426D01*
X228172650Y-105413111D01*
X228266927Y-105352445D01*
X228330175Y-105259880D01*
X228344727Y-105188017D01*
X228356889Y-105252650D01*
X228417555Y-105346927D01*
X228510120Y-105410175D01*
X228620000Y-105432426D01*
X229726432Y-105432426D01*
X229820000Y-105451038D01*
X230155613Y-105384280D01*
X230356578Y-105250000D01*
X234293000Y-105250000D01*
X234394012Y-105757821D01*
X234681669Y-106188331D01*
X235112179Y-106475988D01*
X235620000Y-106577000D01*
X236127821Y-106475988D01*
X236558331Y-106188331D01*
X236845988Y-105757821D01*
X236947000Y-105250000D01*
X236845988Y-104742179D01*
X236558331Y-104311669D01*
X236127821Y-104024012D01*
X235620000Y-103923000D01*
X235112179Y-104024012D01*
X234681669Y-104311669D01*
X234394012Y-104742179D01*
X234293000Y-105250000D01*
X230356578Y-105250000D01*
X230440133Y-105194171D01*
X230630242Y-104909651D01*
X230697000Y-104574038D01*
X230697000Y-103825962D01*
X230630242Y-103490349D01*
X230440133Y-103205829D01*
X230155613Y-103015720D01*
X229820000Y-102948962D01*
X229726432Y-102967574D01*
X228620000Y-102967574D01*
X228517350Y-102986889D01*
X228423073Y-103047555D01*
X228359825Y-103140120D01*
X228345273Y-103211983D01*
X228333111Y-103147350D01*
X228272445Y-103053073D01*
X228179880Y-102989825D01*
X228070000Y-102967574D01*
X226570000Y-102967574D01*
X226467350Y-102986889D01*
X226373073Y-103047555D01*
X226319421Y-103126076D01*
X226272445Y-103053073D01*
X226179880Y-102989825D01*
X226070000Y-102967574D01*
X224570000Y-102967574D01*
X224467350Y-102986889D01*
X224373073Y-103047555D01*
X224309825Y-103140120D01*
X224295273Y-103211983D01*
X224283111Y-103147350D01*
X224222445Y-103053073D01*
X224129880Y-102989825D01*
X224020000Y-102967574D01*
X222913568Y-102967574D01*
X222820000Y-102948962D01*
X222484387Y-103015720D01*
X222199867Y-103205829D01*
X222009758Y-103490349D01*
X221943000Y-103825962D01*
X214426050Y-103825962D01*
X214734434Y-103364434D01*
X215599539Y-102786388D01*
X216652208Y-102577000D01*
X235587793Y-102577000D01*
X236640462Y-102786389D01*
X236640462Y-102786389D01*
G37*
X236640462Y-102786389D02*
X237505566Y-103364434D01*
X238083612Y-104229539D01*
X238293000Y-105282208D01*
X238293000Y-117340050D01*
X238292579Y-117339420D01*
X236830621Y-115877462D01*
X236853637Y-115843016D01*
X236931813Y-115450000D01*
X236853637Y-115056984D01*
X236631012Y-114723801D01*
X236297829Y-114501176D01*
X236040551Y-114450000D01*
X236297829Y-114398824D01*
X236631012Y-114176199D01*
X236853637Y-113843016D01*
X236931813Y-113450000D01*
X236853637Y-113056984D01*
X236631012Y-112723801D01*
X236297829Y-112501176D01*
X235904813Y-112423000D01*
X234335187Y-112423000D01*
X233942171Y-112501176D01*
X233608988Y-112723801D01*
X233386363Y-113056984D01*
X233383177Y-113073000D01*
X232282000Y-113073000D01*
X232137728Y-113101697D01*
X232015421Y-113183421D01*
X230647421Y-114551421D01*
X230565697Y-114673728D01*
X230537000Y-114818000D01*
X230537000Y-130566000D01*
X230565697Y-130710272D01*
X230647421Y-130832579D01*
X231567831Y-131752989D01*
X231513016Y-131716363D01*
X231120000Y-131638187D01*
X230726984Y-131716363D01*
X230393801Y-131938988D01*
X230171176Y-132272171D01*
X230120000Y-132529449D01*
X230068824Y-132272171D01*
X229846199Y-131938988D01*
X229513016Y-131716363D01*
X229120000Y-131638187D01*
X228726984Y-131716363D01*
X228393801Y-131938988D01*
X228171176Y-132272171D01*
X228120000Y-132529449D01*
X228068824Y-132272171D01*
X227846199Y-131938988D01*
X227513016Y-131716363D01*
X227120000Y-131638187D01*
X226726984Y-131716363D01*
X226393801Y-131938988D01*
X226171176Y-132272171D01*
X226120000Y-132529449D01*
X226068824Y-132272171D01*
X225846199Y-131938988D01*
X225513016Y-131716363D01*
X225120000Y-131638187D01*
X224726984Y-131716363D01*
X224393801Y-131938988D01*
X224171176Y-132272171D01*
X224120000Y-132529449D01*
X224068824Y-132272171D01*
X223846199Y-131938988D01*
X223513016Y-131716363D01*
X223120000Y-131638187D01*
X222726984Y-131716363D01*
X222393801Y-131938988D01*
X222171176Y-132272171D01*
X222120000Y-132529449D01*
X222068824Y-132272171D01*
X221846199Y-131938988D01*
X221513016Y-131716363D01*
X221120000Y-131638187D01*
X220726984Y-131716363D01*
X220393801Y-131938988D01*
X220215000Y-132206584D01*
X220215000Y-120779580D01*
X227797013Y-113197567D01*
X228120000Y-113261813D01*
X228513016Y-113183637D01*
X228846199Y-112961012D01*
X229068824Y-112627829D01*
X229120000Y-112370551D01*
X229171176Y-112627829D01*
X229393801Y-112961012D01*
X229726984Y-113183637D01*
X230120000Y-113261813D01*
X230513016Y-113183637D01*
X230846199Y-112961012D01*
X231068824Y-112627829D01*
X231147000Y-112234813D01*
X231147000Y-110665187D01*
X231068824Y-110272171D01*
X230846199Y-109938988D01*
X230513016Y-109716363D01*
X230120000Y-109638187D01*
X229726984Y-109716363D01*
X229393801Y-109938988D01*
X229171176Y-110272171D01*
X229120000Y-110529449D01*
X229068824Y-110272171D01*
X228846199Y-109938988D01*
X228513016Y-109716363D01*
X228489374Y-109711660D01*
X228468303Y-109605728D01*
X228386579Y-109483421D01*
X227997000Y-109093842D01*
X227997000Y-107790268D01*
X228016927Y-107777445D01*
X228080175Y-107684880D01*
X228098309Y-107595328D01*
X228251672Y-107748959D01*
X228619816Y-107901825D01*
X229018436Y-107902173D01*
X229386846Y-107749949D01*
X229668959Y-107468328D01*
X229821825Y-107100184D01*
X229822173Y-106701564D01*
X229669949Y-106333154D01*
X229388328Y-106051041D01*
X229020184Y-105898175D01*
X228621564Y-105897827D01*
X228253154Y-106050051D01*
X228098548Y-106204388D01*
X228083111Y-106122350D01*
X228022445Y-106028073D01*
X227929880Y-105964825D01*
X227820000Y-105942574D01*
X227420000Y-105942574D01*
X227317350Y-105961889D01*
X227295840Y-105975730D01*
X227279880Y-105964825D01*
X227170000Y-105942574D01*
X226770000Y-105942574D01*
X226667350Y-105961889D01*
X226645840Y-105975730D01*
X226629880Y-105964825D01*
X226520000Y-105942574D01*
X226440335Y-105942574D01*
X226408327Y-105865301D01*
X226229698Y-105686673D01*
X225996309Y-105590000D01*
X225928750Y-105590000D01*
X225770000Y-105748750D01*
X225770000Y-106773000D01*
X225817000Y-106773000D01*
X225817000Y-107027000D01*
X225770000Y-107027000D01*
X225770000Y-108051250D01*
X225928750Y-108210000D01*
X225943000Y-108210000D01*
X225943000Y-108343842D01*
X224547463Y-109739379D01*
X224513016Y-109716363D01*
X224120000Y-109638187D01*
X223726984Y-109716363D01*
X223393801Y-109938988D01*
X223332830Y-110030238D01*
X223009540Y-109630855D01*
X222532684Y-109371827D01*
X222461185Y-109357682D01*
X222247000Y-109480344D01*
X222247000Y-111323000D01*
X222267000Y-111323000D01*
X222267000Y-111577000D01*
X222247000Y-111577000D01*
X222247000Y-113419656D01*
X222461185Y-113542318D01*
X222532684Y-113528173D01*
X223009540Y-113269145D01*
X223332830Y-112869762D01*
X223393801Y-112961012D01*
X223726984Y-113183637D01*
X224120000Y-113261813D01*
X224513016Y-113183637D01*
X224846199Y-112961012D01*
X225068824Y-112627829D01*
X225120000Y-112370551D01*
X225171176Y-112627829D01*
X225393801Y-112961012D01*
X225726984Y-113183637D01*
X226120000Y-113261813D01*
X226449062Y-113196358D01*
X219453000Y-120192420D01*
X219453000Y-114556000D01*
X219416691Y-114373460D01*
X219313290Y-114218710D01*
X218867567Y-113772987D01*
X218931813Y-113450000D01*
X218853637Y-113056984D01*
X218631012Y-112723801D01*
X218297829Y-112501176D01*
X217904813Y-112423000D01*
X216335187Y-112423000D01*
X215942171Y-112501176D01*
X215608988Y-112723801D01*
X215386363Y-113056984D01*
X215308187Y-113450000D01*
X215386363Y-113843016D01*
X215608988Y-114176199D01*
X215942171Y-114398824D01*
X216199449Y-114450000D01*
X215942171Y-114501176D01*
X215608988Y-114723801D01*
X215386363Y-115056984D01*
X215308187Y-115450000D01*
X215386363Y-115843016D01*
X215608988Y-116176199D01*
X215942171Y-116398824D01*
X216199449Y-116450000D01*
X215942171Y-116501176D01*
X215608988Y-116723801D01*
X215386363Y-117056984D01*
X215308187Y-117450000D01*
X215386363Y-117843016D01*
X215608988Y-118176199D01*
X215942171Y-118398824D01*
X216199449Y-118450000D01*
X215942171Y-118501176D01*
X215608988Y-118723801D01*
X215386363Y-119056984D01*
X215308187Y-119450000D01*
X215372433Y-119772987D01*
X213438420Y-121707000D01*
X211356000Y-121707000D01*
X211173460Y-121743309D01*
X211018710Y-121846710D01*
X205162505Y-127702915D01*
X205145731Y-127702900D01*
X204933583Y-127790558D01*
X204771129Y-127952729D01*
X204683100Y-128164724D01*
X204682900Y-128394269D01*
X204770558Y-128606417D01*
X204932729Y-128768871D01*
X205144724Y-128856900D01*
X205374269Y-128857100D01*
X205586417Y-128769442D01*
X205748871Y-128607271D01*
X205836900Y-128395276D01*
X205836915Y-128377665D01*
X211553580Y-122661000D01*
X213636000Y-122661000D01*
X213818540Y-122624691D01*
X213973290Y-122521290D01*
X215373642Y-121120938D01*
X215308187Y-121450000D01*
X215372433Y-121772987D01*
X213552504Y-123592916D01*
X213535730Y-123592901D01*
X213323582Y-123680559D01*
X213161128Y-123842730D01*
X213073099Y-124054725D01*
X213072899Y-124284270D01*
X213160557Y-124496418D01*
X213322728Y-124658872D01*
X213534723Y-124746901D01*
X213706369Y-124747051D01*
X212274505Y-126178915D01*
X212257731Y-126178900D01*
X212045583Y-126266558D01*
X211883129Y-126428729D01*
X211795100Y-126640724D01*
X211794900Y-126870269D01*
X211882558Y-127082417D01*
X212044729Y-127244871D01*
X212256724Y-127332900D01*
X212486269Y-127333100D01*
X212698417Y-127245442D01*
X212860871Y-127083271D01*
X212948900Y-126871276D01*
X212948915Y-126853665D01*
X215619414Y-124183166D01*
X215942171Y-124398824D01*
X216199449Y-124450000D01*
X215942171Y-124501176D01*
X215608988Y-124723801D01*
X215386363Y-125056984D01*
X215308187Y-125450000D01*
X215372433Y-125772987D01*
X214404419Y-126741001D01*
X213941999Y-126741001D01*
X213759459Y-126777310D01*
X213604709Y-126880711D01*
X213544505Y-126940915D01*
X213527731Y-126940900D01*
X213315583Y-127028558D01*
X213153129Y-127190729D01*
X213065100Y-127402724D01*
X213064900Y-127632269D01*
X213152558Y-127844417D01*
X213314729Y-128006871D01*
X213526724Y-128094900D01*
X213756269Y-128095100D01*
X213968417Y-128007442D01*
X214130871Y-127845271D01*
X214193269Y-127695001D01*
X214601999Y-127695001D01*
X214784539Y-127658692D01*
X214939289Y-127555291D01*
X215373642Y-127120938D01*
X215308187Y-127450000D01*
X215372433Y-127772987D01*
X213858709Y-129286711D01*
X213755308Y-129441461D01*
X213718999Y-129624001D01*
X213718999Y-130014820D01*
X213569583Y-130076558D01*
X213407129Y-130238729D01*
X213319100Y-130450724D01*
X213318900Y-130680269D01*
X213406558Y-130892417D01*
X213568729Y-131054871D01*
X213780724Y-131142900D01*
X214010269Y-131143100D01*
X214222417Y-131055442D01*
X214384871Y-130893271D01*
X214472900Y-130681276D01*
X214472915Y-130663665D01*
X214533289Y-130603291D01*
X214636690Y-130448541D01*
X214672999Y-130266001D01*
X214672999Y-129821581D01*
X215373642Y-129120938D01*
X215308187Y-129450000D01*
X215386363Y-129843016D01*
X215608988Y-130176199D01*
X215942171Y-130398824D01*
X216199449Y-130450000D01*
X215942171Y-130501176D01*
X215608988Y-130723801D01*
X215386363Y-131056984D01*
X215308187Y-131450000D01*
X215386363Y-131843016D01*
X215608988Y-132176199D01*
X215942171Y-132398824D01*
X216335187Y-132477000D01*
X217904813Y-132477000D01*
X218297829Y-132398824D01*
X218499000Y-132264406D01*
X218499000Y-135392000D01*
X218535309Y-135574540D01*
X218638710Y-135729290D01*
X219908710Y-136999290D01*
X220063460Y-137102691D01*
X220246000Y-137139000D01*
X233768174Y-137139000D01*
X233768174Y-137412000D01*
X233787489Y-137514650D01*
X233848155Y-137608927D01*
X233940720Y-137672175D01*
X234050600Y-137694426D01*
X234800600Y-137694426D01*
X234886598Y-137678244D01*
X234797843Y-137766999D01*
X229044001Y-137766999D01*
X228899729Y-137795696D01*
X228777421Y-137877420D01*
X228385341Y-138269501D01*
X228282000Y-138248574D01*
X227582000Y-138248574D01*
X227479350Y-138267889D01*
X227477949Y-138268790D01*
X227086578Y-137877420D01*
X226964271Y-137795696D01*
X226819999Y-137766999D01*
X209740001Y-137766999D01*
X209595729Y-137795696D01*
X209473421Y-137877420D01*
X209081341Y-138269501D01*
X208978000Y-138248574D01*
X208278000Y-138248574D01*
X208175350Y-138267889D01*
X208173949Y-138268790D01*
X207782578Y-137877420D01*
X207660271Y-137795696D01*
X207515999Y-137766999D01*
X190690001Y-137766999D01*
X190545729Y-137795696D01*
X190423421Y-137877420D01*
X190031341Y-138269501D01*
X189928000Y-138248574D01*
X189228000Y-138248574D01*
X189125350Y-138267889D01*
X189123949Y-138268790D01*
X188732578Y-137877420D01*
X188610271Y-137795696D01*
X188465999Y-137766999D01*
X171464001Y-137766999D01*
X171319729Y-137795696D01*
X171197422Y-137877420D01*
X170793341Y-138281501D01*
X170690000Y-138260574D01*
X169990000Y-138260574D01*
X169887350Y-138279889D01*
X169793073Y-138340555D01*
X169792769Y-138341000D01*
X169372159Y-138341000D01*
X168823000Y-137791842D01*
X168823000Y-136553426D01*
X168946000Y-136553426D01*
X169048650Y-136534111D01*
X169142927Y-136473445D01*
X169206175Y-136380880D01*
X169228426Y-136271000D01*
X169228426Y-135931750D01*
X169311000Y-135931750D01*
X169311000Y-136397310D01*
X169407673Y-136630699D01*
X169586302Y-136809327D01*
X169819691Y-136906000D01*
X170160250Y-136906000D01*
X170319000Y-136747250D01*
X170319000Y-135773000D01*
X170573000Y-135773000D01*
X170573000Y-136747250D01*
X170731750Y-136906000D01*
X171072309Y-136906000D01*
X171305698Y-136809327D01*
X171484327Y-136630699D01*
X171581000Y-136397310D01*
X171581000Y-135931750D01*
X171422250Y-135773000D01*
X170573000Y-135773000D01*
X170319000Y-135773000D01*
X169469750Y-135773000D01*
X169311000Y-135931750D01*
X169228426Y-135931750D01*
X169228426Y-135021000D01*
X169209111Y-134918350D01*
X169193887Y-134894690D01*
X169311000Y-134894690D01*
X169311000Y-135360250D01*
X169469750Y-135519000D01*
X170319000Y-135519000D01*
X170319000Y-134544750D01*
X170573000Y-134544750D01*
X170573000Y-135519000D01*
X171422250Y-135519000D01*
X171581000Y-135360250D01*
X171581000Y-134894690D01*
X171484327Y-134661301D01*
X171305698Y-134482673D01*
X171072309Y-134386000D01*
X170731750Y-134386000D01*
X170573000Y-134544750D01*
X170319000Y-134544750D01*
X170160250Y-134386000D01*
X169819691Y-134386000D01*
X169586302Y-134482673D01*
X169407673Y-134661301D01*
X169311000Y-134894690D01*
X169193887Y-134894690D01*
X169148445Y-134824073D01*
X169055880Y-134760825D01*
X168946000Y-134738574D01*
X167946000Y-134738574D01*
X167843350Y-134757889D01*
X167749073Y-134818555D01*
X167685825Y-134911120D01*
X167663574Y-135021000D01*
X167663574Y-136271000D01*
X167682889Y-136373650D01*
X167743555Y-136467927D01*
X167836120Y-136531175D01*
X167946000Y-136553426D01*
X168069000Y-136553426D01*
X168069000Y-137948000D01*
X168097697Y-138092272D01*
X168179421Y-138214579D01*
X168949420Y-138984579D01*
X169003666Y-139020825D01*
X169071728Y-139066303D01*
X169195890Y-139091000D01*
X167923012Y-139091000D01*
X167778740Y-139119697D01*
X167656433Y-139201421D01*
X164257411Y-142600443D01*
X164175687Y-142722750D01*
X164146990Y-142867022D01*
X164146990Y-153305990D01*
X164175687Y-153450262D01*
X164257411Y-153572569D01*
X169649908Y-158965066D01*
X169639673Y-158975301D01*
X169543000Y-159208690D01*
X169543000Y-159263750D01*
X169701750Y-159422500D01*
X170401000Y-159422500D01*
X170401000Y-159363000D01*
X170655000Y-159363000D01*
X170655000Y-159422500D01*
X171354250Y-159422500D01*
X171513000Y-159263750D01*
X171513000Y-159208690D01*
X171416327Y-158975301D01*
X171237698Y-158796673D01*
X171160426Y-158764666D01*
X171160426Y-158585000D01*
X171141111Y-158482350D01*
X171080445Y-158388073D01*
X171076391Y-158385303D01*
X171138175Y-158294880D01*
X171160426Y-158185000D01*
X171160426Y-157835000D01*
X171795574Y-157835000D01*
X171795574Y-158185000D01*
X171814889Y-158287650D01*
X171875555Y-158381927D01*
X171879609Y-158384697D01*
X171817825Y-158475120D01*
X171795574Y-158585000D01*
X171795574Y-158935000D01*
X171814889Y-159037650D01*
X171875555Y-159131927D01*
X171879609Y-159134697D01*
X171817825Y-159225120D01*
X171795574Y-159335000D01*
X171795574Y-159685000D01*
X171814889Y-159787650D01*
X171875555Y-159881927D01*
X171968120Y-159945175D01*
X172078000Y-159967426D01*
X172778000Y-159967426D01*
X172880650Y-159948111D01*
X172882051Y-159947209D01*
X173273421Y-160338580D01*
X173395729Y-160420304D01*
X173540001Y-160449001D01*
X190619999Y-160449001D01*
X190764271Y-160420304D01*
X190886578Y-160338580D01*
X191278659Y-159946499D01*
X191382000Y-159967426D01*
X192082000Y-159967426D01*
X192184650Y-159948111D01*
X192186051Y-159947209D01*
X192577421Y-160338580D01*
X192699729Y-160420304D01*
X192844001Y-160449001D01*
X209215999Y-160449001D01*
X209360271Y-160420304D01*
X209482578Y-160338580D01*
X209886659Y-159934499D01*
X209990000Y-159955426D01*
X210690000Y-159955426D01*
X210792650Y-159936111D01*
X210794051Y-159935209D01*
X211197422Y-160338580D01*
X211319729Y-160420304D01*
X211464001Y-160449001D01*
X228719999Y-160449001D01*
X228864271Y-160420304D01*
X228986578Y-160338580D01*
X229378659Y-159946499D01*
X229482000Y-159967426D01*
X230182000Y-159967426D01*
X230284650Y-159948111D01*
X230378927Y-159887445D01*
X230379231Y-159887000D01*
X233856706Y-159887000D01*
X233896555Y-159948927D01*
X233989120Y-160012175D01*
X234099000Y-160034426D01*
X235349000Y-160034426D01*
X235451650Y-160015111D01*
X235545927Y-159954445D01*
X235609175Y-159861880D01*
X235631426Y-159752000D01*
X235631426Y-159645000D01*
X235809053Y-159645000D01*
X235920729Y-159756871D01*
X236132724Y-159844900D01*
X236362269Y-159845100D01*
X236574417Y-159757442D01*
X236736871Y-159595271D01*
X236824900Y-159383276D01*
X236825100Y-159153731D01*
X236737442Y-158941583D01*
X236575271Y-158779129D01*
X236363276Y-158691100D01*
X236133731Y-158690900D01*
X235921583Y-158778558D01*
X235808945Y-158891000D01*
X235631426Y-158891000D01*
X235631426Y-158752000D01*
X235612111Y-158649350D01*
X235551445Y-158555073D01*
X235458880Y-158491825D01*
X235349000Y-158469574D01*
X234099000Y-158469574D01*
X233996350Y-158488889D01*
X233902073Y-158549555D01*
X233838825Y-158642120D01*
X233816574Y-158752000D01*
X233816574Y-159133000D01*
X230381964Y-159133000D01*
X230442175Y-159044880D01*
X230464426Y-158935000D01*
X230464426Y-158585000D01*
X230445111Y-158482350D01*
X230384445Y-158388073D01*
X230380391Y-158385303D01*
X230442175Y-158294880D01*
X230464426Y-158185000D01*
X230464426Y-157835000D01*
X230445111Y-157732350D01*
X230384445Y-157638073D01*
X230291880Y-157574825D01*
X230182000Y-157552574D01*
X229482000Y-157552574D01*
X229379350Y-157571889D01*
X229285073Y-157632555D01*
X229221825Y-157725120D01*
X229199574Y-157835000D01*
X229199574Y-158185000D01*
X229218889Y-158287650D01*
X229279555Y-158381927D01*
X229283609Y-158384697D01*
X229221825Y-158475120D01*
X229199574Y-158585000D01*
X229199574Y-158935000D01*
X229218889Y-159037650D01*
X229279555Y-159131927D01*
X229281323Y-159133135D01*
X229137728Y-159161697D01*
X229015420Y-159243421D01*
X228875843Y-159382998D01*
X228797752Y-159382998D01*
X228917000Y-159263750D01*
X228917000Y-159208690D01*
X228820327Y-158975301D01*
X228641698Y-158796673D01*
X228564426Y-158764666D01*
X228564426Y-158585000D01*
X228545111Y-158482350D01*
X228484445Y-158388073D01*
X228480391Y-158385303D01*
X228542175Y-158294880D01*
X228564426Y-158185000D01*
X228564426Y-157835000D01*
X228545111Y-157732350D01*
X228484445Y-157638073D01*
X228391880Y-157574825D01*
X228282000Y-157552574D01*
X227582000Y-157552574D01*
X227479350Y-157571889D01*
X227403030Y-157621000D01*
X210885021Y-157621000D01*
X210799880Y-157562825D01*
X210690000Y-157540574D01*
X209990000Y-157540574D01*
X209887350Y-157559889D01*
X209793073Y-157620555D01*
X209729825Y-157713120D01*
X209707574Y-157823000D01*
X209707574Y-158173000D01*
X209726889Y-158275650D01*
X209787555Y-158369927D01*
X209791609Y-158372697D01*
X209729825Y-158463120D01*
X209707574Y-158573000D01*
X209707574Y-158923000D01*
X209726889Y-159025650D01*
X209787555Y-159119927D01*
X209789323Y-159121135D01*
X209645728Y-159149697D01*
X209523421Y-159231421D01*
X209383844Y-159370998D01*
X209305752Y-159370998D01*
X209425000Y-159251750D01*
X209425000Y-159196690D01*
X209328327Y-158963301D01*
X209149698Y-158784673D01*
X209072426Y-158752666D01*
X209072426Y-158573000D01*
X209053111Y-158470350D01*
X208992445Y-158376073D01*
X208988391Y-158373303D01*
X209050175Y-158282880D01*
X209072426Y-158173000D01*
X209072426Y-157823000D01*
X209053111Y-157720350D01*
X208992445Y-157626073D01*
X208899880Y-157562825D01*
X208790000Y-157540574D01*
X208090000Y-157540574D01*
X207987350Y-157559889D01*
X207893073Y-157620555D01*
X207884570Y-157633000D01*
X192277021Y-157633000D01*
X192191880Y-157574825D01*
X192082000Y-157552574D01*
X191382000Y-157552574D01*
X191279350Y-157571889D01*
X191185073Y-157632555D01*
X191121825Y-157725120D01*
X191099574Y-157835000D01*
X191099574Y-158185000D01*
X191118889Y-158287650D01*
X191179555Y-158381927D01*
X191183609Y-158384697D01*
X191121825Y-158475120D01*
X191099574Y-158585000D01*
X191099574Y-158935000D01*
X191118889Y-159037650D01*
X191179555Y-159131927D01*
X191181323Y-159133135D01*
X191037728Y-159161697D01*
X190915420Y-159243421D01*
X190775843Y-159382998D01*
X190697752Y-159382998D01*
X190817000Y-159263750D01*
X190817000Y-159208690D01*
X190720327Y-158975301D01*
X190541698Y-158796673D01*
X190464426Y-158764666D01*
X190464426Y-158585000D01*
X190445111Y-158482350D01*
X190384445Y-158388073D01*
X190380391Y-158385303D01*
X190442175Y-158294880D01*
X190464426Y-158185000D01*
X190464426Y-157835000D01*
X190445111Y-157732350D01*
X190384445Y-157638073D01*
X190291880Y-157574825D01*
X190182000Y-157552574D01*
X189482000Y-157552574D01*
X189379350Y-157571889D01*
X189285073Y-157632555D01*
X189284769Y-157633000D01*
X172973021Y-157633000D01*
X172887880Y-157574825D01*
X172778000Y-157552574D01*
X172078000Y-157552574D01*
X171975350Y-157571889D01*
X171881073Y-157632555D01*
X171817825Y-157725120D01*
X171795574Y-157835000D01*
X171160426Y-157835000D01*
X171141111Y-157732350D01*
X171080445Y-157638073D01*
X170987880Y-157574825D01*
X170878000Y-157552574D01*
X170178000Y-157552574D01*
X170075350Y-157571889D01*
X170073949Y-157572791D01*
X170038908Y-157537750D01*
X233464000Y-157537750D01*
X233464000Y-157878309D01*
X233560673Y-158111698D01*
X233739301Y-158290327D01*
X233972690Y-158387000D01*
X234438250Y-158387000D01*
X234597000Y-158228250D01*
X234597000Y-157379000D01*
X234851000Y-157379000D01*
X234851000Y-158228250D01*
X235009750Y-158387000D01*
X235475310Y-158387000D01*
X235708699Y-158290327D01*
X235887327Y-158111698D01*
X235984000Y-157878309D01*
X235984000Y-157537750D01*
X235825250Y-157379000D01*
X234851000Y-157379000D01*
X234597000Y-157379000D01*
X233622750Y-157379000D01*
X233464000Y-157537750D01*
X170038908Y-157537750D01*
X169126849Y-156625691D01*
X233464000Y-156625691D01*
X233464000Y-156966250D01*
X233622750Y-157125000D01*
X234597000Y-157125000D01*
X234597000Y-156275750D01*
X234851000Y-156275750D01*
X234851000Y-157125000D01*
X235825250Y-157125000D01*
X235984000Y-156966250D01*
X235984000Y-156625691D01*
X235887327Y-156392302D01*
X235708699Y-156213673D01*
X235475310Y-156117000D01*
X235009750Y-156117000D01*
X234851000Y-156275750D01*
X234597000Y-156275750D01*
X234438250Y-156117000D01*
X233972690Y-156117000D01*
X233739301Y-156213673D01*
X233560673Y-156392302D01*
X233464000Y-156625691D01*
X169126849Y-156625691D01*
X165251000Y-152749842D01*
X165251000Y-148473369D01*
X165411905Y-148473369D01*
X165583255Y-148888069D01*
X165900262Y-149205630D01*
X166314663Y-149377704D01*
X166763369Y-149378095D01*
X167178069Y-149206745D01*
X167495630Y-148889738D01*
X167574528Y-148699728D01*
X169348706Y-148699728D01*
X169693702Y-149534681D01*
X170331959Y-150174053D01*
X171166308Y-150520505D01*
X172069728Y-150521294D01*
X172904681Y-150176298D01*
X173544053Y-149538041D01*
X173890505Y-148703692D01*
X173890706Y-148473369D01*
X175571905Y-148473369D01*
X175743255Y-148888069D01*
X176060262Y-149205630D01*
X176474663Y-149377704D01*
X176923369Y-149378095D01*
X177338069Y-149206745D01*
X177655630Y-148889738D01*
X177827704Y-148475337D01*
X177827705Y-148473369D01*
X184411905Y-148473369D01*
X184583255Y-148888069D01*
X184900262Y-149205630D01*
X185314663Y-149377704D01*
X185763369Y-149378095D01*
X186178069Y-149206745D01*
X186495630Y-148889738D01*
X186574528Y-148699728D01*
X188348706Y-148699728D01*
X188693702Y-149534681D01*
X189331959Y-150174053D01*
X190166308Y-150520505D01*
X191069728Y-150521294D01*
X191904681Y-150176298D01*
X192544053Y-149538041D01*
X192890505Y-148703692D01*
X192890706Y-148473369D01*
X194571905Y-148473369D01*
X194743255Y-148888069D01*
X195060262Y-149205630D01*
X195474663Y-149377704D01*
X195923369Y-149378095D01*
X196338069Y-149206745D01*
X196655630Y-148889738D01*
X196827704Y-148475337D01*
X196827705Y-148473369D01*
X203411905Y-148473369D01*
X203583255Y-148888069D01*
X203900262Y-149205630D01*
X204314663Y-149377704D01*
X204763369Y-149378095D01*
X205178069Y-149206745D01*
X205495630Y-148889738D01*
X205574528Y-148699728D01*
X207348706Y-148699728D01*
X207693702Y-149534681D01*
X208331959Y-150174053D01*
X209166308Y-150520505D01*
X210069728Y-150521294D01*
X210904681Y-150176298D01*
X211544053Y-149538041D01*
X211890505Y-148703692D01*
X211890706Y-148473369D01*
X213571905Y-148473369D01*
X213743255Y-148888069D01*
X214060262Y-149205630D01*
X214474663Y-149377704D01*
X214923369Y-149378095D01*
X215338069Y-149206745D01*
X215655630Y-148889738D01*
X215827704Y-148475337D01*
X215827705Y-148473369D01*
X222411905Y-148473369D01*
X222583255Y-148888069D01*
X222900262Y-149205630D01*
X223314663Y-149377704D01*
X223763369Y-149378095D01*
X224178069Y-149206745D01*
X224495630Y-148889738D01*
X224574528Y-148699728D01*
X226348706Y-148699728D01*
X226693702Y-149534681D01*
X227331959Y-150174053D01*
X228166308Y-150520505D01*
X229069728Y-150521294D01*
X229904681Y-150176298D01*
X230544053Y-149538041D01*
X230890505Y-148703692D01*
X230890706Y-148473369D01*
X232571905Y-148473369D01*
X232743255Y-148888069D01*
X233060262Y-149205630D01*
X233474663Y-149377704D01*
X233923369Y-149378095D01*
X234338069Y-149206745D01*
X234655630Y-148889738D01*
X234827704Y-148475337D01*
X234828095Y-148026631D01*
X234656745Y-147611931D01*
X234339738Y-147294370D01*
X233925337Y-147122296D01*
X233476631Y-147121905D01*
X233061931Y-147293255D01*
X232744370Y-147610262D01*
X232572296Y-148024663D01*
X232571905Y-148473369D01*
X230890706Y-148473369D01*
X230891294Y-147800272D01*
X230546298Y-146965319D01*
X229908041Y-146325947D01*
X229073692Y-145979495D01*
X228170272Y-145978706D01*
X227335319Y-146323702D01*
X226695947Y-146961959D01*
X226349495Y-147796308D01*
X226348706Y-148699728D01*
X224574528Y-148699728D01*
X224667704Y-148475337D01*
X224668095Y-148026631D01*
X224496745Y-147611931D01*
X224305175Y-147420026D01*
X224511333Y-147498062D01*
X225218329Y-147476249D01*
X225770194Y-147247658D01*
X225886358Y-146965963D01*
X224810000Y-145889605D01*
X223733642Y-146965963D01*
X223804881Y-147138716D01*
X223765337Y-147122296D01*
X223316631Y-147121905D01*
X222901931Y-147293255D01*
X222584370Y-147610262D01*
X222412296Y-148024663D01*
X222411905Y-148473369D01*
X215827705Y-148473369D01*
X215828095Y-148026631D01*
X215656745Y-147611931D01*
X215339738Y-147294370D01*
X214925337Y-147122296D01*
X214476631Y-147121905D01*
X214061931Y-147293255D01*
X213744370Y-147610262D01*
X213572296Y-148024663D01*
X213571905Y-148473369D01*
X211890706Y-148473369D01*
X211891294Y-147800272D01*
X211546298Y-146965319D01*
X210908041Y-146325947D01*
X210073692Y-145979495D01*
X209170272Y-145978706D01*
X208335319Y-146323702D01*
X207695947Y-146961959D01*
X207349495Y-147796308D01*
X207348706Y-148699728D01*
X205574528Y-148699728D01*
X205667704Y-148475337D01*
X205668095Y-148026631D01*
X205496745Y-147611931D01*
X205305175Y-147420026D01*
X205511333Y-147498062D01*
X206218329Y-147476249D01*
X206770194Y-147247658D01*
X206886358Y-146965963D01*
X205810000Y-145889605D01*
X204733642Y-146965963D01*
X204804881Y-147138716D01*
X204765337Y-147122296D01*
X204316631Y-147121905D01*
X203901931Y-147293255D01*
X203584370Y-147610262D01*
X203412296Y-148024663D01*
X203411905Y-148473369D01*
X196827705Y-148473369D01*
X196828095Y-148026631D01*
X196656745Y-147611931D01*
X196339738Y-147294370D01*
X195925337Y-147122296D01*
X195476631Y-147121905D01*
X195061931Y-147293255D01*
X194744370Y-147610262D01*
X194572296Y-148024663D01*
X194571905Y-148473369D01*
X192890706Y-148473369D01*
X192891294Y-147800272D01*
X192546298Y-146965319D01*
X191908041Y-146325947D01*
X191073692Y-145979495D01*
X190170272Y-145978706D01*
X189335319Y-146323702D01*
X188695947Y-146961959D01*
X188349495Y-147796308D01*
X188348706Y-148699728D01*
X186574528Y-148699728D01*
X186667704Y-148475337D01*
X186668095Y-148026631D01*
X186496745Y-147611931D01*
X186305175Y-147420026D01*
X186511333Y-147498062D01*
X187218329Y-147476249D01*
X187770194Y-147247658D01*
X187886358Y-146965963D01*
X186810000Y-145889605D01*
X185733642Y-146965963D01*
X185804881Y-147138716D01*
X185765337Y-147122296D01*
X185316631Y-147121905D01*
X184901931Y-147293255D01*
X184584370Y-147610262D01*
X184412296Y-148024663D01*
X184411905Y-148473369D01*
X177827705Y-148473369D01*
X177828095Y-148026631D01*
X177656745Y-147611931D01*
X177339738Y-147294370D01*
X176925337Y-147122296D01*
X176476631Y-147121905D01*
X176061931Y-147293255D01*
X175744370Y-147610262D01*
X175572296Y-148024663D01*
X175571905Y-148473369D01*
X173890706Y-148473369D01*
X173891294Y-147800272D01*
X173546298Y-146965319D01*
X172908041Y-146325947D01*
X172073692Y-145979495D01*
X171170272Y-145978706D01*
X170335319Y-146323702D01*
X169695947Y-146961959D01*
X169349495Y-147796308D01*
X169348706Y-148699728D01*
X167574528Y-148699728D01*
X167667704Y-148475337D01*
X167668095Y-148026631D01*
X167496745Y-147611931D01*
X167305175Y-147420026D01*
X167511333Y-147498062D01*
X168218329Y-147476249D01*
X168770194Y-147247658D01*
X168886358Y-146965963D01*
X167810000Y-145889605D01*
X166733642Y-146965963D01*
X166804881Y-147138716D01*
X166765337Y-147122296D01*
X166316631Y-147121905D01*
X165901931Y-147293255D01*
X165584370Y-147610262D01*
X165412296Y-148024663D01*
X165411905Y-148473369D01*
X165251000Y-148473369D01*
X165251000Y-145411333D01*
X166021938Y-145411333D01*
X166043751Y-146118329D01*
X166272342Y-146670194D01*
X166554037Y-146786358D01*
X167630395Y-145710000D01*
X167989605Y-145710000D01*
X169065963Y-146786358D01*
X169347658Y-146670194D01*
X169598062Y-146008667D01*
X169579633Y-145411333D01*
X185021938Y-145411333D01*
X185043751Y-146118329D01*
X185272342Y-146670194D01*
X185554037Y-146786358D01*
X186630395Y-145710000D01*
X186989605Y-145710000D01*
X188065963Y-146786358D01*
X188347658Y-146670194D01*
X188598062Y-146008667D01*
X188579633Y-145411333D01*
X204021938Y-145411333D01*
X204043751Y-146118329D01*
X204272342Y-146670194D01*
X204554037Y-146786358D01*
X205630395Y-145710000D01*
X205989605Y-145710000D01*
X207065963Y-146786358D01*
X207347658Y-146670194D01*
X207598062Y-146008667D01*
X207579633Y-145411333D01*
X223021938Y-145411333D01*
X223043751Y-146118329D01*
X223272342Y-146670194D01*
X223554037Y-146786358D01*
X224630395Y-145710000D01*
X224989605Y-145710000D01*
X226065963Y-146786358D01*
X226347658Y-146670194D01*
X226598062Y-146008667D01*
X226576249Y-145301671D01*
X226347658Y-144749806D01*
X226065963Y-144633642D01*
X224989605Y-145710000D01*
X224630395Y-145710000D01*
X223554037Y-144633642D01*
X223272342Y-144749806D01*
X223021938Y-145411333D01*
X207579633Y-145411333D01*
X207576249Y-145301671D01*
X207347658Y-144749806D01*
X207065963Y-144633642D01*
X205989605Y-145710000D01*
X205630395Y-145710000D01*
X204554037Y-144633642D01*
X204272342Y-144749806D01*
X204021938Y-145411333D01*
X188579633Y-145411333D01*
X188576249Y-145301671D01*
X188347658Y-144749806D01*
X188065963Y-144633642D01*
X186989605Y-145710000D01*
X186630395Y-145710000D01*
X185554037Y-144633642D01*
X185272342Y-144749806D01*
X185021938Y-145411333D01*
X169579633Y-145411333D01*
X169576249Y-145301671D01*
X169347658Y-144749806D01*
X169065963Y-144633642D01*
X167989605Y-145710000D01*
X167630395Y-145710000D01*
X166554037Y-144633642D01*
X166272342Y-144749806D01*
X166021938Y-145411333D01*
X165251000Y-145411333D01*
X165251000Y-144454037D01*
X166733642Y-144454037D01*
X167810000Y-145530395D01*
X168886358Y-144454037D01*
X168770194Y-144172342D01*
X168108667Y-143921938D01*
X167401671Y-143943751D01*
X166849806Y-144172342D01*
X166733642Y-144454037D01*
X165251000Y-144454037D01*
X165251000Y-143451216D01*
X172739754Y-143451216D01*
X172955481Y-143973314D01*
X173354585Y-144373115D01*
X173876305Y-144589753D01*
X174441216Y-144590246D01*
X174770866Y-144454037D01*
X185733642Y-144454037D01*
X186810000Y-145530395D01*
X187886358Y-144454037D01*
X187770194Y-144172342D01*
X187108667Y-143921938D01*
X186401671Y-143943751D01*
X185849806Y-144172342D01*
X185733642Y-144454037D01*
X174770866Y-144454037D01*
X174963314Y-144374519D01*
X175363115Y-143975415D01*
X175579753Y-143453695D01*
X175579755Y-143451216D01*
X191739754Y-143451216D01*
X191955481Y-143973314D01*
X192354585Y-144373115D01*
X192876305Y-144589753D01*
X193441216Y-144590246D01*
X193770866Y-144454037D01*
X204733642Y-144454037D01*
X205810000Y-145530395D01*
X206886358Y-144454037D01*
X206770194Y-144172342D01*
X206108667Y-143921938D01*
X205401671Y-143943751D01*
X204849806Y-144172342D01*
X204733642Y-144454037D01*
X193770866Y-144454037D01*
X193963314Y-144374519D01*
X194363115Y-143975415D01*
X194579753Y-143453695D01*
X194579755Y-143451216D01*
X210739754Y-143451216D01*
X210955481Y-143973314D01*
X211354585Y-144373115D01*
X211876305Y-144589753D01*
X212441216Y-144590246D01*
X212770866Y-144454037D01*
X223733642Y-144454037D01*
X224810000Y-145530395D01*
X225886358Y-144454037D01*
X225770194Y-144172342D01*
X225108667Y-143921938D01*
X224401671Y-143943751D01*
X223849806Y-144172342D01*
X223733642Y-144454037D01*
X212770866Y-144454037D01*
X212963314Y-144374519D01*
X213363115Y-143975415D01*
X213579753Y-143453695D01*
X213579755Y-143451216D01*
X229739754Y-143451216D01*
X229955481Y-143973314D01*
X230354585Y-144373115D01*
X230876305Y-144589753D01*
X231441216Y-144590246D01*
X231963314Y-144374519D01*
X232363115Y-143975415D01*
X232579753Y-143453695D01*
X232580246Y-142888784D01*
X232364519Y-142366686D01*
X231965415Y-141966885D01*
X231443695Y-141750247D01*
X230878784Y-141749754D01*
X230356686Y-141965481D01*
X229956885Y-142364585D01*
X229740247Y-142886305D01*
X229739754Y-143451216D01*
X213579755Y-143451216D01*
X213580246Y-142888784D01*
X213364519Y-142366686D01*
X212965415Y-141966885D01*
X212443695Y-141750247D01*
X211878784Y-141749754D01*
X211356686Y-141965481D01*
X210956885Y-142364585D01*
X210740247Y-142886305D01*
X210739754Y-143451216D01*
X194579755Y-143451216D01*
X194580246Y-142888784D01*
X194364519Y-142366686D01*
X193965415Y-141966885D01*
X193443695Y-141750247D01*
X192878784Y-141749754D01*
X192356686Y-141965481D01*
X191956885Y-142364585D01*
X191740247Y-142886305D01*
X191739754Y-143451216D01*
X175579755Y-143451216D01*
X175580246Y-142888784D01*
X175364519Y-142366686D01*
X174965415Y-141966885D01*
X174443695Y-141750247D01*
X173878784Y-141749754D01*
X173356686Y-141965481D01*
X172956885Y-142364585D01*
X172740247Y-142886305D01*
X172739754Y-143451216D01*
X165251000Y-143451216D01*
X165251000Y-143168158D01*
X167824158Y-140595000D01*
X169794979Y-140595000D01*
X169880120Y-140653175D01*
X169990000Y-140675426D01*
X170690000Y-140675426D01*
X170792650Y-140656111D01*
X170886927Y-140595445D01*
X170950175Y-140502880D01*
X170972426Y-140393000D01*
X170972426Y-140043000D01*
X170953111Y-139940350D01*
X170892445Y-139846073D01*
X170888391Y-139843303D01*
X170950175Y-139752880D01*
X170972426Y-139643000D01*
X170972426Y-139293000D01*
X170953111Y-139190350D01*
X170892445Y-139096073D01*
X170890677Y-139094865D01*
X171034272Y-139066303D01*
X171156579Y-138984579D01*
X171296156Y-138845002D01*
X171374248Y-138845002D01*
X171255000Y-138964250D01*
X171255000Y-139019310D01*
X171351673Y-139252699D01*
X171530302Y-139431327D01*
X171607574Y-139463334D01*
X171607574Y-139643000D01*
X171626889Y-139745650D01*
X171687555Y-139839927D01*
X171691609Y-139842697D01*
X171629825Y-139933120D01*
X171607574Y-140043000D01*
X171607574Y-140393000D01*
X171626889Y-140495650D01*
X171687555Y-140589927D01*
X171780120Y-140653175D01*
X171890000Y-140675426D01*
X172590000Y-140675426D01*
X172692650Y-140656111D01*
X172786927Y-140595445D01*
X172795430Y-140583000D01*
X189032979Y-140583000D01*
X189118120Y-140641175D01*
X189228000Y-140663426D01*
X189928000Y-140663426D01*
X190030650Y-140644111D01*
X190124927Y-140583445D01*
X190188175Y-140490880D01*
X190210426Y-140381000D01*
X190210426Y-140031000D01*
X190191111Y-139928350D01*
X190130445Y-139834073D01*
X190126391Y-139831303D01*
X190188175Y-139740880D01*
X190210426Y-139631000D01*
X190210426Y-139281000D01*
X190191111Y-139178350D01*
X190130445Y-139084073D01*
X190128677Y-139082865D01*
X190272272Y-139054303D01*
X190394579Y-138972579D01*
X190534156Y-138833002D01*
X190612248Y-138833002D01*
X190493000Y-138952250D01*
X190493000Y-139007310D01*
X190589673Y-139240699D01*
X190768302Y-139419327D01*
X190845574Y-139451334D01*
X190845574Y-139631000D01*
X190864889Y-139733650D01*
X190925555Y-139827927D01*
X190929609Y-139830697D01*
X190867825Y-139921120D01*
X190845574Y-140031000D01*
X190845574Y-140381000D01*
X190864889Y-140483650D01*
X190925555Y-140577927D01*
X191018120Y-140641175D01*
X191128000Y-140663426D01*
X191828000Y-140663426D01*
X191930650Y-140644111D01*
X192024927Y-140583445D01*
X192025231Y-140583000D01*
X208082979Y-140583000D01*
X208168120Y-140641175D01*
X208278000Y-140663426D01*
X208978000Y-140663426D01*
X209080650Y-140644111D01*
X209174927Y-140583445D01*
X209238175Y-140490880D01*
X209260426Y-140381000D01*
X209260426Y-140031000D01*
X209241111Y-139928350D01*
X209180445Y-139834073D01*
X209176391Y-139831303D01*
X209238175Y-139740880D01*
X209260426Y-139631000D01*
X209260426Y-139281000D01*
X209241111Y-139178350D01*
X209180445Y-139084073D01*
X209178677Y-139082865D01*
X209322272Y-139054303D01*
X209444579Y-138972579D01*
X209584156Y-138833002D01*
X209662248Y-138833002D01*
X209543000Y-138952250D01*
X209543000Y-139007310D01*
X209639673Y-139240699D01*
X209818302Y-139419327D01*
X209895574Y-139451334D01*
X209895574Y-139631000D01*
X209914889Y-139733650D01*
X209975555Y-139827927D01*
X209979609Y-139830697D01*
X209917825Y-139921120D01*
X209895574Y-140031000D01*
X209895574Y-140381000D01*
X209914889Y-140483650D01*
X209975555Y-140577927D01*
X210068120Y-140641175D01*
X210178000Y-140663426D01*
X210878000Y-140663426D01*
X210980650Y-140644111D01*
X211074927Y-140583445D01*
X211075231Y-140583000D01*
X227386979Y-140583000D01*
X227472120Y-140641175D01*
X227582000Y-140663426D01*
X228282000Y-140663426D01*
X228384650Y-140644111D01*
X228478927Y-140583445D01*
X228542175Y-140490880D01*
X228564426Y-140381000D01*
X228564426Y-140031000D01*
X228545111Y-139928350D01*
X228484445Y-139834073D01*
X228480391Y-139831303D01*
X228542175Y-139740880D01*
X228564426Y-139631000D01*
X228564426Y-139281000D01*
X228545111Y-139178350D01*
X228484445Y-139084073D01*
X228482677Y-139082865D01*
X228626272Y-139054303D01*
X228748579Y-138972579D01*
X228888156Y-138833002D01*
X228966248Y-138833002D01*
X228847000Y-138952250D01*
X228847000Y-139007310D01*
X228943673Y-139240699D01*
X229122302Y-139419327D01*
X229199574Y-139451334D01*
X229199574Y-139631000D01*
X229218889Y-139733650D01*
X229279555Y-139827927D01*
X229283609Y-139830697D01*
X229221825Y-139921120D01*
X229199574Y-140031000D01*
X229199574Y-140381000D01*
X229218889Y-140483650D01*
X229279555Y-140577927D01*
X229372120Y-140641175D01*
X229482000Y-140663426D01*
X230182000Y-140663426D01*
X230284650Y-140644111D01*
X230378927Y-140583445D01*
X230379231Y-140583000D01*
X236815343Y-140583000D01*
X236959615Y-140554303D01*
X237081922Y-140472579D01*
X238292580Y-139261922D01*
X238293000Y-139261293D01*
X238293000Y-176217792D01*
X238083612Y-177270461D01*
X237505566Y-178135566D01*
X236640462Y-178713611D01*
X235587793Y-178923000D01*
X164652208Y-178923000D01*
X163599539Y-178713612D01*
X162734434Y-178135566D01*
X162156389Y-177270462D01*
X161953407Y-176250000D01*
X163293000Y-176250000D01*
X163394012Y-176757821D01*
X163681669Y-177188331D01*
X164112179Y-177475988D01*
X164620000Y-177577000D01*
X165127821Y-177475988D01*
X165558331Y-177188331D01*
X165845988Y-176757821D01*
X165947000Y-176250000D01*
X234293000Y-176250000D01*
X234394012Y-176757821D01*
X234681669Y-177188331D01*
X235112179Y-177475988D01*
X235620000Y-177577000D01*
X236127821Y-177475988D01*
X236558331Y-177188331D01*
X236845988Y-176757821D01*
X236947000Y-176250000D01*
X236845988Y-175742179D01*
X236558331Y-175311669D01*
X236127821Y-175024012D01*
X235620000Y-174923000D01*
X235112179Y-175024012D01*
X234681669Y-175311669D01*
X234394012Y-175742179D01*
X234293000Y-176250000D01*
X165947000Y-176250000D01*
X165845988Y-175742179D01*
X165558331Y-175311669D01*
X165127821Y-175024012D01*
X164620000Y-174923000D01*
X164112179Y-175024012D01*
X163681669Y-175311669D01*
X163394012Y-175742179D01*
X163293000Y-176250000D01*
X161953407Y-176250000D01*
X161947000Y-176217793D01*
X161947000Y-167473369D01*
X165411905Y-167473369D01*
X165583255Y-167888069D01*
X165900262Y-168205630D01*
X166314663Y-168377704D01*
X166763369Y-168378095D01*
X167178069Y-168206745D01*
X167495630Y-167889738D01*
X167574528Y-167699728D01*
X169348706Y-167699728D01*
X169693702Y-168534681D01*
X170331959Y-169174053D01*
X171166308Y-169520505D01*
X172069728Y-169521294D01*
X172904681Y-169176298D01*
X173544053Y-168538041D01*
X173890505Y-167703692D01*
X173890706Y-167473369D01*
X175571905Y-167473369D01*
X175743255Y-167888069D01*
X176060262Y-168205630D01*
X176474663Y-168377704D01*
X176923369Y-168378095D01*
X177338069Y-168206745D01*
X177655630Y-167889738D01*
X177827704Y-167475337D01*
X177827705Y-167473369D01*
X184411905Y-167473369D01*
X184583255Y-167888069D01*
X184900262Y-168205630D01*
X185314663Y-168377704D01*
X185763369Y-168378095D01*
X186178069Y-168206745D01*
X186495630Y-167889738D01*
X186574528Y-167699728D01*
X188348706Y-167699728D01*
X188693702Y-168534681D01*
X189331959Y-169174053D01*
X190166308Y-169520505D01*
X191069728Y-169521294D01*
X191904681Y-169176298D01*
X192544053Y-168538041D01*
X192890505Y-167703692D01*
X192890706Y-167473369D01*
X194571905Y-167473369D01*
X194743255Y-167888069D01*
X195060262Y-168205630D01*
X195474663Y-168377704D01*
X195923369Y-168378095D01*
X196338069Y-168206745D01*
X196655630Y-167889738D01*
X196827704Y-167475337D01*
X196827705Y-167473369D01*
X203411905Y-167473369D01*
X203583255Y-167888069D01*
X203900262Y-168205630D01*
X204314663Y-168377704D01*
X204763369Y-168378095D01*
X205178069Y-168206745D01*
X205495630Y-167889738D01*
X205574528Y-167699728D01*
X207348706Y-167699728D01*
X207693702Y-168534681D01*
X208331959Y-169174053D01*
X209166308Y-169520505D01*
X210069728Y-169521294D01*
X210904681Y-169176298D01*
X211544053Y-168538041D01*
X211890505Y-167703692D01*
X211890706Y-167473369D01*
X213571905Y-167473369D01*
X213743255Y-167888069D01*
X214060262Y-168205630D01*
X214474663Y-168377704D01*
X214923369Y-168378095D01*
X215338069Y-168206745D01*
X215655630Y-167889738D01*
X215827704Y-167475337D01*
X215827705Y-167473369D01*
X222411905Y-167473369D01*
X222583255Y-167888069D01*
X222900262Y-168205630D01*
X223314663Y-168377704D01*
X223763369Y-168378095D01*
X224178069Y-168206745D01*
X224495630Y-167889738D01*
X224574528Y-167699728D01*
X226348706Y-167699728D01*
X226693702Y-168534681D01*
X227331959Y-169174053D01*
X228166308Y-169520505D01*
X229069728Y-169521294D01*
X229904681Y-169176298D01*
X230544053Y-168538041D01*
X230890505Y-167703692D01*
X230890706Y-167473369D01*
X232571905Y-167473369D01*
X232743255Y-167888069D01*
X233060262Y-168205630D01*
X233474663Y-168377704D01*
X233923369Y-168378095D01*
X234338069Y-168206745D01*
X234655630Y-167889738D01*
X234827704Y-167475337D01*
X234828095Y-167026631D01*
X234656745Y-166611931D01*
X234339738Y-166294370D01*
X233925337Y-166122296D01*
X233476631Y-166121905D01*
X233061931Y-166293255D01*
X232744370Y-166610262D01*
X232572296Y-167024663D01*
X232571905Y-167473369D01*
X230890706Y-167473369D01*
X230891294Y-166800272D01*
X230546298Y-165965319D01*
X229908041Y-165325947D01*
X229073692Y-164979495D01*
X228170272Y-164978706D01*
X227335319Y-165323702D01*
X226695947Y-165961959D01*
X226349495Y-166796308D01*
X226348706Y-167699728D01*
X224574528Y-167699728D01*
X224667704Y-167475337D01*
X224668095Y-167026631D01*
X224496745Y-166611931D01*
X224305175Y-166420026D01*
X224511333Y-166498062D01*
X225218329Y-166476249D01*
X225770194Y-166247658D01*
X225886358Y-165965963D01*
X224810000Y-164889605D01*
X223733642Y-165965963D01*
X223804881Y-166138716D01*
X223765337Y-166122296D01*
X223316631Y-166121905D01*
X222901931Y-166293255D01*
X222584370Y-166610262D01*
X222412296Y-167024663D01*
X222411905Y-167473369D01*
X215827705Y-167473369D01*
X215828095Y-167026631D01*
X215656745Y-166611931D01*
X215339738Y-166294370D01*
X214925337Y-166122296D01*
X214476631Y-166121905D01*
X214061931Y-166293255D01*
X213744370Y-166610262D01*
X213572296Y-167024663D01*
X213571905Y-167473369D01*
X211890706Y-167473369D01*
X211891294Y-166800272D01*
X211546298Y-165965319D01*
X210908041Y-165325947D01*
X210073692Y-164979495D01*
X209170272Y-164978706D01*
X208335319Y-165323702D01*
X207695947Y-165961959D01*
X207349495Y-166796308D01*
X207348706Y-167699728D01*
X205574528Y-167699728D01*
X205667704Y-167475337D01*
X205668095Y-167026631D01*
X205496745Y-166611931D01*
X205305175Y-166420026D01*
X205511333Y-166498062D01*
X206218329Y-166476249D01*
X206770194Y-166247658D01*
X206886358Y-165965963D01*
X205810000Y-164889605D01*
X204733642Y-165965963D01*
X204804881Y-166138716D01*
X204765337Y-166122296D01*
X204316631Y-166121905D01*
X203901931Y-166293255D01*
X203584370Y-166610262D01*
X203412296Y-167024663D01*
X203411905Y-167473369D01*
X196827705Y-167473369D01*
X196828095Y-167026631D01*
X196656745Y-166611931D01*
X196339738Y-166294370D01*
X195925337Y-166122296D01*
X195476631Y-166121905D01*
X195061931Y-166293255D01*
X194744370Y-166610262D01*
X194572296Y-167024663D01*
X194571905Y-167473369D01*
X192890706Y-167473369D01*
X192891294Y-166800272D01*
X192546298Y-165965319D01*
X191908041Y-165325947D01*
X191073692Y-164979495D01*
X190170272Y-164978706D01*
X189335319Y-165323702D01*
X188695947Y-165961959D01*
X188349495Y-166796308D01*
X188348706Y-167699728D01*
X186574528Y-167699728D01*
X186667704Y-167475337D01*
X186668095Y-167026631D01*
X186496745Y-166611931D01*
X186305175Y-166420026D01*
X186511333Y-166498062D01*
X187218329Y-166476249D01*
X187770194Y-166247658D01*
X187886358Y-165965963D01*
X186810000Y-164889605D01*
X185733642Y-165965963D01*
X185804881Y-166138716D01*
X185765337Y-166122296D01*
X185316631Y-166121905D01*
X184901931Y-166293255D01*
X184584370Y-166610262D01*
X184412296Y-167024663D01*
X184411905Y-167473369D01*
X177827705Y-167473369D01*
X177828095Y-167026631D01*
X177656745Y-166611931D01*
X177339738Y-166294370D01*
X176925337Y-166122296D01*
X176476631Y-166121905D01*
X176061931Y-166293255D01*
X175744370Y-166610262D01*
X175572296Y-167024663D01*
X175571905Y-167473369D01*
X173890706Y-167473369D01*
X173891294Y-166800272D01*
X173546298Y-165965319D01*
X172908041Y-165325947D01*
X172073692Y-164979495D01*
X171170272Y-164978706D01*
X170335319Y-165323702D01*
X169695947Y-165961959D01*
X169349495Y-166796308D01*
X169348706Y-167699728D01*
X167574528Y-167699728D01*
X167667704Y-167475337D01*
X167668095Y-167026631D01*
X167496745Y-166611931D01*
X167305175Y-166420026D01*
X167511333Y-166498062D01*
X168218329Y-166476249D01*
X168770194Y-166247658D01*
X168886358Y-165965963D01*
X167810000Y-164889605D01*
X166733642Y-165965963D01*
X166804881Y-166138716D01*
X166765337Y-166122296D01*
X166316631Y-166121905D01*
X165901931Y-166293255D01*
X165584370Y-166610262D01*
X165412296Y-167024663D01*
X165411905Y-167473369D01*
X161947000Y-167473369D01*
X161947000Y-164411333D01*
X166021938Y-164411333D01*
X166043751Y-165118329D01*
X166272342Y-165670194D01*
X166554037Y-165786358D01*
X167630395Y-164710000D01*
X167989605Y-164710000D01*
X169065963Y-165786358D01*
X169347658Y-165670194D01*
X169598062Y-165008667D01*
X169579633Y-164411333D01*
X185021938Y-164411333D01*
X185043751Y-165118329D01*
X185272342Y-165670194D01*
X185554037Y-165786358D01*
X186630395Y-164710000D01*
X186989605Y-164710000D01*
X188065963Y-165786358D01*
X188347658Y-165670194D01*
X188598062Y-165008667D01*
X188579633Y-164411333D01*
X204021938Y-164411333D01*
X204043751Y-165118329D01*
X204272342Y-165670194D01*
X204554037Y-165786358D01*
X205630395Y-164710000D01*
X205989605Y-164710000D01*
X207065963Y-165786358D01*
X207347658Y-165670194D01*
X207598062Y-165008667D01*
X207579633Y-164411333D01*
X223021938Y-164411333D01*
X223043751Y-165118329D01*
X223272342Y-165670194D01*
X223554037Y-165786358D01*
X224630395Y-164710000D01*
X224989605Y-164710000D01*
X226065963Y-165786358D01*
X226347658Y-165670194D01*
X226598062Y-165008667D01*
X226576249Y-164301671D01*
X226347658Y-163749806D01*
X226065963Y-163633642D01*
X224989605Y-164710000D01*
X224630395Y-164710000D01*
X223554037Y-163633642D01*
X223272342Y-163749806D01*
X223021938Y-164411333D01*
X207579633Y-164411333D01*
X207576249Y-164301671D01*
X207347658Y-163749806D01*
X207065963Y-163633642D01*
X205989605Y-164710000D01*
X205630395Y-164710000D01*
X204554037Y-163633642D01*
X204272342Y-163749806D01*
X204021938Y-164411333D01*
X188579633Y-164411333D01*
X188576249Y-164301671D01*
X188347658Y-163749806D01*
X188065963Y-163633642D01*
X186989605Y-164710000D01*
X186630395Y-164710000D01*
X185554037Y-163633642D01*
X185272342Y-163749806D01*
X185021938Y-164411333D01*
X169579633Y-164411333D01*
X169576249Y-164301671D01*
X169347658Y-163749806D01*
X169065963Y-163633642D01*
X167989605Y-164710000D01*
X167630395Y-164710000D01*
X166554037Y-163633642D01*
X166272342Y-163749806D01*
X166021938Y-164411333D01*
X161947000Y-164411333D01*
X161947000Y-163454037D01*
X166733642Y-163454037D01*
X167810000Y-164530395D01*
X168886358Y-163454037D01*
X168770194Y-163172342D01*
X168108667Y-162921938D01*
X167401671Y-162943751D01*
X166849806Y-163172342D01*
X166733642Y-163454037D01*
X161947000Y-163454037D01*
X161947000Y-162451216D01*
X172739754Y-162451216D01*
X172955481Y-162973314D01*
X173354585Y-163373115D01*
X173876305Y-163589753D01*
X174441216Y-163590246D01*
X174770866Y-163454037D01*
X185733642Y-163454037D01*
X186810000Y-164530395D01*
X187886358Y-163454037D01*
X187770194Y-163172342D01*
X187108667Y-162921938D01*
X186401671Y-162943751D01*
X185849806Y-163172342D01*
X185733642Y-163454037D01*
X174770866Y-163454037D01*
X174963314Y-163374519D01*
X175363115Y-162975415D01*
X175579753Y-162453695D01*
X175579755Y-162451216D01*
X191739754Y-162451216D01*
X191955481Y-162973314D01*
X192354585Y-163373115D01*
X192876305Y-163589753D01*
X193441216Y-163590246D01*
X193770866Y-163454037D01*
X204733642Y-163454037D01*
X205810000Y-164530395D01*
X206886358Y-163454037D01*
X206770194Y-163172342D01*
X206108667Y-162921938D01*
X205401671Y-162943751D01*
X204849806Y-163172342D01*
X204733642Y-163454037D01*
X193770866Y-163454037D01*
X193963314Y-163374519D01*
X194363115Y-162975415D01*
X194579753Y-162453695D01*
X194579755Y-162451216D01*
X210739754Y-162451216D01*
X210955481Y-162973314D01*
X211354585Y-163373115D01*
X211876305Y-163589753D01*
X212441216Y-163590246D01*
X212770866Y-163454037D01*
X223733642Y-163454037D01*
X224810000Y-164530395D01*
X225886358Y-163454037D01*
X225770194Y-163172342D01*
X225108667Y-162921938D01*
X224401671Y-162943751D01*
X223849806Y-163172342D01*
X223733642Y-163454037D01*
X212770866Y-163454037D01*
X212963314Y-163374519D01*
X213363115Y-162975415D01*
X213579753Y-162453695D01*
X213579755Y-162451216D01*
X229739754Y-162451216D01*
X229955481Y-162973314D01*
X230354585Y-163373115D01*
X230876305Y-163589753D01*
X231441216Y-163590246D01*
X231963314Y-163374519D01*
X232363115Y-162975415D01*
X232579753Y-162453695D01*
X232580246Y-161888784D01*
X232364519Y-161366686D01*
X231965415Y-160966885D01*
X231443695Y-160750247D01*
X230878784Y-160749754D01*
X230356686Y-160965481D01*
X229956885Y-161364585D01*
X229740247Y-161886305D01*
X229739754Y-162451216D01*
X213579755Y-162451216D01*
X213580246Y-161888784D01*
X213364519Y-161366686D01*
X212965415Y-160966885D01*
X212443695Y-160750247D01*
X211878784Y-160749754D01*
X211356686Y-160965481D01*
X210956885Y-161364585D01*
X210740247Y-161886305D01*
X210739754Y-162451216D01*
X194579755Y-162451216D01*
X194580246Y-161888784D01*
X194364519Y-161366686D01*
X193965415Y-160966885D01*
X193443695Y-160750247D01*
X192878784Y-160749754D01*
X192356686Y-160965481D01*
X191956885Y-161364585D01*
X191740247Y-161886305D01*
X191739754Y-162451216D01*
X175579755Y-162451216D01*
X175580246Y-161888784D01*
X175364519Y-161366686D01*
X174965415Y-160966885D01*
X174443695Y-160750247D01*
X173878784Y-160749754D01*
X173356686Y-160965481D01*
X172956885Y-161364585D01*
X172740247Y-161886305D01*
X172739754Y-162451216D01*
X161947000Y-162451216D01*
X161947000Y-159756250D01*
X169543000Y-159756250D01*
X169543000Y-159811310D01*
X169639673Y-160044699D01*
X169818302Y-160223327D01*
X170051691Y-160320000D01*
X170242250Y-160320000D01*
X170401000Y-160161250D01*
X170401000Y-159597500D01*
X170655000Y-159597500D01*
X170655000Y-160161250D01*
X170813750Y-160320000D01*
X171004309Y-160320000D01*
X171237698Y-160223327D01*
X171416327Y-160044699D01*
X171513000Y-159811310D01*
X171513000Y-159756250D01*
X171354250Y-159597500D01*
X170655000Y-159597500D01*
X170401000Y-159597500D01*
X169701750Y-159597500D01*
X169543000Y-159756250D01*
X161947000Y-159756250D01*
X161947000Y-136584188D01*
X161953406Y-136551981D01*
X163293000Y-136551981D01*
X163394012Y-137059802D01*
X163681669Y-137490312D01*
X164112179Y-137777969D01*
X164620000Y-137878981D01*
X165127821Y-137777969D01*
X165558331Y-137490312D01*
X165845988Y-137059802D01*
X165947000Y-136551981D01*
X165845988Y-136044160D01*
X165558331Y-135613650D01*
X165127821Y-135325993D01*
X164620000Y-135224981D01*
X164112179Y-135325993D01*
X163681669Y-135613650D01*
X163394012Y-136044160D01*
X163293000Y-136551981D01*
X161953406Y-136551981D01*
X162156389Y-135531519D01*
X162734434Y-134666415D01*
X163617827Y-134076150D01*
X163938512Y-133967292D01*
X211481091Y-121228296D01*
X211490818Y-121223499D01*
X211501567Y-121222084D01*
X211873160Y-121095946D01*
X211910204Y-121074559D01*
X211949722Y-121058190D01*
X212922991Y-120407872D01*
X213013210Y-120317653D01*
X213663529Y-119344383D01*
X213663530Y-119344382D01*
X213695392Y-119267460D01*
X213712356Y-119226507D01*
X213712356Y-119226505D01*
X213940717Y-118078455D01*
X213940717Y-118046248D01*
X213947000Y-118014661D01*
X213947000Y-111577000D01*
X220735000Y-111577000D01*
X220735000Y-112327000D01*
X220889028Y-112847349D01*
X221230460Y-113269145D01*
X221707316Y-113528173D01*
X221778815Y-113542318D01*
X221993000Y-113419656D01*
X221993000Y-111577000D01*
X220735000Y-111577000D01*
X213947000Y-111577000D01*
X213947000Y-110573000D01*
X220735000Y-110573000D01*
X220735000Y-111323000D01*
X221993000Y-111323000D01*
X221993000Y-109480344D01*
X221778815Y-109357682D01*
X221707316Y-109371827D01*
X221230460Y-109630855D01*
X220889028Y-110052651D01*
X220735000Y-110573000D01*
X213947000Y-110573000D01*
X213947000Y-107098436D01*
X222817827Y-107098436D01*
X222970051Y-107466846D01*
X223251672Y-107748959D01*
X223619816Y-107901825D01*
X224018436Y-107902173D01*
X224386846Y-107749949D01*
X224541452Y-107595612D01*
X224556889Y-107677650D01*
X224617555Y-107771927D01*
X224710120Y-107835175D01*
X224820000Y-107857426D01*
X224899665Y-107857426D01*
X224931673Y-107934699D01*
X225110302Y-108113327D01*
X225343691Y-108210000D01*
X225411250Y-108210000D01*
X225570000Y-108051250D01*
X225570000Y-107027000D01*
X225523000Y-107027000D01*
X225523000Y-106773000D01*
X225570000Y-106773000D01*
X225570000Y-105748750D01*
X225411250Y-105590000D01*
X225343691Y-105590000D01*
X225110302Y-105686673D01*
X224931673Y-105865301D01*
X224899665Y-105942574D01*
X224820000Y-105942574D01*
X224717350Y-105961889D01*
X224623073Y-106022555D01*
X224559825Y-106115120D01*
X224541691Y-106204672D01*
X224388328Y-106051041D01*
X224020184Y-105898175D01*
X223621564Y-105897827D01*
X223253154Y-106050051D01*
X222971041Y-106331672D01*
X222818175Y-106699816D01*
X222817827Y-107098436D01*
X213947000Y-107098436D01*
X213947000Y-105282207D01*
X213953406Y-105250000D01*
X215293000Y-105250000D01*
X215394012Y-105757821D01*
X215681669Y-106188331D01*
X216112179Y-106475988D01*
X216620000Y-106577000D01*
X217127821Y-106475988D01*
X217558331Y-106188331D01*
X217845988Y-105757821D01*
X217947000Y-105250000D01*
X217845988Y-104742179D01*
X217558331Y-104311669D01*
X217127821Y-104024012D01*
X216620000Y-103923000D01*
X216112179Y-104024012D01*
X215681669Y-104311669D01*
X215394012Y-104742179D01*
X215293000Y-105250000D01*
X213953406Y-105250000D01*
X214156389Y-104229538D01*
X214426050Y-103825962D01*
X221943000Y-103825962D01*
X221943000Y-104574038D01*
X222009758Y-104909651D01*
X222199867Y-105194171D01*
X222484387Y-105384280D01*
X222820000Y-105451038D01*
X222913568Y-105432426D01*
X224020000Y-105432426D01*
X224122650Y-105413111D01*
X224216927Y-105352445D01*
X224280175Y-105259880D01*
X224294727Y-105188017D01*
X224306889Y-105252650D01*
X224367555Y-105346927D01*
X224460120Y-105410175D01*
X224570000Y-105432426D01*
X226070000Y-105432426D01*
X226172650Y-105413111D01*
X226266927Y-105352445D01*
X226320579Y-105273924D01*
X226367555Y-105346927D01*
X226460120Y-105410175D01*
X226570000Y-105432426D01*
X228070000Y-105432426D01*
X228172650Y-105413111D01*
X228266927Y-105352445D01*
X228330175Y-105259880D01*
X228344727Y-105188017D01*
X228356889Y-105252650D01*
X228417555Y-105346927D01*
X228510120Y-105410175D01*
X228620000Y-105432426D01*
X229726432Y-105432426D01*
X229820000Y-105451038D01*
X230155613Y-105384280D01*
X230356578Y-105250000D01*
X234293000Y-105250000D01*
X234394012Y-105757821D01*
X234681669Y-106188331D01*
X235112179Y-106475988D01*
X235620000Y-106577000D01*
X236127821Y-106475988D01*
X236558331Y-106188331D01*
X236845988Y-105757821D01*
X236947000Y-105250000D01*
X236845988Y-104742179D01*
X236558331Y-104311669D01*
X236127821Y-104024012D01*
X235620000Y-103923000D01*
X235112179Y-104024012D01*
X234681669Y-104311669D01*
X234394012Y-104742179D01*
X234293000Y-105250000D01*
X230356578Y-105250000D01*
X230440133Y-105194171D01*
X230630242Y-104909651D01*
X230697000Y-104574038D01*
X230697000Y-103825962D01*
X230630242Y-103490349D01*
X230440133Y-103205829D01*
X230155613Y-103015720D01*
X229820000Y-102948962D01*
X229726432Y-102967574D01*
X228620000Y-102967574D01*
X228517350Y-102986889D01*
X228423073Y-103047555D01*
X228359825Y-103140120D01*
X228345273Y-103211983D01*
X228333111Y-103147350D01*
X228272445Y-103053073D01*
X228179880Y-102989825D01*
X228070000Y-102967574D01*
X226570000Y-102967574D01*
X226467350Y-102986889D01*
X226373073Y-103047555D01*
X226319421Y-103126076D01*
X226272445Y-103053073D01*
X226179880Y-102989825D01*
X226070000Y-102967574D01*
X224570000Y-102967574D01*
X224467350Y-102986889D01*
X224373073Y-103047555D01*
X224309825Y-103140120D01*
X224295273Y-103211983D01*
X224283111Y-103147350D01*
X224222445Y-103053073D01*
X224129880Y-102989825D01*
X224020000Y-102967574D01*
X222913568Y-102967574D01*
X222820000Y-102948962D01*
X222484387Y-103015720D01*
X222199867Y-103205829D01*
X222009758Y-103490349D01*
X221943000Y-103825962D01*
X214426050Y-103825962D01*
X214734434Y-103364434D01*
X215599539Y-102786388D01*
X216652208Y-102577000D01*
X235587793Y-102577000D01*
X236640462Y-102786389D01*
G36*
X207455000Y-159196690D02*
X207455000Y-159251750D01*
X207613750Y-159410500D01*
X208313000Y-159410500D01*
X208313000Y-159351000D01*
X208567000Y-159351000D01*
X208567000Y-159410500D01*
X208587000Y-159410500D01*
X208587000Y-159585500D01*
X208567000Y-159585500D01*
X208567000Y-159645000D01*
X208313000Y-159645000D01*
X208313000Y-159585500D01*
X207613750Y-159585500D01*
X207504249Y-159695001D01*
X193000160Y-159695001D01*
X192548579Y-159243421D01*
X192426272Y-159161697D01*
X192302110Y-159137000D01*
X207479724Y-159137000D01*
X207455000Y-159196690D01*
X207455000Y-159196690D01*
G37*
X207455000Y-159196690D02*
X207455000Y-159251750D01*
X207613750Y-159410500D01*
X208313000Y-159410500D01*
X208313000Y-159351000D01*
X208567000Y-159351000D01*
X208567000Y-159410500D01*
X208587000Y-159410500D01*
X208587000Y-159585500D01*
X208567000Y-159585500D01*
X208567000Y-159645000D01*
X208313000Y-159645000D01*
X208313000Y-159585500D01*
X207613750Y-159585500D01*
X207504249Y-159695001D01*
X193000160Y-159695001D01*
X192548579Y-159243421D01*
X192426272Y-159161697D01*
X192302110Y-159137000D01*
X207479724Y-159137000D01*
X207455000Y-159196690D01*
G36*
X226947000Y-159208690D02*
X226947000Y-159263750D01*
X227105750Y-159422500D01*
X227805000Y-159422500D01*
X227805000Y-159363000D01*
X228059000Y-159363000D01*
X228059000Y-159422500D01*
X228079000Y-159422500D01*
X228079000Y-159597500D01*
X228059000Y-159597500D01*
X228059000Y-159657000D01*
X227805000Y-159657000D01*
X227805000Y-159597500D01*
X227105750Y-159597500D01*
X227008249Y-159695001D01*
X211620159Y-159695001D01*
X211156579Y-159231421D01*
X211034272Y-159149697D01*
X210910110Y-159125000D01*
X226981666Y-159125000D01*
X226947000Y-159208690D01*
X226947000Y-159208690D01*
G37*
X226947000Y-159208690D02*
X226947000Y-159263750D01*
X227105750Y-159422500D01*
X227805000Y-159422500D01*
X227805000Y-159363000D01*
X228059000Y-159363000D01*
X228059000Y-159422500D01*
X228079000Y-159422500D01*
X228079000Y-159597500D01*
X228059000Y-159597500D01*
X228059000Y-159657000D01*
X227805000Y-159657000D01*
X227805000Y-159597500D01*
X227105750Y-159597500D01*
X227008249Y-159695001D01*
X211620159Y-159695001D01*
X211156579Y-159231421D01*
X211034272Y-159149697D01*
X210910110Y-159125000D01*
X226981666Y-159125000D01*
X226947000Y-159208690D01*
G36*
X188847000Y-159208690D02*
X188847000Y-159263750D01*
X189005750Y-159422500D01*
X189705000Y-159422500D01*
X189705000Y-159363000D01*
X189959000Y-159363000D01*
X189959000Y-159422500D01*
X189979000Y-159422500D01*
X189979000Y-159597500D01*
X189959000Y-159597500D01*
X189959000Y-159657000D01*
X189705000Y-159657000D01*
X189705000Y-159597500D01*
X189005750Y-159597500D01*
X188908249Y-159695001D01*
X173696160Y-159695001D01*
X173244579Y-159243421D01*
X173122272Y-159161697D01*
X172998110Y-159137000D01*
X188876695Y-159137000D01*
X188847000Y-159208690D01*
X188847000Y-159208690D01*
G37*
X188847000Y-159208690D02*
X188847000Y-159263750D01*
X189005750Y-159422500D01*
X189705000Y-159422500D01*
X189705000Y-159363000D01*
X189959000Y-159363000D01*
X189959000Y-159422500D01*
X189979000Y-159422500D01*
X189979000Y-159597500D01*
X189959000Y-159597500D01*
X189959000Y-159657000D01*
X189705000Y-159657000D01*
X189705000Y-159597500D01*
X189005750Y-159597500D01*
X188908249Y-159695001D01*
X173696160Y-159695001D01*
X173244579Y-159243421D01*
X173122272Y-159161697D01*
X172998110Y-159137000D01*
X188876695Y-159137000D01*
X188847000Y-159208690D01*
G36*
X207811420Y-138972579D02*
X207871178Y-139012508D01*
X207933728Y-139054303D01*
X208057890Y-139079000D01*
X192433305Y-139079000D01*
X192463000Y-139007310D01*
X192463000Y-138952250D01*
X192304250Y-138793500D01*
X191605000Y-138793500D01*
X191605000Y-138853000D01*
X191351000Y-138853000D01*
X191351000Y-138793500D01*
X191331000Y-138793500D01*
X191331000Y-138618500D01*
X191351000Y-138618500D01*
X191351000Y-138559000D01*
X191605000Y-138559000D01*
X191605000Y-138618500D01*
X192304250Y-138618500D01*
X192401751Y-138520999D01*
X207359841Y-138520999D01*
X207811420Y-138972579D01*
X207811420Y-138972579D01*
G37*
X207811420Y-138972579D02*
X207871178Y-139012508D01*
X207933728Y-139054303D01*
X208057890Y-139079000D01*
X192433305Y-139079000D01*
X192463000Y-139007310D01*
X192463000Y-138952250D01*
X192304250Y-138793500D01*
X191605000Y-138793500D01*
X191605000Y-138853000D01*
X191351000Y-138853000D01*
X191351000Y-138793500D01*
X191331000Y-138793500D01*
X191331000Y-138618500D01*
X191351000Y-138618500D01*
X191351000Y-138559000D01*
X191605000Y-138559000D01*
X191605000Y-138618500D01*
X192304250Y-138618500D01*
X192401751Y-138520999D01*
X207359841Y-138520999D01*
X207811420Y-138972579D01*
G36*
X227115420Y-138972579D02*
X227175178Y-139012508D01*
X227237728Y-139054303D01*
X227361890Y-139079000D01*
X211483305Y-139079000D01*
X211513000Y-139007310D01*
X211513000Y-138952250D01*
X211354250Y-138793500D01*
X210655000Y-138793500D01*
X210655000Y-138853000D01*
X210401000Y-138853000D01*
X210401000Y-138793500D01*
X210381000Y-138793500D01*
X210381000Y-138618500D01*
X210401000Y-138618500D01*
X210401000Y-138559000D01*
X210655000Y-138559000D01*
X210655000Y-138618500D01*
X211354250Y-138618500D01*
X211451751Y-138520999D01*
X226663841Y-138520999D01*
X227115420Y-138972579D01*
X227115420Y-138972579D01*
G37*
X227115420Y-138972579D02*
X227175178Y-139012508D01*
X227237728Y-139054303D01*
X227361890Y-139079000D01*
X211483305Y-139079000D01*
X211513000Y-139007310D01*
X211513000Y-138952250D01*
X211354250Y-138793500D01*
X210655000Y-138793500D01*
X210655000Y-138853000D01*
X210401000Y-138853000D01*
X210401000Y-138793500D01*
X210381000Y-138793500D01*
X210381000Y-138618500D01*
X210401000Y-138618500D01*
X210401000Y-138559000D01*
X210655000Y-138559000D01*
X210655000Y-138618500D01*
X211354250Y-138618500D01*
X211451751Y-138520999D01*
X226663841Y-138520999D01*
X227115420Y-138972579D01*
G36*
X235917129Y-138642287D02*
X235916991Y-138800360D01*
X236004649Y-139012508D01*
X236071025Y-139079000D01*
X230787305Y-139079000D01*
X230817000Y-139007310D01*
X230817000Y-138952250D01*
X230658250Y-138793500D01*
X229959000Y-138793500D01*
X229959000Y-138853000D01*
X229705000Y-138853000D01*
X229705000Y-138793500D01*
X229685000Y-138793500D01*
X229685000Y-138618500D01*
X229705000Y-138618500D01*
X229705000Y-138559000D01*
X229959000Y-138559000D01*
X229959000Y-138618500D01*
X230658250Y-138618500D01*
X230755751Y-138520999D01*
X234954001Y-138520999D01*
X235098273Y-138492302D01*
X235220580Y-138410578D01*
X235453000Y-138178158D01*
X235917129Y-138642287D01*
X235917129Y-138642287D01*
G37*
X235917129Y-138642287D02*
X235916991Y-138800360D01*
X236004649Y-139012508D01*
X236071025Y-139079000D01*
X230787305Y-139079000D01*
X230817000Y-139007310D01*
X230817000Y-138952250D01*
X230658250Y-138793500D01*
X229959000Y-138793500D01*
X229959000Y-138853000D01*
X229705000Y-138853000D01*
X229705000Y-138793500D01*
X229685000Y-138793500D01*
X229685000Y-138618500D01*
X229705000Y-138618500D01*
X229705000Y-138559000D01*
X229959000Y-138559000D01*
X229959000Y-138618500D01*
X230658250Y-138618500D01*
X230755751Y-138520999D01*
X234954001Y-138520999D01*
X235098273Y-138492302D01*
X235220580Y-138410578D01*
X235453000Y-138178158D01*
X235917129Y-138642287D01*
G36*
X188761420Y-138972579D02*
X188821178Y-139012508D01*
X188883728Y-139054303D01*
X189007890Y-139079000D01*
X173200276Y-139079000D01*
X173225000Y-139019310D01*
X173225000Y-138964250D01*
X173066250Y-138805500D01*
X172367000Y-138805500D01*
X172367000Y-138865000D01*
X172113000Y-138865000D01*
X172113000Y-138805500D01*
X172093000Y-138805500D01*
X172093000Y-138630500D01*
X172113000Y-138630500D01*
X172113000Y-138571000D01*
X172367000Y-138571000D01*
X172367000Y-138630500D01*
X173066250Y-138630500D01*
X173175751Y-138520999D01*
X188309841Y-138520999D01*
X188761420Y-138972579D01*
X188761420Y-138972579D01*
G37*
X188761420Y-138972579D02*
X188821178Y-139012508D01*
X188883728Y-139054303D01*
X189007890Y-139079000D01*
X173200276Y-139079000D01*
X173225000Y-139019310D01*
X173225000Y-138964250D01*
X173066250Y-138805500D01*
X172367000Y-138805500D01*
X172367000Y-138865000D01*
X172113000Y-138865000D01*
X172113000Y-138805500D01*
X172093000Y-138805500D01*
X172093000Y-138630500D01*
X172113000Y-138630500D01*
X172113000Y-138571000D01*
X172367000Y-138571000D01*
X172367000Y-138630500D01*
X173066250Y-138630500D01*
X173175751Y-138520999D01*
X188309841Y-138520999D01*
X188761420Y-138972579D01*
G36*
X233386363Y-113843016D02*
X233608988Y-114176199D01*
X233942171Y-114398824D01*
X234199449Y-114450000D01*
X233942171Y-114501176D01*
X233608988Y-114723801D01*
X233386363Y-115056984D01*
X233308187Y-115450000D01*
X233386363Y-115843016D01*
X233608988Y-116176199D01*
X233942171Y-116398824D01*
X234199449Y-116450000D01*
X233942171Y-116501176D01*
X233608988Y-116723801D01*
X233386363Y-117056984D01*
X233308187Y-117450000D01*
X233386363Y-117843016D01*
X233608988Y-118176199D01*
X233942171Y-118398824D01*
X234199449Y-118450000D01*
X233942171Y-118501176D01*
X233608988Y-118723801D01*
X233386363Y-119056984D01*
X233308187Y-119450000D01*
X233386363Y-119843016D01*
X233608988Y-120176199D01*
X233942171Y-120398824D01*
X234199449Y-120450000D01*
X233942171Y-120501176D01*
X233608988Y-120723801D01*
X233386363Y-121056984D01*
X233308187Y-121450000D01*
X233386363Y-121843016D01*
X233608988Y-122176199D01*
X233942171Y-122398824D01*
X234199449Y-122450000D01*
X233942171Y-122501176D01*
X233608988Y-122723801D01*
X233386363Y-123056984D01*
X233351749Y-123231000D01*
X232777121Y-123231000D01*
X232765271Y-123219129D01*
X232553276Y-123131100D01*
X232323731Y-123130900D01*
X232111583Y-123218558D01*
X231949129Y-123380729D01*
X231861100Y-123592724D01*
X231860900Y-123822269D01*
X231948558Y-124034417D01*
X232110729Y-124196871D01*
X232322724Y-124284900D01*
X232552269Y-124285100D01*
X232764417Y-124197442D01*
X232776881Y-124185000D01*
X233622160Y-124185000D01*
X233942171Y-124398824D01*
X234199449Y-124450000D01*
X233942171Y-124501176D01*
X233608988Y-124723801D01*
X233386363Y-125056984D01*
X233308187Y-125450000D01*
X233352856Y-125674564D01*
X232086505Y-126940915D01*
X232069731Y-126940900D01*
X231857583Y-127028558D01*
X231695129Y-127190729D01*
X231607100Y-127402724D01*
X231606900Y-127632269D01*
X231694558Y-127844417D01*
X231856729Y-128006871D01*
X232068724Y-128094900D01*
X232298269Y-128095100D01*
X232510417Y-128007442D01*
X232672871Y-127845271D01*
X232760900Y-127633276D01*
X232760915Y-127615665D01*
X233520808Y-126855772D01*
X233386363Y-127056984D01*
X233308187Y-127450000D01*
X233316023Y-127489397D01*
X232848505Y-127956915D01*
X232831731Y-127956900D01*
X232619583Y-128044558D01*
X232457129Y-128206729D01*
X232369100Y-128418724D01*
X232368900Y-128648269D01*
X232456558Y-128860417D01*
X232618729Y-129022871D01*
X232830724Y-129110900D01*
X233060269Y-129111100D01*
X233272417Y-129023442D01*
X233434871Y-128861271D01*
X233522900Y-128649276D01*
X233522915Y-128631665D01*
X233830423Y-128324157D01*
X233942171Y-128398824D01*
X234199449Y-128450000D01*
X233942171Y-128501176D01*
X233608988Y-128723801D01*
X233386363Y-129056984D01*
X233308187Y-129450000D01*
X233386363Y-129843016D01*
X233608988Y-130176199D01*
X233700238Y-130237170D01*
X233300855Y-130560460D01*
X233041827Y-131037316D01*
X233027682Y-131108815D01*
X233150344Y-131323000D01*
X234993000Y-131323000D01*
X234993000Y-131303000D01*
X235247000Y-131303000D01*
X235247000Y-131323000D01*
X237089656Y-131323000D01*
X237212318Y-131108815D01*
X237198173Y-131037316D01*
X236939145Y-130560460D01*
X236539762Y-130237170D01*
X236631012Y-130176199D01*
X236853637Y-129843016D01*
X236931813Y-129450000D01*
X236853637Y-129056984D01*
X236631012Y-128723801D01*
X236297829Y-128501176D01*
X236040551Y-128450000D01*
X236297829Y-128398824D01*
X236631012Y-128176199D01*
X236853637Y-127843016D01*
X236931813Y-127450000D01*
X236853637Y-127056984D01*
X236631012Y-126723801D01*
X236297829Y-126501176D01*
X236040551Y-126450000D01*
X236297829Y-126398824D01*
X236631012Y-126176199D01*
X236853637Y-125843016D01*
X236931813Y-125450000D01*
X236853637Y-125056984D01*
X236631012Y-124723801D01*
X236297829Y-124501176D01*
X236040551Y-124450000D01*
X236297829Y-124398824D01*
X236631012Y-124176199D01*
X236853637Y-123843016D01*
X236931813Y-123450000D01*
X236853637Y-123056984D01*
X236631012Y-122723801D01*
X236297829Y-122501176D01*
X236040551Y-122450000D01*
X236297829Y-122398824D01*
X236631012Y-122176199D01*
X236853637Y-121843016D01*
X236931813Y-121450000D01*
X236853637Y-121056984D01*
X236631012Y-120723801D01*
X236297829Y-120501176D01*
X236040551Y-120450000D01*
X236297829Y-120398824D01*
X236631012Y-120176199D01*
X236853637Y-119843016D01*
X236931813Y-119450000D01*
X236853637Y-119056984D01*
X236631012Y-118723801D01*
X236297829Y-118501176D01*
X236040551Y-118450000D01*
X236297829Y-118398824D01*
X236631012Y-118176199D01*
X236853637Y-117843016D01*
X236931813Y-117450000D01*
X236853637Y-117056984D01*
X236672029Y-116785188D01*
X237649000Y-117762159D01*
X237649000Y-135518640D01*
X236493781Y-134363421D01*
X236371474Y-134281697D01*
X236227202Y-134253000D01*
X235134158Y-134253000D01*
X232672343Y-131791185D01*
X233027682Y-131791185D01*
X233041827Y-131862684D01*
X233300855Y-132339540D01*
X233722651Y-132680972D01*
X234243000Y-132835000D01*
X234993000Y-132835000D01*
X234993000Y-131577000D01*
X235247000Y-131577000D01*
X235247000Y-132835000D01*
X235997000Y-132835000D01*
X236517349Y-132680972D01*
X236939145Y-132339540D01*
X237198173Y-131862684D01*
X237212318Y-131791185D01*
X237089656Y-131577000D01*
X235247000Y-131577000D01*
X234993000Y-131577000D01*
X233150344Y-131577000D01*
X233027682Y-131791185D01*
X232672343Y-131791185D01*
X231291000Y-130409842D01*
X231291000Y-114974158D01*
X232438158Y-113827000D01*
X233383177Y-113827000D01*
X233386363Y-113843016D01*
X233386363Y-113843016D01*
G37*
X233386363Y-113843016D02*
X233608988Y-114176199D01*
X233942171Y-114398824D01*
X234199449Y-114450000D01*
X233942171Y-114501176D01*
X233608988Y-114723801D01*
X233386363Y-115056984D01*
X233308187Y-115450000D01*
X233386363Y-115843016D01*
X233608988Y-116176199D01*
X233942171Y-116398824D01*
X234199449Y-116450000D01*
X233942171Y-116501176D01*
X233608988Y-116723801D01*
X233386363Y-117056984D01*
X233308187Y-117450000D01*
X233386363Y-117843016D01*
X233608988Y-118176199D01*
X233942171Y-118398824D01*
X234199449Y-118450000D01*
X233942171Y-118501176D01*
X233608988Y-118723801D01*
X233386363Y-119056984D01*
X233308187Y-119450000D01*
X233386363Y-119843016D01*
X233608988Y-120176199D01*
X233942171Y-120398824D01*
X234199449Y-120450000D01*
X233942171Y-120501176D01*
X233608988Y-120723801D01*
X233386363Y-121056984D01*
X233308187Y-121450000D01*
X233386363Y-121843016D01*
X233608988Y-122176199D01*
X233942171Y-122398824D01*
X234199449Y-122450000D01*
X233942171Y-122501176D01*
X233608988Y-122723801D01*
X233386363Y-123056984D01*
X233351749Y-123231000D01*
X232777121Y-123231000D01*
X232765271Y-123219129D01*
X232553276Y-123131100D01*
X232323731Y-123130900D01*
X232111583Y-123218558D01*
X231949129Y-123380729D01*
X231861100Y-123592724D01*
X231860900Y-123822269D01*
X231948558Y-124034417D01*
X232110729Y-124196871D01*
X232322724Y-124284900D01*
X232552269Y-124285100D01*
X232764417Y-124197442D01*
X232776881Y-124185000D01*
X233622160Y-124185000D01*
X233942171Y-124398824D01*
X234199449Y-124450000D01*
X233942171Y-124501176D01*
X233608988Y-124723801D01*
X233386363Y-125056984D01*
X233308187Y-125450000D01*
X233352856Y-125674564D01*
X232086505Y-126940915D01*
X232069731Y-126940900D01*
X231857583Y-127028558D01*
X231695129Y-127190729D01*
X231607100Y-127402724D01*
X231606900Y-127632269D01*
X231694558Y-127844417D01*
X231856729Y-128006871D01*
X232068724Y-128094900D01*
X232298269Y-128095100D01*
X232510417Y-128007442D01*
X232672871Y-127845271D01*
X232760900Y-127633276D01*
X232760915Y-127615665D01*
X233520808Y-126855772D01*
X233386363Y-127056984D01*
X233308187Y-127450000D01*
X233316023Y-127489397D01*
X232848505Y-127956915D01*
X232831731Y-127956900D01*
X232619583Y-128044558D01*
X232457129Y-128206729D01*
X232369100Y-128418724D01*
X232368900Y-128648269D01*
X232456558Y-128860417D01*
X232618729Y-129022871D01*
X232830724Y-129110900D01*
X233060269Y-129111100D01*
X233272417Y-129023442D01*
X233434871Y-128861271D01*
X233522900Y-128649276D01*
X233522915Y-128631665D01*
X233830423Y-128324157D01*
X233942171Y-128398824D01*
X234199449Y-128450000D01*
X233942171Y-128501176D01*
X233608988Y-128723801D01*
X233386363Y-129056984D01*
X233308187Y-129450000D01*
X233386363Y-129843016D01*
X233608988Y-130176199D01*
X233700238Y-130237170D01*
X233300855Y-130560460D01*
X233041827Y-131037316D01*
X233027682Y-131108815D01*
X233150344Y-131323000D01*
X234993000Y-131323000D01*
X234993000Y-131303000D01*
X235247000Y-131303000D01*
X235247000Y-131323000D01*
X237089656Y-131323000D01*
X237212318Y-131108815D01*
X237198173Y-131037316D01*
X236939145Y-130560460D01*
X236539762Y-130237170D01*
X236631012Y-130176199D01*
X236853637Y-129843016D01*
X236931813Y-129450000D01*
X236853637Y-129056984D01*
X236631012Y-128723801D01*
X236297829Y-128501176D01*
X236040551Y-128450000D01*
X236297829Y-128398824D01*
X236631012Y-128176199D01*
X236853637Y-127843016D01*
X236931813Y-127450000D01*
X236853637Y-127056984D01*
X236631012Y-126723801D01*
X236297829Y-126501176D01*
X236040551Y-126450000D01*
X236297829Y-126398824D01*
X236631012Y-126176199D01*
X236853637Y-125843016D01*
X236931813Y-125450000D01*
X236853637Y-125056984D01*
X236631012Y-124723801D01*
X236297829Y-124501176D01*
X236040551Y-124450000D01*
X236297829Y-124398824D01*
X236631012Y-124176199D01*
X236853637Y-123843016D01*
X236931813Y-123450000D01*
X236853637Y-123056984D01*
X236631012Y-122723801D01*
X236297829Y-122501176D01*
X236040551Y-122450000D01*
X236297829Y-122398824D01*
X236631012Y-122176199D01*
X236853637Y-121843016D01*
X236931813Y-121450000D01*
X236853637Y-121056984D01*
X236631012Y-120723801D01*
X236297829Y-120501176D01*
X236040551Y-120450000D01*
X236297829Y-120398824D01*
X236631012Y-120176199D01*
X236853637Y-119843016D01*
X236931813Y-119450000D01*
X236853637Y-119056984D01*
X236631012Y-118723801D01*
X236297829Y-118501176D01*
X236040551Y-118450000D01*
X236297829Y-118398824D01*
X236631012Y-118176199D01*
X236853637Y-117843016D01*
X236931813Y-117450000D01*
X236853637Y-117056984D01*
X236672029Y-116785188D01*
X237649000Y-117762159D01*
X237649000Y-135518640D01*
X236493781Y-134363421D01*
X236371474Y-134281697D01*
X236227202Y-134253000D01*
X235134158Y-134253000D01*
X232672343Y-131791185D01*
X233027682Y-131791185D01*
X233041827Y-131862684D01*
X233300855Y-132339540D01*
X233722651Y-132680972D01*
X234243000Y-132835000D01*
X234993000Y-132835000D01*
X234993000Y-131577000D01*
X235247000Y-131577000D01*
X235247000Y-132835000D01*
X235997000Y-132835000D01*
X236517349Y-132680972D01*
X236939145Y-132339540D01*
X237198173Y-131862684D01*
X237212318Y-131791185D01*
X237089656Y-131577000D01*
X235247000Y-131577000D01*
X234993000Y-131577000D01*
X233150344Y-131577000D01*
X233027682Y-131791185D01*
X232672343Y-131791185D01*
X231291000Y-130409842D01*
X231291000Y-114974158D01*
X232438158Y-113827000D01*
X233383177Y-113827000D01*
X233386363Y-113843016D01*
M02*
