M48
;DRILL file {KiCad 4.0.4-stable} date 07/06/18 22:48:32
;FORMAT={-:-/ absolute / inch / decimal}
FMAT,2
INCH,TZ
T1C0.067
T2C0.157
%
G90
G05
M72
T1
X6.5567Y-5.8366
X6.5567Y-6.5846
X6.9567Y-5.8366
X6.9567Y-6.5846
X7.3047Y-5.8366
X7.3047Y-6.5846
X7.7047Y-5.8366
X7.7047Y-6.5846
X8.0528Y-5.8366
X8.0528Y-6.5846
X8.4528Y-5.8366
X8.4528Y-6.5846
X8.8008Y-5.8366
X8.8008Y-6.5846
X9.2008Y-5.8366
X9.2008Y-6.5846
T2
X6.7567Y-5.8366
X6.7567Y-6.5846
X7.5047Y-5.8366
X7.5047Y-6.5846
X8.2528Y-5.8366
X8.2528Y-6.5846
X9.0008Y-5.8366
X9.0008Y-6.5846
T0
M30
