G04 #@! TF.FileFunction,Copper,L2,Bot,Signal*
%FSLAX46Y46*%
G04 Gerber Fmt 4.6, Leading zero omitted, Abs format (unit mm)*
G04 Created by KiCad (PCBNEW 4.0.4-stable) date 07/06/18 22:48:26*
%MOMM*%
%LPD*%
G01*
G04 APERTURE LIST*
%ADD10C,0.100000*%
%ADD11C,1.450000*%
%ADD12O,1.200000X1.900000*%
%ADD13C,2.286000*%
%ADD14C,0.600000*%
%ADD15C,0.400000*%
%ADD16C,0.200000*%
%ADD17C,0.254000*%
G04 APERTURE END LIST*
D10*
D11*
X228820000Y-106900000D03*
X223820000Y-106900000D03*
D12*
X229820000Y-104200000D03*
X222820000Y-104200000D03*
D13*
X174160000Y-143170000D03*
X167810000Y-145710000D03*
X193160000Y-143170000D03*
X186810000Y-145710000D03*
X212160000Y-143170000D03*
X205810000Y-145710000D03*
X174160000Y-162170000D03*
X167810000Y-164710000D03*
X212160000Y-162170000D03*
X205810000Y-164710000D03*
X231160000Y-143170000D03*
X224810000Y-145710000D03*
X193160000Y-162170000D03*
X186810000Y-164710000D03*
X231160000Y-162170000D03*
X224810000Y-164710000D03*
D14*
X237264000Y-131328000D03*
X231168000Y-138694000D03*
X211864000Y-138694000D03*
X192560000Y-138694000D03*
X173256000Y-138694000D03*
X169446000Y-159522000D03*
X188750000Y-159522000D03*
X207292000Y-159522000D03*
X226850000Y-159522000D03*
X205260000Y-128280000D03*
X213649999Y-124170001D03*
X212372000Y-126756000D03*
X213642000Y-127518000D03*
X213896000Y-130566000D03*
X232438000Y-123708000D03*
X232184000Y-127518000D03*
X232946000Y-128534000D03*
X236248000Y-159268000D03*
X236494091Y-138686091D03*
D15*
X174160000Y-143170000D02*
X190370000Y-143170000D01*
X190370000Y-143170000D02*
X205260000Y-128280000D01*
X205006000Y-128534000D02*
X205260000Y-128280000D01*
X211356000Y-125807848D02*
X212012152Y-125807848D01*
X212012152Y-125807848D02*
X213649999Y-124170001D01*
X193160000Y-143170000D02*
X193993848Y-143170000D01*
X193993848Y-143170000D02*
X211356000Y-125807848D01*
X174160000Y-162170000D02*
X180168974Y-162170000D01*
X180168974Y-162170000D02*
X193771358Y-148567616D01*
X193771358Y-148567616D02*
X193771358Y-146382404D01*
X193771358Y-146382404D02*
X212372000Y-127781762D01*
X212372000Y-127781762D02*
X212372000Y-126756000D01*
X213342001Y-127817999D02*
X213642000Y-127518000D01*
X194321369Y-146838631D02*
X213342001Y-127817999D01*
X194321369Y-161008631D02*
X194321369Y-146838631D01*
X193160000Y-162170000D02*
X194321369Y-161008631D01*
X212160000Y-143170000D02*
X213642000Y-141688000D01*
X213642000Y-141688000D02*
X213642000Y-130820000D01*
X213642000Y-130820000D02*
X213896000Y-130566000D01*
X212160000Y-162170000D02*
X212160000Y-145379642D01*
X212160000Y-145379642D02*
X232438000Y-125101642D01*
X232438000Y-125101642D02*
X232438000Y-123708000D01*
X231160000Y-143170000D02*
X231160000Y-141553554D01*
X231160000Y-141553554D02*
X232184000Y-140529554D01*
X232184000Y-140529554D02*
X232184000Y-127518000D01*
X231160000Y-162170000D02*
X231160000Y-145379642D01*
X231160000Y-145379642D02*
X232946000Y-143593642D01*
X232946000Y-143593642D02*
X232946000Y-128534000D01*
D16*
X236494091Y-138686091D02*
X236494091Y-159021909D01*
X236494091Y-159021909D02*
X236248000Y-159268000D01*
D17*
G36*
X236640462Y-102786389D02*
X237505566Y-103364434D01*
X238083612Y-104229539D01*
X238293000Y-105282208D01*
X238293000Y-176217792D01*
X238083612Y-177270461D01*
X237505566Y-178135566D01*
X236640462Y-178713611D01*
X235587793Y-178923000D01*
X164652208Y-178923000D01*
X163599539Y-178713612D01*
X162734434Y-178135566D01*
X162156389Y-177270462D01*
X161953407Y-176250000D01*
X163293000Y-176250000D01*
X163394012Y-176757821D01*
X163681669Y-177188331D01*
X164112179Y-177475988D01*
X164620000Y-177577000D01*
X165127821Y-177475988D01*
X165558331Y-177188331D01*
X165845988Y-176757821D01*
X165947000Y-176250000D01*
X234293000Y-176250000D01*
X234394012Y-176757821D01*
X234681669Y-177188331D01*
X235112179Y-177475988D01*
X235620000Y-177577000D01*
X236127821Y-177475988D01*
X236558331Y-177188331D01*
X236845988Y-176757821D01*
X236947000Y-176250000D01*
X236845988Y-175742179D01*
X236558331Y-175311669D01*
X236127821Y-175024012D01*
X235620000Y-174923000D01*
X235112179Y-175024012D01*
X234681669Y-175311669D01*
X234394012Y-175742179D01*
X234293000Y-176250000D01*
X165947000Y-176250000D01*
X165845988Y-175742179D01*
X165558331Y-175311669D01*
X165127821Y-175024012D01*
X164620000Y-174923000D01*
X164112179Y-175024012D01*
X163681669Y-175311669D01*
X163394012Y-175742179D01*
X163293000Y-176250000D01*
X161953407Y-176250000D01*
X161947000Y-176217793D01*
X161947000Y-167473369D01*
X165411905Y-167473369D01*
X165583255Y-167888069D01*
X165900262Y-168205630D01*
X166314663Y-168377704D01*
X166763369Y-168378095D01*
X167178069Y-168206745D01*
X167495630Y-167889738D01*
X167574528Y-167699728D01*
X169348706Y-167699728D01*
X169693702Y-168534681D01*
X170331959Y-169174053D01*
X171166308Y-169520505D01*
X172069728Y-169521294D01*
X172904681Y-169176298D01*
X173544053Y-168538041D01*
X173890505Y-167703692D01*
X173890706Y-167473369D01*
X175571905Y-167473369D01*
X175743255Y-167888069D01*
X176060262Y-168205630D01*
X176474663Y-168377704D01*
X176923369Y-168378095D01*
X177338069Y-168206745D01*
X177655630Y-167889738D01*
X177827704Y-167475337D01*
X177827705Y-167473369D01*
X184411905Y-167473369D01*
X184583255Y-167888069D01*
X184900262Y-168205630D01*
X185314663Y-168377704D01*
X185763369Y-168378095D01*
X186178069Y-168206745D01*
X186495630Y-167889738D01*
X186574528Y-167699728D01*
X188348706Y-167699728D01*
X188693702Y-168534681D01*
X189331959Y-169174053D01*
X190166308Y-169520505D01*
X191069728Y-169521294D01*
X191904681Y-169176298D01*
X192544053Y-168538041D01*
X192890505Y-167703692D01*
X192890706Y-167473369D01*
X194571905Y-167473369D01*
X194743255Y-167888069D01*
X195060262Y-168205630D01*
X195474663Y-168377704D01*
X195923369Y-168378095D01*
X196338069Y-168206745D01*
X196655630Y-167889738D01*
X196827704Y-167475337D01*
X196827705Y-167473369D01*
X203411905Y-167473369D01*
X203583255Y-167888069D01*
X203900262Y-168205630D01*
X204314663Y-168377704D01*
X204763369Y-168378095D01*
X205178069Y-168206745D01*
X205495630Y-167889738D01*
X205574528Y-167699728D01*
X207348706Y-167699728D01*
X207693702Y-168534681D01*
X208331959Y-169174053D01*
X209166308Y-169520505D01*
X210069728Y-169521294D01*
X210904681Y-169176298D01*
X211544053Y-168538041D01*
X211890505Y-167703692D01*
X211890706Y-167473369D01*
X213571905Y-167473369D01*
X213743255Y-167888069D01*
X214060262Y-168205630D01*
X214474663Y-168377704D01*
X214923369Y-168378095D01*
X215338069Y-168206745D01*
X215655630Y-167889738D01*
X215827704Y-167475337D01*
X215827705Y-167473369D01*
X222411905Y-167473369D01*
X222583255Y-167888069D01*
X222900262Y-168205630D01*
X223314663Y-168377704D01*
X223763369Y-168378095D01*
X224178069Y-168206745D01*
X224495630Y-167889738D01*
X224574528Y-167699728D01*
X226348706Y-167699728D01*
X226693702Y-168534681D01*
X227331959Y-169174053D01*
X228166308Y-169520505D01*
X229069728Y-169521294D01*
X229904681Y-169176298D01*
X230544053Y-168538041D01*
X230890505Y-167703692D01*
X230890706Y-167473369D01*
X232571905Y-167473369D01*
X232743255Y-167888069D01*
X233060262Y-168205630D01*
X233474663Y-168377704D01*
X233923369Y-168378095D01*
X234338069Y-168206745D01*
X234655630Y-167889738D01*
X234827704Y-167475337D01*
X234828095Y-167026631D01*
X234656745Y-166611931D01*
X234339738Y-166294370D01*
X233925337Y-166122296D01*
X233476631Y-166121905D01*
X233061931Y-166293255D01*
X232744370Y-166610262D01*
X232572296Y-167024663D01*
X232571905Y-167473369D01*
X230890706Y-167473369D01*
X230891294Y-166800272D01*
X230546298Y-165965319D01*
X229908041Y-165325947D01*
X229073692Y-164979495D01*
X228170272Y-164978706D01*
X227335319Y-165323702D01*
X226695947Y-165961959D01*
X226349495Y-166796308D01*
X226348706Y-167699728D01*
X224574528Y-167699728D01*
X224667704Y-167475337D01*
X224668095Y-167026631D01*
X224496745Y-166611931D01*
X224305175Y-166420026D01*
X224511333Y-166498062D01*
X225218329Y-166476249D01*
X225770194Y-166247658D01*
X225886358Y-165965963D01*
X224810000Y-164889605D01*
X223733642Y-165965963D01*
X223804881Y-166138716D01*
X223765337Y-166122296D01*
X223316631Y-166121905D01*
X222901931Y-166293255D01*
X222584370Y-166610262D01*
X222412296Y-167024663D01*
X222411905Y-167473369D01*
X215827705Y-167473369D01*
X215828095Y-167026631D01*
X215656745Y-166611931D01*
X215339738Y-166294370D01*
X214925337Y-166122296D01*
X214476631Y-166121905D01*
X214061931Y-166293255D01*
X213744370Y-166610262D01*
X213572296Y-167024663D01*
X213571905Y-167473369D01*
X211890706Y-167473369D01*
X211891294Y-166800272D01*
X211546298Y-165965319D01*
X210908041Y-165325947D01*
X210073692Y-164979495D01*
X209170272Y-164978706D01*
X208335319Y-165323702D01*
X207695947Y-165961959D01*
X207349495Y-166796308D01*
X207348706Y-167699728D01*
X205574528Y-167699728D01*
X205667704Y-167475337D01*
X205668095Y-167026631D01*
X205496745Y-166611931D01*
X205305175Y-166420026D01*
X205511333Y-166498062D01*
X206218329Y-166476249D01*
X206770194Y-166247658D01*
X206886358Y-165965963D01*
X205810000Y-164889605D01*
X204733642Y-165965963D01*
X204804881Y-166138716D01*
X204765337Y-166122296D01*
X204316631Y-166121905D01*
X203901931Y-166293255D01*
X203584370Y-166610262D01*
X203412296Y-167024663D01*
X203411905Y-167473369D01*
X196827705Y-167473369D01*
X196828095Y-167026631D01*
X196656745Y-166611931D01*
X196339738Y-166294370D01*
X195925337Y-166122296D01*
X195476631Y-166121905D01*
X195061931Y-166293255D01*
X194744370Y-166610262D01*
X194572296Y-167024663D01*
X194571905Y-167473369D01*
X192890706Y-167473369D01*
X192891294Y-166800272D01*
X192546298Y-165965319D01*
X191908041Y-165325947D01*
X191073692Y-164979495D01*
X190170272Y-164978706D01*
X189335319Y-165323702D01*
X188695947Y-165961959D01*
X188349495Y-166796308D01*
X188348706Y-167699728D01*
X186574528Y-167699728D01*
X186667704Y-167475337D01*
X186668095Y-167026631D01*
X186496745Y-166611931D01*
X186305175Y-166420026D01*
X186511333Y-166498062D01*
X187218329Y-166476249D01*
X187770194Y-166247658D01*
X187886358Y-165965963D01*
X186810000Y-164889605D01*
X185733642Y-165965963D01*
X185804881Y-166138716D01*
X185765337Y-166122296D01*
X185316631Y-166121905D01*
X184901931Y-166293255D01*
X184584370Y-166610262D01*
X184412296Y-167024663D01*
X184411905Y-167473369D01*
X177827705Y-167473369D01*
X177828095Y-167026631D01*
X177656745Y-166611931D01*
X177339738Y-166294370D01*
X176925337Y-166122296D01*
X176476631Y-166121905D01*
X176061931Y-166293255D01*
X175744370Y-166610262D01*
X175572296Y-167024663D01*
X175571905Y-167473369D01*
X173890706Y-167473369D01*
X173891294Y-166800272D01*
X173546298Y-165965319D01*
X172908041Y-165325947D01*
X172073692Y-164979495D01*
X171170272Y-164978706D01*
X170335319Y-165323702D01*
X169695947Y-165961959D01*
X169349495Y-166796308D01*
X169348706Y-167699728D01*
X167574528Y-167699728D01*
X167667704Y-167475337D01*
X167668095Y-167026631D01*
X167496745Y-166611931D01*
X167305175Y-166420026D01*
X167511333Y-166498062D01*
X168218329Y-166476249D01*
X168770194Y-166247658D01*
X168886358Y-165965963D01*
X167810000Y-164889605D01*
X166733642Y-165965963D01*
X166804881Y-166138716D01*
X166765337Y-166122296D01*
X166316631Y-166121905D01*
X165901931Y-166293255D01*
X165584370Y-166610262D01*
X165412296Y-167024663D01*
X165411905Y-167473369D01*
X161947000Y-167473369D01*
X161947000Y-164411333D01*
X166021938Y-164411333D01*
X166043751Y-165118329D01*
X166272342Y-165670194D01*
X166554037Y-165786358D01*
X167630395Y-164710000D01*
X167989605Y-164710000D01*
X169065963Y-165786358D01*
X169347658Y-165670194D01*
X169598062Y-165008667D01*
X169579633Y-164411333D01*
X185021938Y-164411333D01*
X185043751Y-165118329D01*
X185272342Y-165670194D01*
X185554037Y-165786358D01*
X186630395Y-164710000D01*
X186989605Y-164710000D01*
X188065963Y-165786358D01*
X188347658Y-165670194D01*
X188598062Y-165008667D01*
X188579633Y-164411333D01*
X204021938Y-164411333D01*
X204043751Y-165118329D01*
X204272342Y-165670194D01*
X204554037Y-165786358D01*
X205630395Y-164710000D01*
X205989605Y-164710000D01*
X207065963Y-165786358D01*
X207347658Y-165670194D01*
X207598062Y-165008667D01*
X207579633Y-164411333D01*
X223021938Y-164411333D01*
X223043751Y-165118329D01*
X223272342Y-165670194D01*
X223554037Y-165786358D01*
X224630395Y-164710000D01*
X224989605Y-164710000D01*
X226065963Y-165786358D01*
X226347658Y-165670194D01*
X226598062Y-165008667D01*
X226576249Y-164301671D01*
X226347658Y-163749806D01*
X226065963Y-163633642D01*
X224989605Y-164710000D01*
X224630395Y-164710000D01*
X223554037Y-163633642D01*
X223272342Y-163749806D01*
X223021938Y-164411333D01*
X207579633Y-164411333D01*
X207576249Y-164301671D01*
X207347658Y-163749806D01*
X207065963Y-163633642D01*
X205989605Y-164710000D01*
X205630395Y-164710000D01*
X204554037Y-163633642D01*
X204272342Y-163749806D01*
X204021938Y-164411333D01*
X188579633Y-164411333D01*
X188576249Y-164301671D01*
X188347658Y-163749806D01*
X188065963Y-163633642D01*
X186989605Y-164710000D01*
X186630395Y-164710000D01*
X185554037Y-163633642D01*
X185272342Y-163749806D01*
X185021938Y-164411333D01*
X169579633Y-164411333D01*
X169576249Y-164301671D01*
X169347658Y-163749806D01*
X169065963Y-163633642D01*
X167989605Y-164710000D01*
X167630395Y-164710000D01*
X166554037Y-163633642D01*
X166272342Y-163749806D01*
X166021938Y-164411333D01*
X161947000Y-164411333D01*
X161947000Y-163454037D01*
X166733642Y-163454037D01*
X167810000Y-164530395D01*
X168886358Y-163454037D01*
X168770194Y-163172342D01*
X168108667Y-162921938D01*
X167401671Y-162943751D01*
X166849806Y-163172342D01*
X166733642Y-163454037D01*
X161947000Y-163454037D01*
X161947000Y-162451216D01*
X172739754Y-162451216D01*
X172955481Y-162973314D01*
X173354585Y-163373115D01*
X173876305Y-163589753D01*
X174441216Y-163590246D01*
X174770866Y-163454037D01*
X185733642Y-163454037D01*
X186810000Y-164530395D01*
X187886358Y-163454037D01*
X187770194Y-163172342D01*
X187108667Y-162921938D01*
X186401671Y-162943751D01*
X185849806Y-163172342D01*
X185733642Y-163454037D01*
X174770866Y-163454037D01*
X174963314Y-163374519D01*
X175363115Y-162975415D01*
X175499485Y-162647000D01*
X180168974Y-162647000D01*
X180351514Y-162610691D01*
X180506264Y-162507290D01*
X193844369Y-149169185D01*
X193844369Y-160811051D01*
X193769773Y-160885647D01*
X193443695Y-160750247D01*
X192878784Y-160749754D01*
X192356686Y-160965481D01*
X191956885Y-161364585D01*
X191740247Y-161886305D01*
X191739754Y-162451216D01*
X191955481Y-162973314D01*
X192354585Y-163373115D01*
X192876305Y-163589753D01*
X193441216Y-163590246D01*
X193770866Y-163454037D01*
X204733642Y-163454037D01*
X205810000Y-164530395D01*
X206886358Y-163454037D01*
X206770194Y-163172342D01*
X206108667Y-162921938D01*
X205401671Y-162943751D01*
X204849806Y-163172342D01*
X204733642Y-163454037D01*
X193770866Y-163454037D01*
X193963314Y-163374519D01*
X194363115Y-162975415D01*
X194579753Y-162453695D01*
X194580246Y-161888784D01*
X194444449Y-161560131D01*
X194658659Y-161345921D01*
X194762060Y-161191171D01*
X194798369Y-161008631D01*
X194798369Y-148943279D01*
X195060262Y-149205630D01*
X195474663Y-149377704D01*
X195923369Y-149378095D01*
X196338069Y-149206745D01*
X196655630Y-148889738D01*
X196827704Y-148475337D01*
X196827705Y-148473369D01*
X203411905Y-148473369D01*
X203583255Y-148888069D01*
X203900262Y-149205630D01*
X204314663Y-149377704D01*
X204763369Y-149378095D01*
X205178069Y-149206745D01*
X205495630Y-148889738D01*
X205574528Y-148699728D01*
X207348706Y-148699728D01*
X207693702Y-149534681D01*
X208331959Y-150174053D01*
X209166308Y-150520505D01*
X210069728Y-150521294D01*
X210904681Y-150176298D01*
X211544053Y-149538041D01*
X211683000Y-149203419D01*
X211683000Y-160830650D01*
X211356686Y-160965481D01*
X210956885Y-161364585D01*
X210740247Y-161886305D01*
X210739754Y-162451216D01*
X210955481Y-162973314D01*
X211354585Y-163373115D01*
X211876305Y-163589753D01*
X212441216Y-163590246D01*
X212770866Y-163454037D01*
X223733642Y-163454037D01*
X224810000Y-164530395D01*
X225886358Y-163454037D01*
X225770194Y-163172342D01*
X225108667Y-162921938D01*
X224401671Y-162943751D01*
X223849806Y-163172342D01*
X223733642Y-163454037D01*
X212770866Y-163454037D01*
X212963314Y-163374519D01*
X213363115Y-162975415D01*
X213579753Y-162453695D01*
X213580246Y-161888784D01*
X213364519Y-161366686D01*
X212965415Y-160966885D01*
X212637000Y-160830515D01*
X212637000Y-148473369D01*
X213571905Y-148473369D01*
X213743255Y-148888069D01*
X214060262Y-149205630D01*
X214474663Y-149377704D01*
X214923369Y-149378095D01*
X215338069Y-149206745D01*
X215655630Y-148889738D01*
X215827704Y-148475337D01*
X215827705Y-148473369D01*
X222411905Y-148473369D01*
X222583255Y-148888069D01*
X222900262Y-149205630D01*
X223314663Y-149377704D01*
X223763369Y-149378095D01*
X224178069Y-149206745D01*
X224495630Y-148889738D01*
X224574528Y-148699728D01*
X226348706Y-148699728D01*
X226693702Y-149534681D01*
X227331959Y-150174053D01*
X228166308Y-150520505D01*
X229069728Y-150521294D01*
X229904681Y-150176298D01*
X230544053Y-149538041D01*
X230683000Y-149203419D01*
X230683000Y-160830650D01*
X230356686Y-160965481D01*
X229956885Y-161364585D01*
X229740247Y-161886305D01*
X229739754Y-162451216D01*
X229955481Y-162973314D01*
X230354585Y-163373115D01*
X230876305Y-163589753D01*
X231441216Y-163590246D01*
X231963314Y-163374519D01*
X232363115Y-162975415D01*
X232579753Y-162453695D01*
X232580246Y-161888784D01*
X232364519Y-161366686D01*
X231965415Y-160966885D01*
X231637000Y-160830515D01*
X231637000Y-159382269D01*
X235670900Y-159382269D01*
X235758558Y-159594417D01*
X235920729Y-159756871D01*
X236132724Y-159844900D01*
X236362269Y-159845100D01*
X236574417Y-159757442D01*
X236736871Y-159595271D01*
X236824900Y-159383276D01*
X236825067Y-159192113D01*
X236842394Y-159166181D01*
X236850838Y-159123728D01*
X236871091Y-159021909D01*
X236871091Y-139125038D01*
X236982962Y-139013362D01*
X237070991Y-138801367D01*
X237071191Y-138571822D01*
X236983533Y-138359674D01*
X236821362Y-138197220D01*
X236609367Y-138109191D01*
X236379822Y-138108991D01*
X236167674Y-138196649D01*
X236005220Y-138358820D01*
X235917191Y-138570815D01*
X235916991Y-138800360D01*
X236004649Y-139012508D01*
X236117091Y-139125146D01*
X236117091Y-158697776D01*
X235921583Y-158778558D01*
X235759129Y-158940729D01*
X235671100Y-159152724D01*
X235670900Y-159382269D01*
X231637000Y-159382269D01*
X231637000Y-148473369D01*
X232571905Y-148473369D01*
X232743255Y-148888069D01*
X233060262Y-149205630D01*
X233474663Y-149377704D01*
X233923369Y-149378095D01*
X234338069Y-149206745D01*
X234655630Y-148889738D01*
X234827704Y-148475337D01*
X234828095Y-148026631D01*
X234656745Y-147611931D01*
X234339738Y-147294370D01*
X233925337Y-147122296D01*
X233476631Y-147121905D01*
X233061931Y-147293255D01*
X232744370Y-147610262D01*
X232572296Y-148024663D01*
X232571905Y-148473369D01*
X231637000Y-148473369D01*
X231637000Y-145577222D01*
X233283290Y-143930932D01*
X233386691Y-143776183D01*
X233423000Y-143593642D01*
X233423000Y-128873121D01*
X233434871Y-128861271D01*
X233522900Y-128649276D01*
X233523100Y-128419731D01*
X233435442Y-128207583D01*
X233273271Y-128045129D01*
X233061276Y-127957100D01*
X232831731Y-127956900D01*
X232661000Y-128027445D01*
X232661000Y-127857121D01*
X232672871Y-127845271D01*
X232760900Y-127633276D01*
X232761100Y-127403731D01*
X232673442Y-127191583D01*
X232511271Y-127029129D01*
X232299276Y-126941100D01*
X232069731Y-126940900D01*
X231857583Y-127028558D01*
X231695129Y-127190729D01*
X231607100Y-127402724D01*
X231606900Y-127632269D01*
X231694558Y-127844417D01*
X231707000Y-127856881D01*
X231707000Y-140331974D01*
X230822710Y-141216264D01*
X230719309Y-141371014D01*
X230683000Y-141553554D01*
X230683000Y-141830650D01*
X230356686Y-141965481D01*
X229956885Y-142364585D01*
X229740247Y-142886305D01*
X229739754Y-143451216D01*
X229955481Y-143973314D01*
X230354585Y-144373115D01*
X230876305Y-144589753D01*
X231274961Y-144590101D01*
X230822710Y-145042352D01*
X230719309Y-145197102D01*
X230683000Y-145379642D01*
X230683000Y-147296163D01*
X230546298Y-146965319D01*
X229908041Y-146325947D01*
X229073692Y-145979495D01*
X228170272Y-145978706D01*
X227335319Y-146323702D01*
X226695947Y-146961959D01*
X226349495Y-147796308D01*
X226348706Y-148699728D01*
X224574528Y-148699728D01*
X224667704Y-148475337D01*
X224668095Y-148026631D01*
X224496745Y-147611931D01*
X224305175Y-147420026D01*
X224511333Y-147498062D01*
X225218329Y-147476249D01*
X225770194Y-147247658D01*
X225886358Y-146965963D01*
X224810000Y-145889605D01*
X223733642Y-146965963D01*
X223804881Y-147138716D01*
X223765337Y-147122296D01*
X223316631Y-147121905D01*
X222901931Y-147293255D01*
X222584370Y-147610262D01*
X222412296Y-148024663D01*
X222411905Y-148473369D01*
X215827705Y-148473369D01*
X215828095Y-148026631D01*
X215656745Y-147611931D01*
X215339738Y-147294370D01*
X214925337Y-147122296D01*
X214476631Y-147121905D01*
X214061931Y-147293255D01*
X213744370Y-147610262D01*
X213572296Y-148024663D01*
X213571905Y-148473369D01*
X212637000Y-148473369D01*
X212637000Y-145577222D01*
X212802889Y-145411333D01*
X223021938Y-145411333D01*
X223043751Y-146118329D01*
X223272342Y-146670194D01*
X223554037Y-146786358D01*
X224630395Y-145710000D01*
X224989605Y-145710000D01*
X226065963Y-146786358D01*
X226347658Y-146670194D01*
X226598062Y-146008667D01*
X226576249Y-145301671D01*
X226347658Y-144749806D01*
X226065963Y-144633642D01*
X224989605Y-145710000D01*
X224630395Y-145710000D01*
X223554037Y-144633642D01*
X223272342Y-144749806D01*
X223021938Y-145411333D01*
X212802889Y-145411333D01*
X213760185Y-144454037D01*
X223733642Y-144454037D01*
X224810000Y-145530395D01*
X225886358Y-144454037D01*
X225770194Y-144172342D01*
X225108667Y-143921938D01*
X224401671Y-143943751D01*
X223849806Y-144172342D01*
X223733642Y-144454037D01*
X213760185Y-144454037D01*
X232775290Y-125438932D01*
X232878691Y-125284182D01*
X232915000Y-125101642D01*
X232915000Y-124047121D01*
X232926871Y-124035271D01*
X233014900Y-123823276D01*
X233015100Y-123593731D01*
X232927442Y-123381583D01*
X232765271Y-123219129D01*
X232553276Y-123131100D01*
X232323731Y-123130900D01*
X232111583Y-123218558D01*
X231949129Y-123380729D01*
X231861100Y-123592724D01*
X231860900Y-123822269D01*
X231948558Y-124034417D01*
X231961000Y-124046881D01*
X231961000Y-124904062D01*
X213579900Y-143285162D01*
X213580246Y-142888784D01*
X213444449Y-142560131D01*
X213979290Y-142025290D01*
X214082691Y-141870541D01*
X214119000Y-141688000D01*
X214119000Y-131098173D01*
X214222417Y-131055442D01*
X214384871Y-130893271D01*
X214472900Y-130681276D01*
X214473100Y-130451731D01*
X214385442Y-130239583D01*
X214223271Y-130077129D01*
X214011276Y-129989100D01*
X213781731Y-129988900D01*
X213569583Y-130076558D01*
X213407129Y-130238729D01*
X213319100Y-130450724D01*
X213319085Y-130468335D01*
X213304710Y-130482710D01*
X213201309Y-130637460D01*
X213165000Y-130820000D01*
X213165000Y-141490420D01*
X212769773Y-141885647D01*
X212443695Y-141750247D01*
X211878784Y-141749754D01*
X211356686Y-141965481D01*
X210956885Y-142364585D01*
X210740247Y-142886305D01*
X210739754Y-143451216D01*
X210955481Y-143973314D01*
X211354585Y-144373115D01*
X211876305Y-144589753D01*
X212274961Y-144590101D01*
X211822710Y-145042352D01*
X211719309Y-145197102D01*
X211683000Y-145379642D01*
X211683000Y-147296163D01*
X211546298Y-146965319D01*
X210908041Y-146325947D01*
X210073692Y-145979495D01*
X209170272Y-145978706D01*
X208335319Y-146323702D01*
X207695947Y-146961959D01*
X207349495Y-147796308D01*
X207348706Y-148699728D01*
X205574528Y-148699728D01*
X205667704Y-148475337D01*
X205668095Y-148026631D01*
X205496745Y-147611931D01*
X205305175Y-147420026D01*
X205511333Y-147498062D01*
X206218329Y-147476249D01*
X206770194Y-147247658D01*
X206886358Y-146965963D01*
X205810000Y-145889605D01*
X204733642Y-146965963D01*
X204804881Y-147138716D01*
X204765337Y-147122296D01*
X204316631Y-147121905D01*
X203901931Y-147293255D01*
X203584370Y-147610262D01*
X203412296Y-148024663D01*
X203411905Y-148473369D01*
X196827705Y-148473369D01*
X196828095Y-148026631D01*
X196656745Y-147611931D01*
X196339738Y-147294370D01*
X195925337Y-147122296D01*
X195476631Y-147121905D01*
X195061931Y-147293255D01*
X194798369Y-147556357D01*
X194798369Y-147036211D01*
X196423247Y-145411333D01*
X204021938Y-145411333D01*
X204043751Y-146118329D01*
X204272342Y-146670194D01*
X204554037Y-146786358D01*
X205630395Y-145710000D01*
X205989605Y-145710000D01*
X207065963Y-146786358D01*
X207347658Y-146670194D01*
X207598062Y-146008667D01*
X207576249Y-145301671D01*
X207347658Y-144749806D01*
X207065963Y-144633642D01*
X205989605Y-145710000D01*
X205630395Y-145710000D01*
X204554037Y-144633642D01*
X204272342Y-144749806D01*
X204021938Y-145411333D01*
X196423247Y-145411333D01*
X197380543Y-144454037D01*
X204733642Y-144454037D01*
X205810000Y-145530395D01*
X206886358Y-144454037D01*
X206770194Y-144172342D01*
X206108667Y-143921938D01*
X205401671Y-143943751D01*
X204849806Y-144172342D01*
X204733642Y-144454037D01*
X197380543Y-144454037D01*
X213739495Y-128095085D01*
X213756269Y-128095100D01*
X213968417Y-128007442D01*
X214130871Y-127845271D01*
X214218900Y-127633276D01*
X214219100Y-127403731D01*
X214131442Y-127191583D01*
X213969271Y-127029129D01*
X213757276Y-126941100D01*
X213527731Y-126940900D01*
X213315583Y-127028558D01*
X213153129Y-127190729D01*
X213065100Y-127402724D01*
X213065085Y-127420335D01*
X212849000Y-127636420D01*
X212849000Y-127095121D01*
X212860871Y-127083271D01*
X212948900Y-126871276D01*
X212949100Y-126641731D01*
X212861442Y-126429583D01*
X212699271Y-126267129D01*
X212487276Y-126179100D01*
X212298860Y-126178936D01*
X212349442Y-126145138D01*
X213747494Y-124747086D01*
X213764268Y-124747101D01*
X213976416Y-124659443D01*
X214138870Y-124497272D01*
X214226899Y-124285277D01*
X214227099Y-124055732D01*
X214139441Y-123843584D01*
X213977270Y-123681130D01*
X213765275Y-123593101D01*
X213535730Y-123592901D01*
X213323582Y-123680559D01*
X213161128Y-123842730D01*
X213073099Y-124054725D01*
X213073084Y-124072336D01*
X211814572Y-125330848D01*
X211356000Y-125330848D01*
X211173460Y-125367157D01*
X211018710Y-125470558D01*
X194243656Y-142245612D01*
X193965415Y-141966885D01*
X193443695Y-141750247D01*
X192878784Y-141749754D01*
X192356686Y-141965481D01*
X191956885Y-142364585D01*
X191740247Y-142886305D01*
X191739754Y-143451216D01*
X191955481Y-143973314D01*
X192354585Y-144373115D01*
X192876305Y-144589753D01*
X193441216Y-144590246D01*
X193963314Y-144374519D01*
X194363115Y-143975415D01*
X194579753Y-143453695D01*
X194579923Y-143258505D01*
X211553580Y-126284848D01*
X212012152Y-126284848D01*
X212031021Y-126281095D01*
X211883129Y-126428729D01*
X211795100Y-126640724D01*
X211794900Y-126870269D01*
X211882558Y-127082417D01*
X211895000Y-127094881D01*
X211895000Y-127584182D01*
X193434068Y-146045114D01*
X193330667Y-146199864D01*
X193294358Y-146382404D01*
X193294358Y-148370036D01*
X192840659Y-148823735D01*
X192890505Y-148703692D01*
X192891294Y-147800272D01*
X192546298Y-146965319D01*
X191908041Y-146325947D01*
X191073692Y-145979495D01*
X190170272Y-145978706D01*
X189335319Y-146323702D01*
X188695947Y-146961959D01*
X188349495Y-147796308D01*
X188348706Y-148699728D01*
X188693702Y-149534681D01*
X189331959Y-150174053D01*
X190166308Y-150520505D01*
X191069728Y-150521294D01*
X191194764Y-150469630D01*
X179971394Y-161693000D01*
X175499350Y-161693000D01*
X175364519Y-161366686D01*
X174965415Y-160966885D01*
X174443695Y-160750247D01*
X173878784Y-160749754D01*
X173356686Y-160965481D01*
X172956885Y-161364585D01*
X172740247Y-161886305D01*
X172739754Y-162451216D01*
X161947000Y-162451216D01*
X161947000Y-148473369D01*
X165411905Y-148473369D01*
X165583255Y-148888069D01*
X165900262Y-149205630D01*
X166314663Y-149377704D01*
X166763369Y-149378095D01*
X167178069Y-149206745D01*
X167495630Y-148889738D01*
X167574528Y-148699728D01*
X169348706Y-148699728D01*
X169693702Y-149534681D01*
X170331959Y-150174053D01*
X171166308Y-150520505D01*
X172069728Y-150521294D01*
X172904681Y-150176298D01*
X173544053Y-149538041D01*
X173890505Y-148703692D01*
X173890706Y-148473369D01*
X175571905Y-148473369D01*
X175743255Y-148888069D01*
X176060262Y-149205630D01*
X176474663Y-149377704D01*
X176923369Y-149378095D01*
X177338069Y-149206745D01*
X177655630Y-148889738D01*
X177827704Y-148475337D01*
X177827705Y-148473369D01*
X184411905Y-148473369D01*
X184583255Y-148888069D01*
X184900262Y-149205630D01*
X185314663Y-149377704D01*
X185763369Y-149378095D01*
X186178069Y-149206745D01*
X186495630Y-148889738D01*
X186667704Y-148475337D01*
X186668095Y-148026631D01*
X186496745Y-147611931D01*
X186305175Y-147420026D01*
X186511333Y-147498062D01*
X187218329Y-147476249D01*
X187770194Y-147247658D01*
X187886358Y-146965963D01*
X186810000Y-145889605D01*
X185733642Y-146965963D01*
X185804881Y-147138716D01*
X185765337Y-147122296D01*
X185316631Y-147121905D01*
X184901931Y-147293255D01*
X184584370Y-147610262D01*
X184412296Y-148024663D01*
X184411905Y-148473369D01*
X177827705Y-148473369D01*
X177828095Y-148026631D01*
X177656745Y-147611931D01*
X177339738Y-147294370D01*
X176925337Y-147122296D01*
X176476631Y-147121905D01*
X176061931Y-147293255D01*
X175744370Y-147610262D01*
X175572296Y-148024663D01*
X175571905Y-148473369D01*
X173890706Y-148473369D01*
X173891294Y-147800272D01*
X173546298Y-146965319D01*
X172908041Y-146325947D01*
X172073692Y-145979495D01*
X171170272Y-145978706D01*
X170335319Y-146323702D01*
X169695947Y-146961959D01*
X169349495Y-147796308D01*
X169348706Y-148699728D01*
X167574528Y-148699728D01*
X167667704Y-148475337D01*
X167668095Y-148026631D01*
X167496745Y-147611931D01*
X167305175Y-147420026D01*
X167511333Y-147498062D01*
X168218329Y-147476249D01*
X168770194Y-147247658D01*
X168886358Y-146965963D01*
X167810000Y-145889605D01*
X166733642Y-146965963D01*
X166804881Y-147138716D01*
X166765337Y-147122296D01*
X166316631Y-147121905D01*
X165901931Y-147293255D01*
X165584370Y-147610262D01*
X165412296Y-148024663D01*
X165411905Y-148473369D01*
X161947000Y-148473369D01*
X161947000Y-145411333D01*
X166021938Y-145411333D01*
X166043751Y-146118329D01*
X166272342Y-146670194D01*
X166554037Y-146786358D01*
X167630395Y-145710000D01*
X167989605Y-145710000D01*
X169065963Y-146786358D01*
X169347658Y-146670194D01*
X169598062Y-146008667D01*
X169579633Y-145411333D01*
X185021938Y-145411333D01*
X185043751Y-146118329D01*
X185272342Y-146670194D01*
X185554037Y-146786358D01*
X186630395Y-145710000D01*
X186989605Y-145710000D01*
X188065963Y-146786358D01*
X188347658Y-146670194D01*
X188598062Y-146008667D01*
X188576249Y-145301671D01*
X188347658Y-144749806D01*
X188065963Y-144633642D01*
X186989605Y-145710000D01*
X186630395Y-145710000D01*
X185554037Y-144633642D01*
X185272342Y-144749806D01*
X185021938Y-145411333D01*
X169579633Y-145411333D01*
X169576249Y-145301671D01*
X169347658Y-144749806D01*
X169065963Y-144633642D01*
X167989605Y-145710000D01*
X167630395Y-145710000D01*
X166554037Y-144633642D01*
X166272342Y-144749806D01*
X166021938Y-145411333D01*
X161947000Y-145411333D01*
X161947000Y-144454037D01*
X166733642Y-144454037D01*
X167810000Y-145530395D01*
X168886358Y-144454037D01*
X168770194Y-144172342D01*
X168108667Y-143921938D01*
X167401671Y-143943751D01*
X166849806Y-144172342D01*
X166733642Y-144454037D01*
X161947000Y-144454037D01*
X161947000Y-143451216D01*
X172739754Y-143451216D01*
X172955481Y-143973314D01*
X173354585Y-144373115D01*
X173876305Y-144589753D01*
X174441216Y-144590246D01*
X174770866Y-144454037D01*
X185733642Y-144454037D01*
X186810000Y-145530395D01*
X187886358Y-144454037D01*
X187770194Y-144172342D01*
X187108667Y-143921938D01*
X186401671Y-143943751D01*
X185849806Y-144172342D01*
X185733642Y-144454037D01*
X174770866Y-144454037D01*
X174963314Y-144374519D01*
X175363115Y-143975415D01*
X175499485Y-143647000D01*
X190370000Y-143647000D01*
X190552540Y-143610691D01*
X190707290Y-143507290D01*
X205357495Y-128857085D01*
X205374269Y-128857100D01*
X205586417Y-128769442D01*
X205748871Y-128607271D01*
X205836900Y-128395276D01*
X205837100Y-128165731D01*
X205749442Y-127953583D01*
X205587271Y-127791129D01*
X205375276Y-127703100D01*
X205145731Y-127702900D01*
X204933583Y-127790558D01*
X204771129Y-127952729D01*
X204683100Y-128164724D01*
X204683085Y-128182335D01*
X190172420Y-142693000D01*
X175499350Y-142693000D01*
X175364519Y-142366686D01*
X174965415Y-141966885D01*
X174443695Y-141750247D01*
X173878784Y-141749754D01*
X173356686Y-141965481D01*
X172956885Y-142364585D01*
X172740247Y-142886305D01*
X172739754Y-143451216D01*
X161947000Y-143451216D01*
X161947000Y-136584188D01*
X161953406Y-136551981D01*
X163293000Y-136551981D01*
X163394012Y-137059802D01*
X163681669Y-137490312D01*
X164112179Y-137777969D01*
X164620000Y-137878981D01*
X165127821Y-137777969D01*
X165558331Y-137490312D01*
X165845988Y-137059802D01*
X165947000Y-136551981D01*
X165845988Y-136044160D01*
X165558331Y-135613650D01*
X165127821Y-135325993D01*
X164620000Y-135224981D01*
X164112179Y-135325993D01*
X163681669Y-135613650D01*
X163394012Y-136044160D01*
X163293000Y-136551981D01*
X161953406Y-136551981D01*
X162156389Y-135531519D01*
X162734434Y-134666415D01*
X163617827Y-134076150D01*
X163938512Y-133967292D01*
X211481091Y-121228296D01*
X211490818Y-121223499D01*
X211501567Y-121222084D01*
X211873160Y-121095946D01*
X211910204Y-121074559D01*
X211949722Y-121058190D01*
X212922991Y-120407872D01*
X213013210Y-120317653D01*
X213663529Y-119344383D01*
X213663530Y-119344382D01*
X213683754Y-119295557D01*
X213712356Y-119226507D01*
X213712356Y-119226505D01*
X213940717Y-118078455D01*
X213940717Y-118046248D01*
X213947000Y-118014661D01*
X213947000Y-107098436D01*
X222817827Y-107098436D01*
X222970051Y-107466846D01*
X223251672Y-107748959D01*
X223619816Y-107901825D01*
X224018436Y-107902173D01*
X224386846Y-107749949D01*
X224668959Y-107468328D01*
X224821825Y-107100184D01*
X224821826Y-107098436D01*
X227817827Y-107098436D01*
X227970051Y-107466846D01*
X228251672Y-107748959D01*
X228619816Y-107901825D01*
X229018436Y-107902173D01*
X229386846Y-107749949D01*
X229668959Y-107468328D01*
X229821825Y-107100184D01*
X229822173Y-106701564D01*
X229669949Y-106333154D01*
X229388328Y-106051041D01*
X229020184Y-105898175D01*
X228621564Y-105897827D01*
X228253154Y-106050051D01*
X227971041Y-106331672D01*
X227818175Y-106699816D01*
X227817827Y-107098436D01*
X224821826Y-107098436D01*
X224822173Y-106701564D01*
X224669949Y-106333154D01*
X224388328Y-106051041D01*
X224020184Y-105898175D01*
X223621564Y-105897827D01*
X223253154Y-106050051D01*
X222971041Y-106331672D01*
X222818175Y-106699816D01*
X222817827Y-107098436D01*
X213947000Y-107098436D01*
X213947000Y-105282207D01*
X213953406Y-105250000D01*
X215293000Y-105250000D01*
X215394012Y-105757821D01*
X215681669Y-106188331D01*
X216112179Y-106475988D01*
X216620000Y-106577000D01*
X217127821Y-106475988D01*
X217558331Y-106188331D01*
X217845988Y-105757821D01*
X217947000Y-105250000D01*
X217845988Y-104742179D01*
X217558331Y-104311669D01*
X217127821Y-104024012D01*
X216620000Y-103923000D01*
X216112179Y-104024012D01*
X215681669Y-104311669D01*
X215394012Y-104742179D01*
X215293000Y-105250000D01*
X213953406Y-105250000D01*
X214156389Y-104229538D01*
X214426050Y-103825962D01*
X221943000Y-103825962D01*
X221943000Y-104574038D01*
X222009758Y-104909651D01*
X222199867Y-105194171D01*
X222484387Y-105384280D01*
X222820000Y-105451038D01*
X223155613Y-105384280D01*
X223440133Y-105194171D01*
X223630242Y-104909651D01*
X223697000Y-104574038D01*
X223697000Y-103825962D01*
X228943000Y-103825962D01*
X228943000Y-104574038D01*
X229009758Y-104909651D01*
X229199867Y-105194171D01*
X229484387Y-105384280D01*
X229820000Y-105451038D01*
X230155613Y-105384280D01*
X230356578Y-105250000D01*
X234293000Y-105250000D01*
X234394012Y-105757821D01*
X234681669Y-106188331D01*
X235112179Y-106475988D01*
X235620000Y-106577000D01*
X236127821Y-106475988D01*
X236558331Y-106188331D01*
X236845988Y-105757821D01*
X236947000Y-105250000D01*
X236845988Y-104742179D01*
X236558331Y-104311669D01*
X236127821Y-104024012D01*
X235620000Y-103923000D01*
X235112179Y-104024012D01*
X234681669Y-104311669D01*
X234394012Y-104742179D01*
X234293000Y-105250000D01*
X230356578Y-105250000D01*
X230440133Y-105194171D01*
X230630242Y-104909651D01*
X230697000Y-104574038D01*
X230697000Y-103825962D01*
X230630242Y-103490349D01*
X230440133Y-103205829D01*
X230155613Y-103015720D01*
X229820000Y-102948962D01*
X229484387Y-103015720D01*
X229199867Y-103205829D01*
X229009758Y-103490349D01*
X228943000Y-103825962D01*
X223697000Y-103825962D01*
X223630242Y-103490349D01*
X223440133Y-103205829D01*
X223155613Y-103015720D01*
X222820000Y-102948962D01*
X222484387Y-103015720D01*
X222199867Y-103205829D01*
X222009758Y-103490349D01*
X221943000Y-103825962D01*
X214426050Y-103825962D01*
X214734434Y-103364434D01*
X215599539Y-102786388D01*
X216652208Y-102577000D01*
X235587793Y-102577000D01*
X236640462Y-102786389D01*
X236640462Y-102786389D01*
G37*
X236640462Y-102786389D02*
X237505566Y-103364434D01*
X238083612Y-104229539D01*
X238293000Y-105282208D01*
X238293000Y-176217792D01*
X238083612Y-177270461D01*
X237505566Y-178135566D01*
X236640462Y-178713611D01*
X235587793Y-178923000D01*
X164652208Y-178923000D01*
X163599539Y-178713612D01*
X162734434Y-178135566D01*
X162156389Y-177270462D01*
X161953407Y-176250000D01*
X163293000Y-176250000D01*
X163394012Y-176757821D01*
X163681669Y-177188331D01*
X164112179Y-177475988D01*
X164620000Y-177577000D01*
X165127821Y-177475988D01*
X165558331Y-177188331D01*
X165845988Y-176757821D01*
X165947000Y-176250000D01*
X234293000Y-176250000D01*
X234394012Y-176757821D01*
X234681669Y-177188331D01*
X235112179Y-177475988D01*
X235620000Y-177577000D01*
X236127821Y-177475988D01*
X236558331Y-177188331D01*
X236845988Y-176757821D01*
X236947000Y-176250000D01*
X236845988Y-175742179D01*
X236558331Y-175311669D01*
X236127821Y-175024012D01*
X235620000Y-174923000D01*
X235112179Y-175024012D01*
X234681669Y-175311669D01*
X234394012Y-175742179D01*
X234293000Y-176250000D01*
X165947000Y-176250000D01*
X165845988Y-175742179D01*
X165558331Y-175311669D01*
X165127821Y-175024012D01*
X164620000Y-174923000D01*
X164112179Y-175024012D01*
X163681669Y-175311669D01*
X163394012Y-175742179D01*
X163293000Y-176250000D01*
X161953407Y-176250000D01*
X161947000Y-176217793D01*
X161947000Y-167473369D01*
X165411905Y-167473369D01*
X165583255Y-167888069D01*
X165900262Y-168205630D01*
X166314663Y-168377704D01*
X166763369Y-168378095D01*
X167178069Y-168206745D01*
X167495630Y-167889738D01*
X167574528Y-167699728D01*
X169348706Y-167699728D01*
X169693702Y-168534681D01*
X170331959Y-169174053D01*
X171166308Y-169520505D01*
X172069728Y-169521294D01*
X172904681Y-169176298D01*
X173544053Y-168538041D01*
X173890505Y-167703692D01*
X173890706Y-167473369D01*
X175571905Y-167473369D01*
X175743255Y-167888069D01*
X176060262Y-168205630D01*
X176474663Y-168377704D01*
X176923369Y-168378095D01*
X177338069Y-168206745D01*
X177655630Y-167889738D01*
X177827704Y-167475337D01*
X177827705Y-167473369D01*
X184411905Y-167473369D01*
X184583255Y-167888069D01*
X184900262Y-168205630D01*
X185314663Y-168377704D01*
X185763369Y-168378095D01*
X186178069Y-168206745D01*
X186495630Y-167889738D01*
X186574528Y-167699728D01*
X188348706Y-167699728D01*
X188693702Y-168534681D01*
X189331959Y-169174053D01*
X190166308Y-169520505D01*
X191069728Y-169521294D01*
X191904681Y-169176298D01*
X192544053Y-168538041D01*
X192890505Y-167703692D01*
X192890706Y-167473369D01*
X194571905Y-167473369D01*
X194743255Y-167888069D01*
X195060262Y-168205630D01*
X195474663Y-168377704D01*
X195923369Y-168378095D01*
X196338069Y-168206745D01*
X196655630Y-167889738D01*
X196827704Y-167475337D01*
X196827705Y-167473369D01*
X203411905Y-167473369D01*
X203583255Y-167888069D01*
X203900262Y-168205630D01*
X204314663Y-168377704D01*
X204763369Y-168378095D01*
X205178069Y-168206745D01*
X205495630Y-167889738D01*
X205574528Y-167699728D01*
X207348706Y-167699728D01*
X207693702Y-168534681D01*
X208331959Y-169174053D01*
X209166308Y-169520505D01*
X210069728Y-169521294D01*
X210904681Y-169176298D01*
X211544053Y-168538041D01*
X211890505Y-167703692D01*
X211890706Y-167473369D01*
X213571905Y-167473369D01*
X213743255Y-167888069D01*
X214060262Y-168205630D01*
X214474663Y-168377704D01*
X214923369Y-168378095D01*
X215338069Y-168206745D01*
X215655630Y-167889738D01*
X215827704Y-167475337D01*
X215827705Y-167473369D01*
X222411905Y-167473369D01*
X222583255Y-167888069D01*
X222900262Y-168205630D01*
X223314663Y-168377704D01*
X223763369Y-168378095D01*
X224178069Y-168206745D01*
X224495630Y-167889738D01*
X224574528Y-167699728D01*
X226348706Y-167699728D01*
X226693702Y-168534681D01*
X227331959Y-169174053D01*
X228166308Y-169520505D01*
X229069728Y-169521294D01*
X229904681Y-169176298D01*
X230544053Y-168538041D01*
X230890505Y-167703692D01*
X230890706Y-167473369D01*
X232571905Y-167473369D01*
X232743255Y-167888069D01*
X233060262Y-168205630D01*
X233474663Y-168377704D01*
X233923369Y-168378095D01*
X234338069Y-168206745D01*
X234655630Y-167889738D01*
X234827704Y-167475337D01*
X234828095Y-167026631D01*
X234656745Y-166611931D01*
X234339738Y-166294370D01*
X233925337Y-166122296D01*
X233476631Y-166121905D01*
X233061931Y-166293255D01*
X232744370Y-166610262D01*
X232572296Y-167024663D01*
X232571905Y-167473369D01*
X230890706Y-167473369D01*
X230891294Y-166800272D01*
X230546298Y-165965319D01*
X229908041Y-165325947D01*
X229073692Y-164979495D01*
X228170272Y-164978706D01*
X227335319Y-165323702D01*
X226695947Y-165961959D01*
X226349495Y-166796308D01*
X226348706Y-167699728D01*
X224574528Y-167699728D01*
X224667704Y-167475337D01*
X224668095Y-167026631D01*
X224496745Y-166611931D01*
X224305175Y-166420026D01*
X224511333Y-166498062D01*
X225218329Y-166476249D01*
X225770194Y-166247658D01*
X225886358Y-165965963D01*
X224810000Y-164889605D01*
X223733642Y-165965963D01*
X223804881Y-166138716D01*
X223765337Y-166122296D01*
X223316631Y-166121905D01*
X222901931Y-166293255D01*
X222584370Y-166610262D01*
X222412296Y-167024663D01*
X222411905Y-167473369D01*
X215827705Y-167473369D01*
X215828095Y-167026631D01*
X215656745Y-166611931D01*
X215339738Y-166294370D01*
X214925337Y-166122296D01*
X214476631Y-166121905D01*
X214061931Y-166293255D01*
X213744370Y-166610262D01*
X213572296Y-167024663D01*
X213571905Y-167473369D01*
X211890706Y-167473369D01*
X211891294Y-166800272D01*
X211546298Y-165965319D01*
X210908041Y-165325947D01*
X210073692Y-164979495D01*
X209170272Y-164978706D01*
X208335319Y-165323702D01*
X207695947Y-165961959D01*
X207349495Y-166796308D01*
X207348706Y-167699728D01*
X205574528Y-167699728D01*
X205667704Y-167475337D01*
X205668095Y-167026631D01*
X205496745Y-166611931D01*
X205305175Y-166420026D01*
X205511333Y-166498062D01*
X206218329Y-166476249D01*
X206770194Y-166247658D01*
X206886358Y-165965963D01*
X205810000Y-164889605D01*
X204733642Y-165965963D01*
X204804881Y-166138716D01*
X204765337Y-166122296D01*
X204316631Y-166121905D01*
X203901931Y-166293255D01*
X203584370Y-166610262D01*
X203412296Y-167024663D01*
X203411905Y-167473369D01*
X196827705Y-167473369D01*
X196828095Y-167026631D01*
X196656745Y-166611931D01*
X196339738Y-166294370D01*
X195925337Y-166122296D01*
X195476631Y-166121905D01*
X195061931Y-166293255D01*
X194744370Y-166610262D01*
X194572296Y-167024663D01*
X194571905Y-167473369D01*
X192890706Y-167473369D01*
X192891294Y-166800272D01*
X192546298Y-165965319D01*
X191908041Y-165325947D01*
X191073692Y-164979495D01*
X190170272Y-164978706D01*
X189335319Y-165323702D01*
X188695947Y-165961959D01*
X188349495Y-166796308D01*
X188348706Y-167699728D01*
X186574528Y-167699728D01*
X186667704Y-167475337D01*
X186668095Y-167026631D01*
X186496745Y-166611931D01*
X186305175Y-166420026D01*
X186511333Y-166498062D01*
X187218329Y-166476249D01*
X187770194Y-166247658D01*
X187886358Y-165965963D01*
X186810000Y-164889605D01*
X185733642Y-165965963D01*
X185804881Y-166138716D01*
X185765337Y-166122296D01*
X185316631Y-166121905D01*
X184901931Y-166293255D01*
X184584370Y-166610262D01*
X184412296Y-167024663D01*
X184411905Y-167473369D01*
X177827705Y-167473369D01*
X177828095Y-167026631D01*
X177656745Y-166611931D01*
X177339738Y-166294370D01*
X176925337Y-166122296D01*
X176476631Y-166121905D01*
X176061931Y-166293255D01*
X175744370Y-166610262D01*
X175572296Y-167024663D01*
X175571905Y-167473369D01*
X173890706Y-167473369D01*
X173891294Y-166800272D01*
X173546298Y-165965319D01*
X172908041Y-165325947D01*
X172073692Y-164979495D01*
X171170272Y-164978706D01*
X170335319Y-165323702D01*
X169695947Y-165961959D01*
X169349495Y-166796308D01*
X169348706Y-167699728D01*
X167574528Y-167699728D01*
X167667704Y-167475337D01*
X167668095Y-167026631D01*
X167496745Y-166611931D01*
X167305175Y-166420026D01*
X167511333Y-166498062D01*
X168218329Y-166476249D01*
X168770194Y-166247658D01*
X168886358Y-165965963D01*
X167810000Y-164889605D01*
X166733642Y-165965963D01*
X166804881Y-166138716D01*
X166765337Y-166122296D01*
X166316631Y-166121905D01*
X165901931Y-166293255D01*
X165584370Y-166610262D01*
X165412296Y-167024663D01*
X165411905Y-167473369D01*
X161947000Y-167473369D01*
X161947000Y-164411333D01*
X166021938Y-164411333D01*
X166043751Y-165118329D01*
X166272342Y-165670194D01*
X166554037Y-165786358D01*
X167630395Y-164710000D01*
X167989605Y-164710000D01*
X169065963Y-165786358D01*
X169347658Y-165670194D01*
X169598062Y-165008667D01*
X169579633Y-164411333D01*
X185021938Y-164411333D01*
X185043751Y-165118329D01*
X185272342Y-165670194D01*
X185554037Y-165786358D01*
X186630395Y-164710000D01*
X186989605Y-164710000D01*
X188065963Y-165786358D01*
X188347658Y-165670194D01*
X188598062Y-165008667D01*
X188579633Y-164411333D01*
X204021938Y-164411333D01*
X204043751Y-165118329D01*
X204272342Y-165670194D01*
X204554037Y-165786358D01*
X205630395Y-164710000D01*
X205989605Y-164710000D01*
X207065963Y-165786358D01*
X207347658Y-165670194D01*
X207598062Y-165008667D01*
X207579633Y-164411333D01*
X223021938Y-164411333D01*
X223043751Y-165118329D01*
X223272342Y-165670194D01*
X223554037Y-165786358D01*
X224630395Y-164710000D01*
X224989605Y-164710000D01*
X226065963Y-165786358D01*
X226347658Y-165670194D01*
X226598062Y-165008667D01*
X226576249Y-164301671D01*
X226347658Y-163749806D01*
X226065963Y-163633642D01*
X224989605Y-164710000D01*
X224630395Y-164710000D01*
X223554037Y-163633642D01*
X223272342Y-163749806D01*
X223021938Y-164411333D01*
X207579633Y-164411333D01*
X207576249Y-164301671D01*
X207347658Y-163749806D01*
X207065963Y-163633642D01*
X205989605Y-164710000D01*
X205630395Y-164710000D01*
X204554037Y-163633642D01*
X204272342Y-163749806D01*
X204021938Y-164411333D01*
X188579633Y-164411333D01*
X188576249Y-164301671D01*
X188347658Y-163749806D01*
X188065963Y-163633642D01*
X186989605Y-164710000D01*
X186630395Y-164710000D01*
X185554037Y-163633642D01*
X185272342Y-163749806D01*
X185021938Y-164411333D01*
X169579633Y-164411333D01*
X169576249Y-164301671D01*
X169347658Y-163749806D01*
X169065963Y-163633642D01*
X167989605Y-164710000D01*
X167630395Y-164710000D01*
X166554037Y-163633642D01*
X166272342Y-163749806D01*
X166021938Y-164411333D01*
X161947000Y-164411333D01*
X161947000Y-163454037D01*
X166733642Y-163454037D01*
X167810000Y-164530395D01*
X168886358Y-163454037D01*
X168770194Y-163172342D01*
X168108667Y-162921938D01*
X167401671Y-162943751D01*
X166849806Y-163172342D01*
X166733642Y-163454037D01*
X161947000Y-163454037D01*
X161947000Y-162451216D01*
X172739754Y-162451216D01*
X172955481Y-162973314D01*
X173354585Y-163373115D01*
X173876305Y-163589753D01*
X174441216Y-163590246D01*
X174770866Y-163454037D01*
X185733642Y-163454037D01*
X186810000Y-164530395D01*
X187886358Y-163454037D01*
X187770194Y-163172342D01*
X187108667Y-162921938D01*
X186401671Y-162943751D01*
X185849806Y-163172342D01*
X185733642Y-163454037D01*
X174770866Y-163454037D01*
X174963314Y-163374519D01*
X175363115Y-162975415D01*
X175499485Y-162647000D01*
X180168974Y-162647000D01*
X180351514Y-162610691D01*
X180506264Y-162507290D01*
X193844369Y-149169185D01*
X193844369Y-160811051D01*
X193769773Y-160885647D01*
X193443695Y-160750247D01*
X192878784Y-160749754D01*
X192356686Y-160965481D01*
X191956885Y-161364585D01*
X191740247Y-161886305D01*
X191739754Y-162451216D01*
X191955481Y-162973314D01*
X192354585Y-163373115D01*
X192876305Y-163589753D01*
X193441216Y-163590246D01*
X193770866Y-163454037D01*
X204733642Y-163454037D01*
X205810000Y-164530395D01*
X206886358Y-163454037D01*
X206770194Y-163172342D01*
X206108667Y-162921938D01*
X205401671Y-162943751D01*
X204849806Y-163172342D01*
X204733642Y-163454037D01*
X193770866Y-163454037D01*
X193963314Y-163374519D01*
X194363115Y-162975415D01*
X194579753Y-162453695D01*
X194580246Y-161888784D01*
X194444449Y-161560131D01*
X194658659Y-161345921D01*
X194762060Y-161191171D01*
X194798369Y-161008631D01*
X194798369Y-148943279D01*
X195060262Y-149205630D01*
X195474663Y-149377704D01*
X195923369Y-149378095D01*
X196338069Y-149206745D01*
X196655630Y-148889738D01*
X196827704Y-148475337D01*
X196827705Y-148473369D01*
X203411905Y-148473369D01*
X203583255Y-148888069D01*
X203900262Y-149205630D01*
X204314663Y-149377704D01*
X204763369Y-149378095D01*
X205178069Y-149206745D01*
X205495630Y-148889738D01*
X205574528Y-148699728D01*
X207348706Y-148699728D01*
X207693702Y-149534681D01*
X208331959Y-150174053D01*
X209166308Y-150520505D01*
X210069728Y-150521294D01*
X210904681Y-150176298D01*
X211544053Y-149538041D01*
X211683000Y-149203419D01*
X211683000Y-160830650D01*
X211356686Y-160965481D01*
X210956885Y-161364585D01*
X210740247Y-161886305D01*
X210739754Y-162451216D01*
X210955481Y-162973314D01*
X211354585Y-163373115D01*
X211876305Y-163589753D01*
X212441216Y-163590246D01*
X212770866Y-163454037D01*
X223733642Y-163454037D01*
X224810000Y-164530395D01*
X225886358Y-163454037D01*
X225770194Y-163172342D01*
X225108667Y-162921938D01*
X224401671Y-162943751D01*
X223849806Y-163172342D01*
X223733642Y-163454037D01*
X212770866Y-163454037D01*
X212963314Y-163374519D01*
X213363115Y-162975415D01*
X213579753Y-162453695D01*
X213580246Y-161888784D01*
X213364519Y-161366686D01*
X212965415Y-160966885D01*
X212637000Y-160830515D01*
X212637000Y-148473369D01*
X213571905Y-148473369D01*
X213743255Y-148888069D01*
X214060262Y-149205630D01*
X214474663Y-149377704D01*
X214923369Y-149378095D01*
X215338069Y-149206745D01*
X215655630Y-148889738D01*
X215827704Y-148475337D01*
X215827705Y-148473369D01*
X222411905Y-148473369D01*
X222583255Y-148888069D01*
X222900262Y-149205630D01*
X223314663Y-149377704D01*
X223763369Y-149378095D01*
X224178069Y-149206745D01*
X224495630Y-148889738D01*
X224574528Y-148699728D01*
X226348706Y-148699728D01*
X226693702Y-149534681D01*
X227331959Y-150174053D01*
X228166308Y-150520505D01*
X229069728Y-150521294D01*
X229904681Y-150176298D01*
X230544053Y-149538041D01*
X230683000Y-149203419D01*
X230683000Y-160830650D01*
X230356686Y-160965481D01*
X229956885Y-161364585D01*
X229740247Y-161886305D01*
X229739754Y-162451216D01*
X229955481Y-162973314D01*
X230354585Y-163373115D01*
X230876305Y-163589753D01*
X231441216Y-163590246D01*
X231963314Y-163374519D01*
X232363115Y-162975415D01*
X232579753Y-162453695D01*
X232580246Y-161888784D01*
X232364519Y-161366686D01*
X231965415Y-160966885D01*
X231637000Y-160830515D01*
X231637000Y-159382269D01*
X235670900Y-159382269D01*
X235758558Y-159594417D01*
X235920729Y-159756871D01*
X236132724Y-159844900D01*
X236362269Y-159845100D01*
X236574417Y-159757442D01*
X236736871Y-159595271D01*
X236824900Y-159383276D01*
X236825067Y-159192113D01*
X236842394Y-159166181D01*
X236850838Y-159123728D01*
X236871091Y-159021909D01*
X236871091Y-139125038D01*
X236982962Y-139013362D01*
X237070991Y-138801367D01*
X237071191Y-138571822D01*
X236983533Y-138359674D01*
X236821362Y-138197220D01*
X236609367Y-138109191D01*
X236379822Y-138108991D01*
X236167674Y-138196649D01*
X236005220Y-138358820D01*
X235917191Y-138570815D01*
X235916991Y-138800360D01*
X236004649Y-139012508D01*
X236117091Y-139125146D01*
X236117091Y-158697776D01*
X235921583Y-158778558D01*
X235759129Y-158940729D01*
X235671100Y-159152724D01*
X235670900Y-159382269D01*
X231637000Y-159382269D01*
X231637000Y-148473369D01*
X232571905Y-148473369D01*
X232743255Y-148888069D01*
X233060262Y-149205630D01*
X233474663Y-149377704D01*
X233923369Y-149378095D01*
X234338069Y-149206745D01*
X234655630Y-148889738D01*
X234827704Y-148475337D01*
X234828095Y-148026631D01*
X234656745Y-147611931D01*
X234339738Y-147294370D01*
X233925337Y-147122296D01*
X233476631Y-147121905D01*
X233061931Y-147293255D01*
X232744370Y-147610262D01*
X232572296Y-148024663D01*
X232571905Y-148473369D01*
X231637000Y-148473369D01*
X231637000Y-145577222D01*
X233283290Y-143930932D01*
X233386691Y-143776183D01*
X233423000Y-143593642D01*
X233423000Y-128873121D01*
X233434871Y-128861271D01*
X233522900Y-128649276D01*
X233523100Y-128419731D01*
X233435442Y-128207583D01*
X233273271Y-128045129D01*
X233061276Y-127957100D01*
X232831731Y-127956900D01*
X232661000Y-128027445D01*
X232661000Y-127857121D01*
X232672871Y-127845271D01*
X232760900Y-127633276D01*
X232761100Y-127403731D01*
X232673442Y-127191583D01*
X232511271Y-127029129D01*
X232299276Y-126941100D01*
X232069731Y-126940900D01*
X231857583Y-127028558D01*
X231695129Y-127190729D01*
X231607100Y-127402724D01*
X231606900Y-127632269D01*
X231694558Y-127844417D01*
X231707000Y-127856881D01*
X231707000Y-140331974D01*
X230822710Y-141216264D01*
X230719309Y-141371014D01*
X230683000Y-141553554D01*
X230683000Y-141830650D01*
X230356686Y-141965481D01*
X229956885Y-142364585D01*
X229740247Y-142886305D01*
X229739754Y-143451216D01*
X229955481Y-143973314D01*
X230354585Y-144373115D01*
X230876305Y-144589753D01*
X231274961Y-144590101D01*
X230822710Y-145042352D01*
X230719309Y-145197102D01*
X230683000Y-145379642D01*
X230683000Y-147296163D01*
X230546298Y-146965319D01*
X229908041Y-146325947D01*
X229073692Y-145979495D01*
X228170272Y-145978706D01*
X227335319Y-146323702D01*
X226695947Y-146961959D01*
X226349495Y-147796308D01*
X226348706Y-148699728D01*
X224574528Y-148699728D01*
X224667704Y-148475337D01*
X224668095Y-148026631D01*
X224496745Y-147611931D01*
X224305175Y-147420026D01*
X224511333Y-147498062D01*
X225218329Y-147476249D01*
X225770194Y-147247658D01*
X225886358Y-146965963D01*
X224810000Y-145889605D01*
X223733642Y-146965963D01*
X223804881Y-147138716D01*
X223765337Y-147122296D01*
X223316631Y-147121905D01*
X222901931Y-147293255D01*
X222584370Y-147610262D01*
X222412296Y-148024663D01*
X222411905Y-148473369D01*
X215827705Y-148473369D01*
X215828095Y-148026631D01*
X215656745Y-147611931D01*
X215339738Y-147294370D01*
X214925337Y-147122296D01*
X214476631Y-147121905D01*
X214061931Y-147293255D01*
X213744370Y-147610262D01*
X213572296Y-148024663D01*
X213571905Y-148473369D01*
X212637000Y-148473369D01*
X212637000Y-145577222D01*
X212802889Y-145411333D01*
X223021938Y-145411333D01*
X223043751Y-146118329D01*
X223272342Y-146670194D01*
X223554037Y-146786358D01*
X224630395Y-145710000D01*
X224989605Y-145710000D01*
X226065963Y-146786358D01*
X226347658Y-146670194D01*
X226598062Y-146008667D01*
X226576249Y-145301671D01*
X226347658Y-144749806D01*
X226065963Y-144633642D01*
X224989605Y-145710000D01*
X224630395Y-145710000D01*
X223554037Y-144633642D01*
X223272342Y-144749806D01*
X223021938Y-145411333D01*
X212802889Y-145411333D01*
X213760185Y-144454037D01*
X223733642Y-144454037D01*
X224810000Y-145530395D01*
X225886358Y-144454037D01*
X225770194Y-144172342D01*
X225108667Y-143921938D01*
X224401671Y-143943751D01*
X223849806Y-144172342D01*
X223733642Y-144454037D01*
X213760185Y-144454037D01*
X232775290Y-125438932D01*
X232878691Y-125284182D01*
X232915000Y-125101642D01*
X232915000Y-124047121D01*
X232926871Y-124035271D01*
X233014900Y-123823276D01*
X233015100Y-123593731D01*
X232927442Y-123381583D01*
X232765271Y-123219129D01*
X232553276Y-123131100D01*
X232323731Y-123130900D01*
X232111583Y-123218558D01*
X231949129Y-123380729D01*
X231861100Y-123592724D01*
X231860900Y-123822269D01*
X231948558Y-124034417D01*
X231961000Y-124046881D01*
X231961000Y-124904062D01*
X213579900Y-143285162D01*
X213580246Y-142888784D01*
X213444449Y-142560131D01*
X213979290Y-142025290D01*
X214082691Y-141870541D01*
X214119000Y-141688000D01*
X214119000Y-131098173D01*
X214222417Y-131055442D01*
X214384871Y-130893271D01*
X214472900Y-130681276D01*
X214473100Y-130451731D01*
X214385442Y-130239583D01*
X214223271Y-130077129D01*
X214011276Y-129989100D01*
X213781731Y-129988900D01*
X213569583Y-130076558D01*
X213407129Y-130238729D01*
X213319100Y-130450724D01*
X213319085Y-130468335D01*
X213304710Y-130482710D01*
X213201309Y-130637460D01*
X213165000Y-130820000D01*
X213165000Y-141490420D01*
X212769773Y-141885647D01*
X212443695Y-141750247D01*
X211878784Y-141749754D01*
X211356686Y-141965481D01*
X210956885Y-142364585D01*
X210740247Y-142886305D01*
X210739754Y-143451216D01*
X210955481Y-143973314D01*
X211354585Y-144373115D01*
X211876305Y-144589753D01*
X212274961Y-144590101D01*
X211822710Y-145042352D01*
X211719309Y-145197102D01*
X211683000Y-145379642D01*
X211683000Y-147296163D01*
X211546298Y-146965319D01*
X210908041Y-146325947D01*
X210073692Y-145979495D01*
X209170272Y-145978706D01*
X208335319Y-146323702D01*
X207695947Y-146961959D01*
X207349495Y-147796308D01*
X207348706Y-148699728D01*
X205574528Y-148699728D01*
X205667704Y-148475337D01*
X205668095Y-148026631D01*
X205496745Y-147611931D01*
X205305175Y-147420026D01*
X205511333Y-147498062D01*
X206218329Y-147476249D01*
X206770194Y-147247658D01*
X206886358Y-146965963D01*
X205810000Y-145889605D01*
X204733642Y-146965963D01*
X204804881Y-147138716D01*
X204765337Y-147122296D01*
X204316631Y-147121905D01*
X203901931Y-147293255D01*
X203584370Y-147610262D01*
X203412296Y-148024663D01*
X203411905Y-148473369D01*
X196827705Y-148473369D01*
X196828095Y-148026631D01*
X196656745Y-147611931D01*
X196339738Y-147294370D01*
X195925337Y-147122296D01*
X195476631Y-147121905D01*
X195061931Y-147293255D01*
X194798369Y-147556357D01*
X194798369Y-147036211D01*
X196423247Y-145411333D01*
X204021938Y-145411333D01*
X204043751Y-146118329D01*
X204272342Y-146670194D01*
X204554037Y-146786358D01*
X205630395Y-145710000D01*
X205989605Y-145710000D01*
X207065963Y-146786358D01*
X207347658Y-146670194D01*
X207598062Y-146008667D01*
X207576249Y-145301671D01*
X207347658Y-144749806D01*
X207065963Y-144633642D01*
X205989605Y-145710000D01*
X205630395Y-145710000D01*
X204554037Y-144633642D01*
X204272342Y-144749806D01*
X204021938Y-145411333D01*
X196423247Y-145411333D01*
X197380543Y-144454037D01*
X204733642Y-144454037D01*
X205810000Y-145530395D01*
X206886358Y-144454037D01*
X206770194Y-144172342D01*
X206108667Y-143921938D01*
X205401671Y-143943751D01*
X204849806Y-144172342D01*
X204733642Y-144454037D01*
X197380543Y-144454037D01*
X213739495Y-128095085D01*
X213756269Y-128095100D01*
X213968417Y-128007442D01*
X214130871Y-127845271D01*
X214218900Y-127633276D01*
X214219100Y-127403731D01*
X214131442Y-127191583D01*
X213969271Y-127029129D01*
X213757276Y-126941100D01*
X213527731Y-126940900D01*
X213315583Y-127028558D01*
X213153129Y-127190729D01*
X213065100Y-127402724D01*
X213065085Y-127420335D01*
X212849000Y-127636420D01*
X212849000Y-127095121D01*
X212860871Y-127083271D01*
X212948900Y-126871276D01*
X212949100Y-126641731D01*
X212861442Y-126429583D01*
X212699271Y-126267129D01*
X212487276Y-126179100D01*
X212298860Y-126178936D01*
X212349442Y-126145138D01*
X213747494Y-124747086D01*
X213764268Y-124747101D01*
X213976416Y-124659443D01*
X214138870Y-124497272D01*
X214226899Y-124285277D01*
X214227099Y-124055732D01*
X214139441Y-123843584D01*
X213977270Y-123681130D01*
X213765275Y-123593101D01*
X213535730Y-123592901D01*
X213323582Y-123680559D01*
X213161128Y-123842730D01*
X213073099Y-124054725D01*
X213073084Y-124072336D01*
X211814572Y-125330848D01*
X211356000Y-125330848D01*
X211173460Y-125367157D01*
X211018710Y-125470558D01*
X194243656Y-142245612D01*
X193965415Y-141966885D01*
X193443695Y-141750247D01*
X192878784Y-141749754D01*
X192356686Y-141965481D01*
X191956885Y-142364585D01*
X191740247Y-142886305D01*
X191739754Y-143451216D01*
X191955481Y-143973314D01*
X192354585Y-144373115D01*
X192876305Y-144589753D01*
X193441216Y-144590246D01*
X193963314Y-144374519D01*
X194363115Y-143975415D01*
X194579753Y-143453695D01*
X194579923Y-143258505D01*
X211553580Y-126284848D01*
X212012152Y-126284848D01*
X212031021Y-126281095D01*
X211883129Y-126428729D01*
X211795100Y-126640724D01*
X211794900Y-126870269D01*
X211882558Y-127082417D01*
X211895000Y-127094881D01*
X211895000Y-127584182D01*
X193434068Y-146045114D01*
X193330667Y-146199864D01*
X193294358Y-146382404D01*
X193294358Y-148370036D01*
X192840659Y-148823735D01*
X192890505Y-148703692D01*
X192891294Y-147800272D01*
X192546298Y-146965319D01*
X191908041Y-146325947D01*
X191073692Y-145979495D01*
X190170272Y-145978706D01*
X189335319Y-146323702D01*
X188695947Y-146961959D01*
X188349495Y-147796308D01*
X188348706Y-148699728D01*
X188693702Y-149534681D01*
X189331959Y-150174053D01*
X190166308Y-150520505D01*
X191069728Y-150521294D01*
X191194764Y-150469630D01*
X179971394Y-161693000D01*
X175499350Y-161693000D01*
X175364519Y-161366686D01*
X174965415Y-160966885D01*
X174443695Y-160750247D01*
X173878784Y-160749754D01*
X173356686Y-160965481D01*
X172956885Y-161364585D01*
X172740247Y-161886305D01*
X172739754Y-162451216D01*
X161947000Y-162451216D01*
X161947000Y-148473369D01*
X165411905Y-148473369D01*
X165583255Y-148888069D01*
X165900262Y-149205630D01*
X166314663Y-149377704D01*
X166763369Y-149378095D01*
X167178069Y-149206745D01*
X167495630Y-148889738D01*
X167574528Y-148699728D01*
X169348706Y-148699728D01*
X169693702Y-149534681D01*
X170331959Y-150174053D01*
X171166308Y-150520505D01*
X172069728Y-150521294D01*
X172904681Y-150176298D01*
X173544053Y-149538041D01*
X173890505Y-148703692D01*
X173890706Y-148473369D01*
X175571905Y-148473369D01*
X175743255Y-148888069D01*
X176060262Y-149205630D01*
X176474663Y-149377704D01*
X176923369Y-149378095D01*
X177338069Y-149206745D01*
X177655630Y-148889738D01*
X177827704Y-148475337D01*
X177827705Y-148473369D01*
X184411905Y-148473369D01*
X184583255Y-148888069D01*
X184900262Y-149205630D01*
X185314663Y-149377704D01*
X185763369Y-149378095D01*
X186178069Y-149206745D01*
X186495630Y-148889738D01*
X186667704Y-148475337D01*
X186668095Y-148026631D01*
X186496745Y-147611931D01*
X186305175Y-147420026D01*
X186511333Y-147498062D01*
X187218329Y-147476249D01*
X187770194Y-147247658D01*
X187886358Y-146965963D01*
X186810000Y-145889605D01*
X185733642Y-146965963D01*
X185804881Y-147138716D01*
X185765337Y-147122296D01*
X185316631Y-147121905D01*
X184901931Y-147293255D01*
X184584370Y-147610262D01*
X184412296Y-148024663D01*
X184411905Y-148473369D01*
X177827705Y-148473369D01*
X177828095Y-148026631D01*
X177656745Y-147611931D01*
X177339738Y-147294370D01*
X176925337Y-147122296D01*
X176476631Y-147121905D01*
X176061931Y-147293255D01*
X175744370Y-147610262D01*
X175572296Y-148024663D01*
X175571905Y-148473369D01*
X173890706Y-148473369D01*
X173891294Y-147800272D01*
X173546298Y-146965319D01*
X172908041Y-146325947D01*
X172073692Y-145979495D01*
X171170272Y-145978706D01*
X170335319Y-146323702D01*
X169695947Y-146961959D01*
X169349495Y-147796308D01*
X169348706Y-148699728D01*
X167574528Y-148699728D01*
X167667704Y-148475337D01*
X167668095Y-148026631D01*
X167496745Y-147611931D01*
X167305175Y-147420026D01*
X167511333Y-147498062D01*
X168218329Y-147476249D01*
X168770194Y-147247658D01*
X168886358Y-146965963D01*
X167810000Y-145889605D01*
X166733642Y-146965963D01*
X166804881Y-147138716D01*
X166765337Y-147122296D01*
X166316631Y-147121905D01*
X165901931Y-147293255D01*
X165584370Y-147610262D01*
X165412296Y-148024663D01*
X165411905Y-148473369D01*
X161947000Y-148473369D01*
X161947000Y-145411333D01*
X166021938Y-145411333D01*
X166043751Y-146118329D01*
X166272342Y-146670194D01*
X166554037Y-146786358D01*
X167630395Y-145710000D01*
X167989605Y-145710000D01*
X169065963Y-146786358D01*
X169347658Y-146670194D01*
X169598062Y-146008667D01*
X169579633Y-145411333D01*
X185021938Y-145411333D01*
X185043751Y-146118329D01*
X185272342Y-146670194D01*
X185554037Y-146786358D01*
X186630395Y-145710000D01*
X186989605Y-145710000D01*
X188065963Y-146786358D01*
X188347658Y-146670194D01*
X188598062Y-146008667D01*
X188576249Y-145301671D01*
X188347658Y-144749806D01*
X188065963Y-144633642D01*
X186989605Y-145710000D01*
X186630395Y-145710000D01*
X185554037Y-144633642D01*
X185272342Y-144749806D01*
X185021938Y-145411333D01*
X169579633Y-145411333D01*
X169576249Y-145301671D01*
X169347658Y-144749806D01*
X169065963Y-144633642D01*
X167989605Y-145710000D01*
X167630395Y-145710000D01*
X166554037Y-144633642D01*
X166272342Y-144749806D01*
X166021938Y-145411333D01*
X161947000Y-145411333D01*
X161947000Y-144454037D01*
X166733642Y-144454037D01*
X167810000Y-145530395D01*
X168886358Y-144454037D01*
X168770194Y-144172342D01*
X168108667Y-143921938D01*
X167401671Y-143943751D01*
X166849806Y-144172342D01*
X166733642Y-144454037D01*
X161947000Y-144454037D01*
X161947000Y-143451216D01*
X172739754Y-143451216D01*
X172955481Y-143973314D01*
X173354585Y-144373115D01*
X173876305Y-144589753D01*
X174441216Y-144590246D01*
X174770866Y-144454037D01*
X185733642Y-144454037D01*
X186810000Y-145530395D01*
X187886358Y-144454037D01*
X187770194Y-144172342D01*
X187108667Y-143921938D01*
X186401671Y-143943751D01*
X185849806Y-144172342D01*
X185733642Y-144454037D01*
X174770866Y-144454037D01*
X174963314Y-144374519D01*
X175363115Y-143975415D01*
X175499485Y-143647000D01*
X190370000Y-143647000D01*
X190552540Y-143610691D01*
X190707290Y-143507290D01*
X205357495Y-128857085D01*
X205374269Y-128857100D01*
X205586417Y-128769442D01*
X205748871Y-128607271D01*
X205836900Y-128395276D01*
X205837100Y-128165731D01*
X205749442Y-127953583D01*
X205587271Y-127791129D01*
X205375276Y-127703100D01*
X205145731Y-127702900D01*
X204933583Y-127790558D01*
X204771129Y-127952729D01*
X204683100Y-128164724D01*
X204683085Y-128182335D01*
X190172420Y-142693000D01*
X175499350Y-142693000D01*
X175364519Y-142366686D01*
X174965415Y-141966885D01*
X174443695Y-141750247D01*
X173878784Y-141749754D01*
X173356686Y-141965481D01*
X172956885Y-142364585D01*
X172740247Y-142886305D01*
X172739754Y-143451216D01*
X161947000Y-143451216D01*
X161947000Y-136584188D01*
X161953406Y-136551981D01*
X163293000Y-136551981D01*
X163394012Y-137059802D01*
X163681669Y-137490312D01*
X164112179Y-137777969D01*
X164620000Y-137878981D01*
X165127821Y-137777969D01*
X165558331Y-137490312D01*
X165845988Y-137059802D01*
X165947000Y-136551981D01*
X165845988Y-136044160D01*
X165558331Y-135613650D01*
X165127821Y-135325993D01*
X164620000Y-135224981D01*
X164112179Y-135325993D01*
X163681669Y-135613650D01*
X163394012Y-136044160D01*
X163293000Y-136551981D01*
X161953406Y-136551981D01*
X162156389Y-135531519D01*
X162734434Y-134666415D01*
X163617827Y-134076150D01*
X163938512Y-133967292D01*
X211481091Y-121228296D01*
X211490818Y-121223499D01*
X211501567Y-121222084D01*
X211873160Y-121095946D01*
X211910204Y-121074559D01*
X211949722Y-121058190D01*
X212922991Y-120407872D01*
X213013210Y-120317653D01*
X213663529Y-119344383D01*
X213663530Y-119344382D01*
X213683754Y-119295557D01*
X213712356Y-119226507D01*
X213712356Y-119226505D01*
X213940717Y-118078455D01*
X213940717Y-118046248D01*
X213947000Y-118014661D01*
X213947000Y-107098436D01*
X222817827Y-107098436D01*
X222970051Y-107466846D01*
X223251672Y-107748959D01*
X223619816Y-107901825D01*
X224018436Y-107902173D01*
X224386846Y-107749949D01*
X224668959Y-107468328D01*
X224821825Y-107100184D01*
X224821826Y-107098436D01*
X227817827Y-107098436D01*
X227970051Y-107466846D01*
X228251672Y-107748959D01*
X228619816Y-107901825D01*
X229018436Y-107902173D01*
X229386846Y-107749949D01*
X229668959Y-107468328D01*
X229821825Y-107100184D01*
X229822173Y-106701564D01*
X229669949Y-106333154D01*
X229388328Y-106051041D01*
X229020184Y-105898175D01*
X228621564Y-105897827D01*
X228253154Y-106050051D01*
X227971041Y-106331672D01*
X227818175Y-106699816D01*
X227817827Y-107098436D01*
X224821826Y-107098436D01*
X224822173Y-106701564D01*
X224669949Y-106333154D01*
X224388328Y-106051041D01*
X224020184Y-105898175D01*
X223621564Y-105897827D01*
X223253154Y-106050051D01*
X222971041Y-106331672D01*
X222818175Y-106699816D01*
X222817827Y-107098436D01*
X213947000Y-107098436D01*
X213947000Y-105282207D01*
X213953406Y-105250000D01*
X215293000Y-105250000D01*
X215394012Y-105757821D01*
X215681669Y-106188331D01*
X216112179Y-106475988D01*
X216620000Y-106577000D01*
X217127821Y-106475988D01*
X217558331Y-106188331D01*
X217845988Y-105757821D01*
X217947000Y-105250000D01*
X217845988Y-104742179D01*
X217558331Y-104311669D01*
X217127821Y-104024012D01*
X216620000Y-103923000D01*
X216112179Y-104024012D01*
X215681669Y-104311669D01*
X215394012Y-104742179D01*
X215293000Y-105250000D01*
X213953406Y-105250000D01*
X214156389Y-104229538D01*
X214426050Y-103825962D01*
X221943000Y-103825962D01*
X221943000Y-104574038D01*
X222009758Y-104909651D01*
X222199867Y-105194171D01*
X222484387Y-105384280D01*
X222820000Y-105451038D01*
X223155613Y-105384280D01*
X223440133Y-105194171D01*
X223630242Y-104909651D01*
X223697000Y-104574038D01*
X223697000Y-103825962D01*
X228943000Y-103825962D01*
X228943000Y-104574038D01*
X229009758Y-104909651D01*
X229199867Y-105194171D01*
X229484387Y-105384280D01*
X229820000Y-105451038D01*
X230155613Y-105384280D01*
X230356578Y-105250000D01*
X234293000Y-105250000D01*
X234394012Y-105757821D01*
X234681669Y-106188331D01*
X235112179Y-106475988D01*
X235620000Y-106577000D01*
X236127821Y-106475988D01*
X236558331Y-106188331D01*
X236845988Y-105757821D01*
X236947000Y-105250000D01*
X236845988Y-104742179D01*
X236558331Y-104311669D01*
X236127821Y-104024012D01*
X235620000Y-103923000D01*
X235112179Y-104024012D01*
X234681669Y-104311669D01*
X234394012Y-104742179D01*
X234293000Y-105250000D01*
X230356578Y-105250000D01*
X230440133Y-105194171D01*
X230630242Y-104909651D01*
X230697000Y-104574038D01*
X230697000Y-103825962D01*
X230630242Y-103490349D01*
X230440133Y-103205829D01*
X230155613Y-103015720D01*
X229820000Y-102948962D01*
X229484387Y-103015720D01*
X229199867Y-103205829D01*
X229009758Y-103490349D01*
X228943000Y-103825962D01*
X223697000Y-103825962D01*
X223630242Y-103490349D01*
X223440133Y-103205829D01*
X223155613Y-103015720D01*
X222820000Y-102948962D01*
X222484387Y-103015720D01*
X222199867Y-103205829D01*
X222009758Y-103490349D01*
X221943000Y-103825962D01*
X214426050Y-103825962D01*
X214734434Y-103364434D01*
X215599539Y-102786388D01*
X216652208Y-102577000D01*
X235587793Y-102577000D01*
X236640462Y-102786389D01*
M02*
