M48
;DRILL file {KiCad 4.0.7} date 07/26/18 12:10:47
;FORMAT={-:-/ absolute / inch / decimal}
FMAT,2
INCH,TZ
T1C0.016
T2C0.024
T3C0.033
T4C0.059
%
G90
G05
M72
T1
X6.6711Y-6.2804
X6.8211Y-5.4604
X7.4311Y-6.2804
X7.5811Y-5.4604
X8.0811Y-5.0504
X8.1611Y-6.2804
X8.3411Y-5.4604
X8.3611Y-4.9904
X8.4111Y-5.0204
X8.4114Y-4.8886
X8.4211Y-5.1404
X8.9311Y-6.2804
X9.1011Y-5.4604
X9.1411Y-5.0204
X9.1511Y-4.8704
X9.1711Y-5.0604
X9.3011Y-6.2704
X9.3108Y-5.4601
X9.3411Y-5.1704
T3
X8.8118Y-4.2087
X9.0087Y-4.2087
T4
X6.6067Y-5.7366
X6.6067Y-6.4846
X6.8567Y-5.6366
X6.8567Y-6.3846
X7.3547Y-5.7366
X7.3547Y-6.4846
X7.6047Y-5.6366
X7.6047Y-6.3846
X8.1028Y-5.7366
X8.1028Y-6.4846
X8.3528Y-5.6366
X8.3528Y-6.3846
X8.8508Y-5.7366
X8.8508Y-6.4846
X9.1008Y-5.6366
X9.1008Y-6.3846
T2
X8.7724Y-4.1161G85X8.7724Y-4.0886
G05
X9.048Y-4.0886G85X9.048Y-4.1161
G05
T0
M30
