G04 #@! TF.FileFunction,Copper,L2,Bot,Signal*
%FSLAX46Y46*%
G04 Gerber Fmt 4.6, Leading zero omitted, Abs format (unit mm)*
G04 Created by KiCad (PCBNEW 4.0.4-stable) date 07/06/18 22:07:31*
%MOMM*%
%LPD*%
G01*
G04 APERTURE LIST*
%ADD10C,0.100000*%
%ADD11R,1.500000X1.500000*%
%ADD12R,2.000000X1.500000*%
%ADD13C,0.600000*%
%ADD14C,0.400000*%
%ADD15C,1.000000*%
%ADD16C,0.254000*%
G04 APERTURE END LIST*
D10*
D11*
X92264000Y-91688000D03*
D12*
X92264000Y-91688000D03*
D11*
X92264000Y-89688000D03*
D12*
X92264000Y-89688000D03*
D11*
X92264000Y-87688000D03*
D12*
X92264000Y-87688000D03*
D11*
X110264000Y-87688000D03*
X110264000Y-91688000D03*
X110264000Y-89688000D03*
D12*
X110264000Y-87688000D03*
X110264000Y-89688000D03*
X110264000Y-91688000D03*
D13*
X108770000Y-91660000D03*
X93770000Y-91660000D03*
D14*
X92264000Y-91688000D02*
X93742000Y-91688000D01*
X93742000Y-91688000D02*
X93770000Y-91660000D01*
D15*
X110264000Y-89688000D02*
X92264000Y-89688000D01*
X92264000Y-87688000D02*
X110264000Y-87688000D01*
D16*
G36*
X108725673Y-90578301D02*
X108629000Y-90811690D01*
X108629000Y-91402250D01*
X108787750Y-91561000D01*
X109943000Y-91561000D01*
X109943000Y-91815000D01*
X108787750Y-91815000D01*
X108629000Y-91973750D01*
X108629000Y-92564310D01*
X108725673Y-92797699D01*
X108760974Y-92833000D01*
X93767026Y-92833000D01*
X93802327Y-92797699D01*
X93899000Y-92564310D01*
X93899000Y-91973750D01*
X93740250Y-91815000D01*
X92597000Y-91815000D01*
X92597000Y-91561000D01*
X93740250Y-91561000D01*
X93899000Y-91402250D01*
X93899000Y-90811690D01*
X93802327Y-90578301D01*
X93689025Y-90465000D01*
X108838975Y-90465000D01*
X108725673Y-90578301D01*
X108725673Y-90578301D01*
G37*
X108725673Y-90578301D02*
X108629000Y-90811690D01*
X108629000Y-91402250D01*
X108787750Y-91561000D01*
X109943000Y-91561000D01*
X109943000Y-91815000D01*
X108787750Y-91815000D01*
X108629000Y-91973750D01*
X108629000Y-92564310D01*
X108725673Y-92797699D01*
X108760974Y-92833000D01*
X93767026Y-92833000D01*
X93802327Y-92797699D01*
X93899000Y-92564310D01*
X93899000Y-91973750D01*
X93740250Y-91815000D01*
X92597000Y-91815000D01*
X92597000Y-91561000D01*
X93740250Y-91561000D01*
X93899000Y-91402250D01*
X93899000Y-90811690D01*
X93802327Y-90578301D01*
X93689025Y-90465000D01*
X108838975Y-90465000D01*
X108725673Y-90578301D01*
M02*
