G04 #@! TF.FileFunction,Legend,Top*
%FSLAX46Y46*%
G04 Gerber Fmt 4.6, Leading zero omitted, Abs format (unit mm)*
G04 Created by KiCad (PCBNEW 4.0.4-stable) date 07/06/18 22:07:31*
%MOMM*%
%LPD*%
G01*
G04 APERTURE LIST*
%ADD10C,0.100000*%
%ADD11C,0.150000*%
%ADD12C,0.127000*%
%ADD13C,0.170000*%
%ADD14C,0.125000*%
G04 APERTURE END LIST*
D10*
D11*
X96311000Y-88398000D02*
X96311000Y-87898000D01*
X95261000Y-87898000D02*
X95261000Y-88398000D01*
X102153000Y-88398000D02*
X102153000Y-87898000D01*
X101103000Y-87898000D02*
X101103000Y-88398000D01*
D12*
X106154280Y-89171620D02*
X106154280Y-90172380D01*
X106753720Y-90172380D02*
X106753720Y-89171620D01*
X106454000Y-89572940D02*
X106454000Y-89771060D01*
X106553060Y-89872660D02*
X106553060Y-89471340D01*
X106553060Y-89471340D02*
X106354940Y-89672000D01*
X106354940Y-89672000D02*
X106553060Y-89872660D01*
X107254100Y-90172380D02*
X105653900Y-90172380D01*
X105653900Y-90172380D02*
X105653900Y-89171620D01*
X105653900Y-89171620D02*
X107254100Y-89171620D01*
X107254100Y-89171620D02*
X107254100Y-90172380D01*
D11*
X98580000Y-90637200D02*
X101678800Y-90637200D01*
X101678800Y-90637200D02*
X101678800Y-92262800D01*
X101678800Y-92262800D02*
X98580000Y-92262800D01*
X98580000Y-92262800D02*
X98580000Y-90637200D01*
D10*
X92264000Y-93172000D02*
X92264000Y-86172000D01*
X110264000Y-86172000D02*
X110264000Y-93172000D01*
X92264000Y-86172000D02*
X110264000Y-86172000D01*
X92264000Y-93172000D02*
X110264000Y-93172000D01*
D11*
X103643000Y-91200000D02*
X103643000Y-91700000D01*
X104693000Y-91700000D02*
X104693000Y-91200000D01*
X95515000Y-91200000D02*
X95515000Y-91700000D01*
X96565000Y-91700000D02*
X96565000Y-91200000D01*
X104418000Y-89147000D02*
X103918000Y-89147000D01*
X103918000Y-90197000D02*
X104418000Y-90197000D01*
D12*
X99024500Y-89252900D02*
X98376800Y-89900600D01*
X99024500Y-89405300D02*
X98529200Y-89900600D01*
X97627500Y-87449500D02*
X96967100Y-87449500D01*
X97627500Y-89354500D02*
X96967100Y-89354500D01*
X99024500Y-88402000D02*
X99684900Y-88402000D01*
X99024500Y-87449500D02*
X99684900Y-87449500D01*
X99024500Y-89354500D02*
X99684900Y-89354500D01*
X97627500Y-89900600D02*
X97627500Y-86903400D01*
X97627500Y-86903400D02*
X99024500Y-86903400D01*
X99024500Y-86903400D02*
X99024500Y-89900600D01*
X99024500Y-89900600D02*
X97627500Y-89900600D01*
D13*
X105361143Y-88469429D02*
X105318286Y-88512286D01*
X105189715Y-88555143D01*
X105104001Y-88555143D01*
X104975429Y-88512286D01*
X104889715Y-88426571D01*
X104846858Y-88340857D01*
X104804001Y-88169429D01*
X104804001Y-88040857D01*
X104846858Y-87869429D01*
X104889715Y-87783714D01*
X104975429Y-87698000D01*
X105104001Y-87655143D01*
X105189715Y-87655143D01*
X105318286Y-87698000D01*
X105361143Y-87740857D01*
X105746858Y-88555143D02*
X105746858Y-87655143D01*
X105746858Y-88083714D02*
X106261143Y-88083714D01*
X106261143Y-88555143D02*
X106261143Y-87655143D01*
X107204000Y-88555143D02*
X106904000Y-88126571D01*
X106689715Y-88555143D02*
X106689715Y-87655143D01*
X107032572Y-87655143D01*
X107118286Y-87698000D01*
X107161143Y-87740857D01*
X107204000Y-87826571D01*
X107204000Y-87955143D01*
X107161143Y-88040857D01*
X107118286Y-88083714D01*
X107032572Y-88126571D01*
X106689715Y-88126571D01*
X108061143Y-87698000D02*
X107975429Y-87655143D01*
X107846858Y-87655143D01*
X107718286Y-87698000D01*
X107632572Y-87783714D01*
X107589715Y-87869429D01*
X107546858Y-88040857D01*
X107546858Y-88169429D01*
X107589715Y-88340857D01*
X107632572Y-88426571D01*
X107718286Y-88512286D01*
X107846858Y-88555143D01*
X107932572Y-88555143D01*
X108061143Y-88512286D01*
X108104000Y-88469429D01*
X108104000Y-88169429D01*
X107932572Y-88169429D01*
D14*
X97905048Y-86238190D02*
X97905048Y-86642952D01*
X97928857Y-86690571D01*
X97952667Y-86714381D01*
X98000286Y-86738190D01*
X98095524Y-86738190D01*
X98143143Y-86714381D01*
X98166952Y-86690571D01*
X98190762Y-86642952D01*
X98190762Y-86238190D01*
X98666953Y-86238190D02*
X98428858Y-86238190D01*
X98405048Y-86476286D01*
X98428858Y-86452476D01*
X98476477Y-86428667D01*
X98595524Y-86428667D01*
X98643143Y-86452476D01*
X98666953Y-86476286D01*
X98690762Y-86523905D01*
X98690762Y-86642952D01*
X98666953Y-86690571D01*
X98643143Y-86714381D01*
X98595524Y-86738190D01*
X98476477Y-86738190D01*
X98428858Y-86714381D01*
X98405048Y-86690571D01*
M02*
