G04 #@! TF.FileFunction,Copper,L1,Top,Signal*
%FSLAX46Y46*%
G04 Gerber Fmt 4.6, Leading zero omitted, Abs format (unit mm)*
G04 Created by KiCad (PCBNEW 4.0.4-stable) date 07/06/18 22:07:31*
%MOMM*%
%LPD*%
G01*
G04 APERTURE LIST*
%ADD10C,0.100000*%
%ADD11R,0.600000X0.700000*%
%ADD12R,0.797560X0.797560*%
%ADD13R,0.750000X1.500000*%
%ADD14R,1.500000X1.500000*%
%ADD15R,0.700000X0.600000*%
%ADD16R,1.000760X0.599440*%
%ADD17C,0.600000*%
%ADD18C,0.400000*%
%ADD19C,0.200000*%
%ADD20C,0.254000*%
G04 APERTURE END LIST*
D10*
D11*
X95786000Y-87548000D03*
X95786000Y-88748000D03*
X101628000Y-87548000D03*
X101628000Y-88748000D03*
D12*
X107203300Y-89672000D03*
X105704700Y-89672000D03*
D13*
X101221600Y-91450000D03*
X100110400Y-91450000D03*
X99037200Y-91450000D03*
D14*
X92264000Y-91688000D03*
X92264000Y-89688000D03*
X92264000Y-87688000D03*
X110264000Y-87688000D03*
X110264000Y-91688000D03*
X110264000Y-89688000D03*
D11*
X104168000Y-92050000D03*
X104168000Y-90850000D03*
X96040000Y-92050000D03*
X96040000Y-90850000D03*
D15*
X103568000Y-89672000D03*
X104768000Y-89672000D03*
D16*
X99382640Y-89354500D03*
X99382640Y-87449500D03*
X99382640Y-88402000D03*
X97269360Y-87449500D03*
X97269360Y-89354500D03*
D17*
X108770000Y-91660000D03*
X93770000Y-91660000D03*
D18*
X110264000Y-91688000D02*
X108798000Y-91688000D01*
X108798000Y-91688000D02*
X108770000Y-91660000D01*
X107203300Y-89672000D02*
X110248000Y-89672000D01*
X110248000Y-89672000D02*
X110264000Y-89688000D01*
X95786000Y-87548000D02*
X97170860Y-87548000D01*
X97170860Y-87548000D02*
X97269360Y-87449500D01*
X92264000Y-89688000D02*
X93696000Y-89688000D01*
X93696000Y-89688000D02*
X95786000Y-87598000D01*
X95786000Y-87598000D02*
X95786000Y-87548000D01*
X101628000Y-87548000D02*
X110124000Y-87548000D01*
X110124000Y-87548000D02*
X110264000Y-87688000D01*
X99382640Y-87449500D02*
X101529500Y-87449500D01*
X101529500Y-87449500D02*
X101628000Y-87548000D01*
X104768000Y-89672000D02*
X105704700Y-89672000D01*
X99382640Y-89354500D02*
X100283020Y-89354500D01*
X100283020Y-89354500D02*
X100600520Y-89672000D01*
X100600520Y-89672000D02*
X102818000Y-89672000D01*
X102818000Y-89672000D02*
X103568000Y-89672000D01*
D19*
X101221600Y-91450000D02*
X103618000Y-91450000D01*
X103618000Y-91450000D02*
X104168000Y-90900000D01*
X104168000Y-90900000D02*
X104168000Y-90850000D01*
X99037200Y-91450000D02*
X100110400Y-91450000D01*
X96040000Y-90850000D02*
X98437200Y-90850000D01*
X98437200Y-90850000D02*
X99037200Y-91450000D01*
X97269360Y-89354500D02*
X98014900Y-89354500D01*
X98014900Y-89354500D02*
X98840400Y-90180000D01*
X98840400Y-90180000D02*
X99790400Y-90180000D01*
X99790400Y-90180000D02*
X100110400Y-90500000D01*
X100110400Y-90500000D02*
X100110400Y-91450000D01*
D20*
G36*
X109943000Y-86655574D02*
X109514000Y-86655574D01*
X109411350Y-86674889D01*
X109317073Y-86735555D01*
X109253825Y-86828120D01*
X109231574Y-86938000D01*
X109231574Y-87071000D01*
X102175442Y-87071000D01*
X102130445Y-87001073D01*
X102037880Y-86937825D01*
X101928000Y-86915574D01*
X101328000Y-86915574D01*
X101225350Y-86934889D01*
X101166901Y-86972500D01*
X100098108Y-86972500D01*
X100085465Y-86952853D01*
X99992900Y-86889605D01*
X99883020Y-86867354D01*
X98882260Y-86867354D01*
X98779610Y-86886669D01*
X98685333Y-86947335D01*
X98622085Y-87039900D01*
X98599834Y-87149780D01*
X98599834Y-87531945D01*
X98522561Y-87563953D01*
X98343933Y-87742582D01*
X98247260Y-87975971D01*
X98247260Y-88116250D01*
X98406010Y-88275000D01*
X99255640Y-88275000D01*
X99255640Y-88255000D01*
X99509640Y-88255000D01*
X99509640Y-88275000D01*
X100359270Y-88275000D01*
X100518020Y-88116250D01*
X100518020Y-87975971D01*
X100497528Y-87926500D01*
X100901474Y-87926500D01*
X100789673Y-88038302D01*
X100693000Y-88271691D01*
X100693000Y-88462250D01*
X100851750Y-88621000D01*
X101501000Y-88621000D01*
X101501000Y-88601000D01*
X101755000Y-88601000D01*
X101755000Y-88621000D01*
X102404250Y-88621000D01*
X102563000Y-88462250D01*
X102563000Y-88271691D01*
X102466327Y-88038302D01*
X102453025Y-88025000D01*
X109231574Y-88025000D01*
X109231574Y-88438000D01*
X109250889Y-88540650D01*
X109311555Y-88634927D01*
X109390076Y-88688579D01*
X109317073Y-88735555D01*
X109253825Y-88828120D01*
X109231574Y-88938000D01*
X109231574Y-89195000D01*
X107869788Y-89195000D01*
X107865191Y-89170570D01*
X107804525Y-89076293D01*
X107711960Y-89013045D01*
X107602080Y-88990794D01*
X106804520Y-88990794D01*
X106701870Y-89010109D01*
X106607593Y-89070775D01*
X106544345Y-89163340D01*
X106522094Y-89273220D01*
X106522094Y-90070780D01*
X106541409Y-90173430D01*
X106602075Y-90267707D01*
X106694640Y-90330955D01*
X106804520Y-90353206D01*
X107602080Y-90353206D01*
X107704730Y-90333891D01*
X107799007Y-90273225D01*
X107862255Y-90180660D01*
X107868666Y-90149000D01*
X109231574Y-90149000D01*
X109231574Y-90367666D01*
X109154302Y-90399673D01*
X108975673Y-90578301D01*
X108879000Y-90811690D01*
X108879000Y-91402250D01*
X109037750Y-91561000D01*
X109943000Y-91561000D01*
X109943000Y-91815000D01*
X109037750Y-91815000D01*
X108879000Y-91973750D01*
X108879000Y-92564310D01*
X108975673Y-92797699D01*
X109010974Y-92833000D01*
X104933025Y-92833000D01*
X105006327Y-92759698D01*
X105103000Y-92526309D01*
X105103000Y-92335750D01*
X104944250Y-92177000D01*
X104295000Y-92177000D01*
X104295000Y-92197000D01*
X104041000Y-92197000D01*
X104041000Y-92177000D01*
X103391750Y-92177000D01*
X103233000Y-92335750D01*
X103233000Y-92526309D01*
X103329673Y-92759698D01*
X103402975Y-92833000D01*
X96805025Y-92833000D01*
X96878327Y-92759698D01*
X96975000Y-92526309D01*
X96975000Y-92335750D01*
X96816250Y-92177000D01*
X96167000Y-92177000D01*
X96167000Y-92197000D01*
X95913000Y-92197000D01*
X95913000Y-92177000D01*
X95263750Y-92177000D01*
X95105000Y-92335750D01*
X95105000Y-92526309D01*
X95201673Y-92759698D01*
X95274975Y-92833000D01*
X93517026Y-92833000D01*
X93552327Y-92797699D01*
X93649000Y-92564310D01*
X93649000Y-91973750D01*
X93490250Y-91815000D01*
X92597000Y-91815000D01*
X92597000Y-91573691D01*
X95105000Y-91573691D01*
X95105000Y-91764250D01*
X95263750Y-91923000D01*
X95913000Y-91923000D01*
X95913000Y-91903000D01*
X96167000Y-91903000D01*
X96167000Y-91923000D01*
X96816250Y-91923000D01*
X96975000Y-91764250D01*
X96975000Y-91573691D01*
X96878327Y-91340302D01*
X96765026Y-91227000D01*
X98281042Y-91227000D01*
X98379774Y-91325732D01*
X98379774Y-92200000D01*
X98399089Y-92302650D01*
X98459755Y-92396927D01*
X98552320Y-92460175D01*
X98662200Y-92482426D01*
X99412200Y-92482426D01*
X99514850Y-92463111D01*
X99574058Y-92425012D01*
X99625520Y-92460175D01*
X99735400Y-92482426D01*
X100485400Y-92482426D01*
X100588050Y-92463111D01*
X100666828Y-92412419D01*
X100736720Y-92460175D01*
X100846600Y-92482426D01*
X101596600Y-92482426D01*
X101699250Y-92463111D01*
X101793527Y-92402445D01*
X101856775Y-92309880D01*
X101879026Y-92200000D01*
X101879026Y-91827000D01*
X103295750Y-91827000D01*
X103391750Y-91923000D01*
X104041000Y-91923000D01*
X104041000Y-91903000D01*
X104295000Y-91903000D01*
X104295000Y-91923000D01*
X104944250Y-91923000D01*
X105103000Y-91764250D01*
X105103000Y-91573691D01*
X105006327Y-91340302D01*
X104827699Y-91161673D01*
X104750426Y-91129665D01*
X104750426Y-90500000D01*
X104731111Y-90397350D01*
X104670445Y-90303073D01*
X104599249Y-90254426D01*
X105094929Y-90254426D01*
X105103475Y-90267707D01*
X105196040Y-90330955D01*
X105305920Y-90353206D01*
X106103480Y-90353206D01*
X106206130Y-90333891D01*
X106300407Y-90273225D01*
X106363655Y-90180660D01*
X106385906Y-90070780D01*
X106385906Y-89273220D01*
X106366591Y-89170570D01*
X106305925Y-89076293D01*
X106213360Y-89013045D01*
X106103480Y-88990794D01*
X105305920Y-88990794D01*
X105203270Y-89010109D01*
X105108993Y-89070775D01*
X105096148Y-89089574D01*
X104418000Y-89089574D01*
X104315350Y-89108889D01*
X104221073Y-89169555D01*
X104167421Y-89248076D01*
X104120445Y-89175073D01*
X104027880Y-89111825D01*
X103918000Y-89089574D01*
X103218000Y-89089574D01*
X103115350Y-89108889D01*
X103021073Y-89169555D01*
X103003687Y-89195000D01*
X102563000Y-89195000D01*
X102563000Y-89033750D01*
X102404250Y-88875000D01*
X101755000Y-88875000D01*
X101755000Y-88895000D01*
X101501000Y-88895000D01*
X101501000Y-88875000D01*
X100851750Y-88875000D01*
X100693000Y-89033750D01*
X100693000Y-89089900D01*
X100620310Y-89017210D01*
X100478819Y-88922668D01*
X100518020Y-88828029D01*
X100518020Y-88687750D01*
X100359270Y-88529000D01*
X99509640Y-88529000D01*
X99509640Y-88549000D01*
X99255640Y-88549000D01*
X99255640Y-88529000D01*
X98406010Y-88529000D01*
X98247260Y-88687750D01*
X98247260Y-88828029D01*
X98343933Y-89061418D01*
X98522561Y-89240047D01*
X98599834Y-89272055D01*
X98599834Y-89406276D01*
X98281479Y-89087921D01*
X98159172Y-89006197D01*
X98038508Y-88982196D01*
X98032851Y-88952130D01*
X97972185Y-88857853D01*
X97879620Y-88794605D01*
X97769740Y-88772354D01*
X96768980Y-88772354D01*
X96666330Y-88791669D01*
X96572053Y-88852335D01*
X96556566Y-88875000D01*
X95913000Y-88875000D01*
X95913000Y-89574250D01*
X96071750Y-89733000D01*
X96212310Y-89733000D01*
X96445699Y-89636327D01*
X96486554Y-89595472D01*
X96486554Y-89654220D01*
X96505869Y-89756870D01*
X96566535Y-89851147D01*
X96659100Y-89914395D01*
X96768980Y-89936646D01*
X97769740Y-89936646D01*
X97872390Y-89917331D01*
X97966667Y-89856665D01*
X97973665Y-89846423D01*
X98563406Y-90436164D01*
X98559550Y-90436889D01*
X98487793Y-90483063D01*
X98437200Y-90473000D01*
X96617346Y-90473000D01*
X96603111Y-90397350D01*
X96542445Y-90303073D01*
X96449880Y-90239825D01*
X96340000Y-90217574D01*
X95740000Y-90217574D01*
X95637350Y-90236889D01*
X95543073Y-90297555D01*
X95479825Y-90390120D01*
X95457574Y-90500000D01*
X95457574Y-91129665D01*
X95380301Y-91161673D01*
X95201673Y-91340302D01*
X95105000Y-91573691D01*
X92597000Y-91573691D01*
X92597000Y-91561000D01*
X93490250Y-91561000D01*
X93649000Y-91402250D01*
X93649000Y-90811690D01*
X93552327Y-90578301D01*
X93373698Y-90399673D01*
X93296426Y-90367666D01*
X93296426Y-90165000D01*
X93696000Y-90165000D01*
X93878540Y-90128691D01*
X94033290Y-90025290D01*
X94851000Y-89207580D01*
X94851000Y-89224309D01*
X94947673Y-89457698D01*
X95126301Y-89636327D01*
X95359690Y-89733000D01*
X95500250Y-89733000D01*
X95659000Y-89574250D01*
X95659000Y-88875000D01*
X95639000Y-88875000D01*
X95639000Y-88621000D01*
X95659000Y-88621000D01*
X95659000Y-88601000D01*
X95913000Y-88601000D01*
X95913000Y-88621000D01*
X96562250Y-88621000D01*
X96721000Y-88462250D01*
X96721000Y-88271691D01*
X96624327Y-88038302D01*
X96611025Y-88025000D01*
X96736161Y-88025000D01*
X96768980Y-88031646D01*
X97769740Y-88031646D01*
X97872390Y-88012331D01*
X97966667Y-87951665D01*
X98029915Y-87859100D01*
X98052166Y-87749220D01*
X98052166Y-87149780D01*
X98032851Y-87047130D01*
X97972185Y-86952853D01*
X97879620Y-86889605D01*
X97769740Y-86867354D01*
X96768980Y-86867354D01*
X96666330Y-86886669D01*
X96572053Y-86947335D01*
X96508805Y-87039900D01*
X96502507Y-87071000D01*
X96333442Y-87071000D01*
X96288445Y-87001073D01*
X96195880Y-86937825D01*
X96086000Y-86915574D01*
X95486000Y-86915574D01*
X95383350Y-86934889D01*
X95289073Y-86995555D01*
X95225825Y-87088120D01*
X95203574Y-87198000D01*
X95203574Y-87505846D01*
X93498420Y-89211000D01*
X93296426Y-89211000D01*
X93296426Y-88938000D01*
X93277111Y-88835350D01*
X93216445Y-88741073D01*
X93137924Y-88687421D01*
X93210927Y-88640445D01*
X93274175Y-88547880D01*
X93296426Y-88438000D01*
X93296426Y-86938000D01*
X93277111Y-86835350D01*
X93216445Y-86741073D01*
X93123880Y-86677825D01*
X93014000Y-86655574D01*
X92597000Y-86655574D01*
X92597000Y-86487000D01*
X109943000Y-86487000D01*
X109943000Y-86655574D01*
X109943000Y-86655574D01*
G37*
X109943000Y-86655574D02*
X109514000Y-86655574D01*
X109411350Y-86674889D01*
X109317073Y-86735555D01*
X109253825Y-86828120D01*
X109231574Y-86938000D01*
X109231574Y-87071000D01*
X102175442Y-87071000D01*
X102130445Y-87001073D01*
X102037880Y-86937825D01*
X101928000Y-86915574D01*
X101328000Y-86915574D01*
X101225350Y-86934889D01*
X101166901Y-86972500D01*
X100098108Y-86972500D01*
X100085465Y-86952853D01*
X99992900Y-86889605D01*
X99883020Y-86867354D01*
X98882260Y-86867354D01*
X98779610Y-86886669D01*
X98685333Y-86947335D01*
X98622085Y-87039900D01*
X98599834Y-87149780D01*
X98599834Y-87531945D01*
X98522561Y-87563953D01*
X98343933Y-87742582D01*
X98247260Y-87975971D01*
X98247260Y-88116250D01*
X98406010Y-88275000D01*
X99255640Y-88275000D01*
X99255640Y-88255000D01*
X99509640Y-88255000D01*
X99509640Y-88275000D01*
X100359270Y-88275000D01*
X100518020Y-88116250D01*
X100518020Y-87975971D01*
X100497528Y-87926500D01*
X100901474Y-87926500D01*
X100789673Y-88038302D01*
X100693000Y-88271691D01*
X100693000Y-88462250D01*
X100851750Y-88621000D01*
X101501000Y-88621000D01*
X101501000Y-88601000D01*
X101755000Y-88601000D01*
X101755000Y-88621000D01*
X102404250Y-88621000D01*
X102563000Y-88462250D01*
X102563000Y-88271691D01*
X102466327Y-88038302D01*
X102453025Y-88025000D01*
X109231574Y-88025000D01*
X109231574Y-88438000D01*
X109250889Y-88540650D01*
X109311555Y-88634927D01*
X109390076Y-88688579D01*
X109317073Y-88735555D01*
X109253825Y-88828120D01*
X109231574Y-88938000D01*
X109231574Y-89195000D01*
X107869788Y-89195000D01*
X107865191Y-89170570D01*
X107804525Y-89076293D01*
X107711960Y-89013045D01*
X107602080Y-88990794D01*
X106804520Y-88990794D01*
X106701870Y-89010109D01*
X106607593Y-89070775D01*
X106544345Y-89163340D01*
X106522094Y-89273220D01*
X106522094Y-90070780D01*
X106541409Y-90173430D01*
X106602075Y-90267707D01*
X106694640Y-90330955D01*
X106804520Y-90353206D01*
X107602080Y-90353206D01*
X107704730Y-90333891D01*
X107799007Y-90273225D01*
X107862255Y-90180660D01*
X107868666Y-90149000D01*
X109231574Y-90149000D01*
X109231574Y-90367666D01*
X109154302Y-90399673D01*
X108975673Y-90578301D01*
X108879000Y-90811690D01*
X108879000Y-91402250D01*
X109037750Y-91561000D01*
X109943000Y-91561000D01*
X109943000Y-91815000D01*
X109037750Y-91815000D01*
X108879000Y-91973750D01*
X108879000Y-92564310D01*
X108975673Y-92797699D01*
X109010974Y-92833000D01*
X104933025Y-92833000D01*
X105006327Y-92759698D01*
X105103000Y-92526309D01*
X105103000Y-92335750D01*
X104944250Y-92177000D01*
X104295000Y-92177000D01*
X104295000Y-92197000D01*
X104041000Y-92197000D01*
X104041000Y-92177000D01*
X103391750Y-92177000D01*
X103233000Y-92335750D01*
X103233000Y-92526309D01*
X103329673Y-92759698D01*
X103402975Y-92833000D01*
X96805025Y-92833000D01*
X96878327Y-92759698D01*
X96975000Y-92526309D01*
X96975000Y-92335750D01*
X96816250Y-92177000D01*
X96167000Y-92177000D01*
X96167000Y-92197000D01*
X95913000Y-92197000D01*
X95913000Y-92177000D01*
X95263750Y-92177000D01*
X95105000Y-92335750D01*
X95105000Y-92526309D01*
X95201673Y-92759698D01*
X95274975Y-92833000D01*
X93517026Y-92833000D01*
X93552327Y-92797699D01*
X93649000Y-92564310D01*
X93649000Y-91973750D01*
X93490250Y-91815000D01*
X92597000Y-91815000D01*
X92597000Y-91573691D01*
X95105000Y-91573691D01*
X95105000Y-91764250D01*
X95263750Y-91923000D01*
X95913000Y-91923000D01*
X95913000Y-91903000D01*
X96167000Y-91903000D01*
X96167000Y-91923000D01*
X96816250Y-91923000D01*
X96975000Y-91764250D01*
X96975000Y-91573691D01*
X96878327Y-91340302D01*
X96765026Y-91227000D01*
X98281042Y-91227000D01*
X98379774Y-91325732D01*
X98379774Y-92200000D01*
X98399089Y-92302650D01*
X98459755Y-92396927D01*
X98552320Y-92460175D01*
X98662200Y-92482426D01*
X99412200Y-92482426D01*
X99514850Y-92463111D01*
X99574058Y-92425012D01*
X99625520Y-92460175D01*
X99735400Y-92482426D01*
X100485400Y-92482426D01*
X100588050Y-92463111D01*
X100666828Y-92412419D01*
X100736720Y-92460175D01*
X100846600Y-92482426D01*
X101596600Y-92482426D01*
X101699250Y-92463111D01*
X101793527Y-92402445D01*
X101856775Y-92309880D01*
X101879026Y-92200000D01*
X101879026Y-91827000D01*
X103295750Y-91827000D01*
X103391750Y-91923000D01*
X104041000Y-91923000D01*
X104041000Y-91903000D01*
X104295000Y-91903000D01*
X104295000Y-91923000D01*
X104944250Y-91923000D01*
X105103000Y-91764250D01*
X105103000Y-91573691D01*
X105006327Y-91340302D01*
X104827699Y-91161673D01*
X104750426Y-91129665D01*
X104750426Y-90500000D01*
X104731111Y-90397350D01*
X104670445Y-90303073D01*
X104599249Y-90254426D01*
X105094929Y-90254426D01*
X105103475Y-90267707D01*
X105196040Y-90330955D01*
X105305920Y-90353206D01*
X106103480Y-90353206D01*
X106206130Y-90333891D01*
X106300407Y-90273225D01*
X106363655Y-90180660D01*
X106385906Y-90070780D01*
X106385906Y-89273220D01*
X106366591Y-89170570D01*
X106305925Y-89076293D01*
X106213360Y-89013045D01*
X106103480Y-88990794D01*
X105305920Y-88990794D01*
X105203270Y-89010109D01*
X105108993Y-89070775D01*
X105096148Y-89089574D01*
X104418000Y-89089574D01*
X104315350Y-89108889D01*
X104221073Y-89169555D01*
X104167421Y-89248076D01*
X104120445Y-89175073D01*
X104027880Y-89111825D01*
X103918000Y-89089574D01*
X103218000Y-89089574D01*
X103115350Y-89108889D01*
X103021073Y-89169555D01*
X103003687Y-89195000D01*
X102563000Y-89195000D01*
X102563000Y-89033750D01*
X102404250Y-88875000D01*
X101755000Y-88875000D01*
X101755000Y-88895000D01*
X101501000Y-88895000D01*
X101501000Y-88875000D01*
X100851750Y-88875000D01*
X100693000Y-89033750D01*
X100693000Y-89089900D01*
X100620310Y-89017210D01*
X100478819Y-88922668D01*
X100518020Y-88828029D01*
X100518020Y-88687750D01*
X100359270Y-88529000D01*
X99509640Y-88529000D01*
X99509640Y-88549000D01*
X99255640Y-88549000D01*
X99255640Y-88529000D01*
X98406010Y-88529000D01*
X98247260Y-88687750D01*
X98247260Y-88828029D01*
X98343933Y-89061418D01*
X98522561Y-89240047D01*
X98599834Y-89272055D01*
X98599834Y-89406276D01*
X98281479Y-89087921D01*
X98159172Y-89006197D01*
X98038508Y-88982196D01*
X98032851Y-88952130D01*
X97972185Y-88857853D01*
X97879620Y-88794605D01*
X97769740Y-88772354D01*
X96768980Y-88772354D01*
X96666330Y-88791669D01*
X96572053Y-88852335D01*
X96556566Y-88875000D01*
X95913000Y-88875000D01*
X95913000Y-89574250D01*
X96071750Y-89733000D01*
X96212310Y-89733000D01*
X96445699Y-89636327D01*
X96486554Y-89595472D01*
X96486554Y-89654220D01*
X96505869Y-89756870D01*
X96566535Y-89851147D01*
X96659100Y-89914395D01*
X96768980Y-89936646D01*
X97769740Y-89936646D01*
X97872390Y-89917331D01*
X97966667Y-89856665D01*
X97973665Y-89846423D01*
X98563406Y-90436164D01*
X98559550Y-90436889D01*
X98487793Y-90483063D01*
X98437200Y-90473000D01*
X96617346Y-90473000D01*
X96603111Y-90397350D01*
X96542445Y-90303073D01*
X96449880Y-90239825D01*
X96340000Y-90217574D01*
X95740000Y-90217574D01*
X95637350Y-90236889D01*
X95543073Y-90297555D01*
X95479825Y-90390120D01*
X95457574Y-90500000D01*
X95457574Y-91129665D01*
X95380301Y-91161673D01*
X95201673Y-91340302D01*
X95105000Y-91573691D01*
X92597000Y-91573691D01*
X92597000Y-91561000D01*
X93490250Y-91561000D01*
X93649000Y-91402250D01*
X93649000Y-90811690D01*
X93552327Y-90578301D01*
X93373698Y-90399673D01*
X93296426Y-90367666D01*
X93296426Y-90165000D01*
X93696000Y-90165000D01*
X93878540Y-90128691D01*
X94033290Y-90025290D01*
X94851000Y-89207580D01*
X94851000Y-89224309D01*
X94947673Y-89457698D01*
X95126301Y-89636327D01*
X95359690Y-89733000D01*
X95500250Y-89733000D01*
X95659000Y-89574250D01*
X95659000Y-88875000D01*
X95639000Y-88875000D01*
X95639000Y-88621000D01*
X95659000Y-88621000D01*
X95659000Y-88601000D01*
X95913000Y-88601000D01*
X95913000Y-88621000D01*
X96562250Y-88621000D01*
X96721000Y-88462250D01*
X96721000Y-88271691D01*
X96624327Y-88038302D01*
X96611025Y-88025000D01*
X96736161Y-88025000D01*
X96768980Y-88031646D01*
X97769740Y-88031646D01*
X97872390Y-88012331D01*
X97966667Y-87951665D01*
X98029915Y-87859100D01*
X98052166Y-87749220D01*
X98052166Y-87149780D01*
X98032851Y-87047130D01*
X97972185Y-86952853D01*
X97879620Y-86889605D01*
X97769740Y-86867354D01*
X96768980Y-86867354D01*
X96666330Y-86886669D01*
X96572053Y-86947335D01*
X96508805Y-87039900D01*
X96502507Y-87071000D01*
X96333442Y-87071000D01*
X96288445Y-87001073D01*
X96195880Y-86937825D01*
X96086000Y-86915574D01*
X95486000Y-86915574D01*
X95383350Y-86934889D01*
X95289073Y-86995555D01*
X95225825Y-87088120D01*
X95203574Y-87198000D01*
X95203574Y-87505846D01*
X93498420Y-89211000D01*
X93296426Y-89211000D01*
X93296426Y-88938000D01*
X93277111Y-88835350D01*
X93216445Y-88741073D01*
X93137924Y-88687421D01*
X93210927Y-88640445D01*
X93274175Y-88547880D01*
X93296426Y-88438000D01*
X93296426Y-86938000D01*
X93277111Y-86835350D01*
X93216445Y-86741073D01*
X93123880Y-86677825D01*
X93014000Y-86655574D01*
X92597000Y-86655574D01*
X92597000Y-86487000D01*
X109943000Y-86487000D01*
X109943000Y-86655574D01*
M02*
