G04 #@! TF.FileFunction,Soldermask,Bot*
%FSLAX46Y46*%
G04 Gerber Fmt 4.6, Leading zero omitted, Abs format (unit mm)*
G04 Created by KiCad (PCBNEW 4.0.4-stable) date 07/06/18 22:55:52*
%MOMM*%
%LPD*%
G01*
G04 APERTURE LIST*
%ADD10C,0.100000*%
%ADD11R,1.700000X1.700000*%
%ADD12O,1.700000X1.700000*%
%ADD13R,1.500000X1.900000*%
%ADD14C,1.450000*%
%ADD15R,0.400000X1.350000*%
%ADD16O,1.200000X1.900000*%
%ADD17R,1.200000X1.900000*%
%ADD18O,3.000000X1.500000*%
%ADD19O,1.500000X3.000000*%
G04 APERTURE END LIST*
D10*
D11*
X102620000Y-69350000D03*
D12*
X102620000Y-71890000D03*
X102620000Y-74430000D03*
X102620000Y-76970000D03*
X102620000Y-79510000D03*
X102620000Y-82050000D03*
X102620000Y-84590000D03*
X102620000Y-87130000D03*
X102620000Y-89670000D03*
X102620000Y-92210000D03*
X102620000Y-94750000D03*
X102620000Y-97290000D03*
D13*
X136000000Y-67000000D03*
D14*
X132500000Y-69700000D03*
D15*
X134350000Y-69700000D03*
X133700000Y-69700000D03*
X136300000Y-69700000D03*
X135650000Y-69700000D03*
X135000000Y-69700000D03*
D14*
X137500000Y-69700000D03*
D13*
X134000000Y-67000000D03*
D16*
X131500000Y-67000000D03*
X138500000Y-67000000D03*
D17*
X137900000Y-67000000D03*
X132100000Y-67000000D03*
D18*
X144000000Y-86350000D03*
X144000000Y-84350000D03*
X144000000Y-82350000D03*
X144000000Y-80350000D03*
X144000000Y-92350000D03*
X144000000Y-88350000D03*
X144000000Y-94350000D03*
X144000000Y-90350000D03*
X144000000Y-78350000D03*
X144000000Y-76350000D03*
D19*
X140000000Y-96350000D03*
X138000000Y-96350000D03*
X136000000Y-96350000D03*
X134000000Y-96350000D03*
X132000000Y-96350000D03*
X130000000Y-96350000D03*
D18*
X126000000Y-82350000D03*
X126000000Y-80350000D03*
X126000000Y-84350000D03*
X126000000Y-86350000D03*
X126000000Y-78350000D03*
X126000000Y-76350000D03*
X126000000Y-92350000D03*
X126000000Y-94350000D03*
X126000000Y-88350000D03*
X126000000Y-90350000D03*
D19*
X137000000Y-74350000D03*
X133000000Y-74350000D03*
X139000000Y-74350000D03*
X135000000Y-74350000D03*
X131000000Y-74350000D03*
D11*
X168620000Y-96470000D03*
D12*
X168620000Y-93930000D03*
X168620000Y-91390000D03*
X168620000Y-88850000D03*
X168620000Y-86310000D03*
X168620000Y-83770000D03*
X168620000Y-81230000D03*
X168620000Y-78690000D03*
X168620000Y-76150000D03*
X168620000Y-73610000D03*
X168620000Y-71070000D03*
X168620000Y-68530000D03*
M02*
