G04 #@! TF.FileFunction,Legend,Bot*
%FSLAX46Y46*%
G04 Gerber Fmt 4.6, Leading zero omitted, Abs format (unit mm)*
G04 Created by KiCad (PCBNEW 4.0.4-stable) date 07/06/18 22:55:52*
%MOMM*%
%LPD*%
G01*
G04 APERTURE LIST*
%ADD10C,0.100000*%
%ADD11C,0.120000*%
%ADD12C,0.500000*%
%ADD13C,0.150000*%
G04 APERTURE END LIST*
D10*
D11*
X103950000Y-98620000D02*
X101290000Y-98620000D01*
X103950000Y-70620000D02*
X103950000Y-98620000D01*
X101290000Y-70620000D02*
X101290000Y-98620000D01*
X103950000Y-70620000D02*
X101290000Y-70620000D01*
X103950000Y-69350000D02*
X103950000Y-68020000D01*
X103950000Y-68020000D02*
X102620000Y-68020000D01*
X131100000Y-70000000D02*
X131550000Y-70000000D01*
X131100000Y-68150000D02*
X131100000Y-70000000D01*
X138900000Y-65600000D02*
X138900000Y-65850000D01*
X131100000Y-65600000D02*
X131100000Y-65850000D01*
X138900000Y-68150000D02*
X138900000Y-70000000D01*
X138900000Y-70000000D02*
X138450000Y-70000000D01*
X133300000Y-70550000D02*
X133750000Y-70550000D01*
X133300000Y-70550000D02*
X133300000Y-70100000D01*
D12*
X144707107Y-74350000D02*
G75*
G03X144707107Y-74350000I-707107J0D01*
G01*
D10*
X144000000Y-96350000D02*
X144000000Y-74350000D01*
X126000000Y-96350000D02*
X144000000Y-96350000D01*
X126000000Y-74350000D02*
X126000000Y-96350000D01*
X144000000Y-74350000D02*
X126000000Y-74350000D01*
D11*
X167290000Y-67200000D02*
X169950000Y-67200000D01*
X167290000Y-95200000D02*
X167290000Y-67200000D01*
X169950000Y-95200000D02*
X169950000Y-67200000D01*
X167290000Y-95200000D02*
X169950000Y-95200000D01*
X167290000Y-96470000D02*
X167290000Y-97800000D01*
X167290000Y-97800000D02*
X168620000Y-97800000D01*
D13*
X102953333Y-66472381D02*
X102953333Y-67186667D01*
X103000953Y-67329524D01*
X103096191Y-67424762D01*
X103239048Y-67472381D01*
X103334286Y-67472381D01*
X101953333Y-67472381D02*
X102524762Y-67472381D01*
X102239048Y-67472381D02*
X102239048Y-66472381D01*
X102334286Y-66615238D01*
X102429524Y-66710476D01*
X102524762Y-66758095D01*
X135333333Y-70802381D02*
X135333333Y-71516667D01*
X135380953Y-71659524D01*
X135476191Y-71754762D01*
X135619048Y-71802381D01*
X135714286Y-71802381D01*
X134904762Y-70897619D02*
X134857143Y-70850000D01*
X134761905Y-70802381D01*
X134523809Y-70802381D01*
X134428571Y-70850000D01*
X134380952Y-70897619D01*
X134333333Y-70992857D01*
X134333333Y-71088095D01*
X134380952Y-71230952D01*
X134952381Y-71802381D01*
X134333333Y-71802381D01*
X168953333Y-98252381D02*
X168953333Y-98966667D01*
X169000953Y-99109524D01*
X169096191Y-99204762D01*
X169239048Y-99252381D01*
X169334286Y-99252381D01*
X168572381Y-98252381D02*
X167953333Y-98252381D01*
X168286667Y-98633333D01*
X168143809Y-98633333D01*
X168048571Y-98680952D01*
X168000952Y-98728571D01*
X167953333Y-98823810D01*
X167953333Y-99061905D01*
X168000952Y-99157143D01*
X168048571Y-99204762D01*
X168143809Y-99252381D01*
X168429524Y-99252381D01*
X168524762Y-99204762D01*
X168572381Y-99157143D01*
M02*
