G04 #@! TF.FileFunction,Legend,Top*
%FSLAX46Y46*%
G04 Gerber Fmt 4.6, Leading zero omitted, Abs format (unit mm)*
G04 Created by KiCad (PCBNEW 4.0.4-stable) date 07/06/18 22:55:52*
%MOMM*%
%LPD*%
G01*
G04 APERTURE LIST*
%ADD10C,0.100000*%
%ADD11C,0.010000*%
G04 APERTURE END LIST*
D10*
D11*
G36*
X153115695Y-100345695D02*
X118118057Y-100345695D01*
X118118057Y-83500288D01*
X121956071Y-83500288D01*
X121961146Y-83505064D01*
X121974835Y-83516773D01*
X121996030Y-83534498D01*
X122023621Y-83557320D01*
X122056499Y-83584322D01*
X122093555Y-83614586D01*
X122129570Y-83643861D01*
X122193256Y-83695521D01*
X122257689Y-83747793D01*
X122321865Y-83799863D01*
X122384781Y-83850917D01*
X122445433Y-83900139D01*
X122502819Y-83946716D01*
X122555935Y-83989833D01*
X122603777Y-84028676D01*
X122645343Y-84062431D01*
X122679628Y-84090283D01*
X122705630Y-84111418D01*
X122713801Y-84118064D01*
X122729944Y-84131188D01*
X122754582Y-84151204D01*
X122786507Y-84177131D01*
X122824509Y-84207987D01*
X122867379Y-84242791D01*
X122913909Y-84280560D01*
X122962889Y-84320314D01*
X123013110Y-84361070D01*
X123016852Y-84364106D01*
X123067014Y-84404822D01*
X123115936Y-84444551D01*
X123162424Y-84482320D01*
X123205282Y-84517159D01*
X123243314Y-84548095D01*
X123275325Y-84574155D01*
X123300119Y-84594368D01*
X123316502Y-84607763D01*
X123317445Y-84608536D01*
X123346896Y-84632651D01*
X123380623Y-84660174D01*
X123413177Y-84686662D01*
X123426793Y-84697709D01*
X123442577Y-84710509D01*
X123466889Y-84730237D01*
X123498560Y-84755945D01*
X123536418Y-84786680D01*
X123579292Y-84821493D01*
X123626012Y-84859434D01*
X123675407Y-84899550D01*
X123726307Y-84940893D01*
X123738549Y-84950837D01*
X123791582Y-84993912D01*
X123844976Y-85037275D01*
X123897309Y-85079770D01*
X123947158Y-85120242D01*
X123993099Y-85157536D01*
X124033710Y-85190496D01*
X124067568Y-85217968D01*
X124093249Y-85238796D01*
X124094711Y-85239981D01*
X124117911Y-85258798D01*
X124149596Y-85284510D01*
X124188552Y-85316133D01*
X124233567Y-85352681D01*
X124283425Y-85393169D01*
X124336915Y-85436611D01*
X124392822Y-85482023D01*
X124449934Y-85528418D01*
X124500861Y-85569795D01*
X124556342Y-85614871D01*
X124610384Y-85658775D01*
X124661961Y-85700673D01*
X124710045Y-85739730D01*
X124753611Y-85775113D01*
X124791631Y-85805987D01*
X124823078Y-85831520D01*
X124846926Y-85850876D01*
X124862148Y-85863222D01*
X124862606Y-85863594D01*
X124890561Y-85886278D01*
X124920297Y-85910462D01*
X124947366Y-85932524D01*
X124960174Y-85942989D01*
X124973521Y-85953899D01*
X124989206Y-85966696D01*
X125007909Y-85981933D01*
X125030312Y-86000163D01*
X125057094Y-86021938D01*
X125088939Y-86047814D01*
X125126525Y-86078342D01*
X125170534Y-86114075D01*
X125221648Y-86155568D01*
X125280546Y-86203372D01*
X125347909Y-86258042D01*
X125410013Y-86308438D01*
X125460014Y-86349020D01*
X125510228Y-86389785D01*
X125559157Y-86429518D01*
X125605302Y-86467000D01*
X125647164Y-86501014D01*
X125683245Y-86530343D01*
X125712046Y-86553770D01*
X125725560Y-86564772D01*
X125747320Y-86582483D01*
X125777513Y-86607037D01*
X125814871Y-86637403D01*
X125858123Y-86672548D01*
X125906000Y-86711442D01*
X125957232Y-86753052D01*
X126010550Y-86796348D01*
X126064683Y-86840297D01*
X126087971Y-86859202D01*
X126159811Y-86917516D01*
X126222681Y-86968551D01*
X126277316Y-87012902D01*
X126324448Y-87051165D01*
X126364812Y-87083937D01*
X126399141Y-87111812D01*
X126428169Y-87135387D01*
X126452629Y-87155258D01*
X126473255Y-87172020D01*
X126490781Y-87186270D01*
X126505940Y-87198603D01*
X126519466Y-87209615D01*
X126532093Y-87219902D01*
X126540984Y-87227150D01*
X126553751Y-87237540D01*
X126575298Y-87255053D01*
X126604701Y-87278939D01*
X126641035Y-87308448D01*
X126683378Y-87342828D01*
X126730803Y-87381331D01*
X126782388Y-87423205D01*
X126837208Y-87467699D01*
X126894338Y-87514065D01*
X126928389Y-87541697D01*
X126987839Y-87589943D01*
X127046582Y-87637624D01*
X127103552Y-87683875D01*
X127157685Y-87727830D01*
X127207917Y-87768626D01*
X127253183Y-87805398D01*
X127292418Y-87837281D01*
X127324558Y-87863411D01*
X127348538Y-87882922D01*
X127356409Y-87889333D01*
X127379607Y-87908223D01*
X127411800Y-87934410D01*
X127452278Y-87967319D01*
X127500331Y-88006372D01*
X127555250Y-88050993D01*
X127616324Y-88100606D01*
X127682843Y-88154634D01*
X127754099Y-88212501D01*
X127829380Y-88273631D01*
X127907979Y-88337446D01*
X127989183Y-88403371D01*
X128072285Y-88470830D01*
X128156574Y-88539245D01*
X128241339Y-88608041D01*
X128312424Y-88665727D01*
X128361856Y-88706013D01*
X128409622Y-88745273D01*
X128454577Y-88782542D01*
X128495580Y-88816857D01*
X128531484Y-88847257D01*
X128561146Y-88872777D01*
X128583423Y-88892455D01*
X128597170Y-88905328D01*
X128597703Y-88905867D01*
X128664128Y-88982187D01*
X128720541Y-89064978D01*
X128766678Y-89153138D01*
X128802275Y-89245569D01*
X128827069Y-89341173D01*
X128840796Y-89438848D01*
X128843192Y-89537497D01*
X128833992Y-89636019D01*
X128812933Y-89733316D01*
X128803675Y-89763924D01*
X128795990Y-89788063D01*
X128788924Y-89810963D01*
X128785275Y-89823285D01*
X128781136Y-89837272D01*
X128774178Y-89860269D01*
X128765291Y-89889350D01*
X128755365Y-89921592D01*
X128752917Y-89929508D01*
X128742646Y-89962804D01*
X128732973Y-89994353D01*
X128724870Y-90020974D01*
X128719308Y-90039489D01*
X128718574Y-90041981D01*
X128713647Y-90058453D01*
X128705979Y-90083680D01*
X128696541Y-90114481D01*
X128686305Y-90147677D01*
X128684207Y-90154453D01*
X128673924Y-90187748D01*
X128664235Y-90219296D01*
X128656113Y-90245917D01*
X128650530Y-90264433D01*
X128649792Y-90266925D01*
X128644436Y-90284882D01*
X128635750Y-90313716D01*
X128624059Y-90352357D01*
X128609690Y-90399733D01*
X128592967Y-90454771D01*
X128574216Y-90516399D01*
X128553763Y-90583546D01*
X128531933Y-90655140D01*
X128531226Y-90657454D01*
X128507214Y-90736172D01*
X128486590Y-90803798D01*
X128469095Y-90861192D01*
X128454466Y-90909213D01*
X128442442Y-90948722D01*
X128432762Y-90980577D01*
X128425164Y-91005640D01*
X128419386Y-91024769D01*
X128415168Y-91038824D01*
X128412448Y-91047983D01*
X128407503Y-91064456D01*
X128399819Y-91089683D01*
X128390370Y-91120485D01*
X128380129Y-91153682D01*
X128378032Y-91160456D01*
X128367753Y-91193750D01*
X128358073Y-91225297D01*
X128349966Y-91251918D01*
X128344401Y-91270434D01*
X128343666Y-91272928D01*
X128338740Y-91289401D01*
X128331076Y-91314629D01*
X128321645Y-91345432D01*
X128311416Y-91378629D01*
X128309322Y-91385400D01*
X128299279Y-91417966D01*
X128290059Y-91448077D01*
X128282554Y-91472807D01*
X128277653Y-91489234D01*
X128276961Y-91491624D01*
X128271927Y-91508447D01*
X128264535Y-91532237D01*
X128256313Y-91558084D01*
X128255637Y-91560184D01*
X128248547Y-91582419D01*
X128243250Y-91599547D01*
X128240675Y-91608545D01*
X128240566Y-91609159D01*
X128246011Y-91609747D01*
X128259536Y-91608364D01*
X128263998Y-91607691D01*
X128279262Y-91605522D01*
X128303620Y-91602370D01*
X128333749Y-91598655D01*
X128366326Y-91594795D01*
X128367105Y-91594704D01*
X128407975Y-91589921D01*
X128454494Y-91584405D01*
X128499904Y-91578959D01*
X128526440Y-91575739D01*
X128566506Y-91570877D01*
X128611455Y-91565471D01*
X128654892Y-91560290D01*
X128681083Y-91557193D01*
X128716192Y-91552998D01*
X128752245Y-91548578D01*
X128784380Y-91544535D01*
X128802928Y-91542119D01*
X128822892Y-91539486D01*
X128852741Y-91535593D01*
X128889964Y-91530765D01*
X128932049Y-91525327D01*
X128976484Y-91519605D01*
X128996630Y-91517018D01*
X129043366Y-91510998D01*
X129090800Y-91504848D01*
X129135913Y-91498961D01*
X129175689Y-91493733D01*
X129207108Y-91489557D01*
X129215326Y-91488450D01*
X129249494Y-91483832D01*
X129284329Y-91479136D01*
X129314962Y-91475017D01*
X129330923Y-91472879D01*
X129371332Y-91467454D01*
X129419324Y-91460974D01*
X129470099Y-91454088D01*
X129518860Y-91447448D01*
X129560808Y-91441703D01*
X129562116Y-91441524D01*
X129583414Y-91438573D01*
X129613940Y-91434315D01*
X129652080Y-91428976D01*
X129696219Y-91422785D01*
X129744742Y-91415968D01*
X129796034Y-91408753D01*
X129848480Y-91401369D01*
X129900467Y-91394041D01*
X129950378Y-91386999D01*
X129996599Y-91380469D01*
X130037516Y-91374678D01*
X130071513Y-91369855D01*
X130096975Y-91366228D01*
X130112289Y-91364022D01*
X130115105Y-91363605D01*
X130128420Y-91361617D01*
X130151572Y-91358190D01*
X130182033Y-91353698D01*
X130217272Y-91348513D01*
X130246323Y-91344246D01*
X130286999Y-91338272D01*
X130328177Y-91332217D01*
X130366281Y-91326605D01*
X130397737Y-91321965D01*
X130411907Y-91319869D01*
X130437671Y-91316063D01*
X130472226Y-91310975D01*
X130511994Y-91305130D01*
X130553401Y-91299054D01*
X130577491Y-91295524D01*
X130618854Y-91289438D01*
X130661370Y-91283133D01*
X130701249Y-91277174D01*
X130734696Y-91272128D01*
X130749324Y-91269893D01*
X130785862Y-91264319D01*
X130827172Y-91258094D01*
X130865679Y-91252357D01*
X130874293Y-91251086D01*
X130908407Y-91246056D01*
X130951887Y-91239623D01*
X131001739Y-91232233D01*
X131054969Y-91224329D01*
X131108583Y-91216358D01*
X131159587Y-91208762D01*
X131204988Y-91201987D01*
X131208586Y-91201449D01*
X131242584Y-91196373D01*
X131282169Y-91190472D01*
X131320567Y-91184755D01*
X131333555Y-91182824D01*
X131366339Y-91177917D01*
X131399677Y-91172872D01*
X131428432Y-91168468D01*
X131439779Y-91166704D01*
X131470852Y-91161894D01*
X131511385Y-91155724D01*
X131561896Y-91148117D01*
X131622902Y-91138995D01*
X131694920Y-91128282D01*
X131778466Y-91115900D01*
X131836556Y-91107310D01*
X131877626Y-91101231D01*
X131919086Y-91095077D01*
X131957464Y-91089364D01*
X131989287Y-91084608D01*
X132005265Y-91082208D01*
X132093261Y-91069025D01*
X132192408Y-91054338D01*
X132301472Y-91038328D01*
X132419220Y-91021172D01*
X132544421Y-91003052D01*
X132675841Y-90984146D01*
X132812247Y-90964635D01*
X132817565Y-90963876D01*
X132850581Y-90959215D01*
X132894032Y-90953155D01*
X132945964Y-90945962D01*
X133004428Y-90937905D01*
X133067472Y-90929249D01*
X133133143Y-90920262D01*
X133199492Y-90911212D01*
X133264565Y-90902365D01*
X133326413Y-90893989D01*
X133383084Y-90886352D01*
X133414293Y-90882167D01*
X133448466Y-90877595D01*
X133483304Y-90872934D01*
X133513939Y-90868834D01*
X133529890Y-90866698D01*
X133554451Y-90863435D01*
X133586756Y-90859178D01*
X133622153Y-90854540D01*
X133648611Y-90851090D01*
X133683218Y-90846570D01*
X133718317Y-90841955D01*
X133749257Y-90837856D01*
X133767331Y-90835436D01*
X133785928Y-90833012D01*
X133814600Y-90829386D01*
X133851013Y-90824846D01*
X133892835Y-90819682D01*
X133937733Y-90814185D01*
X133967282Y-90810592D01*
X134040631Y-90801698D01*
X134102794Y-90794160D01*
X134154990Y-90787828D01*
X134198440Y-90782555D01*
X134234363Y-90778193D01*
X134263979Y-90774594D01*
X134288508Y-90771610D01*
X134309170Y-90769091D01*
X134326569Y-90766967D01*
X134357154Y-90763407D01*
X134389868Y-90759873D01*
X134414047Y-90757473D01*
X134443163Y-90754488D01*
X134476155Y-90750694D01*
X134498401Y-90747888D01*
X134520895Y-90745069D01*
X134552115Y-90741391D01*
X134588359Y-90737281D01*
X134625922Y-90733162D01*
X134635868Y-90732097D01*
X134672553Y-90728113D01*
X134708348Y-90724080D01*
X134739757Y-90720403D01*
X134763281Y-90717485D01*
X134768279Y-90716817D01*
X134816516Y-90716098D01*
X134868444Y-90725950D01*
X134922821Y-90745467D01*
X134978403Y-90773738D01*
X135033947Y-90809855D01*
X135088210Y-90852908D01*
X135139950Y-90901989D01*
X135187924Y-90956188D01*
X135230888Y-91014597D01*
X135267600Y-91076306D01*
X135272331Y-91085474D01*
X135290245Y-91122700D01*
X135303284Y-91155232D01*
X135312044Y-91186206D01*
X135317120Y-91218759D01*
X135319106Y-91256028D01*
X135318600Y-91301150D01*
X135317726Y-91324644D01*
X135311780Y-91465495D01*
X135306348Y-91595152D01*
X135301376Y-91714906D01*
X135296811Y-91826048D01*
X135292600Y-91929869D01*
X135288690Y-92027658D01*
X135285926Y-92097725D01*
X135283731Y-92152688D01*
X135281547Y-92205461D01*
X135279451Y-92254321D01*
X135277520Y-92297540D01*
X135275831Y-92333394D01*
X135274461Y-92360156D01*
X135273511Y-92375782D01*
X135272178Y-92397525D01*
X135270652Y-92428360D01*
X135269084Y-92464886D01*
X135267625Y-92503701D01*
X135266993Y-92522620D01*
X135265655Y-92560638D01*
X135264138Y-92597394D01*
X135262588Y-92629701D01*
X135261153Y-92654375D01*
X135260494Y-92663211D01*
X135259344Y-92680020D01*
X135257841Y-92707068D01*
X135256094Y-92742104D01*
X135254212Y-92782877D01*
X135252305Y-92827139D01*
X135251096Y-92856913D01*
X135249237Y-92903497D01*
X135246984Y-92959429D01*
X135244462Y-93021573D01*
X135241802Y-93086791D01*
X135239129Y-93151945D01*
X135236573Y-93213898D01*
X135235829Y-93231821D01*
X135233330Y-93292159D01*
X135230668Y-93356663D01*
X135227973Y-93422195D01*
X135225373Y-93485618D01*
X135222997Y-93543795D01*
X135220974Y-93593588D01*
X135220442Y-93606729D01*
X135218534Y-93652519D01*
X135216583Y-93696724D01*
X135214702Y-93736986D01*
X135213002Y-93770951D01*
X135211597Y-93796263D01*
X135210914Y-93806679D01*
X135209923Y-93821052D01*
X135208948Y-93837425D01*
X135207934Y-93857123D01*
X135206825Y-93881474D01*
X135205566Y-93911803D01*
X135204102Y-93949436D01*
X135202378Y-93995701D01*
X135200338Y-94051921D01*
X135198161Y-94112854D01*
X135196733Y-94149750D01*
X135195093Y-94186941D01*
X135193435Y-94220278D01*
X135191956Y-94245612D01*
X135191849Y-94247196D01*
X135190687Y-94266810D01*
X135189156Y-94296503D01*
X135187372Y-94333864D01*
X135185445Y-94376485D01*
X135183490Y-94421955D01*
X135182324Y-94450271D01*
X135180432Y-94496855D01*
X135178149Y-94552788D01*
X135175605Y-94614932D01*
X135172927Y-94680150D01*
X135170246Y-94745305D01*
X135167688Y-94807258D01*
X135166947Y-94825179D01*
X135164468Y-94885079D01*
X135161835Y-94948757D01*
X135159173Y-95013161D01*
X135156608Y-95075241D01*
X135154267Y-95131947D01*
X135152276Y-95180227D01*
X135151715Y-95193838D01*
X135149782Y-95239321D01*
X135147784Y-95283749D01*
X135145845Y-95324572D01*
X135144087Y-95359235D01*
X135142634Y-95385186D01*
X135142082Y-95393789D01*
X135140817Y-95414660D01*
X135139188Y-95445466D01*
X135137316Y-95483655D01*
X135135326Y-95526673D01*
X135133340Y-95571969D01*
X135132426Y-95593740D01*
X135130585Y-95638240D01*
X135128350Y-95692226D01*
X135125845Y-95752697D01*
X135123194Y-95816655D01*
X135120522Y-95881097D01*
X135117953Y-95943024D01*
X135117020Y-95965523D01*
X135114518Y-96025900D01*
X135111864Y-96090136D01*
X135109182Y-96155188D01*
X135106598Y-96218015D01*
X135104237Y-96275573D01*
X135102224Y-96324821D01*
X135101588Y-96340431D01*
X135099671Y-96386794D01*
X135097722Y-96432508D01*
X135095857Y-96474950D01*
X135094193Y-96511496D01*
X135092846Y-96539525D01*
X135092315Y-96549754D01*
X135091417Y-96566742D01*
X135090534Y-96584494D01*
X135089608Y-96604449D01*
X135088579Y-96628043D01*
X135087386Y-96656711D01*
X135085971Y-96691891D01*
X135084275Y-96735018D01*
X135082237Y-96787529D01*
X135079797Y-96850860D01*
X135079363Y-96862178D01*
X135077871Y-96897790D01*
X135076161Y-96933572D01*
X135074450Y-96965204D01*
X135073047Y-96987147D01*
X135071878Y-97005954D01*
X135070342Y-97034854D01*
X135068554Y-97071451D01*
X135066629Y-97113351D01*
X135064681Y-97158159D01*
X135063610Y-97183973D01*
X135061758Y-97229347D01*
X135059517Y-97284165D01*
X135057012Y-97345385D01*
X135054367Y-97409964D01*
X135051707Y-97474861D01*
X135049156Y-97537032D01*
X135048259Y-97558881D01*
X135045776Y-97619475D01*
X135043137Y-97684120D01*
X135040467Y-97749730D01*
X135037891Y-97813221D01*
X135035534Y-97871507D01*
X135033523Y-97921506D01*
X135032906Y-97936913D01*
X135031035Y-97981824D01*
X135029119Y-98024336D01*
X135027269Y-98062293D01*
X135025593Y-98093537D01*
X135024198Y-98115914D01*
X135023466Y-98124948D01*
X135022381Y-98143865D01*
X135023116Y-98157277D01*
X135024374Y-98160877D01*
X135031096Y-98161490D01*
X135049411Y-98162075D01*
X135078415Y-98162625D01*
X135117202Y-98163135D01*
X135164871Y-98163596D01*
X135220515Y-98164003D01*
X135283231Y-98164349D01*
X135352115Y-98164626D01*
X135426262Y-98164828D01*
X135504769Y-98164949D01*
X135574178Y-98164982D01*
X136119877Y-98164982D01*
X136119934Y-98135302D01*
X136119766Y-98122000D01*
X136119264Y-98097920D01*
X136118472Y-98064776D01*
X136117432Y-98024279D01*
X136116188Y-97978144D01*
X136114785Y-97928083D01*
X136113776Y-97893174D01*
X136111984Y-97831109D01*
X136109905Y-97757585D01*
X136107566Y-97673637D01*
X136104995Y-97580297D01*
X136102220Y-97478600D01*
X136099269Y-97369580D01*
X136096170Y-97254271D01*
X136092951Y-97133706D01*
X136089640Y-97008920D01*
X136086265Y-96880947D01*
X136082853Y-96750821D01*
X136082253Y-96727836D01*
X136080578Y-96662679D01*
X136078713Y-96588422D01*
X136076742Y-96508454D01*
X136074745Y-96426171D01*
X136072807Y-96344962D01*
X136071008Y-96268222D01*
X136069655Y-96209213D01*
X136066955Y-96090717D01*
X136064348Y-95977845D01*
X136061853Y-95871312D01*
X136059487Y-95771835D01*
X136057267Y-95680129D01*
X136055212Y-95596911D01*
X136053338Y-95522896D01*
X136051663Y-95458800D01*
X136050205Y-95405339D01*
X136048982Y-95363229D01*
X136048371Y-95343801D01*
X136047447Y-95312691D01*
X136046375Y-95271730D01*
X136045216Y-95223561D01*
X136044030Y-95170828D01*
X136042880Y-95116175D01*
X136041827Y-95062246D01*
X136041717Y-95056372D01*
X136040480Y-94994854D01*
X136038913Y-94925224D01*
X136037125Y-94851858D01*
X136035226Y-94779133D01*
X136033324Y-94711426D01*
X136032038Y-94668967D01*
X136030644Y-94623932D01*
X136029235Y-94576815D01*
X136027791Y-94526803D01*
X136026290Y-94473083D01*
X136024712Y-94414839D01*
X136023036Y-94351259D01*
X136021241Y-94281529D01*
X136019307Y-94204834D01*
X136017212Y-94120362D01*
X136014937Y-94027297D01*
X136012459Y-93924827D01*
X136009759Y-93812136D01*
X136006816Y-93688413D01*
X136004291Y-93581735D01*
X136002434Y-93503112D01*
X136000474Y-93420185D01*
X135998465Y-93335209D01*
X135996461Y-93250443D01*
X135994515Y-93168144D01*
X135992681Y-93090568D01*
X135991011Y-93019973D01*
X135989559Y-92958616D01*
X135989001Y-92935019D01*
X135987553Y-92875632D01*
X135986047Y-92817062D01*
X135984535Y-92761182D01*
X135983072Y-92709866D01*
X135981712Y-92664990D01*
X135980508Y-92628426D01*
X135979515Y-92602049D01*
X135979321Y-92597602D01*
X135978619Y-92580957D01*
X135977864Y-92560620D01*
X135977040Y-92535983D01*
X135976133Y-92506437D01*
X135975127Y-92471376D01*
X135974007Y-92430191D01*
X135972757Y-92382275D01*
X135971363Y-92327020D01*
X135969809Y-92263818D01*
X135968080Y-92192062D01*
X135966161Y-92111143D01*
X135964036Y-92020455D01*
X135961691Y-91919389D01*
X135959109Y-91807338D01*
X135956277Y-91683694D01*
X135954816Y-91619718D01*
X135953375Y-91552443D01*
X135952175Y-91488031D01*
X135951228Y-91427723D01*
X135950545Y-91372761D01*
X135950137Y-91324387D01*
X135950014Y-91283841D01*
X135950189Y-91252367D01*
X135950673Y-91231204D01*
X135951250Y-91222807D01*
X135964338Y-91165126D01*
X135987549Y-91104367D01*
X136019504Y-91042346D01*
X136058829Y-90980880D01*
X136104146Y-90921784D01*
X136154078Y-90866875D01*
X136207250Y-90817970D01*
X136262285Y-90776885D01*
X136310208Y-90749116D01*
X136362737Y-90727414D01*
X136412045Y-90716606D01*
X136460219Y-90716272D01*
X136468341Y-90717213D01*
X136489073Y-90719805D01*
X136520037Y-90723462D01*
X136559037Y-90727938D01*
X136603877Y-90732988D01*
X136652362Y-90738367D01*
X136702295Y-90743830D01*
X136751481Y-90749132D01*
X136797723Y-90754028D01*
X136804084Y-90754693D01*
X136837017Y-90758277D01*
X136872377Y-90762358D01*
X136903264Y-90766137D01*
X136907184Y-90766641D01*
X136932764Y-90769897D01*
X136966110Y-90774051D01*
X137002580Y-90778529D01*
X137032153Y-90782110D01*
X137125092Y-90793294D01*
X137208176Y-90803321D01*
X137281005Y-90812143D01*
X137343181Y-90819711D01*
X137394304Y-90825977D01*
X137433976Y-90830892D01*
X137461796Y-90834406D01*
X137469545Y-90835413D01*
X137546613Y-90845567D01*
X137625323Y-90855951D01*
X137699833Y-90865795D01*
X137727304Y-90869429D01*
X137766665Y-90874628D01*
X137811389Y-90880522D01*
X137854454Y-90886185D01*
X137874143Y-90888769D01*
X137908064Y-90893266D01*
X137942105Y-90897861D01*
X137971708Y-90901936D01*
X137988168Y-90904266D01*
X138006601Y-90906886D01*
X138034892Y-90910851D01*
X138070519Y-90915809D01*
X138110959Y-90921410D01*
X138153689Y-90927303D01*
X138166249Y-90929030D01*
X138209208Y-90934973D01*
X138261386Y-90942254D01*
X138319630Y-90950430D01*
X138380790Y-90959057D01*
X138441715Y-90967692D01*
X138499253Y-90975892D01*
X138503666Y-90976523D01*
X138575460Y-90986791D01*
X138636083Y-90995460D01*
X138686732Y-91002698D01*
X138728607Y-91008677D01*
X138762907Y-91013568D01*
X138790831Y-91017541D01*
X138813577Y-91020767D01*
X138832345Y-91023416D01*
X138848333Y-91025660D01*
X138862740Y-91027668D01*
X138872325Y-91028997D01*
X138898794Y-91032769D01*
X138931917Y-91037643D01*
X138966006Y-91042777D01*
X138978549Y-91044701D01*
X139004848Y-91048699D01*
X139040300Y-91053999D01*
X139081692Y-91060124D01*
X139125807Y-91066599D01*
X139169127Y-91072904D01*
X139212765Y-91079254D01*
X139256872Y-91085722D01*
X139298232Y-91091835D01*
X139333631Y-91097116D01*
X139359705Y-91101068D01*
X139399839Y-91107200D01*
X139450041Y-91114808D01*
X139508019Y-91123547D01*
X139571477Y-91133071D01*
X139638121Y-91143037D01*
X139705658Y-91153099D01*
X139737737Y-91157864D01*
X139777978Y-91163842D01*
X139819310Y-91169992D01*
X139857813Y-91175730D01*
X139889565Y-91180471D01*
X139900197Y-91182063D01*
X139934200Y-91187142D01*
X139973791Y-91193027D01*
X140012193Y-91198711D01*
X140025166Y-91200625D01*
X140061927Y-91206093D01*
X140103053Y-91212295D01*
X140141455Y-91218160D01*
X140153260Y-91219984D01*
X140178222Y-91223830D01*
X140207844Y-91228340D01*
X140243255Y-91233683D01*
X140285585Y-91240028D01*
X140335963Y-91247544D01*
X140395519Y-91256400D01*
X140465381Y-91266764D01*
X140531292Y-91276529D01*
X140571534Y-91282490D01*
X140612866Y-91288617D01*
X140651369Y-91294328D01*
X140683121Y-91299042D01*
X140693752Y-91300623D01*
X140715466Y-91303832D01*
X140747673Y-91308566D01*
X140788500Y-91314551D01*
X140836072Y-91321513D01*
X140888517Y-91329179D01*
X140943960Y-91337274D01*
X141000529Y-91345525D01*
X141056349Y-91353659D01*
X141109546Y-91361402D01*
X141158248Y-91368480D01*
X141171759Y-91370441D01*
X141199562Y-91374451D01*
X141236057Y-91379681D01*
X141277561Y-91385603D01*
X141320391Y-91391694D01*
X141346716Y-91395425D01*
X141388467Y-91401336D01*
X141431241Y-91407396D01*
X141471356Y-91413084D01*
X141505129Y-91417877D01*
X141521673Y-91420227D01*
X141555753Y-91424978D01*
X141592236Y-91429914D01*
X141624835Y-91434187D01*
X141634146Y-91435367D01*
X141664352Y-91439327D01*
X141695684Y-91443721D01*
X141721410Y-91447603D01*
X141721624Y-91447638D01*
X141743016Y-91450848D01*
X141772712Y-91455009D01*
X141806609Y-91459558D01*
X141837221Y-91463506D01*
X141871395Y-91467898D01*
X141905047Y-91472365D01*
X141934076Y-91476353D01*
X141952817Y-91479071D01*
X141974206Y-91482167D01*
X142003897Y-91486246D01*
X142037789Y-91490756D01*
X142068414Y-91494713D01*
X142158191Y-91506158D01*
X142237220Y-91516303D01*
X142307156Y-91525362D01*
X142362091Y-91532551D01*
X142412766Y-91539210D01*
X142453682Y-91544556D01*
X142487467Y-91548920D01*
X142516751Y-91552630D01*
X142544162Y-91556018D01*
X142572330Y-91559412D01*
X142603883Y-91563143D01*
X142633900Y-91566658D01*
X142673576Y-91571336D01*
X142713210Y-91576082D01*
X142749313Y-91580475D01*
X142778400Y-91584090D01*
X142790111Y-91585590D01*
X142834693Y-91591269D01*
X142876904Y-91596395D01*
X142915014Y-91600781D01*
X142947296Y-91604240D01*
X142972020Y-91606585D01*
X142987459Y-91607629D01*
X142991958Y-91607407D01*
X142991113Y-91600947D01*
X142987176Y-91585100D01*
X142980818Y-91562394D01*
X142974329Y-91540640D01*
X142965165Y-91510551D01*
X142956439Y-91481712D01*
X142949380Y-91458184D01*
X142946330Y-91447885D01*
X142944040Y-91440126D01*
X142941098Y-91430283D01*
X142937209Y-91417384D01*
X142932075Y-91400456D01*
X142925400Y-91378527D01*
X142916886Y-91350624D01*
X142906237Y-91315776D01*
X142893157Y-91273008D01*
X142877348Y-91221350D01*
X142858514Y-91159828D01*
X142836358Y-91087471D01*
X142832876Y-91076101D01*
X142821635Y-91039316D01*
X142811342Y-91005496D01*
X142802686Y-90976915D01*
X142796358Y-90955848D01*
X142793134Y-90944884D01*
X142789378Y-90932117D01*
X142782786Y-90910213D01*
X142774207Y-90881978D01*
X142764489Y-90850214D01*
X142761900Y-90841784D01*
X142751686Y-90808477D01*
X142742055Y-90776920D01*
X142733974Y-90750295D01*
X142728413Y-90731785D01*
X142727680Y-90729312D01*
X142723202Y-90714352D01*
X142715810Y-90689929D01*
X142706260Y-90658525D01*
X142695307Y-90622623D01*
X142684457Y-90587159D01*
X142670023Y-90540045D01*
X142653563Y-90486320D01*
X142636714Y-90431323D01*
X142621110Y-90380391D01*
X142614584Y-90359090D01*
X142603005Y-90321229D01*
X142592127Y-90285542D01*
X142582705Y-90254513D01*
X142575494Y-90230624D01*
X142571415Y-90216938D01*
X142566530Y-90200561D01*
X142558540Y-90174136D01*
X142548024Y-90139556D01*
X142535560Y-90098715D01*
X142521729Y-90053506D01*
X142507109Y-90005822D01*
X142492279Y-89957558D01*
X142477818Y-89910605D01*
X142467257Y-89876397D01*
X142457514Y-89844726D01*
X142448713Y-89815832D01*
X142441726Y-89792597D01*
X142437426Y-89777905D01*
X142437013Y-89776421D01*
X142432678Y-89760872D01*
X142426280Y-89738258D01*
X142419338Y-89713936D01*
X142401953Y-89633198D01*
X142393904Y-89546758D01*
X142395049Y-89457056D01*
X142405240Y-89366530D01*
X142424335Y-89277619D01*
X142449986Y-89198438D01*
X142479169Y-89133150D01*
X142516782Y-89065859D01*
X142560376Y-89000284D01*
X142607504Y-88940141D01*
X142650330Y-88894295D01*
X142664157Y-88881674D01*
X142686389Y-88862350D01*
X142715691Y-88837442D01*
X142750724Y-88808070D01*
X142790151Y-88775357D01*
X142832634Y-88740421D01*
X142876835Y-88704383D01*
X142883838Y-88698703D01*
X142930699Y-88660710D01*
X142978284Y-88622113D01*
X143024845Y-88584334D01*
X143068629Y-88548792D01*
X143107887Y-88516910D01*
X143140868Y-88490107D01*
X143165019Y-88470459D01*
X143186360Y-88453091D01*
X143216270Y-88428768D01*
X143253613Y-88398410D01*
X143297257Y-88362938D01*
X143346067Y-88323273D01*
X143398909Y-88280336D01*
X143454649Y-88235050D01*
X143512154Y-88188333D01*
X143570290Y-88141109D01*
X143627922Y-88094297D01*
X143683917Y-88048820D01*
X143737141Y-88005597D01*
X143786460Y-87965551D01*
X143830740Y-87929601D01*
X143868848Y-87898670D01*
X143899649Y-87873679D01*
X143911710Y-87863897D01*
X143959433Y-87825198D01*
X144000453Y-87791931D01*
X144036899Y-87762366D01*
X144070902Y-87734774D01*
X144104594Y-87707425D01*
X144140105Y-87678591D01*
X144179566Y-87646540D01*
X144225107Y-87609545D01*
X144261624Y-87579878D01*
X144337858Y-87517943D01*
X144405011Y-87463386D01*
X144463704Y-87415704D01*
X144514555Y-87374395D01*
X144558183Y-87338955D01*
X144595207Y-87308882D01*
X144626247Y-87283673D01*
X144651922Y-87262826D01*
X144672850Y-87245837D01*
X144689650Y-87232205D01*
X144702943Y-87221426D01*
X144713346Y-87212998D01*
X144721479Y-87206417D01*
X144727961Y-87201182D01*
X144730010Y-87199529D01*
X144739260Y-87192040D01*
X144757395Y-87177329D01*
X144783601Y-87156056D01*
X144817066Y-87128881D01*
X144856977Y-87096464D01*
X144902521Y-87059467D01*
X144952886Y-87018548D01*
X145007257Y-86974369D01*
X145064824Y-86927589D01*
X145124772Y-86878870D01*
X145133036Y-86872153D01*
X145197015Y-86820157D01*
X145261533Y-86767730D01*
X145325424Y-86715818D01*
X145387520Y-86665369D01*
X145446656Y-86617331D01*
X145501664Y-86572651D01*
X145551380Y-86532277D01*
X145594635Y-86497156D01*
X145630265Y-86468235D01*
X145651907Y-86450676D01*
X145693545Y-86416884D01*
X145736705Y-86381822D01*
X145779100Y-86347352D01*
X145818443Y-86315334D01*
X145852447Y-86287627D01*
X145876852Y-86267706D01*
X145894552Y-86253265D01*
X145921032Y-86231698D01*
X145955371Y-86203754D01*
X145996645Y-86170185D01*
X146043932Y-86131740D01*
X146096310Y-86089168D01*
X146152856Y-86043219D01*
X146212648Y-85994644D01*
X146274763Y-85944191D01*
X146338278Y-85892612D01*
X146357983Y-85876613D01*
X146421453Y-85825079D01*
X146483595Y-85774624D01*
X146543514Y-85725973D01*
X146600313Y-85679857D01*
X146653093Y-85637003D01*
X146700959Y-85598139D01*
X146743013Y-85563994D01*
X146778358Y-85535296D01*
X146806098Y-85512773D01*
X146825335Y-85497154D01*
X146829742Y-85493576D01*
X146855788Y-85472435D01*
X146889050Y-85445447D01*
X146927035Y-85414633D01*
X146967252Y-85382015D01*
X147007208Y-85349615D01*
X147025837Y-85334511D01*
X147066102Y-85301850D01*
X147113019Y-85263764D01*
X147163550Y-85222720D01*
X147214659Y-85181186D01*
X147263309Y-85141630D01*
X147294521Y-85116236D01*
X147336662Y-85081941D01*
X147380727Y-85046081D01*
X147424345Y-85010585D01*
X147465147Y-84977382D01*
X147500762Y-84948400D01*
X147526446Y-84927500D01*
X147544986Y-84912421D01*
X147572306Y-84890213D01*
X147607483Y-84861625D01*
X147649597Y-84827406D01*
X147697724Y-84788304D01*
X147750943Y-84745068D01*
X147808334Y-84698447D01*
X147868972Y-84649191D01*
X147931938Y-84598047D01*
X147996310Y-84545765D01*
X148023962Y-84523307D01*
X148098886Y-84462456D01*
X148180394Y-84396253D01*
X148266578Y-84326249D01*
X148355527Y-84253996D01*
X148445333Y-84181044D01*
X148534086Y-84108944D01*
X148619877Y-84039248D01*
X148700797Y-83973505D01*
X148774936Y-83913268D01*
X148810809Y-83884121D01*
X148871699Y-83834652D01*
X148930724Y-83786712D01*
X148987025Y-83740999D01*
X149039739Y-83698210D01*
X149088008Y-83659044D01*
X149130971Y-83624199D01*
X149167767Y-83594372D01*
X149197536Y-83570262D01*
X149219418Y-83552566D01*
X149232552Y-83541983D01*
X149233379Y-83541321D01*
X149253256Y-83524948D01*
X149268773Y-83511283D01*
X149277763Y-83502281D01*
X149279139Y-83500050D01*
X149273844Y-83495599D01*
X149259605Y-83487415D01*
X149238888Y-83476854D01*
X149224465Y-83469983D01*
X149119571Y-83420959D01*
X149010634Y-83369576D01*
X148982337Y-83356153D01*
X148915604Y-83324512D01*
X148856981Y-83296829D01*
X148807532Y-83273604D01*
X148769890Y-83256066D01*
X148748647Y-83246166D01*
X148720178Y-83232813D01*
X148688545Y-83217918D01*
X148663666Y-83206163D01*
X148632428Y-83191406D01*
X148601101Y-83176661D01*
X148573747Y-83163836D01*
X148557442Y-83156236D01*
X148537483Y-83146913D01*
X148509697Y-83133844D01*
X148477541Y-83118660D01*
X148444470Y-83102990D01*
X148439537Y-83100648D01*
X148410711Y-83087006D01*
X148386222Y-83075518D01*
X148368127Y-83067138D01*
X148358480Y-83062823D01*
X148357458Y-83062448D01*
X148351541Y-83059907D01*
X148336365Y-83052911D01*
X148313943Y-83042401D01*
X148286286Y-83029316D01*
X148272287Y-83022657D01*
X148239320Y-83006983D01*
X148207200Y-82991776D01*
X148179123Y-82978544D01*
X148158285Y-82968797D01*
X148154416Y-82967005D01*
X148135229Y-82958086D01*
X148108303Y-82945484D01*
X148077193Y-82930867D01*
X148045452Y-82915902D01*
X148045068Y-82915720D01*
X148009451Y-82898913D01*
X147982052Y-82886084D01*
X147959793Y-82875860D01*
X147939598Y-82866872D01*
X147918388Y-82857747D01*
X147893087Y-82847115D01*
X147862846Y-82834531D01*
X147780380Y-82796286D01*
X147709733Y-82754767D01*
X147650544Y-82709488D01*
X147602452Y-82659964D01*
X147565094Y-82605707D01*
X147538108Y-82546233D01*
X147521132Y-82481053D01*
X147513804Y-82409684D01*
X147513815Y-82365745D01*
X147515710Y-82325404D01*
X147518810Y-82287563D01*
X147523536Y-82249149D01*
X147530315Y-82207090D01*
X147539570Y-82158315D01*
X147548322Y-82115806D01*
X147553103Y-82093230D01*
X147557536Y-82072734D01*
X147561954Y-82053031D01*
X147566687Y-82032834D01*
X147572068Y-82010856D01*
X147578428Y-81985810D01*
X147586099Y-81956410D01*
X147595412Y-81921369D01*
X147606698Y-81879400D01*
X147620290Y-81829215D01*
X147636518Y-81769529D01*
X147655380Y-81700283D01*
X147665798Y-81662101D01*
X147678915Y-81614108D01*
X147694562Y-81556916D01*
X147712573Y-81491133D01*
X147732780Y-81417371D01*
X147755015Y-81336239D01*
X147779111Y-81248348D01*
X147804900Y-81154307D01*
X147832214Y-81054727D01*
X147860887Y-80950217D01*
X147890750Y-80841389D01*
X147921635Y-80728851D01*
X147953376Y-80613214D01*
X147985804Y-80495088D01*
X148018753Y-80375084D01*
X148052053Y-80253811D01*
X148085539Y-80131879D01*
X148119042Y-80009899D01*
X148152394Y-79888480D01*
X148185429Y-79768233D01*
X148217978Y-79649768D01*
X148249874Y-79533694D01*
X148280949Y-79420623D01*
X148311036Y-79311164D01*
X148339968Y-79205926D01*
X148367575Y-79105522D01*
X148393692Y-79010559D01*
X148418150Y-78921649D01*
X148440782Y-78839401D01*
X148461420Y-78764427D01*
X148479897Y-78697334D01*
X148496045Y-78638735D01*
X148509696Y-78589239D01*
X148520683Y-78549456D01*
X148528839Y-78519995D01*
X148533995Y-78501468D01*
X148535880Y-78494822D01*
X148542122Y-78473380D01*
X148550673Y-78443219D01*
X148561164Y-78405695D01*
X148573230Y-78362161D01*
X148586502Y-78313973D01*
X148600613Y-78262485D01*
X148615196Y-78209051D01*
X148629883Y-78155027D01*
X148644308Y-78101767D01*
X148658102Y-78050625D01*
X148670898Y-78002956D01*
X148682330Y-77960116D01*
X148692029Y-77923458D01*
X148699628Y-77894337D01*
X148704760Y-77874107D01*
X148707058Y-77864125D01*
X148707132Y-77863310D01*
X148700482Y-77862941D01*
X148684504Y-77864927D01*
X148662059Y-77868870D01*
X148649946Y-77871315D01*
X148617422Y-77878136D01*
X148582325Y-77885492D01*
X148551579Y-77891929D01*
X148548069Y-77892664D01*
X148518445Y-77898884D01*
X148487367Y-77905447D01*
X148463715Y-77910473D01*
X148442502Y-77914969D01*
X148413071Y-77921163D01*
X148379440Y-77928210D01*
X148348118Y-77934748D01*
X148310870Y-77942527D01*
X148266842Y-77951752D01*
X148221479Y-77961281D01*
X148180227Y-77969971D01*
X148179410Y-77970143D01*
X148144711Y-77977457D01*
X148111956Y-77984343D01*
X148084245Y-77990150D01*
X148064681Y-77994228D01*
X148060689Y-77995052D01*
X148043906Y-77998548D01*
X148017797Y-78004035D01*
X147985258Y-78010901D01*
X147949185Y-78018533D01*
X147912475Y-78026316D01*
X147878023Y-78033637D01*
X147848727Y-78039883D01*
X147827481Y-78044441D01*
X147826372Y-78044681D01*
X147807500Y-78048692D01*
X147781872Y-78054052D01*
X147754978Y-78059613D01*
X147754515Y-78059708D01*
X147729838Y-78064816D01*
X147695024Y-78072077D01*
X147652158Y-78081054D01*
X147603326Y-78091308D01*
X147550617Y-78102400D01*
X147496116Y-78113891D01*
X147441909Y-78125342D01*
X147390085Y-78136315D01*
X147376483Y-78139200D01*
X147342286Y-78146443D01*
X147309978Y-78153263D01*
X147282752Y-78158988D01*
X147263802Y-78162944D01*
X147260886Y-78163546D01*
X147244542Y-78166947D01*
X147219075Y-78172293D01*
X147187583Y-78178931D01*
X147153167Y-78186209D01*
X147142165Y-78188540D01*
X147107470Y-78195884D01*
X147074717Y-78202795D01*
X147047008Y-78208620D01*
X147027442Y-78212707D01*
X147023444Y-78213534D01*
X147007100Y-78216933D01*
X146981631Y-78222275D01*
X146950138Y-78228905D01*
X146915721Y-78236174D01*
X146904724Y-78238501D01*
X146868195Y-78246205D01*
X146831835Y-78253822D01*
X146799379Y-78260572D01*
X146774563Y-78265678D01*
X146770382Y-78266526D01*
X146740109Y-78272733D01*
X146701251Y-78280827D01*
X146657437Y-78290040D01*
X146612293Y-78299608D01*
X146569447Y-78308765D01*
X146532940Y-78316655D01*
X146508552Y-78321884D01*
X146476485Y-78328644D01*
X146441308Y-78335976D01*
X146414219Y-78341563D01*
X146379823Y-78348675D01*
X146344914Y-78355987D01*
X146314060Y-78362539D01*
X146295499Y-78366557D01*
X146271110Y-78371822D01*
X146239042Y-78378611D01*
X146203865Y-78385963D01*
X146176778Y-78391557D01*
X146142385Y-78398646D01*
X146107479Y-78405894D01*
X146076626Y-78412352D01*
X146058057Y-78416282D01*
X145984176Y-78432009D01*
X145913914Y-78446868D01*
X145849562Y-78460380D01*
X145793412Y-78472061D01*
X145758131Y-78479316D01*
X145718698Y-78487438D01*
X145673855Y-78496777D01*
X145630406Y-78505913D01*
X145608168Y-78510635D01*
X145578015Y-78517045D01*
X145539035Y-78525293D01*
X145494635Y-78534661D01*
X145448219Y-78544430D01*
X145403193Y-78553881D01*
X145401968Y-78554138D01*
X145352171Y-78564581D01*
X145296310Y-78576309D01*
X145239205Y-78588307D01*
X145185680Y-78599563D01*
X145148906Y-78607304D01*
X145105190Y-78616507D01*
X145059761Y-78626061D01*
X145016260Y-78635200D01*
X144978330Y-78643160D01*
X144953746Y-78648311D01*
X144873524Y-78662084D01*
X144800275Y-78667947D01*
X144731247Y-78665840D01*
X144663688Y-78655704D01*
X144605396Y-78640741D01*
X144528303Y-78611372D01*
X144456772Y-78571920D01*
X144391919Y-78523414D01*
X144334859Y-78466882D01*
X144286706Y-78403353D01*
X144248576Y-78333855D01*
X144233911Y-78297996D01*
X144231086Y-78289008D01*
X144225402Y-78269968D01*
X144217427Y-78242840D01*
X144207727Y-78209591D01*
X144196871Y-78172186D01*
X144185426Y-78132590D01*
X144173958Y-78092770D01*
X144163035Y-78054689D01*
X144153225Y-78020315D01*
X144145095Y-77991612D01*
X144139212Y-77970546D01*
X144136521Y-77960579D01*
X144133740Y-77950455D01*
X144127924Y-77929770D01*
X144119486Y-77899977D01*
X144108839Y-77862527D01*
X144096397Y-77818872D01*
X144082571Y-77770463D01*
X144067774Y-77718753D01*
X144066346Y-77713764D01*
X144051560Y-77662132D01*
X144037767Y-77613938D01*
X144025368Y-77570584D01*
X144014764Y-77533473D01*
X144006354Y-77504006D01*
X144000540Y-77483586D01*
X143997722Y-77473614D01*
X143997608Y-77473198D01*
X143993479Y-77458406D01*
X143986399Y-77433425D01*
X143976891Y-77400074D01*
X143965476Y-77360168D01*
X143952678Y-77315526D01*
X143939018Y-77267964D01*
X143925020Y-77219299D01*
X143911205Y-77171347D01*
X143898096Y-77125927D01*
X143886215Y-77084853D01*
X143876085Y-77049945D01*
X143868228Y-77023017D01*
X143865558Y-77013936D01*
X143857425Y-76985972D01*
X143847362Y-76950768D01*
X143836740Y-76913139D01*
X143828257Y-76882719D01*
X143815477Y-76836902D01*
X143800847Y-76785021D01*
X143785534Y-76731165D01*
X143770699Y-76679420D01*
X143757509Y-76633874D01*
X143752616Y-76617159D01*
X143746390Y-76595290D01*
X143741099Y-76575542D01*
X143739401Y-76568675D01*
X143738051Y-76561706D01*
X143736956Y-76555782D01*
X143735443Y-76551546D01*
X143732839Y-76549639D01*
X143728472Y-76550705D01*
X143721667Y-76555386D01*
X143711753Y-76564325D01*
X143698055Y-76578163D01*
X143679902Y-76597544D01*
X143656619Y-76623109D01*
X143627535Y-76655501D01*
X143591976Y-76695363D01*
X143549269Y-76743337D01*
X143508610Y-76788992D01*
X143476218Y-76825332D01*
X143446340Y-76858832D01*
X143420032Y-76888308D01*
X143398353Y-76912576D01*
X143382359Y-76930453D01*
X143373108Y-76940754D01*
X143371366Y-76942668D01*
X143365210Y-76949446D01*
X143352268Y-76963829D01*
X143334079Y-76984103D01*
X143312181Y-77008553D01*
X143295659Y-77027022D01*
X143268230Y-77057700D01*
X143235411Y-77094406D01*
X143200143Y-77133852D01*
X143165366Y-77172750D01*
X143139448Y-77201739D01*
X143110834Y-77233765D01*
X143076191Y-77272570D01*
X143037798Y-77315602D01*
X142997934Y-77360304D01*
X142958878Y-77404123D01*
X142930702Y-77435752D01*
X142893788Y-77477178D01*
X142854264Y-77521493D01*
X142814418Y-77566135D01*
X142776539Y-77608539D01*
X142742917Y-77646143D01*
X142721378Y-77670202D01*
X142655034Y-77744261D01*
X142595507Y-77810739D01*
X142541264Y-77871351D01*
X142490771Y-77927813D01*
X142442495Y-77981839D01*
X142394902Y-78035146D01*
X142346460Y-78089450D01*
X142295634Y-78146465D01*
X142274613Y-78170055D01*
X142235111Y-78214366D01*
X142194864Y-78259468D01*
X142155429Y-78303620D01*
X142118365Y-78345078D01*
X142085231Y-78382098D01*
X142057585Y-78412936D01*
X142040296Y-78432175D01*
X142013658Y-78461833D01*
X141987700Y-78490857D01*
X141964499Y-78516915D01*
X141946132Y-78537677D01*
X141937196Y-78547887D01*
X141926896Y-78559619D01*
X141909244Y-78579557D01*
X141885226Y-78606598D01*
X141855828Y-78639640D01*
X141822034Y-78677578D01*
X141784829Y-78719310D01*
X141745199Y-78763732D01*
X141704129Y-78809740D01*
X141662603Y-78856231D01*
X141621608Y-78902103D01*
X141582127Y-78946250D01*
X141545148Y-78987571D01*
X141511653Y-79024962D01*
X141482629Y-79057319D01*
X141459061Y-79083539D01*
X141446338Y-79097650D01*
X141427397Y-79118690D01*
X141401811Y-79147226D01*
X141371229Y-79181410D01*
X141337304Y-79219394D01*
X141301688Y-79259330D01*
X141266032Y-79299369D01*
X141259135Y-79307122D01*
X141224234Y-79346329D01*
X141189556Y-79385231D01*
X141156642Y-79422105D01*
X141127030Y-79455228D01*
X141102259Y-79482878D01*
X141083868Y-79503332D01*
X141080489Y-79507073D01*
X141065326Y-79523923D01*
X141043131Y-79548702D01*
X141015169Y-79579993D01*
X140982704Y-79616380D01*
X140947001Y-79656443D01*
X140909323Y-79698768D01*
X140870935Y-79741936D01*
X140868644Y-79744515D01*
X140816626Y-79803033D01*
X140772142Y-79853015D01*
X140734434Y-79895269D01*
X140702740Y-79930607D01*
X140676300Y-79959838D01*
X140654356Y-79983772D01*
X140636146Y-80003220D01*
X140620911Y-80018992D01*
X140607890Y-80031897D01*
X140596325Y-80042746D01*
X140585454Y-80052349D01*
X140574518Y-80061516D01*
X140562756Y-80071057D01*
X140560910Y-80072541D01*
X140487248Y-80126350D01*
X140411078Y-80171799D01*
X140333750Y-80208404D01*
X140256613Y-80235682D01*
X140181019Y-80253150D01*
X140108318Y-80260322D01*
X140044809Y-80257371D01*
X139971741Y-80242511D01*
X139905404Y-80217213D01*
X139845954Y-80181666D01*
X139793550Y-80136062D01*
X139748349Y-80080591D01*
X139710508Y-80015443D01*
X139680186Y-79940809D01*
X139657539Y-79856879D01*
X139643739Y-79772633D01*
X139637884Y-79698904D01*
X139636645Y-79616953D01*
X139639931Y-79530135D01*
X139647649Y-79441806D01*
X139654082Y-79391476D01*
X139657799Y-79367395D01*
X139663090Y-79335514D01*
X139669482Y-79298449D01*
X139676503Y-79258818D01*
X139683680Y-79219238D01*
X139690541Y-79182324D01*
X139696611Y-79150693D01*
X139701420Y-79126962D01*
X139703759Y-79116544D01*
X139706001Y-79105975D01*
X139709988Y-79085797D01*
X139715199Y-79058690D01*
X139721114Y-79027335D01*
X139722540Y-79019693D01*
X139729322Y-78983320D01*
X139736241Y-78946279D01*
X139742496Y-78912858D01*
X139747285Y-78887343D01*
X139747366Y-78886913D01*
X139753468Y-78854430D01*
X139760253Y-78818201D01*
X139765508Y-78790062D01*
X139769452Y-78769050D01*
X139775226Y-78738472D01*
X139782319Y-78701035D01*
X139790216Y-78659448D01*
X139798406Y-78616418D01*
X139800144Y-78607294D01*
X139809750Y-78556866D01*
X139817670Y-78515165D01*
X139824573Y-78478644D01*
X139831125Y-78443756D01*
X139837993Y-78406954D01*
X139845845Y-78364692D01*
X139850101Y-78341735D01*
X139858344Y-78297346D01*
X139865807Y-78257374D01*
X139873121Y-78218462D01*
X139880922Y-78177255D01*
X139889840Y-78130398D01*
X139900197Y-78076175D01*
X139908426Y-78033057D01*
X139916485Y-77990676D01*
X139923856Y-77951775D01*
X139930019Y-77919095D01*
X139934454Y-77895379D01*
X139935108Y-77891845D01*
X139939169Y-77869878D01*
X139943284Y-77847726D01*
X139947831Y-77823372D01*
X139953188Y-77794799D01*
X139959733Y-77759991D01*
X139967844Y-77716931D01*
X139977866Y-77663777D01*
X139987729Y-77611480D01*
X139998089Y-77556532D01*
X140008582Y-77500864D01*
X140018845Y-77446407D01*
X140028515Y-77395092D01*
X140037226Y-77348849D01*
X140044616Y-77309610D01*
X140050321Y-77279304D01*
X140053222Y-77263875D01*
X140057089Y-77243371D01*
X140062786Y-77213265D01*
X140069805Y-77176231D01*
X140077640Y-77134944D01*
X140085785Y-77092076D01*
X140087573Y-77082670D01*
X140095739Y-77039550D01*
X140103707Y-76997168D01*
X140110964Y-76958265D01*
X140117001Y-76925585D01*
X140121305Y-76901870D01*
X140121931Y-76898340D01*
X140125817Y-76876820D01*
X140131548Y-76845770D01*
X140138612Y-76807931D01*
X140146497Y-76766046D01*
X140154689Y-76722857D01*
X140156376Y-76714010D01*
X140164545Y-76671158D01*
X140172515Y-76629294D01*
X140179776Y-76591093D01*
X140185821Y-76559228D01*
X140190142Y-76536373D01*
X140190813Y-76532805D01*
X140195050Y-76510278D01*
X140201240Y-76477401D01*
X140209018Y-76436105D01*
X140218020Y-76388320D01*
X140227884Y-76335979D01*
X140238244Y-76281010D01*
X140248737Y-76225346D01*
X140259000Y-76170916D01*
X140266169Y-76132903D01*
X140276218Y-76079608D01*
X140284324Y-76036575D01*
X140290865Y-76001789D01*
X140296219Y-75973231D01*
X140300764Y-75948887D01*
X140304878Y-75926738D01*
X140308927Y-75904834D01*
X140312940Y-75883314D01*
X140318789Y-75852263D01*
X140325952Y-75814423D01*
X140333912Y-75772536D01*
X140342148Y-75729346D01*
X140343838Y-75720505D01*
X140354453Y-75664927D01*
X140363334Y-75618265D01*
X140371113Y-75577163D01*
X140378423Y-75538267D01*
X140385898Y-75498220D01*
X140393934Y-75454945D01*
X140401090Y-75416371D01*
X140407511Y-75381859D01*
X140413650Y-75349001D01*
X140419959Y-75315387D01*
X140426891Y-75278610D01*
X140434899Y-75236259D01*
X140444437Y-75185927D01*
X140453263Y-75139398D01*
X140462561Y-75090353D01*
X140471531Y-75042944D01*
X140479787Y-74999224D01*
X140486942Y-74961244D01*
X140492609Y-74931058D01*
X140496401Y-74910718D01*
X140496865Y-74908205D01*
X140501845Y-74881358D01*
X140508178Y-74847520D01*
X140514872Y-74811974D01*
X140518540Y-74792608D01*
X140522720Y-74770558D01*
X140526959Y-74748130D01*
X140531535Y-74723825D01*
X140536730Y-74696146D01*
X140542823Y-74663595D01*
X140550095Y-74624675D01*
X140558827Y-74577887D01*
X140569299Y-74521735D01*
X140581122Y-74458315D01*
X140588006Y-74421576D01*
X140594555Y-74386983D01*
X140600232Y-74357343D01*
X140604501Y-74335464D01*
X140606191Y-74327098D01*
X140609716Y-74309361D01*
X140614717Y-74283166D01*
X140620468Y-74252353D01*
X140625092Y-74227122D01*
X140633694Y-74179890D01*
X140640475Y-74143024D01*
X140645804Y-74114588D01*
X140650047Y-74092646D01*
X140653572Y-74075259D01*
X140656516Y-74061538D01*
X140660985Y-74040037D01*
X140664719Y-74020077D01*
X140665102Y-74017799D01*
X140667599Y-74003507D01*
X140672117Y-73978601D01*
X140678349Y-73944745D01*
X140685984Y-73903603D01*
X140694715Y-73856837D01*
X140704232Y-73806112D01*
X140714226Y-73753091D01*
X140715568Y-73745991D01*
X140722964Y-73706782D01*
X140731190Y-73663039D01*
X140739073Y-73620996D01*
X140743740Y-73596028D01*
X140750702Y-73558860D01*
X140758839Y-73515650D01*
X140766976Y-73472630D01*
X140772024Y-73446064D01*
X140779234Y-73408044D01*
X140787630Y-73363485D01*
X140796133Y-73318138D01*
X140803155Y-73280480D01*
X140809912Y-73244289D01*
X140816715Y-73208159D01*
X140822826Y-73175994D01*
X140827506Y-73151696D01*
X140827982Y-73149262D01*
X140833296Y-73121591D01*
X140839577Y-73088052D01*
X140845621Y-73055086D01*
X140846667Y-73049287D01*
X140851978Y-73020159D01*
X140857228Y-72992062D01*
X140861501Y-72969873D01*
X140862490Y-72964933D01*
X140865579Y-72949198D01*
X140870406Y-72923982D01*
X140876439Y-72892092D01*
X140883144Y-72856334D01*
X140887358Y-72833715D01*
X140894219Y-72796974D01*
X140900743Y-72762379D01*
X140906396Y-72732739D01*
X140910644Y-72710861D01*
X140912322Y-72702497D01*
X140916156Y-72683150D01*
X140921254Y-72656375D01*
X140926691Y-72627047D01*
X140928312Y-72618143D01*
X140933497Y-72589776D01*
X140939748Y-72556005D01*
X140946579Y-72519411D01*
X140953503Y-72482573D01*
X140960034Y-72448072D01*
X140965686Y-72418488D01*
X140969971Y-72396400D01*
X140972189Y-72385388D01*
X140973105Y-72374534D01*
X140971386Y-72371329D01*
X140964722Y-72374082D01*
X140949258Y-72381598D01*
X140927223Y-72392766D01*
X140900844Y-72406472D01*
X140897847Y-72408048D01*
X140866332Y-72424577D01*
X140827935Y-72444625D01*
X140786884Y-72465989D01*
X140747408Y-72486464D01*
X140735929Y-72492402D01*
X140668297Y-72527360D01*
X140610479Y-72557252D01*
X140561187Y-72582744D01*
X140519131Y-72604504D01*
X140483023Y-72623199D01*
X140451573Y-72639496D01*
X140423493Y-72654062D01*
X140397493Y-72667566D01*
X140384453Y-72674344D01*
X140351057Y-72691696D01*
X140310927Y-72712527D01*
X140268427Y-72734571D01*
X140227922Y-72755566D01*
X140215745Y-72761874D01*
X140177637Y-72781623D01*
X140136844Y-72802786D01*
X140097458Y-72823239D01*
X140063571Y-72840857D01*
X140053285Y-72846212D01*
X140026810Y-72859951D01*
X139992024Y-72877931D01*
X139951738Y-72898702D01*
X139908766Y-72920814D01*
X139865923Y-72942817D01*
X139853334Y-72949272D01*
X139814152Y-72969404D01*
X139776845Y-72988659D01*
X139743473Y-73005968D01*
X139716098Y-73020259D01*
X139696780Y-73030463D01*
X139690874Y-73033650D01*
X139676867Y-73041124D01*
X139653591Y-73053315D01*
X139622909Y-73069256D01*
X139586683Y-73087983D01*
X139546775Y-73108531D01*
X139509668Y-73127567D01*
X139464829Y-73150607D01*
X139419082Y-73174249D01*
X139374996Y-73197156D01*
X139335145Y-73217987D01*
X139302098Y-73235406D01*
X139284724Y-73244672D01*
X139228628Y-73274034D01*
X139166260Y-73305348D01*
X139102969Y-73335976D01*
X139044108Y-73363281D01*
X139043690Y-73363470D01*
X139020910Y-73372778D01*
X138989446Y-73384337D01*
X138952654Y-73397040D01*
X138913886Y-73409780D01*
X138876497Y-73421449D01*
X138843840Y-73430941D01*
X138822900Y-73436335D01*
X138719194Y-73455466D01*
X138621047Y-73463444D01*
X138528351Y-73460255D01*
X138441003Y-73445887D01*
X138358896Y-73420327D01*
X138281927Y-73383563D01*
X138253727Y-73366473D01*
X138188413Y-73318602D01*
X138128582Y-73262302D01*
X138073340Y-73196538D01*
X138021791Y-73120272D01*
X137985003Y-73055536D01*
X137974114Y-73035079D01*
X137958405Y-73005675D01*
X137938979Y-72969382D01*
X137916938Y-72928258D01*
X137893385Y-72884361D01*
X137869421Y-72839748D01*
X137867858Y-72836839D01*
X137844286Y-72792982D01*
X137821389Y-72750370D01*
X137800190Y-72710910D01*
X137781716Y-72676514D01*
X137766991Y-72649088D01*
X137757042Y-72630543D01*
X137756257Y-72629078D01*
X137740346Y-72599386D01*
X137722550Y-72566174D01*
X137707709Y-72538475D01*
X137697325Y-72519096D01*
X137682349Y-72491150D01*
X137664093Y-72457084D01*
X137643867Y-72419345D01*
X137622984Y-72380380D01*
X137618133Y-72371329D01*
X137596496Y-72330923D01*
X137574480Y-72289747D01*
X137553604Y-72250644D01*
X137535384Y-72216455D01*
X137521336Y-72190023D01*
X137519734Y-72186999D01*
X137505221Y-72159745D01*
X137491767Y-72134743D01*
X137481090Y-72115171D01*
X137475825Y-72105769D01*
X137468225Y-72092142D01*
X137456691Y-72070929D01*
X137443102Y-72045605D01*
X137435226Y-72030788D01*
X137410598Y-71984379D01*
X137386997Y-71940118D01*
X137362441Y-71894301D01*
X137334946Y-71843224D01*
X137318147Y-71812091D01*
X137299681Y-71777804D01*
X137280014Y-71741137D01*
X137261599Y-71706671D01*
X137247885Y-71680874D01*
X137216548Y-71621819D01*
X137189343Y-71570832D01*
X137166827Y-71528951D01*
X137150903Y-71499668D01*
X137129989Y-71461223D01*
X137103954Y-71412810D01*
X137072538Y-71353945D01*
X137060316Y-71330960D01*
X137046365Y-71304858D01*
X137033411Y-71280901D01*
X137023338Y-71262559D01*
X137019625Y-71255978D01*
X137012277Y-71242775D01*
X137000838Y-71221683D01*
X136987023Y-71195881D01*
X136975815Y-71174748D01*
X136960420Y-71145679D01*
X136945205Y-71117095D01*
X136932274Y-71092939D01*
X136925839Y-71081021D01*
X136918228Y-71066915D01*
X136905752Y-71043678D01*
X136889427Y-71013205D01*
X136870268Y-70977392D01*
X136849290Y-70938135D01*
X136832169Y-70906064D01*
X136802006Y-70849553D01*
X136777009Y-70802751D01*
X136756468Y-70764336D01*
X136739674Y-70732986D01*
X136725920Y-70707382D01*
X136714495Y-70686200D01*
X136704691Y-70668119D01*
X136695799Y-70651819D01*
X136694736Y-70649877D01*
X136685907Y-70633705D01*
X136676253Y-70615914D01*
X136665065Y-70595183D01*
X136651634Y-70570192D01*
X136635252Y-70539619D01*
X136615209Y-70502142D01*
X136590796Y-70456439D01*
X136561305Y-70401190D01*
X136557303Y-70393690D01*
X136535608Y-70353057D01*
X136514933Y-70314375D01*
X136496293Y-70279542D01*
X136480703Y-70250452D01*
X136469179Y-70229002D01*
X136463632Y-70218734D01*
X136453465Y-70199861D01*
X136439581Y-70173872D01*
X136424081Y-70144706D01*
X136413657Y-70125007D01*
X136399180Y-70097743D01*
X136385755Y-70072735D01*
X136375098Y-70053162D01*
X136369847Y-70043777D01*
X136362247Y-70030150D01*
X136350712Y-70008937D01*
X136337123Y-69983613D01*
X136329245Y-69968795D01*
X136313743Y-69939608D01*
X136297720Y-69909571D01*
X136283800Y-69883599D01*
X136279203Y-69875068D01*
X136266304Y-69851122D01*
X136250557Y-69821787D01*
X136234990Y-69792706D01*
X136232258Y-69787590D01*
X136216757Y-69758575D01*
X136200201Y-69727606D01*
X136185789Y-69700673D01*
X136183815Y-69696987D01*
X136169662Y-69670548D01*
X136153104Y-69639597D01*
X136137623Y-69610644D01*
X136137016Y-69609508D01*
X136122024Y-69581482D01*
X136106134Y-69551820D01*
X136092621Y-69526632D01*
X136091827Y-69525154D01*
X136083727Y-69510080D01*
X136070655Y-69485752D01*
X136053554Y-69453927D01*
X136033366Y-69416358D01*
X136011036Y-69374803D01*
X135987505Y-69331015D01*
X135981025Y-69318955D01*
X135952635Y-69266120D01*
X135920314Y-69205962D01*
X135886043Y-69142168D01*
X135851803Y-69078427D01*
X135819574Y-69018424D01*
X135796408Y-68975290D01*
X135771585Y-68929084D01*
X135747053Y-68883454D01*
X135723872Y-68840369D01*
X135703104Y-68801800D01*
X135685808Y-68769715D01*
X135673045Y-68746086D01*
X135670276Y-68740972D01*
X135656251Y-68714619D01*
X135643934Y-68690604D01*
X135634934Y-68672111D01*
X135631464Y-68664145D01*
X135625050Y-68652432D01*
X135618886Y-68648659D01*
X135618842Y-68648673D01*
X135613251Y-68654785D01*
X135603800Y-68669201D01*
X135592307Y-68689093D01*
X135589506Y-68694258D01*
X135579004Y-68713887D01*
X135564045Y-68741879D01*
X135546050Y-68775569D01*
X135526445Y-68812293D01*
X135507820Y-68847196D01*
X135486804Y-68886518D01*
X135464911Y-68927360D01*
X135443909Y-68966431D01*
X135425566Y-69000442D01*
X135413800Y-69022153D01*
X135396033Y-69055056D01*
X135375298Y-69093814D01*
X135354389Y-69133190D01*
X135338822Y-69162743D01*
X135324034Y-69190806D01*
X135311107Y-69215052D01*
X135301249Y-69233234D01*
X135295670Y-69243105D01*
X135295112Y-69243973D01*
X135290629Y-69251657D01*
X135281626Y-69268044D01*
X135269387Y-69290769D01*
X135255196Y-69317468D01*
X135254410Y-69318955D01*
X135240007Y-69346142D01*
X135221284Y-69381341D01*
X135199839Y-69421560D01*
X135177268Y-69463802D01*
X135155169Y-69505074D01*
X135152778Y-69509533D01*
X135131850Y-69548562D01*
X135111206Y-69587065D01*
X135092176Y-69622561D01*
X135076091Y-69652569D01*
X135064282Y-69674608D01*
X135062335Y-69678242D01*
X135047323Y-69706258D01*
X135031422Y-69735912D01*
X135017908Y-69761099D01*
X135017105Y-69762596D01*
X135007277Y-69780926D01*
X134993056Y-69807485D01*
X134975937Y-69839478D01*
X134957416Y-69874112D01*
X134945214Y-69896938D01*
X134925112Y-69934512D01*
X134901167Y-69979203D01*
X134875465Y-70027124D01*
X134850090Y-70074389D01*
X134829601Y-70112510D01*
X134808393Y-70151965D01*
X134787030Y-70191752D01*
X134766993Y-70229109D01*
X134749763Y-70261276D01*
X134736819Y-70285491D01*
X134735766Y-70287467D01*
X134720574Y-70315877D01*
X134701890Y-70350696D01*
X134682174Y-70387342D01*
X134665267Y-70418684D01*
X134640665Y-70464227D01*
X134620849Y-70500954D01*
X134604650Y-70531040D01*
X134590903Y-70556657D01*
X134578441Y-70579980D01*
X134566097Y-70603181D01*
X134554586Y-70624884D01*
X134542240Y-70648103D01*
X134525451Y-70679565D01*
X134505695Y-70716510D01*
X134484450Y-70756175D01*
X134463191Y-70795798D01*
X134461020Y-70799841D01*
X134439538Y-70839875D01*
X134417625Y-70880782D01*
X134396840Y-70919644D01*
X134378743Y-70953544D01*
X134364896Y-70979565D01*
X134364111Y-70981046D01*
X134347587Y-71011941D01*
X134330160Y-71044108D01*
X134314414Y-71072793D01*
X134306898Y-71086267D01*
X134295577Y-71106646D01*
X134287117Y-71122402D01*
X134283005Y-71130753D01*
X134282829Y-71131346D01*
X134280023Y-71137438D01*
X134272412Y-71152176D01*
X134261206Y-71173251D01*
X134249536Y-71194833D01*
X134231290Y-71228512D01*
X134210604Y-71266956D01*
X134190861Y-71303870D01*
X134183101Y-71318463D01*
X134168571Y-71345713D01*
X134155105Y-71370711D01*
X134144418Y-71390284D01*
X134139146Y-71399693D01*
X134131546Y-71413320D01*
X134120012Y-71434533D01*
X134106423Y-71459857D01*
X134098547Y-71474675D01*
X134082456Y-71504995D01*
X134065285Y-71537258D01*
X134049949Y-71565985D01*
X134045309Y-71574650D01*
X134030387Y-71602485D01*
X134011170Y-71638338D01*
X133989266Y-71679210D01*
X133966281Y-71722103D01*
X133943822Y-71764019D01*
X133923496Y-71801958D01*
X133907190Y-71832399D01*
X133891284Y-71862084D01*
X133873482Y-71895287D01*
X133858613Y-71923002D01*
X133848509Y-71941853D01*
X133833746Y-71969436D01*
X133815549Y-72003455D01*
X133795147Y-72041618D01*
X133773764Y-72081631D01*
X133764207Y-72099521D01*
X133742844Y-72139496D01*
X133721967Y-72178531D01*
X133702787Y-72214362D01*
X133686516Y-72244724D01*
X133674367Y-72267355D01*
X133670532Y-72274478D01*
X133658792Y-72296288D01*
X133643000Y-72325677D01*
X133625001Y-72359205D01*
X133606644Y-72393434D01*
X133601747Y-72402571D01*
X133583621Y-72436386D01*
X133565349Y-72470451D01*
X133548776Y-72501329D01*
X133535748Y-72525582D01*
X133533014Y-72530665D01*
X133519532Y-72555753D01*
X133501166Y-72589975D01*
X133478925Y-72631445D01*
X133453819Y-72678280D01*
X133426861Y-72728594D01*
X133399060Y-72780501D01*
X133393987Y-72789976D01*
X133378978Y-72817994D01*
X133363080Y-72847649D01*
X133349567Y-72872836D01*
X133348765Y-72874330D01*
X133338940Y-72892665D01*
X133324728Y-72919230D01*
X133307624Y-72951231D01*
X133289124Y-72985872D01*
X133276954Y-73008672D01*
X133243013Y-73070647D01*
X133212366Y-73122874D01*
X133183749Y-73167241D01*
X133155900Y-73205637D01*
X133127555Y-73239950D01*
X133108248Y-73260979D01*
X133046364Y-73319636D01*
X132982766Y-73367008D01*
X132915344Y-73404215D01*
X132841987Y-73432378D01*
X132760586Y-73452617D01*
X132740230Y-73456315D01*
X132669070Y-73463419D01*
X132590380Y-73462088D01*
X132505617Y-73452572D01*
X132416236Y-73435122D01*
X132323692Y-73409987D01*
X132229442Y-73377419D01*
X132189822Y-73361635D01*
X132172308Y-73353945D01*
X132147789Y-73342598D01*
X132118511Y-73328696D01*
X132086716Y-73313339D01*
X132054648Y-73297627D01*
X132024552Y-73282661D01*
X131998671Y-73269542D01*
X131979250Y-73259371D01*
X131968531Y-73253248D01*
X131967774Y-73252717D01*
X131960712Y-73248690D01*
X131944071Y-73239796D01*
X131919402Y-73226846D01*
X131888260Y-73210651D01*
X131852197Y-73192022D01*
X131817811Y-73174357D01*
X131775620Y-73152702D01*
X131734143Y-73131352D01*
X131695610Y-73111460D01*
X131662248Y-73094177D01*
X131636286Y-73080655D01*
X131624109Y-73074255D01*
X131602391Y-73062847D01*
X131572349Y-73047182D01*
X131536776Y-73028712D01*
X131498465Y-73008887D01*
X131461649Y-72989898D01*
X131383469Y-72949597D01*
X131307365Y-72910252D01*
X131229367Y-72869808D01*
X131145509Y-72826209D01*
X131117983Y-72811878D01*
X131086527Y-72795531D01*
X131047705Y-72775411D01*
X131005269Y-72753459D01*
X130962967Y-72731615D01*
X130936778Y-72718114D01*
X130895579Y-72696870D01*
X130850748Y-72673714D01*
X130806369Y-72650758D01*
X130766527Y-72630114D01*
X130746200Y-72619561D01*
X130709028Y-72600244D01*
X130668492Y-72579179D01*
X130629252Y-72558790D01*
X130595969Y-72541496D01*
X130593112Y-72540012D01*
X130523966Y-72504123D01*
X130465086Y-72473656D01*
X130415672Y-72448223D01*
X130374928Y-72427436D01*
X130342054Y-72410907D01*
X130316252Y-72398249D01*
X130296723Y-72389073D01*
X130282670Y-72382991D01*
X130273293Y-72379616D01*
X130267794Y-72378559D01*
X130265375Y-72379432D01*
X130265068Y-72380610D01*
X130266234Y-72391427D01*
X130269303Y-72410500D01*
X130273631Y-72433851D01*
X130273983Y-72435639D01*
X130278633Y-72459489D01*
X130284603Y-72490634D01*
X130291369Y-72526280D01*
X130298408Y-72563635D01*
X130305193Y-72599907D01*
X130311202Y-72632304D01*
X130315910Y-72658032D01*
X130318793Y-72674301D01*
X130318806Y-72674379D01*
X130322156Y-72692575D01*
X130326613Y-72714907D01*
X130327938Y-72721243D01*
X130329929Y-72730821D01*
X130332307Y-72742700D01*
X130335315Y-72758161D01*
X130339194Y-72778487D01*
X130344187Y-72804959D01*
X130350535Y-72838859D01*
X130358480Y-72881469D01*
X130368264Y-72934069D01*
X130377481Y-72983678D01*
X130383854Y-73017714D01*
X130390443Y-73052430D01*
X130396329Y-73083012D01*
X130399518Y-73099275D01*
X130405019Y-73127673D01*
X130411358Y-73161454D01*
X130417235Y-73193689D01*
X130417670Y-73196126D01*
X130428996Y-73259047D01*
X130440117Y-73319325D01*
X130452048Y-73382403D01*
X130461895Y-73433567D01*
X130468939Y-73470121D01*
X130476102Y-73507549D01*
X130482552Y-73541493D01*
X130487457Y-73567595D01*
X130487515Y-73567909D01*
X130493324Y-73599113D01*
X130498888Y-73628909D01*
X130504567Y-73659209D01*
X130510721Y-73691925D01*
X130517711Y-73728968D01*
X130525898Y-73772250D01*
X130535640Y-73823683D01*
X130547299Y-73885179D01*
X130549343Y-73895954D01*
X130559114Y-73947535D01*
X130568985Y-73999765D01*
X130578474Y-74050078D01*
X130587096Y-74095906D01*
X130594368Y-74134680D01*
X130599806Y-74163833D01*
X130599955Y-74164638D01*
X130606667Y-74200803D01*
X130613467Y-74237433D01*
X130619575Y-74270321D01*
X130624209Y-74295258D01*
X130624320Y-74295855D01*
X130628165Y-74316356D01*
X130633855Y-74346457D01*
X130640882Y-74383485D01*
X130648739Y-74424766D01*
X130656918Y-74467628D01*
X130658721Y-74477061D01*
X130670745Y-74540035D01*
X130680904Y-74593453D01*
X130689708Y-74640028D01*
X130697671Y-74682470D01*
X130705303Y-74723494D01*
X130708265Y-74739496D01*
X130724325Y-74825987D01*
X130741748Y-74919089D01*
X130759471Y-75013152D01*
X130776434Y-75102527D01*
X130777508Y-75108155D01*
X130785673Y-75151008D01*
X130793636Y-75192872D01*
X130800889Y-75231073D01*
X130806924Y-75262938D01*
X130811234Y-75285792D01*
X130811903Y-75289361D01*
X130815751Y-75309869D01*
X130821411Y-75339982D01*
X130828379Y-75377024D01*
X130836154Y-75418320D01*
X130844231Y-75461194D01*
X130845997Y-75470566D01*
X130854712Y-75516833D01*
X130863835Y-75565305D01*
X130872690Y-75612398D01*
X130880605Y-75654527D01*
X130886904Y-75688109D01*
X130887120Y-75689262D01*
X130893938Y-75725631D01*
X130900886Y-75762668D01*
X130907161Y-75796087D01*
X130911958Y-75821603D01*
X130912040Y-75822042D01*
X130918138Y-75854525D01*
X130924912Y-75890754D01*
X130930154Y-75918893D01*
X130935922Y-75949878D01*
X130942720Y-75986288D01*
X130950153Y-76026027D01*
X130957829Y-76066998D01*
X130965353Y-76107103D01*
X130972332Y-76144246D01*
X130978373Y-76176329D01*
X130983081Y-76201256D01*
X130986064Y-76216930D01*
X130986734Y-76220382D01*
X130990354Y-76239003D01*
X130995821Y-76267533D01*
X131002687Y-76303599D01*
X131010501Y-76344825D01*
X131018817Y-76388836D01*
X131027185Y-76433258D01*
X131035157Y-76475716D01*
X131042284Y-76513836D01*
X131048118Y-76545243D01*
X131048706Y-76548426D01*
X131052719Y-76569946D01*
X131058567Y-76600998D01*
X131065731Y-76638838D01*
X131073690Y-76680724D01*
X131081927Y-76723914D01*
X131083617Y-76732756D01*
X131092772Y-76780660D01*
X131100391Y-76820607D01*
X131107035Y-76855570D01*
X131113265Y-76888521D01*
X131119642Y-76922435D01*
X131126726Y-76960285D01*
X131135078Y-77005046D01*
X131143139Y-77048303D01*
X131149957Y-77084888D01*
X131156838Y-77121797D01*
X131163028Y-77154982D01*
X131167772Y-77180397D01*
X131168192Y-77182645D01*
X131173976Y-77213694D01*
X131180546Y-77249099D01*
X131186166Y-77279496D01*
X131191012Y-77305444D01*
X131197419Y-77339300D01*
X131204561Y-77376707D01*
X131211607Y-77413306D01*
X131211710Y-77413838D01*
X131218717Y-77450181D01*
X131225805Y-77487195D01*
X131232160Y-77520601D01*
X131236964Y-77546124D01*
X131237056Y-77546618D01*
X131244850Y-77588367D01*
X131253628Y-77635248D01*
X131262343Y-77681679D01*
X131269950Y-77722077D01*
X131270740Y-77726261D01*
X131274057Y-77743989D01*
X131278919Y-77770170D01*
X131284613Y-77800969D01*
X131289269Y-77826237D01*
X131295678Y-77860768D01*
X131302396Y-77896451D01*
X131308472Y-77928255D01*
X131311723Y-77944957D01*
X131315609Y-77964872D01*
X131320374Y-77989649D01*
X131326189Y-78020212D01*
X131333229Y-78057487D01*
X131341669Y-78102401D01*
X131351681Y-78155878D01*
X131363440Y-78218843D01*
X131377120Y-78292223D01*
X131392895Y-78376943D01*
X131393320Y-78379226D01*
X131399579Y-78412503D01*
X131405621Y-78443996D01*
X131410779Y-78470268D01*
X131414387Y-78487885D01*
X131414535Y-78488574D01*
X131418068Y-78506068D01*
X131423021Y-78532177D01*
X131428703Y-78563200D01*
X131433767Y-78591673D01*
X131439440Y-78623536D01*
X131444909Y-78653341D01*
X131449518Y-78677552D01*
X131452387Y-78691649D01*
X131456022Y-78709410D01*
X131460908Y-78734880D01*
X131466169Y-78763455D01*
X131467855Y-78772879D01*
X131473107Y-78802014D01*
X131478313Y-78830116D01*
X131482563Y-78852304D01*
X131483548Y-78857233D01*
X131486637Y-78872967D01*
X131491464Y-78898183D01*
X131497496Y-78930074D01*
X131504202Y-78965832D01*
X131508416Y-78988451D01*
X131515280Y-79025192D01*
X131521813Y-79059787D01*
X131527480Y-79089427D01*
X131531745Y-79111306D01*
X131533435Y-79119668D01*
X131536927Y-79137251D01*
X131542116Y-79164456D01*
X131548512Y-79198603D01*
X131555621Y-79237011D01*
X131562950Y-79277000D01*
X131570006Y-79315888D01*
X131576298Y-79350996D01*
X131581331Y-79379642D01*
X131582824Y-79388352D01*
X131585646Y-79408805D01*
X131588892Y-79438483D01*
X131592247Y-79474136D01*
X131595395Y-79512516D01*
X131596902Y-79533282D01*
X131600581Y-79645746D01*
X131595561Y-79749720D01*
X131581867Y-79845094D01*
X131559526Y-79931756D01*
X131528563Y-80009596D01*
X131489004Y-80078502D01*
X131462240Y-80114199D01*
X131414225Y-80163470D01*
X131359361Y-80202805D01*
X131296684Y-80232824D01*
X131259617Y-80245274D01*
X131224994Y-80252405D01*
X131182262Y-80256657D01*
X131135482Y-80257991D01*
X131088715Y-80256368D01*
X131046023Y-80251748D01*
X131024256Y-80247569D01*
X130928563Y-80218686D01*
X130836190Y-80178052D01*
X130747910Y-80126152D01*
X130664496Y-80063470D01*
X130586721Y-79990490D01*
X130550874Y-79951082D01*
X130537909Y-79936232D01*
X130517537Y-79913103D01*
X130490682Y-79882735D01*
X130458268Y-79846165D01*
X130421219Y-79804431D01*
X130380459Y-79758570D01*
X130336912Y-79709621D01*
X130291500Y-79658621D01*
X130245149Y-79606609D01*
X130198781Y-79554622D01*
X130153321Y-79503697D01*
X130109693Y-79454874D01*
X130068819Y-79409189D01*
X130031625Y-79367681D01*
X130027747Y-79363358D01*
X130009828Y-79343330D01*
X129985853Y-79316450D01*
X129958050Y-79285224D01*
X129928649Y-79252154D01*
X129902562Y-79222768D01*
X129874904Y-79191640D01*
X129848021Y-79161478D01*
X129823788Y-79134378D01*
X129804080Y-79112437D01*
X129790773Y-79097752D01*
X129790744Y-79097720D01*
X129773748Y-79079023D01*
X129751976Y-79054882D01*
X129728944Y-79029201D01*
X129717596Y-79016490D01*
X129699311Y-78995976D01*
X129674468Y-78968113D01*
X129644256Y-78934235D01*
X129609866Y-78895678D01*
X129572489Y-78853774D01*
X129533314Y-78809859D01*
X129493532Y-78765266D01*
X129454333Y-78721330D01*
X129416907Y-78679385D01*
X129382445Y-78640764D01*
X129352137Y-78606803D01*
X129327173Y-78578835D01*
X129308743Y-78558194D01*
X129302368Y-78551058D01*
X129284986Y-78531598D01*
X129261371Y-78505146D01*
X129233608Y-78474040D01*
X129203782Y-78440614D01*
X129173977Y-78407204D01*
X129171315Y-78404219D01*
X129141344Y-78370636D01*
X129110898Y-78336551D01*
X129082136Y-78304381D01*
X129057216Y-78276538D01*
X129038299Y-78255439D01*
X129037236Y-78254256D01*
X129014070Y-78228432D01*
X128983600Y-78194411D01*
X128946839Y-78153325D01*
X128904797Y-78106305D01*
X128858487Y-78054485D01*
X128808921Y-77998996D01*
X128757109Y-77940970D01*
X128704065Y-77881539D01*
X128650798Y-77821836D01*
X128649150Y-77819988D01*
X128614242Y-77780856D01*
X128578990Y-77741344D01*
X128545108Y-77703372D01*
X128514307Y-77668858D01*
X128488301Y-77639724D01*
X128468804Y-77617889D01*
X128467933Y-77616913D01*
X128445060Y-77591304D01*
X128416498Y-77559323D01*
X128384882Y-77523920D01*
X128352846Y-77488045D01*
X128328431Y-77460702D01*
X128248509Y-77371200D01*
X128176391Y-77290454D01*
X128111565Y-77217893D01*
X128053521Y-77152942D01*
X128001746Y-77095031D01*
X127955729Y-77043587D01*
X127914958Y-76998037D01*
X127878922Y-76957810D01*
X127847108Y-76922333D01*
X127837659Y-76911804D01*
X127807424Y-76878075D01*
X127778054Y-76845220D01*
X127751218Y-76815117D01*
X127728588Y-76789641D01*
X127711835Y-76770668D01*
X127706323Y-76764365D01*
X127681863Y-76736422D01*
X127655039Y-76706098D01*
X127627140Y-76674818D01*
X127599459Y-76644007D01*
X127573286Y-76615091D01*
X127549913Y-76589495D01*
X127530630Y-76568643D01*
X127516729Y-76553960D01*
X127509501Y-76546873D01*
X127508900Y-76546460D01*
X127504542Y-76550662D01*
X127499232Y-76563558D01*
X127496931Y-76571454D01*
X127491007Y-76593193D01*
X127485107Y-76613322D01*
X127483903Y-76617159D01*
X127479096Y-76632912D01*
X127471807Y-76657706D01*
X127462893Y-76688543D01*
X127453207Y-76722421D01*
X127443606Y-76756340D01*
X127434945Y-76787298D01*
X127428079Y-76812296D01*
X127425131Y-76823358D01*
X127419553Y-76843996D01*
X127410773Y-76875465D01*
X127399120Y-76916610D01*
X127384922Y-76966275D01*
X127368510Y-77023305D01*
X127350213Y-77086543D01*
X127346804Y-77098291D01*
X127338285Y-77127809D01*
X127330626Y-77154657D01*
X127324767Y-77175518D01*
X127321982Y-77185769D01*
X127318637Y-77198012D01*
X127312357Y-77220401D01*
X127303678Y-77251074D01*
X127293130Y-77288170D01*
X127281248Y-77329829D01*
X127268563Y-77374188D01*
X127255608Y-77419388D01*
X127242917Y-77463567D01*
X127231022Y-77504864D01*
X127220456Y-77541418D01*
X127211751Y-77571367D01*
X127205717Y-77591919D01*
X127197755Y-77619062D01*
X127190664Y-77643728D01*
X127185563Y-77662007D01*
X127184268Y-77666901D01*
X127180592Y-77680455D01*
X127174333Y-77702685D01*
X127166429Y-77730278D01*
X127159441Y-77754379D01*
X127150879Y-77783893D01*
X127143172Y-77810738D01*
X127137266Y-77831599D01*
X127134447Y-77841858D01*
X127130704Y-77855413D01*
X127124389Y-77877646D01*
X127116449Y-77905242D01*
X127109453Y-77929336D01*
X127100895Y-77958850D01*
X127093197Y-77985694D01*
X127087305Y-78006555D01*
X127084499Y-78016815D01*
X127075913Y-78048604D01*
X127065410Y-78085967D01*
X127053627Y-78126790D01*
X127041200Y-78168958D01*
X127028767Y-78210358D01*
X127016964Y-78248875D01*
X127006429Y-78282394D01*
X126997798Y-78308802D01*
X126991709Y-78325984D01*
X126990379Y-78329238D01*
X126961366Y-78384019D01*
X126923242Y-78438950D01*
X126878853Y-78490548D01*
X126831047Y-78535328D01*
X126806544Y-78554221D01*
X126733199Y-78599636D01*
X126656669Y-78633416D01*
X126576516Y-78655637D01*
X126492304Y-78666379D01*
X126403594Y-78665719D01*
X126309952Y-78653735D01*
X126281673Y-78648124D01*
X126247320Y-78640827D01*
X126212449Y-78633487D01*
X126181613Y-78627059D01*
X126162952Y-78623223D01*
X126142811Y-78619071D01*
X126113267Y-78612906D01*
X126077143Y-78605319D01*
X126037259Y-78596904D01*
X125997368Y-78588450D01*
X125940695Y-78576426D01*
X125884306Y-78564488D01*
X125830149Y-78553049D01*
X125780176Y-78542518D01*
X125736334Y-78533307D01*
X125700575Y-78525826D01*
X125674846Y-78520485D01*
X125672448Y-78519992D01*
X125657559Y-78516899D01*
X125632885Y-78511735D01*
X125600867Y-78505012D01*
X125563948Y-78497244D01*
X125524570Y-78488942D01*
X125522485Y-78488502D01*
X125481355Y-78479838D01*
X125440957Y-78471354D01*
X125404192Y-78463659D01*
X125373964Y-78457360D01*
X125353777Y-78453188D01*
X125324137Y-78447076D01*
X125293046Y-78440606D01*
X125269422Y-78435640D01*
X125248210Y-78431168D01*
X125218779Y-78424994D01*
X125185150Y-78417960D01*
X125153826Y-78411425D01*
X125116582Y-78403642D01*
X125072558Y-78394402D01*
X125027199Y-78384852D01*
X124985949Y-78376135D01*
X124985117Y-78375959D01*
X124947539Y-78367997D01*
X124917594Y-78361657D01*
X124892205Y-78356288D01*
X124868298Y-78351242D01*
X124842796Y-78345869D01*
X124812623Y-78339521D01*
X124774704Y-78331549D01*
X124753924Y-78327181D01*
X124732254Y-78322625D01*
X124710975Y-78318149D01*
X124688875Y-78313498D01*
X124664741Y-78308414D01*
X124637363Y-78302645D01*
X124605527Y-78295932D01*
X124568022Y-78288022D01*
X124523635Y-78278658D01*
X124471156Y-78267584D01*
X124409370Y-78254546D01*
X124337067Y-78239288D01*
X124304035Y-78232317D01*
X124263195Y-78223716D01*
X124223361Y-78215359D01*
X124187353Y-78207835D01*
X124157995Y-78201735D01*
X124138451Y-78197717D01*
X124107546Y-78191312D01*
X124073333Y-78184032D01*
X124050972Y-78179161D01*
X124026998Y-78173948D01*
X123995150Y-78167144D01*
X123959798Y-78159679D01*
X123929127Y-78153272D01*
X123895186Y-78146212D01*
X123861732Y-78139232D01*
X123832785Y-78133171D01*
X123813531Y-78129117D01*
X123790725Y-78124314D01*
X123758142Y-78117484D01*
X123718241Y-78109142D01*
X123673480Y-78099801D01*
X123626317Y-78089974D01*
X123579213Y-78080175D01*
X123572965Y-78078877D01*
X123550036Y-78074060D01*
X123519254Y-78067521D01*
X123484978Y-78060189D01*
X123457368Y-78054246D01*
X123423025Y-78046876D01*
X123388163Y-78039475D01*
X123357331Y-78033002D01*
X123338647Y-78029145D01*
X123293211Y-78019822D01*
X123236981Y-78008170D01*
X123171383Y-77994487D01*
X123097841Y-77979073D01*
X123017779Y-77962225D01*
X122932623Y-77944244D01*
X122843796Y-77925427D01*
X122816901Y-77919718D01*
X122746954Y-77904921D01*
X122688400Y-77892673D01*
X122640431Y-77882817D01*
X122602237Y-77875201D01*
X122573011Y-77869669D01*
X122551943Y-77866068D01*
X122538225Y-77864243D01*
X122531048Y-77864040D01*
X122529472Y-77864893D01*
X122531095Y-77873549D01*
X122535656Y-77892457D01*
X122542684Y-77919848D01*
X122551713Y-77953949D01*
X122562274Y-77992989D01*
X122573901Y-78035197D01*
X122583619Y-78069927D01*
X122595841Y-78113505D01*
X122607688Y-78156227D01*
X122620076Y-78201437D01*
X122633921Y-78252481D01*
X122647869Y-78304244D01*
X122650536Y-78314029D01*
X122656376Y-78335347D01*
X122665247Y-78367681D01*
X122677005Y-78410516D01*
X122691511Y-78463334D01*
X122708621Y-78525619D01*
X122728193Y-78596854D01*
X122750087Y-78676524D01*
X122774158Y-78764111D01*
X122800267Y-78859099D01*
X122828271Y-78960973D01*
X122858027Y-79069214D01*
X122889394Y-79183307D01*
X122922230Y-79302736D01*
X122956393Y-79426983D01*
X122991741Y-79555532D01*
X123028132Y-79687868D01*
X123065424Y-79823473D01*
X123094403Y-79928844D01*
X123132208Y-80066304D01*
X123169180Y-80200739D01*
X123205180Y-80331640D01*
X123240069Y-80458501D01*
X123273707Y-80580815D01*
X123305955Y-80698074D01*
X123336673Y-80809771D01*
X123365721Y-80915399D01*
X123392961Y-81014452D01*
X123418252Y-81106421D01*
X123441456Y-81190799D01*
X123462432Y-81267080D01*
X123481042Y-81334757D01*
X123497145Y-81393321D01*
X123510603Y-81442266D01*
X123521276Y-81481085D01*
X123529025Y-81509271D01*
X123533709Y-81526316D01*
X123535153Y-81531575D01*
X123540348Y-81550462D01*
X123546991Y-81574450D01*
X123550708Y-81587811D01*
X123579343Y-81691430D01*
X123605726Y-81788739D01*
X123629650Y-81878929D01*
X123650911Y-81961194D01*
X123669303Y-82034726D01*
X123684619Y-82098718D01*
X123696656Y-82152362D01*
X123705033Y-82193912D01*
X123711942Y-82239858D01*
X123716808Y-82290240D01*
X123719609Y-82342388D01*
X123720323Y-82393628D01*
X123718925Y-82441289D01*
X123715394Y-82482698D01*
X123709706Y-82515183D01*
X123707835Y-82521956D01*
X123683830Y-82583780D01*
X123651357Y-82638858D01*
X123609282Y-82688663D01*
X123556472Y-82734669D01*
X123528583Y-82754742D01*
X123502984Y-82770583D01*
X123469450Y-82789047D01*
X123431708Y-82808262D01*
X123393485Y-82826355D01*
X123358504Y-82841451D01*
X123347681Y-82845695D01*
X123323247Y-82855524D01*
X123292873Y-82868563D01*
X123261840Y-82882524D01*
X123251169Y-82887503D01*
X123218956Y-82902698D01*
X123183357Y-82919467D01*
X123150834Y-82934765D01*
X123143383Y-82938265D01*
X123111929Y-82953042D01*
X123076175Y-82969850D01*
X123043124Y-82985395D01*
X123038721Y-82987467D01*
X123011017Y-83000498D01*
X122982230Y-83014025D01*
X122950521Y-83028910D01*
X122914053Y-83046016D01*
X122870990Y-83066204D01*
X122819493Y-83090335D01*
X122785658Y-83106187D01*
X122728204Y-83133115D01*
X122679415Y-83156007D01*
X122636633Y-83176115D01*
X122597199Y-83194690D01*
X122558455Y-83212981D01*
X122523223Y-83229645D01*
X122490427Y-83245148D01*
X122455455Y-83261647D01*
X122423468Y-83276709D01*
X122407626Y-83284151D01*
X122381965Y-83296231D01*
X122349265Y-83311685D01*
X122313768Y-83328504D01*
X122280391Y-83344361D01*
X122252138Y-83357740D01*
X122228221Y-83368941D01*
X122210748Y-83376986D01*
X122201829Y-83380898D01*
X122201144Y-83381120D01*
X122195136Y-83383679D01*
X122179743Y-83390769D01*
X122156847Y-83401509D01*
X122128328Y-83415018D01*
X122103436Y-83426888D01*
X122069487Y-83443061D01*
X122037435Y-83458219D01*
X122009854Y-83471153D01*
X121989317Y-83480654D01*
X121981064Y-83484373D01*
X121965706Y-83492072D01*
X121956936Y-83498335D01*
X121956071Y-83500288D01*
X118118057Y-83500288D01*
X118118057Y-65354306D01*
X153115695Y-65354306D01*
X153115695Y-100345695D01*
X153115695Y-100345695D01*
G37*
X153115695Y-100345695D02*
X118118057Y-100345695D01*
X118118057Y-83500288D01*
X121956071Y-83500288D01*
X121961146Y-83505064D01*
X121974835Y-83516773D01*
X121996030Y-83534498D01*
X122023621Y-83557320D01*
X122056499Y-83584322D01*
X122093555Y-83614586D01*
X122129570Y-83643861D01*
X122193256Y-83695521D01*
X122257689Y-83747793D01*
X122321865Y-83799863D01*
X122384781Y-83850917D01*
X122445433Y-83900139D01*
X122502819Y-83946716D01*
X122555935Y-83989833D01*
X122603777Y-84028676D01*
X122645343Y-84062431D01*
X122679628Y-84090283D01*
X122705630Y-84111418D01*
X122713801Y-84118064D01*
X122729944Y-84131188D01*
X122754582Y-84151204D01*
X122786507Y-84177131D01*
X122824509Y-84207987D01*
X122867379Y-84242791D01*
X122913909Y-84280560D01*
X122962889Y-84320314D01*
X123013110Y-84361070D01*
X123016852Y-84364106D01*
X123067014Y-84404822D01*
X123115936Y-84444551D01*
X123162424Y-84482320D01*
X123205282Y-84517159D01*
X123243314Y-84548095D01*
X123275325Y-84574155D01*
X123300119Y-84594368D01*
X123316502Y-84607763D01*
X123317445Y-84608536D01*
X123346896Y-84632651D01*
X123380623Y-84660174D01*
X123413177Y-84686662D01*
X123426793Y-84697709D01*
X123442577Y-84710509D01*
X123466889Y-84730237D01*
X123498560Y-84755945D01*
X123536418Y-84786680D01*
X123579292Y-84821493D01*
X123626012Y-84859434D01*
X123675407Y-84899550D01*
X123726307Y-84940893D01*
X123738549Y-84950837D01*
X123791582Y-84993912D01*
X123844976Y-85037275D01*
X123897309Y-85079770D01*
X123947158Y-85120242D01*
X123993099Y-85157536D01*
X124033710Y-85190496D01*
X124067568Y-85217968D01*
X124093249Y-85238796D01*
X124094711Y-85239981D01*
X124117911Y-85258798D01*
X124149596Y-85284510D01*
X124188552Y-85316133D01*
X124233567Y-85352681D01*
X124283425Y-85393169D01*
X124336915Y-85436611D01*
X124392822Y-85482023D01*
X124449934Y-85528418D01*
X124500861Y-85569795D01*
X124556342Y-85614871D01*
X124610384Y-85658775D01*
X124661961Y-85700673D01*
X124710045Y-85739730D01*
X124753611Y-85775113D01*
X124791631Y-85805987D01*
X124823078Y-85831520D01*
X124846926Y-85850876D01*
X124862148Y-85863222D01*
X124862606Y-85863594D01*
X124890561Y-85886278D01*
X124920297Y-85910462D01*
X124947366Y-85932524D01*
X124960174Y-85942989D01*
X124973521Y-85953899D01*
X124989206Y-85966696D01*
X125007909Y-85981933D01*
X125030312Y-86000163D01*
X125057094Y-86021938D01*
X125088939Y-86047814D01*
X125126525Y-86078342D01*
X125170534Y-86114075D01*
X125221648Y-86155568D01*
X125280546Y-86203372D01*
X125347909Y-86258042D01*
X125410013Y-86308438D01*
X125460014Y-86349020D01*
X125510228Y-86389785D01*
X125559157Y-86429518D01*
X125605302Y-86467000D01*
X125647164Y-86501014D01*
X125683245Y-86530343D01*
X125712046Y-86553770D01*
X125725560Y-86564772D01*
X125747320Y-86582483D01*
X125777513Y-86607037D01*
X125814871Y-86637403D01*
X125858123Y-86672548D01*
X125906000Y-86711442D01*
X125957232Y-86753052D01*
X126010550Y-86796348D01*
X126064683Y-86840297D01*
X126087971Y-86859202D01*
X126159811Y-86917516D01*
X126222681Y-86968551D01*
X126277316Y-87012902D01*
X126324448Y-87051165D01*
X126364812Y-87083937D01*
X126399141Y-87111812D01*
X126428169Y-87135387D01*
X126452629Y-87155258D01*
X126473255Y-87172020D01*
X126490781Y-87186270D01*
X126505940Y-87198603D01*
X126519466Y-87209615D01*
X126532093Y-87219902D01*
X126540984Y-87227150D01*
X126553751Y-87237540D01*
X126575298Y-87255053D01*
X126604701Y-87278939D01*
X126641035Y-87308448D01*
X126683378Y-87342828D01*
X126730803Y-87381331D01*
X126782388Y-87423205D01*
X126837208Y-87467699D01*
X126894338Y-87514065D01*
X126928389Y-87541697D01*
X126987839Y-87589943D01*
X127046582Y-87637624D01*
X127103552Y-87683875D01*
X127157685Y-87727830D01*
X127207917Y-87768626D01*
X127253183Y-87805398D01*
X127292418Y-87837281D01*
X127324558Y-87863411D01*
X127348538Y-87882922D01*
X127356409Y-87889333D01*
X127379607Y-87908223D01*
X127411800Y-87934410D01*
X127452278Y-87967319D01*
X127500331Y-88006372D01*
X127555250Y-88050993D01*
X127616324Y-88100606D01*
X127682843Y-88154634D01*
X127754099Y-88212501D01*
X127829380Y-88273631D01*
X127907979Y-88337446D01*
X127989183Y-88403371D01*
X128072285Y-88470830D01*
X128156574Y-88539245D01*
X128241339Y-88608041D01*
X128312424Y-88665727D01*
X128361856Y-88706013D01*
X128409622Y-88745273D01*
X128454577Y-88782542D01*
X128495580Y-88816857D01*
X128531484Y-88847257D01*
X128561146Y-88872777D01*
X128583423Y-88892455D01*
X128597170Y-88905328D01*
X128597703Y-88905867D01*
X128664128Y-88982187D01*
X128720541Y-89064978D01*
X128766678Y-89153138D01*
X128802275Y-89245569D01*
X128827069Y-89341173D01*
X128840796Y-89438848D01*
X128843192Y-89537497D01*
X128833992Y-89636019D01*
X128812933Y-89733316D01*
X128803675Y-89763924D01*
X128795990Y-89788063D01*
X128788924Y-89810963D01*
X128785275Y-89823285D01*
X128781136Y-89837272D01*
X128774178Y-89860269D01*
X128765291Y-89889350D01*
X128755365Y-89921592D01*
X128752917Y-89929508D01*
X128742646Y-89962804D01*
X128732973Y-89994353D01*
X128724870Y-90020974D01*
X128719308Y-90039489D01*
X128718574Y-90041981D01*
X128713647Y-90058453D01*
X128705979Y-90083680D01*
X128696541Y-90114481D01*
X128686305Y-90147677D01*
X128684207Y-90154453D01*
X128673924Y-90187748D01*
X128664235Y-90219296D01*
X128656113Y-90245917D01*
X128650530Y-90264433D01*
X128649792Y-90266925D01*
X128644436Y-90284882D01*
X128635750Y-90313716D01*
X128624059Y-90352357D01*
X128609690Y-90399733D01*
X128592967Y-90454771D01*
X128574216Y-90516399D01*
X128553763Y-90583546D01*
X128531933Y-90655140D01*
X128531226Y-90657454D01*
X128507214Y-90736172D01*
X128486590Y-90803798D01*
X128469095Y-90861192D01*
X128454466Y-90909213D01*
X128442442Y-90948722D01*
X128432762Y-90980577D01*
X128425164Y-91005640D01*
X128419386Y-91024769D01*
X128415168Y-91038824D01*
X128412448Y-91047983D01*
X128407503Y-91064456D01*
X128399819Y-91089683D01*
X128390370Y-91120485D01*
X128380129Y-91153682D01*
X128378032Y-91160456D01*
X128367753Y-91193750D01*
X128358073Y-91225297D01*
X128349966Y-91251918D01*
X128344401Y-91270434D01*
X128343666Y-91272928D01*
X128338740Y-91289401D01*
X128331076Y-91314629D01*
X128321645Y-91345432D01*
X128311416Y-91378629D01*
X128309322Y-91385400D01*
X128299279Y-91417966D01*
X128290059Y-91448077D01*
X128282554Y-91472807D01*
X128277653Y-91489234D01*
X128276961Y-91491624D01*
X128271927Y-91508447D01*
X128264535Y-91532237D01*
X128256313Y-91558084D01*
X128255637Y-91560184D01*
X128248547Y-91582419D01*
X128243250Y-91599547D01*
X128240675Y-91608545D01*
X128240566Y-91609159D01*
X128246011Y-91609747D01*
X128259536Y-91608364D01*
X128263998Y-91607691D01*
X128279262Y-91605522D01*
X128303620Y-91602370D01*
X128333749Y-91598655D01*
X128366326Y-91594795D01*
X128367105Y-91594704D01*
X128407975Y-91589921D01*
X128454494Y-91584405D01*
X128499904Y-91578959D01*
X128526440Y-91575739D01*
X128566506Y-91570877D01*
X128611455Y-91565471D01*
X128654892Y-91560290D01*
X128681083Y-91557193D01*
X128716192Y-91552998D01*
X128752245Y-91548578D01*
X128784380Y-91544535D01*
X128802928Y-91542119D01*
X128822892Y-91539486D01*
X128852741Y-91535593D01*
X128889964Y-91530765D01*
X128932049Y-91525327D01*
X128976484Y-91519605D01*
X128996630Y-91517018D01*
X129043366Y-91510998D01*
X129090800Y-91504848D01*
X129135913Y-91498961D01*
X129175689Y-91493733D01*
X129207108Y-91489557D01*
X129215326Y-91488450D01*
X129249494Y-91483832D01*
X129284329Y-91479136D01*
X129314962Y-91475017D01*
X129330923Y-91472879D01*
X129371332Y-91467454D01*
X129419324Y-91460974D01*
X129470099Y-91454088D01*
X129518860Y-91447448D01*
X129560808Y-91441703D01*
X129562116Y-91441524D01*
X129583414Y-91438573D01*
X129613940Y-91434315D01*
X129652080Y-91428976D01*
X129696219Y-91422785D01*
X129744742Y-91415968D01*
X129796034Y-91408753D01*
X129848480Y-91401369D01*
X129900467Y-91394041D01*
X129950378Y-91386999D01*
X129996599Y-91380469D01*
X130037516Y-91374678D01*
X130071513Y-91369855D01*
X130096975Y-91366228D01*
X130112289Y-91364022D01*
X130115105Y-91363605D01*
X130128420Y-91361617D01*
X130151572Y-91358190D01*
X130182033Y-91353698D01*
X130217272Y-91348513D01*
X130246323Y-91344246D01*
X130286999Y-91338272D01*
X130328177Y-91332217D01*
X130366281Y-91326605D01*
X130397737Y-91321965D01*
X130411907Y-91319869D01*
X130437671Y-91316063D01*
X130472226Y-91310975D01*
X130511994Y-91305130D01*
X130553401Y-91299054D01*
X130577491Y-91295524D01*
X130618854Y-91289438D01*
X130661370Y-91283133D01*
X130701249Y-91277174D01*
X130734696Y-91272128D01*
X130749324Y-91269893D01*
X130785862Y-91264319D01*
X130827172Y-91258094D01*
X130865679Y-91252357D01*
X130874293Y-91251086D01*
X130908407Y-91246056D01*
X130951887Y-91239623D01*
X131001739Y-91232233D01*
X131054969Y-91224329D01*
X131108583Y-91216358D01*
X131159587Y-91208762D01*
X131204988Y-91201987D01*
X131208586Y-91201449D01*
X131242584Y-91196373D01*
X131282169Y-91190472D01*
X131320567Y-91184755D01*
X131333555Y-91182824D01*
X131366339Y-91177917D01*
X131399677Y-91172872D01*
X131428432Y-91168468D01*
X131439779Y-91166704D01*
X131470852Y-91161894D01*
X131511385Y-91155724D01*
X131561896Y-91148117D01*
X131622902Y-91138995D01*
X131694920Y-91128282D01*
X131778466Y-91115900D01*
X131836556Y-91107310D01*
X131877626Y-91101231D01*
X131919086Y-91095077D01*
X131957464Y-91089364D01*
X131989287Y-91084608D01*
X132005265Y-91082208D01*
X132093261Y-91069025D01*
X132192408Y-91054338D01*
X132301472Y-91038328D01*
X132419220Y-91021172D01*
X132544421Y-91003052D01*
X132675841Y-90984146D01*
X132812247Y-90964635D01*
X132817565Y-90963876D01*
X132850581Y-90959215D01*
X132894032Y-90953155D01*
X132945964Y-90945962D01*
X133004428Y-90937905D01*
X133067472Y-90929249D01*
X133133143Y-90920262D01*
X133199492Y-90911212D01*
X133264565Y-90902365D01*
X133326413Y-90893989D01*
X133383084Y-90886352D01*
X133414293Y-90882167D01*
X133448466Y-90877595D01*
X133483304Y-90872934D01*
X133513939Y-90868834D01*
X133529890Y-90866698D01*
X133554451Y-90863435D01*
X133586756Y-90859178D01*
X133622153Y-90854540D01*
X133648611Y-90851090D01*
X133683218Y-90846570D01*
X133718317Y-90841955D01*
X133749257Y-90837856D01*
X133767331Y-90835436D01*
X133785928Y-90833012D01*
X133814600Y-90829386D01*
X133851013Y-90824846D01*
X133892835Y-90819682D01*
X133937733Y-90814185D01*
X133967282Y-90810592D01*
X134040631Y-90801698D01*
X134102794Y-90794160D01*
X134154990Y-90787828D01*
X134198440Y-90782555D01*
X134234363Y-90778193D01*
X134263979Y-90774594D01*
X134288508Y-90771610D01*
X134309170Y-90769091D01*
X134326569Y-90766967D01*
X134357154Y-90763407D01*
X134389868Y-90759873D01*
X134414047Y-90757473D01*
X134443163Y-90754488D01*
X134476155Y-90750694D01*
X134498401Y-90747888D01*
X134520895Y-90745069D01*
X134552115Y-90741391D01*
X134588359Y-90737281D01*
X134625922Y-90733162D01*
X134635868Y-90732097D01*
X134672553Y-90728113D01*
X134708348Y-90724080D01*
X134739757Y-90720403D01*
X134763281Y-90717485D01*
X134768279Y-90716817D01*
X134816516Y-90716098D01*
X134868444Y-90725950D01*
X134922821Y-90745467D01*
X134978403Y-90773738D01*
X135033947Y-90809855D01*
X135088210Y-90852908D01*
X135139950Y-90901989D01*
X135187924Y-90956188D01*
X135230888Y-91014597D01*
X135267600Y-91076306D01*
X135272331Y-91085474D01*
X135290245Y-91122700D01*
X135303284Y-91155232D01*
X135312044Y-91186206D01*
X135317120Y-91218759D01*
X135319106Y-91256028D01*
X135318600Y-91301150D01*
X135317726Y-91324644D01*
X135311780Y-91465495D01*
X135306348Y-91595152D01*
X135301376Y-91714906D01*
X135296811Y-91826048D01*
X135292600Y-91929869D01*
X135288690Y-92027658D01*
X135285926Y-92097725D01*
X135283731Y-92152688D01*
X135281547Y-92205461D01*
X135279451Y-92254321D01*
X135277520Y-92297540D01*
X135275831Y-92333394D01*
X135274461Y-92360156D01*
X135273511Y-92375782D01*
X135272178Y-92397525D01*
X135270652Y-92428360D01*
X135269084Y-92464886D01*
X135267625Y-92503701D01*
X135266993Y-92522620D01*
X135265655Y-92560638D01*
X135264138Y-92597394D01*
X135262588Y-92629701D01*
X135261153Y-92654375D01*
X135260494Y-92663211D01*
X135259344Y-92680020D01*
X135257841Y-92707068D01*
X135256094Y-92742104D01*
X135254212Y-92782877D01*
X135252305Y-92827139D01*
X135251096Y-92856913D01*
X135249237Y-92903497D01*
X135246984Y-92959429D01*
X135244462Y-93021573D01*
X135241802Y-93086791D01*
X135239129Y-93151945D01*
X135236573Y-93213898D01*
X135235829Y-93231821D01*
X135233330Y-93292159D01*
X135230668Y-93356663D01*
X135227973Y-93422195D01*
X135225373Y-93485618D01*
X135222997Y-93543795D01*
X135220974Y-93593588D01*
X135220442Y-93606729D01*
X135218534Y-93652519D01*
X135216583Y-93696724D01*
X135214702Y-93736986D01*
X135213002Y-93770951D01*
X135211597Y-93796263D01*
X135210914Y-93806679D01*
X135209923Y-93821052D01*
X135208948Y-93837425D01*
X135207934Y-93857123D01*
X135206825Y-93881474D01*
X135205566Y-93911803D01*
X135204102Y-93949436D01*
X135202378Y-93995701D01*
X135200338Y-94051921D01*
X135198161Y-94112854D01*
X135196733Y-94149750D01*
X135195093Y-94186941D01*
X135193435Y-94220278D01*
X135191956Y-94245612D01*
X135191849Y-94247196D01*
X135190687Y-94266810D01*
X135189156Y-94296503D01*
X135187372Y-94333864D01*
X135185445Y-94376485D01*
X135183490Y-94421955D01*
X135182324Y-94450271D01*
X135180432Y-94496855D01*
X135178149Y-94552788D01*
X135175605Y-94614932D01*
X135172927Y-94680150D01*
X135170246Y-94745305D01*
X135167688Y-94807258D01*
X135166947Y-94825179D01*
X135164468Y-94885079D01*
X135161835Y-94948757D01*
X135159173Y-95013161D01*
X135156608Y-95075241D01*
X135154267Y-95131947D01*
X135152276Y-95180227D01*
X135151715Y-95193838D01*
X135149782Y-95239321D01*
X135147784Y-95283749D01*
X135145845Y-95324572D01*
X135144087Y-95359235D01*
X135142634Y-95385186D01*
X135142082Y-95393789D01*
X135140817Y-95414660D01*
X135139188Y-95445466D01*
X135137316Y-95483655D01*
X135135326Y-95526673D01*
X135133340Y-95571969D01*
X135132426Y-95593740D01*
X135130585Y-95638240D01*
X135128350Y-95692226D01*
X135125845Y-95752697D01*
X135123194Y-95816655D01*
X135120522Y-95881097D01*
X135117953Y-95943024D01*
X135117020Y-95965523D01*
X135114518Y-96025900D01*
X135111864Y-96090136D01*
X135109182Y-96155188D01*
X135106598Y-96218015D01*
X135104237Y-96275573D01*
X135102224Y-96324821D01*
X135101588Y-96340431D01*
X135099671Y-96386794D01*
X135097722Y-96432508D01*
X135095857Y-96474950D01*
X135094193Y-96511496D01*
X135092846Y-96539525D01*
X135092315Y-96549754D01*
X135091417Y-96566742D01*
X135090534Y-96584494D01*
X135089608Y-96604449D01*
X135088579Y-96628043D01*
X135087386Y-96656711D01*
X135085971Y-96691891D01*
X135084275Y-96735018D01*
X135082237Y-96787529D01*
X135079797Y-96850860D01*
X135079363Y-96862178D01*
X135077871Y-96897790D01*
X135076161Y-96933572D01*
X135074450Y-96965204D01*
X135073047Y-96987147D01*
X135071878Y-97005954D01*
X135070342Y-97034854D01*
X135068554Y-97071451D01*
X135066629Y-97113351D01*
X135064681Y-97158159D01*
X135063610Y-97183973D01*
X135061758Y-97229347D01*
X135059517Y-97284165D01*
X135057012Y-97345385D01*
X135054367Y-97409964D01*
X135051707Y-97474861D01*
X135049156Y-97537032D01*
X135048259Y-97558881D01*
X135045776Y-97619475D01*
X135043137Y-97684120D01*
X135040467Y-97749730D01*
X135037891Y-97813221D01*
X135035534Y-97871507D01*
X135033523Y-97921506D01*
X135032906Y-97936913D01*
X135031035Y-97981824D01*
X135029119Y-98024336D01*
X135027269Y-98062293D01*
X135025593Y-98093537D01*
X135024198Y-98115914D01*
X135023466Y-98124948D01*
X135022381Y-98143865D01*
X135023116Y-98157277D01*
X135024374Y-98160877D01*
X135031096Y-98161490D01*
X135049411Y-98162075D01*
X135078415Y-98162625D01*
X135117202Y-98163135D01*
X135164871Y-98163596D01*
X135220515Y-98164003D01*
X135283231Y-98164349D01*
X135352115Y-98164626D01*
X135426262Y-98164828D01*
X135504769Y-98164949D01*
X135574178Y-98164982D01*
X136119877Y-98164982D01*
X136119934Y-98135302D01*
X136119766Y-98122000D01*
X136119264Y-98097920D01*
X136118472Y-98064776D01*
X136117432Y-98024279D01*
X136116188Y-97978144D01*
X136114785Y-97928083D01*
X136113776Y-97893174D01*
X136111984Y-97831109D01*
X136109905Y-97757585D01*
X136107566Y-97673637D01*
X136104995Y-97580297D01*
X136102220Y-97478600D01*
X136099269Y-97369580D01*
X136096170Y-97254271D01*
X136092951Y-97133706D01*
X136089640Y-97008920D01*
X136086265Y-96880947D01*
X136082853Y-96750821D01*
X136082253Y-96727836D01*
X136080578Y-96662679D01*
X136078713Y-96588422D01*
X136076742Y-96508454D01*
X136074745Y-96426171D01*
X136072807Y-96344962D01*
X136071008Y-96268222D01*
X136069655Y-96209213D01*
X136066955Y-96090717D01*
X136064348Y-95977845D01*
X136061853Y-95871312D01*
X136059487Y-95771835D01*
X136057267Y-95680129D01*
X136055212Y-95596911D01*
X136053338Y-95522896D01*
X136051663Y-95458800D01*
X136050205Y-95405339D01*
X136048982Y-95363229D01*
X136048371Y-95343801D01*
X136047447Y-95312691D01*
X136046375Y-95271730D01*
X136045216Y-95223561D01*
X136044030Y-95170828D01*
X136042880Y-95116175D01*
X136041827Y-95062246D01*
X136041717Y-95056372D01*
X136040480Y-94994854D01*
X136038913Y-94925224D01*
X136037125Y-94851858D01*
X136035226Y-94779133D01*
X136033324Y-94711426D01*
X136032038Y-94668967D01*
X136030644Y-94623932D01*
X136029235Y-94576815D01*
X136027791Y-94526803D01*
X136026290Y-94473083D01*
X136024712Y-94414839D01*
X136023036Y-94351259D01*
X136021241Y-94281529D01*
X136019307Y-94204834D01*
X136017212Y-94120362D01*
X136014937Y-94027297D01*
X136012459Y-93924827D01*
X136009759Y-93812136D01*
X136006816Y-93688413D01*
X136004291Y-93581735D01*
X136002434Y-93503112D01*
X136000474Y-93420185D01*
X135998465Y-93335209D01*
X135996461Y-93250443D01*
X135994515Y-93168144D01*
X135992681Y-93090568D01*
X135991011Y-93019973D01*
X135989559Y-92958616D01*
X135989001Y-92935019D01*
X135987553Y-92875632D01*
X135986047Y-92817062D01*
X135984535Y-92761182D01*
X135983072Y-92709866D01*
X135981712Y-92664990D01*
X135980508Y-92628426D01*
X135979515Y-92602049D01*
X135979321Y-92597602D01*
X135978619Y-92580957D01*
X135977864Y-92560620D01*
X135977040Y-92535983D01*
X135976133Y-92506437D01*
X135975127Y-92471376D01*
X135974007Y-92430191D01*
X135972757Y-92382275D01*
X135971363Y-92327020D01*
X135969809Y-92263818D01*
X135968080Y-92192062D01*
X135966161Y-92111143D01*
X135964036Y-92020455D01*
X135961691Y-91919389D01*
X135959109Y-91807338D01*
X135956277Y-91683694D01*
X135954816Y-91619718D01*
X135953375Y-91552443D01*
X135952175Y-91488031D01*
X135951228Y-91427723D01*
X135950545Y-91372761D01*
X135950137Y-91324387D01*
X135950014Y-91283841D01*
X135950189Y-91252367D01*
X135950673Y-91231204D01*
X135951250Y-91222807D01*
X135964338Y-91165126D01*
X135987549Y-91104367D01*
X136019504Y-91042346D01*
X136058829Y-90980880D01*
X136104146Y-90921784D01*
X136154078Y-90866875D01*
X136207250Y-90817970D01*
X136262285Y-90776885D01*
X136310208Y-90749116D01*
X136362737Y-90727414D01*
X136412045Y-90716606D01*
X136460219Y-90716272D01*
X136468341Y-90717213D01*
X136489073Y-90719805D01*
X136520037Y-90723462D01*
X136559037Y-90727938D01*
X136603877Y-90732988D01*
X136652362Y-90738367D01*
X136702295Y-90743830D01*
X136751481Y-90749132D01*
X136797723Y-90754028D01*
X136804084Y-90754693D01*
X136837017Y-90758277D01*
X136872377Y-90762358D01*
X136903264Y-90766137D01*
X136907184Y-90766641D01*
X136932764Y-90769897D01*
X136966110Y-90774051D01*
X137002580Y-90778529D01*
X137032153Y-90782110D01*
X137125092Y-90793294D01*
X137208176Y-90803321D01*
X137281005Y-90812143D01*
X137343181Y-90819711D01*
X137394304Y-90825977D01*
X137433976Y-90830892D01*
X137461796Y-90834406D01*
X137469545Y-90835413D01*
X137546613Y-90845567D01*
X137625323Y-90855951D01*
X137699833Y-90865795D01*
X137727304Y-90869429D01*
X137766665Y-90874628D01*
X137811389Y-90880522D01*
X137854454Y-90886185D01*
X137874143Y-90888769D01*
X137908064Y-90893266D01*
X137942105Y-90897861D01*
X137971708Y-90901936D01*
X137988168Y-90904266D01*
X138006601Y-90906886D01*
X138034892Y-90910851D01*
X138070519Y-90915809D01*
X138110959Y-90921410D01*
X138153689Y-90927303D01*
X138166249Y-90929030D01*
X138209208Y-90934973D01*
X138261386Y-90942254D01*
X138319630Y-90950430D01*
X138380790Y-90959057D01*
X138441715Y-90967692D01*
X138499253Y-90975892D01*
X138503666Y-90976523D01*
X138575460Y-90986791D01*
X138636083Y-90995460D01*
X138686732Y-91002698D01*
X138728607Y-91008677D01*
X138762907Y-91013568D01*
X138790831Y-91017541D01*
X138813577Y-91020767D01*
X138832345Y-91023416D01*
X138848333Y-91025660D01*
X138862740Y-91027668D01*
X138872325Y-91028997D01*
X138898794Y-91032769D01*
X138931917Y-91037643D01*
X138966006Y-91042777D01*
X138978549Y-91044701D01*
X139004848Y-91048699D01*
X139040300Y-91053999D01*
X139081692Y-91060124D01*
X139125807Y-91066599D01*
X139169127Y-91072904D01*
X139212765Y-91079254D01*
X139256872Y-91085722D01*
X139298232Y-91091835D01*
X139333631Y-91097116D01*
X139359705Y-91101068D01*
X139399839Y-91107200D01*
X139450041Y-91114808D01*
X139508019Y-91123547D01*
X139571477Y-91133071D01*
X139638121Y-91143037D01*
X139705658Y-91153099D01*
X139737737Y-91157864D01*
X139777978Y-91163842D01*
X139819310Y-91169992D01*
X139857813Y-91175730D01*
X139889565Y-91180471D01*
X139900197Y-91182063D01*
X139934200Y-91187142D01*
X139973791Y-91193027D01*
X140012193Y-91198711D01*
X140025166Y-91200625D01*
X140061927Y-91206093D01*
X140103053Y-91212295D01*
X140141455Y-91218160D01*
X140153260Y-91219984D01*
X140178222Y-91223830D01*
X140207844Y-91228340D01*
X140243255Y-91233683D01*
X140285585Y-91240028D01*
X140335963Y-91247544D01*
X140395519Y-91256400D01*
X140465381Y-91266764D01*
X140531292Y-91276529D01*
X140571534Y-91282490D01*
X140612866Y-91288617D01*
X140651369Y-91294328D01*
X140683121Y-91299042D01*
X140693752Y-91300623D01*
X140715466Y-91303832D01*
X140747673Y-91308566D01*
X140788500Y-91314551D01*
X140836072Y-91321513D01*
X140888517Y-91329179D01*
X140943960Y-91337274D01*
X141000529Y-91345525D01*
X141056349Y-91353659D01*
X141109546Y-91361402D01*
X141158248Y-91368480D01*
X141171759Y-91370441D01*
X141199562Y-91374451D01*
X141236057Y-91379681D01*
X141277561Y-91385603D01*
X141320391Y-91391694D01*
X141346716Y-91395425D01*
X141388467Y-91401336D01*
X141431241Y-91407396D01*
X141471356Y-91413084D01*
X141505129Y-91417877D01*
X141521673Y-91420227D01*
X141555753Y-91424978D01*
X141592236Y-91429914D01*
X141624835Y-91434187D01*
X141634146Y-91435367D01*
X141664352Y-91439327D01*
X141695684Y-91443721D01*
X141721410Y-91447603D01*
X141721624Y-91447638D01*
X141743016Y-91450848D01*
X141772712Y-91455009D01*
X141806609Y-91459558D01*
X141837221Y-91463506D01*
X141871395Y-91467898D01*
X141905047Y-91472365D01*
X141934076Y-91476353D01*
X141952817Y-91479071D01*
X141974206Y-91482167D01*
X142003897Y-91486246D01*
X142037789Y-91490756D01*
X142068414Y-91494713D01*
X142158191Y-91506158D01*
X142237220Y-91516303D01*
X142307156Y-91525362D01*
X142362091Y-91532551D01*
X142412766Y-91539210D01*
X142453682Y-91544556D01*
X142487467Y-91548920D01*
X142516751Y-91552630D01*
X142544162Y-91556018D01*
X142572330Y-91559412D01*
X142603883Y-91563143D01*
X142633900Y-91566658D01*
X142673576Y-91571336D01*
X142713210Y-91576082D01*
X142749313Y-91580475D01*
X142778400Y-91584090D01*
X142790111Y-91585590D01*
X142834693Y-91591269D01*
X142876904Y-91596395D01*
X142915014Y-91600781D01*
X142947296Y-91604240D01*
X142972020Y-91606585D01*
X142987459Y-91607629D01*
X142991958Y-91607407D01*
X142991113Y-91600947D01*
X142987176Y-91585100D01*
X142980818Y-91562394D01*
X142974329Y-91540640D01*
X142965165Y-91510551D01*
X142956439Y-91481712D01*
X142949380Y-91458184D01*
X142946330Y-91447885D01*
X142944040Y-91440126D01*
X142941098Y-91430283D01*
X142937209Y-91417384D01*
X142932075Y-91400456D01*
X142925400Y-91378527D01*
X142916886Y-91350624D01*
X142906237Y-91315776D01*
X142893157Y-91273008D01*
X142877348Y-91221350D01*
X142858514Y-91159828D01*
X142836358Y-91087471D01*
X142832876Y-91076101D01*
X142821635Y-91039316D01*
X142811342Y-91005496D01*
X142802686Y-90976915D01*
X142796358Y-90955848D01*
X142793134Y-90944884D01*
X142789378Y-90932117D01*
X142782786Y-90910213D01*
X142774207Y-90881978D01*
X142764489Y-90850214D01*
X142761900Y-90841784D01*
X142751686Y-90808477D01*
X142742055Y-90776920D01*
X142733974Y-90750295D01*
X142728413Y-90731785D01*
X142727680Y-90729312D01*
X142723202Y-90714352D01*
X142715810Y-90689929D01*
X142706260Y-90658525D01*
X142695307Y-90622623D01*
X142684457Y-90587159D01*
X142670023Y-90540045D01*
X142653563Y-90486320D01*
X142636714Y-90431323D01*
X142621110Y-90380391D01*
X142614584Y-90359090D01*
X142603005Y-90321229D01*
X142592127Y-90285542D01*
X142582705Y-90254513D01*
X142575494Y-90230624D01*
X142571415Y-90216938D01*
X142566530Y-90200561D01*
X142558540Y-90174136D01*
X142548024Y-90139556D01*
X142535560Y-90098715D01*
X142521729Y-90053506D01*
X142507109Y-90005822D01*
X142492279Y-89957558D01*
X142477818Y-89910605D01*
X142467257Y-89876397D01*
X142457514Y-89844726D01*
X142448713Y-89815832D01*
X142441726Y-89792597D01*
X142437426Y-89777905D01*
X142437013Y-89776421D01*
X142432678Y-89760872D01*
X142426280Y-89738258D01*
X142419338Y-89713936D01*
X142401953Y-89633198D01*
X142393904Y-89546758D01*
X142395049Y-89457056D01*
X142405240Y-89366530D01*
X142424335Y-89277619D01*
X142449986Y-89198438D01*
X142479169Y-89133150D01*
X142516782Y-89065859D01*
X142560376Y-89000284D01*
X142607504Y-88940141D01*
X142650330Y-88894295D01*
X142664157Y-88881674D01*
X142686389Y-88862350D01*
X142715691Y-88837442D01*
X142750724Y-88808070D01*
X142790151Y-88775357D01*
X142832634Y-88740421D01*
X142876835Y-88704383D01*
X142883838Y-88698703D01*
X142930699Y-88660710D01*
X142978284Y-88622113D01*
X143024845Y-88584334D01*
X143068629Y-88548792D01*
X143107887Y-88516910D01*
X143140868Y-88490107D01*
X143165019Y-88470459D01*
X143186360Y-88453091D01*
X143216270Y-88428768D01*
X143253613Y-88398410D01*
X143297257Y-88362938D01*
X143346067Y-88323273D01*
X143398909Y-88280336D01*
X143454649Y-88235050D01*
X143512154Y-88188333D01*
X143570290Y-88141109D01*
X143627922Y-88094297D01*
X143683917Y-88048820D01*
X143737141Y-88005597D01*
X143786460Y-87965551D01*
X143830740Y-87929601D01*
X143868848Y-87898670D01*
X143899649Y-87873679D01*
X143911710Y-87863897D01*
X143959433Y-87825198D01*
X144000453Y-87791931D01*
X144036899Y-87762366D01*
X144070902Y-87734774D01*
X144104594Y-87707425D01*
X144140105Y-87678591D01*
X144179566Y-87646540D01*
X144225107Y-87609545D01*
X144261624Y-87579878D01*
X144337858Y-87517943D01*
X144405011Y-87463386D01*
X144463704Y-87415704D01*
X144514555Y-87374395D01*
X144558183Y-87338955D01*
X144595207Y-87308882D01*
X144626247Y-87283673D01*
X144651922Y-87262826D01*
X144672850Y-87245837D01*
X144689650Y-87232205D01*
X144702943Y-87221426D01*
X144713346Y-87212998D01*
X144721479Y-87206417D01*
X144727961Y-87201182D01*
X144730010Y-87199529D01*
X144739260Y-87192040D01*
X144757395Y-87177329D01*
X144783601Y-87156056D01*
X144817066Y-87128881D01*
X144856977Y-87096464D01*
X144902521Y-87059467D01*
X144952886Y-87018548D01*
X145007257Y-86974369D01*
X145064824Y-86927589D01*
X145124772Y-86878870D01*
X145133036Y-86872153D01*
X145197015Y-86820157D01*
X145261533Y-86767730D01*
X145325424Y-86715818D01*
X145387520Y-86665369D01*
X145446656Y-86617331D01*
X145501664Y-86572651D01*
X145551380Y-86532277D01*
X145594635Y-86497156D01*
X145630265Y-86468235D01*
X145651907Y-86450676D01*
X145693545Y-86416884D01*
X145736705Y-86381822D01*
X145779100Y-86347352D01*
X145818443Y-86315334D01*
X145852447Y-86287627D01*
X145876852Y-86267706D01*
X145894552Y-86253265D01*
X145921032Y-86231698D01*
X145955371Y-86203754D01*
X145996645Y-86170185D01*
X146043932Y-86131740D01*
X146096310Y-86089168D01*
X146152856Y-86043219D01*
X146212648Y-85994644D01*
X146274763Y-85944191D01*
X146338278Y-85892612D01*
X146357983Y-85876613D01*
X146421453Y-85825079D01*
X146483595Y-85774624D01*
X146543514Y-85725973D01*
X146600313Y-85679857D01*
X146653093Y-85637003D01*
X146700959Y-85598139D01*
X146743013Y-85563994D01*
X146778358Y-85535296D01*
X146806098Y-85512773D01*
X146825335Y-85497154D01*
X146829742Y-85493576D01*
X146855788Y-85472435D01*
X146889050Y-85445447D01*
X146927035Y-85414633D01*
X146967252Y-85382015D01*
X147007208Y-85349615D01*
X147025837Y-85334511D01*
X147066102Y-85301850D01*
X147113019Y-85263764D01*
X147163550Y-85222720D01*
X147214659Y-85181186D01*
X147263309Y-85141630D01*
X147294521Y-85116236D01*
X147336662Y-85081941D01*
X147380727Y-85046081D01*
X147424345Y-85010585D01*
X147465147Y-84977382D01*
X147500762Y-84948400D01*
X147526446Y-84927500D01*
X147544986Y-84912421D01*
X147572306Y-84890213D01*
X147607483Y-84861625D01*
X147649597Y-84827406D01*
X147697724Y-84788304D01*
X147750943Y-84745068D01*
X147808334Y-84698447D01*
X147868972Y-84649191D01*
X147931938Y-84598047D01*
X147996310Y-84545765D01*
X148023962Y-84523307D01*
X148098886Y-84462456D01*
X148180394Y-84396253D01*
X148266578Y-84326249D01*
X148355527Y-84253996D01*
X148445333Y-84181044D01*
X148534086Y-84108944D01*
X148619877Y-84039248D01*
X148700797Y-83973505D01*
X148774936Y-83913268D01*
X148810809Y-83884121D01*
X148871699Y-83834652D01*
X148930724Y-83786712D01*
X148987025Y-83740999D01*
X149039739Y-83698210D01*
X149088008Y-83659044D01*
X149130971Y-83624199D01*
X149167767Y-83594372D01*
X149197536Y-83570262D01*
X149219418Y-83552566D01*
X149232552Y-83541983D01*
X149233379Y-83541321D01*
X149253256Y-83524948D01*
X149268773Y-83511283D01*
X149277763Y-83502281D01*
X149279139Y-83500050D01*
X149273844Y-83495599D01*
X149259605Y-83487415D01*
X149238888Y-83476854D01*
X149224465Y-83469983D01*
X149119571Y-83420959D01*
X149010634Y-83369576D01*
X148982337Y-83356153D01*
X148915604Y-83324512D01*
X148856981Y-83296829D01*
X148807532Y-83273604D01*
X148769890Y-83256066D01*
X148748647Y-83246166D01*
X148720178Y-83232813D01*
X148688545Y-83217918D01*
X148663666Y-83206163D01*
X148632428Y-83191406D01*
X148601101Y-83176661D01*
X148573747Y-83163836D01*
X148557442Y-83156236D01*
X148537483Y-83146913D01*
X148509697Y-83133844D01*
X148477541Y-83118660D01*
X148444470Y-83102990D01*
X148439537Y-83100648D01*
X148410711Y-83087006D01*
X148386222Y-83075518D01*
X148368127Y-83067138D01*
X148358480Y-83062823D01*
X148357458Y-83062448D01*
X148351541Y-83059907D01*
X148336365Y-83052911D01*
X148313943Y-83042401D01*
X148286286Y-83029316D01*
X148272287Y-83022657D01*
X148239320Y-83006983D01*
X148207200Y-82991776D01*
X148179123Y-82978544D01*
X148158285Y-82968797D01*
X148154416Y-82967005D01*
X148135229Y-82958086D01*
X148108303Y-82945484D01*
X148077193Y-82930867D01*
X148045452Y-82915902D01*
X148045068Y-82915720D01*
X148009451Y-82898913D01*
X147982052Y-82886084D01*
X147959793Y-82875860D01*
X147939598Y-82866872D01*
X147918388Y-82857747D01*
X147893087Y-82847115D01*
X147862846Y-82834531D01*
X147780380Y-82796286D01*
X147709733Y-82754767D01*
X147650544Y-82709488D01*
X147602452Y-82659964D01*
X147565094Y-82605707D01*
X147538108Y-82546233D01*
X147521132Y-82481053D01*
X147513804Y-82409684D01*
X147513815Y-82365745D01*
X147515710Y-82325404D01*
X147518810Y-82287563D01*
X147523536Y-82249149D01*
X147530315Y-82207090D01*
X147539570Y-82158315D01*
X147548322Y-82115806D01*
X147553103Y-82093230D01*
X147557536Y-82072734D01*
X147561954Y-82053031D01*
X147566687Y-82032834D01*
X147572068Y-82010856D01*
X147578428Y-81985810D01*
X147586099Y-81956410D01*
X147595412Y-81921369D01*
X147606698Y-81879400D01*
X147620290Y-81829215D01*
X147636518Y-81769529D01*
X147655380Y-81700283D01*
X147665798Y-81662101D01*
X147678915Y-81614108D01*
X147694562Y-81556916D01*
X147712573Y-81491133D01*
X147732780Y-81417371D01*
X147755015Y-81336239D01*
X147779111Y-81248348D01*
X147804900Y-81154307D01*
X147832214Y-81054727D01*
X147860887Y-80950217D01*
X147890750Y-80841389D01*
X147921635Y-80728851D01*
X147953376Y-80613214D01*
X147985804Y-80495088D01*
X148018753Y-80375084D01*
X148052053Y-80253811D01*
X148085539Y-80131879D01*
X148119042Y-80009899D01*
X148152394Y-79888480D01*
X148185429Y-79768233D01*
X148217978Y-79649768D01*
X148249874Y-79533694D01*
X148280949Y-79420623D01*
X148311036Y-79311164D01*
X148339968Y-79205926D01*
X148367575Y-79105522D01*
X148393692Y-79010559D01*
X148418150Y-78921649D01*
X148440782Y-78839401D01*
X148461420Y-78764427D01*
X148479897Y-78697334D01*
X148496045Y-78638735D01*
X148509696Y-78589239D01*
X148520683Y-78549456D01*
X148528839Y-78519995D01*
X148533995Y-78501468D01*
X148535880Y-78494822D01*
X148542122Y-78473380D01*
X148550673Y-78443219D01*
X148561164Y-78405695D01*
X148573230Y-78362161D01*
X148586502Y-78313973D01*
X148600613Y-78262485D01*
X148615196Y-78209051D01*
X148629883Y-78155027D01*
X148644308Y-78101767D01*
X148658102Y-78050625D01*
X148670898Y-78002956D01*
X148682330Y-77960116D01*
X148692029Y-77923458D01*
X148699628Y-77894337D01*
X148704760Y-77874107D01*
X148707058Y-77864125D01*
X148707132Y-77863310D01*
X148700482Y-77862941D01*
X148684504Y-77864927D01*
X148662059Y-77868870D01*
X148649946Y-77871315D01*
X148617422Y-77878136D01*
X148582325Y-77885492D01*
X148551579Y-77891929D01*
X148548069Y-77892664D01*
X148518445Y-77898884D01*
X148487367Y-77905447D01*
X148463715Y-77910473D01*
X148442502Y-77914969D01*
X148413071Y-77921163D01*
X148379440Y-77928210D01*
X148348118Y-77934748D01*
X148310870Y-77942527D01*
X148266842Y-77951752D01*
X148221479Y-77961281D01*
X148180227Y-77969971D01*
X148179410Y-77970143D01*
X148144711Y-77977457D01*
X148111956Y-77984343D01*
X148084245Y-77990150D01*
X148064681Y-77994228D01*
X148060689Y-77995052D01*
X148043906Y-77998548D01*
X148017797Y-78004035D01*
X147985258Y-78010901D01*
X147949185Y-78018533D01*
X147912475Y-78026316D01*
X147878023Y-78033637D01*
X147848727Y-78039883D01*
X147827481Y-78044441D01*
X147826372Y-78044681D01*
X147807500Y-78048692D01*
X147781872Y-78054052D01*
X147754978Y-78059613D01*
X147754515Y-78059708D01*
X147729838Y-78064816D01*
X147695024Y-78072077D01*
X147652158Y-78081054D01*
X147603326Y-78091308D01*
X147550617Y-78102400D01*
X147496116Y-78113891D01*
X147441909Y-78125342D01*
X147390085Y-78136315D01*
X147376483Y-78139200D01*
X147342286Y-78146443D01*
X147309978Y-78153263D01*
X147282752Y-78158988D01*
X147263802Y-78162944D01*
X147260886Y-78163546D01*
X147244542Y-78166947D01*
X147219075Y-78172293D01*
X147187583Y-78178931D01*
X147153167Y-78186209D01*
X147142165Y-78188540D01*
X147107470Y-78195884D01*
X147074717Y-78202795D01*
X147047008Y-78208620D01*
X147027442Y-78212707D01*
X147023444Y-78213534D01*
X147007100Y-78216933D01*
X146981631Y-78222275D01*
X146950138Y-78228905D01*
X146915721Y-78236174D01*
X146904724Y-78238501D01*
X146868195Y-78246205D01*
X146831835Y-78253822D01*
X146799379Y-78260572D01*
X146774563Y-78265678D01*
X146770382Y-78266526D01*
X146740109Y-78272733D01*
X146701251Y-78280827D01*
X146657437Y-78290040D01*
X146612293Y-78299608D01*
X146569447Y-78308765D01*
X146532940Y-78316655D01*
X146508552Y-78321884D01*
X146476485Y-78328644D01*
X146441308Y-78335976D01*
X146414219Y-78341563D01*
X146379823Y-78348675D01*
X146344914Y-78355987D01*
X146314060Y-78362539D01*
X146295499Y-78366557D01*
X146271110Y-78371822D01*
X146239042Y-78378611D01*
X146203865Y-78385963D01*
X146176778Y-78391557D01*
X146142385Y-78398646D01*
X146107479Y-78405894D01*
X146076626Y-78412352D01*
X146058057Y-78416282D01*
X145984176Y-78432009D01*
X145913914Y-78446868D01*
X145849562Y-78460380D01*
X145793412Y-78472061D01*
X145758131Y-78479316D01*
X145718698Y-78487438D01*
X145673855Y-78496777D01*
X145630406Y-78505913D01*
X145608168Y-78510635D01*
X145578015Y-78517045D01*
X145539035Y-78525293D01*
X145494635Y-78534661D01*
X145448219Y-78544430D01*
X145403193Y-78553881D01*
X145401968Y-78554138D01*
X145352171Y-78564581D01*
X145296310Y-78576309D01*
X145239205Y-78588307D01*
X145185680Y-78599563D01*
X145148906Y-78607304D01*
X145105190Y-78616507D01*
X145059761Y-78626061D01*
X145016260Y-78635200D01*
X144978330Y-78643160D01*
X144953746Y-78648311D01*
X144873524Y-78662084D01*
X144800275Y-78667947D01*
X144731247Y-78665840D01*
X144663688Y-78655704D01*
X144605396Y-78640741D01*
X144528303Y-78611372D01*
X144456772Y-78571920D01*
X144391919Y-78523414D01*
X144334859Y-78466882D01*
X144286706Y-78403353D01*
X144248576Y-78333855D01*
X144233911Y-78297996D01*
X144231086Y-78289008D01*
X144225402Y-78269968D01*
X144217427Y-78242840D01*
X144207727Y-78209591D01*
X144196871Y-78172186D01*
X144185426Y-78132590D01*
X144173958Y-78092770D01*
X144163035Y-78054689D01*
X144153225Y-78020315D01*
X144145095Y-77991612D01*
X144139212Y-77970546D01*
X144136521Y-77960579D01*
X144133740Y-77950455D01*
X144127924Y-77929770D01*
X144119486Y-77899977D01*
X144108839Y-77862527D01*
X144096397Y-77818872D01*
X144082571Y-77770463D01*
X144067774Y-77718753D01*
X144066346Y-77713764D01*
X144051560Y-77662132D01*
X144037767Y-77613938D01*
X144025368Y-77570584D01*
X144014764Y-77533473D01*
X144006354Y-77504006D01*
X144000540Y-77483586D01*
X143997722Y-77473614D01*
X143997608Y-77473198D01*
X143993479Y-77458406D01*
X143986399Y-77433425D01*
X143976891Y-77400074D01*
X143965476Y-77360168D01*
X143952678Y-77315526D01*
X143939018Y-77267964D01*
X143925020Y-77219299D01*
X143911205Y-77171347D01*
X143898096Y-77125927D01*
X143886215Y-77084853D01*
X143876085Y-77049945D01*
X143868228Y-77023017D01*
X143865558Y-77013936D01*
X143857425Y-76985972D01*
X143847362Y-76950768D01*
X143836740Y-76913139D01*
X143828257Y-76882719D01*
X143815477Y-76836902D01*
X143800847Y-76785021D01*
X143785534Y-76731165D01*
X143770699Y-76679420D01*
X143757509Y-76633874D01*
X143752616Y-76617159D01*
X143746390Y-76595290D01*
X143741099Y-76575542D01*
X143739401Y-76568675D01*
X143738051Y-76561706D01*
X143736956Y-76555782D01*
X143735443Y-76551546D01*
X143732839Y-76549639D01*
X143728472Y-76550705D01*
X143721667Y-76555386D01*
X143711753Y-76564325D01*
X143698055Y-76578163D01*
X143679902Y-76597544D01*
X143656619Y-76623109D01*
X143627535Y-76655501D01*
X143591976Y-76695363D01*
X143549269Y-76743337D01*
X143508610Y-76788992D01*
X143476218Y-76825332D01*
X143446340Y-76858832D01*
X143420032Y-76888308D01*
X143398353Y-76912576D01*
X143382359Y-76930453D01*
X143373108Y-76940754D01*
X143371366Y-76942668D01*
X143365210Y-76949446D01*
X143352268Y-76963829D01*
X143334079Y-76984103D01*
X143312181Y-77008553D01*
X143295659Y-77027022D01*
X143268230Y-77057700D01*
X143235411Y-77094406D01*
X143200143Y-77133852D01*
X143165366Y-77172750D01*
X143139448Y-77201739D01*
X143110834Y-77233765D01*
X143076191Y-77272570D01*
X143037798Y-77315602D01*
X142997934Y-77360304D01*
X142958878Y-77404123D01*
X142930702Y-77435752D01*
X142893788Y-77477178D01*
X142854264Y-77521493D01*
X142814418Y-77566135D01*
X142776539Y-77608539D01*
X142742917Y-77646143D01*
X142721378Y-77670202D01*
X142655034Y-77744261D01*
X142595507Y-77810739D01*
X142541264Y-77871351D01*
X142490771Y-77927813D01*
X142442495Y-77981839D01*
X142394902Y-78035146D01*
X142346460Y-78089450D01*
X142295634Y-78146465D01*
X142274613Y-78170055D01*
X142235111Y-78214366D01*
X142194864Y-78259468D01*
X142155429Y-78303620D01*
X142118365Y-78345078D01*
X142085231Y-78382098D01*
X142057585Y-78412936D01*
X142040296Y-78432175D01*
X142013658Y-78461833D01*
X141987700Y-78490857D01*
X141964499Y-78516915D01*
X141946132Y-78537677D01*
X141937196Y-78547887D01*
X141926896Y-78559619D01*
X141909244Y-78579557D01*
X141885226Y-78606598D01*
X141855828Y-78639640D01*
X141822034Y-78677578D01*
X141784829Y-78719310D01*
X141745199Y-78763732D01*
X141704129Y-78809740D01*
X141662603Y-78856231D01*
X141621608Y-78902103D01*
X141582127Y-78946250D01*
X141545148Y-78987571D01*
X141511653Y-79024962D01*
X141482629Y-79057319D01*
X141459061Y-79083539D01*
X141446338Y-79097650D01*
X141427397Y-79118690D01*
X141401811Y-79147226D01*
X141371229Y-79181410D01*
X141337304Y-79219394D01*
X141301688Y-79259330D01*
X141266032Y-79299369D01*
X141259135Y-79307122D01*
X141224234Y-79346329D01*
X141189556Y-79385231D01*
X141156642Y-79422105D01*
X141127030Y-79455228D01*
X141102259Y-79482878D01*
X141083868Y-79503332D01*
X141080489Y-79507073D01*
X141065326Y-79523923D01*
X141043131Y-79548702D01*
X141015169Y-79579993D01*
X140982704Y-79616380D01*
X140947001Y-79656443D01*
X140909323Y-79698768D01*
X140870935Y-79741936D01*
X140868644Y-79744515D01*
X140816626Y-79803033D01*
X140772142Y-79853015D01*
X140734434Y-79895269D01*
X140702740Y-79930607D01*
X140676300Y-79959838D01*
X140654356Y-79983772D01*
X140636146Y-80003220D01*
X140620911Y-80018992D01*
X140607890Y-80031897D01*
X140596325Y-80042746D01*
X140585454Y-80052349D01*
X140574518Y-80061516D01*
X140562756Y-80071057D01*
X140560910Y-80072541D01*
X140487248Y-80126350D01*
X140411078Y-80171799D01*
X140333750Y-80208404D01*
X140256613Y-80235682D01*
X140181019Y-80253150D01*
X140108318Y-80260322D01*
X140044809Y-80257371D01*
X139971741Y-80242511D01*
X139905404Y-80217213D01*
X139845954Y-80181666D01*
X139793550Y-80136062D01*
X139748349Y-80080591D01*
X139710508Y-80015443D01*
X139680186Y-79940809D01*
X139657539Y-79856879D01*
X139643739Y-79772633D01*
X139637884Y-79698904D01*
X139636645Y-79616953D01*
X139639931Y-79530135D01*
X139647649Y-79441806D01*
X139654082Y-79391476D01*
X139657799Y-79367395D01*
X139663090Y-79335514D01*
X139669482Y-79298449D01*
X139676503Y-79258818D01*
X139683680Y-79219238D01*
X139690541Y-79182324D01*
X139696611Y-79150693D01*
X139701420Y-79126962D01*
X139703759Y-79116544D01*
X139706001Y-79105975D01*
X139709988Y-79085797D01*
X139715199Y-79058690D01*
X139721114Y-79027335D01*
X139722540Y-79019693D01*
X139729322Y-78983320D01*
X139736241Y-78946279D01*
X139742496Y-78912858D01*
X139747285Y-78887343D01*
X139747366Y-78886913D01*
X139753468Y-78854430D01*
X139760253Y-78818201D01*
X139765508Y-78790062D01*
X139769452Y-78769050D01*
X139775226Y-78738472D01*
X139782319Y-78701035D01*
X139790216Y-78659448D01*
X139798406Y-78616418D01*
X139800144Y-78607294D01*
X139809750Y-78556866D01*
X139817670Y-78515165D01*
X139824573Y-78478644D01*
X139831125Y-78443756D01*
X139837993Y-78406954D01*
X139845845Y-78364692D01*
X139850101Y-78341735D01*
X139858344Y-78297346D01*
X139865807Y-78257374D01*
X139873121Y-78218462D01*
X139880922Y-78177255D01*
X139889840Y-78130398D01*
X139900197Y-78076175D01*
X139908426Y-78033057D01*
X139916485Y-77990676D01*
X139923856Y-77951775D01*
X139930019Y-77919095D01*
X139934454Y-77895379D01*
X139935108Y-77891845D01*
X139939169Y-77869878D01*
X139943284Y-77847726D01*
X139947831Y-77823372D01*
X139953188Y-77794799D01*
X139959733Y-77759991D01*
X139967844Y-77716931D01*
X139977866Y-77663777D01*
X139987729Y-77611480D01*
X139998089Y-77556532D01*
X140008582Y-77500864D01*
X140018845Y-77446407D01*
X140028515Y-77395092D01*
X140037226Y-77348849D01*
X140044616Y-77309610D01*
X140050321Y-77279304D01*
X140053222Y-77263875D01*
X140057089Y-77243371D01*
X140062786Y-77213265D01*
X140069805Y-77176231D01*
X140077640Y-77134944D01*
X140085785Y-77092076D01*
X140087573Y-77082670D01*
X140095739Y-77039550D01*
X140103707Y-76997168D01*
X140110964Y-76958265D01*
X140117001Y-76925585D01*
X140121305Y-76901870D01*
X140121931Y-76898340D01*
X140125817Y-76876820D01*
X140131548Y-76845770D01*
X140138612Y-76807931D01*
X140146497Y-76766046D01*
X140154689Y-76722857D01*
X140156376Y-76714010D01*
X140164545Y-76671158D01*
X140172515Y-76629294D01*
X140179776Y-76591093D01*
X140185821Y-76559228D01*
X140190142Y-76536373D01*
X140190813Y-76532805D01*
X140195050Y-76510278D01*
X140201240Y-76477401D01*
X140209018Y-76436105D01*
X140218020Y-76388320D01*
X140227884Y-76335979D01*
X140238244Y-76281010D01*
X140248737Y-76225346D01*
X140259000Y-76170916D01*
X140266169Y-76132903D01*
X140276218Y-76079608D01*
X140284324Y-76036575D01*
X140290865Y-76001789D01*
X140296219Y-75973231D01*
X140300764Y-75948887D01*
X140304878Y-75926738D01*
X140308927Y-75904834D01*
X140312940Y-75883314D01*
X140318789Y-75852263D01*
X140325952Y-75814423D01*
X140333912Y-75772536D01*
X140342148Y-75729346D01*
X140343838Y-75720505D01*
X140354453Y-75664927D01*
X140363334Y-75618265D01*
X140371113Y-75577163D01*
X140378423Y-75538267D01*
X140385898Y-75498220D01*
X140393934Y-75454945D01*
X140401090Y-75416371D01*
X140407511Y-75381859D01*
X140413650Y-75349001D01*
X140419959Y-75315387D01*
X140426891Y-75278610D01*
X140434899Y-75236259D01*
X140444437Y-75185927D01*
X140453263Y-75139398D01*
X140462561Y-75090353D01*
X140471531Y-75042944D01*
X140479787Y-74999224D01*
X140486942Y-74961244D01*
X140492609Y-74931058D01*
X140496401Y-74910718D01*
X140496865Y-74908205D01*
X140501845Y-74881358D01*
X140508178Y-74847520D01*
X140514872Y-74811974D01*
X140518540Y-74792608D01*
X140522720Y-74770558D01*
X140526959Y-74748130D01*
X140531535Y-74723825D01*
X140536730Y-74696146D01*
X140542823Y-74663595D01*
X140550095Y-74624675D01*
X140558827Y-74577887D01*
X140569299Y-74521735D01*
X140581122Y-74458315D01*
X140588006Y-74421576D01*
X140594555Y-74386983D01*
X140600232Y-74357343D01*
X140604501Y-74335464D01*
X140606191Y-74327098D01*
X140609716Y-74309361D01*
X140614717Y-74283166D01*
X140620468Y-74252353D01*
X140625092Y-74227122D01*
X140633694Y-74179890D01*
X140640475Y-74143024D01*
X140645804Y-74114588D01*
X140650047Y-74092646D01*
X140653572Y-74075259D01*
X140656516Y-74061538D01*
X140660985Y-74040037D01*
X140664719Y-74020077D01*
X140665102Y-74017799D01*
X140667599Y-74003507D01*
X140672117Y-73978601D01*
X140678349Y-73944745D01*
X140685984Y-73903603D01*
X140694715Y-73856837D01*
X140704232Y-73806112D01*
X140714226Y-73753091D01*
X140715568Y-73745991D01*
X140722964Y-73706782D01*
X140731190Y-73663039D01*
X140739073Y-73620996D01*
X140743740Y-73596028D01*
X140750702Y-73558860D01*
X140758839Y-73515650D01*
X140766976Y-73472630D01*
X140772024Y-73446064D01*
X140779234Y-73408044D01*
X140787630Y-73363485D01*
X140796133Y-73318138D01*
X140803155Y-73280480D01*
X140809912Y-73244289D01*
X140816715Y-73208159D01*
X140822826Y-73175994D01*
X140827506Y-73151696D01*
X140827982Y-73149262D01*
X140833296Y-73121591D01*
X140839577Y-73088052D01*
X140845621Y-73055086D01*
X140846667Y-73049287D01*
X140851978Y-73020159D01*
X140857228Y-72992062D01*
X140861501Y-72969873D01*
X140862490Y-72964933D01*
X140865579Y-72949198D01*
X140870406Y-72923982D01*
X140876439Y-72892092D01*
X140883144Y-72856334D01*
X140887358Y-72833715D01*
X140894219Y-72796974D01*
X140900743Y-72762379D01*
X140906396Y-72732739D01*
X140910644Y-72710861D01*
X140912322Y-72702497D01*
X140916156Y-72683150D01*
X140921254Y-72656375D01*
X140926691Y-72627047D01*
X140928312Y-72618143D01*
X140933497Y-72589776D01*
X140939748Y-72556005D01*
X140946579Y-72519411D01*
X140953503Y-72482573D01*
X140960034Y-72448072D01*
X140965686Y-72418488D01*
X140969971Y-72396400D01*
X140972189Y-72385388D01*
X140973105Y-72374534D01*
X140971386Y-72371329D01*
X140964722Y-72374082D01*
X140949258Y-72381598D01*
X140927223Y-72392766D01*
X140900844Y-72406472D01*
X140897847Y-72408048D01*
X140866332Y-72424577D01*
X140827935Y-72444625D01*
X140786884Y-72465989D01*
X140747408Y-72486464D01*
X140735929Y-72492402D01*
X140668297Y-72527360D01*
X140610479Y-72557252D01*
X140561187Y-72582744D01*
X140519131Y-72604504D01*
X140483023Y-72623199D01*
X140451573Y-72639496D01*
X140423493Y-72654062D01*
X140397493Y-72667566D01*
X140384453Y-72674344D01*
X140351057Y-72691696D01*
X140310927Y-72712527D01*
X140268427Y-72734571D01*
X140227922Y-72755566D01*
X140215745Y-72761874D01*
X140177637Y-72781623D01*
X140136844Y-72802786D01*
X140097458Y-72823239D01*
X140063571Y-72840857D01*
X140053285Y-72846212D01*
X140026810Y-72859951D01*
X139992024Y-72877931D01*
X139951738Y-72898702D01*
X139908766Y-72920814D01*
X139865923Y-72942817D01*
X139853334Y-72949272D01*
X139814152Y-72969404D01*
X139776845Y-72988659D01*
X139743473Y-73005968D01*
X139716098Y-73020259D01*
X139696780Y-73030463D01*
X139690874Y-73033650D01*
X139676867Y-73041124D01*
X139653591Y-73053315D01*
X139622909Y-73069256D01*
X139586683Y-73087983D01*
X139546775Y-73108531D01*
X139509668Y-73127567D01*
X139464829Y-73150607D01*
X139419082Y-73174249D01*
X139374996Y-73197156D01*
X139335145Y-73217987D01*
X139302098Y-73235406D01*
X139284724Y-73244672D01*
X139228628Y-73274034D01*
X139166260Y-73305348D01*
X139102969Y-73335976D01*
X139044108Y-73363281D01*
X139043690Y-73363470D01*
X139020910Y-73372778D01*
X138989446Y-73384337D01*
X138952654Y-73397040D01*
X138913886Y-73409780D01*
X138876497Y-73421449D01*
X138843840Y-73430941D01*
X138822900Y-73436335D01*
X138719194Y-73455466D01*
X138621047Y-73463444D01*
X138528351Y-73460255D01*
X138441003Y-73445887D01*
X138358896Y-73420327D01*
X138281927Y-73383563D01*
X138253727Y-73366473D01*
X138188413Y-73318602D01*
X138128582Y-73262302D01*
X138073340Y-73196538D01*
X138021791Y-73120272D01*
X137985003Y-73055536D01*
X137974114Y-73035079D01*
X137958405Y-73005675D01*
X137938979Y-72969382D01*
X137916938Y-72928258D01*
X137893385Y-72884361D01*
X137869421Y-72839748D01*
X137867858Y-72836839D01*
X137844286Y-72792982D01*
X137821389Y-72750370D01*
X137800190Y-72710910D01*
X137781716Y-72676514D01*
X137766991Y-72649088D01*
X137757042Y-72630543D01*
X137756257Y-72629078D01*
X137740346Y-72599386D01*
X137722550Y-72566174D01*
X137707709Y-72538475D01*
X137697325Y-72519096D01*
X137682349Y-72491150D01*
X137664093Y-72457084D01*
X137643867Y-72419345D01*
X137622984Y-72380380D01*
X137618133Y-72371329D01*
X137596496Y-72330923D01*
X137574480Y-72289747D01*
X137553604Y-72250644D01*
X137535384Y-72216455D01*
X137521336Y-72190023D01*
X137519734Y-72186999D01*
X137505221Y-72159745D01*
X137491767Y-72134743D01*
X137481090Y-72115171D01*
X137475825Y-72105769D01*
X137468225Y-72092142D01*
X137456691Y-72070929D01*
X137443102Y-72045605D01*
X137435226Y-72030788D01*
X137410598Y-71984379D01*
X137386997Y-71940118D01*
X137362441Y-71894301D01*
X137334946Y-71843224D01*
X137318147Y-71812091D01*
X137299681Y-71777804D01*
X137280014Y-71741137D01*
X137261599Y-71706671D01*
X137247885Y-71680874D01*
X137216548Y-71621819D01*
X137189343Y-71570832D01*
X137166827Y-71528951D01*
X137150903Y-71499668D01*
X137129989Y-71461223D01*
X137103954Y-71412810D01*
X137072538Y-71353945D01*
X137060316Y-71330960D01*
X137046365Y-71304858D01*
X137033411Y-71280901D01*
X137023338Y-71262559D01*
X137019625Y-71255978D01*
X137012277Y-71242775D01*
X137000838Y-71221683D01*
X136987023Y-71195881D01*
X136975815Y-71174748D01*
X136960420Y-71145679D01*
X136945205Y-71117095D01*
X136932274Y-71092939D01*
X136925839Y-71081021D01*
X136918228Y-71066915D01*
X136905752Y-71043678D01*
X136889427Y-71013205D01*
X136870268Y-70977392D01*
X136849290Y-70938135D01*
X136832169Y-70906064D01*
X136802006Y-70849553D01*
X136777009Y-70802751D01*
X136756468Y-70764336D01*
X136739674Y-70732986D01*
X136725920Y-70707382D01*
X136714495Y-70686200D01*
X136704691Y-70668119D01*
X136695799Y-70651819D01*
X136694736Y-70649877D01*
X136685907Y-70633705D01*
X136676253Y-70615914D01*
X136665065Y-70595183D01*
X136651634Y-70570192D01*
X136635252Y-70539619D01*
X136615209Y-70502142D01*
X136590796Y-70456439D01*
X136561305Y-70401190D01*
X136557303Y-70393690D01*
X136535608Y-70353057D01*
X136514933Y-70314375D01*
X136496293Y-70279542D01*
X136480703Y-70250452D01*
X136469179Y-70229002D01*
X136463632Y-70218734D01*
X136453465Y-70199861D01*
X136439581Y-70173872D01*
X136424081Y-70144706D01*
X136413657Y-70125007D01*
X136399180Y-70097743D01*
X136385755Y-70072735D01*
X136375098Y-70053162D01*
X136369847Y-70043777D01*
X136362247Y-70030150D01*
X136350712Y-70008937D01*
X136337123Y-69983613D01*
X136329245Y-69968795D01*
X136313743Y-69939608D01*
X136297720Y-69909571D01*
X136283800Y-69883599D01*
X136279203Y-69875068D01*
X136266304Y-69851122D01*
X136250557Y-69821787D01*
X136234990Y-69792706D01*
X136232258Y-69787590D01*
X136216757Y-69758575D01*
X136200201Y-69727606D01*
X136185789Y-69700673D01*
X136183815Y-69696987D01*
X136169662Y-69670548D01*
X136153104Y-69639597D01*
X136137623Y-69610644D01*
X136137016Y-69609508D01*
X136122024Y-69581482D01*
X136106134Y-69551820D01*
X136092621Y-69526632D01*
X136091827Y-69525154D01*
X136083727Y-69510080D01*
X136070655Y-69485752D01*
X136053554Y-69453927D01*
X136033366Y-69416358D01*
X136011036Y-69374803D01*
X135987505Y-69331015D01*
X135981025Y-69318955D01*
X135952635Y-69266120D01*
X135920314Y-69205962D01*
X135886043Y-69142168D01*
X135851803Y-69078427D01*
X135819574Y-69018424D01*
X135796408Y-68975290D01*
X135771585Y-68929084D01*
X135747053Y-68883454D01*
X135723872Y-68840369D01*
X135703104Y-68801800D01*
X135685808Y-68769715D01*
X135673045Y-68746086D01*
X135670276Y-68740972D01*
X135656251Y-68714619D01*
X135643934Y-68690604D01*
X135634934Y-68672111D01*
X135631464Y-68664145D01*
X135625050Y-68652432D01*
X135618886Y-68648659D01*
X135618842Y-68648673D01*
X135613251Y-68654785D01*
X135603800Y-68669201D01*
X135592307Y-68689093D01*
X135589506Y-68694258D01*
X135579004Y-68713887D01*
X135564045Y-68741879D01*
X135546050Y-68775569D01*
X135526445Y-68812293D01*
X135507820Y-68847196D01*
X135486804Y-68886518D01*
X135464911Y-68927360D01*
X135443909Y-68966431D01*
X135425566Y-69000442D01*
X135413800Y-69022153D01*
X135396033Y-69055056D01*
X135375298Y-69093814D01*
X135354389Y-69133190D01*
X135338822Y-69162743D01*
X135324034Y-69190806D01*
X135311107Y-69215052D01*
X135301249Y-69233234D01*
X135295670Y-69243105D01*
X135295112Y-69243973D01*
X135290629Y-69251657D01*
X135281626Y-69268044D01*
X135269387Y-69290769D01*
X135255196Y-69317468D01*
X135254410Y-69318955D01*
X135240007Y-69346142D01*
X135221284Y-69381341D01*
X135199839Y-69421560D01*
X135177268Y-69463802D01*
X135155169Y-69505074D01*
X135152778Y-69509533D01*
X135131850Y-69548562D01*
X135111206Y-69587065D01*
X135092176Y-69622561D01*
X135076091Y-69652569D01*
X135064282Y-69674608D01*
X135062335Y-69678242D01*
X135047323Y-69706258D01*
X135031422Y-69735912D01*
X135017908Y-69761099D01*
X135017105Y-69762596D01*
X135007277Y-69780926D01*
X134993056Y-69807485D01*
X134975937Y-69839478D01*
X134957416Y-69874112D01*
X134945214Y-69896938D01*
X134925112Y-69934512D01*
X134901167Y-69979203D01*
X134875465Y-70027124D01*
X134850090Y-70074389D01*
X134829601Y-70112510D01*
X134808393Y-70151965D01*
X134787030Y-70191752D01*
X134766993Y-70229109D01*
X134749763Y-70261276D01*
X134736819Y-70285491D01*
X134735766Y-70287467D01*
X134720574Y-70315877D01*
X134701890Y-70350696D01*
X134682174Y-70387342D01*
X134665267Y-70418684D01*
X134640665Y-70464227D01*
X134620849Y-70500954D01*
X134604650Y-70531040D01*
X134590903Y-70556657D01*
X134578441Y-70579980D01*
X134566097Y-70603181D01*
X134554586Y-70624884D01*
X134542240Y-70648103D01*
X134525451Y-70679565D01*
X134505695Y-70716510D01*
X134484450Y-70756175D01*
X134463191Y-70795798D01*
X134461020Y-70799841D01*
X134439538Y-70839875D01*
X134417625Y-70880782D01*
X134396840Y-70919644D01*
X134378743Y-70953544D01*
X134364896Y-70979565D01*
X134364111Y-70981046D01*
X134347587Y-71011941D01*
X134330160Y-71044108D01*
X134314414Y-71072793D01*
X134306898Y-71086267D01*
X134295577Y-71106646D01*
X134287117Y-71122402D01*
X134283005Y-71130753D01*
X134282829Y-71131346D01*
X134280023Y-71137438D01*
X134272412Y-71152176D01*
X134261206Y-71173251D01*
X134249536Y-71194833D01*
X134231290Y-71228512D01*
X134210604Y-71266956D01*
X134190861Y-71303870D01*
X134183101Y-71318463D01*
X134168571Y-71345713D01*
X134155105Y-71370711D01*
X134144418Y-71390284D01*
X134139146Y-71399693D01*
X134131546Y-71413320D01*
X134120012Y-71434533D01*
X134106423Y-71459857D01*
X134098547Y-71474675D01*
X134082456Y-71504995D01*
X134065285Y-71537258D01*
X134049949Y-71565985D01*
X134045309Y-71574650D01*
X134030387Y-71602485D01*
X134011170Y-71638338D01*
X133989266Y-71679210D01*
X133966281Y-71722103D01*
X133943822Y-71764019D01*
X133923496Y-71801958D01*
X133907190Y-71832399D01*
X133891284Y-71862084D01*
X133873482Y-71895287D01*
X133858613Y-71923002D01*
X133848509Y-71941853D01*
X133833746Y-71969436D01*
X133815549Y-72003455D01*
X133795147Y-72041618D01*
X133773764Y-72081631D01*
X133764207Y-72099521D01*
X133742844Y-72139496D01*
X133721967Y-72178531D01*
X133702787Y-72214362D01*
X133686516Y-72244724D01*
X133674367Y-72267355D01*
X133670532Y-72274478D01*
X133658792Y-72296288D01*
X133643000Y-72325677D01*
X133625001Y-72359205D01*
X133606644Y-72393434D01*
X133601747Y-72402571D01*
X133583621Y-72436386D01*
X133565349Y-72470451D01*
X133548776Y-72501329D01*
X133535748Y-72525582D01*
X133533014Y-72530665D01*
X133519532Y-72555753D01*
X133501166Y-72589975D01*
X133478925Y-72631445D01*
X133453819Y-72678280D01*
X133426861Y-72728594D01*
X133399060Y-72780501D01*
X133393987Y-72789976D01*
X133378978Y-72817994D01*
X133363080Y-72847649D01*
X133349567Y-72872836D01*
X133348765Y-72874330D01*
X133338940Y-72892665D01*
X133324728Y-72919230D01*
X133307624Y-72951231D01*
X133289124Y-72985872D01*
X133276954Y-73008672D01*
X133243013Y-73070647D01*
X133212366Y-73122874D01*
X133183749Y-73167241D01*
X133155900Y-73205637D01*
X133127555Y-73239950D01*
X133108248Y-73260979D01*
X133046364Y-73319636D01*
X132982766Y-73367008D01*
X132915344Y-73404215D01*
X132841987Y-73432378D01*
X132760586Y-73452617D01*
X132740230Y-73456315D01*
X132669070Y-73463419D01*
X132590380Y-73462088D01*
X132505617Y-73452572D01*
X132416236Y-73435122D01*
X132323692Y-73409987D01*
X132229442Y-73377419D01*
X132189822Y-73361635D01*
X132172308Y-73353945D01*
X132147789Y-73342598D01*
X132118511Y-73328696D01*
X132086716Y-73313339D01*
X132054648Y-73297627D01*
X132024552Y-73282661D01*
X131998671Y-73269542D01*
X131979250Y-73259371D01*
X131968531Y-73253248D01*
X131967774Y-73252717D01*
X131960712Y-73248690D01*
X131944071Y-73239796D01*
X131919402Y-73226846D01*
X131888260Y-73210651D01*
X131852197Y-73192022D01*
X131817811Y-73174357D01*
X131775620Y-73152702D01*
X131734143Y-73131352D01*
X131695610Y-73111460D01*
X131662248Y-73094177D01*
X131636286Y-73080655D01*
X131624109Y-73074255D01*
X131602391Y-73062847D01*
X131572349Y-73047182D01*
X131536776Y-73028712D01*
X131498465Y-73008887D01*
X131461649Y-72989898D01*
X131383469Y-72949597D01*
X131307365Y-72910252D01*
X131229367Y-72869808D01*
X131145509Y-72826209D01*
X131117983Y-72811878D01*
X131086527Y-72795531D01*
X131047705Y-72775411D01*
X131005269Y-72753459D01*
X130962967Y-72731615D01*
X130936778Y-72718114D01*
X130895579Y-72696870D01*
X130850748Y-72673714D01*
X130806369Y-72650758D01*
X130766527Y-72630114D01*
X130746200Y-72619561D01*
X130709028Y-72600244D01*
X130668492Y-72579179D01*
X130629252Y-72558790D01*
X130595969Y-72541496D01*
X130593112Y-72540012D01*
X130523966Y-72504123D01*
X130465086Y-72473656D01*
X130415672Y-72448223D01*
X130374928Y-72427436D01*
X130342054Y-72410907D01*
X130316252Y-72398249D01*
X130296723Y-72389073D01*
X130282670Y-72382991D01*
X130273293Y-72379616D01*
X130267794Y-72378559D01*
X130265375Y-72379432D01*
X130265068Y-72380610D01*
X130266234Y-72391427D01*
X130269303Y-72410500D01*
X130273631Y-72433851D01*
X130273983Y-72435639D01*
X130278633Y-72459489D01*
X130284603Y-72490634D01*
X130291369Y-72526280D01*
X130298408Y-72563635D01*
X130305193Y-72599907D01*
X130311202Y-72632304D01*
X130315910Y-72658032D01*
X130318793Y-72674301D01*
X130318806Y-72674379D01*
X130322156Y-72692575D01*
X130326613Y-72714907D01*
X130327938Y-72721243D01*
X130329929Y-72730821D01*
X130332307Y-72742700D01*
X130335315Y-72758161D01*
X130339194Y-72778487D01*
X130344187Y-72804959D01*
X130350535Y-72838859D01*
X130358480Y-72881469D01*
X130368264Y-72934069D01*
X130377481Y-72983678D01*
X130383854Y-73017714D01*
X130390443Y-73052430D01*
X130396329Y-73083012D01*
X130399518Y-73099275D01*
X130405019Y-73127673D01*
X130411358Y-73161454D01*
X130417235Y-73193689D01*
X130417670Y-73196126D01*
X130428996Y-73259047D01*
X130440117Y-73319325D01*
X130452048Y-73382403D01*
X130461895Y-73433567D01*
X130468939Y-73470121D01*
X130476102Y-73507549D01*
X130482552Y-73541493D01*
X130487457Y-73567595D01*
X130487515Y-73567909D01*
X130493324Y-73599113D01*
X130498888Y-73628909D01*
X130504567Y-73659209D01*
X130510721Y-73691925D01*
X130517711Y-73728968D01*
X130525898Y-73772250D01*
X130535640Y-73823683D01*
X130547299Y-73885179D01*
X130549343Y-73895954D01*
X130559114Y-73947535D01*
X130568985Y-73999765D01*
X130578474Y-74050078D01*
X130587096Y-74095906D01*
X130594368Y-74134680D01*
X130599806Y-74163833D01*
X130599955Y-74164638D01*
X130606667Y-74200803D01*
X130613467Y-74237433D01*
X130619575Y-74270321D01*
X130624209Y-74295258D01*
X130624320Y-74295855D01*
X130628165Y-74316356D01*
X130633855Y-74346457D01*
X130640882Y-74383485D01*
X130648739Y-74424766D01*
X130656918Y-74467628D01*
X130658721Y-74477061D01*
X130670745Y-74540035D01*
X130680904Y-74593453D01*
X130689708Y-74640028D01*
X130697671Y-74682470D01*
X130705303Y-74723494D01*
X130708265Y-74739496D01*
X130724325Y-74825987D01*
X130741748Y-74919089D01*
X130759471Y-75013152D01*
X130776434Y-75102527D01*
X130777508Y-75108155D01*
X130785673Y-75151008D01*
X130793636Y-75192872D01*
X130800889Y-75231073D01*
X130806924Y-75262938D01*
X130811234Y-75285792D01*
X130811903Y-75289361D01*
X130815751Y-75309869D01*
X130821411Y-75339982D01*
X130828379Y-75377024D01*
X130836154Y-75418320D01*
X130844231Y-75461194D01*
X130845997Y-75470566D01*
X130854712Y-75516833D01*
X130863835Y-75565305D01*
X130872690Y-75612398D01*
X130880605Y-75654527D01*
X130886904Y-75688109D01*
X130887120Y-75689262D01*
X130893938Y-75725631D01*
X130900886Y-75762668D01*
X130907161Y-75796087D01*
X130911958Y-75821603D01*
X130912040Y-75822042D01*
X130918138Y-75854525D01*
X130924912Y-75890754D01*
X130930154Y-75918893D01*
X130935922Y-75949878D01*
X130942720Y-75986288D01*
X130950153Y-76026027D01*
X130957829Y-76066998D01*
X130965353Y-76107103D01*
X130972332Y-76144246D01*
X130978373Y-76176329D01*
X130983081Y-76201256D01*
X130986064Y-76216930D01*
X130986734Y-76220382D01*
X130990354Y-76239003D01*
X130995821Y-76267533D01*
X131002687Y-76303599D01*
X131010501Y-76344825D01*
X131018817Y-76388836D01*
X131027185Y-76433258D01*
X131035157Y-76475716D01*
X131042284Y-76513836D01*
X131048118Y-76545243D01*
X131048706Y-76548426D01*
X131052719Y-76569946D01*
X131058567Y-76600998D01*
X131065731Y-76638838D01*
X131073690Y-76680724D01*
X131081927Y-76723914D01*
X131083617Y-76732756D01*
X131092772Y-76780660D01*
X131100391Y-76820607D01*
X131107035Y-76855570D01*
X131113265Y-76888521D01*
X131119642Y-76922435D01*
X131126726Y-76960285D01*
X131135078Y-77005046D01*
X131143139Y-77048303D01*
X131149957Y-77084888D01*
X131156838Y-77121797D01*
X131163028Y-77154982D01*
X131167772Y-77180397D01*
X131168192Y-77182645D01*
X131173976Y-77213694D01*
X131180546Y-77249099D01*
X131186166Y-77279496D01*
X131191012Y-77305444D01*
X131197419Y-77339300D01*
X131204561Y-77376707D01*
X131211607Y-77413306D01*
X131211710Y-77413838D01*
X131218717Y-77450181D01*
X131225805Y-77487195D01*
X131232160Y-77520601D01*
X131236964Y-77546124D01*
X131237056Y-77546618D01*
X131244850Y-77588367D01*
X131253628Y-77635248D01*
X131262343Y-77681679D01*
X131269950Y-77722077D01*
X131270740Y-77726261D01*
X131274057Y-77743989D01*
X131278919Y-77770170D01*
X131284613Y-77800969D01*
X131289269Y-77826237D01*
X131295678Y-77860768D01*
X131302396Y-77896451D01*
X131308472Y-77928255D01*
X131311723Y-77944957D01*
X131315609Y-77964872D01*
X131320374Y-77989649D01*
X131326189Y-78020212D01*
X131333229Y-78057487D01*
X131341669Y-78102401D01*
X131351681Y-78155878D01*
X131363440Y-78218843D01*
X131377120Y-78292223D01*
X131392895Y-78376943D01*
X131393320Y-78379226D01*
X131399579Y-78412503D01*
X131405621Y-78443996D01*
X131410779Y-78470268D01*
X131414387Y-78487885D01*
X131414535Y-78488574D01*
X131418068Y-78506068D01*
X131423021Y-78532177D01*
X131428703Y-78563200D01*
X131433767Y-78591673D01*
X131439440Y-78623536D01*
X131444909Y-78653341D01*
X131449518Y-78677552D01*
X131452387Y-78691649D01*
X131456022Y-78709410D01*
X131460908Y-78734880D01*
X131466169Y-78763455D01*
X131467855Y-78772879D01*
X131473107Y-78802014D01*
X131478313Y-78830116D01*
X131482563Y-78852304D01*
X131483548Y-78857233D01*
X131486637Y-78872967D01*
X131491464Y-78898183D01*
X131497496Y-78930074D01*
X131504202Y-78965832D01*
X131508416Y-78988451D01*
X131515280Y-79025192D01*
X131521813Y-79059787D01*
X131527480Y-79089427D01*
X131531745Y-79111306D01*
X131533435Y-79119668D01*
X131536927Y-79137251D01*
X131542116Y-79164456D01*
X131548512Y-79198603D01*
X131555621Y-79237011D01*
X131562950Y-79277000D01*
X131570006Y-79315888D01*
X131576298Y-79350996D01*
X131581331Y-79379642D01*
X131582824Y-79388352D01*
X131585646Y-79408805D01*
X131588892Y-79438483D01*
X131592247Y-79474136D01*
X131595395Y-79512516D01*
X131596902Y-79533282D01*
X131600581Y-79645746D01*
X131595561Y-79749720D01*
X131581867Y-79845094D01*
X131559526Y-79931756D01*
X131528563Y-80009596D01*
X131489004Y-80078502D01*
X131462240Y-80114199D01*
X131414225Y-80163470D01*
X131359361Y-80202805D01*
X131296684Y-80232824D01*
X131259617Y-80245274D01*
X131224994Y-80252405D01*
X131182262Y-80256657D01*
X131135482Y-80257991D01*
X131088715Y-80256368D01*
X131046023Y-80251748D01*
X131024256Y-80247569D01*
X130928563Y-80218686D01*
X130836190Y-80178052D01*
X130747910Y-80126152D01*
X130664496Y-80063470D01*
X130586721Y-79990490D01*
X130550874Y-79951082D01*
X130537909Y-79936232D01*
X130517537Y-79913103D01*
X130490682Y-79882735D01*
X130458268Y-79846165D01*
X130421219Y-79804431D01*
X130380459Y-79758570D01*
X130336912Y-79709621D01*
X130291500Y-79658621D01*
X130245149Y-79606609D01*
X130198781Y-79554622D01*
X130153321Y-79503697D01*
X130109693Y-79454874D01*
X130068819Y-79409189D01*
X130031625Y-79367681D01*
X130027747Y-79363358D01*
X130009828Y-79343330D01*
X129985853Y-79316450D01*
X129958050Y-79285224D01*
X129928649Y-79252154D01*
X129902562Y-79222768D01*
X129874904Y-79191640D01*
X129848021Y-79161478D01*
X129823788Y-79134378D01*
X129804080Y-79112437D01*
X129790773Y-79097752D01*
X129790744Y-79097720D01*
X129773748Y-79079023D01*
X129751976Y-79054882D01*
X129728944Y-79029201D01*
X129717596Y-79016490D01*
X129699311Y-78995976D01*
X129674468Y-78968113D01*
X129644256Y-78934235D01*
X129609866Y-78895678D01*
X129572489Y-78853774D01*
X129533314Y-78809859D01*
X129493532Y-78765266D01*
X129454333Y-78721330D01*
X129416907Y-78679385D01*
X129382445Y-78640764D01*
X129352137Y-78606803D01*
X129327173Y-78578835D01*
X129308743Y-78558194D01*
X129302368Y-78551058D01*
X129284986Y-78531598D01*
X129261371Y-78505146D01*
X129233608Y-78474040D01*
X129203782Y-78440614D01*
X129173977Y-78407204D01*
X129171315Y-78404219D01*
X129141344Y-78370636D01*
X129110898Y-78336551D01*
X129082136Y-78304381D01*
X129057216Y-78276538D01*
X129038299Y-78255439D01*
X129037236Y-78254256D01*
X129014070Y-78228432D01*
X128983600Y-78194411D01*
X128946839Y-78153325D01*
X128904797Y-78106305D01*
X128858487Y-78054485D01*
X128808921Y-77998996D01*
X128757109Y-77940970D01*
X128704065Y-77881539D01*
X128650798Y-77821836D01*
X128649150Y-77819988D01*
X128614242Y-77780856D01*
X128578990Y-77741344D01*
X128545108Y-77703372D01*
X128514307Y-77668858D01*
X128488301Y-77639724D01*
X128468804Y-77617889D01*
X128467933Y-77616913D01*
X128445060Y-77591304D01*
X128416498Y-77559323D01*
X128384882Y-77523920D01*
X128352846Y-77488045D01*
X128328431Y-77460702D01*
X128248509Y-77371200D01*
X128176391Y-77290454D01*
X128111565Y-77217893D01*
X128053521Y-77152942D01*
X128001746Y-77095031D01*
X127955729Y-77043587D01*
X127914958Y-76998037D01*
X127878922Y-76957810D01*
X127847108Y-76922333D01*
X127837659Y-76911804D01*
X127807424Y-76878075D01*
X127778054Y-76845220D01*
X127751218Y-76815117D01*
X127728588Y-76789641D01*
X127711835Y-76770668D01*
X127706323Y-76764365D01*
X127681863Y-76736422D01*
X127655039Y-76706098D01*
X127627140Y-76674818D01*
X127599459Y-76644007D01*
X127573286Y-76615091D01*
X127549913Y-76589495D01*
X127530630Y-76568643D01*
X127516729Y-76553960D01*
X127509501Y-76546873D01*
X127508900Y-76546460D01*
X127504542Y-76550662D01*
X127499232Y-76563558D01*
X127496931Y-76571454D01*
X127491007Y-76593193D01*
X127485107Y-76613322D01*
X127483903Y-76617159D01*
X127479096Y-76632912D01*
X127471807Y-76657706D01*
X127462893Y-76688543D01*
X127453207Y-76722421D01*
X127443606Y-76756340D01*
X127434945Y-76787298D01*
X127428079Y-76812296D01*
X127425131Y-76823358D01*
X127419553Y-76843996D01*
X127410773Y-76875465D01*
X127399120Y-76916610D01*
X127384922Y-76966275D01*
X127368510Y-77023305D01*
X127350213Y-77086543D01*
X127346804Y-77098291D01*
X127338285Y-77127809D01*
X127330626Y-77154657D01*
X127324767Y-77175518D01*
X127321982Y-77185769D01*
X127318637Y-77198012D01*
X127312357Y-77220401D01*
X127303678Y-77251074D01*
X127293130Y-77288170D01*
X127281248Y-77329829D01*
X127268563Y-77374188D01*
X127255608Y-77419388D01*
X127242917Y-77463567D01*
X127231022Y-77504864D01*
X127220456Y-77541418D01*
X127211751Y-77571367D01*
X127205717Y-77591919D01*
X127197755Y-77619062D01*
X127190664Y-77643728D01*
X127185563Y-77662007D01*
X127184268Y-77666901D01*
X127180592Y-77680455D01*
X127174333Y-77702685D01*
X127166429Y-77730278D01*
X127159441Y-77754379D01*
X127150879Y-77783893D01*
X127143172Y-77810738D01*
X127137266Y-77831599D01*
X127134447Y-77841858D01*
X127130704Y-77855413D01*
X127124389Y-77877646D01*
X127116449Y-77905242D01*
X127109453Y-77929336D01*
X127100895Y-77958850D01*
X127093197Y-77985694D01*
X127087305Y-78006555D01*
X127084499Y-78016815D01*
X127075913Y-78048604D01*
X127065410Y-78085967D01*
X127053627Y-78126790D01*
X127041200Y-78168958D01*
X127028767Y-78210358D01*
X127016964Y-78248875D01*
X127006429Y-78282394D01*
X126997798Y-78308802D01*
X126991709Y-78325984D01*
X126990379Y-78329238D01*
X126961366Y-78384019D01*
X126923242Y-78438950D01*
X126878853Y-78490548D01*
X126831047Y-78535328D01*
X126806544Y-78554221D01*
X126733199Y-78599636D01*
X126656669Y-78633416D01*
X126576516Y-78655637D01*
X126492304Y-78666379D01*
X126403594Y-78665719D01*
X126309952Y-78653735D01*
X126281673Y-78648124D01*
X126247320Y-78640827D01*
X126212449Y-78633487D01*
X126181613Y-78627059D01*
X126162952Y-78623223D01*
X126142811Y-78619071D01*
X126113267Y-78612906D01*
X126077143Y-78605319D01*
X126037259Y-78596904D01*
X125997368Y-78588450D01*
X125940695Y-78576426D01*
X125884306Y-78564488D01*
X125830149Y-78553049D01*
X125780176Y-78542518D01*
X125736334Y-78533307D01*
X125700575Y-78525826D01*
X125674846Y-78520485D01*
X125672448Y-78519992D01*
X125657559Y-78516899D01*
X125632885Y-78511735D01*
X125600867Y-78505012D01*
X125563948Y-78497244D01*
X125524570Y-78488942D01*
X125522485Y-78488502D01*
X125481355Y-78479838D01*
X125440957Y-78471354D01*
X125404192Y-78463659D01*
X125373964Y-78457360D01*
X125353777Y-78453188D01*
X125324137Y-78447076D01*
X125293046Y-78440606D01*
X125269422Y-78435640D01*
X125248210Y-78431168D01*
X125218779Y-78424994D01*
X125185150Y-78417960D01*
X125153826Y-78411425D01*
X125116582Y-78403642D01*
X125072558Y-78394402D01*
X125027199Y-78384852D01*
X124985949Y-78376135D01*
X124985117Y-78375959D01*
X124947539Y-78367997D01*
X124917594Y-78361657D01*
X124892205Y-78356288D01*
X124868298Y-78351242D01*
X124842796Y-78345869D01*
X124812623Y-78339521D01*
X124774704Y-78331549D01*
X124753924Y-78327181D01*
X124732254Y-78322625D01*
X124710975Y-78318149D01*
X124688875Y-78313498D01*
X124664741Y-78308414D01*
X124637363Y-78302645D01*
X124605527Y-78295932D01*
X124568022Y-78288022D01*
X124523635Y-78278658D01*
X124471156Y-78267584D01*
X124409370Y-78254546D01*
X124337067Y-78239288D01*
X124304035Y-78232317D01*
X124263195Y-78223716D01*
X124223361Y-78215359D01*
X124187353Y-78207835D01*
X124157995Y-78201735D01*
X124138451Y-78197717D01*
X124107546Y-78191312D01*
X124073333Y-78184032D01*
X124050972Y-78179161D01*
X124026998Y-78173948D01*
X123995150Y-78167144D01*
X123959798Y-78159679D01*
X123929127Y-78153272D01*
X123895186Y-78146212D01*
X123861732Y-78139232D01*
X123832785Y-78133171D01*
X123813531Y-78129117D01*
X123790725Y-78124314D01*
X123758142Y-78117484D01*
X123718241Y-78109142D01*
X123673480Y-78099801D01*
X123626317Y-78089974D01*
X123579213Y-78080175D01*
X123572965Y-78078877D01*
X123550036Y-78074060D01*
X123519254Y-78067521D01*
X123484978Y-78060189D01*
X123457368Y-78054246D01*
X123423025Y-78046876D01*
X123388163Y-78039475D01*
X123357331Y-78033002D01*
X123338647Y-78029145D01*
X123293211Y-78019822D01*
X123236981Y-78008170D01*
X123171383Y-77994487D01*
X123097841Y-77979073D01*
X123017779Y-77962225D01*
X122932623Y-77944244D01*
X122843796Y-77925427D01*
X122816901Y-77919718D01*
X122746954Y-77904921D01*
X122688400Y-77892673D01*
X122640431Y-77882817D01*
X122602237Y-77875201D01*
X122573011Y-77869669D01*
X122551943Y-77866068D01*
X122538225Y-77864243D01*
X122531048Y-77864040D01*
X122529472Y-77864893D01*
X122531095Y-77873549D01*
X122535656Y-77892457D01*
X122542684Y-77919848D01*
X122551713Y-77953949D01*
X122562274Y-77992989D01*
X122573901Y-78035197D01*
X122583619Y-78069927D01*
X122595841Y-78113505D01*
X122607688Y-78156227D01*
X122620076Y-78201437D01*
X122633921Y-78252481D01*
X122647869Y-78304244D01*
X122650536Y-78314029D01*
X122656376Y-78335347D01*
X122665247Y-78367681D01*
X122677005Y-78410516D01*
X122691511Y-78463334D01*
X122708621Y-78525619D01*
X122728193Y-78596854D01*
X122750087Y-78676524D01*
X122774158Y-78764111D01*
X122800267Y-78859099D01*
X122828271Y-78960973D01*
X122858027Y-79069214D01*
X122889394Y-79183307D01*
X122922230Y-79302736D01*
X122956393Y-79426983D01*
X122991741Y-79555532D01*
X123028132Y-79687868D01*
X123065424Y-79823473D01*
X123094403Y-79928844D01*
X123132208Y-80066304D01*
X123169180Y-80200739D01*
X123205180Y-80331640D01*
X123240069Y-80458501D01*
X123273707Y-80580815D01*
X123305955Y-80698074D01*
X123336673Y-80809771D01*
X123365721Y-80915399D01*
X123392961Y-81014452D01*
X123418252Y-81106421D01*
X123441456Y-81190799D01*
X123462432Y-81267080D01*
X123481042Y-81334757D01*
X123497145Y-81393321D01*
X123510603Y-81442266D01*
X123521276Y-81481085D01*
X123529025Y-81509271D01*
X123533709Y-81526316D01*
X123535153Y-81531575D01*
X123540348Y-81550462D01*
X123546991Y-81574450D01*
X123550708Y-81587811D01*
X123579343Y-81691430D01*
X123605726Y-81788739D01*
X123629650Y-81878929D01*
X123650911Y-81961194D01*
X123669303Y-82034726D01*
X123684619Y-82098718D01*
X123696656Y-82152362D01*
X123705033Y-82193912D01*
X123711942Y-82239858D01*
X123716808Y-82290240D01*
X123719609Y-82342388D01*
X123720323Y-82393628D01*
X123718925Y-82441289D01*
X123715394Y-82482698D01*
X123709706Y-82515183D01*
X123707835Y-82521956D01*
X123683830Y-82583780D01*
X123651357Y-82638858D01*
X123609282Y-82688663D01*
X123556472Y-82734669D01*
X123528583Y-82754742D01*
X123502984Y-82770583D01*
X123469450Y-82789047D01*
X123431708Y-82808262D01*
X123393485Y-82826355D01*
X123358504Y-82841451D01*
X123347681Y-82845695D01*
X123323247Y-82855524D01*
X123292873Y-82868563D01*
X123261840Y-82882524D01*
X123251169Y-82887503D01*
X123218956Y-82902698D01*
X123183357Y-82919467D01*
X123150834Y-82934765D01*
X123143383Y-82938265D01*
X123111929Y-82953042D01*
X123076175Y-82969850D01*
X123043124Y-82985395D01*
X123038721Y-82987467D01*
X123011017Y-83000498D01*
X122982230Y-83014025D01*
X122950521Y-83028910D01*
X122914053Y-83046016D01*
X122870990Y-83066204D01*
X122819493Y-83090335D01*
X122785658Y-83106187D01*
X122728204Y-83133115D01*
X122679415Y-83156007D01*
X122636633Y-83176115D01*
X122597199Y-83194690D01*
X122558455Y-83212981D01*
X122523223Y-83229645D01*
X122490427Y-83245148D01*
X122455455Y-83261647D01*
X122423468Y-83276709D01*
X122407626Y-83284151D01*
X122381965Y-83296231D01*
X122349265Y-83311685D01*
X122313768Y-83328504D01*
X122280391Y-83344361D01*
X122252138Y-83357740D01*
X122228221Y-83368941D01*
X122210748Y-83376986D01*
X122201829Y-83380898D01*
X122201144Y-83381120D01*
X122195136Y-83383679D01*
X122179743Y-83390769D01*
X122156847Y-83401509D01*
X122128328Y-83415018D01*
X122103436Y-83426888D01*
X122069487Y-83443061D01*
X122037435Y-83458219D01*
X122009854Y-83471153D01*
X121989317Y-83480654D01*
X121981064Y-83484373D01*
X121965706Y-83492072D01*
X121956936Y-83498335D01*
X121956071Y-83500288D01*
X118118057Y-83500288D01*
X118118057Y-65354306D01*
X153115695Y-65354306D01*
X153115695Y-100345695D01*
G36*
X170609308Y-65356388D02*
X170608450Y-65360103D01*
X170605142Y-65360554D01*
X170599999Y-65358268D01*
X170600976Y-65356388D01*
X170608392Y-65355641D01*
X170609308Y-65356388D01*
X170609308Y-65356388D01*
G37*
X170609308Y-65356388D02*
X170608450Y-65360103D01*
X170605142Y-65360554D01*
X170599999Y-65358268D01*
X170600976Y-65356388D01*
X170608392Y-65355641D01*
X170609308Y-65356388D01*
M02*
