G04 #@! TF.FileFunction,Copper,L2,Bot,Signal*
%FSLAX46Y46*%
G04 Gerber Fmt 4.6, Leading zero omitted, Abs format (unit mm)*
G04 Created by KiCad (PCBNEW 4.0.4-stable) date 07/06/18 22:55:52*
%MOMM*%
%LPD*%
G01*
G04 APERTURE LIST*
%ADD10C,0.100000*%
%ADD11R,1.700000X1.700000*%
%ADD12O,1.700000X1.700000*%
%ADD13R,1.500000X1.900000*%
%ADD14C,1.450000*%
%ADD15R,0.400000X1.350000*%
%ADD16O,1.200000X1.900000*%
%ADD17R,1.200000X1.900000*%
%ADD18O,3.000000X1.500000*%
%ADD19O,1.500000X3.000000*%
%ADD20C,0.600000*%
%ADD21C,0.400000*%
%ADD22C,0.254000*%
G04 APERTURE END LIST*
D10*
D11*
X102620000Y-69350000D03*
D12*
X102620000Y-71890000D03*
X102620000Y-74430000D03*
X102620000Y-76970000D03*
X102620000Y-79510000D03*
X102620000Y-82050000D03*
X102620000Y-84590000D03*
X102620000Y-87130000D03*
X102620000Y-89670000D03*
X102620000Y-92210000D03*
X102620000Y-94750000D03*
X102620000Y-97290000D03*
D13*
X136000000Y-67000000D03*
D14*
X132500000Y-69700000D03*
D15*
X134350000Y-69700000D03*
X133700000Y-69700000D03*
X136300000Y-69700000D03*
X135650000Y-69700000D03*
X135000000Y-69700000D03*
D14*
X137500000Y-69700000D03*
D13*
X134000000Y-67000000D03*
D16*
X131500000Y-67000000D03*
X138500000Y-67000000D03*
D17*
X137900000Y-67000000D03*
X132100000Y-67000000D03*
D18*
X144000000Y-86350000D03*
X144000000Y-84350000D03*
X144000000Y-82350000D03*
X144000000Y-80350000D03*
X144000000Y-92350000D03*
X144000000Y-88350000D03*
X144000000Y-94350000D03*
X144000000Y-90350000D03*
X144000000Y-78350000D03*
X144000000Y-76350000D03*
D19*
X140000000Y-96350000D03*
X138000000Y-96350000D03*
X136000000Y-96350000D03*
X134000000Y-96350000D03*
X132000000Y-96350000D03*
X130000000Y-96350000D03*
D18*
X126000000Y-82350000D03*
X126000000Y-80350000D03*
X126000000Y-84350000D03*
X126000000Y-86350000D03*
X126000000Y-78350000D03*
X126000000Y-76350000D03*
X126000000Y-92350000D03*
X126000000Y-94350000D03*
X126000000Y-88350000D03*
X126000000Y-90350000D03*
D19*
X137000000Y-74350000D03*
X133000000Y-74350000D03*
X139000000Y-74350000D03*
X135000000Y-74350000D03*
X131000000Y-74350000D03*
D11*
X168620000Y-96470000D03*
D12*
X168620000Y-93930000D03*
X168620000Y-91390000D03*
X168620000Y-88850000D03*
X168620000Y-86310000D03*
X168620000Y-83770000D03*
X168620000Y-81230000D03*
X168620000Y-78690000D03*
X168620000Y-76150000D03*
X168620000Y-73610000D03*
X168620000Y-71070000D03*
X168620000Y-68530000D03*
D20*
X123120000Y-94350000D03*
X137620000Y-71850000D03*
D21*
X126000000Y-94350000D02*
X123120000Y-94350000D01*
X137620000Y-71850000D02*
X139000000Y-73230000D01*
X139000000Y-73230000D02*
X139000000Y-74350000D01*
X135650000Y-69700000D02*
X135650000Y-70775000D01*
X135650000Y-70775000D02*
X136725000Y-71850000D01*
X136725000Y-71850000D02*
X137620000Y-71850000D01*
X144000000Y-86350000D02*
X155880000Y-86350000D01*
X155880000Y-86350000D02*
X168620000Y-73610000D01*
X144000000Y-84350000D02*
X155340000Y-84350000D01*
X155340000Y-84350000D02*
X168620000Y-71070000D01*
X144000000Y-82350000D02*
X154800000Y-82350000D01*
X154800000Y-82350000D02*
X168620000Y-68530000D01*
X144000000Y-92350000D02*
X157500000Y-92350000D01*
X157500000Y-92350000D02*
X168620000Y-81230000D01*
X144000000Y-88350000D02*
X156420000Y-88350000D01*
X156420000Y-88350000D02*
X168620000Y-76150000D01*
X144000000Y-94350000D02*
X158040000Y-94350000D01*
X158040000Y-94350000D02*
X168620000Y-83770000D01*
X144000000Y-90350000D02*
X156960000Y-90350000D01*
X156960000Y-90350000D02*
X168620000Y-78690000D01*
X102620000Y-69350000D02*
X121305649Y-69350000D01*
X121305649Y-69350000D02*
X128305649Y-76350000D01*
X128305649Y-76350000D02*
X142100000Y-76350000D01*
X142100000Y-76350000D02*
X144000000Y-76350000D01*
X140000000Y-96350000D02*
X158580000Y-96350000D01*
X158580000Y-96350000D02*
X168620000Y-86310000D01*
X139544361Y-98200010D02*
X159269990Y-98200010D01*
X138000000Y-96350000D02*
X138000000Y-96655649D01*
X138000000Y-96655649D02*
X139544361Y-98200010D01*
X159269990Y-98200010D02*
X167770001Y-89699999D01*
X167770001Y-89699999D02*
X168620000Y-88850000D01*
X136000000Y-97100000D02*
X137650021Y-98750021D01*
X161259979Y-98750021D02*
X167770001Y-92239999D01*
X167770001Y-92239999D02*
X168620000Y-91390000D01*
X136000000Y-96350000D02*
X136000000Y-97100000D01*
X137650021Y-98750021D02*
X161259979Y-98750021D01*
X167770001Y-94779999D02*
X168620000Y-93930000D01*
X136200032Y-99300032D02*
X163249968Y-99300032D01*
X134000000Y-97100000D02*
X136200032Y-99300032D01*
X134000000Y-96350000D02*
X134000000Y-97100000D01*
X163249968Y-99300032D02*
X167770001Y-94779999D01*
X167370000Y-96470000D02*
X168620000Y-96470000D01*
X163989957Y-99850043D02*
X167370000Y-96470000D01*
X134750043Y-99850043D02*
X163989957Y-99850043D01*
X132000000Y-97100000D02*
X134750043Y-99850043D01*
X132000000Y-96350000D02*
X132000000Y-97100000D01*
X130000000Y-96350000D02*
X104220000Y-96350000D01*
X104220000Y-96350000D02*
X102620000Y-94750000D01*
X126000000Y-82350000D02*
X105460000Y-82350000D01*
X105460000Y-82350000D02*
X102620000Y-79510000D01*
X126000000Y-80350000D02*
X106000000Y-80350000D01*
X106000000Y-80350000D02*
X102620000Y-76970000D01*
X126000000Y-84350000D02*
X104920000Y-84350000D01*
X104920000Y-84350000D02*
X102620000Y-82050000D01*
X126000000Y-86350000D02*
X104380000Y-86350000D01*
X104380000Y-86350000D02*
X102620000Y-84590000D01*
X126000000Y-78350000D02*
X106540000Y-78350000D01*
X106540000Y-78350000D02*
X102620000Y-74430000D01*
X126000000Y-76350000D02*
X107080000Y-76350000D01*
X107080000Y-76350000D02*
X102620000Y-71890000D01*
X126000000Y-92350000D02*
X102760000Y-92350000D01*
X102760000Y-92350000D02*
X102620000Y-92210000D01*
X126000000Y-88350000D02*
X103840000Y-88350000D01*
X103840000Y-88350000D02*
X102620000Y-87130000D01*
X126000000Y-90350000D02*
X103300000Y-90350000D01*
X103300000Y-90350000D02*
X102620000Y-89670000D01*
X134350000Y-69700000D02*
X134350000Y-73700000D01*
X134350000Y-73700000D02*
X135000000Y-74350000D01*
X135000000Y-69700000D02*
X135000000Y-71600000D01*
X135000000Y-71600000D02*
X137000000Y-73600000D01*
X137000000Y-73600000D02*
X137000000Y-74350000D01*
X133700000Y-69700000D02*
X133700000Y-73650000D01*
X133700000Y-73650000D02*
X133000000Y-74350000D01*
D22*
G36*
X170293000Y-100023000D02*
X164491580Y-100023000D01*
X167487574Y-97027006D01*
X167487574Y-97320000D01*
X167506889Y-97422650D01*
X167567555Y-97516927D01*
X167660120Y-97580175D01*
X167770000Y-97602426D01*
X169470000Y-97602426D01*
X169572650Y-97583111D01*
X169666927Y-97522445D01*
X169730175Y-97429880D01*
X169752426Y-97320000D01*
X169752426Y-95620000D01*
X169733111Y-95517350D01*
X169672445Y-95423073D01*
X169579880Y-95359825D01*
X169470000Y-95337574D01*
X167887006Y-95337574D01*
X168238978Y-94985602D01*
X168597921Y-95057000D01*
X168642079Y-95057000D01*
X169073363Y-94971212D01*
X169438988Y-94726909D01*
X169683291Y-94361284D01*
X169769079Y-93930000D01*
X169683291Y-93498716D01*
X169438988Y-93133091D01*
X169073363Y-92888788D01*
X168642079Y-92803000D01*
X168597921Y-92803000D01*
X168166637Y-92888788D01*
X167801012Y-93133091D01*
X167556709Y-93498716D01*
X167470921Y-93930000D01*
X167549646Y-94325774D01*
X163052388Y-98823032D01*
X161861548Y-98823032D01*
X168238978Y-92445602D01*
X168597921Y-92517000D01*
X168642079Y-92517000D01*
X169073363Y-92431212D01*
X169438988Y-92186909D01*
X169683291Y-91821284D01*
X169769079Y-91390000D01*
X169683291Y-90958716D01*
X169438988Y-90593091D01*
X169073363Y-90348788D01*
X168642079Y-90263000D01*
X168597921Y-90263000D01*
X168166637Y-90348788D01*
X167801012Y-90593091D01*
X167556709Y-90958716D01*
X167470921Y-91390000D01*
X167549646Y-91785774D01*
X161062399Y-98273021D01*
X159871559Y-98273021D01*
X168238978Y-89905602D01*
X168597921Y-89977000D01*
X168642079Y-89977000D01*
X169073363Y-89891212D01*
X169438988Y-89646909D01*
X169683291Y-89281284D01*
X169769079Y-88850000D01*
X169683291Y-88418716D01*
X169438988Y-88053091D01*
X169073363Y-87808788D01*
X168642079Y-87723000D01*
X168597921Y-87723000D01*
X168166637Y-87808788D01*
X167801012Y-88053091D01*
X167556709Y-88418716D01*
X167470921Y-88850000D01*
X167549646Y-89245774D01*
X159072410Y-97723010D01*
X140818409Y-97723010D01*
X140948824Y-97527829D01*
X141027000Y-97134813D01*
X141027000Y-96827000D01*
X158580000Y-96827000D01*
X158762540Y-96790691D01*
X158917290Y-96687290D01*
X168238978Y-87365602D01*
X168597921Y-87437000D01*
X168642079Y-87437000D01*
X169073363Y-87351212D01*
X169438988Y-87106909D01*
X169683291Y-86741284D01*
X169769079Y-86310000D01*
X169683291Y-85878716D01*
X169438988Y-85513091D01*
X169073363Y-85268788D01*
X168642079Y-85183000D01*
X168597921Y-85183000D01*
X168166637Y-85268788D01*
X167801012Y-85513091D01*
X167556709Y-85878716D01*
X167470921Y-86310000D01*
X167549646Y-86705774D01*
X158382420Y-95873000D01*
X141027000Y-95873000D01*
X141027000Y-95565187D01*
X140948824Y-95172171D01*
X140726199Y-94838988D01*
X140393016Y-94616363D01*
X140000000Y-94538187D01*
X139606984Y-94616363D01*
X139273801Y-94838988D01*
X139051176Y-95172171D01*
X139000000Y-95429449D01*
X138948824Y-95172171D01*
X138726199Y-94838988D01*
X138393016Y-94616363D01*
X138000000Y-94538187D01*
X137606984Y-94616363D01*
X137273801Y-94838988D01*
X137051176Y-95172171D01*
X137000000Y-95429449D01*
X136948824Y-95172171D01*
X136726199Y-94838988D01*
X136393016Y-94616363D01*
X136000000Y-94538187D01*
X135606984Y-94616363D01*
X135273801Y-94838988D01*
X135051176Y-95172171D01*
X135000000Y-95429449D01*
X134948824Y-95172171D01*
X134726199Y-94838988D01*
X134393016Y-94616363D01*
X134000000Y-94538187D01*
X133606984Y-94616363D01*
X133273801Y-94838988D01*
X133051176Y-95172171D01*
X133000000Y-95429449D01*
X132948824Y-95172171D01*
X132726199Y-94838988D01*
X132393016Y-94616363D01*
X132000000Y-94538187D01*
X131606984Y-94616363D01*
X131273801Y-94838988D01*
X131051176Y-95172171D01*
X131000000Y-95429449D01*
X130948824Y-95172171D01*
X130726199Y-94838988D01*
X130393016Y-94616363D01*
X130000000Y-94538187D01*
X129606984Y-94616363D01*
X129273801Y-94838988D01*
X129051176Y-95172171D01*
X128973000Y-95565187D01*
X128973000Y-95873000D01*
X104417580Y-95873000D01*
X103690354Y-95145774D01*
X103769079Y-94750000D01*
X103757380Y-94691185D01*
X123907682Y-94691185D01*
X123921827Y-94762684D01*
X124180855Y-95239540D01*
X124602651Y-95580972D01*
X125123000Y-95735000D01*
X125873000Y-95735000D01*
X125873000Y-94477000D01*
X126127000Y-94477000D01*
X126127000Y-95735000D01*
X126877000Y-95735000D01*
X127397349Y-95580972D01*
X127819145Y-95239540D01*
X128078173Y-94762684D01*
X128092318Y-94691185D01*
X127969656Y-94477000D01*
X126127000Y-94477000D01*
X125873000Y-94477000D01*
X124030344Y-94477000D01*
X123907682Y-94691185D01*
X103757380Y-94691185D01*
X103683291Y-94318716D01*
X103438988Y-93953091D01*
X103073363Y-93708788D01*
X102642079Y-93623000D01*
X102597921Y-93623000D01*
X102166637Y-93708788D01*
X101801012Y-93953091D01*
X101556709Y-94318716D01*
X101470921Y-94750000D01*
X101556709Y-95181284D01*
X101801012Y-95546909D01*
X102166637Y-95791212D01*
X102492998Y-95856129D01*
X102492998Y-95969180D01*
X102263108Y-95848514D01*
X101738642Y-96094817D01*
X101348355Y-96523076D01*
X101178524Y-96933110D01*
X101299845Y-97163000D01*
X102493000Y-97163000D01*
X102493000Y-97143000D01*
X102747000Y-97143000D01*
X102747000Y-97163000D01*
X103940155Y-97163000D01*
X104061476Y-96933110D01*
X103989106Y-96758382D01*
X104037460Y-96790691D01*
X104220000Y-96827000D01*
X128973000Y-96827000D01*
X128973000Y-97134813D01*
X129051176Y-97527829D01*
X129273801Y-97861012D01*
X129606984Y-98083637D01*
X130000000Y-98161813D01*
X130393016Y-98083637D01*
X130726199Y-97861012D01*
X130948824Y-97527829D01*
X131000000Y-97270551D01*
X131051176Y-97527829D01*
X131273801Y-97861012D01*
X131606984Y-98083637D01*
X132000000Y-98161813D01*
X132322987Y-98097567D01*
X134248420Y-100023000D01*
X100947000Y-100023000D01*
X100947000Y-97646890D01*
X101178524Y-97646890D01*
X101348355Y-98056924D01*
X101738642Y-98485183D01*
X102263108Y-98731486D01*
X102493000Y-98610819D01*
X102493000Y-97417000D01*
X102747000Y-97417000D01*
X102747000Y-98610819D01*
X102976892Y-98731486D01*
X103501358Y-98485183D01*
X103891645Y-98056924D01*
X104061476Y-97646890D01*
X103940155Y-97417000D01*
X102747000Y-97417000D01*
X102493000Y-97417000D01*
X101299845Y-97417000D01*
X101178524Y-97646890D01*
X100947000Y-97646890D01*
X100947000Y-71890000D01*
X101470921Y-71890000D01*
X101556709Y-72321284D01*
X101801012Y-72686909D01*
X102166637Y-72931212D01*
X102597921Y-73017000D01*
X102642079Y-73017000D01*
X103001022Y-72945602D01*
X106742710Y-76687290D01*
X106897459Y-76790691D01*
X107080000Y-76827000D01*
X124322479Y-76827000D01*
X124488988Y-77076199D01*
X124822171Y-77298824D01*
X125079449Y-77350000D01*
X124822171Y-77401176D01*
X124488988Y-77623801D01*
X124322479Y-77873000D01*
X106737580Y-77873000D01*
X103690354Y-74825774D01*
X103769079Y-74430000D01*
X103683291Y-73998716D01*
X103438988Y-73633091D01*
X103073363Y-73388788D01*
X102642079Y-73303000D01*
X102597921Y-73303000D01*
X102166637Y-73388788D01*
X101801012Y-73633091D01*
X101556709Y-73998716D01*
X101470921Y-74430000D01*
X101556709Y-74861284D01*
X101801012Y-75226909D01*
X102166637Y-75471212D01*
X102597921Y-75557000D01*
X102642079Y-75557000D01*
X103001022Y-75485602D01*
X106202710Y-78687290D01*
X106357460Y-78790691D01*
X106540000Y-78827000D01*
X124322479Y-78827000D01*
X124488988Y-79076199D01*
X124822171Y-79298824D01*
X125079449Y-79350000D01*
X124822171Y-79401176D01*
X124488988Y-79623801D01*
X124322479Y-79873000D01*
X106197580Y-79873000D01*
X103690354Y-77365774D01*
X103769079Y-76970000D01*
X103683291Y-76538716D01*
X103438988Y-76173091D01*
X103073363Y-75928788D01*
X102642079Y-75843000D01*
X102597921Y-75843000D01*
X102166637Y-75928788D01*
X101801012Y-76173091D01*
X101556709Y-76538716D01*
X101470921Y-76970000D01*
X101556709Y-77401284D01*
X101801012Y-77766909D01*
X102166637Y-78011212D01*
X102597921Y-78097000D01*
X102642079Y-78097000D01*
X103001022Y-78025602D01*
X105662710Y-80687290D01*
X105817460Y-80790691D01*
X106000000Y-80827000D01*
X124322479Y-80827000D01*
X124488988Y-81076199D01*
X124822171Y-81298824D01*
X125079449Y-81350000D01*
X124822171Y-81401176D01*
X124488988Y-81623801D01*
X124322479Y-81873000D01*
X105657580Y-81873000D01*
X103690354Y-79905774D01*
X103769079Y-79510000D01*
X103683291Y-79078716D01*
X103438988Y-78713091D01*
X103073363Y-78468788D01*
X102642079Y-78383000D01*
X102597921Y-78383000D01*
X102166637Y-78468788D01*
X101801012Y-78713091D01*
X101556709Y-79078716D01*
X101470921Y-79510000D01*
X101556709Y-79941284D01*
X101801012Y-80306909D01*
X102166637Y-80551212D01*
X102597921Y-80637000D01*
X102642079Y-80637000D01*
X103001022Y-80565602D01*
X105122710Y-82687290D01*
X105277460Y-82790691D01*
X105460000Y-82827000D01*
X124322479Y-82827000D01*
X124488988Y-83076199D01*
X124822171Y-83298824D01*
X125079449Y-83350000D01*
X124822171Y-83401176D01*
X124488988Y-83623801D01*
X124322479Y-83873000D01*
X105117580Y-83873000D01*
X103690354Y-82445774D01*
X103769079Y-82050000D01*
X103683291Y-81618716D01*
X103438988Y-81253091D01*
X103073363Y-81008788D01*
X102642079Y-80923000D01*
X102597921Y-80923000D01*
X102166637Y-81008788D01*
X101801012Y-81253091D01*
X101556709Y-81618716D01*
X101470921Y-82050000D01*
X101556709Y-82481284D01*
X101801012Y-82846909D01*
X102166637Y-83091212D01*
X102597921Y-83177000D01*
X102642079Y-83177000D01*
X103001022Y-83105602D01*
X104582710Y-84687290D01*
X104737460Y-84790691D01*
X104920000Y-84827000D01*
X124322479Y-84827000D01*
X124488988Y-85076199D01*
X124822171Y-85298824D01*
X125079449Y-85350000D01*
X124822171Y-85401176D01*
X124488988Y-85623801D01*
X124322479Y-85873000D01*
X104577580Y-85873000D01*
X103690354Y-84985774D01*
X103769079Y-84590000D01*
X103683291Y-84158716D01*
X103438988Y-83793091D01*
X103073363Y-83548788D01*
X102642079Y-83463000D01*
X102597921Y-83463000D01*
X102166637Y-83548788D01*
X101801012Y-83793091D01*
X101556709Y-84158716D01*
X101470921Y-84590000D01*
X101556709Y-85021284D01*
X101801012Y-85386909D01*
X102166637Y-85631212D01*
X102597921Y-85717000D01*
X102642079Y-85717000D01*
X103001022Y-85645602D01*
X104042710Y-86687290D01*
X104197460Y-86790691D01*
X104380000Y-86827000D01*
X124322479Y-86827000D01*
X124488988Y-87076199D01*
X124822171Y-87298824D01*
X125079449Y-87350000D01*
X124822171Y-87401176D01*
X124488988Y-87623801D01*
X124322479Y-87873000D01*
X104037580Y-87873000D01*
X103690354Y-87525774D01*
X103769079Y-87130000D01*
X103683291Y-86698716D01*
X103438988Y-86333091D01*
X103073363Y-86088788D01*
X102642079Y-86003000D01*
X102597921Y-86003000D01*
X102166637Y-86088788D01*
X101801012Y-86333091D01*
X101556709Y-86698716D01*
X101470921Y-87130000D01*
X101556709Y-87561284D01*
X101801012Y-87926909D01*
X102166637Y-88171212D01*
X102597921Y-88257000D01*
X102642079Y-88257000D01*
X103001022Y-88185602D01*
X103502710Y-88687290D01*
X103657460Y-88790691D01*
X103840000Y-88827000D01*
X124322479Y-88827000D01*
X124488988Y-89076199D01*
X124822171Y-89298824D01*
X125079449Y-89350000D01*
X124822171Y-89401176D01*
X124488988Y-89623801D01*
X124322479Y-89873000D01*
X103728700Y-89873000D01*
X103769079Y-89670000D01*
X103683291Y-89238716D01*
X103438988Y-88873091D01*
X103073363Y-88628788D01*
X102642079Y-88543000D01*
X102597921Y-88543000D01*
X102166637Y-88628788D01*
X101801012Y-88873091D01*
X101556709Y-89238716D01*
X101470921Y-89670000D01*
X101556709Y-90101284D01*
X101801012Y-90466909D01*
X102166637Y-90711212D01*
X102597921Y-90797000D01*
X102642079Y-90797000D01*
X103015683Y-90722685D01*
X103117460Y-90790691D01*
X103300000Y-90827000D01*
X124322479Y-90827000D01*
X124488988Y-91076199D01*
X124822171Y-91298824D01*
X125079449Y-91350000D01*
X124822171Y-91401176D01*
X124488988Y-91623801D01*
X124322479Y-91873000D01*
X103702045Y-91873000D01*
X103683291Y-91778716D01*
X103438988Y-91413091D01*
X103073363Y-91168788D01*
X102642079Y-91083000D01*
X102597921Y-91083000D01*
X102166637Y-91168788D01*
X101801012Y-91413091D01*
X101556709Y-91778716D01*
X101470921Y-92210000D01*
X101556709Y-92641284D01*
X101801012Y-93006909D01*
X102166637Y-93251212D01*
X102597921Y-93337000D01*
X102642079Y-93337000D01*
X103073363Y-93251212D01*
X103438988Y-93006909D01*
X103559199Y-92827000D01*
X124322479Y-92827000D01*
X124488988Y-93076199D01*
X124580238Y-93137170D01*
X124180855Y-93460460D01*
X123921827Y-93937316D01*
X123907682Y-94008815D01*
X124030344Y-94223000D01*
X125873000Y-94223000D01*
X125873000Y-94203000D01*
X126127000Y-94203000D01*
X126127000Y-94223000D01*
X127969656Y-94223000D01*
X128092318Y-94008815D01*
X128078173Y-93937316D01*
X127819145Y-93460460D01*
X127419762Y-93137170D01*
X127511012Y-93076199D01*
X127733637Y-92743016D01*
X127811813Y-92350000D01*
X127733637Y-91956984D01*
X127511012Y-91623801D01*
X127177829Y-91401176D01*
X126920551Y-91350000D01*
X127177829Y-91298824D01*
X127511012Y-91076199D01*
X127733637Y-90743016D01*
X127811813Y-90350000D01*
X127733637Y-89956984D01*
X127511012Y-89623801D01*
X127177829Y-89401176D01*
X126920551Y-89350000D01*
X127177829Y-89298824D01*
X127511012Y-89076199D01*
X127733637Y-88743016D01*
X127811813Y-88350000D01*
X127733637Y-87956984D01*
X127511012Y-87623801D01*
X127177829Y-87401176D01*
X126920551Y-87350000D01*
X127177829Y-87298824D01*
X127511012Y-87076199D01*
X127733637Y-86743016D01*
X127811813Y-86350000D01*
X127733637Y-85956984D01*
X127511012Y-85623801D01*
X127177829Y-85401176D01*
X126920551Y-85350000D01*
X127177829Y-85298824D01*
X127511012Y-85076199D01*
X127733637Y-84743016D01*
X127811813Y-84350000D01*
X127733637Y-83956984D01*
X127511012Y-83623801D01*
X127177829Y-83401176D01*
X126920551Y-83350000D01*
X127177829Y-83298824D01*
X127511012Y-83076199D01*
X127733637Y-82743016D01*
X127811813Y-82350000D01*
X127733637Y-81956984D01*
X127511012Y-81623801D01*
X127177829Y-81401176D01*
X126920551Y-81350000D01*
X127177829Y-81298824D01*
X127511012Y-81076199D01*
X127733637Y-80743016D01*
X127811813Y-80350000D01*
X127733637Y-79956984D01*
X127511012Y-79623801D01*
X127177829Y-79401176D01*
X126920551Y-79350000D01*
X127177829Y-79298824D01*
X127511012Y-79076199D01*
X127733637Y-78743016D01*
X127811813Y-78350000D01*
X127733637Y-77956984D01*
X127511012Y-77623801D01*
X127177829Y-77401176D01*
X126920551Y-77350000D01*
X127177829Y-77298824D01*
X127511012Y-77076199D01*
X127733637Y-76743016D01*
X127781826Y-76500757D01*
X127968359Y-76687290D01*
X128123109Y-76790691D01*
X128305649Y-76827000D01*
X142322479Y-76827000D01*
X142488988Y-77076199D01*
X142822171Y-77298824D01*
X143079449Y-77350000D01*
X142822171Y-77401176D01*
X142488988Y-77623801D01*
X142266363Y-77956984D01*
X142188187Y-78350000D01*
X142266363Y-78743016D01*
X142488988Y-79076199D01*
X142822171Y-79298824D01*
X143079449Y-79350000D01*
X142822171Y-79401176D01*
X142488988Y-79623801D01*
X142266363Y-79956984D01*
X142188187Y-80350000D01*
X142266363Y-80743016D01*
X142488988Y-81076199D01*
X142822171Y-81298824D01*
X143079449Y-81350000D01*
X142822171Y-81401176D01*
X142488988Y-81623801D01*
X142266363Y-81956984D01*
X142188187Y-82350000D01*
X142266363Y-82743016D01*
X142488988Y-83076199D01*
X142822171Y-83298824D01*
X143079449Y-83350000D01*
X142822171Y-83401176D01*
X142488988Y-83623801D01*
X142266363Y-83956984D01*
X142188187Y-84350000D01*
X142266363Y-84743016D01*
X142488988Y-85076199D01*
X142822171Y-85298824D01*
X143079449Y-85350000D01*
X142822171Y-85401176D01*
X142488988Y-85623801D01*
X142266363Y-85956984D01*
X142188187Y-86350000D01*
X142266363Y-86743016D01*
X142488988Y-87076199D01*
X142822171Y-87298824D01*
X143079449Y-87350000D01*
X142822171Y-87401176D01*
X142488988Y-87623801D01*
X142266363Y-87956984D01*
X142188187Y-88350000D01*
X142266363Y-88743016D01*
X142488988Y-89076199D01*
X142822171Y-89298824D01*
X143079449Y-89350000D01*
X142822171Y-89401176D01*
X142488988Y-89623801D01*
X142266363Y-89956984D01*
X142188187Y-90350000D01*
X142266363Y-90743016D01*
X142488988Y-91076199D01*
X142822171Y-91298824D01*
X143079449Y-91350000D01*
X142822171Y-91401176D01*
X142488988Y-91623801D01*
X142266363Y-91956984D01*
X142188187Y-92350000D01*
X142266363Y-92743016D01*
X142488988Y-93076199D01*
X142822171Y-93298824D01*
X143079449Y-93350000D01*
X142822171Y-93401176D01*
X142488988Y-93623801D01*
X142266363Y-93956984D01*
X142188187Y-94350000D01*
X142266363Y-94743016D01*
X142488988Y-95076199D01*
X142822171Y-95298824D01*
X143215187Y-95377000D01*
X144784813Y-95377000D01*
X145177829Y-95298824D01*
X145511012Y-95076199D01*
X145677521Y-94827000D01*
X158040000Y-94827000D01*
X158222540Y-94790691D01*
X158377290Y-94687290D01*
X168238978Y-84825602D01*
X168597921Y-84897000D01*
X168642079Y-84897000D01*
X169073363Y-84811212D01*
X169438988Y-84566909D01*
X169683291Y-84201284D01*
X169769079Y-83770000D01*
X169683291Y-83338716D01*
X169438988Y-82973091D01*
X169073363Y-82728788D01*
X168642079Y-82643000D01*
X168597921Y-82643000D01*
X168166637Y-82728788D01*
X167801012Y-82973091D01*
X167556709Y-83338716D01*
X167470921Y-83770000D01*
X167549646Y-84165774D01*
X157842420Y-93873000D01*
X145677521Y-93873000D01*
X145511012Y-93623801D01*
X145177829Y-93401176D01*
X144920551Y-93350000D01*
X145177829Y-93298824D01*
X145511012Y-93076199D01*
X145677521Y-92827000D01*
X157500000Y-92827000D01*
X157682540Y-92790691D01*
X157837290Y-92687290D01*
X168238978Y-82285602D01*
X168597921Y-82357000D01*
X168642079Y-82357000D01*
X169073363Y-82271212D01*
X169438988Y-82026909D01*
X169683291Y-81661284D01*
X169769079Y-81230000D01*
X169683291Y-80798716D01*
X169438988Y-80433091D01*
X169073363Y-80188788D01*
X168642079Y-80103000D01*
X168597921Y-80103000D01*
X168166637Y-80188788D01*
X167801012Y-80433091D01*
X167556709Y-80798716D01*
X167470921Y-81230000D01*
X167549646Y-81625774D01*
X157302420Y-91873000D01*
X145677521Y-91873000D01*
X145511012Y-91623801D01*
X145177829Y-91401176D01*
X144920551Y-91350000D01*
X145177829Y-91298824D01*
X145511012Y-91076199D01*
X145677521Y-90827000D01*
X156960000Y-90827000D01*
X157142540Y-90790691D01*
X157297290Y-90687290D01*
X168238978Y-79745602D01*
X168597921Y-79817000D01*
X168642079Y-79817000D01*
X169073363Y-79731212D01*
X169438988Y-79486909D01*
X169683291Y-79121284D01*
X169769079Y-78690000D01*
X169683291Y-78258716D01*
X169438988Y-77893091D01*
X169073363Y-77648788D01*
X168642079Y-77563000D01*
X168597921Y-77563000D01*
X168166637Y-77648788D01*
X167801012Y-77893091D01*
X167556709Y-78258716D01*
X167470921Y-78690000D01*
X167549646Y-79085774D01*
X156762420Y-89873000D01*
X145677521Y-89873000D01*
X145511012Y-89623801D01*
X145177829Y-89401176D01*
X144920551Y-89350000D01*
X145177829Y-89298824D01*
X145511012Y-89076199D01*
X145677521Y-88827000D01*
X156420000Y-88827000D01*
X156602540Y-88790691D01*
X156757290Y-88687290D01*
X168238978Y-77205602D01*
X168597921Y-77277000D01*
X168642079Y-77277000D01*
X169073363Y-77191212D01*
X169438988Y-76946909D01*
X169683291Y-76581284D01*
X169769079Y-76150000D01*
X169683291Y-75718716D01*
X169438988Y-75353091D01*
X169073363Y-75108788D01*
X168642079Y-75023000D01*
X168597921Y-75023000D01*
X168166637Y-75108788D01*
X167801012Y-75353091D01*
X167556709Y-75718716D01*
X167470921Y-76150000D01*
X167549646Y-76545774D01*
X156222420Y-87873000D01*
X145677521Y-87873000D01*
X145511012Y-87623801D01*
X145177829Y-87401176D01*
X144920551Y-87350000D01*
X145177829Y-87298824D01*
X145511012Y-87076199D01*
X145677521Y-86827000D01*
X155880000Y-86827000D01*
X156062540Y-86790691D01*
X156217290Y-86687290D01*
X168238978Y-74665602D01*
X168597921Y-74737000D01*
X168642079Y-74737000D01*
X169073363Y-74651212D01*
X169438988Y-74406909D01*
X169683291Y-74041284D01*
X169769079Y-73610000D01*
X169683291Y-73178716D01*
X169438988Y-72813091D01*
X169073363Y-72568788D01*
X168642079Y-72483000D01*
X168597921Y-72483000D01*
X168166637Y-72568788D01*
X167801012Y-72813091D01*
X167556709Y-73178716D01*
X167470921Y-73610000D01*
X167549646Y-74005774D01*
X155682420Y-85873000D01*
X145677521Y-85873000D01*
X145511012Y-85623801D01*
X145177829Y-85401176D01*
X144920551Y-85350000D01*
X145177829Y-85298824D01*
X145511012Y-85076199D01*
X145677521Y-84827000D01*
X155340000Y-84827000D01*
X155522540Y-84790691D01*
X155677290Y-84687290D01*
X168238978Y-72125602D01*
X168597921Y-72197000D01*
X168642079Y-72197000D01*
X169073363Y-72111212D01*
X169438988Y-71866909D01*
X169683291Y-71501284D01*
X169769079Y-71070000D01*
X169683291Y-70638716D01*
X169438988Y-70273091D01*
X169073363Y-70028788D01*
X168642079Y-69943000D01*
X168597921Y-69943000D01*
X168166637Y-70028788D01*
X167801012Y-70273091D01*
X167556709Y-70638716D01*
X167470921Y-71070000D01*
X167549646Y-71465774D01*
X155142420Y-83873000D01*
X145677521Y-83873000D01*
X145511012Y-83623801D01*
X145177829Y-83401176D01*
X144920551Y-83350000D01*
X145177829Y-83298824D01*
X145511012Y-83076199D01*
X145677521Y-82827000D01*
X154800000Y-82827000D01*
X154982540Y-82790691D01*
X155137290Y-82687290D01*
X168238978Y-69585602D01*
X168597921Y-69657000D01*
X168642079Y-69657000D01*
X169073363Y-69571212D01*
X169438988Y-69326909D01*
X169683291Y-68961284D01*
X169769079Y-68530000D01*
X169683291Y-68098716D01*
X169438988Y-67733091D01*
X169073363Y-67488788D01*
X168642079Y-67403000D01*
X168597921Y-67403000D01*
X168166637Y-67488788D01*
X167801012Y-67733091D01*
X167556709Y-68098716D01*
X167470921Y-68530000D01*
X167549646Y-68925774D01*
X154602420Y-81873000D01*
X145677521Y-81873000D01*
X145511012Y-81623801D01*
X145177829Y-81401176D01*
X144920551Y-81350000D01*
X145177829Y-81298824D01*
X145511012Y-81076199D01*
X145733637Y-80743016D01*
X145811813Y-80350000D01*
X145733637Y-79956984D01*
X145511012Y-79623801D01*
X145177829Y-79401176D01*
X144920551Y-79350000D01*
X145177829Y-79298824D01*
X145511012Y-79076199D01*
X145733637Y-78743016D01*
X145811813Y-78350000D01*
X145733637Y-77956984D01*
X145511012Y-77623801D01*
X145177829Y-77401176D01*
X144920551Y-77350000D01*
X145177829Y-77298824D01*
X145511012Y-77076199D01*
X145733637Y-76743016D01*
X145811813Y-76350000D01*
X145733637Y-75956984D01*
X145511012Y-75623801D01*
X145177829Y-75401176D01*
X144784813Y-75323000D01*
X143215187Y-75323000D01*
X142822171Y-75401176D01*
X142488988Y-75623801D01*
X142322479Y-75873000D01*
X140129261Y-75873000D01*
X140230972Y-75747349D01*
X140385000Y-75227000D01*
X140385000Y-74477000D01*
X139127000Y-74477000D01*
X139127000Y-74497000D01*
X138873000Y-74497000D01*
X138873000Y-74477000D01*
X138853000Y-74477000D01*
X138853000Y-74223000D01*
X138873000Y-74223000D01*
X138873000Y-72380344D01*
X139127000Y-72380344D01*
X139127000Y-74223000D01*
X140385000Y-74223000D01*
X140385000Y-73473000D01*
X140230972Y-72952651D01*
X139889540Y-72530855D01*
X139412684Y-72271827D01*
X139341185Y-72257682D01*
X139127000Y-72380344D01*
X138873000Y-72380344D01*
X138658815Y-72257682D01*
X138587316Y-72271827D01*
X138110460Y-72530855D01*
X137787170Y-72930238D01*
X137726199Y-72838988D01*
X137393016Y-72616363D01*
X137000000Y-72538187D01*
X136677013Y-72602433D01*
X135477000Y-71402420D01*
X135477000Y-70924250D01*
X135550000Y-70851250D01*
X135550000Y-69827000D01*
X135503000Y-69827000D01*
X135503000Y-69573000D01*
X135550000Y-69573000D01*
X135550000Y-68548750D01*
X135750000Y-68548750D01*
X135750000Y-69573000D01*
X135797000Y-69573000D01*
X135797000Y-69827000D01*
X135750000Y-69827000D01*
X135750000Y-70851250D01*
X135908750Y-71010000D01*
X135976309Y-71010000D01*
X136209698Y-70913327D01*
X136388327Y-70734699D01*
X136420335Y-70657426D01*
X136500000Y-70657426D01*
X136602650Y-70638111D01*
X136696927Y-70577445D01*
X136760175Y-70484880D01*
X136778309Y-70395328D01*
X136931672Y-70548959D01*
X137299816Y-70701825D01*
X137698436Y-70702173D01*
X138066846Y-70549949D01*
X138348959Y-70268328D01*
X138501825Y-69900184D01*
X138502173Y-69501564D01*
X138349949Y-69133154D01*
X138068328Y-68851041D01*
X137700184Y-68698175D01*
X137301564Y-68697827D01*
X136933154Y-68850051D01*
X136778548Y-69004388D01*
X136763111Y-68922350D01*
X136702445Y-68828073D01*
X136609880Y-68764825D01*
X136500000Y-68742574D01*
X136420335Y-68742574D01*
X136388327Y-68665301D01*
X136209698Y-68486673D01*
X135976309Y-68390000D01*
X135908750Y-68390000D01*
X135750000Y-68548750D01*
X135550000Y-68548750D01*
X135391250Y-68390000D01*
X135323691Y-68390000D01*
X135090302Y-68486673D01*
X134911673Y-68665301D01*
X134879665Y-68742574D01*
X134800000Y-68742574D01*
X134697350Y-68761889D01*
X134675840Y-68775730D01*
X134659880Y-68764825D01*
X134550000Y-68742574D01*
X134150000Y-68742574D01*
X134047350Y-68761889D01*
X134025840Y-68775730D01*
X134009880Y-68764825D01*
X133900000Y-68742574D01*
X133500000Y-68742574D01*
X133397350Y-68761889D01*
X133303073Y-68822555D01*
X133239825Y-68915120D01*
X133221691Y-69004672D01*
X133068328Y-68851041D01*
X132700184Y-68698175D01*
X132301564Y-68697827D01*
X131933154Y-68850051D01*
X131651041Y-69131672D01*
X131498175Y-69499816D01*
X131497827Y-69898436D01*
X131650051Y-70266846D01*
X131931672Y-70548959D01*
X132299816Y-70701825D01*
X132698436Y-70702173D01*
X133066846Y-70549949D01*
X133221452Y-70395612D01*
X133223000Y-70403837D01*
X133223000Y-72582545D01*
X133000000Y-72538187D01*
X132606984Y-72616363D01*
X132273801Y-72838988D01*
X132051176Y-73172171D01*
X132000000Y-73429449D01*
X131948824Y-73172171D01*
X131726199Y-72838988D01*
X131393016Y-72616363D01*
X131000000Y-72538187D01*
X130606984Y-72616363D01*
X130273801Y-72838988D01*
X130051176Y-73172171D01*
X129973000Y-73565187D01*
X129973000Y-75134813D01*
X130051176Y-75527829D01*
X130273801Y-75861012D01*
X130291742Y-75873000D01*
X128503229Y-75873000D01*
X121642939Y-69012710D01*
X121488189Y-68909309D01*
X121305649Y-68873000D01*
X103752426Y-68873000D01*
X103752426Y-68500000D01*
X103733111Y-68397350D01*
X103672445Y-68303073D01*
X103579880Y-68239825D01*
X103470000Y-68217574D01*
X101770000Y-68217574D01*
X101667350Y-68236889D01*
X101573073Y-68297555D01*
X101509825Y-68390120D01*
X101487574Y-68500000D01*
X101487574Y-70200000D01*
X101506889Y-70302650D01*
X101567555Y-70396927D01*
X101660120Y-70460175D01*
X101770000Y-70482426D01*
X103470000Y-70482426D01*
X103572650Y-70463111D01*
X103666927Y-70402445D01*
X103730175Y-70309880D01*
X103752426Y-70200000D01*
X103752426Y-69827000D01*
X121108069Y-69827000D01*
X126604069Y-75323000D01*
X125215187Y-75323000D01*
X124822171Y-75401176D01*
X124488988Y-75623801D01*
X124322479Y-75873000D01*
X107277580Y-75873000D01*
X103690354Y-72285774D01*
X103769079Y-71890000D01*
X103683291Y-71458716D01*
X103438988Y-71093091D01*
X103073363Y-70848788D01*
X102642079Y-70763000D01*
X102597921Y-70763000D01*
X102166637Y-70848788D01*
X101801012Y-71093091D01*
X101556709Y-71458716D01*
X101470921Y-71890000D01*
X100947000Y-71890000D01*
X100947000Y-66625962D01*
X130623000Y-66625962D01*
X130623000Y-67374038D01*
X130689758Y-67709651D01*
X130879867Y-67994171D01*
X131164387Y-68184280D01*
X131500000Y-68251038D01*
X131593568Y-68232426D01*
X132700000Y-68232426D01*
X132802650Y-68213111D01*
X132896927Y-68152445D01*
X132960175Y-68059880D01*
X132974727Y-67988017D01*
X132986889Y-68052650D01*
X133047555Y-68146927D01*
X133140120Y-68210175D01*
X133250000Y-68232426D01*
X134750000Y-68232426D01*
X134852650Y-68213111D01*
X134946927Y-68152445D01*
X135000579Y-68073924D01*
X135047555Y-68146927D01*
X135140120Y-68210175D01*
X135250000Y-68232426D01*
X136750000Y-68232426D01*
X136852650Y-68213111D01*
X136946927Y-68152445D01*
X137010175Y-68059880D01*
X137024727Y-67988017D01*
X137036889Y-68052650D01*
X137097555Y-68146927D01*
X137190120Y-68210175D01*
X137300000Y-68232426D01*
X138406432Y-68232426D01*
X138500000Y-68251038D01*
X138835613Y-68184280D01*
X139120133Y-67994171D01*
X139310242Y-67709651D01*
X139377000Y-67374038D01*
X139377000Y-66625962D01*
X139310242Y-66290349D01*
X139120133Y-66005829D01*
X138835613Y-65815720D01*
X138500000Y-65748962D01*
X138406432Y-65767574D01*
X137300000Y-65767574D01*
X137197350Y-65786889D01*
X137103073Y-65847555D01*
X137039825Y-65940120D01*
X137025273Y-66011983D01*
X137013111Y-65947350D01*
X136952445Y-65853073D01*
X136859880Y-65789825D01*
X136750000Y-65767574D01*
X135250000Y-65767574D01*
X135147350Y-65786889D01*
X135053073Y-65847555D01*
X134999421Y-65926076D01*
X134952445Y-65853073D01*
X134859880Y-65789825D01*
X134750000Y-65767574D01*
X133250000Y-65767574D01*
X133147350Y-65786889D01*
X133053073Y-65847555D01*
X132989825Y-65940120D01*
X132975273Y-66011983D01*
X132963111Y-65947350D01*
X132902445Y-65853073D01*
X132809880Y-65789825D01*
X132700000Y-65767574D01*
X131593568Y-65767574D01*
X131500000Y-65748962D01*
X131164387Y-65815720D01*
X130879867Y-66005829D01*
X130689758Y-66290349D01*
X130623000Y-66625962D01*
X100947000Y-66625962D01*
X100947000Y-65677000D01*
X170293000Y-65677000D01*
X170293000Y-100023000D01*
X170293000Y-100023000D01*
G37*
X170293000Y-100023000D02*
X164491580Y-100023000D01*
X167487574Y-97027006D01*
X167487574Y-97320000D01*
X167506889Y-97422650D01*
X167567555Y-97516927D01*
X167660120Y-97580175D01*
X167770000Y-97602426D01*
X169470000Y-97602426D01*
X169572650Y-97583111D01*
X169666927Y-97522445D01*
X169730175Y-97429880D01*
X169752426Y-97320000D01*
X169752426Y-95620000D01*
X169733111Y-95517350D01*
X169672445Y-95423073D01*
X169579880Y-95359825D01*
X169470000Y-95337574D01*
X167887006Y-95337574D01*
X168238978Y-94985602D01*
X168597921Y-95057000D01*
X168642079Y-95057000D01*
X169073363Y-94971212D01*
X169438988Y-94726909D01*
X169683291Y-94361284D01*
X169769079Y-93930000D01*
X169683291Y-93498716D01*
X169438988Y-93133091D01*
X169073363Y-92888788D01*
X168642079Y-92803000D01*
X168597921Y-92803000D01*
X168166637Y-92888788D01*
X167801012Y-93133091D01*
X167556709Y-93498716D01*
X167470921Y-93930000D01*
X167549646Y-94325774D01*
X163052388Y-98823032D01*
X161861548Y-98823032D01*
X168238978Y-92445602D01*
X168597921Y-92517000D01*
X168642079Y-92517000D01*
X169073363Y-92431212D01*
X169438988Y-92186909D01*
X169683291Y-91821284D01*
X169769079Y-91390000D01*
X169683291Y-90958716D01*
X169438988Y-90593091D01*
X169073363Y-90348788D01*
X168642079Y-90263000D01*
X168597921Y-90263000D01*
X168166637Y-90348788D01*
X167801012Y-90593091D01*
X167556709Y-90958716D01*
X167470921Y-91390000D01*
X167549646Y-91785774D01*
X161062399Y-98273021D01*
X159871559Y-98273021D01*
X168238978Y-89905602D01*
X168597921Y-89977000D01*
X168642079Y-89977000D01*
X169073363Y-89891212D01*
X169438988Y-89646909D01*
X169683291Y-89281284D01*
X169769079Y-88850000D01*
X169683291Y-88418716D01*
X169438988Y-88053091D01*
X169073363Y-87808788D01*
X168642079Y-87723000D01*
X168597921Y-87723000D01*
X168166637Y-87808788D01*
X167801012Y-88053091D01*
X167556709Y-88418716D01*
X167470921Y-88850000D01*
X167549646Y-89245774D01*
X159072410Y-97723010D01*
X140818409Y-97723010D01*
X140948824Y-97527829D01*
X141027000Y-97134813D01*
X141027000Y-96827000D01*
X158580000Y-96827000D01*
X158762540Y-96790691D01*
X158917290Y-96687290D01*
X168238978Y-87365602D01*
X168597921Y-87437000D01*
X168642079Y-87437000D01*
X169073363Y-87351212D01*
X169438988Y-87106909D01*
X169683291Y-86741284D01*
X169769079Y-86310000D01*
X169683291Y-85878716D01*
X169438988Y-85513091D01*
X169073363Y-85268788D01*
X168642079Y-85183000D01*
X168597921Y-85183000D01*
X168166637Y-85268788D01*
X167801012Y-85513091D01*
X167556709Y-85878716D01*
X167470921Y-86310000D01*
X167549646Y-86705774D01*
X158382420Y-95873000D01*
X141027000Y-95873000D01*
X141027000Y-95565187D01*
X140948824Y-95172171D01*
X140726199Y-94838988D01*
X140393016Y-94616363D01*
X140000000Y-94538187D01*
X139606984Y-94616363D01*
X139273801Y-94838988D01*
X139051176Y-95172171D01*
X139000000Y-95429449D01*
X138948824Y-95172171D01*
X138726199Y-94838988D01*
X138393016Y-94616363D01*
X138000000Y-94538187D01*
X137606984Y-94616363D01*
X137273801Y-94838988D01*
X137051176Y-95172171D01*
X137000000Y-95429449D01*
X136948824Y-95172171D01*
X136726199Y-94838988D01*
X136393016Y-94616363D01*
X136000000Y-94538187D01*
X135606984Y-94616363D01*
X135273801Y-94838988D01*
X135051176Y-95172171D01*
X135000000Y-95429449D01*
X134948824Y-95172171D01*
X134726199Y-94838988D01*
X134393016Y-94616363D01*
X134000000Y-94538187D01*
X133606984Y-94616363D01*
X133273801Y-94838988D01*
X133051176Y-95172171D01*
X133000000Y-95429449D01*
X132948824Y-95172171D01*
X132726199Y-94838988D01*
X132393016Y-94616363D01*
X132000000Y-94538187D01*
X131606984Y-94616363D01*
X131273801Y-94838988D01*
X131051176Y-95172171D01*
X131000000Y-95429449D01*
X130948824Y-95172171D01*
X130726199Y-94838988D01*
X130393016Y-94616363D01*
X130000000Y-94538187D01*
X129606984Y-94616363D01*
X129273801Y-94838988D01*
X129051176Y-95172171D01*
X128973000Y-95565187D01*
X128973000Y-95873000D01*
X104417580Y-95873000D01*
X103690354Y-95145774D01*
X103769079Y-94750000D01*
X103757380Y-94691185D01*
X123907682Y-94691185D01*
X123921827Y-94762684D01*
X124180855Y-95239540D01*
X124602651Y-95580972D01*
X125123000Y-95735000D01*
X125873000Y-95735000D01*
X125873000Y-94477000D01*
X126127000Y-94477000D01*
X126127000Y-95735000D01*
X126877000Y-95735000D01*
X127397349Y-95580972D01*
X127819145Y-95239540D01*
X128078173Y-94762684D01*
X128092318Y-94691185D01*
X127969656Y-94477000D01*
X126127000Y-94477000D01*
X125873000Y-94477000D01*
X124030344Y-94477000D01*
X123907682Y-94691185D01*
X103757380Y-94691185D01*
X103683291Y-94318716D01*
X103438988Y-93953091D01*
X103073363Y-93708788D01*
X102642079Y-93623000D01*
X102597921Y-93623000D01*
X102166637Y-93708788D01*
X101801012Y-93953091D01*
X101556709Y-94318716D01*
X101470921Y-94750000D01*
X101556709Y-95181284D01*
X101801012Y-95546909D01*
X102166637Y-95791212D01*
X102492998Y-95856129D01*
X102492998Y-95969180D01*
X102263108Y-95848514D01*
X101738642Y-96094817D01*
X101348355Y-96523076D01*
X101178524Y-96933110D01*
X101299845Y-97163000D01*
X102493000Y-97163000D01*
X102493000Y-97143000D01*
X102747000Y-97143000D01*
X102747000Y-97163000D01*
X103940155Y-97163000D01*
X104061476Y-96933110D01*
X103989106Y-96758382D01*
X104037460Y-96790691D01*
X104220000Y-96827000D01*
X128973000Y-96827000D01*
X128973000Y-97134813D01*
X129051176Y-97527829D01*
X129273801Y-97861012D01*
X129606984Y-98083637D01*
X130000000Y-98161813D01*
X130393016Y-98083637D01*
X130726199Y-97861012D01*
X130948824Y-97527829D01*
X131000000Y-97270551D01*
X131051176Y-97527829D01*
X131273801Y-97861012D01*
X131606984Y-98083637D01*
X132000000Y-98161813D01*
X132322987Y-98097567D01*
X134248420Y-100023000D01*
X100947000Y-100023000D01*
X100947000Y-97646890D01*
X101178524Y-97646890D01*
X101348355Y-98056924D01*
X101738642Y-98485183D01*
X102263108Y-98731486D01*
X102493000Y-98610819D01*
X102493000Y-97417000D01*
X102747000Y-97417000D01*
X102747000Y-98610819D01*
X102976892Y-98731486D01*
X103501358Y-98485183D01*
X103891645Y-98056924D01*
X104061476Y-97646890D01*
X103940155Y-97417000D01*
X102747000Y-97417000D01*
X102493000Y-97417000D01*
X101299845Y-97417000D01*
X101178524Y-97646890D01*
X100947000Y-97646890D01*
X100947000Y-71890000D01*
X101470921Y-71890000D01*
X101556709Y-72321284D01*
X101801012Y-72686909D01*
X102166637Y-72931212D01*
X102597921Y-73017000D01*
X102642079Y-73017000D01*
X103001022Y-72945602D01*
X106742710Y-76687290D01*
X106897459Y-76790691D01*
X107080000Y-76827000D01*
X124322479Y-76827000D01*
X124488988Y-77076199D01*
X124822171Y-77298824D01*
X125079449Y-77350000D01*
X124822171Y-77401176D01*
X124488988Y-77623801D01*
X124322479Y-77873000D01*
X106737580Y-77873000D01*
X103690354Y-74825774D01*
X103769079Y-74430000D01*
X103683291Y-73998716D01*
X103438988Y-73633091D01*
X103073363Y-73388788D01*
X102642079Y-73303000D01*
X102597921Y-73303000D01*
X102166637Y-73388788D01*
X101801012Y-73633091D01*
X101556709Y-73998716D01*
X101470921Y-74430000D01*
X101556709Y-74861284D01*
X101801012Y-75226909D01*
X102166637Y-75471212D01*
X102597921Y-75557000D01*
X102642079Y-75557000D01*
X103001022Y-75485602D01*
X106202710Y-78687290D01*
X106357460Y-78790691D01*
X106540000Y-78827000D01*
X124322479Y-78827000D01*
X124488988Y-79076199D01*
X124822171Y-79298824D01*
X125079449Y-79350000D01*
X124822171Y-79401176D01*
X124488988Y-79623801D01*
X124322479Y-79873000D01*
X106197580Y-79873000D01*
X103690354Y-77365774D01*
X103769079Y-76970000D01*
X103683291Y-76538716D01*
X103438988Y-76173091D01*
X103073363Y-75928788D01*
X102642079Y-75843000D01*
X102597921Y-75843000D01*
X102166637Y-75928788D01*
X101801012Y-76173091D01*
X101556709Y-76538716D01*
X101470921Y-76970000D01*
X101556709Y-77401284D01*
X101801012Y-77766909D01*
X102166637Y-78011212D01*
X102597921Y-78097000D01*
X102642079Y-78097000D01*
X103001022Y-78025602D01*
X105662710Y-80687290D01*
X105817460Y-80790691D01*
X106000000Y-80827000D01*
X124322479Y-80827000D01*
X124488988Y-81076199D01*
X124822171Y-81298824D01*
X125079449Y-81350000D01*
X124822171Y-81401176D01*
X124488988Y-81623801D01*
X124322479Y-81873000D01*
X105657580Y-81873000D01*
X103690354Y-79905774D01*
X103769079Y-79510000D01*
X103683291Y-79078716D01*
X103438988Y-78713091D01*
X103073363Y-78468788D01*
X102642079Y-78383000D01*
X102597921Y-78383000D01*
X102166637Y-78468788D01*
X101801012Y-78713091D01*
X101556709Y-79078716D01*
X101470921Y-79510000D01*
X101556709Y-79941284D01*
X101801012Y-80306909D01*
X102166637Y-80551212D01*
X102597921Y-80637000D01*
X102642079Y-80637000D01*
X103001022Y-80565602D01*
X105122710Y-82687290D01*
X105277460Y-82790691D01*
X105460000Y-82827000D01*
X124322479Y-82827000D01*
X124488988Y-83076199D01*
X124822171Y-83298824D01*
X125079449Y-83350000D01*
X124822171Y-83401176D01*
X124488988Y-83623801D01*
X124322479Y-83873000D01*
X105117580Y-83873000D01*
X103690354Y-82445774D01*
X103769079Y-82050000D01*
X103683291Y-81618716D01*
X103438988Y-81253091D01*
X103073363Y-81008788D01*
X102642079Y-80923000D01*
X102597921Y-80923000D01*
X102166637Y-81008788D01*
X101801012Y-81253091D01*
X101556709Y-81618716D01*
X101470921Y-82050000D01*
X101556709Y-82481284D01*
X101801012Y-82846909D01*
X102166637Y-83091212D01*
X102597921Y-83177000D01*
X102642079Y-83177000D01*
X103001022Y-83105602D01*
X104582710Y-84687290D01*
X104737460Y-84790691D01*
X104920000Y-84827000D01*
X124322479Y-84827000D01*
X124488988Y-85076199D01*
X124822171Y-85298824D01*
X125079449Y-85350000D01*
X124822171Y-85401176D01*
X124488988Y-85623801D01*
X124322479Y-85873000D01*
X104577580Y-85873000D01*
X103690354Y-84985774D01*
X103769079Y-84590000D01*
X103683291Y-84158716D01*
X103438988Y-83793091D01*
X103073363Y-83548788D01*
X102642079Y-83463000D01*
X102597921Y-83463000D01*
X102166637Y-83548788D01*
X101801012Y-83793091D01*
X101556709Y-84158716D01*
X101470921Y-84590000D01*
X101556709Y-85021284D01*
X101801012Y-85386909D01*
X102166637Y-85631212D01*
X102597921Y-85717000D01*
X102642079Y-85717000D01*
X103001022Y-85645602D01*
X104042710Y-86687290D01*
X104197460Y-86790691D01*
X104380000Y-86827000D01*
X124322479Y-86827000D01*
X124488988Y-87076199D01*
X124822171Y-87298824D01*
X125079449Y-87350000D01*
X124822171Y-87401176D01*
X124488988Y-87623801D01*
X124322479Y-87873000D01*
X104037580Y-87873000D01*
X103690354Y-87525774D01*
X103769079Y-87130000D01*
X103683291Y-86698716D01*
X103438988Y-86333091D01*
X103073363Y-86088788D01*
X102642079Y-86003000D01*
X102597921Y-86003000D01*
X102166637Y-86088788D01*
X101801012Y-86333091D01*
X101556709Y-86698716D01*
X101470921Y-87130000D01*
X101556709Y-87561284D01*
X101801012Y-87926909D01*
X102166637Y-88171212D01*
X102597921Y-88257000D01*
X102642079Y-88257000D01*
X103001022Y-88185602D01*
X103502710Y-88687290D01*
X103657460Y-88790691D01*
X103840000Y-88827000D01*
X124322479Y-88827000D01*
X124488988Y-89076199D01*
X124822171Y-89298824D01*
X125079449Y-89350000D01*
X124822171Y-89401176D01*
X124488988Y-89623801D01*
X124322479Y-89873000D01*
X103728700Y-89873000D01*
X103769079Y-89670000D01*
X103683291Y-89238716D01*
X103438988Y-88873091D01*
X103073363Y-88628788D01*
X102642079Y-88543000D01*
X102597921Y-88543000D01*
X102166637Y-88628788D01*
X101801012Y-88873091D01*
X101556709Y-89238716D01*
X101470921Y-89670000D01*
X101556709Y-90101284D01*
X101801012Y-90466909D01*
X102166637Y-90711212D01*
X102597921Y-90797000D01*
X102642079Y-90797000D01*
X103015683Y-90722685D01*
X103117460Y-90790691D01*
X103300000Y-90827000D01*
X124322479Y-90827000D01*
X124488988Y-91076199D01*
X124822171Y-91298824D01*
X125079449Y-91350000D01*
X124822171Y-91401176D01*
X124488988Y-91623801D01*
X124322479Y-91873000D01*
X103702045Y-91873000D01*
X103683291Y-91778716D01*
X103438988Y-91413091D01*
X103073363Y-91168788D01*
X102642079Y-91083000D01*
X102597921Y-91083000D01*
X102166637Y-91168788D01*
X101801012Y-91413091D01*
X101556709Y-91778716D01*
X101470921Y-92210000D01*
X101556709Y-92641284D01*
X101801012Y-93006909D01*
X102166637Y-93251212D01*
X102597921Y-93337000D01*
X102642079Y-93337000D01*
X103073363Y-93251212D01*
X103438988Y-93006909D01*
X103559199Y-92827000D01*
X124322479Y-92827000D01*
X124488988Y-93076199D01*
X124580238Y-93137170D01*
X124180855Y-93460460D01*
X123921827Y-93937316D01*
X123907682Y-94008815D01*
X124030344Y-94223000D01*
X125873000Y-94223000D01*
X125873000Y-94203000D01*
X126127000Y-94203000D01*
X126127000Y-94223000D01*
X127969656Y-94223000D01*
X128092318Y-94008815D01*
X128078173Y-93937316D01*
X127819145Y-93460460D01*
X127419762Y-93137170D01*
X127511012Y-93076199D01*
X127733637Y-92743016D01*
X127811813Y-92350000D01*
X127733637Y-91956984D01*
X127511012Y-91623801D01*
X127177829Y-91401176D01*
X126920551Y-91350000D01*
X127177829Y-91298824D01*
X127511012Y-91076199D01*
X127733637Y-90743016D01*
X127811813Y-90350000D01*
X127733637Y-89956984D01*
X127511012Y-89623801D01*
X127177829Y-89401176D01*
X126920551Y-89350000D01*
X127177829Y-89298824D01*
X127511012Y-89076199D01*
X127733637Y-88743016D01*
X127811813Y-88350000D01*
X127733637Y-87956984D01*
X127511012Y-87623801D01*
X127177829Y-87401176D01*
X126920551Y-87350000D01*
X127177829Y-87298824D01*
X127511012Y-87076199D01*
X127733637Y-86743016D01*
X127811813Y-86350000D01*
X127733637Y-85956984D01*
X127511012Y-85623801D01*
X127177829Y-85401176D01*
X126920551Y-85350000D01*
X127177829Y-85298824D01*
X127511012Y-85076199D01*
X127733637Y-84743016D01*
X127811813Y-84350000D01*
X127733637Y-83956984D01*
X127511012Y-83623801D01*
X127177829Y-83401176D01*
X126920551Y-83350000D01*
X127177829Y-83298824D01*
X127511012Y-83076199D01*
X127733637Y-82743016D01*
X127811813Y-82350000D01*
X127733637Y-81956984D01*
X127511012Y-81623801D01*
X127177829Y-81401176D01*
X126920551Y-81350000D01*
X127177829Y-81298824D01*
X127511012Y-81076199D01*
X127733637Y-80743016D01*
X127811813Y-80350000D01*
X127733637Y-79956984D01*
X127511012Y-79623801D01*
X127177829Y-79401176D01*
X126920551Y-79350000D01*
X127177829Y-79298824D01*
X127511012Y-79076199D01*
X127733637Y-78743016D01*
X127811813Y-78350000D01*
X127733637Y-77956984D01*
X127511012Y-77623801D01*
X127177829Y-77401176D01*
X126920551Y-77350000D01*
X127177829Y-77298824D01*
X127511012Y-77076199D01*
X127733637Y-76743016D01*
X127781826Y-76500757D01*
X127968359Y-76687290D01*
X128123109Y-76790691D01*
X128305649Y-76827000D01*
X142322479Y-76827000D01*
X142488988Y-77076199D01*
X142822171Y-77298824D01*
X143079449Y-77350000D01*
X142822171Y-77401176D01*
X142488988Y-77623801D01*
X142266363Y-77956984D01*
X142188187Y-78350000D01*
X142266363Y-78743016D01*
X142488988Y-79076199D01*
X142822171Y-79298824D01*
X143079449Y-79350000D01*
X142822171Y-79401176D01*
X142488988Y-79623801D01*
X142266363Y-79956984D01*
X142188187Y-80350000D01*
X142266363Y-80743016D01*
X142488988Y-81076199D01*
X142822171Y-81298824D01*
X143079449Y-81350000D01*
X142822171Y-81401176D01*
X142488988Y-81623801D01*
X142266363Y-81956984D01*
X142188187Y-82350000D01*
X142266363Y-82743016D01*
X142488988Y-83076199D01*
X142822171Y-83298824D01*
X143079449Y-83350000D01*
X142822171Y-83401176D01*
X142488988Y-83623801D01*
X142266363Y-83956984D01*
X142188187Y-84350000D01*
X142266363Y-84743016D01*
X142488988Y-85076199D01*
X142822171Y-85298824D01*
X143079449Y-85350000D01*
X142822171Y-85401176D01*
X142488988Y-85623801D01*
X142266363Y-85956984D01*
X142188187Y-86350000D01*
X142266363Y-86743016D01*
X142488988Y-87076199D01*
X142822171Y-87298824D01*
X143079449Y-87350000D01*
X142822171Y-87401176D01*
X142488988Y-87623801D01*
X142266363Y-87956984D01*
X142188187Y-88350000D01*
X142266363Y-88743016D01*
X142488988Y-89076199D01*
X142822171Y-89298824D01*
X143079449Y-89350000D01*
X142822171Y-89401176D01*
X142488988Y-89623801D01*
X142266363Y-89956984D01*
X142188187Y-90350000D01*
X142266363Y-90743016D01*
X142488988Y-91076199D01*
X142822171Y-91298824D01*
X143079449Y-91350000D01*
X142822171Y-91401176D01*
X142488988Y-91623801D01*
X142266363Y-91956984D01*
X142188187Y-92350000D01*
X142266363Y-92743016D01*
X142488988Y-93076199D01*
X142822171Y-93298824D01*
X143079449Y-93350000D01*
X142822171Y-93401176D01*
X142488988Y-93623801D01*
X142266363Y-93956984D01*
X142188187Y-94350000D01*
X142266363Y-94743016D01*
X142488988Y-95076199D01*
X142822171Y-95298824D01*
X143215187Y-95377000D01*
X144784813Y-95377000D01*
X145177829Y-95298824D01*
X145511012Y-95076199D01*
X145677521Y-94827000D01*
X158040000Y-94827000D01*
X158222540Y-94790691D01*
X158377290Y-94687290D01*
X168238978Y-84825602D01*
X168597921Y-84897000D01*
X168642079Y-84897000D01*
X169073363Y-84811212D01*
X169438988Y-84566909D01*
X169683291Y-84201284D01*
X169769079Y-83770000D01*
X169683291Y-83338716D01*
X169438988Y-82973091D01*
X169073363Y-82728788D01*
X168642079Y-82643000D01*
X168597921Y-82643000D01*
X168166637Y-82728788D01*
X167801012Y-82973091D01*
X167556709Y-83338716D01*
X167470921Y-83770000D01*
X167549646Y-84165774D01*
X157842420Y-93873000D01*
X145677521Y-93873000D01*
X145511012Y-93623801D01*
X145177829Y-93401176D01*
X144920551Y-93350000D01*
X145177829Y-93298824D01*
X145511012Y-93076199D01*
X145677521Y-92827000D01*
X157500000Y-92827000D01*
X157682540Y-92790691D01*
X157837290Y-92687290D01*
X168238978Y-82285602D01*
X168597921Y-82357000D01*
X168642079Y-82357000D01*
X169073363Y-82271212D01*
X169438988Y-82026909D01*
X169683291Y-81661284D01*
X169769079Y-81230000D01*
X169683291Y-80798716D01*
X169438988Y-80433091D01*
X169073363Y-80188788D01*
X168642079Y-80103000D01*
X168597921Y-80103000D01*
X168166637Y-80188788D01*
X167801012Y-80433091D01*
X167556709Y-80798716D01*
X167470921Y-81230000D01*
X167549646Y-81625774D01*
X157302420Y-91873000D01*
X145677521Y-91873000D01*
X145511012Y-91623801D01*
X145177829Y-91401176D01*
X144920551Y-91350000D01*
X145177829Y-91298824D01*
X145511012Y-91076199D01*
X145677521Y-90827000D01*
X156960000Y-90827000D01*
X157142540Y-90790691D01*
X157297290Y-90687290D01*
X168238978Y-79745602D01*
X168597921Y-79817000D01*
X168642079Y-79817000D01*
X169073363Y-79731212D01*
X169438988Y-79486909D01*
X169683291Y-79121284D01*
X169769079Y-78690000D01*
X169683291Y-78258716D01*
X169438988Y-77893091D01*
X169073363Y-77648788D01*
X168642079Y-77563000D01*
X168597921Y-77563000D01*
X168166637Y-77648788D01*
X167801012Y-77893091D01*
X167556709Y-78258716D01*
X167470921Y-78690000D01*
X167549646Y-79085774D01*
X156762420Y-89873000D01*
X145677521Y-89873000D01*
X145511012Y-89623801D01*
X145177829Y-89401176D01*
X144920551Y-89350000D01*
X145177829Y-89298824D01*
X145511012Y-89076199D01*
X145677521Y-88827000D01*
X156420000Y-88827000D01*
X156602540Y-88790691D01*
X156757290Y-88687290D01*
X168238978Y-77205602D01*
X168597921Y-77277000D01*
X168642079Y-77277000D01*
X169073363Y-77191212D01*
X169438988Y-76946909D01*
X169683291Y-76581284D01*
X169769079Y-76150000D01*
X169683291Y-75718716D01*
X169438988Y-75353091D01*
X169073363Y-75108788D01*
X168642079Y-75023000D01*
X168597921Y-75023000D01*
X168166637Y-75108788D01*
X167801012Y-75353091D01*
X167556709Y-75718716D01*
X167470921Y-76150000D01*
X167549646Y-76545774D01*
X156222420Y-87873000D01*
X145677521Y-87873000D01*
X145511012Y-87623801D01*
X145177829Y-87401176D01*
X144920551Y-87350000D01*
X145177829Y-87298824D01*
X145511012Y-87076199D01*
X145677521Y-86827000D01*
X155880000Y-86827000D01*
X156062540Y-86790691D01*
X156217290Y-86687290D01*
X168238978Y-74665602D01*
X168597921Y-74737000D01*
X168642079Y-74737000D01*
X169073363Y-74651212D01*
X169438988Y-74406909D01*
X169683291Y-74041284D01*
X169769079Y-73610000D01*
X169683291Y-73178716D01*
X169438988Y-72813091D01*
X169073363Y-72568788D01*
X168642079Y-72483000D01*
X168597921Y-72483000D01*
X168166637Y-72568788D01*
X167801012Y-72813091D01*
X167556709Y-73178716D01*
X167470921Y-73610000D01*
X167549646Y-74005774D01*
X155682420Y-85873000D01*
X145677521Y-85873000D01*
X145511012Y-85623801D01*
X145177829Y-85401176D01*
X144920551Y-85350000D01*
X145177829Y-85298824D01*
X145511012Y-85076199D01*
X145677521Y-84827000D01*
X155340000Y-84827000D01*
X155522540Y-84790691D01*
X155677290Y-84687290D01*
X168238978Y-72125602D01*
X168597921Y-72197000D01*
X168642079Y-72197000D01*
X169073363Y-72111212D01*
X169438988Y-71866909D01*
X169683291Y-71501284D01*
X169769079Y-71070000D01*
X169683291Y-70638716D01*
X169438988Y-70273091D01*
X169073363Y-70028788D01*
X168642079Y-69943000D01*
X168597921Y-69943000D01*
X168166637Y-70028788D01*
X167801012Y-70273091D01*
X167556709Y-70638716D01*
X167470921Y-71070000D01*
X167549646Y-71465774D01*
X155142420Y-83873000D01*
X145677521Y-83873000D01*
X145511012Y-83623801D01*
X145177829Y-83401176D01*
X144920551Y-83350000D01*
X145177829Y-83298824D01*
X145511012Y-83076199D01*
X145677521Y-82827000D01*
X154800000Y-82827000D01*
X154982540Y-82790691D01*
X155137290Y-82687290D01*
X168238978Y-69585602D01*
X168597921Y-69657000D01*
X168642079Y-69657000D01*
X169073363Y-69571212D01*
X169438988Y-69326909D01*
X169683291Y-68961284D01*
X169769079Y-68530000D01*
X169683291Y-68098716D01*
X169438988Y-67733091D01*
X169073363Y-67488788D01*
X168642079Y-67403000D01*
X168597921Y-67403000D01*
X168166637Y-67488788D01*
X167801012Y-67733091D01*
X167556709Y-68098716D01*
X167470921Y-68530000D01*
X167549646Y-68925774D01*
X154602420Y-81873000D01*
X145677521Y-81873000D01*
X145511012Y-81623801D01*
X145177829Y-81401176D01*
X144920551Y-81350000D01*
X145177829Y-81298824D01*
X145511012Y-81076199D01*
X145733637Y-80743016D01*
X145811813Y-80350000D01*
X145733637Y-79956984D01*
X145511012Y-79623801D01*
X145177829Y-79401176D01*
X144920551Y-79350000D01*
X145177829Y-79298824D01*
X145511012Y-79076199D01*
X145733637Y-78743016D01*
X145811813Y-78350000D01*
X145733637Y-77956984D01*
X145511012Y-77623801D01*
X145177829Y-77401176D01*
X144920551Y-77350000D01*
X145177829Y-77298824D01*
X145511012Y-77076199D01*
X145733637Y-76743016D01*
X145811813Y-76350000D01*
X145733637Y-75956984D01*
X145511012Y-75623801D01*
X145177829Y-75401176D01*
X144784813Y-75323000D01*
X143215187Y-75323000D01*
X142822171Y-75401176D01*
X142488988Y-75623801D01*
X142322479Y-75873000D01*
X140129261Y-75873000D01*
X140230972Y-75747349D01*
X140385000Y-75227000D01*
X140385000Y-74477000D01*
X139127000Y-74477000D01*
X139127000Y-74497000D01*
X138873000Y-74497000D01*
X138873000Y-74477000D01*
X138853000Y-74477000D01*
X138853000Y-74223000D01*
X138873000Y-74223000D01*
X138873000Y-72380344D01*
X139127000Y-72380344D01*
X139127000Y-74223000D01*
X140385000Y-74223000D01*
X140385000Y-73473000D01*
X140230972Y-72952651D01*
X139889540Y-72530855D01*
X139412684Y-72271827D01*
X139341185Y-72257682D01*
X139127000Y-72380344D01*
X138873000Y-72380344D01*
X138658815Y-72257682D01*
X138587316Y-72271827D01*
X138110460Y-72530855D01*
X137787170Y-72930238D01*
X137726199Y-72838988D01*
X137393016Y-72616363D01*
X137000000Y-72538187D01*
X136677013Y-72602433D01*
X135477000Y-71402420D01*
X135477000Y-70924250D01*
X135550000Y-70851250D01*
X135550000Y-69827000D01*
X135503000Y-69827000D01*
X135503000Y-69573000D01*
X135550000Y-69573000D01*
X135550000Y-68548750D01*
X135750000Y-68548750D01*
X135750000Y-69573000D01*
X135797000Y-69573000D01*
X135797000Y-69827000D01*
X135750000Y-69827000D01*
X135750000Y-70851250D01*
X135908750Y-71010000D01*
X135976309Y-71010000D01*
X136209698Y-70913327D01*
X136388327Y-70734699D01*
X136420335Y-70657426D01*
X136500000Y-70657426D01*
X136602650Y-70638111D01*
X136696927Y-70577445D01*
X136760175Y-70484880D01*
X136778309Y-70395328D01*
X136931672Y-70548959D01*
X137299816Y-70701825D01*
X137698436Y-70702173D01*
X138066846Y-70549949D01*
X138348959Y-70268328D01*
X138501825Y-69900184D01*
X138502173Y-69501564D01*
X138349949Y-69133154D01*
X138068328Y-68851041D01*
X137700184Y-68698175D01*
X137301564Y-68697827D01*
X136933154Y-68850051D01*
X136778548Y-69004388D01*
X136763111Y-68922350D01*
X136702445Y-68828073D01*
X136609880Y-68764825D01*
X136500000Y-68742574D01*
X136420335Y-68742574D01*
X136388327Y-68665301D01*
X136209698Y-68486673D01*
X135976309Y-68390000D01*
X135908750Y-68390000D01*
X135750000Y-68548750D01*
X135550000Y-68548750D01*
X135391250Y-68390000D01*
X135323691Y-68390000D01*
X135090302Y-68486673D01*
X134911673Y-68665301D01*
X134879665Y-68742574D01*
X134800000Y-68742574D01*
X134697350Y-68761889D01*
X134675840Y-68775730D01*
X134659880Y-68764825D01*
X134550000Y-68742574D01*
X134150000Y-68742574D01*
X134047350Y-68761889D01*
X134025840Y-68775730D01*
X134009880Y-68764825D01*
X133900000Y-68742574D01*
X133500000Y-68742574D01*
X133397350Y-68761889D01*
X133303073Y-68822555D01*
X133239825Y-68915120D01*
X133221691Y-69004672D01*
X133068328Y-68851041D01*
X132700184Y-68698175D01*
X132301564Y-68697827D01*
X131933154Y-68850051D01*
X131651041Y-69131672D01*
X131498175Y-69499816D01*
X131497827Y-69898436D01*
X131650051Y-70266846D01*
X131931672Y-70548959D01*
X132299816Y-70701825D01*
X132698436Y-70702173D01*
X133066846Y-70549949D01*
X133221452Y-70395612D01*
X133223000Y-70403837D01*
X133223000Y-72582545D01*
X133000000Y-72538187D01*
X132606984Y-72616363D01*
X132273801Y-72838988D01*
X132051176Y-73172171D01*
X132000000Y-73429449D01*
X131948824Y-73172171D01*
X131726199Y-72838988D01*
X131393016Y-72616363D01*
X131000000Y-72538187D01*
X130606984Y-72616363D01*
X130273801Y-72838988D01*
X130051176Y-73172171D01*
X129973000Y-73565187D01*
X129973000Y-75134813D01*
X130051176Y-75527829D01*
X130273801Y-75861012D01*
X130291742Y-75873000D01*
X128503229Y-75873000D01*
X121642939Y-69012710D01*
X121488189Y-68909309D01*
X121305649Y-68873000D01*
X103752426Y-68873000D01*
X103752426Y-68500000D01*
X103733111Y-68397350D01*
X103672445Y-68303073D01*
X103579880Y-68239825D01*
X103470000Y-68217574D01*
X101770000Y-68217574D01*
X101667350Y-68236889D01*
X101573073Y-68297555D01*
X101509825Y-68390120D01*
X101487574Y-68500000D01*
X101487574Y-70200000D01*
X101506889Y-70302650D01*
X101567555Y-70396927D01*
X101660120Y-70460175D01*
X101770000Y-70482426D01*
X103470000Y-70482426D01*
X103572650Y-70463111D01*
X103666927Y-70402445D01*
X103730175Y-70309880D01*
X103752426Y-70200000D01*
X103752426Y-69827000D01*
X121108069Y-69827000D01*
X126604069Y-75323000D01*
X125215187Y-75323000D01*
X124822171Y-75401176D01*
X124488988Y-75623801D01*
X124322479Y-75873000D01*
X107277580Y-75873000D01*
X103690354Y-72285774D01*
X103769079Y-71890000D01*
X103683291Y-71458716D01*
X103438988Y-71093091D01*
X103073363Y-70848788D01*
X102642079Y-70763000D01*
X102597921Y-70763000D01*
X102166637Y-70848788D01*
X101801012Y-71093091D01*
X101556709Y-71458716D01*
X101470921Y-71890000D01*
X100947000Y-71890000D01*
X100947000Y-66625962D01*
X130623000Y-66625962D01*
X130623000Y-67374038D01*
X130689758Y-67709651D01*
X130879867Y-67994171D01*
X131164387Y-68184280D01*
X131500000Y-68251038D01*
X131593568Y-68232426D01*
X132700000Y-68232426D01*
X132802650Y-68213111D01*
X132896927Y-68152445D01*
X132960175Y-68059880D01*
X132974727Y-67988017D01*
X132986889Y-68052650D01*
X133047555Y-68146927D01*
X133140120Y-68210175D01*
X133250000Y-68232426D01*
X134750000Y-68232426D01*
X134852650Y-68213111D01*
X134946927Y-68152445D01*
X135000579Y-68073924D01*
X135047555Y-68146927D01*
X135140120Y-68210175D01*
X135250000Y-68232426D01*
X136750000Y-68232426D01*
X136852650Y-68213111D01*
X136946927Y-68152445D01*
X137010175Y-68059880D01*
X137024727Y-67988017D01*
X137036889Y-68052650D01*
X137097555Y-68146927D01*
X137190120Y-68210175D01*
X137300000Y-68232426D01*
X138406432Y-68232426D01*
X138500000Y-68251038D01*
X138835613Y-68184280D01*
X139120133Y-67994171D01*
X139310242Y-67709651D01*
X139377000Y-67374038D01*
X139377000Y-66625962D01*
X139310242Y-66290349D01*
X139120133Y-66005829D01*
X138835613Y-65815720D01*
X138500000Y-65748962D01*
X138406432Y-65767574D01*
X137300000Y-65767574D01*
X137197350Y-65786889D01*
X137103073Y-65847555D01*
X137039825Y-65940120D01*
X137025273Y-66011983D01*
X137013111Y-65947350D01*
X136952445Y-65853073D01*
X136859880Y-65789825D01*
X136750000Y-65767574D01*
X135250000Y-65767574D01*
X135147350Y-65786889D01*
X135053073Y-65847555D01*
X134999421Y-65926076D01*
X134952445Y-65853073D01*
X134859880Y-65789825D01*
X134750000Y-65767574D01*
X133250000Y-65767574D01*
X133147350Y-65786889D01*
X133053073Y-65847555D01*
X132989825Y-65940120D01*
X132975273Y-66011983D01*
X132963111Y-65947350D01*
X132902445Y-65853073D01*
X132809880Y-65789825D01*
X132700000Y-65767574D01*
X131593568Y-65767574D01*
X131500000Y-65748962D01*
X131164387Y-65815720D01*
X130879867Y-66005829D01*
X130689758Y-66290349D01*
X130623000Y-66625962D01*
X100947000Y-66625962D01*
X100947000Y-65677000D01*
X170293000Y-65677000D01*
X170293000Y-100023000D01*
M02*
