M48
;DRILL file {KiCad 4.0.4-stable} date 07/06/18 22:56:10
;FORMAT={-:-/ absolute / inch / decimal}
FMAT,2
INCH,TZ
T1C0.016
T2C0.024
T3C0.033
T4C0.039
%
G90
G05
M72
T1
X4.8472Y-3.7146
X5.4181Y-2.8287
T3
X5.2165Y-2.7441
X5.4134Y-2.7441
T4
X4.0402Y-2.7303
X4.0402Y-2.8303
X4.0402Y-2.9303
X4.0402Y-3.0303
X4.0402Y-3.1303
X4.0402Y-3.2303
X4.0402Y-3.3303
X4.0402Y-3.4303
X4.0402Y-3.5303
X4.0402Y-3.6303
X4.0402Y-3.7303
X4.0402Y-3.8303
X6.6386Y-2.698
X6.6386Y-2.798
X6.6386Y-2.898
X6.6386Y-2.998
X6.6386Y-3.098
X6.6386Y-3.198
X6.6386Y-3.298
X6.6386Y-3.398
X6.6386Y-3.498
X6.6386Y-3.598
X6.6386Y-3.698
X6.6386Y-3.798
T2
X5.1772Y-2.6516G85X5.1772Y-2.624
G05
X5.4528Y-2.624G85X5.4528Y-2.6516
G05
T0
M30
