G04 #@! TF.FileFunction,Copper,L1,Top,Signal*
%FSLAX46Y46*%
G04 Gerber Fmt 4.6, Leading zero omitted, Abs format (unit mm)*
G04 Created by KiCad (PCBNEW 4.0.4-stable) date 07/06/18 22:55:52*
%MOMM*%
%LPD*%
G01*
G04 APERTURE LIST*
%ADD10C,0.100000*%
%ADD11R,1.700000X1.700000*%
%ADD12O,1.700000X1.700000*%
%ADD13C,1.450000*%
%ADD14O,1.200000X1.900000*%
%ADD15C,0.600000*%
%ADD16C,0.254000*%
G04 APERTURE END LIST*
D10*
D11*
X102620000Y-69350000D03*
D12*
X102620000Y-71890000D03*
X102620000Y-74430000D03*
X102620000Y-76970000D03*
X102620000Y-79510000D03*
X102620000Y-82050000D03*
X102620000Y-84590000D03*
X102620000Y-87130000D03*
X102620000Y-89670000D03*
X102620000Y-92210000D03*
X102620000Y-94750000D03*
X102620000Y-97290000D03*
D13*
X132500000Y-69700000D03*
X137500000Y-69700000D03*
D14*
X131500000Y-67000000D03*
X138500000Y-67000000D03*
D11*
X168620000Y-96470000D03*
D12*
X168620000Y-93930000D03*
X168620000Y-91390000D03*
X168620000Y-88850000D03*
X168620000Y-86310000D03*
X168620000Y-83770000D03*
X168620000Y-81230000D03*
X168620000Y-78690000D03*
X168620000Y-76150000D03*
X168620000Y-73610000D03*
X168620000Y-71070000D03*
X168620000Y-68530000D03*
D15*
X123120000Y-94350000D03*
X137620000Y-71850000D03*
D16*
G36*
X170293000Y-100023000D02*
X100947000Y-100023000D01*
X100947000Y-97646890D01*
X101178524Y-97646890D01*
X101348355Y-98056924D01*
X101738642Y-98485183D01*
X102263108Y-98731486D01*
X102493000Y-98610819D01*
X102493000Y-97417000D01*
X102747000Y-97417000D01*
X102747000Y-98610819D01*
X102976892Y-98731486D01*
X103501358Y-98485183D01*
X103891645Y-98056924D01*
X104061476Y-97646890D01*
X103940155Y-97417000D01*
X102747000Y-97417000D01*
X102493000Y-97417000D01*
X101299845Y-97417000D01*
X101178524Y-97646890D01*
X100947000Y-97646890D01*
X100947000Y-96933110D01*
X101178524Y-96933110D01*
X101299845Y-97163000D01*
X102493000Y-97163000D01*
X102493000Y-97143000D01*
X102747000Y-97143000D01*
X102747000Y-97163000D01*
X103940155Y-97163000D01*
X104061476Y-96933110D01*
X103891645Y-96523076D01*
X103501358Y-96094817D01*
X102976892Y-95848514D01*
X102747002Y-95969180D01*
X102747002Y-95856129D01*
X103073363Y-95791212D01*
X103329599Y-95620000D01*
X167487574Y-95620000D01*
X167487574Y-97320000D01*
X167506889Y-97422650D01*
X167567555Y-97516927D01*
X167660120Y-97580175D01*
X167770000Y-97602426D01*
X169470000Y-97602426D01*
X169572650Y-97583111D01*
X169666927Y-97522445D01*
X169730175Y-97429880D01*
X169752426Y-97320000D01*
X169752426Y-95620000D01*
X169733111Y-95517350D01*
X169672445Y-95423073D01*
X169579880Y-95359825D01*
X169470000Y-95337574D01*
X167770000Y-95337574D01*
X167667350Y-95356889D01*
X167573073Y-95417555D01*
X167509825Y-95510120D01*
X167487574Y-95620000D01*
X103329599Y-95620000D01*
X103438988Y-95546909D01*
X103683291Y-95181284D01*
X103769079Y-94750000D01*
X103683291Y-94318716D01*
X103438988Y-93953091D01*
X103404430Y-93930000D01*
X167470921Y-93930000D01*
X167556709Y-94361284D01*
X167801012Y-94726909D01*
X168166637Y-94971212D01*
X168597921Y-95057000D01*
X168642079Y-95057000D01*
X169073363Y-94971212D01*
X169438988Y-94726909D01*
X169683291Y-94361284D01*
X169769079Y-93930000D01*
X169683291Y-93498716D01*
X169438988Y-93133091D01*
X169073363Y-92888788D01*
X168642079Y-92803000D01*
X168597921Y-92803000D01*
X168166637Y-92888788D01*
X167801012Y-93133091D01*
X167556709Y-93498716D01*
X167470921Y-93930000D01*
X103404430Y-93930000D01*
X103073363Y-93708788D01*
X102642079Y-93623000D01*
X102597921Y-93623000D01*
X102166637Y-93708788D01*
X101801012Y-93953091D01*
X101556709Y-94318716D01*
X101470921Y-94750000D01*
X101556709Y-95181284D01*
X101801012Y-95546909D01*
X102166637Y-95791212D01*
X102492998Y-95856129D01*
X102492998Y-95969180D01*
X102263108Y-95848514D01*
X101738642Y-96094817D01*
X101348355Y-96523076D01*
X101178524Y-96933110D01*
X100947000Y-96933110D01*
X100947000Y-92210000D01*
X101470921Y-92210000D01*
X101556709Y-92641284D01*
X101801012Y-93006909D01*
X102166637Y-93251212D01*
X102597921Y-93337000D01*
X102642079Y-93337000D01*
X103073363Y-93251212D01*
X103438988Y-93006909D01*
X103683291Y-92641284D01*
X103769079Y-92210000D01*
X103683291Y-91778716D01*
X103438988Y-91413091D01*
X103404430Y-91390000D01*
X167470921Y-91390000D01*
X167556709Y-91821284D01*
X167801012Y-92186909D01*
X168166637Y-92431212D01*
X168597921Y-92517000D01*
X168642079Y-92517000D01*
X169073363Y-92431212D01*
X169438988Y-92186909D01*
X169683291Y-91821284D01*
X169769079Y-91390000D01*
X169683291Y-90958716D01*
X169438988Y-90593091D01*
X169073363Y-90348788D01*
X168642079Y-90263000D01*
X168597921Y-90263000D01*
X168166637Y-90348788D01*
X167801012Y-90593091D01*
X167556709Y-90958716D01*
X167470921Y-91390000D01*
X103404430Y-91390000D01*
X103073363Y-91168788D01*
X102642079Y-91083000D01*
X102597921Y-91083000D01*
X102166637Y-91168788D01*
X101801012Y-91413091D01*
X101556709Y-91778716D01*
X101470921Y-92210000D01*
X100947000Y-92210000D01*
X100947000Y-89670000D01*
X101470921Y-89670000D01*
X101556709Y-90101284D01*
X101801012Y-90466909D01*
X102166637Y-90711212D01*
X102597921Y-90797000D01*
X102642079Y-90797000D01*
X103073363Y-90711212D01*
X103438988Y-90466909D01*
X103683291Y-90101284D01*
X103769079Y-89670000D01*
X103683291Y-89238716D01*
X103438988Y-88873091D01*
X103404430Y-88850000D01*
X167470921Y-88850000D01*
X167556709Y-89281284D01*
X167801012Y-89646909D01*
X168166637Y-89891212D01*
X168597921Y-89977000D01*
X168642079Y-89977000D01*
X169073363Y-89891212D01*
X169438988Y-89646909D01*
X169683291Y-89281284D01*
X169769079Y-88850000D01*
X169683291Y-88418716D01*
X169438988Y-88053091D01*
X169073363Y-87808788D01*
X168642079Y-87723000D01*
X168597921Y-87723000D01*
X168166637Y-87808788D01*
X167801012Y-88053091D01*
X167556709Y-88418716D01*
X167470921Y-88850000D01*
X103404430Y-88850000D01*
X103073363Y-88628788D01*
X102642079Y-88543000D01*
X102597921Y-88543000D01*
X102166637Y-88628788D01*
X101801012Y-88873091D01*
X101556709Y-89238716D01*
X101470921Y-89670000D01*
X100947000Y-89670000D01*
X100947000Y-87130000D01*
X101470921Y-87130000D01*
X101556709Y-87561284D01*
X101801012Y-87926909D01*
X102166637Y-88171212D01*
X102597921Y-88257000D01*
X102642079Y-88257000D01*
X103073363Y-88171212D01*
X103438988Y-87926909D01*
X103683291Y-87561284D01*
X103769079Y-87130000D01*
X103683291Y-86698716D01*
X103438988Y-86333091D01*
X103404430Y-86310000D01*
X167470921Y-86310000D01*
X167556709Y-86741284D01*
X167801012Y-87106909D01*
X168166637Y-87351212D01*
X168597921Y-87437000D01*
X168642079Y-87437000D01*
X169073363Y-87351212D01*
X169438988Y-87106909D01*
X169683291Y-86741284D01*
X169769079Y-86310000D01*
X169683291Y-85878716D01*
X169438988Y-85513091D01*
X169073363Y-85268788D01*
X168642079Y-85183000D01*
X168597921Y-85183000D01*
X168166637Y-85268788D01*
X167801012Y-85513091D01*
X167556709Y-85878716D01*
X167470921Y-86310000D01*
X103404430Y-86310000D01*
X103073363Y-86088788D01*
X102642079Y-86003000D01*
X102597921Y-86003000D01*
X102166637Y-86088788D01*
X101801012Y-86333091D01*
X101556709Y-86698716D01*
X101470921Y-87130000D01*
X100947000Y-87130000D01*
X100947000Y-84590000D01*
X101470921Y-84590000D01*
X101556709Y-85021284D01*
X101801012Y-85386909D01*
X102166637Y-85631212D01*
X102597921Y-85717000D01*
X102642079Y-85717000D01*
X103073363Y-85631212D01*
X103438988Y-85386909D01*
X103683291Y-85021284D01*
X103769079Y-84590000D01*
X103683291Y-84158716D01*
X103438988Y-83793091D01*
X103404430Y-83770000D01*
X167470921Y-83770000D01*
X167556709Y-84201284D01*
X167801012Y-84566909D01*
X168166637Y-84811212D01*
X168597921Y-84897000D01*
X168642079Y-84897000D01*
X169073363Y-84811212D01*
X169438988Y-84566909D01*
X169683291Y-84201284D01*
X169769079Y-83770000D01*
X169683291Y-83338716D01*
X169438988Y-82973091D01*
X169073363Y-82728788D01*
X168642079Y-82643000D01*
X168597921Y-82643000D01*
X168166637Y-82728788D01*
X167801012Y-82973091D01*
X167556709Y-83338716D01*
X167470921Y-83770000D01*
X103404430Y-83770000D01*
X103073363Y-83548788D01*
X102642079Y-83463000D01*
X102597921Y-83463000D01*
X102166637Y-83548788D01*
X101801012Y-83793091D01*
X101556709Y-84158716D01*
X101470921Y-84590000D01*
X100947000Y-84590000D01*
X100947000Y-82050000D01*
X101470921Y-82050000D01*
X101556709Y-82481284D01*
X101801012Y-82846909D01*
X102166637Y-83091212D01*
X102597921Y-83177000D01*
X102642079Y-83177000D01*
X103073363Y-83091212D01*
X103438988Y-82846909D01*
X103683291Y-82481284D01*
X103769079Y-82050000D01*
X103683291Y-81618716D01*
X103438988Y-81253091D01*
X103404430Y-81230000D01*
X167470921Y-81230000D01*
X167556709Y-81661284D01*
X167801012Y-82026909D01*
X168166637Y-82271212D01*
X168597921Y-82357000D01*
X168642079Y-82357000D01*
X169073363Y-82271212D01*
X169438988Y-82026909D01*
X169683291Y-81661284D01*
X169769079Y-81230000D01*
X169683291Y-80798716D01*
X169438988Y-80433091D01*
X169073363Y-80188788D01*
X168642079Y-80103000D01*
X168597921Y-80103000D01*
X168166637Y-80188788D01*
X167801012Y-80433091D01*
X167556709Y-80798716D01*
X167470921Y-81230000D01*
X103404430Y-81230000D01*
X103073363Y-81008788D01*
X102642079Y-80923000D01*
X102597921Y-80923000D01*
X102166637Y-81008788D01*
X101801012Y-81253091D01*
X101556709Y-81618716D01*
X101470921Y-82050000D01*
X100947000Y-82050000D01*
X100947000Y-79510000D01*
X101470921Y-79510000D01*
X101556709Y-79941284D01*
X101801012Y-80306909D01*
X102166637Y-80551212D01*
X102597921Y-80637000D01*
X102642079Y-80637000D01*
X103073363Y-80551212D01*
X103438988Y-80306909D01*
X103683291Y-79941284D01*
X103769079Y-79510000D01*
X103683291Y-79078716D01*
X103438988Y-78713091D01*
X103404430Y-78690000D01*
X167470921Y-78690000D01*
X167556709Y-79121284D01*
X167801012Y-79486909D01*
X168166637Y-79731212D01*
X168597921Y-79817000D01*
X168642079Y-79817000D01*
X169073363Y-79731212D01*
X169438988Y-79486909D01*
X169683291Y-79121284D01*
X169769079Y-78690000D01*
X169683291Y-78258716D01*
X169438988Y-77893091D01*
X169073363Y-77648788D01*
X168642079Y-77563000D01*
X168597921Y-77563000D01*
X168166637Y-77648788D01*
X167801012Y-77893091D01*
X167556709Y-78258716D01*
X167470921Y-78690000D01*
X103404430Y-78690000D01*
X103073363Y-78468788D01*
X102642079Y-78383000D01*
X102597921Y-78383000D01*
X102166637Y-78468788D01*
X101801012Y-78713091D01*
X101556709Y-79078716D01*
X101470921Y-79510000D01*
X100947000Y-79510000D01*
X100947000Y-76970000D01*
X101470921Y-76970000D01*
X101556709Y-77401284D01*
X101801012Y-77766909D01*
X102166637Y-78011212D01*
X102597921Y-78097000D01*
X102642079Y-78097000D01*
X103073363Y-78011212D01*
X103438988Y-77766909D01*
X103683291Y-77401284D01*
X103769079Y-76970000D01*
X103683291Y-76538716D01*
X103438988Y-76173091D01*
X103404430Y-76150000D01*
X167470921Y-76150000D01*
X167556709Y-76581284D01*
X167801012Y-76946909D01*
X168166637Y-77191212D01*
X168597921Y-77277000D01*
X168642079Y-77277000D01*
X169073363Y-77191212D01*
X169438988Y-76946909D01*
X169683291Y-76581284D01*
X169769079Y-76150000D01*
X169683291Y-75718716D01*
X169438988Y-75353091D01*
X169073363Y-75108788D01*
X168642079Y-75023000D01*
X168597921Y-75023000D01*
X168166637Y-75108788D01*
X167801012Y-75353091D01*
X167556709Y-75718716D01*
X167470921Y-76150000D01*
X103404430Y-76150000D01*
X103073363Y-75928788D01*
X102642079Y-75843000D01*
X102597921Y-75843000D01*
X102166637Y-75928788D01*
X101801012Y-76173091D01*
X101556709Y-76538716D01*
X101470921Y-76970000D01*
X100947000Y-76970000D01*
X100947000Y-74430000D01*
X101470921Y-74430000D01*
X101556709Y-74861284D01*
X101801012Y-75226909D01*
X102166637Y-75471212D01*
X102597921Y-75557000D01*
X102642079Y-75557000D01*
X103073363Y-75471212D01*
X103438988Y-75226909D01*
X103683291Y-74861284D01*
X103769079Y-74430000D01*
X103683291Y-73998716D01*
X103438988Y-73633091D01*
X103404430Y-73610000D01*
X167470921Y-73610000D01*
X167556709Y-74041284D01*
X167801012Y-74406909D01*
X168166637Y-74651212D01*
X168597921Y-74737000D01*
X168642079Y-74737000D01*
X169073363Y-74651212D01*
X169438988Y-74406909D01*
X169683291Y-74041284D01*
X169769079Y-73610000D01*
X169683291Y-73178716D01*
X169438988Y-72813091D01*
X169073363Y-72568788D01*
X168642079Y-72483000D01*
X168597921Y-72483000D01*
X168166637Y-72568788D01*
X167801012Y-72813091D01*
X167556709Y-73178716D01*
X167470921Y-73610000D01*
X103404430Y-73610000D01*
X103073363Y-73388788D01*
X102642079Y-73303000D01*
X102597921Y-73303000D01*
X102166637Y-73388788D01*
X101801012Y-73633091D01*
X101556709Y-73998716D01*
X101470921Y-74430000D01*
X100947000Y-74430000D01*
X100947000Y-71890000D01*
X101470921Y-71890000D01*
X101556709Y-72321284D01*
X101801012Y-72686909D01*
X102166637Y-72931212D01*
X102597921Y-73017000D01*
X102642079Y-73017000D01*
X103073363Y-72931212D01*
X103438988Y-72686909D01*
X103683291Y-72321284D01*
X103769079Y-71890000D01*
X103683291Y-71458716D01*
X103438988Y-71093091D01*
X103404430Y-71070000D01*
X167470921Y-71070000D01*
X167556709Y-71501284D01*
X167801012Y-71866909D01*
X168166637Y-72111212D01*
X168597921Y-72197000D01*
X168642079Y-72197000D01*
X169073363Y-72111212D01*
X169438988Y-71866909D01*
X169683291Y-71501284D01*
X169769079Y-71070000D01*
X169683291Y-70638716D01*
X169438988Y-70273091D01*
X169073363Y-70028788D01*
X168642079Y-69943000D01*
X168597921Y-69943000D01*
X168166637Y-70028788D01*
X167801012Y-70273091D01*
X167556709Y-70638716D01*
X167470921Y-71070000D01*
X103404430Y-71070000D01*
X103073363Y-70848788D01*
X102642079Y-70763000D01*
X102597921Y-70763000D01*
X102166637Y-70848788D01*
X101801012Y-71093091D01*
X101556709Y-71458716D01*
X101470921Y-71890000D01*
X100947000Y-71890000D01*
X100947000Y-68500000D01*
X101487574Y-68500000D01*
X101487574Y-70200000D01*
X101506889Y-70302650D01*
X101567555Y-70396927D01*
X101660120Y-70460175D01*
X101770000Y-70482426D01*
X103470000Y-70482426D01*
X103572650Y-70463111D01*
X103666927Y-70402445D01*
X103730175Y-70309880D01*
X103752426Y-70200000D01*
X103752426Y-69898436D01*
X131497827Y-69898436D01*
X131650051Y-70266846D01*
X131931672Y-70548959D01*
X132299816Y-70701825D01*
X132698436Y-70702173D01*
X133066846Y-70549949D01*
X133348959Y-70268328D01*
X133501825Y-69900184D01*
X133501826Y-69898436D01*
X136497827Y-69898436D01*
X136650051Y-70266846D01*
X136931672Y-70548959D01*
X137299816Y-70701825D01*
X137698436Y-70702173D01*
X138066846Y-70549949D01*
X138348959Y-70268328D01*
X138501825Y-69900184D01*
X138502173Y-69501564D01*
X138349949Y-69133154D01*
X138068328Y-68851041D01*
X137700184Y-68698175D01*
X137301564Y-68697827D01*
X136933154Y-68850051D01*
X136651041Y-69131672D01*
X136498175Y-69499816D01*
X136497827Y-69898436D01*
X133501826Y-69898436D01*
X133502173Y-69501564D01*
X133349949Y-69133154D01*
X133068328Y-68851041D01*
X132700184Y-68698175D01*
X132301564Y-68697827D01*
X131933154Y-68850051D01*
X131651041Y-69131672D01*
X131498175Y-69499816D01*
X131497827Y-69898436D01*
X103752426Y-69898436D01*
X103752426Y-68530000D01*
X167470921Y-68530000D01*
X167556709Y-68961284D01*
X167801012Y-69326909D01*
X168166637Y-69571212D01*
X168597921Y-69657000D01*
X168642079Y-69657000D01*
X169073363Y-69571212D01*
X169438988Y-69326909D01*
X169683291Y-68961284D01*
X169769079Y-68530000D01*
X169683291Y-68098716D01*
X169438988Y-67733091D01*
X169073363Y-67488788D01*
X168642079Y-67403000D01*
X168597921Y-67403000D01*
X168166637Y-67488788D01*
X167801012Y-67733091D01*
X167556709Y-68098716D01*
X167470921Y-68530000D01*
X103752426Y-68530000D01*
X103752426Y-68500000D01*
X103733111Y-68397350D01*
X103672445Y-68303073D01*
X103579880Y-68239825D01*
X103470000Y-68217574D01*
X101770000Y-68217574D01*
X101667350Y-68236889D01*
X101573073Y-68297555D01*
X101509825Y-68390120D01*
X101487574Y-68500000D01*
X100947000Y-68500000D01*
X100947000Y-66625962D01*
X130623000Y-66625962D01*
X130623000Y-67374038D01*
X130689758Y-67709651D01*
X130879867Y-67994171D01*
X131164387Y-68184280D01*
X131500000Y-68251038D01*
X131835613Y-68184280D01*
X132120133Y-67994171D01*
X132310242Y-67709651D01*
X132377000Y-67374038D01*
X132377000Y-66625962D01*
X137623000Y-66625962D01*
X137623000Y-67374038D01*
X137689758Y-67709651D01*
X137879867Y-67994171D01*
X138164387Y-68184280D01*
X138500000Y-68251038D01*
X138835613Y-68184280D01*
X139120133Y-67994171D01*
X139310242Y-67709651D01*
X139377000Y-67374038D01*
X139377000Y-66625962D01*
X139310242Y-66290349D01*
X139120133Y-66005829D01*
X138835613Y-65815720D01*
X138500000Y-65748962D01*
X138164387Y-65815720D01*
X137879867Y-66005829D01*
X137689758Y-66290349D01*
X137623000Y-66625962D01*
X132377000Y-66625962D01*
X132310242Y-66290349D01*
X132120133Y-66005829D01*
X131835613Y-65815720D01*
X131500000Y-65748962D01*
X131164387Y-65815720D01*
X130879867Y-66005829D01*
X130689758Y-66290349D01*
X130623000Y-66625962D01*
X100947000Y-66625962D01*
X100947000Y-65677000D01*
X170293000Y-65677000D01*
X170293000Y-100023000D01*
X170293000Y-100023000D01*
G37*
X170293000Y-100023000D02*
X100947000Y-100023000D01*
X100947000Y-97646890D01*
X101178524Y-97646890D01*
X101348355Y-98056924D01*
X101738642Y-98485183D01*
X102263108Y-98731486D01*
X102493000Y-98610819D01*
X102493000Y-97417000D01*
X102747000Y-97417000D01*
X102747000Y-98610819D01*
X102976892Y-98731486D01*
X103501358Y-98485183D01*
X103891645Y-98056924D01*
X104061476Y-97646890D01*
X103940155Y-97417000D01*
X102747000Y-97417000D01*
X102493000Y-97417000D01*
X101299845Y-97417000D01*
X101178524Y-97646890D01*
X100947000Y-97646890D01*
X100947000Y-96933110D01*
X101178524Y-96933110D01*
X101299845Y-97163000D01*
X102493000Y-97163000D01*
X102493000Y-97143000D01*
X102747000Y-97143000D01*
X102747000Y-97163000D01*
X103940155Y-97163000D01*
X104061476Y-96933110D01*
X103891645Y-96523076D01*
X103501358Y-96094817D01*
X102976892Y-95848514D01*
X102747002Y-95969180D01*
X102747002Y-95856129D01*
X103073363Y-95791212D01*
X103329599Y-95620000D01*
X167487574Y-95620000D01*
X167487574Y-97320000D01*
X167506889Y-97422650D01*
X167567555Y-97516927D01*
X167660120Y-97580175D01*
X167770000Y-97602426D01*
X169470000Y-97602426D01*
X169572650Y-97583111D01*
X169666927Y-97522445D01*
X169730175Y-97429880D01*
X169752426Y-97320000D01*
X169752426Y-95620000D01*
X169733111Y-95517350D01*
X169672445Y-95423073D01*
X169579880Y-95359825D01*
X169470000Y-95337574D01*
X167770000Y-95337574D01*
X167667350Y-95356889D01*
X167573073Y-95417555D01*
X167509825Y-95510120D01*
X167487574Y-95620000D01*
X103329599Y-95620000D01*
X103438988Y-95546909D01*
X103683291Y-95181284D01*
X103769079Y-94750000D01*
X103683291Y-94318716D01*
X103438988Y-93953091D01*
X103404430Y-93930000D01*
X167470921Y-93930000D01*
X167556709Y-94361284D01*
X167801012Y-94726909D01*
X168166637Y-94971212D01*
X168597921Y-95057000D01*
X168642079Y-95057000D01*
X169073363Y-94971212D01*
X169438988Y-94726909D01*
X169683291Y-94361284D01*
X169769079Y-93930000D01*
X169683291Y-93498716D01*
X169438988Y-93133091D01*
X169073363Y-92888788D01*
X168642079Y-92803000D01*
X168597921Y-92803000D01*
X168166637Y-92888788D01*
X167801012Y-93133091D01*
X167556709Y-93498716D01*
X167470921Y-93930000D01*
X103404430Y-93930000D01*
X103073363Y-93708788D01*
X102642079Y-93623000D01*
X102597921Y-93623000D01*
X102166637Y-93708788D01*
X101801012Y-93953091D01*
X101556709Y-94318716D01*
X101470921Y-94750000D01*
X101556709Y-95181284D01*
X101801012Y-95546909D01*
X102166637Y-95791212D01*
X102492998Y-95856129D01*
X102492998Y-95969180D01*
X102263108Y-95848514D01*
X101738642Y-96094817D01*
X101348355Y-96523076D01*
X101178524Y-96933110D01*
X100947000Y-96933110D01*
X100947000Y-92210000D01*
X101470921Y-92210000D01*
X101556709Y-92641284D01*
X101801012Y-93006909D01*
X102166637Y-93251212D01*
X102597921Y-93337000D01*
X102642079Y-93337000D01*
X103073363Y-93251212D01*
X103438988Y-93006909D01*
X103683291Y-92641284D01*
X103769079Y-92210000D01*
X103683291Y-91778716D01*
X103438988Y-91413091D01*
X103404430Y-91390000D01*
X167470921Y-91390000D01*
X167556709Y-91821284D01*
X167801012Y-92186909D01*
X168166637Y-92431212D01*
X168597921Y-92517000D01*
X168642079Y-92517000D01*
X169073363Y-92431212D01*
X169438988Y-92186909D01*
X169683291Y-91821284D01*
X169769079Y-91390000D01*
X169683291Y-90958716D01*
X169438988Y-90593091D01*
X169073363Y-90348788D01*
X168642079Y-90263000D01*
X168597921Y-90263000D01*
X168166637Y-90348788D01*
X167801012Y-90593091D01*
X167556709Y-90958716D01*
X167470921Y-91390000D01*
X103404430Y-91390000D01*
X103073363Y-91168788D01*
X102642079Y-91083000D01*
X102597921Y-91083000D01*
X102166637Y-91168788D01*
X101801012Y-91413091D01*
X101556709Y-91778716D01*
X101470921Y-92210000D01*
X100947000Y-92210000D01*
X100947000Y-89670000D01*
X101470921Y-89670000D01*
X101556709Y-90101284D01*
X101801012Y-90466909D01*
X102166637Y-90711212D01*
X102597921Y-90797000D01*
X102642079Y-90797000D01*
X103073363Y-90711212D01*
X103438988Y-90466909D01*
X103683291Y-90101284D01*
X103769079Y-89670000D01*
X103683291Y-89238716D01*
X103438988Y-88873091D01*
X103404430Y-88850000D01*
X167470921Y-88850000D01*
X167556709Y-89281284D01*
X167801012Y-89646909D01*
X168166637Y-89891212D01*
X168597921Y-89977000D01*
X168642079Y-89977000D01*
X169073363Y-89891212D01*
X169438988Y-89646909D01*
X169683291Y-89281284D01*
X169769079Y-88850000D01*
X169683291Y-88418716D01*
X169438988Y-88053091D01*
X169073363Y-87808788D01*
X168642079Y-87723000D01*
X168597921Y-87723000D01*
X168166637Y-87808788D01*
X167801012Y-88053091D01*
X167556709Y-88418716D01*
X167470921Y-88850000D01*
X103404430Y-88850000D01*
X103073363Y-88628788D01*
X102642079Y-88543000D01*
X102597921Y-88543000D01*
X102166637Y-88628788D01*
X101801012Y-88873091D01*
X101556709Y-89238716D01*
X101470921Y-89670000D01*
X100947000Y-89670000D01*
X100947000Y-87130000D01*
X101470921Y-87130000D01*
X101556709Y-87561284D01*
X101801012Y-87926909D01*
X102166637Y-88171212D01*
X102597921Y-88257000D01*
X102642079Y-88257000D01*
X103073363Y-88171212D01*
X103438988Y-87926909D01*
X103683291Y-87561284D01*
X103769079Y-87130000D01*
X103683291Y-86698716D01*
X103438988Y-86333091D01*
X103404430Y-86310000D01*
X167470921Y-86310000D01*
X167556709Y-86741284D01*
X167801012Y-87106909D01*
X168166637Y-87351212D01*
X168597921Y-87437000D01*
X168642079Y-87437000D01*
X169073363Y-87351212D01*
X169438988Y-87106909D01*
X169683291Y-86741284D01*
X169769079Y-86310000D01*
X169683291Y-85878716D01*
X169438988Y-85513091D01*
X169073363Y-85268788D01*
X168642079Y-85183000D01*
X168597921Y-85183000D01*
X168166637Y-85268788D01*
X167801012Y-85513091D01*
X167556709Y-85878716D01*
X167470921Y-86310000D01*
X103404430Y-86310000D01*
X103073363Y-86088788D01*
X102642079Y-86003000D01*
X102597921Y-86003000D01*
X102166637Y-86088788D01*
X101801012Y-86333091D01*
X101556709Y-86698716D01*
X101470921Y-87130000D01*
X100947000Y-87130000D01*
X100947000Y-84590000D01*
X101470921Y-84590000D01*
X101556709Y-85021284D01*
X101801012Y-85386909D01*
X102166637Y-85631212D01*
X102597921Y-85717000D01*
X102642079Y-85717000D01*
X103073363Y-85631212D01*
X103438988Y-85386909D01*
X103683291Y-85021284D01*
X103769079Y-84590000D01*
X103683291Y-84158716D01*
X103438988Y-83793091D01*
X103404430Y-83770000D01*
X167470921Y-83770000D01*
X167556709Y-84201284D01*
X167801012Y-84566909D01*
X168166637Y-84811212D01*
X168597921Y-84897000D01*
X168642079Y-84897000D01*
X169073363Y-84811212D01*
X169438988Y-84566909D01*
X169683291Y-84201284D01*
X169769079Y-83770000D01*
X169683291Y-83338716D01*
X169438988Y-82973091D01*
X169073363Y-82728788D01*
X168642079Y-82643000D01*
X168597921Y-82643000D01*
X168166637Y-82728788D01*
X167801012Y-82973091D01*
X167556709Y-83338716D01*
X167470921Y-83770000D01*
X103404430Y-83770000D01*
X103073363Y-83548788D01*
X102642079Y-83463000D01*
X102597921Y-83463000D01*
X102166637Y-83548788D01*
X101801012Y-83793091D01*
X101556709Y-84158716D01*
X101470921Y-84590000D01*
X100947000Y-84590000D01*
X100947000Y-82050000D01*
X101470921Y-82050000D01*
X101556709Y-82481284D01*
X101801012Y-82846909D01*
X102166637Y-83091212D01*
X102597921Y-83177000D01*
X102642079Y-83177000D01*
X103073363Y-83091212D01*
X103438988Y-82846909D01*
X103683291Y-82481284D01*
X103769079Y-82050000D01*
X103683291Y-81618716D01*
X103438988Y-81253091D01*
X103404430Y-81230000D01*
X167470921Y-81230000D01*
X167556709Y-81661284D01*
X167801012Y-82026909D01*
X168166637Y-82271212D01*
X168597921Y-82357000D01*
X168642079Y-82357000D01*
X169073363Y-82271212D01*
X169438988Y-82026909D01*
X169683291Y-81661284D01*
X169769079Y-81230000D01*
X169683291Y-80798716D01*
X169438988Y-80433091D01*
X169073363Y-80188788D01*
X168642079Y-80103000D01*
X168597921Y-80103000D01*
X168166637Y-80188788D01*
X167801012Y-80433091D01*
X167556709Y-80798716D01*
X167470921Y-81230000D01*
X103404430Y-81230000D01*
X103073363Y-81008788D01*
X102642079Y-80923000D01*
X102597921Y-80923000D01*
X102166637Y-81008788D01*
X101801012Y-81253091D01*
X101556709Y-81618716D01*
X101470921Y-82050000D01*
X100947000Y-82050000D01*
X100947000Y-79510000D01*
X101470921Y-79510000D01*
X101556709Y-79941284D01*
X101801012Y-80306909D01*
X102166637Y-80551212D01*
X102597921Y-80637000D01*
X102642079Y-80637000D01*
X103073363Y-80551212D01*
X103438988Y-80306909D01*
X103683291Y-79941284D01*
X103769079Y-79510000D01*
X103683291Y-79078716D01*
X103438988Y-78713091D01*
X103404430Y-78690000D01*
X167470921Y-78690000D01*
X167556709Y-79121284D01*
X167801012Y-79486909D01*
X168166637Y-79731212D01*
X168597921Y-79817000D01*
X168642079Y-79817000D01*
X169073363Y-79731212D01*
X169438988Y-79486909D01*
X169683291Y-79121284D01*
X169769079Y-78690000D01*
X169683291Y-78258716D01*
X169438988Y-77893091D01*
X169073363Y-77648788D01*
X168642079Y-77563000D01*
X168597921Y-77563000D01*
X168166637Y-77648788D01*
X167801012Y-77893091D01*
X167556709Y-78258716D01*
X167470921Y-78690000D01*
X103404430Y-78690000D01*
X103073363Y-78468788D01*
X102642079Y-78383000D01*
X102597921Y-78383000D01*
X102166637Y-78468788D01*
X101801012Y-78713091D01*
X101556709Y-79078716D01*
X101470921Y-79510000D01*
X100947000Y-79510000D01*
X100947000Y-76970000D01*
X101470921Y-76970000D01*
X101556709Y-77401284D01*
X101801012Y-77766909D01*
X102166637Y-78011212D01*
X102597921Y-78097000D01*
X102642079Y-78097000D01*
X103073363Y-78011212D01*
X103438988Y-77766909D01*
X103683291Y-77401284D01*
X103769079Y-76970000D01*
X103683291Y-76538716D01*
X103438988Y-76173091D01*
X103404430Y-76150000D01*
X167470921Y-76150000D01*
X167556709Y-76581284D01*
X167801012Y-76946909D01*
X168166637Y-77191212D01*
X168597921Y-77277000D01*
X168642079Y-77277000D01*
X169073363Y-77191212D01*
X169438988Y-76946909D01*
X169683291Y-76581284D01*
X169769079Y-76150000D01*
X169683291Y-75718716D01*
X169438988Y-75353091D01*
X169073363Y-75108788D01*
X168642079Y-75023000D01*
X168597921Y-75023000D01*
X168166637Y-75108788D01*
X167801012Y-75353091D01*
X167556709Y-75718716D01*
X167470921Y-76150000D01*
X103404430Y-76150000D01*
X103073363Y-75928788D01*
X102642079Y-75843000D01*
X102597921Y-75843000D01*
X102166637Y-75928788D01*
X101801012Y-76173091D01*
X101556709Y-76538716D01*
X101470921Y-76970000D01*
X100947000Y-76970000D01*
X100947000Y-74430000D01*
X101470921Y-74430000D01*
X101556709Y-74861284D01*
X101801012Y-75226909D01*
X102166637Y-75471212D01*
X102597921Y-75557000D01*
X102642079Y-75557000D01*
X103073363Y-75471212D01*
X103438988Y-75226909D01*
X103683291Y-74861284D01*
X103769079Y-74430000D01*
X103683291Y-73998716D01*
X103438988Y-73633091D01*
X103404430Y-73610000D01*
X167470921Y-73610000D01*
X167556709Y-74041284D01*
X167801012Y-74406909D01*
X168166637Y-74651212D01*
X168597921Y-74737000D01*
X168642079Y-74737000D01*
X169073363Y-74651212D01*
X169438988Y-74406909D01*
X169683291Y-74041284D01*
X169769079Y-73610000D01*
X169683291Y-73178716D01*
X169438988Y-72813091D01*
X169073363Y-72568788D01*
X168642079Y-72483000D01*
X168597921Y-72483000D01*
X168166637Y-72568788D01*
X167801012Y-72813091D01*
X167556709Y-73178716D01*
X167470921Y-73610000D01*
X103404430Y-73610000D01*
X103073363Y-73388788D01*
X102642079Y-73303000D01*
X102597921Y-73303000D01*
X102166637Y-73388788D01*
X101801012Y-73633091D01*
X101556709Y-73998716D01*
X101470921Y-74430000D01*
X100947000Y-74430000D01*
X100947000Y-71890000D01*
X101470921Y-71890000D01*
X101556709Y-72321284D01*
X101801012Y-72686909D01*
X102166637Y-72931212D01*
X102597921Y-73017000D01*
X102642079Y-73017000D01*
X103073363Y-72931212D01*
X103438988Y-72686909D01*
X103683291Y-72321284D01*
X103769079Y-71890000D01*
X103683291Y-71458716D01*
X103438988Y-71093091D01*
X103404430Y-71070000D01*
X167470921Y-71070000D01*
X167556709Y-71501284D01*
X167801012Y-71866909D01*
X168166637Y-72111212D01*
X168597921Y-72197000D01*
X168642079Y-72197000D01*
X169073363Y-72111212D01*
X169438988Y-71866909D01*
X169683291Y-71501284D01*
X169769079Y-71070000D01*
X169683291Y-70638716D01*
X169438988Y-70273091D01*
X169073363Y-70028788D01*
X168642079Y-69943000D01*
X168597921Y-69943000D01*
X168166637Y-70028788D01*
X167801012Y-70273091D01*
X167556709Y-70638716D01*
X167470921Y-71070000D01*
X103404430Y-71070000D01*
X103073363Y-70848788D01*
X102642079Y-70763000D01*
X102597921Y-70763000D01*
X102166637Y-70848788D01*
X101801012Y-71093091D01*
X101556709Y-71458716D01*
X101470921Y-71890000D01*
X100947000Y-71890000D01*
X100947000Y-68500000D01*
X101487574Y-68500000D01*
X101487574Y-70200000D01*
X101506889Y-70302650D01*
X101567555Y-70396927D01*
X101660120Y-70460175D01*
X101770000Y-70482426D01*
X103470000Y-70482426D01*
X103572650Y-70463111D01*
X103666927Y-70402445D01*
X103730175Y-70309880D01*
X103752426Y-70200000D01*
X103752426Y-69898436D01*
X131497827Y-69898436D01*
X131650051Y-70266846D01*
X131931672Y-70548959D01*
X132299816Y-70701825D01*
X132698436Y-70702173D01*
X133066846Y-70549949D01*
X133348959Y-70268328D01*
X133501825Y-69900184D01*
X133501826Y-69898436D01*
X136497827Y-69898436D01*
X136650051Y-70266846D01*
X136931672Y-70548959D01*
X137299816Y-70701825D01*
X137698436Y-70702173D01*
X138066846Y-70549949D01*
X138348959Y-70268328D01*
X138501825Y-69900184D01*
X138502173Y-69501564D01*
X138349949Y-69133154D01*
X138068328Y-68851041D01*
X137700184Y-68698175D01*
X137301564Y-68697827D01*
X136933154Y-68850051D01*
X136651041Y-69131672D01*
X136498175Y-69499816D01*
X136497827Y-69898436D01*
X133501826Y-69898436D01*
X133502173Y-69501564D01*
X133349949Y-69133154D01*
X133068328Y-68851041D01*
X132700184Y-68698175D01*
X132301564Y-68697827D01*
X131933154Y-68850051D01*
X131651041Y-69131672D01*
X131498175Y-69499816D01*
X131497827Y-69898436D01*
X103752426Y-69898436D01*
X103752426Y-68530000D01*
X167470921Y-68530000D01*
X167556709Y-68961284D01*
X167801012Y-69326909D01*
X168166637Y-69571212D01*
X168597921Y-69657000D01*
X168642079Y-69657000D01*
X169073363Y-69571212D01*
X169438988Y-69326909D01*
X169683291Y-68961284D01*
X169769079Y-68530000D01*
X169683291Y-68098716D01*
X169438988Y-67733091D01*
X169073363Y-67488788D01*
X168642079Y-67403000D01*
X168597921Y-67403000D01*
X168166637Y-67488788D01*
X167801012Y-67733091D01*
X167556709Y-68098716D01*
X167470921Y-68530000D01*
X103752426Y-68530000D01*
X103752426Y-68500000D01*
X103733111Y-68397350D01*
X103672445Y-68303073D01*
X103579880Y-68239825D01*
X103470000Y-68217574D01*
X101770000Y-68217574D01*
X101667350Y-68236889D01*
X101573073Y-68297555D01*
X101509825Y-68390120D01*
X101487574Y-68500000D01*
X100947000Y-68500000D01*
X100947000Y-66625962D01*
X130623000Y-66625962D01*
X130623000Y-67374038D01*
X130689758Y-67709651D01*
X130879867Y-67994171D01*
X131164387Y-68184280D01*
X131500000Y-68251038D01*
X131835613Y-68184280D01*
X132120133Y-67994171D01*
X132310242Y-67709651D01*
X132377000Y-67374038D01*
X132377000Y-66625962D01*
X137623000Y-66625962D01*
X137623000Y-67374038D01*
X137689758Y-67709651D01*
X137879867Y-67994171D01*
X138164387Y-68184280D01*
X138500000Y-68251038D01*
X138835613Y-68184280D01*
X139120133Y-67994171D01*
X139310242Y-67709651D01*
X139377000Y-67374038D01*
X139377000Y-66625962D01*
X139310242Y-66290349D01*
X139120133Y-66005829D01*
X138835613Y-65815720D01*
X138500000Y-65748962D01*
X138164387Y-65815720D01*
X137879867Y-66005829D01*
X137689758Y-66290349D01*
X137623000Y-66625962D01*
X132377000Y-66625962D01*
X132310242Y-66290349D01*
X132120133Y-66005829D01*
X131835613Y-65815720D01*
X131500000Y-65748962D01*
X131164387Y-65815720D01*
X130879867Y-66005829D01*
X130689758Y-66290349D01*
X130623000Y-66625962D01*
X100947000Y-66625962D01*
X100947000Y-65677000D01*
X170293000Y-65677000D01*
X170293000Y-100023000D01*
M02*
