G04 #@! TF.FileFunction,Soldermask,Top*
%FSLAX46Y46*%
G04 Gerber Fmt 4.6, Leading zero omitted, Abs format (unit mm)*
G04 Created by KiCad (PCBNEW 4.0.7) date 07/19/18 20:32:38*
%MOMM*%
%LPD*%
G01*
G04 APERTURE LIST*
%ADD10C,0.100000*%
%ADD11C,0.010000*%
%ADD12R,1.500000X1.500000*%
%ADD13R,0.500000X0.600000*%
%ADD14R,0.600000X0.500000*%
%ADD15R,0.797560X0.797560*%
%ADD16R,0.400000X0.600000*%
%ADD17R,1.237160X2.037160*%
%ADD18R,0.500000X0.900000*%
%ADD19C,1.500000*%
%ADD20R,0.300000X0.550000*%
%ADD21R,0.550000X0.300000*%
%ADD22R,2.002000X2.002000*%
%ADD23R,1.000000X1.000000*%
%ADD24R,1.060000X0.650000*%
G04 APERTURE END LIST*
D10*
D11*
G36*
X114288794Y-84213118D02*
X114293962Y-84213336D01*
X114323879Y-84214903D01*
X114354861Y-84231555D01*
X114373703Y-84242000D01*
X114388833Y-84251152D01*
X114400830Y-84259424D01*
X114410273Y-84267229D01*
X114417741Y-84274979D01*
X114420431Y-84278322D01*
X114426120Y-84286394D01*
X114430187Y-84293368D01*
X114432322Y-84298544D01*
X114432212Y-84301224D01*
X114430615Y-84301231D01*
X114425584Y-84299736D01*
X114417020Y-84297639D01*
X114405935Y-84295150D01*
X114393340Y-84292481D01*
X114380248Y-84289843D01*
X114367672Y-84287448D01*
X114356624Y-84285507D01*
X114351298Y-84284670D01*
X114299318Y-84278929D01*
X114244262Y-84276529D01*
X114186228Y-84277456D01*
X114125315Y-84281699D01*
X114061623Y-84289244D01*
X113995251Y-84300079D01*
X113926298Y-84314191D01*
X113854863Y-84331569D01*
X113781045Y-84352198D01*
X113753594Y-84360515D01*
X113734626Y-84366489D01*
X113714479Y-84373035D01*
X113693590Y-84379993D01*
X113672395Y-84387205D01*
X113651333Y-84394512D01*
X113630839Y-84401756D01*
X113611352Y-84408778D01*
X113593308Y-84415419D01*
X113577144Y-84421520D01*
X113563298Y-84426924D01*
X113552206Y-84431471D01*
X113544307Y-84435002D01*
X113540035Y-84437359D01*
X113539460Y-84438247D01*
X113542220Y-84439481D01*
X113549052Y-84441996D01*
X113559623Y-84445686D01*
X113573604Y-84450440D01*
X113590662Y-84456149D01*
X113610466Y-84462704D01*
X113632685Y-84469996D01*
X113656986Y-84477916D01*
X113683038Y-84486355D01*
X113710509Y-84495203D01*
X113739069Y-84504351D01*
X113768386Y-84513691D01*
X113774455Y-84515618D01*
X113828772Y-84532961D01*
X113878965Y-84549222D01*
X113925365Y-84564527D01*
X113968304Y-84578999D01*
X114008116Y-84592765D01*
X114045132Y-84605948D01*
X114079686Y-84618675D01*
X114112110Y-84631069D01*
X114142735Y-84643257D01*
X114171896Y-84655362D01*
X114199923Y-84667511D01*
X114227150Y-84679827D01*
X114253910Y-84692436D01*
X114280534Y-84705463D01*
X114283672Y-84707028D01*
X114344695Y-84739265D01*
X114401318Y-84772777D01*
X114453587Y-84807594D01*
X114501551Y-84843746D01*
X114526127Y-84864223D01*
X114539978Y-84876605D01*
X114555205Y-84890912D01*
X114570888Y-84906226D01*
X114586109Y-84921627D01*
X114599947Y-84936196D01*
X114611483Y-84949014D01*
X114614677Y-84952760D01*
X114628881Y-84969730D01*
X114647354Y-84968534D01*
X114656798Y-84967451D01*
X114669125Y-84965367D01*
X114682789Y-84962574D01*
X114696238Y-84959365D01*
X114697159Y-84959125D01*
X114710379Y-84955920D01*
X114724275Y-84952997D01*
X114738015Y-84950481D01*
X114750771Y-84948499D01*
X114761712Y-84947177D01*
X114770010Y-84946642D01*
X114774834Y-84947018D01*
X114775362Y-84947245D01*
X114777324Y-84947712D01*
X114778600Y-84945920D01*
X114779225Y-84941377D01*
X114779233Y-84933591D01*
X114778658Y-84922068D01*
X114777891Y-84911018D01*
X114776257Y-84890903D01*
X114774372Y-84871707D01*
X114772131Y-84852818D01*
X114769430Y-84833621D01*
X114766165Y-84813502D01*
X114762230Y-84791849D01*
X114757521Y-84768048D01*
X114751935Y-84741485D01*
X114745366Y-84711547D01*
X114739486Y-84685426D01*
X114734342Y-84662461D01*
X114729529Y-84640383D01*
X114725146Y-84619691D01*
X114721294Y-84600884D01*
X114718073Y-84584463D01*
X114715581Y-84570928D01*
X114713920Y-84560778D01*
X114713189Y-84554513D01*
X114713163Y-84553694D01*
X114715346Y-84550112D01*
X114721391Y-84546607D01*
X114730546Y-84543411D01*
X114742057Y-84540754D01*
X114755173Y-84538865D01*
X114763963Y-84538171D01*
X114781034Y-84538146D01*
X114795074Y-84540392D01*
X114807290Y-84545352D01*
X114818893Y-84553472D01*
X114827539Y-84561516D01*
X114836605Y-84571631D01*
X114844775Y-84582936D01*
X114852131Y-84595748D01*
X114858756Y-84610387D01*
X114864730Y-84627170D01*
X114870136Y-84646416D01*
X114875056Y-84668444D01*
X114879571Y-84693572D01*
X114883764Y-84722119D01*
X114887716Y-84754403D01*
X114891509Y-84790743D01*
X114894355Y-84821491D01*
X114896004Y-84839844D01*
X114897675Y-84857943D01*
X114899286Y-84874914D01*
X114900752Y-84889882D01*
X114901989Y-84901972D01*
X114902891Y-84910121D01*
X114905607Y-84932943D01*
X114943890Y-84931612D01*
X114982101Y-84929018D01*
X115019118Y-84924156D01*
X115042326Y-84920780D01*
X115065001Y-84918542D01*
X115089349Y-84917241D01*
X115097627Y-84916996D01*
X115139191Y-84915959D01*
X115138925Y-84895856D01*
X115138697Y-84888517D01*
X115138128Y-84881289D01*
X115137087Y-84873628D01*
X115135445Y-84864991D01*
X115133073Y-84854835D01*
X115129839Y-84842616D01*
X115125614Y-84827790D01*
X115120269Y-84809814D01*
X115113674Y-84788144D01*
X115111506Y-84781081D01*
X115104427Y-84757991D01*
X115098569Y-84738713D01*
X115093767Y-84722652D01*
X115089853Y-84709215D01*
X115086663Y-84697808D01*
X115084030Y-84687838D01*
X115081789Y-84678711D01*
X115079773Y-84669833D01*
X115077816Y-84660611D01*
X115077794Y-84660505D01*
X115075153Y-84644956D01*
X115073379Y-84628680D01*
X115072504Y-84612747D01*
X115072560Y-84598224D01*
X115073579Y-84586182D01*
X115075328Y-84578400D01*
X115081966Y-84565643D01*
X115091323Y-84556181D01*
X115102714Y-84550187D01*
X115115454Y-84547836D01*
X115128859Y-84549301D01*
X115142242Y-84554756D01*
X115149425Y-84559582D01*
X115160834Y-84570140D01*
X115171779Y-84583753D01*
X115182323Y-84600592D01*
X115192530Y-84620827D01*
X115202466Y-84644626D01*
X115212192Y-84672160D01*
X115221774Y-84703598D01*
X115231275Y-84739110D01*
X115240759Y-84778865D01*
X115250290Y-84823033D01*
X115252204Y-84832396D01*
X115255283Y-84847523D01*
X115258133Y-84861410D01*
X115260599Y-84873320D01*
X115262530Y-84882516D01*
X115263773Y-84888261D01*
X115264072Y-84889546D01*
X115264994Y-84892356D01*
X115266682Y-84894078D01*
X115270110Y-84894976D01*
X115276256Y-84895315D01*
X115285491Y-84895361D01*
X115310053Y-84894905D01*
X115335788Y-84893546D01*
X115363103Y-84891230D01*
X115392408Y-84887899D01*
X115424110Y-84883497D01*
X115458618Y-84877967D01*
X115496342Y-84871254D01*
X115537690Y-84863300D01*
X115580227Y-84854642D01*
X115621195Y-84846257D01*
X115657750Y-84839073D01*
X115689883Y-84833092D01*
X115717586Y-84828316D01*
X115740849Y-84824745D01*
X115759665Y-84822381D01*
X115761845Y-84822156D01*
X115781827Y-84820160D01*
X115783098Y-84827994D01*
X115783716Y-84835654D01*
X115782856Y-84843677D01*
X115780276Y-84853211D01*
X115775733Y-84865406D01*
X115774602Y-84868180D01*
X115770547Y-84877423D01*
X115767292Y-84883124D01*
X115764242Y-84886145D01*
X115761491Y-84887226D01*
X115755352Y-84888314D01*
X115745032Y-84889891D01*
X115730936Y-84891906D01*
X115713467Y-84894309D01*
X115693032Y-84897048D01*
X115670035Y-84900073D01*
X115644880Y-84903333D01*
X115617974Y-84906778D01*
X115589721Y-84910355D01*
X115560525Y-84914015D01*
X115530791Y-84917706D01*
X115500926Y-84921379D01*
X115471332Y-84924981D01*
X115442417Y-84928462D01*
X115414583Y-84931772D01*
X115388237Y-84934859D01*
X115363782Y-84937673D01*
X115341625Y-84940162D01*
X115327381Y-84941719D01*
X115313522Y-84943236D01*
X115301335Y-84944616D01*
X115291527Y-84945774D01*
X115284802Y-84946628D01*
X115281867Y-84947094D01*
X115281799Y-84947123D01*
X115282320Y-84949378D01*
X115284093Y-84955355D01*
X115286913Y-84964397D01*
X115290573Y-84975843D01*
X115294867Y-84989036D01*
X115296017Y-84992533D01*
X115302069Y-85011388D01*
X115307871Y-85030523D01*
X115313580Y-85050537D01*
X115319350Y-85072028D01*
X115325338Y-85095597D01*
X115331699Y-85121842D01*
X115338589Y-85151361D01*
X115346165Y-85184755D01*
X115347035Y-85188636D01*
X115354331Y-85221012D01*
X115360843Y-85249401D01*
X115366703Y-85274343D01*
X115372044Y-85296376D01*
X115377001Y-85316041D01*
X115381705Y-85333877D01*
X115386291Y-85350423D01*
X115390891Y-85366218D01*
X115390935Y-85366366D01*
X115395735Y-85381954D01*
X115400203Y-85395061D01*
X115404861Y-85406873D01*
X115410227Y-85418575D01*
X115416822Y-85431353D01*
X115425166Y-85446393D01*
X115428949Y-85453027D01*
X115439635Y-85472973D01*
X115447224Y-85490359D01*
X115451897Y-85505873D01*
X115453838Y-85520205D01*
X115453228Y-85534044D01*
X115452128Y-85540505D01*
X115449251Y-85551026D01*
X115445321Y-85557692D01*
X115439480Y-85561264D01*
X115430869Y-85562501D01*
X115427250Y-85562526D01*
X115417765Y-85561785D01*
X115408401Y-85560099D01*
X115404330Y-85558927D01*
X115396929Y-85555327D01*
X115388751Y-85549936D01*
X115384703Y-85546669D01*
X115381007Y-85543316D01*
X115377647Y-85539970D01*
X115374456Y-85536286D01*
X115371267Y-85531921D01*
X115367913Y-85526529D01*
X115364228Y-85519768D01*
X115360044Y-85511293D01*
X115355195Y-85500759D01*
X115349513Y-85487823D01*
X115342833Y-85472140D01*
X115334986Y-85453367D01*
X115325807Y-85431158D01*
X115315127Y-85405170D01*
X115309819Y-85392227D01*
X115301097Y-85370634D01*
X115292131Y-85347777D01*
X115282756Y-85323206D01*
X115272805Y-85296468D01*
X115262112Y-85267112D01*
X115250511Y-85234687D01*
X115237835Y-85198741D01*
X115224648Y-85160927D01*
X115212700Y-85126593D01*
X115201488Y-85094544D01*
X115191129Y-85065109D01*
X115181740Y-85038616D01*
X115173437Y-85015392D01*
X115166335Y-84995767D01*
X115160553Y-84980067D01*
X115158777Y-84975333D01*
X115153651Y-84961767D01*
X115141803Y-84963253D01*
X115136551Y-84963880D01*
X115127388Y-84964940D01*
X115114991Y-84966356D01*
X115100039Y-84968050D01*
X115083210Y-84969946D01*
X115065183Y-84971967D01*
X115058372Y-84972727D01*
X115038470Y-84974982D01*
X115018082Y-84977353D01*
X114998201Y-84979719D01*
X114979821Y-84981962D01*
X114963936Y-84983962D01*
X114951538Y-84985598D01*
X114950422Y-84985752D01*
X114914054Y-84990788D01*
X114914054Y-85004119D01*
X114914464Y-85010826D01*
X114915598Y-85021012D01*
X114917316Y-85033623D01*
X114919476Y-85047602D01*
X114921344Y-85058593D01*
X114924713Y-85078982D01*
X114927015Y-85096528D01*
X114928420Y-85112838D01*
X114929098Y-85129520D01*
X114929152Y-85132418D01*
X114929451Y-85144386D01*
X114929916Y-85154783D01*
X114930491Y-85162692D01*
X114931120Y-85167199D01*
X114931330Y-85167786D01*
X114933789Y-85169988D01*
X114939364Y-85174143D01*
X114947288Y-85179702D01*
X114956795Y-85186118D01*
X114959299Y-85187772D01*
X114976226Y-85199840D01*
X114989007Y-85211293D01*
X114997963Y-85222691D01*
X115003415Y-85234593D01*
X115005682Y-85247562D01*
X115005087Y-85262157D01*
X115004433Y-85266719D01*
X115000137Y-85279126D01*
X114991720Y-85290126D01*
X114979584Y-85299248D01*
X114974261Y-85302039D01*
X114962953Y-85305707D01*
X114948449Y-85307847D01*
X114931930Y-85308404D01*
X114914578Y-85307321D01*
X114902155Y-85305479D01*
X114893225Y-85303574D01*
X114882304Y-85300907D01*
X114870300Y-85297741D01*
X114858121Y-85294336D01*
X114846675Y-85290955D01*
X114836871Y-85287860D01*
X114829617Y-85285312D01*
X114825821Y-85283574D01*
X114825629Y-85283421D01*
X114824245Y-85280258D01*
X114822292Y-85273150D01*
X114819890Y-85262718D01*
X114817161Y-85249585D01*
X114814226Y-85234372D01*
X114811204Y-85217700D01*
X114808217Y-85200192D01*
X114805385Y-85182468D01*
X114803276Y-85168294D01*
X114801624Y-85156129D01*
X114799773Y-85141421D01*
X114797801Y-85124903D01*
X114795786Y-85107309D01*
X114793808Y-85089372D01*
X114791944Y-85071824D01*
X114790272Y-85055400D01*
X114788871Y-85040832D01*
X114787819Y-85028853D01*
X114787195Y-85020197D01*
X114787054Y-85016433D01*
X114785826Y-85015170D01*
X114781690Y-85015169D01*
X114773969Y-85016454D01*
X114771468Y-85016965D01*
X114765300Y-85018370D01*
X114756179Y-85020598D01*
X114744870Y-85023447D01*
X114732138Y-85026715D01*
X114718749Y-85030201D01*
X114705468Y-85033703D01*
X114693061Y-85037021D01*
X114682294Y-85039952D01*
X114673931Y-85042295D01*
X114668739Y-85043849D01*
X114667398Y-85044361D01*
X114667901Y-85046607D01*
X114670024Y-85051524D01*
X114671400Y-85054318D01*
X114678728Y-85072266D01*
X114684332Y-85093427D01*
X114688084Y-85116679D01*
X114689853Y-85140899D01*
X114689509Y-85164965D01*
X114686924Y-85187756D01*
X114686856Y-85188149D01*
X114678236Y-85224573D01*
X114665323Y-85260548D01*
X114648441Y-85295591D01*
X114627916Y-85329219D01*
X114604073Y-85360948D01*
X114577237Y-85390295D01*
X114547732Y-85416776D01*
X114518933Y-85437914D01*
X114485704Y-85458140D01*
X114451401Y-85475434D01*
X114415401Y-85490014D01*
X114377084Y-85502101D01*
X114335826Y-85511915D01*
X114291008Y-85519675D01*
X114285981Y-85520392D01*
X114270282Y-85522077D01*
X114250957Y-85523335D01*
X114228982Y-85524168D01*
X114205330Y-85524575D01*
X114180975Y-85524556D01*
X114156891Y-85524114D01*
X114134051Y-85523246D01*
X114113430Y-85521955D01*
X114096636Y-85520318D01*
X114067122Y-85516259D01*
X114036672Y-85511216D01*
X114006310Y-85505404D01*
X113977059Y-85499037D01*
X113949945Y-85492332D01*
X113925989Y-85485502D01*
X113917085Y-85482637D01*
X113890055Y-85472490D01*
X113864011Y-85460618D01*
X113839531Y-85447396D01*
X113817194Y-85433196D01*
X113797578Y-85418395D01*
X113781261Y-85403365D01*
X113768822Y-85388481D01*
X113766735Y-85385375D01*
X113758765Y-85369302D01*
X113754499Y-85352220D01*
X113754334Y-85342288D01*
X113879679Y-85342288D01*
X113880227Y-85357186D01*
X113884062Y-85369616D01*
X113892652Y-85382625D01*
X113905531Y-85395375D01*
X113922372Y-85407708D01*
X113942849Y-85419468D01*
X113966635Y-85430499D01*
X113993401Y-85440644D01*
X114022822Y-85449748D01*
X114054569Y-85457652D01*
X114078068Y-85462401D01*
X114108132Y-85467356D01*
X114135003Y-85470514D01*
X114159712Y-85471942D01*
X114183292Y-85471703D01*
X114203187Y-85470241D01*
X114241817Y-85464481D01*
X114280003Y-85455193D01*
X114317370Y-85442638D01*
X114353541Y-85427077D01*
X114388143Y-85408770D01*
X114420800Y-85387978D01*
X114451137Y-85364963D01*
X114478778Y-85339985D01*
X114503350Y-85313305D01*
X114524476Y-85285184D01*
X114541782Y-85255883D01*
X114554892Y-85225662D01*
X114554908Y-85225617D01*
X114562144Y-85201913D01*
X114566370Y-85179255D01*
X114567958Y-85155544D01*
X114567991Y-85151691D01*
X114566274Y-85122845D01*
X114560826Y-85095660D01*
X114552267Y-85070872D01*
X114547723Y-85060023D01*
X114544388Y-85052864D01*
X114541754Y-85048801D01*
X114539309Y-85047239D01*
X114536546Y-85047582D01*
X114533500Y-85048961D01*
X114529248Y-85050484D01*
X114520915Y-85052904D01*
X114508929Y-85056115D01*
X114493717Y-85060012D01*
X114475707Y-85064489D01*
X114455325Y-85069440D01*
X114433001Y-85074759D01*
X114409160Y-85080341D01*
X114384230Y-85086079D01*
X114374881Y-85088206D01*
X114330979Y-85098483D01*
X114290837Y-85108603D01*
X114253621Y-85118837D01*
X114218493Y-85129457D01*
X114184617Y-85140733D01*
X114151155Y-85152937D01*
X114117271Y-85166341D01*
X114082129Y-85181216D01*
X114065489Y-85188547D01*
X114028608Y-85205675D01*
X113996159Y-85222251D01*
X113968003Y-85238371D01*
X113943999Y-85254133D01*
X113924008Y-85269634D01*
X113907890Y-85284970D01*
X113895505Y-85300239D01*
X113889007Y-85310891D01*
X113882634Y-85326525D01*
X113879679Y-85342288D01*
X113754334Y-85342288D01*
X113754217Y-85335347D01*
X113754620Y-85332368D01*
X113759665Y-85312370D01*
X113768447Y-85290846D01*
X113780630Y-85268442D01*
X113795876Y-85245804D01*
X113807825Y-85230599D01*
X113824822Y-85212878D01*
X113846095Y-85195196D01*
X113871307Y-85177731D01*
X113900120Y-85160664D01*
X113932193Y-85144174D01*
X113967190Y-85128442D01*
X114004770Y-85113647D01*
X114044597Y-85099969D01*
X114066618Y-85093199D01*
X114083688Y-85088224D01*
X114100161Y-85083575D01*
X114116529Y-85079136D01*
X114133280Y-85074794D01*
X114150906Y-85070433D01*
X114169895Y-85065939D01*
X114190738Y-85061196D01*
X114213924Y-85056090D01*
X114239944Y-85050506D01*
X114269287Y-85044330D01*
X114302444Y-85037446D01*
X114319531Y-85033923D01*
X114350658Y-85027484D01*
X114379811Y-85021384D01*
X114406701Y-85015688D01*
X114431038Y-85010459D01*
X114452533Y-85005761D01*
X114470897Y-85001657D01*
X114485841Y-84998212D01*
X114497075Y-84995490D01*
X114504310Y-84993553D01*
X114507075Y-84992586D01*
X114506966Y-84990241D01*
X114503791Y-84985083D01*
X114497856Y-84977460D01*
X114489465Y-84967718D01*
X114478922Y-84956203D01*
X114466531Y-84943260D01*
X114452596Y-84929238D01*
X114443926Y-84920745D01*
X114401672Y-84882508D01*
X114355212Y-84845634D01*
X114304793Y-84810264D01*
X114250664Y-84776539D01*
X114193071Y-84744600D01*
X114132263Y-84714588D01*
X114068486Y-84686643D01*
X114001989Y-84660908D01*
X113965156Y-84648019D01*
X113945256Y-84641390D01*
X113926426Y-84635311D01*
X113907999Y-84629596D01*
X113889308Y-84624059D01*
X113869687Y-84618512D01*
X113848467Y-84612768D01*
X113824983Y-84606640D01*
X113798568Y-84599942D01*
X113768554Y-84592486D01*
X113756701Y-84589571D01*
X113727912Y-84582479D01*
X113702980Y-84576269D01*
X113681266Y-84570763D01*
X113662133Y-84565785D01*
X113644942Y-84561160D01*
X113629054Y-84556710D01*
X113613830Y-84552260D01*
X113598633Y-84547633D01*
X113582824Y-84542652D01*
X113565765Y-84537142D01*
X113559772Y-84535184D01*
X113542424Y-84529592D01*
X113523570Y-84523665D01*
X113504692Y-84517857D01*
X113487273Y-84512627D01*
X113473181Y-84508538D01*
X113445747Y-84500312D01*
X113422616Y-84492291D01*
X113403491Y-84484297D01*
X113388073Y-84476150D01*
X113376063Y-84467670D01*
X113367163Y-84458677D01*
X113361076Y-84448992D01*
X113357607Y-84438905D01*
X113356531Y-84429045D01*
X113358327Y-84420229D01*
X113363326Y-84412055D01*
X113371863Y-84404119D01*
X113384269Y-84396020D01*
X113399908Y-84387826D01*
X113410791Y-84382755D01*
X113422603Y-84377706D01*
X113435667Y-84372577D01*
X113450304Y-84367271D01*
X113466835Y-84361688D01*
X113485580Y-84355728D01*
X113506862Y-84349293D01*
X113531002Y-84342283D01*
X113558320Y-84334599D01*
X113589138Y-84326141D01*
X113623777Y-84316811D01*
X113662558Y-84306509D01*
X113665991Y-84305603D01*
X113716020Y-84292558D01*
X113762154Y-84280885D01*
X113804875Y-84270490D01*
X113844667Y-84261278D01*
X113882012Y-84253153D01*
X113917395Y-84246021D01*
X113951297Y-84239787D01*
X113984203Y-84234355D01*
X114016595Y-84229631D01*
X114048956Y-84225519D01*
X114081770Y-84221926D01*
X114101254Y-84220036D01*
X114119837Y-84218508D01*
X114140965Y-84217101D01*
X114163787Y-84215844D01*
X114187456Y-84214767D01*
X114211123Y-84213900D01*
X114233939Y-84213272D01*
X114255055Y-84212913D01*
X114273623Y-84212852D01*
X114288794Y-84213118D01*
X114288794Y-84213118D01*
G37*
X114288794Y-84213118D02*
X114293962Y-84213336D01*
X114323879Y-84214903D01*
X114354861Y-84231555D01*
X114373703Y-84242000D01*
X114388833Y-84251152D01*
X114400830Y-84259424D01*
X114410273Y-84267229D01*
X114417741Y-84274979D01*
X114420431Y-84278322D01*
X114426120Y-84286394D01*
X114430187Y-84293368D01*
X114432322Y-84298544D01*
X114432212Y-84301224D01*
X114430615Y-84301231D01*
X114425584Y-84299736D01*
X114417020Y-84297639D01*
X114405935Y-84295150D01*
X114393340Y-84292481D01*
X114380248Y-84289843D01*
X114367672Y-84287448D01*
X114356624Y-84285507D01*
X114351298Y-84284670D01*
X114299318Y-84278929D01*
X114244262Y-84276529D01*
X114186228Y-84277456D01*
X114125315Y-84281699D01*
X114061623Y-84289244D01*
X113995251Y-84300079D01*
X113926298Y-84314191D01*
X113854863Y-84331569D01*
X113781045Y-84352198D01*
X113753594Y-84360515D01*
X113734626Y-84366489D01*
X113714479Y-84373035D01*
X113693590Y-84379993D01*
X113672395Y-84387205D01*
X113651333Y-84394512D01*
X113630839Y-84401756D01*
X113611352Y-84408778D01*
X113593308Y-84415419D01*
X113577144Y-84421520D01*
X113563298Y-84426924D01*
X113552206Y-84431471D01*
X113544307Y-84435002D01*
X113540035Y-84437359D01*
X113539460Y-84438247D01*
X113542220Y-84439481D01*
X113549052Y-84441996D01*
X113559623Y-84445686D01*
X113573604Y-84450440D01*
X113590662Y-84456149D01*
X113610466Y-84462704D01*
X113632685Y-84469996D01*
X113656986Y-84477916D01*
X113683038Y-84486355D01*
X113710509Y-84495203D01*
X113739069Y-84504351D01*
X113768386Y-84513691D01*
X113774455Y-84515618D01*
X113828772Y-84532961D01*
X113878965Y-84549222D01*
X113925365Y-84564527D01*
X113968304Y-84578999D01*
X114008116Y-84592765D01*
X114045132Y-84605948D01*
X114079686Y-84618675D01*
X114112110Y-84631069D01*
X114142735Y-84643257D01*
X114171896Y-84655362D01*
X114199923Y-84667511D01*
X114227150Y-84679827D01*
X114253910Y-84692436D01*
X114280534Y-84705463D01*
X114283672Y-84707028D01*
X114344695Y-84739265D01*
X114401318Y-84772777D01*
X114453587Y-84807594D01*
X114501551Y-84843746D01*
X114526127Y-84864223D01*
X114539978Y-84876605D01*
X114555205Y-84890912D01*
X114570888Y-84906226D01*
X114586109Y-84921627D01*
X114599947Y-84936196D01*
X114611483Y-84949014D01*
X114614677Y-84952760D01*
X114628881Y-84969730D01*
X114647354Y-84968534D01*
X114656798Y-84967451D01*
X114669125Y-84965367D01*
X114682789Y-84962574D01*
X114696238Y-84959365D01*
X114697159Y-84959125D01*
X114710379Y-84955920D01*
X114724275Y-84952997D01*
X114738015Y-84950481D01*
X114750771Y-84948499D01*
X114761712Y-84947177D01*
X114770010Y-84946642D01*
X114774834Y-84947018D01*
X114775362Y-84947245D01*
X114777324Y-84947712D01*
X114778600Y-84945920D01*
X114779225Y-84941377D01*
X114779233Y-84933591D01*
X114778658Y-84922068D01*
X114777891Y-84911018D01*
X114776257Y-84890903D01*
X114774372Y-84871707D01*
X114772131Y-84852818D01*
X114769430Y-84833621D01*
X114766165Y-84813502D01*
X114762230Y-84791849D01*
X114757521Y-84768048D01*
X114751935Y-84741485D01*
X114745366Y-84711547D01*
X114739486Y-84685426D01*
X114734342Y-84662461D01*
X114729529Y-84640383D01*
X114725146Y-84619691D01*
X114721294Y-84600884D01*
X114718073Y-84584463D01*
X114715581Y-84570928D01*
X114713920Y-84560778D01*
X114713189Y-84554513D01*
X114713163Y-84553694D01*
X114715346Y-84550112D01*
X114721391Y-84546607D01*
X114730546Y-84543411D01*
X114742057Y-84540754D01*
X114755173Y-84538865D01*
X114763963Y-84538171D01*
X114781034Y-84538146D01*
X114795074Y-84540392D01*
X114807290Y-84545352D01*
X114818893Y-84553472D01*
X114827539Y-84561516D01*
X114836605Y-84571631D01*
X114844775Y-84582936D01*
X114852131Y-84595748D01*
X114858756Y-84610387D01*
X114864730Y-84627170D01*
X114870136Y-84646416D01*
X114875056Y-84668444D01*
X114879571Y-84693572D01*
X114883764Y-84722119D01*
X114887716Y-84754403D01*
X114891509Y-84790743D01*
X114894355Y-84821491D01*
X114896004Y-84839844D01*
X114897675Y-84857943D01*
X114899286Y-84874914D01*
X114900752Y-84889882D01*
X114901989Y-84901972D01*
X114902891Y-84910121D01*
X114905607Y-84932943D01*
X114943890Y-84931612D01*
X114982101Y-84929018D01*
X115019118Y-84924156D01*
X115042326Y-84920780D01*
X115065001Y-84918542D01*
X115089349Y-84917241D01*
X115097627Y-84916996D01*
X115139191Y-84915959D01*
X115138925Y-84895856D01*
X115138697Y-84888517D01*
X115138128Y-84881289D01*
X115137087Y-84873628D01*
X115135445Y-84864991D01*
X115133073Y-84854835D01*
X115129839Y-84842616D01*
X115125614Y-84827790D01*
X115120269Y-84809814D01*
X115113674Y-84788144D01*
X115111506Y-84781081D01*
X115104427Y-84757991D01*
X115098569Y-84738713D01*
X115093767Y-84722652D01*
X115089853Y-84709215D01*
X115086663Y-84697808D01*
X115084030Y-84687838D01*
X115081789Y-84678711D01*
X115079773Y-84669833D01*
X115077816Y-84660611D01*
X115077794Y-84660505D01*
X115075153Y-84644956D01*
X115073379Y-84628680D01*
X115072504Y-84612747D01*
X115072560Y-84598224D01*
X115073579Y-84586182D01*
X115075328Y-84578400D01*
X115081966Y-84565643D01*
X115091323Y-84556181D01*
X115102714Y-84550187D01*
X115115454Y-84547836D01*
X115128859Y-84549301D01*
X115142242Y-84554756D01*
X115149425Y-84559582D01*
X115160834Y-84570140D01*
X115171779Y-84583753D01*
X115182323Y-84600592D01*
X115192530Y-84620827D01*
X115202466Y-84644626D01*
X115212192Y-84672160D01*
X115221774Y-84703598D01*
X115231275Y-84739110D01*
X115240759Y-84778865D01*
X115250290Y-84823033D01*
X115252204Y-84832396D01*
X115255283Y-84847523D01*
X115258133Y-84861410D01*
X115260599Y-84873320D01*
X115262530Y-84882516D01*
X115263773Y-84888261D01*
X115264072Y-84889546D01*
X115264994Y-84892356D01*
X115266682Y-84894078D01*
X115270110Y-84894976D01*
X115276256Y-84895315D01*
X115285491Y-84895361D01*
X115310053Y-84894905D01*
X115335788Y-84893546D01*
X115363103Y-84891230D01*
X115392408Y-84887899D01*
X115424110Y-84883497D01*
X115458618Y-84877967D01*
X115496342Y-84871254D01*
X115537690Y-84863300D01*
X115580227Y-84854642D01*
X115621195Y-84846257D01*
X115657750Y-84839073D01*
X115689883Y-84833092D01*
X115717586Y-84828316D01*
X115740849Y-84824745D01*
X115759665Y-84822381D01*
X115761845Y-84822156D01*
X115781827Y-84820160D01*
X115783098Y-84827994D01*
X115783716Y-84835654D01*
X115782856Y-84843677D01*
X115780276Y-84853211D01*
X115775733Y-84865406D01*
X115774602Y-84868180D01*
X115770547Y-84877423D01*
X115767292Y-84883124D01*
X115764242Y-84886145D01*
X115761491Y-84887226D01*
X115755352Y-84888314D01*
X115745032Y-84889891D01*
X115730936Y-84891906D01*
X115713467Y-84894309D01*
X115693032Y-84897048D01*
X115670035Y-84900073D01*
X115644880Y-84903333D01*
X115617974Y-84906778D01*
X115589721Y-84910355D01*
X115560525Y-84914015D01*
X115530791Y-84917706D01*
X115500926Y-84921379D01*
X115471332Y-84924981D01*
X115442417Y-84928462D01*
X115414583Y-84931772D01*
X115388237Y-84934859D01*
X115363782Y-84937673D01*
X115341625Y-84940162D01*
X115327381Y-84941719D01*
X115313522Y-84943236D01*
X115301335Y-84944616D01*
X115291527Y-84945774D01*
X115284802Y-84946628D01*
X115281867Y-84947094D01*
X115281799Y-84947123D01*
X115282320Y-84949378D01*
X115284093Y-84955355D01*
X115286913Y-84964397D01*
X115290573Y-84975843D01*
X115294867Y-84989036D01*
X115296017Y-84992533D01*
X115302069Y-85011388D01*
X115307871Y-85030523D01*
X115313580Y-85050537D01*
X115319350Y-85072028D01*
X115325338Y-85095597D01*
X115331699Y-85121842D01*
X115338589Y-85151361D01*
X115346165Y-85184755D01*
X115347035Y-85188636D01*
X115354331Y-85221012D01*
X115360843Y-85249401D01*
X115366703Y-85274343D01*
X115372044Y-85296376D01*
X115377001Y-85316041D01*
X115381705Y-85333877D01*
X115386291Y-85350423D01*
X115390891Y-85366218D01*
X115390935Y-85366366D01*
X115395735Y-85381954D01*
X115400203Y-85395061D01*
X115404861Y-85406873D01*
X115410227Y-85418575D01*
X115416822Y-85431353D01*
X115425166Y-85446393D01*
X115428949Y-85453027D01*
X115439635Y-85472973D01*
X115447224Y-85490359D01*
X115451897Y-85505873D01*
X115453838Y-85520205D01*
X115453228Y-85534044D01*
X115452128Y-85540505D01*
X115449251Y-85551026D01*
X115445321Y-85557692D01*
X115439480Y-85561264D01*
X115430869Y-85562501D01*
X115427250Y-85562526D01*
X115417765Y-85561785D01*
X115408401Y-85560099D01*
X115404330Y-85558927D01*
X115396929Y-85555327D01*
X115388751Y-85549936D01*
X115384703Y-85546669D01*
X115381007Y-85543316D01*
X115377647Y-85539970D01*
X115374456Y-85536286D01*
X115371267Y-85531921D01*
X115367913Y-85526529D01*
X115364228Y-85519768D01*
X115360044Y-85511293D01*
X115355195Y-85500759D01*
X115349513Y-85487823D01*
X115342833Y-85472140D01*
X115334986Y-85453367D01*
X115325807Y-85431158D01*
X115315127Y-85405170D01*
X115309819Y-85392227D01*
X115301097Y-85370634D01*
X115292131Y-85347777D01*
X115282756Y-85323206D01*
X115272805Y-85296468D01*
X115262112Y-85267112D01*
X115250511Y-85234687D01*
X115237835Y-85198741D01*
X115224648Y-85160927D01*
X115212700Y-85126593D01*
X115201488Y-85094544D01*
X115191129Y-85065109D01*
X115181740Y-85038616D01*
X115173437Y-85015392D01*
X115166335Y-84995767D01*
X115160553Y-84980067D01*
X115158777Y-84975333D01*
X115153651Y-84961767D01*
X115141803Y-84963253D01*
X115136551Y-84963880D01*
X115127388Y-84964940D01*
X115114991Y-84966356D01*
X115100039Y-84968050D01*
X115083210Y-84969946D01*
X115065183Y-84971967D01*
X115058372Y-84972727D01*
X115038470Y-84974982D01*
X115018082Y-84977353D01*
X114998201Y-84979719D01*
X114979821Y-84981962D01*
X114963936Y-84983962D01*
X114951538Y-84985598D01*
X114950422Y-84985752D01*
X114914054Y-84990788D01*
X114914054Y-85004119D01*
X114914464Y-85010826D01*
X114915598Y-85021012D01*
X114917316Y-85033623D01*
X114919476Y-85047602D01*
X114921344Y-85058593D01*
X114924713Y-85078982D01*
X114927015Y-85096528D01*
X114928420Y-85112838D01*
X114929098Y-85129520D01*
X114929152Y-85132418D01*
X114929451Y-85144386D01*
X114929916Y-85154783D01*
X114930491Y-85162692D01*
X114931120Y-85167199D01*
X114931330Y-85167786D01*
X114933789Y-85169988D01*
X114939364Y-85174143D01*
X114947288Y-85179702D01*
X114956795Y-85186118D01*
X114959299Y-85187772D01*
X114976226Y-85199840D01*
X114989007Y-85211293D01*
X114997963Y-85222691D01*
X115003415Y-85234593D01*
X115005682Y-85247562D01*
X115005087Y-85262157D01*
X115004433Y-85266719D01*
X115000137Y-85279126D01*
X114991720Y-85290126D01*
X114979584Y-85299248D01*
X114974261Y-85302039D01*
X114962953Y-85305707D01*
X114948449Y-85307847D01*
X114931930Y-85308404D01*
X114914578Y-85307321D01*
X114902155Y-85305479D01*
X114893225Y-85303574D01*
X114882304Y-85300907D01*
X114870300Y-85297741D01*
X114858121Y-85294336D01*
X114846675Y-85290955D01*
X114836871Y-85287860D01*
X114829617Y-85285312D01*
X114825821Y-85283574D01*
X114825629Y-85283421D01*
X114824245Y-85280258D01*
X114822292Y-85273150D01*
X114819890Y-85262718D01*
X114817161Y-85249585D01*
X114814226Y-85234372D01*
X114811204Y-85217700D01*
X114808217Y-85200192D01*
X114805385Y-85182468D01*
X114803276Y-85168294D01*
X114801624Y-85156129D01*
X114799773Y-85141421D01*
X114797801Y-85124903D01*
X114795786Y-85107309D01*
X114793808Y-85089372D01*
X114791944Y-85071824D01*
X114790272Y-85055400D01*
X114788871Y-85040832D01*
X114787819Y-85028853D01*
X114787195Y-85020197D01*
X114787054Y-85016433D01*
X114785826Y-85015170D01*
X114781690Y-85015169D01*
X114773969Y-85016454D01*
X114771468Y-85016965D01*
X114765300Y-85018370D01*
X114756179Y-85020598D01*
X114744870Y-85023447D01*
X114732138Y-85026715D01*
X114718749Y-85030201D01*
X114705468Y-85033703D01*
X114693061Y-85037021D01*
X114682294Y-85039952D01*
X114673931Y-85042295D01*
X114668739Y-85043849D01*
X114667398Y-85044361D01*
X114667901Y-85046607D01*
X114670024Y-85051524D01*
X114671400Y-85054318D01*
X114678728Y-85072266D01*
X114684332Y-85093427D01*
X114688084Y-85116679D01*
X114689853Y-85140899D01*
X114689509Y-85164965D01*
X114686924Y-85187756D01*
X114686856Y-85188149D01*
X114678236Y-85224573D01*
X114665323Y-85260548D01*
X114648441Y-85295591D01*
X114627916Y-85329219D01*
X114604073Y-85360948D01*
X114577237Y-85390295D01*
X114547732Y-85416776D01*
X114518933Y-85437914D01*
X114485704Y-85458140D01*
X114451401Y-85475434D01*
X114415401Y-85490014D01*
X114377084Y-85502101D01*
X114335826Y-85511915D01*
X114291008Y-85519675D01*
X114285981Y-85520392D01*
X114270282Y-85522077D01*
X114250957Y-85523335D01*
X114228982Y-85524168D01*
X114205330Y-85524575D01*
X114180975Y-85524556D01*
X114156891Y-85524114D01*
X114134051Y-85523246D01*
X114113430Y-85521955D01*
X114096636Y-85520318D01*
X114067122Y-85516259D01*
X114036672Y-85511216D01*
X114006310Y-85505404D01*
X113977059Y-85499037D01*
X113949945Y-85492332D01*
X113925989Y-85485502D01*
X113917085Y-85482637D01*
X113890055Y-85472490D01*
X113864011Y-85460618D01*
X113839531Y-85447396D01*
X113817194Y-85433196D01*
X113797578Y-85418395D01*
X113781261Y-85403365D01*
X113768822Y-85388481D01*
X113766735Y-85385375D01*
X113758765Y-85369302D01*
X113754499Y-85352220D01*
X113754334Y-85342288D01*
X113879679Y-85342288D01*
X113880227Y-85357186D01*
X113884062Y-85369616D01*
X113892652Y-85382625D01*
X113905531Y-85395375D01*
X113922372Y-85407708D01*
X113942849Y-85419468D01*
X113966635Y-85430499D01*
X113993401Y-85440644D01*
X114022822Y-85449748D01*
X114054569Y-85457652D01*
X114078068Y-85462401D01*
X114108132Y-85467356D01*
X114135003Y-85470514D01*
X114159712Y-85471942D01*
X114183292Y-85471703D01*
X114203187Y-85470241D01*
X114241817Y-85464481D01*
X114280003Y-85455193D01*
X114317370Y-85442638D01*
X114353541Y-85427077D01*
X114388143Y-85408770D01*
X114420800Y-85387978D01*
X114451137Y-85364963D01*
X114478778Y-85339985D01*
X114503350Y-85313305D01*
X114524476Y-85285184D01*
X114541782Y-85255883D01*
X114554892Y-85225662D01*
X114554908Y-85225617D01*
X114562144Y-85201913D01*
X114566370Y-85179255D01*
X114567958Y-85155544D01*
X114567991Y-85151691D01*
X114566274Y-85122845D01*
X114560826Y-85095660D01*
X114552267Y-85070872D01*
X114547723Y-85060023D01*
X114544388Y-85052864D01*
X114541754Y-85048801D01*
X114539309Y-85047239D01*
X114536546Y-85047582D01*
X114533500Y-85048961D01*
X114529248Y-85050484D01*
X114520915Y-85052904D01*
X114508929Y-85056115D01*
X114493717Y-85060012D01*
X114475707Y-85064489D01*
X114455325Y-85069440D01*
X114433001Y-85074759D01*
X114409160Y-85080341D01*
X114384230Y-85086079D01*
X114374881Y-85088206D01*
X114330979Y-85098483D01*
X114290837Y-85108603D01*
X114253621Y-85118837D01*
X114218493Y-85129457D01*
X114184617Y-85140733D01*
X114151155Y-85152937D01*
X114117271Y-85166341D01*
X114082129Y-85181216D01*
X114065489Y-85188547D01*
X114028608Y-85205675D01*
X113996159Y-85222251D01*
X113968003Y-85238371D01*
X113943999Y-85254133D01*
X113924008Y-85269634D01*
X113907890Y-85284970D01*
X113895505Y-85300239D01*
X113889007Y-85310891D01*
X113882634Y-85326525D01*
X113879679Y-85342288D01*
X113754334Y-85342288D01*
X113754217Y-85335347D01*
X113754620Y-85332368D01*
X113759665Y-85312370D01*
X113768447Y-85290846D01*
X113780630Y-85268442D01*
X113795876Y-85245804D01*
X113807825Y-85230599D01*
X113824822Y-85212878D01*
X113846095Y-85195196D01*
X113871307Y-85177731D01*
X113900120Y-85160664D01*
X113932193Y-85144174D01*
X113967190Y-85128442D01*
X114004770Y-85113647D01*
X114044597Y-85099969D01*
X114066618Y-85093199D01*
X114083688Y-85088224D01*
X114100161Y-85083575D01*
X114116529Y-85079136D01*
X114133280Y-85074794D01*
X114150906Y-85070433D01*
X114169895Y-85065939D01*
X114190738Y-85061196D01*
X114213924Y-85056090D01*
X114239944Y-85050506D01*
X114269287Y-85044330D01*
X114302444Y-85037446D01*
X114319531Y-85033923D01*
X114350658Y-85027484D01*
X114379811Y-85021384D01*
X114406701Y-85015688D01*
X114431038Y-85010459D01*
X114452533Y-85005761D01*
X114470897Y-85001657D01*
X114485841Y-84998212D01*
X114497075Y-84995490D01*
X114504310Y-84993553D01*
X114507075Y-84992586D01*
X114506966Y-84990241D01*
X114503791Y-84985083D01*
X114497856Y-84977460D01*
X114489465Y-84967718D01*
X114478922Y-84956203D01*
X114466531Y-84943260D01*
X114452596Y-84929238D01*
X114443926Y-84920745D01*
X114401672Y-84882508D01*
X114355212Y-84845634D01*
X114304793Y-84810264D01*
X114250664Y-84776539D01*
X114193071Y-84744600D01*
X114132263Y-84714588D01*
X114068486Y-84686643D01*
X114001989Y-84660908D01*
X113965156Y-84648019D01*
X113945256Y-84641390D01*
X113926426Y-84635311D01*
X113907999Y-84629596D01*
X113889308Y-84624059D01*
X113869687Y-84618512D01*
X113848467Y-84612768D01*
X113824983Y-84606640D01*
X113798568Y-84599942D01*
X113768554Y-84592486D01*
X113756701Y-84589571D01*
X113727912Y-84582479D01*
X113702980Y-84576269D01*
X113681266Y-84570763D01*
X113662133Y-84565785D01*
X113644942Y-84561160D01*
X113629054Y-84556710D01*
X113613830Y-84552260D01*
X113598633Y-84547633D01*
X113582824Y-84542652D01*
X113565765Y-84537142D01*
X113559772Y-84535184D01*
X113542424Y-84529592D01*
X113523570Y-84523665D01*
X113504692Y-84517857D01*
X113487273Y-84512627D01*
X113473181Y-84508538D01*
X113445747Y-84500312D01*
X113422616Y-84492291D01*
X113403491Y-84484297D01*
X113388073Y-84476150D01*
X113376063Y-84467670D01*
X113367163Y-84458677D01*
X113361076Y-84448992D01*
X113357607Y-84438905D01*
X113356531Y-84429045D01*
X113358327Y-84420229D01*
X113363326Y-84412055D01*
X113371863Y-84404119D01*
X113384269Y-84396020D01*
X113399908Y-84387826D01*
X113410791Y-84382755D01*
X113422603Y-84377706D01*
X113435667Y-84372577D01*
X113450304Y-84367271D01*
X113466835Y-84361688D01*
X113485580Y-84355728D01*
X113506862Y-84349293D01*
X113531002Y-84342283D01*
X113558320Y-84334599D01*
X113589138Y-84326141D01*
X113623777Y-84316811D01*
X113662558Y-84306509D01*
X113665991Y-84305603D01*
X113716020Y-84292558D01*
X113762154Y-84280885D01*
X113804875Y-84270490D01*
X113844667Y-84261278D01*
X113882012Y-84253153D01*
X113917395Y-84246021D01*
X113951297Y-84239787D01*
X113984203Y-84234355D01*
X114016595Y-84229631D01*
X114048956Y-84225519D01*
X114081770Y-84221926D01*
X114101254Y-84220036D01*
X114119837Y-84218508D01*
X114140965Y-84217101D01*
X114163787Y-84215844D01*
X114187456Y-84214767D01*
X114211123Y-84213900D01*
X114233939Y-84213272D01*
X114255055Y-84212913D01*
X114273623Y-84212852D01*
X114288794Y-84213118D01*
D12*
X100000000Y-90000000D03*
X100000000Y-88000000D03*
X100000000Y-86000000D03*
X100000000Y-84000000D03*
X100000000Y-96000000D03*
X100000000Y-94000000D03*
X100000000Y-98000000D03*
X100000000Y-92000000D03*
X100000000Y-80000000D03*
X100000000Y-82000000D03*
X104000000Y-100000000D03*
X106000000Y-100000000D03*
X108000000Y-100000000D03*
X110000000Y-100000000D03*
X114000000Y-100000000D03*
X112000000Y-100000000D03*
X118000000Y-86000000D03*
X118000000Y-84000000D03*
X118000000Y-90000000D03*
X118000000Y-88000000D03*
X118000000Y-80000000D03*
X118000000Y-82000000D03*
X118000000Y-96000000D03*
X118000000Y-94000000D03*
X118000000Y-98000000D03*
X118000000Y-92000000D03*
X107000000Y-78000000D03*
X109000000Y-78000000D03*
X105000000Y-78000000D03*
X111000000Y-78000000D03*
X113000000Y-78000000D03*
D13*
X103570000Y-92600000D03*
X103570000Y-91500000D03*
D14*
X103370000Y-89950000D03*
X102270000Y-89950000D03*
D13*
X102270000Y-92600000D03*
X102270000Y-91500000D03*
D14*
X103370000Y-88700000D03*
X102270000Y-88700000D03*
D13*
X112190000Y-82400000D03*
X112190000Y-83500000D03*
X107170000Y-81580000D03*
X107170000Y-82680000D03*
D14*
X113520000Y-89650000D03*
X114620000Y-89650000D03*
D13*
X103970000Y-84400000D03*
X103970000Y-83300000D03*
D15*
X115750000Y-98999300D03*
X115750000Y-97500700D03*
X102250000Y-98999300D03*
X102250000Y-97500700D03*
D16*
X102370000Y-87000000D03*
X103270000Y-87000000D03*
X113470000Y-97500000D03*
X114370000Y-97500000D03*
X104520000Y-97500000D03*
X103620000Y-97500000D03*
D17*
X102370000Y-94350000D03*
X104970000Y-94350000D03*
D18*
X115120000Y-83050000D03*
X115120000Y-80450000D03*
X113720000Y-83050000D03*
X113720000Y-80450000D03*
D19*
X113020000Y-95950000D03*
X114545000Y-94200000D03*
D20*
X105770000Y-92275000D03*
X106270000Y-92275000D03*
X106770000Y-92275000D03*
X107270000Y-92275000D03*
X107770000Y-92275000D03*
X108270000Y-92275000D03*
X108770000Y-92275000D03*
X109270000Y-92275000D03*
X109770000Y-92275000D03*
X110270000Y-92275000D03*
X110770000Y-92275000D03*
X111270000Y-92275000D03*
D21*
X111895000Y-91650000D03*
X111895000Y-91150000D03*
X111895000Y-90650000D03*
X111895000Y-90150000D03*
X111895000Y-89650000D03*
X111895000Y-89150000D03*
X111895000Y-88650000D03*
X111895000Y-88150000D03*
X111895000Y-87650000D03*
X111895000Y-87150000D03*
X111895000Y-86650000D03*
X111895000Y-86150000D03*
D20*
X111270000Y-85525000D03*
X110770000Y-85525000D03*
X110270000Y-85525000D03*
X109770000Y-85525000D03*
X109270000Y-85525000D03*
X108770000Y-85525000D03*
X108270000Y-85525000D03*
X107770000Y-85525000D03*
X107270000Y-85525000D03*
X106770000Y-85525000D03*
X106270000Y-85525000D03*
X105770000Y-85525000D03*
D21*
X105145000Y-86150000D03*
X105145000Y-86650000D03*
X105145000Y-87150000D03*
X105145000Y-87650000D03*
X105145000Y-88150000D03*
X105145000Y-88650000D03*
X105145000Y-89150000D03*
X105145000Y-89650000D03*
X105145000Y-90150000D03*
X105145000Y-90650000D03*
X105145000Y-91150000D03*
X105145000Y-91650000D03*
D22*
X107270000Y-90150000D03*
X109770000Y-90150000D03*
X107270000Y-87650000D03*
X109770000Y-87650000D03*
D23*
X111020000Y-96450000D03*
X107020000Y-98050000D03*
X111020000Y-98050000D03*
X107020000Y-96450000D03*
D19*
X102870000Y-80575000D03*
X104945000Y-81750000D03*
X102245000Y-84000000D03*
D24*
X110830000Y-82380000D03*
X110830000Y-81430000D03*
X110830000Y-80480000D03*
X108630000Y-80480000D03*
X108630000Y-82380000D03*
M02*
