G04 #@! TF.FileFunction,Paste,Top*
%FSLAX46Y46*%
G04 Gerber Fmt 4.6, Leading zero omitted, Abs format (unit mm)*
G04 Created by KiCad (PCBNEW 4.0.7) date 07/19/18 20:32:37*
%MOMM*%
%LPD*%
G01*
G04 APERTURE LIST*
%ADD10C,0.100000*%
%ADD11R,0.500000X0.600000*%
%ADD12R,0.600000X0.500000*%
%ADD13R,0.797560X0.797560*%
%ADD14R,0.400000X0.600000*%
%ADD15R,1.100000X1.900000*%
%ADD16R,0.500000X0.900000*%
%ADD17C,1.500000*%
%ADD18R,0.300000X0.550000*%
%ADD19R,0.550000X0.300000*%
%ADD20R,1.002000X1.002000*%
%ADD21R,1.000000X1.000000*%
%ADD22R,1.060000X0.650000*%
G04 APERTURE END LIST*
D10*
D11*
X103570000Y-92600000D03*
X103570000Y-91500000D03*
D12*
X103370000Y-89950000D03*
X102270000Y-89950000D03*
D11*
X102270000Y-92600000D03*
X102270000Y-91500000D03*
D12*
X103370000Y-88700000D03*
X102270000Y-88700000D03*
D11*
X112190000Y-82400000D03*
X112190000Y-83500000D03*
X107170000Y-81580000D03*
X107170000Y-82680000D03*
D12*
X113520000Y-89650000D03*
X114620000Y-89650000D03*
D11*
X103970000Y-84400000D03*
X103970000Y-83300000D03*
D13*
X115750000Y-98999300D03*
X115750000Y-97500700D03*
X102250000Y-98999300D03*
X102250000Y-97500700D03*
D14*
X102370000Y-87000000D03*
X103270000Y-87000000D03*
X113470000Y-97500000D03*
X114370000Y-97500000D03*
X104520000Y-97500000D03*
X103620000Y-97500000D03*
D15*
X102370000Y-94350000D03*
X104970000Y-94350000D03*
D16*
X115120000Y-83050000D03*
X115120000Y-80450000D03*
X113720000Y-83050000D03*
X113720000Y-80450000D03*
D17*
X113020000Y-95950000D03*
X114545000Y-94200000D03*
D18*
X105770000Y-92275000D03*
X106270000Y-92275000D03*
X106770000Y-92275000D03*
X107270000Y-92275000D03*
X107770000Y-92275000D03*
X108270000Y-92275000D03*
X108770000Y-92275000D03*
X109270000Y-92275000D03*
X109770000Y-92275000D03*
X110270000Y-92275000D03*
X110770000Y-92275000D03*
X111270000Y-92275000D03*
D19*
X111895000Y-91650000D03*
X111895000Y-91150000D03*
X111895000Y-90650000D03*
X111895000Y-90150000D03*
X111895000Y-89650000D03*
X111895000Y-89150000D03*
X111895000Y-88650000D03*
X111895000Y-88150000D03*
X111895000Y-87650000D03*
X111895000Y-87150000D03*
X111895000Y-86650000D03*
X111895000Y-86150000D03*
D18*
X111270000Y-85525000D03*
X110770000Y-85525000D03*
X110270000Y-85525000D03*
X109770000Y-85525000D03*
X109270000Y-85525000D03*
X108770000Y-85525000D03*
X108270000Y-85525000D03*
X107770000Y-85525000D03*
X107270000Y-85525000D03*
X106770000Y-85525000D03*
X106270000Y-85525000D03*
X105770000Y-85525000D03*
D19*
X105145000Y-86150000D03*
X105145000Y-86650000D03*
X105145000Y-87150000D03*
X105145000Y-87650000D03*
X105145000Y-88150000D03*
X105145000Y-88650000D03*
X105145000Y-89150000D03*
X105145000Y-89650000D03*
X105145000Y-90150000D03*
X105145000Y-90650000D03*
X105145000Y-91150000D03*
X105145000Y-91650000D03*
D20*
X107270000Y-90150000D03*
X109770000Y-90150000D03*
X107270000Y-87650000D03*
X109770000Y-87650000D03*
D21*
X111020000Y-96450000D03*
X107020000Y-98050000D03*
X111020000Y-98050000D03*
X107020000Y-96450000D03*
D17*
X102870000Y-80575000D03*
X104945000Y-81750000D03*
X102245000Y-84000000D03*
D22*
X110830000Y-82380000D03*
X110830000Y-81430000D03*
X110830000Y-80480000D03*
X108630000Y-80480000D03*
X108630000Y-82380000D03*
M02*
