G04 #@! TF.FileFunction,Legend,Top*
%FSLAX46Y46*%
G04 Gerber Fmt 4.6, Leading zero omitted, Abs format (unit mm)*
G04 Created by KiCad (PCBNEW 4.0.7) date 07/19/18 20:32:38*
%MOMM*%
%LPD*%
G01*
G04 APERTURE LIST*
%ADD10C,0.100000*%
%ADD11C,0.175000*%
%ADD12C,0.150000*%
%ADD13C,0.127000*%
%ADD14C,0.010000*%
%ADD15C,0.125000*%
G04 APERTURE END LIST*
D10*
D11*
X102461667Y-95916667D02*
X102861667Y-95916667D01*
X102661667Y-96616667D02*
X102661667Y-95916667D01*
X103028333Y-95916667D02*
X103495000Y-96616667D01*
X103495000Y-95916667D02*
X103028333Y-96616667D01*
X114803334Y-96691667D02*
X114570000Y-96358333D01*
X114403334Y-96691667D02*
X114403334Y-95991667D01*
X114670000Y-95991667D01*
X114736667Y-96025000D01*
X114770000Y-96058333D01*
X114803334Y-96125000D01*
X114803334Y-96225000D01*
X114770000Y-96291667D01*
X114736667Y-96325000D01*
X114670000Y-96358333D01*
X114403334Y-96358333D01*
X115036667Y-95991667D02*
X115503334Y-96691667D01*
X115503334Y-95991667D02*
X115036667Y-96691667D01*
D10*
X100000000Y-100000000D02*
X100000000Y-78000000D01*
X118000000Y-100000000D02*
X100000000Y-100000000D01*
X118000000Y-78000000D02*
X118000000Y-100000000D01*
X100000000Y-78000000D02*
X118000000Y-78000000D01*
D12*
X103095000Y-91800000D02*
X103095000Y-92300000D01*
X104045000Y-92300000D02*
X104045000Y-91800000D01*
X102570000Y-90425000D02*
X103070000Y-90425000D01*
X103070000Y-89475000D02*
X102570000Y-89475000D01*
X101795000Y-91800000D02*
X101795000Y-92300000D01*
X102745000Y-92300000D02*
X102745000Y-91800000D01*
X102570000Y-89175000D02*
X103070000Y-89175000D01*
X103070000Y-88225000D02*
X102570000Y-88225000D01*
X112665000Y-83200000D02*
X112665000Y-82700000D01*
X111715000Y-82700000D02*
X111715000Y-83200000D01*
X107645000Y-82380000D02*
X107645000Y-81880000D01*
X106695000Y-81880000D02*
X106695000Y-82380000D01*
X114320000Y-89175000D02*
X113820000Y-89175000D01*
X113820000Y-90125000D02*
X114320000Y-90125000D01*
X103495000Y-83600000D02*
X103495000Y-84100000D01*
X104445000Y-84100000D02*
X104445000Y-83600000D01*
X115200000Y-97150000D02*
X115200000Y-99050000D01*
X116300000Y-97150000D02*
X116300000Y-99050000D01*
X115750000Y-98050000D02*
X115750000Y-98500000D01*
X116000000Y-98000000D02*
X115500000Y-98000000D01*
X115750000Y-98000000D02*
X116000000Y-98250000D01*
X116000000Y-98250000D02*
X115500000Y-98250000D01*
X115500000Y-98250000D02*
X115750000Y-98000000D01*
X101700000Y-97150000D02*
X101700000Y-99050000D01*
X102800000Y-97150000D02*
X102800000Y-99050000D01*
X102250000Y-98050000D02*
X102250000Y-98500000D01*
X102500000Y-98000000D02*
X102000000Y-98000000D01*
X102250000Y-98000000D02*
X102500000Y-98250000D01*
X102500000Y-98250000D02*
X102000000Y-98250000D01*
X102000000Y-98250000D02*
X102250000Y-98000000D01*
X103070000Y-86475000D02*
X102570000Y-86475000D01*
X102570000Y-87525000D02*
X103070000Y-87525000D01*
X114170000Y-96975000D02*
X113670000Y-96975000D01*
X113670000Y-98025000D02*
X114170000Y-98025000D01*
X103820000Y-98025000D02*
X104320000Y-98025000D01*
X104320000Y-96975000D02*
X103820000Y-96975000D01*
X101920000Y-93350000D02*
X105470000Y-93350000D01*
X101820000Y-95350000D02*
X105520000Y-95350000D01*
X114520000Y-82400000D02*
X114520000Y-81100000D01*
X114520000Y-81100000D02*
X115720000Y-81100000D01*
X115720000Y-81100000D02*
X115720000Y-82400000D01*
X115720000Y-82400000D02*
X114520000Y-82400000D01*
X114520000Y-82075000D02*
X115720000Y-82075000D01*
X113120000Y-82400000D02*
X113120000Y-81100000D01*
X113120000Y-81100000D02*
X114320000Y-81100000D01*
X114320000Y-81100000D02*
X114320000Y-82400000D01*
X114320000Y-82400000D02*
X113120000Y-82400000D01*
X113120000Y-82075000D02*
X114320000Y-82075000D01*
X113727107Y-95950000D02*
G75*
G03X113727107Y-95950000I-707107J0D01*
G01*
X115252107Y-94200000D02*
G75*
G03X115252107Y-94200000I-707107J0D01*
G01*
X105370000Y-92450000D02*
X104970000Y-92050000D01*
X104970000Y-85750000D02*
X104970000Y-85350000D01*
X104970000Y-85350000D02*
X105370000Y-85350000D01*
X112070000Y-85750000D02*
X112070000Y-85350000D01*
X112070000Y-85350000D02*
X111670000Y-85350000D01*
X112070000Y-92050000D02*
X112070000Y-92450000D01*
X112070000Y-92450000D02*
X111670000Y-92450000D01*
D10*
X110020000Y-97250000D02*
G75*
G03X110020000Y-97250000I-1000000J0D01*
G01*
D13*
X106920000Y-98650000D02*
X106920000Y-95850000D01*
X111120000Y-95850000D02*
X106920000Y-95850000D01*
X111120000Y-98650000D02*
X106920000Y-98650000D01*
X111120000Y-98650000D02*
X111120000Y-95850000D01*
D12*
X103577107Y-80575000D02*
G75*
G03X103577107Y-80575000I-707107J0D01*
G01*
X105652107Y-81750000D02*
G75*
G03X105652107Y-81750000I-707107J0D01*
G01*
X102952107Y-84000000D02*
G75*
G03X102952107Y-84000000I-707107J0D01*
G01*
X110130000Y-83130000D02*
G75*
G03X110130000Y-83130000I-100000J0D01*
G01*
X109480000Y-82880000D02*
X109980000Y-82880000D01*
X109480000Y-79980000D02*
X109480000Y-82880000D01*
X109980000Y-79980000D02*
X109480000Y-79980000D01*
X109980000Y-82880000D02*
X109980000Y-79980000D01*
D14*
G36*
X109964126Y-94796699D02*
X109987229Y-94846232D01*
X110018954Y-94893962D01*
X110057761Y-94938210D01*
X110102112Y-94977292D01*
X110150471Y-95009528D01*
X110166782Y-95018244D01*
X110196105Y-95030286D01*
X110232038Y-95040946D01*
X110271050Y-95049448D01*
X110309609Y-95055013D01*
X110342284Y-95056873D01*
X110408091Y-95052189D01*
X110470202Y-95038220D01*
X110528206Y-95015119D01*
X110581693Y-94983041D01*
X110618874Y-94952933D01*
X110632325Y-94940710D01*
X110641540Y-94933061D01*
X110646621Y-94930778D01*
X110647672Y-94934653D01*
X110644796Y-94945477D01*
X110638095Y-94964042D01*
X110627674Y-94991139D01*
X110624815Y-94998523D01*
X110584483Y-95088987D01*
X110535748Y-95174368D01*
X110479218Y-95254182D01*
X110415500Y-95327947D01*
X110345203Y-95395180D01*
X110268933Y-95455396D01*
X110187299Y-95508115D01*
X110100909Y-95552851D01*
X110010369Y-95589123D01*
X109916288Y-95616448D01*
X109826135Y-95633407D01*
X109800214Y-95636444D01*
X109769371Y-95639144D01*
X109736045Y-95641390D01*
X109702676Y-95643063D01*
X109671703Y-95644044D01*
X109645565Y-95644213D01*
X109626701Y-95643452D01*
X109624520Y-95643236D01*
X109611914Y-95641843D01*
X109592320Y-95639698D01*
X109568853Y-95637140D01*
X109553400Y-95635462D01*
X109470539Y-95622107D01*
X109385712Y-95600076D01*
X109301018Y-95570004D01*
X109227083Y-95536807D01*
X109140513Y-95488227D01*
X109059366Y-95431368D01*
X108984231Y-95366887D01*
X108915696Y-95295442D01*
X108854351Y-95217690D01*
X108800784Y-95134289D01*
X108755584Y-95045896D01*
X108728972Y-94980680D01*
X108718455Y-94951955D01*
X108711526Y-94932054D01*
X108708365Y-94920230D01*
X108709152Y-94915734D01*
X108714066Y-94917819D01*
X108723288Y-94925737D01*
X108736998Y-94938740D01*
X108738686Y-94940351D01*
X108776529Y-94973836D01*
X108812698Y-94999744D01*
X108849977Y-95019630D01*
X108891148Y-95035048D01*
X108924722Y-95044245D01*
X108986689Y-95054433D01*
X109049355Y-95055554D01*
X109111103Y-95047837D01*
X109170313Y-95031509D01*
X109225366Y-95006798D01*
X109236565Y-95000376D01*
X109268512Y-94978070D01*
X109301154Y-94949610D01*
X109332627Y-94917107D01*
X109361071Y-94882671D01*
X109384622Y-94848413D01*
X109401418Y-94816446D01*
X109403629Y-94810972D01*
X109409513Y-94797491D01*
X109414607Y-94789064D01*
X109416515Y-94787640D01*
X109421451Y-94791560D01*
X109428864Y-94801331D01*
X109431194Y-94804958D01*
X109440044Y-94816684D01*
X109453864Y-94832173D01*
X109469994Y-94848481D01*
X109473654Y-94851948D01*
X109516731Y-94885628D01*
X109563658Y-94910491D01*
X109613269Y-94926530D01*
X109664401Y-94933742D01*
X109715889Y-94932121D01*
X109766569Y-94921662D01*
X109815276Y-94902361D01*
X109860847Y-94874212D01*
X109885545Y-94853680D01*
X109903394Y-94835607D01*
X109921050Y-94815117D01*
X109934653Y-94796699D01*
X109953482Y-94767659D01*
X109964126Y-94796699D01*
X109964126Y-94796699D01*
G37*
X109964126Y-94796699D02*
X109987229Y-94846232D01*
X110018954Y-94893962D01*
X110057761Y-94938210D01*
X110102112Y-94977292D01*
X110150471Y-95009528D01*
X110166782Y-95018244D01*
X110196105Y-95030286D01*
X110232038Y-95040946D01*
X110271050Y-95049448D01*
X110309609Y-95055013D01*
X110342284Y-95056873D01*
X110408091Y-95052189D01*
X110470202Y-95038220D01*
X110528206Y-95015119D01*
X110581693Y-94983041D01*
X110618874Y-94952933D01*
X110632325Y-94940710D01*
X110641540Y-94933061D01*
X110646621Y-94930778D01*
X110647672Y-94934653D01*
X110644796Y-94945477D01*
X110638095Y-94964042D01*
X110627674Y-94991139D01*
X110624815Y-94998523D01*
X110584483Y-95088987D01*
X110535748Y-95174368D01*
X110479218Y-95254182D01*
X110415500Y-95327947D01*
X110345203Y-95395180D01*
X110268933Y-95455396D01*
X110187299Y-95508115D01*
X110100909Y-95552851D01*
X110010369Y-95589123D01*
X109916288Y-95616448D01*
X109826135Y-95633407D01*
X109800214Y-95636444D01*
X109769371Y-95639144D01*
X109736045Y-95641390D01*
X109702676Y-95643063D01*
X109671703Y-95644044D01*
X109645565Y-95644213D01*
X109626701Y-95643452D01*
X109624520Y-95643236D01*
X109611914Y-95641843D01*
X109592320Y-95639698D01*
X109568853Y-95637140D01*
X109553400Y-95635462D01*
X109470539Y-95622107D01*
X109385712Y-95600076D01*
X109301018Y-95570004D01*
X109227083Y-95536807D01*
X109140513Y-95488227D01*
X109059366Y-95431368D01*
X108984231Y-95366887D01*
X108915696Y-95295442D01*
X108854351Y-95217690D01*
X108800784Y-95134289D01*
X108755584Y-95045896D01*
X108728972Y-94980680D01*
X108718455Y-94951955D01*
X108711526Y-94932054D01*
X108708365Y-94920230D01*
X108709152Y-94915734D01*
X108714066Y-94917819D01*
X108723288Y-94925737D01*
X108736998Y-94938740D01*
X108738686Y-94940351D01*
X108776529Y-94973836D01*
X108812698Y-94999744D01*
X108849977Y-95019630D01*
X108891148Y-95035048D01*
X108924722Y-95044245D01*
X108986689Y-95054433D01*
X109049355Y-95055554D01*
X109111103Y-95047837D01*
X109170313Y-95031509D01*
X109225366Y-95006798D01*
X109236565Y-95000376D01*
X109268512Y-94978070D01*
X109301154Y-94949610D01*
X109332627Y-94917107D01*
X109361071Y-94882671D01*
X109384622Y-94848413D01*
X109401418Y-94816446D01*
X109403629Y-94810972D01*
X109409513Y-94797491D01*
X109414607Y-94789064D01*
X109416515Y-94787640D01*
X109421451Y-94791560D01*
X109428864Y-94801331D01*
X109431194Y-94804958D01*
X109440044Y-94816684D01*
X109453864Y-94832173D01*
X109469994Y-94848481D01*
X109473654Y-94851948D01*
X109516731Y-94885628D01*
X109563658Y-94910491D01*
X109613269Y-94926530D01*
X109664401Y-94933742D01*
X109715889Y-94932121D01*
X109766569Y-94921662D01*
X109815276Y-94902361D01*
X109860847Y-94874212D01*
X109885545Y-94853680D01*
X109903394Y-94835607D01*
X109921050Y-94815117D01*
X109934653Y-94796699D01*
X109953482Y-94767659D01*
X109964126Y-94796699D01*
G36*
X107741307Y-94314528D02*
X107775105Y-94319184D01*
X107807211Y-94328137D01*
X107841703Y-94342287D01*
X107849108Y-94345753D01*
X107892378Y-94371389D01*
X107933100Y-94405359D01*
X107969239Y-94445849D01*
X107982965Y-94464967D01*
X108009869Y-94514080D01*
X108027716Y-94566637D01*
X108036441Y-94621350D01*
X108035977Y-94676931D01*
X108026261Y-94732093D01*
X108007225Y-94785547D01*
X108000058Y-94800340D01*
X107978066Y-94835065D01*
X107948809Y-94869652D01*
X107914900Y-94901583D01*
X107878950Y-94928336D01*
X107851143Y-94944002D01*
X107829098Y-94953850D01*
X107807502Y-94962460D01*
X107790020Y-94968402D01*
X107785560Y-94969584D01*
X107760780Y-94973833D01*
X107731095Y-94976701D01*
X107700446Y-94977998D01*
X107672774Y-94977534D01*
X107656020Y-94975863D01*
X107605460Y-94964530D01*
X107561074Y-94947234D01*
X107520401Y-94922713D01*
X107480979Y-94889701D01*
X107472804Y-94881745D01*
X107434390Y-94837262D01*
X107405616Y-94789684D01*
X107386339Y-94738638D01*
X107376416Y-94683750D01*
X107375503Y-94628087D01*
X107382123Y-94573090D01*
X107396107Y-94523762D01*
X107418213Y-94478434D01*
X107449196Y-94435436D01*
X107475786Y-94406610D01*
X107518162Y-94369949D01*
X107562741Y-94342818D01*
X107610727Y-94324718D01*
X107663327Y-94315153D01*
X107701740Y-94313270D01*
X107741307Y-94314528D01*
X107741307Y-94314528D01*
G37*
X107741307Y-94314528D02*
X107775105Y-94319184D01*
X107807211Y-94328137D01*
X107841703Y-94342287D01*
X107849108Y-94345753D01*
X107892378Y-94371389D01*
X107933100Y-94405359D01*
X107969239Y-94445849D01*
X107982965Y-94464967D01*
X108009869Y-94514080D01*
X108027716Y-94566637D01*
X108036441Y-94621350D01*
X108035977Y-94676931D01*
X108026261Y-94732093D01*
X108007225Y-94785547D01*
X108000058Y-94800340D01*
X107978066Y-94835065D01*
X107948809Y-94869652D01*
X107914900Y-94901583D01*
X107878950Y-94928336D01*
X107851143Y-94944002D01*
X107829098Y-94953850D01*
X107807502Y-94962460D01*
X107790020Y-94968402D01*
X107785560Y-94969584D01*
X107760780Y-94973833D01*
X107731095Y-94976701D01*
X107700446Y-94977998D01*
X107672774Y-94977534D01*
X107656020Y-94975863D01*
X107605460Y-94964530D01*
X107561074Y-94947234D01*
X107520401Y-94922713D01*
X107480979Y-94889701D01*
X107472804Y-94881745D01*
X107434390Y-94837262D01*
X107405616Y-94789684D01*
X107386339Y-94738638D01*
X107376416Y-94683750D01*
X107375503Y-94628087D01*
X107382123Y-94573090D01*
X107396107Y-94523762D01*
X107418213Y-94478434D01*
X107449196Y-94435436D01*
X107475786Y-94406610D01*
X107518162Y-94369949D01*
X107562741Y-94342818D01*
X107610727Y-94324718D01*
X107663327Y-94315153D01*
X107701740Y-94313270D01*
X107741307Y-94314528D01*
G36*
X109062088Y-94314546D02*
X109095910Y-94319173D01*
X109128110Y-94328164D01*
X109162795Y-94342421D01*
X109169908Y-94345753D01*
X109213178Y-94371389D01*
X109253900Y-94405359D01*
X109290039Y-94445849D01*
X109303765Y-94464967D01*
X109330669Y-94514080D01*
X109348516Y-94566637D01*
X109357241Y-94621350D01*
X109356777Y-94676931D01*
X109347061Y-94732093D01*
X109328025Y-94785547D01*
X109320858Y-94800340D01*
X109304410Y-94826554D01*
X109281675Y-94855023D01*
X109255059Y-94883302D01*
X109226966Y-94908946D01*
X109199801Y-94929510D01*
X109185100Y-94938314D01*
X109141144Y-94957180D01*
X109093238Y-94970488D01*
X109044474Y-94977680D01*
X108997945Y-94978200D01*
X108976820Y-94975838D01*
X108926273Y-94964537D01*
X108881850Y-94947223D01*
X108841112Y-94922645D01*
X108801622Y-94889551D01*
X108793604Y-94881745D01*
X108755190Y-94837262D01*
X108726416Y-94789684D01*
X108707139Y-94738638D01*
X108697216Y-94683750D01*
X108696303Y-94628087D01*
X108702923Y-94573090D01*
X108716907Y-94523762D01*
X108739013Y-94478434D01*
X108769996Y-94435436D01*
X108796586Y-94406610D01*
X108838610Y-94370210D01*
X108882786Y-94343238D01*
X108930393Y-94325167D01*
X108982709Y-94315468D01*
X109022540Y-94313380D01*
X109062088Y-94314546D01*
X109062088Y-94314546D01*
G37*
X109062088Y-94314546D02*
X109095910Y-94319173D01*
X109128110Y-94328164D01*
X109162795Y-94342421D01*
X109169908Y-94345753D01*
X109213178Y-94371389D01*
X109253900Y-94405359D01*
X109290039Y-94445849D01*
X109303765Y-94464967D01*
X109330669Y-94514080D01*
X109348516Y-94566637D01*
X109357241Y-94621350D01*
X109356777Y-94676931D01*
X109347061Y-94732093D01*
X109328025Y-94785547D01*
X109320858Y-94800340D01*
X109304410Y-94826554D01*
X109281675Y-94855023D01*
X109255059Y-94883302D01*
X109226966Y-94908946D01*
X109199801Y-94929510D01*
X109185100Y-94938314D01*
X109141144Y-94957180D01*
X109093238Y-94970488D01*
X109044474Y-94977680D01*
X108997945Y-94978200D01*
X108976820Y-94975838D01*
X108926273Y-94964537D01*
X108881850Y-94947223D01*
X108841112Y-94922645D01*
X108801622Y-94889551D01*
X108793604Y-94881745D01*
X108755190Y-94837262D01*
X108726416Y-94789684D01*
X108707139Y-94738638D01*
X108697216Y-94683750D01*
X108696303Y-94628087D01*
X108702923Y-94573090D01*
X108716907Y-94523762D01*
X108739013Y-94478434D01*
X108769996Y-94435436D01*
X108796586Y-94406610D01*
X108838610Y-94370210D01*
X108882786Y-94343238D01*
X108930393Y-94325167D01*
X108982709Y-94315468D01*
X109022540Y-94313380D01*
X109062088Y-94314546D01*
G36*
X110382907Y-94314528D02*
X110416705Y-94319184D01*
X110448811Y-94328137D01*
X110483303Y-94342287D01*
X110490708Y-94345753D01*
X110533978Y-94371389D01*
X110574700Y-94405359D01*
X110610839Y-94445849D01*
X110624565Y-94464967D01*
X110651469Y-94514080D01*
X110669316Y-94566637D01*
X110678041Y-94621350D01*
X110677577Y-94676931D01*
X110667861Y-94732093D01*
X110648825Y-94785547D01*
X110641658Y-94800340D01*
X110619666Y-94835065D01*
X110590409Y-94869652D01*
X110556500Y-94901583D01*
X110520550Y-94928336D01*
X110492743Y-94944002D01*
X110470698Y-94953850D01*
X110449102Y-94962460D01*
X110431620Y-94968402D01*
X110427160Y-94969584D01*
X110402380Y-94973833D01*
X110372695Y-94976701D01*
X110342046Y-94977998D01*
X110314374Y-94977534D01*
X110297620Y-94975863D01*
X110247060Y-94964530D01*
X110202674Y-94947234D01*
X110162001Y-94922713D01*
X110122579Y-94889701D01*
X110114404Y-94881745D01*
X110075990Y-94837262D01*
X110047216Y-94789684D01*
X110027939Y-94738638D01*
X110018016Y-94683750D01*
X110017103Y-94628087D01*
X110023723Y-94573090D01*
X110037707Y-94523762D01*
X110059813Y-94478434D01*
X110090796Y-94435436D01*
X110117386Y-94406610D01*
X110159762Y-94369949D01*
X110204341Y-94342818D01*
X110252327Y-94324718D01*
X110304927Y-94315153D01*
X110343340Y-94313270D01*
X110382907Y-94314528D01*
X110382907Y-94314528D01*
G37*
X110382907Y-94314528D02*
X110416705Y-94319184D01*
X110448811Y-94328137D01*
X110483303Y-94342287D01*
X110490708Y-94345753D01*
X110533978Y-94371389D01*
X110574700Y-94405359D01*
X110610839Y-94445849D01*
X110624565Y-94464967D01*
X110651469Y-94514080D01*
X110669316Y-94566637D01*
X110678041Y-94621350D01*
X110677577Y-94676931D01*
X110667861Y-94732093D01*
X110648825Y-94785547D01*
X110641658Y-94800340D01*
X110619666Y-94835065D01*
X110590409Y-94869652D01*
X110556500Y-94901583D01*
X110520550Y-94928336D01*
X110492743Y-94944002D01*
X110470698Y-94953850D01*
X110449102Y-94962460D01*
X110431620Y-94968402D01*
X110427160Y-94969584D01*
X110402380Y-94973833D01*
X110372695Y-94976701D01*
X110342046Y-94977998D01*
X110314374Y-94977534D01*
X110297620Y-94975863D01*
X110247060Y-94964530D01*
X110202674Y-94947234D01*
X110162001Y-94922713D01*
X110122579Y-94889701D01*
X110114404Y-94881745D01*
X110075990Y-94837262D01*
X110047216Y-94789684D01*
X110027939Y-94738638D01*
X110018016Y-94683750D01*
X110017103Y-94628087D01*
X110023723Y-94573090D01*
X110037707Y-94523762D01*
X110059813Y-94478434D01*
X110090796Y-94435436D01*
X110117386Y-94406610D01*
X110159762Y-94369949D01*
X110204341Y-94342818D01*
X110252327Y-94324718D01*
X110304927Y-94315153D01*
X110343340Y-94313270D01*
X110382907Y-94314528D01*
G36*
X108461311Y-93621778D02*
X108553108Y-93633856D01*
X108641830Y-93654489D01*
X108729232Y-93684086D01*
X108817072Y-93723060D01*
X108819233Y-93724131D01*
X108904057Y-93771796D01*
X108983942Y-93827815D01*
X109058222Y-93891407D01*
X109126229Y-93961791D01*
X109187298Y-94038188D01*
X109240760Y-94119818D01*
X109285949Y-94205899D01*
X109322198Y-94295652D01*
X109331166Y-94322975D01*
X109339683Y-94350520D01*
X109345060Y-94369185D01*
X109347146Y-94379802D01*
X109345791Y-94383201D01*
X109340843Y-94380214D01*
X109332150Y-94371671D01*
X109323883Y-94362966D01*
X109275825Y-94319226D01*
X109223061Y-94284274D01*
X109166343Y-94258330D01*
X109106424Y-94241614D01*
X109044057Y-94234344D01*
X108979995Y-94236741D01*
X108924722Y-94246554D01*
X108885203Y-94257523D01*
X108851907Y-94270351D01*
X108820896Y-94286861D01*
X108788233Y-94308874D01*
X108785165Y-94311124D01*
X108744127Y-94346193D01*
X108706176Y-94387865D01*
X108673729Y-94433202D01*
X108652079Y-94472863D01*
X108640416Y-94498036D01*
X108622042Y-94468267D01*
X108608974Y-94449905D01*
X108591626Y-94429209D01*
X108573523Y-94410352D01*
X108571668Y-94408599D01*
X108528323Y-94374650D01*
X108481265Y-94349634D01*
X108431616Y-94333546D01*
X108380499Y-94326383D01*
X108329036Y-94328141D01*
X108278349Y-94338817D01*
X108229561Y-94358406D01*
X108183795Y-94386906D01*
X108156481Y-94409940D01*
X108139032Y-94427771D01*
X108122560Y-94446929D01*
X108110092Y-94463844D01*
X108108140Y-94466989D01*
X108099568Y-94480786D01*
X108092914Y-94490190D01*
X108090110Y-94492899D01*
X108086703Y-94488725D01*
X108082005Y-94478361D01*
X108081305Y-94476490D01*
X108072281Y-94457461D01*
X108057930Y-94433768D01*
X108040030Y-94408010D01*
X108020362Y-94382784D01*
X108005506Y-94365763D01*
X107958020Y-94321633D01*
X107905717Y-94286218D01*
X107849363Y-94259747D01*
X107789723Y-94242446D01*
X107727564Y-94234543D01*
X107663651Y-94236265D01*
X107603922Y-94246554D01*
X107578643Y-94253370D01*
X107553844Y-94261233D01*
X107533251Y-94268914D01*
X107525182Y-94272557D01*
X107492483Y-94291646D01*
X107458151Y-94316194D01*
X107426137Y-94343176D01*
X107404148Y-94365259D01*
X107393134Y-94377397D01*
X107385799Y-94384483D01*
X107382028Y-94385715D01*
X107381710Y-94380292D01*
X107384731Y-94367412D01*
X107390978Y-94346272D01*
X107398193Y-94322975D01*
X107431650Y-94232279D01*
X107474247Y-94145022D01*
X107525315Y-94061985D01*
X107584188Y-93983949D01*
X107650199Y-93911692D01*
X107722681Y-93845996D01*
X107800966Y-93787640D01*
X107884389Y-93737406D01*
X107910126Y-93724131D01*
X107997998Y-93684923D01*
X108085390Y-93655102D01*
X108174059Y-93634256D01*
X108265761Y-93621974D01*
X108362253Y-93617845D01*
X108364680Y-93617843D01*
X108461311Y-93621778D01*
X108461311Y-93621778D01*
G37*
X108461311Y-93621778D02*
X108553108Y-93633856D01*
X108641830Y-93654489D01*
X108729232Y-93684086D01*
X108817072Y-93723060D01*
X108819233Y-93724131D01*
X108904057Y-93771796D01*
X108983942Y-93827815D01*
X109058222Y-93891407D01*
X109126229Y-93961791D01*
X109187298Y-94038188D01*
X109240760Y-94119818D01*
X109285949Y-94205899D01*
X109322198Y-94295652D01*
X109331166Y-94322975D01*
X109339683Y-94350520D01*
X109345060Y-94369185D01*
X109347146Y-94379802D01*
X109345791Y-94383201D01*
X109340843Y-94380214D01*
X109332150Y-94371671D01*
X109323883Y-94362966D01*
X109275825Y-94319226D01*
X109223061Y-94284274D01*
X109166343Y-94258330D01*
X109106424Y-94241614D01*
X109044057Y-94234344D01*
X108979995Y-94236741D01*
X108924722Y-94246554D01*
X108885203Y-94257523D01*
X108851907Y-94270351D01*
X108820896Y-94286861D01*
X108788233Y-94308874D01*
X108785165Y-94311124D01*
X108744127Y-94346193D01*
X108706176Y-94387865D01*
X108673729Y-94433202D01*
X108652079Y-94472863D01*
X108640416Y-94498036D01*
X108622042Y-94468267D01*
X108608974Y-94449905D01*
X108591626Y-94429209D01*
X108573523Y-94410352D01*
X108571668Y-94408599D01*
X108528323Y-94374650D01*
X108481265Y-94349634D01*
X108431616Y-94333546D01*
X108380499Y-94326383D01*
X108329036Y-94328141D01*
X108278349Y-94338817D01*
X108229561Y-94358406D01*
X108183795Y-94386906D01*
X108156481Y-94409940D01*
X108139032Y-94427771D01*
X108122560Y-94446929D01*
X108110092Y-94463844D01*
X108108140Y-94466989D01*
X108099568Y-94480786D01*
X108092914Y-94490190D01*
X108090110Y-94492899D01*
X108086703Y-94488725D01*
X108082005Y-94478361D01*
X108081305Y-94476490D01*
X108072281Y-94457461D01*
X108057930Y-94433768D01*
X108040030Y-94408010D01*
X108020362Y-94382784D01*
X108005506Y-94365763D01*
X107958020Y-94321633D01*
X107905717Y-94286218D01*
X107849363Y-94259747D01*
X107789723Y-94242446D01*
X107727564Y-94234543D01*
X107663651Y-94236265D01*
X107603922Y-94246554D01*
X107578643Y-94253370D01*
X107553844Y-94261233D01*
X107533251Y-94268914D01*
X107525182Y-94272557D01*
X107492483Y-94291646D01*
X107458151Y-94316194D01*
X107426137Y-94343176D01*
X107404148Y-94365259D01*
X107393134Y-94377397D01*
X107385799Y-94384483D01*
X107382028Y-94385715D01*
X107381710Y-94380292D01*
X107384731Y-94367412D01*
X107390978Y-94346272D01*
X107398193Y-94322975D01*
X107431650Y-94232279D01*
X107474247Y-94145022D01*
X107525315Y-94061985D01*
X107584188Y-93983949D01*
X107650199Y-93911692D01*
X107722681Y-93845996D01*
X107800966Y-93787640D01*
X107884389Y-93737406D01*
X107910126Y-93724131D01*
X107997998Y-93684923D01*
X108085390Y-93655102D01*
X108174059Y-93634256D01*
X108265761Y-93621974D01*
X108362253Y-93617845D01*
X108364680Y-93617843D01*
X108461311Y-93621778D01*
D15*
X111678334Y-95101190D02*
X111678334Y-95458333D01*
X111654524Y-95529762D01*
X111606905Y-95577381D01*
X111535477Y-95601190D01*
X111487858Y-95601190D01*
X111892619Y-95148810D02*
X111916429Y-95125000D01*
X111964048Y-95101190D01*
X112083095Y-95101190D01*
X112130714Y-95125000D01*
X112154524Y-95148810D01*
X112178333Y-95196429D01*
X112178333Y-95244048D01*
X112154524Y-95315476D01*
X111868810Y-95601190D01*
X112178333Y-95601190D01*
X114878334Y-92851190D02*
X114878334Y-93208333D01*
X114854524Y-93279762D01*
X114806905Y-93327381D01*
X114735477Y-93351190D01*
X114687858Y-93351190D01*
X115330714Y-93017857D02*
X115330714Y-93351190D01*
X115211667Y-92827381D02*
X115092619Y-93184524D01*
X115402143Y-93184524D01*
X103753334Y-79426190D02*
X103753334Y-79783333D01*
X103729524Y-79854762D01*
X103681905Y-79902381D01*
X103610477Y-79926190D01*
X103562858Y-79926190D01*
X104253333Y-79926190D02*
X103967619Y-79926190D01*
X104110476Y-79926190D02*
X104110476Y-79426190D01*
X104062857Y-79497619D01*
X104015238Y-79545238D01*
X103967619Y-79569048D01*
X105453334Y-82551190D02*
X105453334Y-82908333D01*
X105429524Y-82979762D01*
X105381905Y-83027381D01*
X105310477Y-83051190D01*
X105262858Y-83051190D01*
X105643810Y-82551190D02*
X105953333Y-82551190D01*
X105786667Y-82741667D01*
X105858095Y-82741667D01*
X105905714Y-82765476D01*
X105929524Y-82789286D01*
X105953333Y-82836905D01*
X105953333Y-82955952D01*
X105929524Y-83003571D01*
X105905714Y-83027381D01*
X105858095Y-83051190D01*
X105715238Y-83051190D01*
X105667619Y-83027381D01*
X105643810Y-83003571D01*
X102778334Y-82726190D02*
X102778334Y-83083333D01*
X102754524Y-83154762D01*
X102706905Y-83202381D01*
X102635477Y-83226190D01*
X102587858Y-83226190D01*
X103254524Y-82726190D02*
X103016429Y-82726190D01*
X102992619Y-82964286D01*
X103016429Y-82940476D01*
X103064048Y-82916667D01*
X103183095Y-82916667D01*
X103230714Y-82940476D01*
X103254524Y-82964286D01*
X103278333Y-83011905D01*
X103278333Y-83130952D01*
X103254524Y-83178571D01*
X103230714Y-83202381D01*
X103183095Y-83226190D01*
X103064048Y-83226190D01*
X103016429Y-83202381D01*
X102992619Y-83178571D01*
M02*
