G04 #@! TF.FileFunction,Copper,L2,Bot,Signal*
%FSLAX46Y46*%
G04 Gerber Fmt 4.6, Leading zero omitted, Abs format (unit mm)*
G04 Created by KiCad (PCBNEW 4.0.7) date 07/19/18 20:32:37*
%MOMM*%
%LPD*%
G01*
G04 APERTURE LIST*
%ADD10C,0.100000*%
%ADD11R,1.500000X1.500000*%
%ADD12R,2.000000X1.500000*%
%ADD13R,1.500000X2.000000*%
%ADD14C,0.600000*%
%ADD15C,0.400000*%
%ADD16C,0.200000*%
%ADD17C,0.400000*%
%ADD18C,0.254000*%
G04 APERTURE END LIST*
D10*
D11*
X100000000Y-90000000D03*
D12*
X100000000Y-90000000D03*
D11*
X100000000Y-88000000D03*
D12*
X100000000Y-88000000D03*
D11*
X100000000Y-86000000D03*
X100000000Y-84000000D03*
D12*
X100000000Y-86000000D03*
X100000000Y-84000000D03*
D11*
X100000000Y-96000000D03*
X100000000Y-94000000D03*
X100000000Y-98000000D03*
X100000000Y-92000000D03*
D12*
X100000000Y-96000000D03*
X100000000Y-92000000D03*
X100000000Y-98000000D03*
X100000000Y-94000000D03*
D11*
X100000000Y-80000000D03*
X100000000Y-82000000D03*
D12*
X100000000Y-82000000D03*
X100000000Y-80000000D03*
D11*
X104000000Y-100000000D03*
D13*
X104000000Y-100000000D03*
D11*
X106000000Y-100000000D03*
D13*
X106000000Y-100000000D03*
D11*
X108000000Y-100000000D03*
X110000000Y-100000000D03*
D13*
X108000000Y-100000000D03*
X110000000Y-100000000D03*
D11*
X114000000Y-100000000D03*
X112000000Y-100000000D03*
D13*
X112000000Y-100000000D03*
X114000000Y-100000000D03*
D11*
X118000000Y-86000000D03*
X118000000Y-84000000D03*
X118000000Y-90000000D03*
X118000000Y-88000000D03*
X118000000Y-80000000D03*
X118000000Y-82000000D03*
X118000000Y-96000000D03*
X118000000Y-94000000D03*
X118000000Y-98000000D03*
X118000000Y-92000000D03*
D12*
X118000000Y-86000000D03*
X118000000Y-84000000D03*
X118000000Y-88000000D03*
X118000000Y-90000000D03*
X118000000Y-82000000D03*
X118000000Y-80000000D03*
X118000000Y-96000000D03*
X118000000Y-98000000D03*
X118000000Y-92000000D03*
X118000000Y-94000000D03*
D11*
X107000000Y-78000000D03*
X109000000Y-78000000D03*
X105000000Y-78000000D03*
X111000000Y-78000000D03*
X113000000Y-78000000D03*
D13*
X107000000Y-78000000D03*
X111000000Y-78000000D03*
X105000000Y-78000000D03*
X109000000Y-78000000D03*
X113000000Y-78000000D03*
D14*
X114400000Y-81610000D03*
X101940000Y-78970000D03*
X112770000Y-84280000D03*
X107280000Y-83500000D03*
X109710000Y-81430000D03*
X112110000Y-81250000D03*
X105270000Y-83475000D03*
D15*
X116420000Y-95275000D03*
X116395000Y-92650000D03*
X116495000Y-91500000D03*
X107914719Y-98053846D03*
X101570000Y-89850000D03*
X107920000Y-93000000D03*
D14*
X106020000Y-84550000D03*
X105020000Y-79600000D03*
D15*
X110120000Y-98050000D03*
X104370000Y-88650000D03*
X115266793Y-90103207D03*
X102270000Y-90700000D03*
X102220000Y-88100000D03*
X116220000Y-96450000D03*
X108520000Y-88900000D03*
D14*
X107180000Y-80550000D03*
D15*
X107720000Y-95600000D03*
X104070000Y-98150000D03*
D14*
X115820000Y-91800000D03*
X116270000Y-89050000D03*
X115420000Y-86650000D03*
X116270000Y-80150000D03*
D15*
X114820000Y-98550000D03*
X112320000Y-93050000D03*
X104320000Y-90250000D03*
X112008302Y-97101622D03*
X107901802Y-96381802D03*
X112370000Y-92450000D03*
X104424727Y-88102727D03*
X103570000Y-85050000D03*
X112220000Y-93600000D03*
X104320000Y-90800000D03*
X104170016Y-92796054D03*
X102122388Y-95786858D03*
X104001028Y-96014385D03*
X111273521Y-93492756D03*
X115970011Y-94009607D03*
X114420000Y-87050000D03*
X106790865Y-93449990D03*
X103970147Y-87213193D03*
X104220000Y-85050002D03*
X104795540Y-96000011D03*
X112870000Y-90750000D03*
X101494365Y-95925564D03*
X104518987Y-96497324D03*
X113270000Y-90300000D03*
X113370000Y-86600000D03*
X111370000Y-84700000D03*
X110774027Y-84765738D03*
X110366276Y-84396629D03*
X101450643Y-86830338D03*
X101857968Y-85319838D03*
X109720000Y-84600000D03*
X108275710Y-84425983D03*
X108176359Y-83788012D03*
X105212625Y-97106102D03*
X107493822Y-93376516D03*
X106720000Y-95481248D03*
X104520000Y-87200000D03*
X112820000Y-97550000D03*
X110620000Y-95500000D03*
X110520000Y-93700000D03*
X104720000Y-93000000D03*
D16*
X112110000Y-81250000D02*
X114040000Y-81250000D01*
X114040000Y-81250000D02*
X114400000Y-81610000D01*
X105020000Y-79600000D02*
X104720001Y-79300001D01*
X104720001Y-79300001D02*
X102270001Y-79300001D01*
X102270001Y-79300001D02*
X101940000Y-78970000D01*
X116420000Y-95275000D02*
X116420000Y-96250000D01*
X116420000Y-96250000D02*
X116220000Y-96450000D01*
X115266793Y-90103207D02*
X115266793Y-90271793D01*
X115266793Y-90271793D02*
X116495000Y-91500000D01*
X107918565Y-98050000D02*
X107914719Y-98053846D01*
X110120000Y-98050000D02*
X107918565Y-98050000D01*
X102220000Y-88100000D02*
X102220000Y-89200000D01*
X102220000Y-89200000D02*
X101570000Y-89850000D01*
D17*
X118000000Y-98000000D02*
X117970000Y-98000000D01*
X104320000Y-80550000D02*
X107180000Y-80550000D01*
X107180000Y-80550000D02*
X107470000Y-80550000D01*
D16*
X106070000Y-97550000D02*
X107270000Y-97550000D01*
X107270000Y-97550000D02*
X111970000Y-97550000D01*
X107720000Y-95600000D02*
X107270000Y-96050000D01*
X107270000Y-96050000D02*
X107270000Y-97550000D01*
X112620000Y-98200000D02*
X114470000Y-98200000D01*
X111970000Y-97550000D02*
X112620000Y-98200000D01*
X105870000Y-97750000D02*
X106070000Y-97550000D01*
X104752842Y-97750000D02*
X105870000Y-97750000D01*
X104070000Y-98150000D02*
X104352842Y-98150000D01*
X104352842Y-98150000D02*
X104752842Y-97750000D01*
X115520001Y-97849999D02*
X115520001Y-93549999D01*
X115520001Y-93549999D02*
X115520001Y-93599999D01*
X115820000Y-91800000D02*
X115520001Y-92099999D01*
X115520001Y-92099999D02*
X115520001Y-93549999D01*
D17*
X115420000Y-86650000D02*
X115420000Y-88200000D01*
X115420000Y-88200000D02*
X116270000Y-89050000D01*
X107470000Y-80550000D02*
X115870000Y-80550000D01*
X115870000Y-80550000D02*
X116270000Y-80150000D01*
X100000000Y-80000000D02*
X103770000Y-80000000D01*
X103770000Y-80000000D02*
X104320000Y-80550000D01*
D16*
X114470000Y-98200000D02*
X114820000Y-98550000D01*
X114820000Y-98550000D02*
X115520001Y-97849999D01*
X104320000Y-90250000D02*
X109520000Y-90250000D01*
X109520000Y-90250000D02*
X112320000Y-93050000D01*
X108621622Y-97101622D02*
X111725460Y-97101622D01*
X111725460Y-97101622D02*
X112008302Y-97101622D01*
X107901802Y-96381802D02*
X108621622Y-97101622D01*
X104424727Y-88102727D02*
X108388729Y-88102727D01*
X108388729Y-88102727D02*
X112370000Y-92083998D01*
X112370000Y-92083998D02*
X112370000Y-92450000D01*
X103570000Y-85050000D02*
X102520000Y-84000000D01*
X102520000Y-84000000D02*
X100000000Y-84000000D01*
X104320000Y-90800000D02*
X109420000Y-90800000D01*
X109420000Y-90800000D02*
X112220000Y-93600000D01*
X104320000Y-90800000D02*
X104602842Y-90800000D01*
X104602842Y-90800000D02*
X104802832Y-90600010D01*
X110000000Y-99050000D02*
X110000000Y-100000000D01*
X112000000Y-100000000D02*
X112000000Y-99050000D01*
X103469999Y-93496071D02*
X103970017Y-92996053D01*
X103780785Y-98646900D02*
X103469999Y-98336114D01*
X113596900Y-98646900D02*
X108279922Y-98646900D01*
X108279922Y-98646900D02*
X108220647Y-98706175D01*
X108220647Y-98706175D02*
X107788643Y-98706175D01*
X107788643Y-98706175D02*
X107729368Y-98646900D01*
X114000000Y-100000000D02*
X114000000Y-99050000D01*
X114000000Y-99050000D02*
X113596900Y-98646900D01*
X107729368Y-98646900D02*
X103780785Y-98646900D01*
X103469999Y-98336114D02*
X103469999Y-93496071D01*
X103970017Y-92996053D02*
X104170016Y-92796054D01*
X102122388Y-95172388D02*
X102122388Y-95504016D01*
X100000000Y-94000000D02*
X100950000Y-94000000D01*
X102122388Y-95504016D02*
X102122388Y-95786858D01*
X100950000Y-94000000D02*
X102122388Y-95172388D01*
X111273521Y-93775598D02*
X110749108Y-94300011D01*
X104201027Y-95814386D02*
X104001028Y-96014385D01*
X105715402Y-94300011D02*
X104201027Y-95814386D01*
X110749108Y-94300011D02*
X105715402Y-94300011D01*
X111273521Y-93492756D02*
X111273521Y-93775598D01*
X118000000Y-94000000D02*
X115979618Y-94000000D01*
X115979618Y-94000000D02*
X115970011Y-94009607D01*
X114420000Y-87332842D02*
X114420000Y-87050000D01*
X116405996Y-90000000D02*
X114420000Y-88014004D01*
X114420000Y-88014004D02*
X114420000Y-87332842D01*
X118000000Y-90000000D02*
X116405996Y-90000000D01*
X104000000Y-100000000D02*
X104000000Y-99050000D01*
X104220000Y-85050002D02*
X104220000Y-82947764D01*
X104220000Y-82947764D02*
X103272236Y-82000000D01*
X103272236Y-82000000D02*
X100000000Y-82000000D01*
X106590866Y-93249991D02*
X106790865Y-93449990D01*
X103291037Y-90926047D02*
X105214978Y-92849988D01*
X103291037Y-87892303D02*
X103291037Y-90926047D01*
X106190863Y-92849988D02*
X106590866Y-93249991D01*
X103970147Y-87213193D02*
X103291037Y-87892303D01*
X105214978Y-92849988D02*
X106190863Y-92849988D01*
X108000000Y-100000000D02*
X108000000Y-99524990D01*
X112064389Y-94668930D02*
X106126621Y-94668930D01*
X104995539Y-95800012D02*
X104795540Y-96000011D01*
X112870000Y-90750000D02*
X112870000Y-93863319D01*
X112870000Y-93863319D02*
X112064389Y-94668930D01*
X106126621Y-94668930D02*
X104995539Y-95800012D01*
X101494365Y-97455635D02*
X101494365Y-96208406D01*
X101494365Y-96208406D02*
X101494365Y-95925564D01*
X100000000Y-98000000D02*
X100950000Y-98000000D01*
X100950000Y-98000000D02*
X101494365Y-97455635D01*
X113469999Y-93912659D02*
X112351420Y-95031238D01*
X112351420Y-95031238D02*
X106416500Y-95031238D01*
X113469999Y-90499999D02*
X113469999Y-93912659D01*
X104950414Y-96497324D02*
X104801829Y-96497324D01*
X106416500Y-95031238D02*
X104950414Y-96497324D01*
X104801829Y-96497324D02*
X104518987Y-96497324D01*
X113270000Y-90300000D02*
X113469999Y-90499999D01*
X113370000Y-86600000D02*
X113370000Y-87570002D01*
X113370000Y-87570002D02*
X117799998Y-92000000D01*
X117799998Y-92000000D02*
X118000000Y-92000000D01*
X111370000Y-84700000D02*
X111370000Y-85081410D01*
X111370000Y-85081410D02*
X110101399Y-86350011D01*
X110101399Y-86350011D02*
X102879812Y-86350011D01*
X102879812Y-86350011D02*
X101820001Y-87409822D01*
X101820001Y-87409822D02*
X101820001Y-87833997D01*
X101820001Y-87833997D02*
X101250001Y-88403997D01*
X101250001Y-88403997D02*
X101250001Y-89503995D01*
X101250001Y-89503995D02*
X100753996Y-90000000D01*
X100753996Y-90000000D02*
X100000000Y-90000000D01*
X101050015Y-85899985D02*
X102438865Y-85899985D01*
X102438865Y-85899985D02*
X102538880Y-86000000D01*
X109539765Y-86000000D02*
X110574028Y-84965737D01*
X110574028Y-84965737D02*
X110774027Y-84765738D01*
X102538880Y-86000000D02*
X109539765Y-86000000D01*
X100950000Y-86000000D02*
X101050015Y-85899985D01*
X100000000Y-86000000D02*
X100950000Y-86000000D01*
X110366276Y-84396629D02*
X110566275Y-84196630D01*
X111559401Y-84196630D02*
X112011818Y-84649047D01*
X110566275Y-84196630D02*
X111559401Y-84196630D01*
X112011818Y-84649047D02*
X112011818Y-85251228D01*
X112011818Y-85251228D02*
X110500051Y-86762995D01*
X110500051Y-86762995D02*
X104798997Y-86762995D01*
X104798997Y-86762995D02*
X104786001Y-86749999D01*
X104786001Y-86749999D02*
X103189250Y-86749999D01*
X103189250Y-86749999D02*
X102670001Y-87269248D01*
X102670001Y-87269248D02*
X102670001Y-89633997D01*
X102670001Y-89633997D02*
X100303998Y-92000000D01*
X100303998Y-92000000D02*
X100000000Y-92000000D01*
X101450643Y-87113180D02*
X101450643Y-86830338D01*
X100950000Y-88000000D02*
X101450643Y-87499357D01*
X101450643Y-87499357D02*
X101450643Y-87113180D01*
X100000000Y-88000000D02*
X100950000Y-88000000D01*
X102057967Y-85519837D02*
X101857968Y-85319838D01*
X108800163Y-85519837D02*
X102057967Y-85519837D01*
X109720000Y-84600000D02*
X108800163Y-85519837D01*
X108475709Y-84225984D02*
X108275710Y-84425983D01*
X109081832Y-83619861D02*
X108475709Y-84225984D01*
X114480841Y-83619861D02*
X109081832Y-83619861D01*
X118000000Y-82000000D02*
X116100702Y-82000000D01*
X116100702Y-82000000D02*
X114480841Y-83619861D01*
X108694521Y-83269850D02*
X108376358Y-83588013D01*
X117605712Y-80000000D02*
X114335862Y-83269850D01*
X118000000Y-80000000D02*
X117605712Y-80000000D01*
X114335862Y-83269850D02*
X108694521Y-83269850D01*
X108376358Y-83588013D02*
X108176359Y-83788012D01*
X105212625Y-96988623D02*
X105212625Y-97106102D01*
X106720000Y-95481248D02*
X105212625Y-96988623D01*
X104520000Y-87324186D02*
X103641048Y-88203138D01*
X103641048Y-88203138D02*
X103641048Y-90781068D01*
X106617284Y-92499978D02*
X107293823Y-93176517D01*
X107293823Y-93176517D02*
X107493822Y-93376516D01*
X105359958Y-92499978D02*
X106617284Y-92499978D01*
X104520000Y-87200000D02*
X104520000Y-87324186D01*
X103641048Y-90781068D02*
X105359958Y-92499978D01*
X112820000Y-97267158D02*
X112820000Y-97550000D01*
X111052842Y-95500000D02*
X112820000Y-97267158D01*
X110620000Y-95500000D02*
X111052842Y-95500000D01*
X104720000Y-93000000D02*
X105639074Y-93919074D01*
X105639074Y-93919074D02*
X110300926Y-93919074D01*
X110300926Y-93919074D02*
X110320001Y-93899999D01*
X110320001Y-93899999D02*
X110520000Y-93700000D01*
D18*
G36*
X102914037Y-90926047D02*
X102942734Y-91070319D01*
X103024458Y-91192626D01*
X104150868Y-92319037D01*
X104075551Y-92318971D01*
X103900170Y-92391437D01*
X103765871Y-92525502D01*
X103693099Y-92700757D01*
X103693065Y-92739847D01*
X103203420Y-93229492D01*
X103121696Y-93351799D01*
X103092999Y-93496071D01*
X103092999Y-98336114D01*
X103121696Y-98480386D01*
X103203420Y-98602693D01*
X103318301Y-98717574D01*
X103250000Y-98717574D01*
X103147350Y-98736889D01*
X103053073Y-98797555D01*
X102989825Y-98890120D01*
X102967574Y-99000000D01*
X102967574Y-99673000D01*
X100327000Y-99673000D01*
X100327000Y-99032426D01*
X101000000Y-99032426D01*
X101102650Y-99013111D01*
X101196927Y-98952445D01*
X101260175Y-98859880D01*
X101282426Y-98750000D01*
X101282426Y-98200732D01*
X101760944Y-97722215D01*
X101842668Y-97599907D01*
X101852595Y-97550000D01*
X101871365Y-97455635D01*
X101871365Y-96223214D01*
X101888416Y-96206192D01*
X102027091Y-96263775D01*
X102216853Y-96263941D01*
X102392234Y-96191475D01*
X102526533Y-96057410D01*
X102599305Y-95882155D01*
X102599471Y-95692393D01*
X102527005Y-95517012D01*
X102499388Y-95489347D01*
X102499388Y-95172388D01*
X102470691Y-95028116D01*
X102388967Y-94905809D01*
X101282426Y-93799268D01*
X101282426Y-93250000D01*
X101263111Y-93147350D01*
X101202445Y-93053073D01*
X101123924Y-92999421D01*
X101196927Y-92952445D01*
X101260175Y-92859880D01*
X101282426Y-92750000D01*
X101282426Y-91554730D01*
X102914037Y-89923120D01*
X102914037Y-90926047D01*
X102914037Y-90926047D01*
G37*
X102914037Y-90926047D02*
X102942734Y-91070319D01*
X103024458Y-91192626D01*
X104150868Y-92319037D01*
X104075551Y-92318971D01*
X103900170Y-92391437D01*
X103765871Y-92525502D01*
X103693099Y-92700757D01*
X103693065Y-92739847D01*
X103203420Y-93229492D01*
X103121696Y-93351799D01*
X103092999Y-93496071D01*
X103092999Y-98336114D01*
X103121696Y-98480386D01*
X103203420Y-98602693D01*
X103318301Y-98717574D01*
X103250000Y-98717574D01*
X103147350Y-98736889D01*
X103053073Y-98797555D01*
X102989825Y-98890120D01*
X102967574Y-99000000D01*
X102967574Y-99673000D01*
X100327000Y-99673000D01*
X100327000Y-99032426D01*
X101000000Y-99032426D01*
X101102650Y-99013111D01*
X101196927Y-98952445D01*
X101260175Y-98859880D01*
X101282426Y-98750000D01*
X101282426Y-98200732D01*
X101760944Y-97722215D01*
X101842668Y-97599907D01*
X101852595Y-97550000D01*
X101871365Y-97455635D01*
X101871365Y-96223214D01*
X101888416Y-96206192D01*
X102027091Y-96263775D01*
X102216853Y-96263941D01*
X102392234Y-96191475D01*
X102526533Y-96057410D01*
X102599305Y-95882155D01*
X102599471Y-95692393D01*
X102527005Y-95517012D01*
X102499388Y-95489347D01*
X102499388Y-95172388D01*
X102470691Y-95028116D01*
X102388967Y-94905809D01*
X101282426Y-93799268D01*
X101282426Y-93250000D01*
X101263111Y-93147350D01*
X101202445Y-93053073D01*
X101123924Y-92999421D01*
X101196927Y-92952445D01*
X101260175Y-92859880D01*
X101282426Y-92750000D01*
X101282426Y-91554730D01*
X102914037Y-89923120D01*
X102914037Y-90926047D01*
G36*
X116717574Y-94750000D02*
X116736889Y-94852650D01*
X116797555Y-94946927D01*
X116876076Y-95000579D01*
X116803073Y-95047555D01*
X116739825Y-95140120D01*
X116717574Y-95250000D01*
X116717574Y-96679666D01*
X116640302Y-96711673D01*
X116461673Y-96890301D01*
X116365000Y-97123690D01*
X116365000Y-97714250D01*
X116523750Y-97873000D01*
X117673000Y-97873000D01*
X117673000Y-98127000D01*
X116523750Y-98127000D01*
X116365000Y-98285750D01*
X116365000Y-98876310D01*
X116461673Y-99109699D01*
X116640302Y-99288327D01*
X116873691Y-99385000D01*
X117673000Y-99385000D01*
X117673000Y-99673000D01*
X115032426Y-99673000D01*
X115032426Y-99000000D01*
X115028645Y-98979905D01*
X115089846Y-98954617D01*
X115224145Y-98820552D01*
X115296917Y-98645297D01*
X115296951Y-98606207D01*
X115786580Y-98116578D01*
X115868304Y-97994271D01*
X115897001Y-97849999D01*
X115897001Y-94486543D01*
X116064476Y-94486690D01*
X116239857Y-94414224D01*
X116277146Y-94377000D01*
X116717574Y-94377000D01*
X116717574Y-94750000D01*
X116717574Y-94750000D01*
G37*
X116717574Y-94750000D02*
X116736889Y-94852650D01*
X116797555Y-94946927D01*
X116876076Y-95000579D01*
X116803073Y-95047555D01*
X116739825Y-95140120D01*
X116717574Y-95250000D01*
X116717574Y-96679666D01*
X116640302Y-96711673D01*
X116461673Y-96890301D01*
X116365000Y-97123690D01*
X116365000Y-97714250D01*
X116523750Y-97873000D01*
X117673000Y-97873000D01*
X117673000Y-98127000D01*
X116523750Y-98127000D01*
X116365000Y-98285750D01*
X116365000Y-98876310D01*
X116461673Y-99109699D01*
X116640302Y-99288327D01*
X116873691Y-99385000D01*
X117673000Y-99385000D01*
X117673000Y-99673000D01*
X115032426Y-99673000D01*
X115032426Y-99000000D01*
X115028645Y-98979905D01*
X115089846Y-98954617D01*
X115224145Y-98820552D01*
X115296917Y-98645297D01*
X115296951Y-98606207D01*
X115786580Y-98116578D01*
X115868304Y-97994271D01*
X115897001Y-97849999D01*
X115897001Y-94486543D01*
X116064476Y-94486690D01*
X116239857Y-94414224D01*
X116277146Y-94377000D01*
X116717574Y-94377000D01*
X116717574Y-94750000D01*
G36*
X112156742Y-98269900D02*
X108279922Y-98269900D01*
X108135650Y-98298597D01*
X108089887Y-98329175D01*
X107919403Y-98329175D01*
X107873640Y-98298597D01*
X107729368Y-98269900D01*
X104766100Y-98269900D01*
X104909001Y-98127000D01*
X105870000Y-98127000D01*
X106014272Y-98098303D01*
X106136579Y-98016579D01*
X106226158Y-97927000D01*
X111813842Y-97927000D01*
X112156742Y-98269900D01*
X112156742Y-98269900D01*
G37*
X112156742Y-98269900D02*
X108279922Y-98269900D01*
X108135650Y-98298597D01*
X108089887Y-98329175D01*
X107919403Y-98329175D01*
X107873640Y-98298597D01*
X107729368Y-98269900D01*
X104766100Y-98269900D01*
X104909001Y-98127000D01*
X105870000Y-98127000D01*
X106014272Y-98098303D01*
X106136579Y-98016579D01*
X106226158Y-97927000D01*
X111813842Y-97927000D01*
X112156742Y-98269900D01*
G36*
X116717574Y-82750000D02*
X116736889Y-82852650D01*
X116797555Y-82946927D01*
X116876076Y-83000579D01*
X116803073Y-83047555D01*
X116739825Y-83140120D01*
X116717574Y-83250000D01*
X116717574Y-84750000D01*
X116736889Y-84852650D01*
X116797555Y-84946927D01*
X116876076Y-85000579D01*
X116803073Y-85047555D01*
X116739825Y-85140120D01*
X116717574Y-85250000D01*
X116717574Y-86750000D01*
X116736889Y-86852650D01*
X116797555Y-86946927D01*
X116876076Y-87000579D01*
X116803073Y-87047555D01*
X116739825Y-87140120D01*
X116717574Y-87250000D01*
X116717574Y-88681642D01*
X116597271Y-88561129D01*
X116385276Y-88473100D01*
X116367665Y-88473085D01*
X115897000Y-88002420D01*
X115897000Y-86989121D01*
X115908871Y-86977271D01*
X115996900Y-86765276D01*
X115997100Y-86535731D01*
X115909442Y-86323583D01*
X115747271Y-86161129D01*
X115535276Y-86073100D01*
X115305731Y-86072900D01*
X115093583Y-86160558D01*
X114931129Y-86322729D01*
X114843100Y-86534724D01*
X114842900Y-86764269D01*
X114930558Y-86976417D01*
X114943000Y-86988881D01*
X114943000Y-88003846D01*
X114797000Y-87857846D01*
X114797000Y-87347650D01*
X114824145Y-87320552D01*
X114896917Y-87145297D01*
X114897083Y-86955535D01*
X114824617Y-86780154D01*
X114690552Y-86645855D01*
X114515297Y-86573083D01*
X114325535Y-86572917D01*
X114150154Y-86645383D01*
X114015855Y-86779448D01*
X113943083Y-86954703D01*
X113942917Y-87144465D01*
X114015383Y-87319846D01*
X114043000Y-87347511D01*
X114043000Y-87709844D01*
X113747000Y-87413844D01*
X113747000Y-86897650D01*
X113774145Y-86870552D01*
X113846917Y-86695297D01*
X113847083Y-86505535D01*
X113774617Y-86330154D01*
X113640552Y-86195855D01*
X113465297Y-86123083D01*
X113275535Y-86122917D01*
X113100154Y-86195383D01*
X112965855Y-86329448D01*
X112893083Y-86504703D01*
X112892917Y-86694465D01*
X112965383Y-86869846D01*
X112993000Y-86897511D01*
X112993000Y-87570002D01*
X113021697Y-87714274D01*
X113103421Y-87836581D01*
X116717574Y-91450734D01*
X116717574Y-92750000D01*
X116736889Y-92852650D01*
X116797555Y-92946927D01*
X116876076Y-93000579D01*
X116803073Y-93047555D01*
X116739825Y-93140120D01*
X116717574Y-93250000D01*
X116717574Y-93623000D01*
X116258070Y-93623000D01*
X116240563Y-93605462D01*
X116065308Y-93532690D01*
X115897001Y-93532543D01*
X115897001Y-92377068D01*
X115934269Y-92377100D01*
X116146417Y-92289442D01*
X116308871Y-92127271D01*
X116396900Y-91915276D01*
X116397100Y-91685731D01*
X116309442Y-91473583D01*
X116147271Y-91311129D01*
X115935276Y-91223100D01*
X115705731Y-91222900D01*
X115493583Y-91310558D01*
X115331129Y-91472729D01*
X115243100Y-91684724D01*
X115242957Y-91849082D01*
X115171698Y-91955727D01*
X115143001Y-92099999D01*
X115143001Y-97693841D01*
X114820000Y-98016842D01*
X114736579Y-97933421D01*
X114614272Y-97851697D01*
X114470000Y-97823000D01*
X113221693Y-97823000D01*
X113224145Y-97820552D01*
X113296917Y-97645297D01*
X113297083Y-97455535D01*
X113224617Y-97280154D01*
X113193356Y-97248839D01*
X113168303Y-97122886D01*
X113086579Y-97000579D01*
X111494238Y-95408238D01*
X112351420Y-95408238D01*
X112495692Y-95379541D01*
X112617999Y-95297817D01*
X113736579Y-94179238D01*
X113786803Y-94104072D01*
X113818302Y-94056931D01*
X113846999Y-93912659D01*
X113846999Y-90499999D01*
X113818302Y-90355727D01*
X113747045Y-90249085D01*
X113747083Y-90205535D01*
X113674617Y-90030154D01*
X113540552Y-89895855D01*
X113365297Y-89823083D01*
X113175535Y-89822917D01*
X113000154Y-89895383D01*
X112865855Y-90029448D01*
X112793083Y-90204703D01*
X112793023Y-90272932D01*
X112775535Y-90272917D01*
X112600154Y-90345383D01*
X112465855Y-90479448D01*
X112393083Y-90654703D01*
X112392917Y-90844465D01*
X112465383Y-91019846D01*
X112493000Y-91047511D01*
X112493000Y-91673839D01*
X108655308Y-87836148D01*
X108533001Y-87754424D01*
X108388729Y-87725727D01*
X104722377Y-87725727D01*
X104695279Y-87698582D01*
X104683608Y-87693736D01*
X104760673Y-87616671D01*
X104789846Y-87604617D01*
X104924145Y-87470552D01*
X104996917Y-87295297D01*
X104997053Y-87139995D01*
X110500051Y-87139995D01*
X110644323Y-87111298D01*
X110766630Y-87029574D01*
X112278397Y-85517808D01*
X112360121Y-85395500D01*
X112375028Y-85320554D01*
X112388818Y-85251228D01*
X112388818Y-84649047D01*
X112360121Y-84504775D01*
X112278397Y-84382468D01*
X111892790Y-83996861D01*
X114480841Y-83996861D01*
X114625113Y-83968164D01*
X114747420Y-83886440D01*
X116256861Y-82377000D01*
X116717574Y-82377000D01*
X116717574Y-82750000D01*
X116717574Y-82750000D01*
G37*
X116717574Y-82750000D02*
X116736889Y-82852650D01*
X116797555Y-82946927D01*
X116876076Y-83000579D01*
X116803073Y-83047555D01*
X116739825Y-83140120D01*
X116717574Y-83250000D01*
X116717574Y-84750000D01*
X116736889Y-84852650D01*
X116797555Y-84946927D01*
X116876076Y-85000579D01*
X116803073Y-85047555D01*
X116739825Y-85140120D01*
X116717574Y-85250000D01*
X116717574Y-86750000D01*
X116736889Y-86852650D01*
X116797555Y-86946927D01*
X116876076Y-87000579D01*
X116803073Y-87047555D01*
X116739825Y-87140120D01*
X116717574Y-87250000D01*
X116717574Y-88681642D01*
X116597271Y-88561129D01*
X116385276Y-88473100D01*
X116367665Y-88473085D01*
X115897000Y-88002420D01*
X115897000Y-86989121D01*
X115908871Y-86977271D01*
X115996900Y-86765276D01*
X115997100Y-86535731D01*
X115909442Y-86323583D01*
X115747271Y-86161129D01*
X115535276Y-86073100D01*
X115305731Y-86072900D01*
X115093583Y-86160558D01*
X114931129Y-86322729D01*
X114843100Y-86534724D01*
X114842900Y-86764269D01*
X114930558Y-86976417D01*
X114943000Y-86988881D01*
X114943000Y-88003846D01*
X114797000Y-87857846D01*
X114797000Y-87347650D01*
X114824145Y-87320552D01*
X114896917Y-87145297D01*
X114897083Y-86955535D01*
X114824617Y-86780154D01*
X114690552Y-86645855D01*
X114515297Y-86573083D01*
X114325535Y-86572917D01*
X114150154Y-86645383D01*
X114015855Y-86779448D01*
X113943083Y-86954703D01*
X113942917Y-87144465D01*
X114015383Y-87319846D01*
X114043000Y-87347511D01*
X114043000Y-87709844D01*
X113747000Y-87413844D01*
X113747000Y-86897650D01*
X113774145Y-86870552D01*
X113846917Y-86695297D01*
X113847083Y-86505535D01*
X113774617Y-86330154D01*
X113640552Y-86195855D01*
X113465297Y-86123083D01*
X113275535Y-86122917D01*
X113100154Y-86195383D01*
X112965855Y-86329448D01*
X112893083Y-86504703D01*
X112892917Y-86694465D01*
X112965383Y-86869846D01*
X112993000Y-86897511D01*
X112993000Y-87570002D01*
X113021697Y-87714274D01*
X113103421Y-87836581D01*
X116717574Y-91450734D01*
X116717574Y-92750000D01*
X116736889Y-92852650D01*
X116797555Y-92946927D01*
X116876076Y-93000579D01*
X116803073Y-93047555D01*
X116739825Y-93140120D01*
X116717574Y-93250000D01*
X116717574Y-93623000D01*
X116258070Y-93623000D01*
X116240563Y-93605462D01*
X116065308Y-93532690D01*
X115897001Y-93532543D01*
X115897001Y-92377068D01*
X115934269Y-92377100D01*
X116146417Y-92289442D01*
X116308871Y-92127271D01*
X116396900Y-91915276D01*
X116397100Y-91685731D01*
X116309442Y-91473583D01*
X116147271Y-91311129D01*
X115935276Y-91223100D01*
X115705731Y-91222900D01*
X115493583Y-91310558D01*
X115331129Y-91472729D01*
X115243100Y-91684724D01*
X115242957Y-91849082D01*
X115171698Y-91955727D01*
X115143001Y-92099999D01*
X115143001Y-97693841D01*
X114820000Y-98016842D01*
X114736579Y-97933421D01*
X114614272Y-97851697D01*
X114470000Y-97823000D01*
X113221693Y-97823000D01*
X113224145Y-97820552D01*
X113296917Y-97645297D01*
X113297083Y-97455535D01*
X113224617Y-97280154D01*
X113193356Y-97248839D01*
X113168303Y-97122886D01*
X113086579Y-97000579D01*
X111494238Y-95408238D01*
X112351420Y-95408238D01*
X112495692Y-95379541D01*
X112617999Y-95297817D01*
X113736579Y-94179238D01*
X113786803Y-94104072D01*
X113818302Y-94056931D01*
X113846999Y-93912659D01*
X113846999Y-90499999D01*
X113818302Y-90355727D01*
X113747045Y-90249085D01*
X113747083Y-90205535D01*
X113674617Y-90030154D01*
X113540552Y-89895855D01*
X113365297Y-89823083D01*
X113175535Y-89822917D01*
X113000154Y-89895383D01*
X112865855Y-90029448D01*
X112793083Y-90204703D01*
X112793023Y-90272932D01*
X112775535Y-90272917D01*
X112600154Y-90345383D01*
X112465855Y-90479448D01*
X112393083Y-90654703D01*
X112392917Y-90844465D01*
X112465383Y-91019846D01*
X112493000Y-91047511D01*
X112493000Y-91673839D01*
X108655308Y-87836148D01*
X108533001Y-87754424D01*
X108388729Y-87725727D01*
X104722377Y-87725727D01*
X104695279Y-87698582D01*
X104683608Y-87693736D01*
X104760673Y-87616671D01*
X104789846Y-87604617D01*
X104924145Y-87470552D01*
X104996917Y-87295297D01*
X104997053Y-87139995D01*
X110500051Y-87139995D01*
X110644323Y-87111298D01*
X110766630Y-87029574D01*
X112278397Y-85517808D01*
X112360121Y-85395500D01*
X112375028Y-85320554D01*
X112388818Y-85251228D01*
X112388818Y-84649047D01*
X112360121Y-84504775D01*
X112278397Y-84382468D01*
X111892790Y-83996861D01*
X114480841Y-83996861D01*
X114625113Y-83968164D01*
X114747420Y-83886440D01*
X116256861Y-82377000D01*
X116717574Y-82377000D01*
X116717574Y-82750000D01*
G36*
X111124894Y-93038052D02*
X111003675Y-93088139D01*
X110869376Y-93222204D01*
X110824622Y-93329984D01*
X110790552Y-93295855D01*
X110615297Y-93223083D01*
X110425535Y-93222917D01*
X110250154Y-93295383D01*
X110115855Y-93429448D01*
X110069089Y-93542074D01*
X107941564Y-93542074D01*
X107970739Y-93471813D01*
X107970905Y-93282051D01*
X107898439Y-93106670D01*
X107764374Y-92972371D01*
X107589119Y-92899599D01*
X107550030Y-92899565D01*
X106883863Y-92233399D01*
X106761556Y-92151675D01*
X106617284Y-92122978D01*
X105516116Y-92122978D01*
X104593804Y-91200666D01*
X104617511Y-91177000D01*
X109263842Y-91177000D01*
X111124894Y-93038052D01*
X111124894Y-93038052D01*
G37*
X111124894Y-93038052D02*
X111003675Y-93088139D01*
X110869376Y-93222204D01*
X110824622Y-93329984D01*
X110790552Y-93295855D01*
X110615297Y-93223083D01*
X110425535Y-93222917D01*
X110250154Y-93295383D01*
X110115855Y-93429448D01*
X110069089Y-93542074D01*
X107941564Y-93542074D01*
X107970739Y-93471813D01*
X107970905Y-93282051D01*
X107898439Y-93106670D01*
X107764374Y-92972371D01*
X107589119Y-92899599D01*
X107550030Y-92899565D01*
X106883863Y-92233399D01*
X106761556Y-92151675D01*
X106617284Y-92122978D01*
X105516116Y-92122978D01*
X104593804Y-91200666D01*
X104617511Y-91177000D01*
X109263842Y-91177000D01*
X111124894Y-93038052D01*
G36*
X102293001Y-89477838D02*
X101282426Y-90488413D01*
X101282426Y-90004728D01*
X101516580Y-89770574D01*
X101598304Y-89648267D01*
X101627001Y-89503995D01*
X101627001Y-88560155D01*
X102086580Y-88100576D01*
X102168304Y-87978269D01*
X102197001Y-87833997D01*
X102197001Y-87565980D01*
X102293001Y-87469980D01*
X102293001Y-89477838D01*
X102293001Y-89477838D01*
G37*
X102293001Y-89477838D02*
X101282426Y-90488413D01*
X101282426Y-90004728D01*
X101516580Y-89770574D01*
X101598304Y-89648267D01*
X101627001Y-89503995D01*
X101627001Y-88560155D01*
X102086580Y-88100576D01*
X102168304Y-87978269D01*
X102197001Y-87833997D01*
X102197001Y-87565980D01*
X102293001Y-87469980D01*
X102293001Y-89477838D01*
G36*
X104020110Y-88372573D02*
X104154175Y-88506872D01*
X104329430Y-88579644D01*
X104519192Y-88579810D01*
X104694573Y-88507344D01*
X104722238Y-88479727D01*
X108232571Y-88479727D01*
X109652124Y-89899281D01*
X109520000Y-89873000D01*
X104617650Y-89873000D01*
X104590552Y-89845855D01*
X104415297Y-89773083D01*
X104225535Y-89772917D01*
X104050154Y-89845383D01*
X104018048Y-89877433D01*
X104018048Y-88367583D01*
X104020110Y-88372573D01*
X104020110Y-88372573D01*
G37*
X104020110Y-88372573D02*
X104154175Y-88506872D01*
X104329430Y-88579644D01*
X104519192Y-88579810D01*
X104694573Y-88507344D01*
X104722238Y-88479727D01*
X108232571Y-88479727D01*
X109652124Y-89899281D01*
X109520000Y-89873000D01*
X104617650Y-89873000D01*
X104590552Y-89845855D01*
X104415297Y-89773083D01*
X104225535Y-89772917D01*
X104050154Y-89845383D01*
X104018048Y-89877433D01*
X104018048Y-88367583D01*
X104020110Y-88372573D01*
G36*
X103982710Y-80887290D02*
X104137459Y-80990691D01*
X104320000Y-81027000D01*
X106840879Y-81027000D01*
X106852729Y-81038871D01*
X107064724Y-81126900D01*
X107294269Y-81127100D01*
X107506417Y-81039442D01*
X107518881Y-81027000D01*
X115870000Y-81027000D01*
X116052540Y-80990691D01*
X116140910Y-80931644D01*
X114179704Y-82892850D01*
X108694521Y-82892850D01*
X108550249Y-82921547D01*
X108427941Y-83003271D01*
X108120250Y-83310963D01*
X108081894Y-83310929D01*
X107906513Y-83383395D01*
X107772214Y-83517460D01*
X107699442Y-83692715D01*
X107699276Y-83882477D01*
X107771742Y-84057858D01*
X107870854Y-84157143D01*
X107798793Y-84330686D01*
X107798627Y-84520448D01*
X107871093Y-84695829D01*
X108005158Y-84830128D01*
X108180413Y-84902900D01*
X108370175Y-84903066D01*
X108545556Y-84830600D01*
X108679855Y-84696535D01*
X108752627Y-84521280D01*
X108752661Y-84482190D01*
X109237991Y-83996861D01*
X110091573Y-83996861D01*
X109962131Y-84126077D01*
X109941597Y-84175527D01*
X109815297Y-84123083D01*
X109625535Y-84122917D01*
X109450154Y-84195383D01*
X109315855Y-84329448D01*
X109243083Y-84504703D01*
X109243049Y-84543793D01*
X108644005Y-85142837D01*
X104696919Y-85142837D01*
X104697083Y-84955537D01*
X104624617Y-84780156D01*
X104597000Y-84752491D01*
X104597000Y-82947764D01*
X104568303Y-82803492D01*
X104486579Y-82681185D01*
X103538815Y-81733421D01*
X103416508Y-81651697D01*
X103272236Y-81623000D01*
X101282426Y-81623000D01*
X101282426Y-81250000D01*
X101263111Y-81147350D01*
X101202445Y-81053073D01*
X101123924Y-80999421D01*
X101196927Y-80952445D01*
X101260175Y-80859880D01*
X101282426Y-80750000D01*
X101282426Y-80477000D01*
X103572420Y-80477000D01*
X103982710Y-80887290D01*
X103982710Y-80887290D01*
G37*
X103982710Y-80887290D02*
X104137459Y-80990691D01*
X104320000Y-81027000D01*
X106840879Y-81027000D01*
X106852729Y-81038871D01*
X107064724Y-81126900D01*
X107294269Y-81127100D01*
X107506417Y-81039442D01*
X107518881Y-81027000D01*
X115870000Y-81027000D01*
X116052540Y-80990691D01*
X116140910Y-80931644D01*
X114179704Y-82892850D01*
X108694521Y-82892850D01*
X108550249Y-82921547D01*
X108427941Y-83003271D01*
X108120250Y-83310963D01*
X108081894Y-83310929D01*
X107906513Y-83383395D01*
X107772214Y-83517460D01*
X107699442Y-83692715D01*
X107699276Y-83882477D01*
X107771742Y-84057858D01*
X107870854Y-84157143D01*
X107798793Y-84330686D01*
X107798627Y-84520448D01*
X107871093Y-84695829D01*
X108005158Y-84830128D01*
X108180413Y-84902900D01*
X108370175Y-84903066D01*
X108545556Y-84830600D01*
X108679855Y-84696535D01*
X108752627Y-84521280D01*
X108752661Y-84482190D01*
X109237991Y-83996861D01*
X110091573Y-83996861D01*
X109962131Y-84126077D01*
X109941597Y-84175527D01*
X109815297Y-84123083D01*
X109625535Y-84122917D01*
X109450154Y-84195383D01*
X109315855Y-84329448D01*
X109243083Y-84504703D01*
X109243049Y-84543793D01*
X108644005Y-85142837D01*
X104696919Y-85142837D01*
X104697083Y-84955537D01*
X104624617Y-84780156D01*
X104597000Y-84752491D01*
X104597000Y-82947764D01*
X104568303Y-82803492D01*
X104486579Y-82681185D01*
X103538815Y-81733421D01*
X103416508Y-81651697D01*
X103272236Y-81623000D01*
X101282426Y-81623000D01*
X101282426Y-81250000D01*
X101263111Y-81147350D01*
X101202445Y-81053073D01*
X101123924Y-80999421D01*
X101196927Y-80952445D01*
X101260175Y-80859880D01*
X101282426Y-80750000D01*
X101282426Y-80477000D01*
X103572420Y-80477000D01*
X103982710Y-80887290D01*
G36*
X105127000Y-79476250D02*
X105285750Y-79635000D01*
X105876310Y-79635000D01*
X106109699Y-79538327D01*
X106288327Y-79359698D01*
X106320334Y-79282426D01*
X107750000Y-79282426D01*
X107852650Y-79263111D01*
X107946927Y-79202445D01*
X108000579Y-79123924D01*
X108047555Y-79196927D01*
X108140120Y-79260175D01*
X108250000Y-79282426D01*
X109750000Y-79282426D01*
X109852650Y-79263111D01*
X109946927Y-79202445D01*
X110000579Y-79123924D01*
X110047555Y-79196927D01*
X110140120Y-79260175D01*
X110250000Y-79282426D01*
X111750000Y-79282426D01*
X111852650Y-79263111D01*
X111946927Y-79202445D01*
X112000579Y-79123924D01*
X112047555Y-79196927D01*
X112140120Y-79260175D01*
X112250000Y-79282426D01*
X113750000Y-79282426D01*
X113852650Y-79263111D01*
X113946927Y-79202445D01*
X114010175Y-79109880D01*
X114032426Y-79000000D01*
X114032426Y-78327000D01*
X117673000Y-78327000D01*
X117673000Y-78967574D01*
X117000000Y-78967574D01*
X116897350Y-78986889D01*
X116803073Y-79047555D01*
X116739825Y-79140120D01*
X116717574Y-79250000D01*
X116717574Y-79781642D01*
X116597271Y-79661129D01*
X116385276Y-79573100D01*
X116155731Y-79572900D01*
X115943583Y-79660558D01*
X115781129Y-79822729D01*
X115693100Y-80034724D01*
X115693085Y-80052335D01*
X115672420Y-80073000D01*
X107519121Y-80073000D01*
X107507271Y-80061129D01*
X107295276Y-79973100D01*
X107065731Y-79972900D01*
X106853583Y-80060558D01*
X106841119Y-80073000D01*
X104517580Y-80073000D01*
X104107290Y-79662710D01*
X103971433Y-79571933D01*
X104123690Y-79635000D01*
X104714250Y-79635000D01*
X104873000Y-79476250D01*
X104873000Y-78327000D01*
X105127000Y-78327000D01*
X105127000Y-79476250D01*
X105127000Y-79476250D01*
G37*
X105127000Y-79476250D02*
X105285750Y-79635000D01*
X105876310Y-79635000D01*
X106109699Y-79538327D01*
X106288327Y-79359698D01*
X106320334Y-79282426D01*
X107750000Y-79282426D01*
X107852650Y-79263111D01*
X107946927Y-79202445D01*
X108000579Y-79123924D01*
X108047555Y-79196927D01*
X108140120Y-79260175D01*
X108250000Y-79282426D01*
X109750000Y-79282426D01*
X109852650Y-79263111D01*
X109946927Y-79202445D01*
X110000579Y-79123924D01*
X110047555Y-79196927D01*
X110140120Y-79260175D01*
X110250000Y-79282426D01*
X111750000Y-79282426D01*
X111852650Y-79263111D01*
X111946927Y-79202445D01*
X112000579Y-79123924D01*
X112047555Y-79196927D01*
X112140120Y-79260175D01*
X112250000Y-79282426D01*
X113750000Y-79282426D01*
X113852650Y-79263111D01*
X113946927Y-79202445D01*
X114010175Y-79109880D01*
X114032426Y-79000000D01*
X114032426Y-78327000D01*
X117673000Y-78327000D01*
X117673000Y-78967574D01*
X117000000Y-78967574D01*
X116897350Y-78986889D01*
X116803073Y-79047555D01*
X116739825Y-79140120D01*
X116717574Y-79250000D01*
X116717574Y-79781642D01*
X116597271Y-79661129D01*
X116385276Y-79573100D01*
X116155731Y-79572900D01*
X115943583Y-79660558D01*
X115781129Y-79822729D01*
X115693100Y-80034724D01*
X115693085Y-80052335D01*
X115672420Y-80073000D01*
X107519121Y-80073000D01*
X107507271Y-80061129D01*
X107295276Y-79973100D01*
X107065731Y-79972900D01*
X106853583Y-80060558D01*
X106841119Y-80073000D01*
X104517580Y-80073000D01*
X104107290Y-79662710D01*
X103971433Y-79571933D01*
X104123690Y-79635000D01*
X104714250Y-79635000D01*
X104873000Y-79476250D01*
X104873000Y-78327000D01*
X105127000Y-78327000D01*
X105127000Y-79476250D01*
G36*
X103615000Y-79126309D02*
X103711673Y-79359698D01*
X103890301Y-79538327D01*
X103930254Y-79554876D01*
X103770000Y-79523000D01*
X101282426Y-79523000D01*
X101282426Y-79250000D01*
X101263111Y-79147350D01*
X101202445Y-79053073D01*
X101109880Y-78989825D01*
X101000000Y-78967574D01*
X100327000Y-78967574D01*
X100327000Y-78327000D01*
X103615000Y-78327000D01*
X103615000Y-79126309D01*
X103615000Y-79126309D01*
G37*
X103615000Y-79126309D02*
X103711673Y-79359698D01*
X103890301Y-79538327D01*
X103930254Y-79554876D01*
X103770000Y-79523000D01*
X101282426Y-79523000D01*
X101282426Y-79250000D01*
X101263111Y-79147350D01*
X101202445Y-79053073D01*
X101109880Y-78989825D01*
X101000000Y-78967574D01*
X100327000Y-78967574D01*
X100327000Y-78327000D01*
X103615000Y-78327000D01*
X103615000Y-79126309D01*
M02*
