G04 #@! TF.FileFunction,Soldermask,Bot*
%FSLAX46Y46*%
G04 Gerber Fmt 4.6, Leading zero omitted, Abs format (unit mm)*
G04 Created by KiCad (PCBNEW 4.0.4-stable) date 07/06/18 22:18:52*
%MOMM*%
%LPD*%
G01*
G04 APERTURE LIST*
%ADD10C,0.100000*%
%ADD11R,1.500000X1.500000*%
%ADD12R,2.000000X1.500000*%
%ADD13R,1.500000X2.000000*%
G04 APERTURE END LIST*
D10*
D11*
X100000000Y-90000000D03*
D12*
X100000000Y-90000000D03*
D11*
X100000000Y-88000000D03*
D12*
X100000000Y-88000000D03*
D11*
X100000000Y-86000000D03*
X100000000Y-84000000D03*
D12*
X100000000Y-86000000D03*
X100000000Y-84000000D03*
D11*
X100000000Y-96000000D03*
X100000000Y-94000000D03*
X100000000Y-98000000D03*
X100000000Y-92000000D03*
D12*
X100000000Y-96000000D03*
X100000000Y-92000000D03*
X100000000Y-98000000D03*
X100000000Y-94000000D03*
D11*
X100000000Y-80000000D03*
X100000000Y-82000000D03*
D12*
X100000000Y-82000000D03*
X100000000Y-80000000D03*
D11*
X104000000Y-100000000D03*
D13*
X104000000Y-100000000D03*
D11*
X106000000Y-100000000D03*
D13*
X106000000Y-100000000D03*
D11*
X108000000Y-100000000D03*
X110000000Y-100000000D03*
D13*
X108000000Y-100000000D03*
X110000000Y-100000000D03*
D11*
X114000000Y-100000000D03*
X112000000Y-100000000D03*
D13*
X112000000Y-100000000D03*
X114000000Y-100000000D03*
D11*
X118000000Y-86000000D03*
X118000000Y-84000000D03*
X118000000Y-90000000D03*
X118000000Y-88000000D03*
X118000000Y-80000000D03*
X118000000Y-82000000D03*
X118000000Y-96000000D03*
X118000000Y-94000000D03*
X118000000Y-98000000D03*
X118000000Y-92000000D03*
D12*
X118000000Y-86000000D03*
X118000000Y-84000000D03*
X118000000Y-88000000D03*
X118000000Y-90000000D03*
X118000000Y-82000000D03*
X118000000Y-80000000D03*
X118000000Y-96000000D03*
X118000000Y-98000000D03*
X118000000Y-92000000D03*
X118000000Y-94000000D03*
D11*
X107000000Y-78000000D03*
X109000000Y-78000000D03*
X105000000Y-78000000D03*
X111000000Y-78000000D03*
X113000000Y-78000000D03*
D13*
X107000000Y-78000000D03*
X111000000Y-78000000D03*
X105000000Y-78000000D03*
X109000000Y-78000000D03*
X113000000Y-78000000D03*
M02*
