G04 #@! TF.FileFunction,Legend,Top*
%FSLAX46Y46*%
G04 Gerber Fmt 4.6, Leading zero omitted, Abs format (unit mm)*
G04 Created by KiCad (PCBNEW 4.0.4-stable) date 07/06/18 22:18:52*
%MOMM*%
%LPD*%
G01*
G04 APERTURE LIST*
%ADD10C,0.100000*%
%ADD11C,0.175000*%
%ADD12C,0.150000*%
%ADD13C,0.127000*%
%ADD14C,0.125000*%
G04 APERTURE END LIST*
D10*
D11*
X102461667Y-95916667D02*
X102861667Y-95916667D01*
X102661667Y-96616667D02*
X102661667Y-95916667D01*
X103028333Y-95916667D02*
X103495000Y-96616667D01*
X103495000Y-95916667D02*
X103028333Y-96616667D01*
X114803334Y-96691667D02*
X114570000Y-96358333D01*
X114403334Y-96691667D02*
X114403334Y-95991667D01*
X114670000Y-95991667D01*
X114736667Y-96025000D01*
X114770000Y-96058333D01*
X114803334Y-96125000D01*
X114803334Y-96225000D01*
X114770000Y-96291667D01*
X114736667Y-96325000D01*
X114670000Y-96358333D01*
X114403334Y-96358333D01*
X115036667Y-95991667D02*
X115503334Y-96691667D01*
X115503334Y-95991667D02*
X115036667Y-96691667D01*
D10*
X100000000Y-100000000D02*
X100000000Y-78000000D01*
X118000000Y-100000000D02*
X100000000Y-100000000D01*
X118000000Y-78000000D02*
X118000000Y-100000000D01*
X100000000Y-78000000D02*
X118000000Y-78000000D01*
D12*
X103095000Y-91800000D02*
X103095000Y-92300000D01*
X104045000Y-92300000D02*
X104045000Y-91800000D01*
X102570000Y-90425000D02*
X103070000Y-90425000D01*
X103070000Y-89475000D02*
X102570000Y-89475000D01*
X101795000Y-91800000D02*
X101795000Y-92300000D01*
X102745000Y-92300000D02*
X102745000Y-91800000D01*
X102570000Y-89175000D02*
X103070000Y-89175000D01*
X103070000Y-88225000D02*
X102570000Y-88225000D01*
X111695000Y-80750000D02*
X111695000Y-81250000D01*
X112645000Y-81250000D02*
X112645000Y-80750000D01*
X107945000Y-82400000D02*
X107945000Y-81900000D01*
X106995000Y-81900000D02*
X106995000Y-82400000D01*
X114320000Y-89175000D02*
X113820000Y-89175000D01*
X113820000Y-90125000D02*
X114320000Y-90125000D01*
X103495000Y-83600000D02*
X103495000Y-84100000D01*
X104445000Y-84100000D02*
X104445000Y-83600000D01*
X116300000Y-99350000D02*
X116300000Y-97450000D01*
X115200000Y-99350000D02*
X115200000Y-97450000D01*
X115750000Y-98450000D02*
X115750000Y-98000000D01*
X115500000Y-98500000D02*
X116000000Y-98500000D01*
X115750000Y-98500000D02*
X115500000Y-98250000D01*
X115500000Y-98250000D02*
X116000000Y-98250000D01*
X116000000Y-98250000D02*
X115750000Y-98500000D01*
X102800000Y-99350000D02*
X102800000Y-97450000D01*
X101700000Y-99350000D02*
X101700000Y-97450000D01*
X102250000Y-98450000D02*
X102250000Y-98000000D01*
X102000000Y-98500000D02*
X102500000Y-98500000D01*
X102250000Y-98500000D02*
X102000000Y-98250000D01*
X102000000Y-98250000D02*
X102500000Y-98250000D01*
X102500000Y-98250000D02*
X102250000Y-98500000D01*
X103070000Y-86475000D02*
X102570000Y-86475000D01*
X102570000Y-87525000D02*
X103070000Y-87525000D01*
X114170000Y-96975000D02*
X113670000Y-96975000D01*
X113670000Y-98025000D02*
X114170000Y-98025000D01*
X103820000Y-98025000D02*
X104320000Y-98025000D01*
X104320000Y-96975000D02*
X103820000Y-96975000D01*
X101920000Y-93350000D02*
X105470000Y-93350000D01*
X101820000Y-95350000D02*
X105520000Y-95350000D01*
X114520000Y-82400000D02*
X114520000Y-81100000D01*
X114520000Y-81100000D02*
X115720000Y-81100000D01*
X115720000Y-81100000D02*
X115720000Y-82400000D01*
X115720000Y-82400000D02*
X114520000Y-82400000D01*
X114520000Y-82075000D02*
X115720000Y-82075000D01*
X113120000Y-82400000D02*
X113120000Y-81100000D01*
X113120000Y-81100000D02*
X114320000Y-81100000D01*
X114320000Y-81100000D02*
X114320000Y-82400000D01*
X114320000Y-82400000D02*
X113120000Y-82400000D01*
X113120000Y-82075000D02*
X114320000Y-82075000D01*
X109520000Y-82225000D02*
X109020000Y-82225000D01*
X109020000Y-83175000D02*
X109520000Y-83175000D01*
X113727107Y-95950000D02*
G75*
G03X113727107Y-95950000I-707107J0D01*
G01*
X115252107Y-94200000D02*
G75*
G03X115252107Y-94200000I-707107J0D01*
G01*
X109720000Y-81900000D02*
X108320000Y-81900000D01*
X110320000Y-79900000D02*
X108320000Y-79900000D01*
X109720000Y-81900000D02*
G75*
G03X110320000Y-81900000I300000J0D01*
G01*
X105370000Y-92450000D02*
X104970000Y-92050000D01*
X104970000Y-85750000D02*
X104970000Y-85350000D01*
X104970000Y-85350000D02*
X105370000Y-85350000D01*
X112070000Y-85750000D02*
X112070000Y-85350000D01*
X112070000Y-85350000D02*
X111670000Y-85350000D01*
X112070000Y-92050000D02*
X112070000Y-92450000D01*
X112070000Y-92450000D02*
X111670000Y-92450000D01*
D10*
X110020000Y-97250000D02*
G75*
G03X110020000Y-97250000I-1000000J0D01*
G01*
D13*
X106920000Y-98650000D02*
X106920000Y-95850000D01*
X111120000Y-95850000D02*
X106920000Y-95850000D01*
X111120000Y-98650000D02*
X106920000Y-98650000D01*
X111120000Y-98650000D02*
X111120000Y-95850000D01*
D12*
X103577107Y-80575000D02*
G75*
G03X103577107Y-80575000I-707107J0D01*
G01*
X105652107Y-81750000D02*
G75*
G03X105652107Y-81750000I-707107J0D01*
G01*
X102952107Y-84000000D02*
G75*
G03X102952107Y-84000000I-707107J0D01*
G01*
D14*
X111678334Y-95101190D02*
X111678334Y-95458333D01*
X111654524Y-95529762D01*
X111606905Y-95577381D01*
X111535477Y-95601190D01*
X111487858Y-95601190D01*
X111892619Y-95148810D02*
X111916429Y-95125000D01*
X111964048Y-95101190D01*
X112083095Y-95101190D01*
X112130714Y-95125000D01*
X112154524Y-95148810D01*
X112178333Y-95196429D01*
X112178333Y-95244048D01*
X112154524Y-95315476D01*
X111868810Y-95601190D01*
X112178333Y-95601190D01*
X114878334Y-92851190D02*
X114878334Y-93208333D01*
X114854524Y-93279762D01*
X114806905Y-93327381D01*
X114735477Y-93351190D01*
X114687858Y-93351190D01*
X115330714Y-93017857D02*
X115330714Y-93351190D01*
X115211667Y-92827381D02*
X115092619Y-93184524D01*
X115402143Y-93184524D01*
X103753334Y-79426190D02*
X103753334Y-79783333D01*
X103729524Y-79854762D01*
X103681905Y-79902381D01*
X103610477Y-79926190D01*
X103562858Y-79926190D01*
X104253333Y-79926190D02*
X103967619Y-79926190D01*
X104110476Y-79926190D02*
X104110476Y-79426190D01*
X104062857Y-79497619D01*
X104015238Y-79545238D01*
X103967619Y-79569048D01*
X105453334Y-82551190D02*
X105453334Y-82908333D01*
X105429524Y-82979762D01*
X105381905Y-83027381D01*
X105310477Y-83051190D01*
X105262858Y-83051190D01*
X105643810Y-82551190D02*
X105953333Y-82551190D01*
X105786667Y-82741667D01*
X105858095Y-82741667D01*
X105905714Y-82765476D01*
X105929524Y-82789286D01*
X105953333Y-82836905D01*
X105953333Y-82955952D01*
X105929524Y-83003571D01*
X105905714Y-83027381D01*
X105858095Y-83051190D01*
X105715238Y-83051190D01*
X105667619Y-83027381D01*
X105643810Y-83003571D01*
X102778334Y-82726190D02*
X102778334Y-83083333D01*
X102754524Y-83154762D01*
X102706905Y-83202381D01*
X102635477Y-83226190D01*
X102587858Y-83226190D01*
X103254524Y-82726190D02*
X103016429Y-82726190D01*
X102992619Y-82964286D01*
X103016429Y-82940476D01*
X103064048Y-82916667D01*
X103183095Y-82916667D01*
X103230714Y-82940476D01*
X103254524Y-82964286D01*
X103278333Y-83011905D01*
X103278333Y-83130952D01*
X103254524Y-83178571D01*
X103230714Y-83202381D01*
X103183095Y-83226190D01*
X103064048Y-83226190D01*
X103016429Y-83202381D01*
X102992619Y-83178571D01*
M02*
