M48
;DRILL file {KiCad 4.0.4-stable} date 05/29/18 15:09:25
;FORMAT={-:-/ absolute / inch / decimal}
FMAT,2
INCH,TZ
T1C0.008
T2C0.016
T3C0.031
%
G90
G05
M72
T1
X3.9941Y-3.4185
X3.9988Y-3.5374
X3.9988Y-3.7756
X4.0102Y-3.359
X4.0244Y-3.4685
X4.0264Y-3.5709
X4.0402Y-3.7776
X4.0776Y-3.3484
X4.0933Y-3.4336
X4.0945Y-3.7801
X4.0972Y-3.8642
X4.1012Y-3.6534
X4.1031Y-3.3484
X4.1071Y-3.5531
X4.1071Y-3.5748
X4.1091Y-3.4902
X4.1112Y-3.4686
X4.1149Y-3.7991
X4.115Y-3.4331
X4.1228Y-3.6614
X4.1258Y-3.7795
X4.1422Y-3.8231
X4.2016Y-3.7591
X4.2044Y-3.6791
X4.2291Y-3.2815
X4.232Y-3.6762
X4.2409Y-3.7638
X4.2481Y-3.7946
X4.2486Y-3.8604
X4.2488Y-3.6614
X4.2589Y-3.2987
X4.2628Y-3.3239
X4.2724Y-3.5
X4.3197Y-3.3307
X4.3354Y-3.8602
X4.3451Y-3.3227
X4.3512Y-3.689
X4.3531Y-3.1319
X4.3551Y-3.7598
X4.3612Y-3.3372
X4.3689Y-3.1981
X4.3808Y-3.6808
X4.3846Y-3.3346
X4.4098Y-3.8229
X4.4181Y-3.685
X4.422Y-3.6634
X4.424Y-3.6398
X4.4417Y-3.8406
X4.4437Y-3.5728
X4.4496Y-3.7776
X4.4594Y-3.5551
X4.4634Y-3.4094
X4.5047Y-3.4272
X4.5087Y-3.7421
X4.5205Y-3.8799
X4.5381Y-3.5474
X4.5657Y-3.7012
X4.5756Y-3.7972
X4.5825Y-3.6476
X4.5835Y-3.751
X4.5864Y-3.6024
T2
X4.1346Y-3.1339
X4.174Y-3.3287
X4.2311Y-3.1713
X4.3039Y-3.1319
X4.3512Y-3.2559
X4.5441Y-3.4114
X4.5598Y-3.6142
X4.5776Y-3.1555
X4.5776Y-3.5059
T3
X3.937Y-3.1496
X3.937Y-3.2283
X3.937Y-3.3071
X3.937Y-3.3858
X3.937Y-3.4646
X3.937Y-3.5433
X3.937Y-3.622
X3.937Y-3.7008
X3.937Y-3.7795
X3.937Y-3.8583
X4.0945Y-3.937
X4.1339Y-3.0709
X4.1732Y-3.937
X4.2126Y-3.0709
X4.252Y-3.937
X4.2913Y-3.0709
X4.3307Y-3.937
X4.3701Y-3.0709
X4.4094Y-3.937
X4.4488Y-3.0709
X4.4882Y-3.937
X4.6457Y-3.1496
X4.6457Y-3.2283
X4.6457Y-3.3071
X4.6457Y-3.3858
X4.6457Y-3.4646
X4.6457Y-3.5433
X4.6457Y-3.622
X4.6457Y-3.7008
X4.6457Y-3.7795
X4.6457Y-3.8583
T0
M30
