G04 #@! TF.FileFunction,Copper,L1,Top,Signal*
%FSLAX46Y46*%
G04 Gerber Fmt 4.6, Leading zero omitted, Abs format (unit mm)*
G04 Created by KiCad (PCBNEW 4.0.4-stable) date 05/29/18 15:09:19*
%MOMM*%
%LPD*%
G01*
G04 APERTURE LIST*
%ADD10C,0.100000*%
%ADD11R,1.500000X1.500000*%
%ADD12R,0.500000X0.600000*%
%ADD13R,0.600000X0.500000*%
%ADD14R,0.797560X0.797560*%
%ADD15R,0.700000X1.300000*%
%ADD16R,0.400000X0.600000*%
%ADD17R,1.100000X1.900000*%
%ADD18R,0.500000X0.900000*%
%ADD19R,0.470000X0.400000*%
%ADD20R,0.950000X1.700000*%
%ADD21R,0.300000X0.550000*%
%ADD22R,0.550000X0.300000*%
%ADD23R,5.600000X5.600000*%
%ADD24R,1.000000X1.000000*%
%ADD25C,0.400000*%
%ADD26C,0.600000*%
%ADD27C,0.200000*%
%ADD28C,0.400000*%
%ADD29C,0.254000*%
G04 APERTURE END LIST*
D10*
D11*
X100000000Y-90000000D03*
X100000000Y-88000000D03*
X100000000Y-86000000D03*
X100000000Y-84000000D03*
X100000000Y-96000000D03*
X100000000Y-94000000D03*
X100000000Y-98000000D03*
X100000000Y-92000000D03*
X100000000Y-80000000D03*
X100000000Y-82000000D03*
X104000000Y-100000000D03*
X106000000Y-100000000D03*
X108000000Y-100000000D03*
X110000000Y-100000000D03*
X114000000Y-100000000D03*
X112000000Y-100000000D03*
X118000000Y-86000000D03*
X118000000Y-84000000D03*
X118000000Y-90000000D03*
X118000000Y-88000000D03*
X118000000Y-80000000D03*
X118000000Y-82000000D03*
X118000000Y-96000000D03*
X118000000Y-94000000D03*
X118000000Y-98000000D03*
X118000000Y-92000000D03*
X107000000Y-78000000D03*
X109000000Y-78000000D03*
X105000000Y-78000000D03*
X111000000Y-78000000D03*
X113000000Y-78000000D03*
D12*
X103570000Y-92600000D03*
X103570000Y-91500000D03*
D13*
X103370000Y-89950000D03*
X102270000Y-89950000D03*
D12*
X102270000Y-92600000D03*
X102270000Y-91500000D03*
D13*
X103370000Y-88700000D03*
X102270000Y-88700000D03*
D12*
X112170000Y-81550000D03*
X112170000Y-80450000D03*
X107470000Y-81600000D03*
X107470000Y-82700000D03*
D13*
X113520000Y-89650000D03*
X114620000Y-89650000D03*
D12*
X103970000Y-84400000D03*
X103970000Y-83300000D03*
D14*
X115750000Y-97500700D03*
X115750000Y-98999300D03*
X102250000Y-97500700D03*
X102250000Y-98999300D03*
D15*
X115220000Y-84700000D03*
X113320000Y-84700000D03*
D16*
X102370000Y-87000000D03*
X103270000Y-87000000D03*
X113470000Y-97500000D03*
X114370000Y-97500000D03*
X104520000Y-97500000D03*
X103620000Y-97500000D03*
D17*
X102370000Y-94350000D03*
X104970000Y-94350000D03*
D18*
X115120000Y-83050000D03*
X115120000Y-80450000D03*
X113720000Y-83050000D03*
X113720000Y-80450000D03*
D13*
X108720000Y-82700000D03*
X109820000Y-82700000D03*
D19*
X110235000Y-81550000D03*
X110235000Y-80900000D03*
X110235000Y-80250000D03*
X108405000Y-80250000D03*
X108405000Y-80900000D03*
X108405000Y-81550000D03*
D20*
X109320000Y-80900000D03*
D21*
X105770000Y-92275000D03*
X106270000Y-92275000D03*
X106770000Y-92275000D03*
X107270000Y-92275000D03*
X107770000Y-92275000D03*
X108270000Y-92275000D03*
X108770000Y-92275000D03*
X109270000Y-92275000D03*
X109770000Y-92275000D03*
X110270000Y-92275000D03*
X110770000Y-92275000D03*
X111270000Y-92275000D03*
D22*
X111895000Y-91650000D03*
X111895000Y-91150000D03*
X111895000Y-90650000D03*
X111895000Y-90150000D03*
X111895000Y-89650000D03*
X111895000Y-89150000D03*
X111895000Y-88650000D03*
X111895000Y-88150000D03*
X111895000Y-87650000D03*
X111895000Y-87150000D03*
X111895000Y-86650000D03*
X111895000Y-86150000D03*
D21*
X111270000Y-85525000D03*
X110770000Y-85525000D03*
X110270000Y-85525000D03*
X109770000Y-85525000D03*
X109270000Y-85525000D03*
X108770000Y-85525000D03*
X108270000Y-85525000D03*
X107770000Y-85525000D03*
X107270000Y-85525000D03*
X106770000Y-85525000D03*
X106270000Y-85525000D03*
X105770000Y-85525000D03*
D22*
X105145000Y-86150000D03*
X105145000Y-86650000D03*
X105145000Y-87150000D03*
X105145000Y-87650000D03*
X105145000Y-88150000D03*
X105145000Y-88650000D03*
X105145000Y-89150000D03*
X105145000Y-89650000D03*
X105145000Y-90150000D03*
X105145000Y-90650000D03*
X105145000Y-91150000D03*
X105145000Y-91650000D03*
D23*
X108520000Y-88900000D03*
D24*
X111020000Y-96450000D03*
X107020000Y-98050000D03*
X111020000Y-98050000D03*
X107020000Y-96450000D03*
D25*
X116420000Y-95275000D03*
X116395000Y-92650000D03*
X116495000Y-91500000D03*
X107914719Y-98053846D03*
X101570000Y-89850000D03*
X107920000Y-93000000D03*
D26*
X106020000Y-84550000D03*
X105020000Y-79600000D03*
D25*
X110120000Y-98050000D03*
X104370000Y-88650000D03*
X110969565Y-81231489D03*
X115266793Y-90103207D03*
X110570000Y-79550000D03*
X107420000Y-83350000D03*
X102270000Y-90700000D03*
X102220000Y-88100000D03*
X116220000Y-96450000D03*
D26*
X110520000Y-82700000D03*
X109320000Y-79550000D03*
D25*
X108520000Y-88900000D03*
X107720000Y-95600000D03*
X104070000Y-98150000D03*
X114820000Y-98550000D03*
D26*
X115820000Y-91800000D03*
X116270000Y-89050000D03*
X115420000Y-86650000D03*
X116270000Y-80150000D03*
X107470000Y-80550000D03*
D25*
X114520000Y-95050000D03*
X112320000Y-93050000D03*
X104320000Y-90250000D03*
X112008302Y-97101622D03*
X107901802Y-96381802D03*
X112370000Y-92450000D03*
X104424727Y-88102727D03*
X103570000Y-85050000D03*
X113020000Y-95950000D03*
X112220000Y-93600000D03*
X104320000Y-90800000D03*
X104170016Y-92796054D03*
X104001028Y-96014385D03*
X111273521Y-93492756D03*
X102620000Y-95950000D03*
X115970011Y-94009607D03*
X114420000Y-87050000D03*
X106790865Y-93449990D03*
X103970147Y-87213193D03*
X104220000Y-85050002D03*
X104795540Y-96000011D03*
X112870000Y-90750000D03*
X104518987Y-96497324D03*
X113270000Y-90300000D03*
X101570000Y-95900000D03*
X113370000Y-86600000D03*
X111370000Y-84700000D03*
X110774027Y-84765738D03*
X110366276Y-84396629D03*
X101450643Y-86830338D03*
X101857968Y-85319838D03*
X109720000Y-84600000D03*
X108275710Y-84425983D03*
X108176359Y-83788012D03*
X105212625Y-97106102D03*
X107493822Y-93376516D03*
X106720000Y-95481248D03*
X104520000Y-87200000D03*
X112820000Y-97550000D03*
X110620000Y-95500000D03*
X110520000Y-93700000D03*
X104720000Y-93000000D03*
D27*
X116770000Y-94925000D02*
X116420000Y-95275000D01*
X116770023Y-94925000D02*
X116770000Y-94925000D01*
X116395000Y-92650000D02*
X116395000Y-93273604D01*
X116395000Y-93273604D02*
X116770023Y-93648627D01*
X116770023Y-93648627D02*
X116770023Y-94925000D01*
X116495000Y-91500000D02*
X116495000Y-92550000D01*
X116495000Y-92550000D02*
X116395000Y-92650000D01*
X107910873Y-98050000D02*
X107914719Y-98053846D01*
X107020000Y-98050000D02*
X107910873Y-98050000D01*
X101570000Y-89850000D02*
X102170000Y-89850000D01*
X102170000Y-89850000D02*
X102270000Y-89950000D01*
X107770000Y-92275000D02*
X107770000Y-92850000D01*
X107770000Y-92850000D02*
X107920000Y-93000000D01*
X106270000Y-85525000D02*
X106270000Y-84800000D01*
X106270000Y-84800000D02*
X106020000Y-84550000D01*
X105000000Y-78000000D02*
X105000000Y-79580000D01*
X105000000Y-79580000D02*
X105020000Y-79600000D01*
X111020000Y-98050000D02*
X110120000Y-98050000D01*
X105145000Y-88650000D02*
X104370000Y-88650000D01*
X110235000Y-80900000D02*
X110670000Y-80900000D01*
X111252842Y-79950000D02*
X110852842Y-79550000D01*
X112170000Y-80450000D02*
X112170000Y-80400000D01*
X111720000Y-79950000D02*
X111252842Y-79950000D01*
X112170000Y-80400000D02*
X111720000Y-79950000D01*
X110670000Y-80900000D02*
X110969565Y-81199565D01*
X110852842Y-79550000D02*
X110570000Y-79550000D01*
X110969565Y-81199565D02*
X110969565Y-81231489D01*
X115123207Y-90103207D02*
X115266793Y-90103207D01*
X114670000Y-89650000D02*
X115123207Y-90103207D01*
X114620000Y-89650000D02*
X114670000Y-89650000D01*
X107470000Y-82700000D02*
X107470000Y-83300000D01*
X107470000Y-83300000D02*
X107420000Y-83350000D01*
X102270000Y-88700000D02*
X102270000Y-88150000D01*
X102270000Y-88150000D02*
X102220000Y-88100000D01*
D28*
X118000000Y-98000000D02*
X117770000Y-98000000D01*
X117770000Y-98000000D02*
X116220000Y-96450000D01*
D27*
X103570000Y-91500000D02*
X103070000Y-91500000D01*
X103070000Y-91500000D02*
X102270000Y-90700000D01*
X102270000Y-91500000D02*
X102270000Y-90700000D01*
X102270000Y-89950000D02*
X102270000Y-90700000D01*
D28*
X109820000Y-82700000D02*
X110520000Y-82700000D01*
X109320000Y-80900000D02*
X109320000Y-82200000D01*
X109320000Y-82200000D02*
X109820000Y-82700000D01*
X109320000Y-80900000D02*
X109320000Y-79550000D01*
X110235000Y-80900000D02*
X109320000Y-80900000D01*
D27*
X106270000Y-85525000D02*
X106270000Y-86650000D01*
X106270000Y-86650000D02*
X108520000Y-88900000D01*
X105145000Y-88650000D02*
X108270000Y-88650000D01*
X108270000Y-88650000D02*
X108520000Y-88900000D01*
X111895000Y-89150000D02*
X108770000Y-89150000D01*
X108770000Y-89150000D02*
X108520000Y-88900000D01*
X107770000Y-92275000D02*
X107770000Y-91800000D01*
X107770000Y-91800000D02*
X108520000Y-91050000D01*
X108520000Y-91050000D02*
X108520000Y-88900000D01*
X104970000Y-93550000D02*
X104970000Y-93950000D01*
X105770000Y-92750000D02*
X104970000Y-93550000D01*
X104970000Y-93950000D02*
X104970000Y-94350000D01*
X105770000Y-92275000D02*
X105770000Y-92750000D01*
X103570000Y-93100000D02*
X104820000Y-94350000D01*
X103570000Y-92600000D02*
X103570000Y-93100000D01*
X104820000Y-94350000D02*
X104970000Y-94350000D01*
D28*
X115820000Y-91375736D02*
X115820000Y-91800000D01*
X115820000Y-89500000D02*
X115820000Y-91375736D01*
X116270000Y-89050000D02*
X115820000Y-89500000D01*
D27*
X108270000Y-92275000D02*
X108270000Y-92700000D01*
X108270000Y-92700000D02*
X108388005Y-92818005D01*
X108388005Y-92818005D02*
X108388005Y-93331995D01*
X108388005Y-93331995D02*
X108320000Y-93400000D01*
X108320000Y-93400000D02*
X108320000Y-95000000D01*
X108320000Y-95000000D02*
X107720000Y-95600000D01*
X102250000Y-98999300D02*
X103220700Y-98999300D01*
X103220700Y-98999300D02*
X104070000Y-98150000D01*
X115750000Y-98999300D02*
X115269300Y-98999300D01*
X115269300Y-98999300D02*
X114820000Y-98550000D01*
X115820000Y-91800000D02*
X113670000Y-89650000D01*
X113670000Y-89650000D02*
X113520000Y-89650000D01*
D28*
X116270000Y-80150000D02*
X115970001Y-80449999D01*
X115970001Y-80449999D02*
X115970001Y-86099999D01*
X115970001Y-86099999D02*
X115420000Y-86650000D01*
D27*
X105770000Y-85400000D02*
X105770000Y-85525000D01*
X104770000Y-84400000D02*
X105770000Y-85400000D01*
X103970000Y-84400000D02*
X104770000Y-84400000D01*
X102570001Y-89200001D02*
X101769999Y-89200001D01*
X103320000Y-89950000D02*
X102570001Y-89200001D01*
X101769999Y-89200001D02*
X101520000Y-88950002D01*
X103370000Y-89950000D02*
X103320000Y-89950000D01*
X101520000Y-87950000D02*
X102370000Y-87100000D01*
X102370000Y-87100000D02*
X102370000Y-87000000D01*
X101520000Y-88950002D02*
X101520000Y-87950000D01*
X102770000Y-85150000D02*
X103520000Y-84400000D01*
X102770000Y-86500000D02*
X102770000Y-85150000D01*
X103520000Y-84400000D02*
X103970000Y-84400000D01*
X102370000Y-86900000D02*
X102770000Y-86500000D01*
X102370000Y-87000000D02*
X102370000Y-86900000D01*
D28*
X103920000Y-84450000D02*
X103970000Y-84400000D01*
D27*
X102770000Y-81709340D02*
X102770000Y-83150000D01*
X102770000Y-83150000D02*
X103970000Y-84350000D01*
X103970000Y-84350000D02*
X103970000Y-84400000D01*
X100000000Y-80000000D02*
X101060660Y-80000000D01*
X101060660Y-80000000D02*
X102770000Y-81709340D01*
X111895000Y-89650000D02*
X113520000Y-89650000D01*
D28*
X107470000Y-81600000D02*
X107470000Y-80550000D01*
X108405000Y-80250000D02*
X107770000Y-80250000D01*
X107770000Y-80250000D02*
X107470000Y-80550000D01*
D27*
X103370000Y-89950000D02*
X103670000Y-89650000D01*
X103670000Y-89650000D02*
X105145000Y-89650000D01*
X105720001Y-95550001D02*
X105770001Y-95500001D01*
X106270000Y-92750000D02*
X106270000Y-92275000D01*
X104228182Y-95550001D02*
X105720001Y-95550001D01*
X105770001Y-95500001D02*
X105770001Y-93249999D01*
X102370000Y-94350000D02*
X102370000Y-94750000D01*
X103120000Y-95500000D02*
X104178181Y-95500000D01*
X102370000Y-94750000D02*
X103120000Y-95500000D01*
X104178181Y-95500000D02*
X104228182Y-95550001D01*
X105770001Y-93249999D02*
X106270000Y-92750000D01*
X102270000Y-92600000D02*
X102270000Y-94250000D01*
X102270000Y-94250000D02*
X102370000Y-94350000D01*
X103370000Y-88700000D02*
X103820000Y-89150000D01*
X103820000Y-89150000D02*
X105145000Y-89150000D01*
X106600012Y-80214978D02*
X106600012Y-83821018D01*
X106600012Y-83821018D02*
X107270000Y-84491006D01*
X108250001Y-78950001D02*
X107350003Y-79849999D01*
X107350003Y-79849999D02*
X106964991Y-79849999D01*
X106964991Y-79849999D02*
X106600012Y-80214978D01*
X109000000Y-78000000D02*
X108999999Y-78950001D01*
X108999999Y-78950001D02*
X108250001Y-78950001D01*
X107270000Y-84491006D02*
X107270000Y-85525000D01*
X106770000Y-85050000D02*
X106770000Y-85525000D01*
X107000000Y-78000000D02*
X107000000Y-78950000D01*
X107000000Y-78950000D02*
X106250001Y-79699999D01*
X106770000Y-84519997D02*
X106770000Y-85050000D01*
X106250001Y-79699999D02*
X106250001Y-83999998D01*
X106250001Y-83999998D02*
X106770000Y-84519997D01*
X112320000Y-93050000D02*
X114320000Y-95050000D01*
X114320000Y-95050000D02*
X114520000Y-95050000D01*
X105145000Y-90150000D02*
X104420000Y-90150000D01*
X104420000Y-90150000D02*
X104320000Y-90250000D01*
X112008302Y-96818780D02*
X112008302Y-97101622D01*
X112008302Y-96738302D02*
X112008302Y-96818780D01*
X111720000Y-96450000D02*
X112008302Y-96738302D01*
X111020000Y-96450000D02*
X111720000Y-96450000D01*
X107020000Y-96450000D02*
X107833604Y-96450000D01*
X107833604Y-96450000D02*
X107901802Y-96381802D01*
X112370000Y-92450000D02*
X112253998Y-92450000D01*
X112253998Y-92450000D02*
X111723522Y-92980476D01*
X111723522Y-92980476D02*
X111723522Y-95046478D01*
X111723522Y-95046478D02*
X111020000Y-95750000D01*
X111020000Y-95750000D02*
X111020000Y-96450000D01*
X104670000Y-87650000D02*
X104424727Y-87895273D01*
X104424727Y-87895273D02*
X104424727Y-88102727D01*
X104656805Y-87663195D02*
X104670000Y-87650000D01*
X103270000Y-87500000D02*
X103433195Y-87663195D01*
X103270000Y-87000000D02*
X103270000Y-87500000D01*
X103433195Y-87663195D02*
X104656805Y-87663195D01*
X104670000Y-87650000D02*
X105145000Y-87650000D01*
X103270000Y-87000000D02*
X103270000Y-85350000D01*
X103270000Y-85350000D02*
X103570000Y-85050000D01*
X112220000Y-93600000D02*
X113020000Y-94400000D01*
X113020000Y-94400000D02*
X113020000Y-95950000D01*
X105145000Y-90650000D02*
X104670000Y-90650000D01*
X104670000Y-90650000D02*
X104520000Y-90800000D01*
X104520000Y-90800000D02*
X104320000Y-90800000D01*
X103620000Y-97500000D02*
X102250700Y-97500000D01*
X102250700Y-97500000D02*
X102250000Y-97500700D01*
X114370000Y-97500000D02*
X115749300Y-97500000D01*
X115749300Y-97500000D02*
X115750000Y-97500700D01*
X110000000Y-100000000D02*
X109319987Y-99319987D01*
X109319987Y-97689019D02*
X109770000Y-97239006D01*
X109770000Y-97239006D02*
X109770000Y-94110992D01*
X109719988Y-94060980D02*
X109719988Y-92800012D01*
X109719988Y-92800012D02*
X109770000Y-92750000D01*
X109770000Y-92750000D02*
X109770000Y-92275000D01*
X109319987Y-99319987D02*
X109319987Y-97689019D01*
X109770000Y-94110992D02*
X109719988Y-94060980D01*
X110069999Y-93483999D02*
X110069999Y-93916001D01*
X112000000Y-99050000D02*
X112000000Y-100000000D01*
X110403995Y-98999999D02*
X111949999Y-98999999D01*
X109669998Y-97833998D02*
X109669998Y-98266002D01*
X110136061Y-97367935D02*
X109669998Y-97833998D01*
X110069999Y-93916001D02*
X110136061Y-93982063D01*
X111949999Y-98999999D02*
X112000000Y-99050000D01*
X110136061Y-93982063D02*
X110136061Y-97367935D01*
X110270000Y-92275000D02*
X110270000Y-93283998D01*
X109669998Y-98266002D02*
X110403995Y-98999999D01*
X110270000Y-93283998D02*
X110069999Y-93483999D01*
X104170016Y-92513212D02*
X104170016Y-92796054D01*
X104170016Y-91649984D02*
X104170016Y-92513212D01*
X104670000Y-91150000D02*
X104170016Y-91649984D01*
X105145000Y-91150000D02*
X104670000Y-91150000D01*
X103936643Y-95950000D02*
X104001028Y-96014385D01*
X102620000Y-95950000D02*
X103936643Y-95950000D01*
X111270000Y-92275000D02*
X111270000Y-93489235D01*
X111270000Y-93489235D02*
X111273521Y-93492756D01*
X111895000Y-91650000D02*
X113505910Y-91650000D01*
X115865517Y-94009607D02*
X115970011Y-94009607D01*
X113505910Y-91650000D02*
X115865517Y-94009607D01*
X117050000Y-96000000D02*
X118000000Y-96000000D01*
X115969998Y-95491002D02*
X116478996Y-96000000D01*
X115969998Y-95058998D02*
X115969998Y-95491002D01*
X116420013Y-93793605D02*
X116420013Y-94608983D01*
X115943609Y-93559605D02*
X116186013Y-93559605D01*
X113584005Y-91200001D02*
X115943609Y-93559605D01*
X111895000Y-91150000D02*
X112370000Y-91150000D01*
X116186013Y-93559605D02*
X116420013Y-93793605D01*
X112420001Y-91200001D02*
X113584005Y-91200001D01*
X116420013Y-94608983D02*
X115969998Y-95058998D01*
X112370000Y-91150000D02*
X112420001Y-91200001D01*
X116478996Y-96000000D02*
X117050000Y-96000000D01*
X109270000Y-84768692D02*
X108919999Y-84418691D01*
X112719999Y-85185997D02*
X112719999Y-85455011D01*
X114420000Y-86767158D02*
X114420000Y-87050000D01*
X112719999Y-85455011D02*
X113314987Y-86049999D01*
X108919999Y-84085999D02*
X109219915Y-83786083D01*
X108919999Y-84418691D02*
X108919999Y-84085999D01*
X113314987Y-86049999D02*
X113702841Y-86049999D01*
X111320085Y-83786083D02*
X112719999Y-85185997D01*
X109270000Y-85525000D02*
X109270000Y-84768692D01*
X109219915Y-83786083D02*
X111320085Y-83786083D01*
X113702841Y-86049999D02*
X114420000Y-86767158D01*
X105919333Y-97130667D02*
X105919333Y-95845659D01*
X105919333Y-95845659D02*
X106120012Y-95644980D01*
X106120012Y-95644980D02*
X106120012Y-93399988D01*
X104000000Y-99050000D02*
X105919333Y-97130667D01*
X104000000Y-100000000D02*
X104000000Y-99050000D01*
X106770000Y-92750000D02*
X106770000Y-92275000D01*
X106120012Y-93399988D02*
X106770000Y-92750000D01*
X106990864Y-93249991D02*
X106790865Y-93449990D01*
X107270000Y-92934336D02*
X106990864Y-93213472D01*
X107270000Y-92275000D02*
X107270000Y-92934336D01*
X106990864Y-93213472D02*
X106990864Y-93249991D01*
X103970147Y-86930351D02*
X103970147Y-87213193D01*
X103970147Y-85299855D02*
X103970147Y-86930351D01*
X104220000Y-85050002D02*
X103970147Y-85299855D01*
X106353995Y-97200001D02*
X107720001Y-97200001D01*
X105719998Y-97833998D02*
X106353995Y-97200001D01*
X105719998Y-98769998D02*
X105719998Y-97833998D01*
X106000000Y-100000000D02*
X106000000Y-99050000D01*
X108770000Y-92750000D02*
X108770000Y-92275000D01*
X108770000Y-96150002D02*
X108770000Y-92750000D01*
X107720001Y-97200001D02*
X108770000Y-96150002D01*
X106000000Y-99050000D02*
X105719998Y-98769998D01*
X108000000Y-100000000D02*
X108000000Y-99050000D01*
X108000000Y-99050000D02*
X108499222Y-98550778D01*
X108499222Y-98550778D02*
X108499222Y-97936782D01*
X108499222Y-97936782D02*
X109270000Y-97166004D01*
X109270000Y-97166004D02*
X109270000Y-92750000D01*
X109270000Y-92750000D02*
X109270000Y-92275000D01*
X100000000Y-96000000D02*
X100950000Y-96000000D01*
X103504007Y-96850011D02*
X103601322Y-96947326D01*
X104734989Y-96947326D02*
X104995539Y-96686776D01*
X103601322Y-96947326D02*
X104734989Y-96947326D01*
X101800011Y-96850011D02*
X103504007Y-96850011D01*
X100950000Y-96000000D02*
X101800011Y-96850011D01*
X104995539Y-96200010D02*
X104795540Y-96000011D01*
X104995539Y-96686776D02*
X104995539Y-96200010D01*
X111895000Y-90650000D02*
X112770000Y-90650000D01*
X112770000Y-90650000D02*
X112870000Y-90750000D01*
X111945000Y-90700000D02*
X111895000Y-90650000D01*
X104236145Y-96497324D02*
X104518987Y-96497324D01*
X104148517Y-96584952D02*
X104236145Y-96497324D01*
X103718980Y-96447902D02*
X103856030Y-96584952D01*
X101570000Y-95900000D02*
X102117902Y-96447902D01*
X102117902Y-96447902D02*
X103718980Y-96447902D01*
X103856030Y-96584952D02*
X104148517Y-96584952D01*
X113270000Y-90300000D02*
X113120000Y-90150000D01*
X113120000Y-90150000D02*
X111895000Y-90150000D01*
X115605998Y-88650000D02*
X116255998Y-88000000D01*
X111895000Y-88650000D02*
X115605998Y-88650000D01*
X117050000Y-88000000D02*
X118000000Y-88000000D01*
X116255998Y-88000000D02*
X117050000Y-88000000D01*
X111895000Y-88150000D02*
X115611008Y-88150000D01*
X117761008Y-86000000D02*
X118000000Y-86000000D01*
X115611008Y-88150000D02*
X117761008Y-86000000D01*
X111895000Y-87650000D02*
X115270000Y-87650000D01*
X116570000Y-84369340D02*
X116939340Y-84000000D01*
X115270000Y-87650000D02*
X116570000Y-86350000D01*
X116570000Y-86350000D02*
X116570000Y-84369340D01*
X116939340Y-84000000D02*
X118000000Y-84000000D01*
X111895000Y-86150000D02*
X112920000Y-86150000D01*
X112920000Y-86150000D02*
X113370000Y-86600000D01*
X111270000Y-85525000D02*
X111270000Y-84800000D01*
X111270000Y-84800000D02*
X111370000Y-84700000D01*
X110770000Y-84769765D02*
X110774027Y-84765738D01*
X110770000Y-85525000D02*
X110770000Y-84769765D01*
X110270000Y-85525000D02*
X110270000Y-84492905D01*
X110270000Y-84492905D02*
X110366276Y-84396629D01*
X101857968Y-86423013D02*
X101650642Y-86630339D01*
X101857968Y-85319838D02*
X101857968Y-86423013D01*
X101650642Y-86630339D02*
X101450643Y-86830338D01*
X109770000Y-85525000D02*
X109770000Y-84650000D01*
X109770000Y-84650000D02*
X109720000Y-84600000D01*
X108270000Y-85525000D02*
X108270000Y-84431693D01*
X108270000Y-84431693D02*
X108275710Y-84425983D01*
X107770000Y-84194371D02*
X107976360Y-83988011D01*
X107770000Y-85525000D02*
X107770000Y-84194371D01*
X107976360Y-83988011D02*
X108176359Y-83788012D01*
X105212625Y-97207375D02*
X105212625Y-97106102D01*
X104520000Y-97500000D02*
X104920000Y-97500000D01*
X104920000Y-97500000D02*
X105212625Y-97207375D01*
X107493822Y-94707426D02*
X107493822Y-93659358D01*
X107493822Y-93659358D02*
X107493822Y-93376516D01*
X106720000Y-95481248D02*
X107493822Y-94707426D01*
X105145000Y-87150000D02*
X104570000Y-87150000D01*
X104570000Y-87150000D02*
X104520000Y-87200000D01*
X112820000Y-97550000D02*
X113420000Y-97550000D01*
X113420000Y-97550000D02*
X113470000Y-97500000D01*
X110520000Y-93700000D02*
X110520000Y-95400000D01*
X110520000Y-95400000D02*
X110620000Y-95500000D01*
X105145000Y-91650000D02*
X105145000Y-92575000D01*
X105145000Y-92575000D02*
X104720000Y-93000000D01*
D28*
X115120000Y-83050000D02*
X115120000Y-84600000D01*
X115120000Y-84600000D02*
X115220000Y-84700000D01*
X115120000Y-83050000D02*
X113720000Y-83050000D01*
X111570000Y-82150000D02*
X112170000Y-81550000D01*
X110270000Y-81550000D02*
X110870000Y-82150000D01*
X110870000Y-82150000D02*
X111570000Y-82150000D01*
X110235000Y-81550000D02*
X110270000Y-81550000D01*
X110911614Y-80250000D02*
X111511614Y-80850000D01*
X110235000Y-80250000D02*
X110911614Y-80250000D01*
X111511614Y-80850000D02*
X111520000Y-80850000D01*
X112170000Y-81500000D02*
X112170000Y-81550000D01*
X111520000Y-80850000D02*
X112170000Y-81500000D01*
X113320000Y-84700000D02*
X112170000Y-83550000D01*
X112170000Y-83550000D02*
X112170000Y-81550000D01*
X113000000Y-78000000D02*
X114500000Y-79500000D01*
X114500000Y-79500000D02*
X115020000Y-79500000D01*
X115020000Y-79500000D02*
X115120000Y-79600000D01*
X115120000Y-79600000D02*
X115120000Y-80450000D01*
X113720000Y-80450000D02*
X113720000Y-80250000D01*
X113670000Y-80200000D02*
X113670000Y-79850000D01*
X113720000Y-80250000D02*
X113670000Y-80200000D01*
X111000000Y-78731110D02*
X111000000Y-78000000D01*
X113670000Y-79850000D02*
X113320000Y-79500000D01*
X113320000Y-79500000D02*
X111768890Y-79500000D01*
X111768890Y-79500000D02*
X111000000Y-78731110D01*
D27*
X108405000Y-81550000D02*
X108405000Y-82385000D01*
X108405000Y-82385000D02*
X108720000Y-82700000D01*
D29*
G36*
X115539474Y-94216722D02*
X115565394Y-94279453D01*
X115699459Y-94413752D01*
X115874714Y-94486524D01*
X116009196Y-94486642D01*
X115703419Y-94792419D01*
X115621695Y-94914726D01*
X115592998Y-95058998D01*
X115592998Y-95491002D01*
X115621695Y-95635274D01*
X115703419Y-95757581D01*
X116212417Y-96266579D01*
X116334724Y-96348303D01*
X116478996Y-96377000D01*
X116967574Y-96377000D01*
X116967574Y-96679666D01*
X116890302Y-96711673D01*
X116711673Y-96890301D01*
X116615000Y-97123690D01*
X116615000Y-97714250D01*
X116773750Y-97873000D01*
X117673000Y-97873000D01*
X117673000Y-98127000D01*
X116773750Y-98127000D01*
X116615000Y-98285750D01*
X116615000Y-98876310D01*
X116711673Y-99109699D01*
X116890302Y-99288327D01*
X117123691Y-99385000D01*
X117673000Y-99385000D01*
X117673000Y-99673000D01*
X116188671Y-99673000D01*
X116251430Y-99661191D01*
X116345707Y-99600525D01*
X116408955Y-99507960D01*
X116431206Y-99398080D01*
X116431206Y-98600520D01*
X116411891Y-98497870D01*
X116351225Y-98403593D01*
X116258660Y-98340345D01*
X116148780Y-98318094D01*
X115351220Y-98318094D01*
X115248570Y-98337409D01*
X115248336Y-98337559D01*
X115224617Y-98280154D01*
X115090552Y-98145855D01*
X114915297Y-98073083D01*
X114725535Y-98072917D01*
X114550154Y-98145383D01*
X114415855Y-98279448D01*
X114343083Y-98454703D01*
X114342917Y-98644465D01*
X114415383Y-98819846D01*
X114549448Y-98954145D01*
X114581789Y-98967574D01*
X113250000Y-98967574D01*
X113147350Y-98986889D01*
X113053073Y-99047555D01*
X112999421Y-99126076D01*
X112952445Y-99053073D01*
X112859880Y-98989825D01*
X112750000Y-98967574D01*
X112360605Y-98967574D01*
X112348303Y-98905728D01*
X112266579Y-98783421D01*
X112216578Y-98733420D01*
X112149821Y-98688814D01*
X112155000Y-98676310D01*
X112155000Y-98335750D01*
X111996250Y-98177000D01*
X111147000Y-98177000D01*
X111147000Y-98197000D01*
X110893000Y-98197000D01*
X110893000Y-98177000D01*
X110873000Y-98177000D01*
X110873000Y-97923000D01*
X110893000Y-97923000D01*
X110893000Y-97903000D01*
X111147000Y-97903000D01*
X111147000Y-97923000D01*
X111996250Y-97923000D01*
X112155000Y-97764250D01*
X112155000Y-97557123D01*
X112278148Y-97506239D01*
X112352505Y-97432011D01*
X112343083Y-97454703D01*
X112342917Y-97644465D01*
X112415383Y-97819846D01*
X112549448Y-97954145D01*
X112724703Y-98026917D01*
X112914465Y-98027083D01*
X113050730Y-97970780D01*
X113067555Y-97996927D01*
X113160120Y-98060175D01*
X113270000Y-98082426D01*
X113670000Y-98082426D01*
X113772650Y-98063111D01*
X113866927Y-98002445D01*
X113920579Y-97923924D01*
X113967555Y-97996927D01*
X114060120Y-98060175D01*
X114170000Y-98082426D01*
X114570000Y-98082426D01*
X114672650Y-98063111D01*
X114766927Y-98002445D01*
X114830175Y-97909880D01*
X114836833Y-97877000D01*
X115068794Y-97877000D01*
X115068794Y-97899480D01*
X115088109Y-98002130D01*
X115148775Y-98096407D01*
X115241340Y-98159655D01*
X115351220Y-98181906D01*
X116148780Y-98181906D01*
X116251430Y-98162591D01*
X116345707Y-98101925D01*
X116408955Y-98009360D01*
X116431206Y-97899480D01*
X116431206Y-97101920D01*
X116411891Y-96999270D01*
X116351225Y-96904993D01*
X116258660Y-96841745D01*
X116148780Y-96819494D01*
X115351220Y-96819494D01*
X115248570Y-96838809D01*
X115154293Y-96899475D01*
X115091045Y-96992040D01*
X115068794Y-97101920D01*
X115068794Y-97123000D01*
X114837937Y-97123000D01*
X114833111Y-97097350D01*
X114772445Y-97003073D01*
X114679880Y-96939825D01*
X114570000Y-96917574D01*
X114170000Y-96917574D01*
X114067350Y-96936889D01*
X113973073Y-96997555D01*
X113919421Y-97076076D01*
X113872445Y-97003073D01*
X113779880Y-96939825D01*
X113670000Y-96917574D01*
X113270000Y-96917574D01*
X113167350Y-96936889D01*
X113073073Y-96997555D01*
X113009825Y-97090120D01*
X113005675Y-97110611D01*
X112915297Y-97073083D01*
X112725535Y-97072917D01*
X112550154Y-97145383D01*
X112475797Y-97219611D01*
X112485219Y-97196919D01*
X112485385Y-97007157D01*
X112412919Y-96831776D01*
X112385302Y-96804111D01*
X112385302Y-96738302D01*
X112356605Y-96594030D01*
X112292643Y-96498305D01*
X112274882Y-96471723D01*
X111986579Y-96183421D01*
X111864272Y-96101697D01*
X111802426Y-96089395D01*
X111802426Y-95950000D01*
X111783111Y-95847350D01*
X111722445Y-95753073D01*
X111629880Y-95689825D01*
X111616120Y-95687039D01*
X111990101Y-95313058D01*
X112071825Y-95190750D01*
X112079593Y-95151697D01*
X112100522Y-95046478D01*
X112100522Y-94066876D01*
X112124703Y-94076917D01*
X112163793Y-94076951D01*
X112643000Y-94556158D01*
X112643000Y-95652350D01*
X112615855Y-95679448D01*
X112543083Y-95854703D01*
X112542917Y-96044465D01*
X112615383Y-96219846D01*
X112749448Y-96354145D01*
X112924703Y-96426917D01*
X113114465Y-96427083D01*
X113289846Y-96354617D01*
X113424145Y-96220552D01*
X113496917Y-96045297D01*
X113497083Y-95855535D01*
X113424617Y-95680154D01*
X113397000Y-95652489D01*
X113397000Y-94660158D01*
X114053421Y-95316579D01*
X114175728Y-95398303D01*
X114198157Y-95402764D01*
X114249448Y-95454145D01*
X114424703Y-95526917D01*
X114614465Y-95527083D01*
X114789846Y-95454617D01*
X114924145Y-95320552D01*
X114996917Y-95145297D01*
X114997083Y-94955535D01*
X114924617Y-94780154D01*
X114790552Y-94645855D01*
X114615297Y-94573083D01*
X114425535Y-94572917D01*
X114390536Y-94587378D01*
X112797049Y-92993891D01*
X112797083Y-92955535D01*
X112724617Y-92780154D01*
X112719537Y-92775065D01*
X112774145Y-92720552D01*
X112846917Y-92545297D01*
X112847083Y-92355535D01*
X112774617Y-92180154D01*
X112640552Y-92045855D01*
X112595144Y-92027000D01*
X113349752Y-92027000D01*
X115539474Y-94216722D01*
X115539474Y-94216722D01*
G37*
X115539474Y-94216722D02*
X115565394Y-94279453D01*
X115699459Y-94413752D01*
X115874714Y-94486524D01*
X116009196Y-94486642D01*
X115703419Y-94792419D01*
X115621695Y-94914726D01*
X115592998Y-95058998D01*
X115592998Y-95491002D01*
X115621695Y-95635274D01*
X115703419Y-95757581D01*
X116212417Y-96266579D01*
X116334724Y-96348303D01*
X116478996Y-96377000D01*
X116967574Y-96377000D01*
X116967574Y-96679666D01*
X116890302Y-96711673D01*
X116711673Y-96890301D01*
X116615000Y-97123690D01*
X116615000Y-97714250D01*
X116773750Y-97873000D01*
X117673000Y-97873000D01*
X117673000Y-98127000D01*
X116773750Y-98127000D01*
X116615000Y-98285750D01*
X116615000Y-98876310D01*
X116711673Y-99109699D01*
X116890302Y-99288327D01*
X117123691Y-99385000D01*
X117673000Y-99385000D01*
X117673000Y-99673000D01*
X116188671Y-99673000D01*
X116251430Y-99661191D01*
X116345707Y-99600525D01*
X116408955Y-99507960D01*
X116431206Y-99398080D01*
X116431206Y-98600520D01*
X116411891Y-98497870D01*
X116351225Y-98403593D01*
X116258660Y-98340345D01*
X116148780Y-98318094D01*
X115351220Y-98318094D01*
X115248570Y-98337409D01*
X115248336Y-98337559D01*
X115224617Y-98280154D01*
X115090552Y-98145855D01*
X114915297Y-98073083D01*
X114725535Y-98072917D01*
X114550154Y-98145383D01*
X114415855Y-98279448D01*
X114343083Y-98454703D01*
X114342917Y-98644465D01*
X114415383Y-98819846D01*
X114549448Y-98954145D01*
X114581789Y-98967574D01*
X113250000Y-98967574D01*
X113147350Y-98986889D01*
X113053073Y-99047555D01*
X112999421Y-99126076D01*
X112952445Y-99053073D01*
X112859880Y-98989825D01*
X112750000Y-98967574D01*
X112360605Y-98967574D01*
X112348303Y-98905728D01*
X112266579Y-98783421D01*
X112216578Y-98733420D01*
X112149821Y-98688814D01*
X112155000Y-98676310D01*
X112155000Y-98335750D01*
X111996250Y-98177000D01*
X111147000Y-98177000D01*
X111147000Y-98197000D01*
X110893000Y-98197000D01*
X110893000Y-98177000D01*
X110873000Y-98177000D01*
X110873000Y-97923000D01*
X110893000Y-97923000D01*
X110893000Y-97903000D01*
X111147000Y-97903000D01*
X111147000Y-97923000D01*
X111996250Y-97923000D01*
X112155000Y-97764250D01*
X112155000Y-97557123D01*
X112278148Y-97506239D01*
X112352505Y-97432011D01*
X112343083Y-97454703D01*
X112342917Y-97644465D01*
X112415383Y-97819846D01*
X112549448Y-97954145D01*
X112724703Y-98026917D01*
X112914465Y-98027083D01*
X113050730Y-97970780D01*
X113067555Y-97996927D01*
X113160120Y-98060175D01*
X113270000Y-98082426D01*
X113670000Y-98082426D01*
X113772650Y-98063111D01*
X113866927Y-98002445D01*
X113920579Y-97923924D01*
X113967555Y-97996927D01*
X114060120Y-98060175D01*
X114170000Y-98082426D01*
X114570000Y-98082426D01*
X114672650Y-98063111D01*
X114766927Y-98002445D01*
X114830175Y-97909880D01*
X114836833Y-97877000D01*
X115068794Y-97877000D01*
X115068794Y-97899480D01*
X115088109Y-98002130D01*
X115148775Y-98096407D01*
X115241340Y-98159655D01*
X115351220Y-98181906D01*
X116148780Y-98181906D01*
X116251430Y-98162591D01*
X116345707Y-98101925D01*
X116408955Y-98009360D01*
X116431206Y-97899480D01*
X116431206Y-97101920D01*
X116411891Y-96999270D01*
X116351225Y-96904993D01*
X116258660Y-96841745D01*
X116148780Y-96819494D01*
X115351220Y-96819494D01*
X115248570Y-96838809D01*
X115154293Y-96899475D01*
X115091045Y-96992040D01*
X115068794Y-97101920D01*
X115068794Y-97123000D01*
X114837937Y-97123000D01*
X114833111Y-97097350D01*
X114772445Y-97003073D01*
X114679880Y-96939825D01*
X114570000Y-96917574D01*
X114170000Y-96917574D01*
X114067350Y-96936889D01*
X113973073Y-96997555D01*
X113919421Y-97076076D01*
X113872445Y-97003073D01*
X113779880Y-96939825D01*
X113670000Y-96917574D01*
X113270000Y-96917574D01*
X113167350Y-96936889D01*
X113073073Y-96997555D01*
X113009825Y-97090120D01*
X113005675Y-97110611D01*
X112915297Y-97073083D01*
X112725535Y-97072917D01*
X112550154Y-97145383D01*
X112475797Y-97219611D01*
X112485219Y-97196919D01*
X112485385Y-97007157D01*
X112412919Y-96831776D01*
X112385302Y-96804111D01*
X112385302Y-96738302D01*
X112356605Y-96594030D01*
X112292643Y-96498305D01*
X112274882Y-96471723D01*
X111986579Y-96183421D01*
X111864272Y-96101697D01*
X111802426Y-96089395D01*
X111802426Y-95950000D01*
X111783111Y-95847350D01*
X111722445Y-95753073D01*
X111629880Y-95689825D01*
X111616120Y-95687039D01*
X111990101Y-95313058D01*
X112071825Y-95190750D01*
X112079593Y-95151697D01*
X112100522Y-95046478D01*
X112100522Y-94066876D01*
X112124703Y-94076917D01*
X112163793Y-94076951D01*
X112643000Y-94556158D01*
X112643000Y-95652350D01*
X112615855Y-95679448D01*
X112543083Y-95854703D01*
X112542917Y-96044465D01*
X112615383Y-96219846D01*
X112749448Y-96354145D01*
X112924703Y-96426917D01*
X113114465Y-96427083D01*
X113289846Y-96354617D01*
X113424145Y-96220552D01*
X113496917Y-96045297D01*
X113497083Y-95855535D01*
X113424617Y-95680154D01*
X113397000Y-95652489D01*
X113397000Y-94660158D01*
X114053421Y-95316579D01*
X114175728Y-95398303D01*
X114198157Y-95402764D01*
X114249448Y-95454145D01*
X114424703Y-95526917D01*
X114614465Y-95527083D01*
X114789846Y-95454617D01*
X114924145Y-95320552D01*
X114996917Y-95145297D01*
X114997083Y-94955535D01*
X114924617Y-94780154D01*
X114790552Y-94645855D01*
X114615297Y-94573083D01*
X114425535Y-94572917D01*
X114390536Y-94587378D01*
X112797049Y-92993891D01*
X112797083Y-92955535D01*
X112724617Y-92780154D01*
X112719537Y-92775065D01*
X112774145Y-92720552D01*
X112846917Y-92545297D01*
X112847083Y-92355535D01*
X112774617Y-92180154D01*
X112640552Y-92045855D01*
X112595144Y-92027000D01*
X113349752Y-92027000D01*
X115539474Y-94216722D01*
G36*
X107147000Y-97923000D02*
X107167000Y-97923000D01*
X107167000Y-98177000D01*
X107147000Y-98177000D01*
X107147000Y-98197000D01*
X106893000Y-98197000D01*
X106893000Y-98177000D01*
X106873000Y-98177000D01*
X106873000Y-97923000D01*
X106893000Y-97923000D01*
X106893000Y-97903000D01*
X107147000Y-97903000D01*
X107147000Y-97923000D01*
X107147000Y-97923000D01*
G37*
X107147000Y-97923000D02*
X107167000Y-97923000D01*
X107167000Y-98177000D01*
X107147000Y-98177000D01*
X107147000Y-98197000D01*
X106893000Y-98197000D01*
X106893000Y-98177000D01*
X106873000Y-98177000D01*
X106873000Y-97923000D01*
X106893000Y-97923000D01*
X106893000Y-97903000D01*
X107147000Y-97903000D01*
X107147000Y-97923000D01*
G36*
X100973560Y-86924803D02*
X101046026Y-87100184D01*
X101180091Y-87234483D01*
X101355346Y-87307255D01*
X101545108Y-87307421D01*
X101688788Y-87248054D01*
X101253421Y-87683421D01*
X101171697Y-87805728D01*
X101143000Y-87950000D01*
X101143000Y-88950002D01*
X101171697Y-89094274D01*
X101253421Y-89216581D01*
X101415701Y-89378861D01*
X101335000Y-89573690D01*
X101335000Y-89666250D01*
X101493750Y-89825000D01*
X102143000Y-89825000D01*
X102143000Y-89803000D01*
X102397000Y-89803000D01*
X102397000Y-89825000D01*
X102417000Y-89825000D01*
X102417000Y-90075000D01*
X102397000Y-90075000D01*
X102397000Y-90676250D01*
X102419750Y-90699000D01*
X102395000Y-90723750D01*
X102395000Y-91373000D01*
X103445000Y-91373000D01*
X103445000Y-90723750D01*
X103286250Y-90565000D01*
X103193690Y-90565000D01*
X103038916Y-90629110D01*
X103108327Y-90559699D01*
X103140335Y-90482426D01*
X103670000Y-90482426D01*
X103772650Y-90463111D01*
X103866885Y-90402472D01*
X103915383Y-90519846D01*
X103920420Y-90524891D01*
X103915855Y-90529448D01*
X103901093Y-90565000D01*
X103853750Y-90565000D01*
X103695000Y-90723750D01*
X103695000Y-91373000D01*
X103717000Y-91373000D01*
X103717000Y-91627000D01*
X103695000Y-91627000D01*
X103695000Y-91647000D01*
X103445000Y-91647000D01*
X103445000Y-91627000D01*
X102395000Y-91627000D01*
X102395000Y-91647000D01*
X102145000Y-91647000D01*
X102145000Y-91627000D01*
X101543750Y-91627000D01*
X101385000Y-91785750D01*
X101385000Y-91926309D01*
X101481673Y-92159698D01*
X101660301Y-92338327D01*
X101737574Y-92370335D01*
X101737574Y-92900000D01*
X101756889Y-93002650D01*
X101817555Y-93096927D01*
X101847772Y-93117574D01*
X101820000Y-93117574D01*
X101717350Y-93136889D01*
X101623073Y-93197555D01*
X101559825Y-93290120D01*
X101537574Y-93400000D01*
X101537574Y-95300000D01*
X101556889Y-95402650D01*
X101569984Y-95423000D01*
X101475535Y-95422917D01*
X101300154Y-95495383D01*
X101165855Y-95629448D01*
X101143076Y-95684307D01*
X101094272Y-95651697D01*
X101032426Y-95639395D01*
X101032426Y-95250000D01*
X101013111Y-95147350D01*
X100952445Y-95053073D01*
X100873924Y-94999421D01*
X100946927Y-94952445D01*
X101010175Y-94859880D01*
X101032426Y-94750000D01*
X101032426Y-93250000D01*
X101013111Y-93147350D01*
X100952445Y-93053073D01*
X100873924Y-92999421D01*
X100946927Y-92952445D01*
X101010175Y-92859880D01*
X101032426Y-92750000D01*
X101032426Y-91250000D01*
X101013111Y-91147350D01*
X100952445Y-91053073D01*
X100873924Y-90999421D01*
X100946927Y-90952445D01*
X101010175Y-90859880D01*
X101032426Y-90750000D01*
X101032426Y-90233750D01*
X101335000Y-90233750D01*
X101335000Y-90326310D01*
X101431673Y-90559699D01*
X101596975Y-90725000D01*
X101481673Y-90840302D01*
X101385000Y-91073691D01*
X101385000Y-91214250D01*
X101543750Y-91373000D01*
X102145000Y-91373000D01*
X102145000Y-90723750D01*
X102120250Y-90699000D01*
X102143000Y-90676250D01*
X102143000Y-90075000D01*
X101493750Y-90075000D01*
X101335000Y-90233750D01*
X101032426Y-90233750D01*
X101032426Y-89250000D01*
X101013111Y-89147350D01*
X100952445Y-89053073D01*
X100873924Y-88999421D01*
X100946927Y-88952445D01*
X101010175Y-88859880D01*
X101032426Y-88750000D01*
X101032426Y-87250000D01*
X101013111Y-87147350D01*
X100952445Y-87053073D01*
X100873924Y-86999421D01*
X100946927Y-86952445D01*
X100973570Y-86913452D01*
X100973560Y-86924803D01*
X100973560Y-86924803D01*
G37*
X100973560Y-86924803D02*
X101046026Y-87100184D01*
X101180091Y-87234483D01*
X101355346Y-87307255D01*
X101545108Y-87307421D01*
X101688788Y-87248054D01*
X101253421Y-87683421D01*
X101171697Y-87805728D01*
X101143000Y-87950000D01*
X101143000Y-88950002D01*
X101171697Y-89094274D01*
X101253421Y-89216581D01*
X101415701Y-89378861D01*
X101335000Y-89573690D01*
X101335000Y-89666250D01*
X101493750Y-89825000D01*
X102143000Y-89825000D01*
X102143000Y-89803000D01*
X102397000Y-89803000D01*
X102397000Y-89825000D01*
X102417000Y-89825000D01*
X102417000Y-90075000D01*
X102397000Y-90075000D01*
X102397000Y-90676250D01*
X102419750Y-90699000D01*
X102395000Y-90723750D01*
X102395000Y-91373000D01*
X103445000Y-91373000D01*
X103445000Y-90723750D01*
X103286250Y-90565000D01*
X103193690Y-90565000D01*
X103038916Y-90629110D01*
X103108327Y-90559699D01*
X103140335Y-90482426D01*
X103670000Y-90482426D01*
X103772650Y-90463111D01*
X103866885Y-90402472D01*
X103915383Y-90519846D01*
X103920420Y-90524891D01*
X103915855Y-90529448D01*
X103901093Y-90565000D01*
X103853750Y-90565000D01*
X103695000Y-90723750D01*
X103695000Y-91373000D01*
X103717000Y-91373000D01*
X103717000Y-91627000D01*
X103695000Y-91627000D01*
X103695000Y-91647000D01*
X103445000Y-91647000D01*
X103445000Y-91627000D01*
X102395000Y-91627000D01*
X102395000Y-91647000D01*
X102145000Y-91647000D01*
X102145000Y-91627000D01*
X101543750Y-91627000D01*
X101385000Y-91785750D01*
X101385000Y-91926309D01*
X101481673Y-92159698D01*
X101660301Y-92338327D01*
X101737574Y-92370335D01*
X101737574Y-92900000D01*
X101756889Y-93002650D01*
X101817555Y-93096927D01*
X101847772Y-93117574D01*
X101820000Y-93117574D01*
X101717350Y-93136889D01*
X101623073Y-93197555D01*
X101559825Y-93290120D01*
X101537574Y-93400000D01*
X101537574Y-95300000D01*
X101556889Y-95402650D01*
X101569984Y-95423000D01*
X101475535Y-95422917D01*
X101300154Y-95495383D01*
X101165855Y-95629448D01*
X101143076Y-95684307D01*
X101094272Y-95651697D01*
X101032426Y-95639395D01*
X101032426Y-95250000D01*
X101013111Y-95147350D01*
X100952445Y-95053073D01*
X100873924Y-94999421D01*
X100946927Y-94952445D01*
X101010175Y-94859880D01*
X101032426Y-94750000D01*
X101032426Y-93250000D01*
X101013111Y-93147350D01*
X100952445Y-93053073D01*
X100873924Y-92999421D01*
X100946927Y-92952445D01*
X101010175Y-92859880D01*
X101032426Y-92750000D01*
X101032426Y-91250000D01*
X101013111Y-91147350D01*
X100952445Y-91053073D01*
X100873924Y-90999421D01*
X100946927Y-90952445D01*
X101010175Y-90859880D01*
X101032426Y-90750000D01*
X101032426Y-90233750D01*
X101335000Y-90233750D01*
X101335000Y-90326310D01*
X101431673Y-90559699D01*
X101596975Y-90725000D01*
X101481673Y-90840302D01*
X101385000Y-91073691D01*
X101385000Y-91214250D01*
X101543750Y-91373000D01*
X102145000Y-91373000D01*
X102145000Y-90723750D01*
X102120250Y-90699000D01*
X102143000Y-90676250D01*
X102143000Y-90075000D01*
X101493750Y-90075000D01*
X101335000Y-90233750D01*
X101032426Y-90233750D01*
X101032426Y-89250000D01*
X101013111Y-89147350D01*
X100952445Y-89053073D01*
X100873924Y-88999421D01*
X100946927Y-88952445D01*
X101010175Y-88859880D01*
X101032426Y-88750000D01*
X101032426Y-87250000D01*
X101013111Y-87147350D01*
X100952445Y-87053073D01*
X100873924Y-86999421D01*
X100946927Y-86952445D01*
X100973570Y-86913452D01*
X100973560Y-86924803D01*
G36*
X116967574Y-88750000D02*
X116986889Y-88852650D01*
X117047555Y-88946927D01*
X117126076Y-89000579D01*
X117053073Y-89047555D01*
X116989825Y-89140120D01*
X116967574Y-89250000D01*
X116967574Y-90750000D01*
X116986889Y-90852650D01*
X117047555Y-90946927D01*
X117126076Y-91000579D01*
X117053073Y-91047555D01*
X116989825Y-91140120D01*
X116967574Y-91250000D01*
X116967574Y-92750000D01*
X116986889Y-92852650D01*
X117047555Y-92946927D01*
X117126076Y-93000579D01*
X117053073Y-93047555D01*
X116989825Y-93140120D01*
X116967574Y-93250000D01*
X116967574Y-94750000D01*
X116986889Y-94852650D01*
X117047555Y-94946927D01*
X117126076Y-95000579D01*
X117053073Y-95047555D01*
X116989825Y-95140120D01*
X116967574Y-95250000D01*
X116967574Y-95623000D01*
X116635154Y-95623000D01*
X116346998Y-95334844D01*
X116346998Y-95215156D01*
X116686592Y-94875562D01*
X116768316Y-94753255D01*
X116773538Y-94727000D01*
X116797013Y-94608983D01*
X116797013Y-93793605D01*
X116768316Y-93649333D01*
X116686592Y-93527026D01*
X116452592Y-93293026D01*
X116330285Y-93211302D01*
X116186013Y-93182605D01*
X116099767Y-93182605D01*
X113850584Y-90933422D01*
X113728277Y-90851698D01*
X113584005Y-90823001D01*
X113346937Y-90823001D01*
X113346977Y-90777068D01*
X113364465Y-90777083D01*
X113539846Y-90704617D01*
X113674145Y-90570552D01*
X113746917Y-90395297D01*
X113747035Y-90260193D01*
X115243038Y-91756196D01*
X115242900Y-91914269D01*
X115330558Y-92126417D01*
X115492729Y-92288871D01*
X115704724Y-92376900D01*
X115934269Y-92377100D01*
X116146417Y-92289442D01*
X116308871Y-92127271D01*
X116396900Y-91915276D01*
X116397100Y-91685731D01*
X116309442Y-91473583D01*
X116297000Y-91461119D01*
X116297000Y-89697580D01*
X116367495Y-89627085D01*
X116384269Y-89627100D01*
X116596417Y-89539442D01*
X116758871Y-89377271D01*
X116846900Y-89165276D01*
X116847100Y-88935731D01*
X116759442Y-88723583D01*
X116597271Y-88561129D01*
X116385276Y-88473100D01*
X116316116Y-88473040D01*
X116412156Y-88377000D01*
X116967574Y-88377000D01*
X116967574Y-88750000D01*
X116967574Y-88750000D01*
G37*
X116967574Y-88750000D02*
X116986889Y-88852650D01*
X117047555Y-88946927D01*
X117126076Y-89000579D01*
X117053073Y-89047555D01*
X116989825Y-89140120D01*
X116967574Y-89250000D01*
X116967574Y-90750000D01*
X116986889Y-90852650D01*
X117047555Y-90946927D01*
X117126076Y-91000579D01*
X117053073Y-91047555D01*
X116989825Y-91140120D01*
X116967574Y-91250000D01*
X116967574Y-92750000D01*
X116986889Y-92852650D01*
X117047555Y-92946927D01*
X117126076Y-93000579D01*
X117053073Y-93047555D01*
X116989825Y-93140120D01*
X116967574Y-93250000D01*
X116967574Y-94750000D01*
X116986889Y-94852650D01*
X117047555Y-94946927D01*
X117126076Y-95000579D01*
X117053073Y-95047555D01*
X116989825Y-95140120D01*
X116967574Y-95250000D01*
X116967574Y-95623000D01*
X116635154Y-95623000D01*
X116346998Y-95334844D01*
X116346998Y-95215156D01*
X116686592Y-94875562D01*
X116768316Y-94753255D01*
X116773538Y-94727000D01*
X116797013Y-94608983D01*
X116797013Y-93793605D01*
X116768316Y-93649333D01*
X116686592Y-93527026D01*
X116452592Y-93293026D01*
X116330285Y-93211302D01*
X116186013Y-93182605D01*
X116099767Y-93182605D01*
X113850584Y-90933422D01*
X113728277Y-90851698D01*
X113584005Y-90823001D01*
X113346937Y-90823001D01*
X113346977Y-90777068D01*
X113364465Y-90777083D01*
X113539846Y-90704617D01*
X113674145Y-90570552D01*
X113746917Y-90395297D01*
X113747035Y-90260193D01*
X115243038Y-91756196D01*
X115242900Y-91914269D01*
X115330558Y-92126417D01*
X115492729Y-92288871D01*
X115704724Y-92376900D01*
X115934269Y-92377100D01*
X116146417Y-92289442D01*
X116308871Y-92127271D01*
X116396900Y-91915276D01*
X116397100Y-91685731D01*
X116309442Y-91473583D01*
X116297000Y-91461119D01*
X116297000Y-89697580D01*
X116367495Y-89627085D01*
X116384269Y-89627100D01*
X116596417Y-89539442D01*
X116758871Y-89377271D01*
X116846900Y-89165276D01*
X116847100Y-88935731D01*
X116759442Y-88723583D01*
X116597271Y-88561129D01*
X116385276Y-88473100D01*
X116316116Y-88473040D01*
X116412156Y-88377000D01*
X116967574Y-88377000D01*
X116967574Y-88750000D01*
G36*
X114747000Y-89525000D02*
X114767000Y-89525000D01*
X114767000Y-89775000D01*
X114747000Y-89775000D01*
X114747000Y-89797000D01*
X114493000Y-89797000D01*
X114493000Y-89775000D01*
X114473000Y-89775000D01*
X114473000Y-89525000D01*
X114493000Y-89525000D01*
X114493000Y-89503000D01*
X114747000Y-89503000D01*
X114747000Y-89525000D01*
X114747000Y-89525000D01*
G37*
X114747000Y-89525000D02*
X114767000Y-89525000D01*
X114767000Y-89775000D01*
X114747000Y-89775000D01*
X114747000Y-89797000D01*
X114493000Y-89797000D01*
X114493000Y-89775000D01*
X114473000Y-89775000D01*
X114473000Y-89525000D01*
X114493000Y-89525000D01*
X114493000Y-89503000D01*
X114747000Y-89503000D01*
X114747000Y-89525000D01*
G36*
X108647000Y-88773000D02*
X108667000Y-88773000D01*
X108667000Y-89027000D01*
X108647000Y-89027000D01*
X108647000Y-89047000D01*
X108393000Y-89047000D01*
X108393000Y-89027000D01*
X108373000Y-89027000D01*
X108373000Y-88773000D01*
X108393000Y-88773000D01*
X108393000Y-88753000D01*
X108647000Y-88753000D01*
X108647000Y-88773000D01*
X108647000Y-88773000D01*
G37*
X108647000Y-88773000D02*
X108667000Y-88773000D01*
X108667000Y-89027000D01*
X108647000Y-89027000D01*
X108647000Y-89047000D01*
X108393000Y-89047000D01*
X108393000Y-89027000D01*
X108373000Y-89027000D01*
X108373000Y-88773000D01*
X108393000Y-88773000D01*
X108393000Y-88753000D01*
X108647000Y-88753000D01*
X108647000Y-88773000D01*
G36*
X102867555Y-87496927D02*
X102896295Y-87516564D01*
X102921697Y-87644272D01*
X103003421Y-87766579D01*
X103166616Y-87929775D01*
X103232430Y-87973750D01*
X103288923Y-88011498D01*
X103433195Y-88040195D01*
X103947781Y-88040195D01*
X103947644Y-88197192D01*
X104020110Y-88372573D01*
X104154175Y-88506872D01*
X104329430Y-88579644D01*
X104519192Y-88579810D01*
X104530833Y-88575000D01*
X104833329Y-88575000D01*
X104870000Y-88582426D01*
X105085000Y-88582426D01*
X105085000Y-88614250D01*
X105188324Y-88717574D01*
X104870000Y-88717574D01*
X104830534Y-88725000D01*
X104393750Y-88725000D01*
X104345750Y-88773000D01*
X103976158Y-88773000D01*
X103952426Y-88749268D01*
X103952426Y-88450000D01*
X103933111Y-88347350D01*
X103872445Y-88253073D01*
X103779880Y-88189825D01*
X103670000Y-88167574D01*
X103140335Y-88167574D01*
X103108327Y-88090301D01*
X102929698Y-87911673D01*
X102696309Y-87815000D01*
X102555750Y-87815000D01*
X102397000Y-87973750D01*
X102397000Y-88575000D01*
X102417000Y-88575000D01*
X102417000Y-88823001D01*
X102123000Y-88823001D01*
X102123000Y-88575000D01*
X102143000Y-88575000D01*
X102143000Y-87973750D01*
X102086204Y-87916954D01*
X102420733Y-87582426D01*
X102570000Y-87582426D01*
X102672650Y-87563111D01*
X102766927Y-87502445D01*
X102820579Y-87423924D01*
X102867555Y-87496927D01*
X102867555Y-87496927D01*
G37*
X102867555Y-87496927D02*
X102896295Y-87516564D01*
X102921697Y-87644272D01*
X103003421Y-87766579D01*
X103166616Y-87929775D01*
X103232430Y-87973750D01*
X103288923Y-88011498D01*
X103433195Y-88040195D01*
X103947781Y-88040195D01*
X103947644Y-88197192D01*
X104020110Y-88372573D01*
X104154175Y-88506872D01*
X104329430Y-88579644D01*
X104519192Y-88579810D01*
X104530833Y-88575000D01*
X104833329Y-88575000D01*
X104870000Y-88582426D01*
X105085000Y-88582426D01*
X105085000Y-88614250D01*
X105188324Y-88717574D01*
X104870000Y-88717574D01*
X104830534Y-88725000D01*
X104393750Y-88725000D01*
X104345750Y-88773000D01*
X103976158Y-88773000D01*
X103952426Y-88749268D01*
X103952426Y-88450000D01*
X103933111Y-88347350D01*
X103872445Y-88253073D01*
X103779880Y-88189825D01*
X103670000Y-88167574D01*
X103140335Y-88167574D01*
X103108327Y-88090301D01*
X102929698Y-87911673D01*
X102696309Y-87815000D01*
X102555750Y-87815000D01*
X102397000Y-87973750D01*
X102397000Y-88575000D01*
X102417000Y-88575000D01*
X102417000Y-88823001D01*
X102123000Y-88823001D01*
X102123000Y-88575000D01*
X102143000Y-88575000D01*
X102143000Y-87973750D01*
X102086204Y-87916954D01*
X102420733Y-87582426D01*
X102570000Y-87582426D01*
X102672650Y-87563111D01*
X102766927Y-87502445D01*
X102820579Y-87423924D01*
X102867555Y-87496927D01*
G36*
X103615000Y-78876309D02*
X103711673Y-79109698D01*
X103890301Y-79288327D01*
X104123690Y-79385000D01*
X104714250Y-79385000D01*
X104873000Y-79226250D01*
X104873000Y-78327000D01*
X105127000Y-78327000D01*
X105127000Y-79226250D01*
X105285750Y-79385000D01*
X105876310Y-79385000D01*
X106109699Y-79288327D01*
X106288327Y-79109698D01*
X106320334Y-79032426D01*
X106384416Y-79032426D01*
X105983422Y-79433420D01*
X105901698Y-79555727D01*
X105873001Y-79699999D01*
X105873001Y-83999998D01*
X105901698Y-84144270D01*
X105983422Y-84266577D01*
X106393000Y-84676156D01*
X106393000Y-84725750D01*
X106345000Y-84773750D01*
X106345000Y-85213329D01*
X106337574Y-85250000D01*
X106337574Y-85465000D01*
X106202426Y-85465000D01*
X106202426Y-85250000D01*
X106195000Y-85210534D01*
X106195000Y-84773750D01*
X106036250Y-84615000D01*
X105993690Y-84615000D01*
X105760301Y-84711673D01*
X105687567Y-84784408D01*
X105036579Y-84133421D01*
X104914272Y-84051697D01*
X104770000Y-84023000D01*
X104695025Y-84023000D01*
X104758327Y-83959698D01*
X104855000Y-83726309D01*
X104855000Y-83585750D01*
X104696250Y-83427000D01*
X104095000Y-83427000D01*
X104095000Y-83447000D01*
X103845000Y-83447000D01*
X103845000Y-83427000D01*
X103823000Y-83427000D01*
X103823000Y-83173000D01*
X103845000Y-83173000D01*
X103845000Y-82523750D01*
X104095000Y-82523750D01*
X104095000Y-83173000D01*
X104696250Y-83173000D01*
X104855000Y-83014250D01*
X104855000Y-82873691D01*
X104758327Y-82640302D01*
X104579699Y-82461673D01*
X104346310Y-82365000D01*
X104253750Y-82365000D01*
X104095000Y-82523750D01*
X103845000Y-82523750D01*
X103686250Y-82365000D01*
X103593690Y-82365000D01*
X103360301Y-82461673D01*
X103181673Y-82640302D01*
X103147000Y-82724010D01*
X103147000Y-81709340D01*
X103118303Y-81565068D01*
X103036579Y-81442761D01*
X101327239Y-79733421D01*
X101204932Y-79651697D01*
X101060660Y-79623000D01*
X101032426Y-79623000D01*
X101032426Y-79250000D01*
X101013111Y-79147350D01*
X100952445Y-79053073D01*
X100859880Y-78989825D01*
X100750000Y-78967574D01*
X100327000Y-78967574D01*
X100327000Y-78327000D01*
X103615000Y-78327000D01*
X103615000Y-78876309D01*
X103615000Y-78876309D01*
G37*
X103615000Y-78876309D02*
X103711673Y-79109698D01*
X103890301Y-79288327D01*
X104123690Y-79385000D01*
X104714250Y-79385000D01*
X104873000Y-79226250D01*
X104873000Y-78327000D01*
X105127000Y-78327000D01*
X105127000Y-79226250D01*
X105285750Y-79385000D01*
X105876310Y-79385000D01*
X106109699Y-79288327D01*
X106288327Y-79109698D01*
X106320334Y-79032426D01*
X106384416Y-79032426D01*
X105983422Y-79433420D01*
X105901698Y-79555727D01*
X105873001Y-79699999D01*
X105873001Y-83999998D01*
X105901698Y-84144270D01*
X105983422Y-84266577D01*
X106393000Y-84676156D01*
X106393000Y-84725750D01*
X106345000Y-84773750D01*
X106345000Y-85213329D01*
X106337574Y-85250000D01*
X106337574Y-85465000D01*
X106202426Y-85465000D01*
X106202426Y-85250000D01*
X106195000Y-85210534D01*
X106195000Y-84773750D01*
X106036250Y-84615000D01*
X105993690Y-84615000D01*
X105760301Y-84711673D01*
X105687567Y-84784408D01*
X105036579Y-84133421D01*
X104914272Y-84051697D01*
X104770000Y-84023000D01*
X104695025Y-84023000D01*
X104758327Y-83959698D01*
X104855000Y-83726309D01*
X104855000Y-83585750D01*
X104696250Y-83427000D01*
X104095000Y-83427000D01*
X104095000Y-83447000D01*
X103845000Y-83447000D01*
X103845000Y-83427000D01*
X103823000Y-83427000D01*
X103823000Y-83173000D01*
X103845000Y-83173000D01*
X103845000Y-82523750D01*
X104095000Y-82523750D01*
X104095000Y-83173000D01*
X104696250Y-83173000D01*
X104855000Y-83014250D01*
X104855000Y-82873691D01*
X104758327Y-82640302D01*
X104579699Y-82461673D01*
X104346310Y-82365000D01*
X104253750Y-82365000D01*
X104095000Y-82523750D01*
X103845000Y-82523750D01*
X103686250Y-82365000D01*
X103593690Y-82365000D01*
X103360301Y-82461673D01*
X103181673Y-82640302D01*
X103147000Y-82724010D01*
X103147000Y-81709340D01*
X103118303Y-81565068D01*
X103036579Y-81442761D01*
X101327239Y-79733421D01*
X101204932Y-79651697D01*
X101060660Y-79623000D01*
X101032426Y-79623000D01*
X101032426Y-79250000D01*
X101013111Y-79147350D01*
X100952445Y-79053073D01*
X100859880Y-78989825D01*
X100750000Y-78967574D01*
X100327000Y-78967574D01*
X100327000Y-78327000D01*
X103615000Y-78327000D01*
X103615000Y-78876309D01*
G36*
X107595000Y-82573000D02*
X107617000Y-82573000D01*
X107617000Y-82827000D01*
X107595000Y-82827000D01*
X107595000Y-83476250D01*
X107732310Y-83613560D01*
X107699442Y-83692715D01*
X107699408Y-83731805D01*
X107503421Y-83927792D01*
X107421697Y-84050099D01*
X107411834Y-84099682D01*
X106977012Y-83664860D01*
X106977012Y-83586670D01*
X107093690Y-83635000D01*
X107186250Y-83635000D01*
X107345000Y-83476250D01*
X107345000Y-82827000D01*
X107323000Y-82827000D01*
X107323000Y-82573000D01*
X107345000Y-82573000D01*
X107345000Y-82553000D01*
X107595000Y-82553000D01*
X107595000Y-82573000D01*
X107595000Y-82573000D01*
G37*
X107595000Y-82573000D02*
X107617000Y-82573000D01*
X107617000Y-82827000D01*
X107595000Y-82827000D01*
X107595000Y-83476250D01*
X107732310Y-83613560D01*
X107699442Y-83692715D01*
X107699408Y-83731805D01*
X107503421Y-83927792D01*
X107421697Y-84050099D01*
X107411834Y-84099682D01*
X106977012Y-83664860D01*
X106977012Y-83586670D01*
X107093690Y-83635000D01*
X107186250Y-83635000D01*
X107345000Y-83476250D01*
X107345000Y-82827000D01*
X107323000Y-82827000D01*
X107323000Y-82573000D01*
X107345000Y-82573000D01*
X107345000Y-82553000D01*
X107595000Y-82553000D01*
X107595000Y-82573000D01*
G36*
X114317459Y-79940691D02*
X114500000Y-79977000D01*
X114592232Y-79977000D01*
X114587574Y-80000000D01*
X114587574Y-80900000D01*
X114606889Y-81002650D01*
X114667555Y-81096927D01*
X114760120Y-81160175D01*
X114870000Y-81182426D01*
X115370000Y-81182426D01*
X115472650Y-81163111D01*
X115493001Y-81150015D01*
X115493001Y-82348790D01*
X115479880Y-82339825D01*
X115370000Y-82317574D01*
X114870000Y-82317574D01*
X114767350Y-82336889D01*
X114673073Y-82397555D01*
X114609825Y-82490120D01*
X114593042Y-82573000D01*
X114247346Y-82573000D01*
X114233111Y-82497350D01*
X114172445Y-82403073D01*
X114079880Y-82339825D01*
X113970000Y-82317574D01*
X113470000Y-82317574D01*
X113367350Y-82336889D01*
X113273073Y-82397555D01*
X113209825Y-82490120D01*
X113187574Y-82600000D01*
X113187574Y-83500000D01*
X113206889Y-83602650D01*
X113267555Y-83696927D01*
X113360120Y-83760175D01*
X113396658Y-83767574D01*
X113062154Y-83767574D01*
X112647000Y-83352420D01*
X112647000Y-82008432D01*
X112680175Y-81959880D01*
X112702426Y-81850000D01*
X112702426Y-81320335D01*
X112779699Y-81288327D01*
X112958327Y-81109698D01*
X113055000Y-80876309D01*
X113055000Y-80735750D01*
X112896250Y-80577000D01*
X112295000Y-80577000D01*
X112295000Y-80597000D01*
X112045000Y-80597000D01*
X112045000Y-80577000D01*
X112023000Y-80577000D01*
X112023000Y-80323000D01*
X112045000Y-80323000D01*
X112045000Y-80303000D01*
X112295000Y-80303000D01*
X112295000Y-80323000D01*
X112896250Y-80323000D01*
X113055000Y-80164250D01*
X113055000Y-80023691D01*
X113035660Y-79977000D01*
X113122420Y-79977000D01*
X113187574Y-80042154D01*
X113187574Y-80900000D01*
X113206889Y-81002650D01*
X113267555Y-81096927D01*
X113360120Y-81160175D01*
X113470000Y-81182426D01*
X113970000Y-81182426D01*
X114072650Y-81163111D01*
X114166927Y-81102445D01*
X114230175Y-81009880D01*
X114252426Y-80900000D01*
X114252426Y-80000000D01*
X114233111Y-79897350D01*
X114218414Y-79874511D01*
X114317459Y-79940691D01*
X114317459Y-79940691D01*
G37*
X114317459Y-79940691D02*
X114500000Y-79977000D01*
X114592232Y-79977000D01*
X114587574Y-80000000D01*
X114587574Y-80900000D01*
X114606889Y-81002650D01*
X114667555Y-81096927D01*
X114760120Y-81160175D01*
X114870000Y-81182426D01*
X115370000Y-81182426D01*
X115472650Y-81163111D01*
X115493001Y-81150015D01*
X115493001Y-82348790D01*
X115479880Y-82339825D01*
X115370000Y-82317574D01*
X114870000Y-82317574D01*
X114767350Y-82336889D01*
X114673073Y-82397555D01*
X114609825Y-82490120D01*
X114593042Y-82573000D01*
X114247346Y-82573000D01*
X114233111Y-82497350D01*
X114172445Y-82403073D01*
X114079880Y-82339825D01*
X113970000Y-82317574D01*
X113470000Y-82317574D01*
X113367350Y-82336889D01*
X113273073Y-82397555D01*
X113209825Y-82490120D01*
X113187574Y-82600000D01*
X113187574Y-83500000D01*
X113206889Y-83602650D01*
X113267555Y-83696927D01*
X113360120Y-83760175D01*
X113396658Y-83767574D01*
X113062154Y-83767574D01*
X112647000Y-83352420D01*
X112647000Y-82008432D01*
X112680175Y-81959880D01*
X112702426Y-81850000D01*
X112702426Y-81320335D01*
X112779699Y-81288327D01*
X112958327Y-81109698D01*
X113055000Y-80876309D01*
X113055000Y-80735750D01*
X112896250Y-80577000D01*
X112295000Y-80577000D01*
X112295000Y-80597000D01*
X112045000Y-80597000D01*
X112045000Y-80577000D01*
X112023000Y-80577000D01*
X112023000Y-80323000D01*
X112045000Y-80323000D01*
X112045000Y-80303000D01*
X112295000Y-80303000D01*
X112295000Y-80323000D01*
X112896250Y-80323000D01*
X113055000Y-80164250D01*
X113055000Y-80023691D01*
X113035660Y-79977000D01*
X113122420Y-79977000D01*
X113187574Y-80042154D01*
X113187574Y-80900000D01*
X113206889Y-81002650D01*
X113267555Y-81096927D01*
X113360120Y-81160175D01*
X113470000Y-81182426D01*
X113970000Y-81182426D01*
X114072650Y-81163111D01*
X114166927Y-81102445D01*
X114230175Y-81009880D01*
X114252426Y-80900000D01*
X114252426Y-80000000D01*
X114233111Y-79897350D01*
X114218414Y-79874511D01*
X114317459Y-79940691D01*
G36*
X110687460Y-82590691D02*
X110870000Y-82627000D01*
X111570000Y-82627000D01*
X111693000Y-82602534D01*
X111693000Y-83550000D01*
X111711831Y-83644671D01*
X111586664Y-83519504D01*
X111464357Y-83437780D01*
X111320085Y-83409083D01*
X110558942Y-83409083D01*
X110658327Y-83309699D01*
X110755000Y-83076310D01*
X110755000Y-82983750D01*
X110596250Y-82825000D01*
X109947000Y-82825000D01*
X109947000Y-82847000D01*
X109693000Y-82847000D01*
X109693000Y-82825000D01*
X109673000Y-82825000D01*
X109673000Y-82575000D01*
X109693000Y-82575000D01*
X109693000Y-82553000D01*
X109947000Y-82553000D01*
X109947000Y-82575000D01*
X110596250Y-82575000D01*
X110623378Y-82547872D01*
X110687460Y-82590691D01*
X110687460Y-82590691D01*
G37*
X110687460Y-82590691D02*
X110870000Y-82627000D01*
X111570000Y-82627000D01*
X111693000Y-82602534D01*
X111693000Y-83550000D01*
X111711831Y-83644671D01*
X111586664Y-83519504D01*
X111464357Y-83437780D01*
X111320085Y-83409083D01*
X110558942Y-83409083D01*
X110658327Y-83309699D01*
X110755000Y-83076310D01*
X110755000Y-82983750D01*
X110596250Y-82825000D01*
X109947000Y-82825000D01*
X109947000Y-82847000D01*
X109693000Y-82847000D01*
X109693000Y-82825000D01*
X109673000Y-82825000D01*
X109673000Y-82575000D01*
X109693000Y-82575000D01*
X109693000Y-82553000D01*
X109947000Y-82553000D01*
X109947000Y-82575000D01*
X110596250Y-82575000D01*
X110623378Y-82547872D01*
X110687460Y-82590691D01*
G36*
X110047555Y-78946927D02*
X110140120Y-79010175D01*
X110250000Y-79032426D01*
X110638673Y-79032426D01*
X110662710Y-79068400D01*
X111383142Y-79788832D01*
X111381673Y-79790302D01*
X111306933Y-79970739D01*
X111248904Y-79912710D01*
X111094154Y-79809309D01*
X110911614Y-79773000D01*
X110496795Y-79773000D01*
X110470000Y-79767574D01*
X110365335Y-79767574D01*
X110333327Y-79690301D01*
X110154698Y-79511673D01*
X109921309Y-79415000D01*
X109605750Y-79415000D01*
X109447000Y-79573750D01*
X109447000Y-80375725D01*
X109365000Y-80573690D01*
X109365000Y-80641250D01*
X109447000Y-80723250D01*
X109447000Y-80773000D01*
X109496750Y-80773000D01*
X109523750Y-80800000D01*
X110117500Y-80800000D01*
X110117500Y-80773000D01*
X110271250Y-80773000D01*
X110291250Y-80753000D01*
X110352500Y-80753000D01*
X110352500Y-80800000D01*
X110382000Y-80800000D01*
X110382000Y-81000000D01*
X110352500Y-81000000D01*
X110352500Y-81047000D01*
X110291250Y-81047000D01*
X110271250Y-81027000D01*
X110117500Y-81027000D01*
X110117500Y-81000000D01*
X109523750Y-81000000D01*
X109496750Y-81027000D01*
X109447000Y-81027000D01*
X109447000Y-81047000D01*
X109193000Y-81047000D01*
X109193000Y-81027000D01*
X109173000Y-81027000D01*
X109173000Y-80773000D01*
X109193000Y-80773000D01*
X109193000Y-79573750D01*
X109034250Y-79415000D01*
X108718691Y-79415000D01*
X108485302Y-79511673D01*
X108306673Y-79690301D01*
X108274665Y-79767574D01*
X108170000Y-79767574D01*
X108141163Y-79773000D01*
X107960160Y-79773000D01*
X108406160Y-79327001D01*
X108999999Y-79327001D01*
X109144271Y-79298304D01*
X109266578Y-79216580D01*
X109348302Y-79094273D01*
X109360604Y-79032426D01*
X109750000Y-79032426D01*
X109852650Y-79013111D01*
X109946927Y-78952445D01*
X110000579Y-78873924D01*
X110047555Y-78946927D01*
X110047555Y-78946927D01*
G37*
X110047555Y-78946927D02*
X110140120Y-79010175D01*
X110250000Y-79032426D01*
X110638673Y-79032426D01*
X110662710Y-79068400D01*
X111383142Y-79788832D01*
X111381673Y-79790302D01*
X111306933Y-79970739D01*
X111248904Y-79912710D01*
X111094154Y-79809309D01*
X110911614Y-79773000D01*
X110496795Y-79773000D01*
X110470000Y-79767574D01*
X110365335Y-79767574D01*
X110333327Y-79690301D01*
X110154698Y-79511673D01*
X109921309Y-79415000D01*
X109605750Y-79415000D01*
X109447000Y-79573750D01*
X109447000Y-80375725D01*
X109365000Y-80573690D01*
X109365000Y-80641250D01*
X109447000Y-80723250D01*
X109447000Y-80773000D01*
X109496750Y-80773000D01*
X109523750Y-80800000D01*
X110117500Y-80800000D01*
X110117500Y-80773000D01*
X110271250Y-80773000D01*
X110291250Y-80753000D01*
X110352500Y-80753000D01*
X110352500Y-80800000D01*
X110382000Y-80800000D01*
X110382000Y-81000000D01*
X110352500Y-81000000D01*
X110352500Y-81047000D01*
X110291250Y-81047000D01*
X110271250Y-81027000D01*
X110117500Y-81027000D01*
X110117500Y-81000000D01*
X109523750Y-81000000D01*
X109496750Y-81027000D01*
X109447000Y-81027000D01*
X109447000Y-81047000D01*
X109193000Y-81047000D01*
X109193000Y-81027000D01*
X109173000Y-81027000D01*
X109173000Y-80773000D01*
X109193000Y-80773000D01*
X109193000Y-79573750D01*
X109034250Y-79415000D01*
X108718691Y-79415000D01*
X108485302Y-79511673D01*
X108306673Y-79690301D01*
X108274665Y-79767574D01*
X108170000Y-79767574D01*
X108141163Y-79773000D01*
X107960160Y-79773000D01*
X108406160Y-79327001D01*
X108999999Y-79327001D01*
X109144271Y-79298304D01*
X109266578Y-79216580D01*
X109348302Y-79094273D01*
X109360604Y-79032426D01*
X109750000Y-79032426D01*
X109852650Y-79013111D01*
X109946927Y-78952445D01*
X110000579Y-78873924D01*
X110047555Y-78946927D01*
M02*
