G04 #@! TF.FileFunction,Legend,Top*
%FSLAX46Y46*%
G04 Gerber Fmt 4.6, Leading zero omitted, Abs format (unit mm)*
G04 Created by KiCad (PCBNEW 4.0.4-stable) date 05/29/18 15:09:19*
%MOMM*%
%LPD*%
G01*
G04 APERTURE LIST*
%ADD10C,0.100000*%
%ADD11C,0.250000*%
%ADD12C,0.150000*%
%ADD13C,0.127000*%
G04 APERTURE END LIST*
D10*
D11*
X102008095Y-95902381D02*
X102579524Y-95902381D01*
X102293809Y-96902381D02*
X102293809Y-95902381D01*
X102817619Y-95902381D02*
X103484286Y-96902381D01*
X103484286Y-95902381D02*
X102817619Y-96902381D01*
X114603334Y-96602381D02*
X114270000Y-96126190D01*
X114031905Y-96602381D02*
X114031905Y-95602381D01*
X114412858Y-95602381D01*
X114508096Y-95650000D01*
X114555715Y-95697619D01*
X114603334Y-95792857D01*
X114603334Y-95935714D01*
X114555715Y-96030952D01*
X114508096Y-96078571D01*
X114412858Y-96126190D01*
X114031905Y-96126190D01*
X114936667Y-95602381D02*
X115603334Y-96602381D01*
X115603334Y-95602381D02*
X114936667Y-96602381D01*
D10*
X100000000Y-100000000D02*
X100000000Y-78000000D01*
X118000000Y-100000000D02*
X100000000Y-100000000D01*
X118000000Y-78000000D02*
X118000000Y-100000000D01*
X100000000Y-78000000D02*
X118000000Y-78000000D01*
D12*
X103095000Y-91800000D02*
X103095000Y-92300000D01*
X104045000Y-92300000D02*
X104045000Y-91800000D01*
X102570000Y-90425000D02*
X103070000Y-90425000D01*
X103070000Y-89475000D02*
X102570000Y-89475000D01*
X101795000Y-91800000D02*
X101795000Y-92300000D01*
X102745000Y-92300000D02*
X102745000Y-91800000D01*
X102570000Y-89175000D02*
X103070000Y-89175000D01*
X103070000Y-88225000D02*
X102570000Y-88225000D01*
X111695000Y-80750000D02*
X111695000Y-81250000D01*
X112645000Y-81250000D02*
X112645000Y-80750000D01*
X107945000Y-82400000D02*
X107945000Y-81900000D01*
X106995000Y-81900000D02*
X106995000Y-82400000D01*
X114320000Y-89175000D02*
X113820000Y-89175000D01*
X113820000Y-90125000D02*
X114320000Y-90125000D01*
X103495000Y-83600000D02*
X103495000Y-84100000D01*
X104445000Y-84100000D02*
X104445000Y-83600000D01*
X116300000Y-99350000D02*
X116300000Y-97450000D01*
X115200000Y-99350000D02*
X115200000Y-97450000D01*
X115750000Y-98450000D02*
X115750000Y-98000000D01*
X115500000Y-98500000D02*
X116000000Y-98500000D01*
X115750000Y-98500000D02*
X115500000Y-98250000D01*
X115500000Y-98250000D02*
X116000000Y-98250000D01*
X116000000Y-98250000D02*
X115750000Y-98500000D01*
X102800000Y-99350000D02*
X102800000Y-97450000D01*
X101700000Y-99350000D02*
X101700000Y-97450000D01*
X102250000Y-98450000D02*
X102250000Y-98000000D01*
X102000000Y-98500000D02*
X102500000Y-98500000D01*
X102250000Y-98500000D02*
X102000000Y-98250000D01*
X102000000Y-98250000D02*
X102500000Y-98250000D01*
X102500000Y-98250000D02*
X102250000Y-98500000D01*
X113670000Y-83825000D02*
X114870000Y-83825000D01*
X114870000Y-85575000D02*
X113670000Y-85575000D01*
X103070000Y-86475000D02*
X102570000Y-86475000D01*
X102570000Y-87525000D02*
X103070000Y-87525000D01*
X114170000Y-96975000D02*
X113670000Y-96975000D01*
X113670000Y-98025000D02*
X114170000Y-98025000D01*
X103820000Y-98025000D02*
X104320000Y-98025000D01*
X104320000Y-96975000D02*
X103820000Y-96975000D01*
X101920000Y-93350000D02*
X105470000Y-93350000D01*
X101820000Y-95350000D02*
X105520000Y-95350000D01*
X114520000Y-82400000D02*
X114520000Y-81100000D01*
X114520000Y-81100000D02*
X115720000Y-81100000D01*
X115720000Y-81100000D02*
X115720000Y-82400000D01*
X115720000Y-82400000D02*
X114520000Y-82400000D01*
X114520000Y-82075000D02*
X115720000Y-82075000D01*
X113120000Y-82400000D02*
X113120000Y-81100000D01*
X113120000Y-81100000D02*
X114320000Y-81100000D01*
X114320000Y-81100000D02*
X114320000Y-82400000D01*
X114320000Y-82400000D02*
X113120000Y-82400000D01*
X113120000Y-82075000D02*
X114320000Y-82075000D01*
X109520000Y-82225000D02*
X109020000Y-82225000D01*
X109020000Y-83175000D02*
X109520000Y-83175000D01*
X109720000Y-81900000D02*
X108320000Y-81900000D01*
X110320000Y-79900000D02*
X108320000Y-79900000D01*
X109720000Y-81900000D02*
G75*
G03X110320000Y-81900000I300000J0D01*
G01*
X105370000Y-92450000D02*
X104970000Y-92050000D01*
X104970000Y-85750000D02*
X104970000Y-85350000D01*
X104970000Y-85350000D02*
X105370000Y-85350000D01*
X112070000Y-85750000D02*
X112070000Y-85350000D01*
X112070000Y-85350000D02*
X111670000Y-85350000D01*
X112070000Y-92050000D02*
X112070000Y-92450000D01*
X112070000Y-92450000D02*
X111670000Y-92450000D01*
D10*
X110020000Y-97250000D02*
G75*
G03X110020000Y-97250000I-1000000J0D01*
G01*
D13*
X106920000Y-98650000D02*
X106920000Y-95850000D01*
X111120000Y-95850000D02*
X106920000Y-95850000D01*
X111120000Y-98650000D02*
X106920000Y-98650000D01*
X111120000Y-98650000D02*
X111120000Y-95850000D01*
M02*
