G04 #@! TF.FileFunction,Copper,L2,Bot,Signal*
%FSLAX46Y46*%
G04 Gerber Fmt 4.6, Leading zero omitted, Abs format (unit mm)*
G04 Created by KiCad (PCBNEW 4.0.4-stable) date 03/01/18 20:45:57*
%MOMM*%
%LPD*%
G01*
G04 APERTURE LIST*
%ADD10C,0.100000*%
%ADD11R,1.700000X1.700000*%
%ADD12O,1.700000X1.700000*%
%ADD13O,0.950000X1.250000*%
%ADD14O,1.550000X1.000000*%
%ADD15R,2.032000X1.727200*%
%ADD16O,2.032000X1.727200*%
%ADD17R,1.050000X1.050000*%
%ADD18C,1.050000*%
%ADD19C,1.524000*%
%ADD20C,2.300000*%
%ADD21C,1.400000*%
%ADD22C,2.400000*%
%ADD23R,2.400000X2.400000*%
%ADD24C,0.600000*%
%ADD25C,0.890000*%
%ADD26C,0.200000*%
%ADD27C,0.400000*%
%ADD28C,1.000000*%
%ADD29C,0.600000*%
%ADD30C,0.254000*%
G04 APERTURE END LIST*
D10*
D11*
X236710000Y-153040000D03*
D12*
X239250000Y-153040000D03*
X236710000Y-155580000D03*
X239250000Y-155580000D03*
X236710000Y-158120000D03*
X239250000Y-158120000D03*
X236710000Y-160660000D03*
X239250000Y-160660000D03*
X236710000Y-163200000D03*
X239250000Y-163200000D03*
X236710000Y-165740000D03*
X239250000Y-165740000D03*
D13*
X241295000Y-128975000D03*
X241295000Y-123975000D03*
D14*
X243995000Y-129975000D03*
X243995000Y-122975000D03*
D15*
X169945000Y-163165000D03*
D16*
X169945000Y-160625000D03*
X169945000Y-158085000D03*
X169945000Y-155545000D03*
D17*
X218110000Y-104575000D03*
D18*
X216840000Y-104575000D03*
X215570000Y-104575000D03*
X214300000Y-104575000D03*
X213030000Y-104575000D03*
X216840000Y-105845000D03*
X215570000Y-105845000D03*
X214300000Y-105845000D03*
X213030000Y-105845000D03*
X218110000Y-105845000D03*
D19*
X192270000Y-114000000D03*
X192270000Y-116540000D03*
X192270000Y-111460000D03*
X200645000Y-113910000D03*
X200645000Y-116450000D03*
X200645000Y-111370000D03*
D20*
X174240000Y-110560000D03*
X182440000Y-110560000D03*
D21*
X180340000Y-110560000D03*
X178340000Y-110560000D03*
X176340000Y-110560000D03*
D22*
X162970000Y-138240000D03*
D23*
X162970000Y-134740000D03*
D22*
X162950000Y-120890000D03*
D23*
X162950000Y-117390000D03*
D24*
X226479990Y-145170000D03*
X223100000Y-148080000D03*
X215872885Y-140630697D03*
X216520072Y-135676704D03*
X222170000Y-140580000D03*
X237880000Y-131720000D03*
X225720000Y-127150000D03*
X219420000Y-116650000D03*
X217120000Y-116750000D03*
X205220000Y-117750000D03*
X205520000Y-121850000D03*
X204620000Y-127650000D03*
X218020000Y-164050000D03*
X212620000Y-163950000D03*
X207020000Y-164150000D03*
X201020000Y-164050000D03*
X224620000Y-142750000D03*
X224620000Y-106250000D03*
X181720000Y-124750000D03*
X176120000Y-119550000D03*
X183420000Y-113550000D03*
X204820000Y-134250000D03*
X194420000Y-127250000D03*
X187420000Y-132450000D03*
X213820000Y-128850000D03*
X210520000Y-128850000D03*
X217020000Y-123450000D03*
X219320000Y-127750000D03*
X228620000Y-126250000D03*
X234020000Y-120250000D03*
X239420000Y-125150000D03*
X216940000Y-143050000D03*
X188170000Y-123930000D03*
X215620000Y-129150000D03*
X216320000Y-131150000D03*
X196620000Y-133650000D03*
X210120000Y-143050000D03*
D25*
X233960000Y-134080000D03*
X235740000Y-137510000D03*
D24*
X182480000Y-117120000D03*
D25*
X226520000Y-115950000D03*
D24*
X214520000Y-108450000D03*
X225630000Y-145920000D03*
X214590040Y-135960036D03*
X224780000Y-145369990D03*
X215670672Y-136419139D03*
X225210000Y-154720000D03*
X214010000Y-130280000D03*
X220400000Y-155400000D03*
X213930000Y-131190000D03*
X228330000Y-157330000D03*
X214750000Y-127230000D03*
X221830000Y-161320000D03*
X210450000Y-132770000D03*
X220210000Y-162220000D03*
X210480000Y-134010000D03*
X220570000Y-159220000D03*
X212990000Y-135850000D03*
X221760000Y-159120000D03*
X213797917Y-135713030D03*
X227880000Y-153790010D03*
X224600000Y-133380000D03*
D26*
X219420000Y-116650000D02*
X217220000Y-116650000D01*
X217220000Y-116650000D02*
X217120000Y-116750000D01*
X224620000Y-106250000D02*
X224920000Y-106250000D01*
D27*
X216940000Y-143050000D02*
X210120000Y-143050000D01*
X188170000Y-123930000D02*
X200645000Y-111455000D01*
X200645000Y-111455000D02*
X200645000Y-111370000D01*
D26*
X216320000Y-131150000D02*
X215620000Y-130450000D01*
X215620000Y-130450000D02*
X215620000Y-129150000D01*
D27*
X210120000Y-143050000D02*
X196020000Y-143050000D01*
X196020000Y-143050000D02*
X187420000Y-143050000D01*
X196620000Y-133650000D02*
X196020000Y-134250000D01*
X196020000Y-134250000D02*
X196020000Y-143050000D01*
X187420000Y-143050000D02*
X167780000Y-143050000D01*
X187420000Y-143050000D02*
X174925000Y-155545000D01*
X174925000Y-155545000D02*
X169945000Y-155545000D01*
X167780000Y-143050000D02*
X162970000Y-138240000D01*
D28*
X178340000Y-110560000D02*
X185500001Y-103399999D01*
X185500001Y-103399999D02*
X185570001Y-103399999D01*
X187800000Y-101170000D02*
X228050000Y-101170000D01*
X185570001Y-103399999D02*
X187800000Y-101170000D01*
X228050000Y-101170000D02*
X242420010Y-115540010D01*
X242420010Y-115540010D02*
X242420010Y-130829990D01*
X242420010Y-130829990D02*
X239270000Y-133980000D01*
X239270000Y-133980000D02*
X235740000Y-137510000D01*
X233960000Y-134080000D02*
X234404999Y-134524999D01*
X234404999Y-134524999D02*
X238725001Y-134524999D01*
X238725001Y-134524999D02*
X239270000Y-133980000D01*
D29*
X221940000Y-111370000D02*
X220727999Y-110157999D01*
X220727999Y-110157999D02*
X189442001Y-110157999D01*
X189442001Y-110157999D02*
X182480000Y-117120000D01*
X226520000Y-115950000D02*
X221940000Y-111370000D01*
D26*
X218110000Y-105845000D02*
X215505000Y-108450000D01*
X215505000Y-108450000D02*
X214520000Y-108450000D01*
X224270000Y-145920000D02*
X225630000Y-145920000D01*
X214940059Y-136590059D02*
X224270000Y-145920000D01*
X214890039Y-136590059D02*
X214940059Y-136590059D01*
X214890039Y-136260035D02*
X214590040Y-135960036D01*
X214890039Y-136590059D02*
X214890039Y-136260035D01*
X224621523Y-145369990D02*
X224780000Y-145369990D01*
X215670672Y-136419139D02*
X224621523Y-145369990D01*
X227660000Y-151880000D02*
X225210000Y-154330000D01*
X225210000Y-154330000D02*
X225210000Y-154720000D01*
X227660000Y-151540000D02*
X227660000Y-151880000D01*
X227660000Y-143350000D02*
X227660000Y-151540000D01*
X214889999Y-130579999D02*
X227660000Y-143350000D01*
X214309999Y-130579999D02*
X214889999Y-130579999D01*
X214010000Y-130280000D02*
X214309999Y-130579999D01*
X227160000Y-151450000D02*
X223670000Y-154940000D01*
X223670000Y-154940000D02*
X220860000Y-154940000D01*
X220860000Y-154940000D02*
X220400000Y-155400000D01*
X227160000Y-143400000D02*
X227160000Y-151450000D01*
X215249999Y-131489999D02*
X227160000Y-143400000D01*
X214759999Y-131489999D02*
X215249999Y-131489999D01*
X213930000Y-131190000D02*
X214229999Y-131489999D01*
X214229999Y-131489999D02*
X214759999Y-131489999D01*
X228030001Y-157030001D02*
X228330000Y-157330000D01*
X227150000Y-156150000D02*
X228030001Y-157030001D01*
X228010011Y-143205021D02*
X228010011Y-152159989D01*
X227480011Y-142675021D02*
X228010011Y-143205021D01*
X227480011Y-139530011D02*
X227480011Y-142675021D01*
X216268002Y-128430000D02*
X216380000Y-128430000D01*
X216380000Y-128430000D02*
X227480011Y-139530011D01*
X227150000Y-153020000D02*
X227150000Y-156150000D01*
X228010011Y-152159989D02*
X227150000Y-153020000D01*
X216268002Y-128430000D02*
X216330000Y-128430000D01*
X214750000Y-127230000D02*
X214750000Y-127654264D01*
X214750000Y-127654264D02*
X215525736Y-128430000D01*
X215525736Y-128430000D02*
X216268002Y-128430000D01*
X218869989Y-158333993D02*
X218869989Y-158359989D01*
X218869989Y-158359989D02*
X221830000Y-161320000D01*
X218869989Y-142214979D02*
X218869989Y-158333993D01*
X216385020Y-139730010D02*
X218869989Y-142214979D01*
X216056008Y-139730010D02*
X216385020Y-139730010D01*
X212439999Y-136114001D02*
X216056008Y-139730010D01*
X212439999Y-134759999D02*
X212439999Y-136114001D01*
X210450000Y-132770000D02*
X212439999Y-134759999D01*
X218519978Y-158414242D02*
X218519978Y-160529978D01*
X218519978Y-160529978D02*
X220210000Y-162220000D01*
X218519978Y-142359958D02*
X218519978Y-158414242D01*
X216240041Y-140080021D02*
X218519978Y-142359958D01*
X215901029Y-140080021D02*
X216240041Y-140080021D01*
X210480000Y-134658992D02*
X215901029Y-140080021D01*
X210480000Y-134010000D02*
X210480000Y-134658992D01*
X219250000Y-157890000D02*
X219250000Y-157900000D01*
X219250000Y-157900000D02*
X220570000Y-159220000D01*
X219250000Y-142070000D02*
X219250000Y-157890000D01*
X213329999Y-136149999D02*
X219250000Y-142070000D01*
X213289999Y-136149999D02*
X213329999Y-136149999D01*
X212990000Y-135850000D02*
X213289999Y-136149999D01*
X213289999Y-136149999D02*
X213309999Y-136149999D01*
X221460001Y-158820001D02*
X221760000Y-159120000D01*
X219650010Y-157010010D02*
X221460001Y-158820001D01*
X219650010Y-153954980D02*
X219650010Y-157010010D01*
X219690011Y-153914979D02*
X219650010Y-153954980D01*
X219650010Y-141965020D02*
X219690011Y-142005021D01*
X219690011Y-142005021D02*
X219690011Y-153914979D01*
X213797917Y-135713030D02*
X213797917Y-136112927D01*
X213797917Y-136112927D02*
X219650010Y-141965020D01*
X219650010Y-141965020D02*
X219650010Y-141989387D01*
X228179999Y-153490011D02*
X227880000Y-153790010D01*
X228360021Y-153309989D02*
X228179999Y-153490011D01*
X228360021Y-137140021D02*
X228360021Y-153309989D01*
X224600000Y-133380000D02*
X228360021Y-137140021D01*
D30*
G36*
X242885829Y-99598631D02*
X244399781Y-100610221D01*
X245411370Y-102124173D01*
X245773000Y-103942208D01*
X245773000Y-181877794D01*
X245411369Y-183695830D01*
X244399779Y-185209781D01*
X242885827Y-186221370D01*
X241067792Y-186583000D01*
X163132207Y-186583000D01*
X161314171Y-186221370D01*
X159800220Y-185209780D01*
X158788629Y-183695828D01*
X158427000Y-181877793D01*
X158427000Y-180410000D01*
X162773000Y-180410000D01*
X162912072Y-181109163D01*
X163308116Y-181701884D01*
X163900837Y-182097928D01*
X164600000Y-182237000D01*
X165299163Y-182097928D01*
X165891884Y-181701884D01*
X166287928Y-181109163D01*
X166427000Y-180410000D01*
X237773000Y-180410000D01*
X237912072Y-181109163D01*
X238308116Y-181701884D01*
X238900837Y-182097928D01*
X239600000Y-182237000D01*
X240299163Y-182097928D01*
X240891884Y-181701884D01*
X241287928Y-181109163D01*
X241427000Y-180410000D01*
X241287928Y-179710837D01*
X240891884Y-179118116D01*
X240299163Y-178722072D01*
X239600000Y-178583000D01*
X238900837Y-178722072D01*
X238308116Y-179118116D01*
X237912072Y-179710837D01*
X237773000Y-180410000D01*
X166427000Y-180410000D01*
X166287928Y-179710837D01*
X165891884Y-179118116D01*
X165299163Y-178722072D01*
X164600000Y-178583000D01*
X163900837Y-178722072D01*
X163308116Y-179118116D01*
X162912072Y-179710837D01*
X162773000Y-180410000D01*
X158427000Y-180410000D01*
X158427000Y-165740000D01*
X235560921Y-165740000D01*
X235646709Y-166171284D01*
X235891012Y-166536909D01*
X236256637Y-166781212D01*
X236687921Y-166867000D01*
X236732079Y-166867000D01*
X237163363Y-166781212D01*
X237528988Y-166536909D01*
X237773291Y-166171284D01*
X237859079Y-165740000D01*
X238100921Y-165740000D01*
X238186709Y-166171284D01*
X238431012Y-166536909D01*
X238796637Y-166781212D01*
X239227921Y-166867000D01*
X239272079Y-166867000D01*
X239703363Y-166781212D01*
X240068988Y-166536909D01*
X240313291Y-166171284D01*
X240399079Y-165740000D01*
X240313291Y-165308716D01*
X240068988Y-164943091D01*
X239703363Y-164698788D01*
X239272079Y-164613000D01*
X239227921Y-164613000D01*
X238796637Y-164698788D01*
X238431012Y-164943091D01*
X238186709Y-165308716D01*
X238100921Y-165740000D01*
X237859079Y-165740000D01*
X237773291Y-165308716D01*
X237528988Y-164943091D01*
X237163363Y-164698788D01*
X236732079Y-164613000D01*
X236687921Y-164613000D01*
X236256637Y-164698788D01*
X235891012Y-164943091D01*
X235646709Y-165308716D01*
X235560921Y-165740000D01*
X158427000Y-165740000D01*
X158427000Y-162301400D01*
X168646574Y-162301400D01*
X168646574Y-164028600D01*
X168665889Y-164131250D01*
X168726555Y-164225527D01*
X168819120Y-164288775D01*
X168929000Y-164311026D01*
X170961000Y-164311026D01*
X171063650Y-164291711D01*
X171157927Y-164231045D01*
X171221175Y-164138480D01*
X171243426Y-164028600D01*
X171243426Y-163200000D01*
X235560921Y-163200000D01*
X235646709Y-163631284D01*
X235891012Y-163996909D01*
X236256637Y-164241212D01*
X236687921Y-164327000D01*
X236732079Y-164327000D01*
X237163363Y-164241212D01*
X237528988Y-163996909D01*
X237773291Y-163631284D01*
X237859079Y-163200000D01*
X238100921Y-163200000D01*
X238186709Y-163631284D01*
X238431012Y-163996909D01*
X238796637Y-164241212D01*
X239227921Y-164327000D01*
X239272079Y-164327000D01*
X239703363Y-164241212D01*
X240068988Y-163996909D01*
X240313291Y-163631284D01*
X240399079Y-163200000D01*
X240313291Y-162768716D01*
X240068988Y-162403091D01*
X239703363Y-162158788D01*
X239272079Y-162073000D01*
X239227921Y-162073000D01*
X238796637Y-162158788D01*
X238431012Y-162403091D01*
X238186709Y-162768716D01*
X238100921Y-163200000D01*
X237859079Y-163200000D01*
X237773291Y-162768716D01*
X237528988Y-162403091D01*
X237163363Y-162158788D01*
X236732079Y-162073000D01*
X236687921Y-162073000D01*
X236256637Y-162158788D01*
X235891012Y-162403091D01*
X235646709Y-162768716D01*
X235560921Y-163200000D01*
X171243426Y-163200000D01*
X171243426Y-162301400D01*
X171224111Y-162198750D01*
X171163445Y-162104473D01*
X171070880Y-162041225D01*
X170961000Y-162018974D01*
X168929000Y-162018974D01*
X168826350Y-162038289D01*
X168732073Y-162098955D01*
X168668825Y-162191520D01*
X168646574Y-162301400D01*
X158427000Y-162301400D01*
X158427000Y-158444026D01*
X168337642Y-158444026D01*
X168340291Y-158459791D01*
X168594268Y-158987036D01*
X169030680Y-159376954D01*
X169493517Y-159538853D01*
X169330780Y-159571223D01*
X168960743Y-159818474D01*
X168713492Y-160188511D01*
X168626669Y-160625000D01*
X168713492Y-161061489D01*
X168960743Y-161431526D01*
X169330780Y-161678777D01*
X169767269Y-161765600D01*
X170122731Y-161765600D01*
X170559220Y-161678777D01*
X170929257Y-161431526D01*
X171176508Y-161061489D01*
X171263331Y-160625000D01*
X171176508Y-160188511D01*
X170929257Y-159818474D01*
X170559220Y-159571223D01*
X170396483Y-159538853D01*
X170859320Y-159376954D01*
X171295732Y-158987036D01*
X171549709Y-158459791D01*
X171552358Y-158444026D01*
X171431217Y-158212000D01*
X170072000Y-158212000D01*
X170072000Y-158232000D01*
X169818000Y-158232000D01*
X169818000Y-158212000D01*
X168458783Y-158212000D01*
X168337642Y-158444026D01*
X158427000Y-158444026D01*
X158427000Y-138532505D01*
X161492744Y-138532505D01*
X161717130Y-139075560D01*
X162132254Y-139491409D01*
X162674918Y-139716743D01*
X163262505Y-139717256D01*
X163623511Y-139568091D01*
X167442710Y-143387290D01*
X167597460Y-143490691D01*
X167780000Y-143527000D01*
X186268420Y-143527000D01*
X174727420Y-155068000D01*
X171149439Y-155068000D01*
X170929257Y-154738474D01*
X170559220Y-154491223D01*
X170122731Y-154404400D01*
X169767269Y-154404400D01*
X169330780Y-154491223D01*
X168960743Y-154738474D01*
X168713492Y-155108511D01*
X168626669Y-155545000D01*
X168713492Y-155981489D01*
X168960743Y-156351526D01*
X169330780Y-156598777D01*
X169493517Y-156631147D01*
X169030680Y-156793046D01*
X168594268Y-157182964D01*
X168340291Y-157710209D01*
X168337642Y-157725974D01*
X168458783Y-157958000D01*
X169818000Y-157958000D01*
X169818000Y-157938000D01*
X170072000Y-157938000D01*
X170072000Y-157958000D01*
X171431217Y-157958000D01*
X171552358Y-157725974D01*
X171549709Y-157710209D01*
X171295732Y-157182964D01*
X170859320Y-156793046D01*
X170396483Y-156631147D01*
X170559220Y-156598777D01*
X170929257Y-156351526D01*
X171149439Y-156022000D01*
X174925000Y-156022000D01*
X175107540Y-155985691D01*
X175262290Y-155882290D01*
X187617580Y-143527000D01*
X209780879Y-143527000D01*
X209792729Y-143538871D01*
X210004724Y-143626900D01*
X210234269Y-143627100D01*
X210446417Y-143539442D01*
X210458881Y-143527000D01*
X216600879Y-143527000D01*
X216612729Y-143538871D01*
X216824724Y-143626900D01*
X217054269Y-143627100D01*
X217266417Y-143539442D01*
X217428871Y-143377271D01*
X217516900Y-143165276D01*
X217517100Y-142935731D01*
X217429442Y-142723583D01*
X217267271Y-142561129D01*
X217055276Y-142473100D01*
X216825731Y-142472900D01*
X216613583Y-142560558D01*
X216601119Y-142573000D01*
X210459121Y-142573000D01*
X210447271Y-142561129D01*
X210235276Y-142473100D01*
X210005731Y-142472900D01*
X209793583Y-142560558D01*
X209781119Y-142573000D01*
X196497000Y-142573000D01*
X196497000Y-134447580D01*
X196717495Y-134227085D01*
X196734269Y-134227100D01*
X196946417Y-134139442D01*
X197108871Y-133977271D01*
X197196900Y-133765276D01*
X197197100Y-133535731D01*
X197109442Y-133323583D01*
X196947271Y-133161129D01*
X196735276Y-133073100D01*
X196505731Y-133072900D01*
X196293583Y-133160558D01*
X196131129Y-133322729D01*
X196043100Y-133534724D01*
X196043085Y-133552335D01*
X195682710Y-133912710D01*
X195579309Y-134067460D01*
X195543000Y-134250000D01*
X195543000Y-142573000D01*
X167977580Y-142573000D01*
X164297963Y-138893383D01*
X164446743Y-138535082D01*
X164447256Y-137947495D01*
X164222870Y-137404440D01*
X163807746Y-136988591D01*
X163265082Y-136763257D01*
X162677495Y-136762744D01*
X162134440Y-136987130D01*
X161718591Y-137402254D01*
X161493257Y-137944918D01*
X161492744Y-138532505D01*
X158427000Y-138532505D01*
X158427000Y-133540000D01*
X161487574Y-133540000D01*
X161487574Y-135940000D01*
X161506889Y-136042650D01*
X161567555Y-136136927D01*
X161660120Y-136200175D01*
X161770000Y-136222426D01*
X164170000Y-136222426D01*
X164272650Y-136203111D01*
X164366927Y-136142445D01*
X164430175Y-136049880D01*
X164452426Y-135940000D01*
X164452426Y-133540000D01*
X164433111Y-133437350D01*
X164372445Y-133343073D01*
X164279880Y-133279825D01*
X164170000Y-133257574D01*
X161770000Y-133257574D01*
X161667350Y-133276889D01*
X161573073Y-133337555D01*
X161509825Y-133430120D01*
X161487574Y-133540000D01*
X158427000Y-133540000D01*
X158427000Y-132884269D01*
X209872900Y-132884269D01*
X209960558Y-133096417D01*
X210122729Y-133258871D01*
X210334724Y-133346900D01*
X210493881Y-133347039D01*
X210579928Y-133433087D01*
X210365731Y-133432900D01*
X210153583Y-133520558D01*
X209991129Y-133682729D01*
X209903100Y-133894724D01*
X209902900Y-134124269D01*
X209990558Y-134336417D01*
X210103000Y-134449055D01*
X210103000Y-134658992D01*
X210131697Y-134803264D01*
X210213421Y-134925571D01*
X215634450Y-140346600D01*
X215756757Y-140428324D01*
X215901029Y-140457021D01*
X216083883Y-140457021D01*
X218142978Y-142516116D01*
X218142978Y-160529978D01*
X218171675Y-160674250D01*
X218253399Y-160796557D01*
X219633038Y-162176196D01*
X219632900Y-162334269D01*
X219720558Y-162546417D01*
X219882729Y-162708871D01*
X220094724Y-162796900D01*
X220324269Y-162797100D01*
X220536417Y-162709442D01*
X220698871Y-162547271D01*
X220786900Y-162335276D01*
X220787100Y-162105731D01*
X220699442Y-161893583D01*
X220537271Y-161731129D01*
X220325276Y-161643100D01*
X220166119Y-161642961D01*
X218896978Y-160373820D01*
X218896978Y-158920136D01*
X221253038Y-161276196D01*
X221252900Y-161434269D01*
X221340558Y-161646417D01*
X221502729Y-161808871D01*
X221714724Y-161896900D01*
X221944269Y-161897100D01*
X222156417Y-161809442D01*
X222318871Y-161647271D01*
X222406900Y-161435276D01*
X222407100Y-161205731D01*
X222319442Y-160993583D01*
X222157271Y-160831129D01*
X221945276Y-160743100D01*
X221786119Y-160742961D01*
X221703158Y-160660000D01*
X235560921Y-160660000D01*
X235646709Y-161091284D01*
X235891012Y-161456909D01*
X236256637Y-161701212D01*
X236687921Y-161787000D01*
X236732079Y-161787000D01*
X237163363Y-161701212D01*
X237528988Y-161456909D01*
X237773291Y-161091284D01*
X237859079Y-160660000D01*
X238100921Y-160660000D01*
X238186709Y-161091284D01*
X238431012Y-161456909D01*
X238796637Y-161701212D01*
X239227921Y-161787000D01*
X239272079Y-161787000D01*
X239703363Y-161701212D01*
X240068988Y-161456909D01*
X240313291Y-161091284D01*
X240399079Y-160660000D01*
X240313291Y-160228716D01*
X240068988Y-159863091D01*
X239703363Y-159618788D01*
X239272079Y-159533000D01*
X239227921Y-159533000D01*
X238796637Y-159618788D01*
X238431012Y-159863091D01*
X238186709Y-160228716D01*
X238100921Y-160660000D01*
X237859079Y-160660000D01*
X237773291Y-160228716D01*
X237528988Y-159863091D01*
X237163363Y-159618788D01*
X236732079Y-159533000D01*
X236687921Y-159533000D01*
X236256637Y-159618788D01*
X235891012Y-159863091D01*
X235646709Y-160228716D01*
X235560921Y-160660000D01*
X221703158Y-160660000D01*
X220794650Y-159751492D01*
X220896417Y-159709442D01*
X221058871Y-159547271D01*
X221146900Y-159335276D01*
X221147100Y-159105731D01*
X221100998Y-158994156D01*
X221183038Y-159076196D01*
X221182900Y-159234269D01*
X221270558Y-159446417D01*
X221432729Y-159608871D01*
X221644724Y-159696900D01*
X221874269Y-159697100D01*
X222086417Y-159609442D01*
X222248871Y-159447271D01*
X222336900Y-159235276D01*
X222337100Y-159005731D01*
X222249442Y-158793583D01*
X222087271Y-158631129D01*
X221875276Y-158543100D01*
X221716119Y-158542961D01*
X221293158Y-158120000D01*
X235560921Y-158120000D01*
X235646709Y-158551284D01*
X235891012Y-158916909D01*
X236256637Y-159161212D01*
X236687921Y-159247000D01*
X236732079Y-159247000D01*
X237163363Y-159161212D01*
X237528988Y-158916909D01*
X237773291Y-158551284D01*
X237859079Y-158120000D01*
X238100921Y-158120000D01*
X238186709Y-158551284D01*
X238431012Y-158916909D01*
X238796637Y-159161212D01*
X239227921Y-159247000D01*
X239272079Y-159247000D01*
X239703363Y-159161212D01*
X240068988Y-158916909D01*
X240313291Y-158551284D01*
X240399079Y-158120000D01*
X240313291Y-157688716D01*
X240068988Y-157323091D01*
X239703363Y-157078788D01*
X239272079Y-156993000D01*
X239227921Y-156993000D01*
X238796637Y-157078788D01*
X238431012Y-157323091D01*
X238186709Y-157688716D01*
X238100921Y-158120000D01*
X237859079Y-158120000D01*
X237773291Y-157688716D01*
X237528988Y-157323091D01*
X237163363Y-157078788D01*
X236732079Y-156993000D01*
X236687921Y-156993000D01*
X236256637Y-157078788D01*
X235891012Y-157323091D01*
X235646709Y-157688716D01*
X235560921Y-158120000D01*
X221293158Y-158120000D01*
X220027010Y-156853852D01*
X220027010Y-155843072D01*
X220072729Y-155888871D01*
X220284724Y-155976900D01*
X220514269Y-155977100D01*
X220726417Y-155889442D01*
X220888871Y-155727271D01*
X220976900Y-155515276D01*
X220977039Y-155356119D01*
X221016158Y-155317000D01*
X223670000Y-155317000D01*
X223814272Y-155288303D01*
X223936579Y-155206579D01*
X224700323Y-154442835D01*
X224633100Y-154604724D01*
X224632900Y-154834269D01*
X224720558Y-155046417D01*
X224882729Y-155208871D01*
X225094724Y-155296900D01*
X225324269Y-155297100D01*
X225536417Y-155209442D01*
X225698871Y-155047271D01*
X225786900Y-154835276D01*
X225787100Y-154605731D01*
X225699442Y-154393583D01*
X225689517Y-154383641D01*
X226773000Y-153300158D01*
X226773000Y-156150000D01*
X226801697Y-156294272D01*
X226883421Y-156416579D01*
X227753038Y-157286197D01*
X227752900Y-157444269D01*
X227840558Y-157656417D01*
X228002729Y-157818871D01*
X228214724Y-157906900D01*
X228444269Y-157907100D01*
X228656417Y-157819442D01*
X228818871Y-157657271D01*
X228906900Y-157445276D01*
X228907100Y-157215731D01*
X228819442Y-157003583D01*
X228657271Y-156841129D01*
X228445276Y-156753100D01*
X228286120Y-156752961D01*
X227527000Y-155993842D01*
X227527000Y-155580000D01*
X235560921Y-155580000D01*
X235646709Y-156011284D01*
X235891012Y-156376909D01*
X236256637Y-156621212D01*
X236687921Y-156707000D01*
X236732079Y-156707000D01*
X237163363Y-156621212D01*
X237528988Y-156376909D01*
X237773291Y-156011284D01*
X237859079Y-155580000D01*
X237773291Y-155148716D01*
X237528988Y-154783091D01*
X237163363Y-154538788D01*
X236732079Y-154453000D01*
X236687921Y-154453000D01*
X236256637Y-154538788D01*
X235891012Y-154783091D01*
X235646709Y-155148716D01*
X235560921Y-155580000D01*
X227527000Y-155580000D01*
X227527000Y-154253107D01*
X227552729Y-154278881D01*
X227764724Y-154366910D01*
X227994269Y-154367110D01*
X228206417Y-154279452D01*
X228368871Y-154117281D01*
X228456900Y-153905286D01*
X228457039Y-153746129D01*
X228626601Y-153576568D01*
X228702659Y-153462739D01*
X228708324Y-153454261D01*
X228737021Y-153309989D01*
X228737021Y-152190000D01*
X235577574Y-152190000D01*
X235577574Y-153890000D01*
X235596889Y-153992650D01*
X235657555Y-154086927D01*
X235750120Y-154150175D01*
X235860000Y-154172426D01*
X237560000Y-154172426D01*
X237662650Y-154153111D01*
X237756927Y-154092445D01*
X237820175Y-153999880D01*
X237842426Y-153890000D01*
X237842426Y-153478742D01*
X237978355Y-153806924D01*
X238368642Y-154235183D01*
X238893108Y-154481486D01*
X239122998Y-154360820D01*
X239122998Y-154473871D01*
X238796637Y-154538788D01*
X238431012Y-154783091D01*
X238186709Y-155148716D01*
X238100921Y-155580000D01*
X238186709Y-156011284D01*
X238431012Y-156376909D01*
X238796637Y-156621212D01*
X239227921Y-156707000D01*
X239272079Y-156707000D01*
X239703363Y-156621212D01*
X240068988Y-156376909D01*
X240313291Y-156011284D01*
X240399079Y-155580000D01*
X240313291Y-155148716D01*
X240068988Y-154783091D01*
X239703363Y-154538788D01*
X239377002Y-154473871D01*
X239377002Y-154360820D01*
X239606892Y-154481486D01*
X240131358Y-154235183D01*
X240521645Y-153806924D01*
X240691476Y-153396890D01*
X240570155Y-153167000D01*
X239377000Y-153167000D01*
X239377000Y-153187000D01*
X239123000Y-153187000D01*
X239123000Y-153167000D01*
X239103000Y-153167000D01*
X239103000Y-152913000D01*
X239123000Y-152913000D01*
X239123000Y-151719181D01*
X239377000Y-151719181D01*
X239377000Y-152913000D01*
X240570155Y-152913000D01*
X240691476Y-152683110D01*
X240521645Y-152273076D01*
X240131358Y-151844817D01*
X239606892Y-151598514D01*
X239377000Y-151719181D01*
X239123000Y-151719181D01*
X238893108Y-151598514D01*
X238368642Y-151844817D01*
X237978355Y-152273076D01*
X237842426Y-152601258D01*
X237842426Y-152190000D01*
X237823111Y-152087350D01*
X237762445Y-151993073D01*
X237669880Y-151929825D01*
X237560000Y-151907574D01*
X235860000Y-151907574D01*
X235757350Y-151926889D01*
X235663073Y-151987555D01*
X235599825Y-152080120D01*
X235577574Y-152190000D01*
X228737021Y-152190000D01*
X228737021Y-137140021D01*
X228708324Y-136995749D01*
X228626600Y-136873442D01*
X225176962Y-133423804D01*
X225177100Y-133265731D01*
X225089442Y-133053583D01*
X224927271Y-132891129D01*
X224715276Y-132803100D01*
X224485731Y-132802900D01*
X224273583Y-132890558D01*
X224111129Y-133052729D01*
X224023100Y-133264724D01*
X224022900Y-133494269D01*
X224110558Y-133706417D01*
X224272729Y-133868871D01*
X224484724Y-133956900D01*
X224643881Y-133957039D01*
X227983021Y-137296179D01*
X227983021Y-142644873D01*
X227857011Y-142518863D01*
X227857011Y-139530011D01*
X227828314Y-139385739D01*
X227746590Y-139263432D01*
X216646579Y-128163421D01*
X216524272Y-128081697D01*
X216380000Y-128053000D01*
X215681895Y-128053000D01*
X215212495Y-127583601D01*
X215238871Y-127557271D01*
X215326900Y-127345276D01*
X215327100Y-127115731D01*
X215239442Y-126903583D01*
X215077271Y-126741129D01*
X214865276Y-126653100D01*
X214635731Y-126652900D01*
X214423583Y-126740558D01*
X214261129Y-126902729D01*
X214173100Y-127114724D01*
X214172900Y-127344269D01*
X214260558Y-127556417D01*
X214376674Y-127672736D01*
X214401697Y-127798536D01*
X214483421Y-127920843D01*
X215258328Y-128695751D01*
X215131129Y-128822729D01*
X215043100Y-129034724D01*
X215042900Y-129264269D01*
X215130558Y-129476417D01*
X215243000Y-129589055D01*
X215243000Y-130399842D01*
X215156578Y-130313420D01*
X215034271Y-130231696D01*
X214889999Y-130202999D01*
X214587068Y-130202999D01*
X214587100Y-130165731D01*
X214499442Y-129953583D01*
X214337271Y-129791129D01*
X214125276Y-129703100D01*
X213895731Y-129702900D01*
X213683583Y-129790558D01*
X213521129Y-129952729D01*
X213433100Y-130164724D01*
X213432900Y-130394269D01*
X213520558Y-130606417D01*
X213611337Y-130697354D01*
X213603583Y-130700558D01*
X213441129Y-130862729D01*
X213353100Y-131074724D01*
X213352900Y-131304269D01*
X213440558Y-131516417D01*
X213602729Y-131678871D01*
X213814724Y-131766900D01*
X213979081Y-131767043D01*
X214036738Y-131805568D01*
X214085727Y-131838302D01*
X214229999Y-131866999D01*
X215093841Y-131866999D01*
X226783000Y-143556158D01*
X226783000Y-151293842D01*
X223513842Y-154563000D01*
X220860000Y-154563000D01*
X220715728Y-154591697D01*
X220593421Y-154673421D01*
X220443804Y-154823038D01*
X220285731Y-154822900D01*
X220073583Y-154910558D01*
X220027010Y-154957050D01*
X220027010Y-154076168D01*
X220038314Y-154059251D01*
X220067011Y-153914979D01*
X220067011Y-142250169D01*
X224003421Y-146186579D01*
X224125728Y-146268303D01*
X224270000Y-146297000D01*
X225191053Y-146297000D01*
X225302729Y-146408871D01*
X225514724Y-146496900D01*
X225744269Y-146497100D01*
X225956417Y-146409442D01*
X226118871Y-146247271D01*
X226206900Y-146035276D01*
X226207100Y-145805731D01*
X226119442Y-145593583D01*
X225957271Y-145431129D01*
X225745276Y-145343100D01*
X225515731Y-145342900D01*
X225356967Y-145408500D01*
X225357100Y-145255721D01*
X225269442Y-145043573D01*
X225107271Y-144881119D01*
X224895276Y-144793090D01*
X224665731Y-144792890D01*
X224603355Y-144818664D01*
X216247634Y-136462943D01*
X216247772Y-136304870D01*
X216160114Y-136092722D01*
X215997943Y-135930268D01*
X215785948Y-135842239D01*
X215556403Y-135842039D01*
X215344255Y-135929697D01*
X215206141Y-136067571D01*
X215189489Y-136042650D01*
X215166998Y-136008989D01*
X215167140Y-135845767D01*
X215079482Y-135633619D01*
X214917311Y-135471165D01*
X214705316Y-135383136D01*
X214475771Y-135382936D01*
X214313538Y-135449970D01*
X214287359Y-135386613D01*
X214125188Y-135224159D01*
X213913193Y-135136130D01*
X213683648Y-135135930D01*
X213471500Y-135223588D01*
X213325481Y-135369353D01*
X213317271Y-135361129D01*
X213105276Y-135273100D01*
X212875731Y-135272900D01*
X212816999Y-135297168D01*
X212816999Y-134759999D01*
X212788302Y-134615727D01*
X212755568Y-134566738D01*
X212706579Y-134493420D01*
X211026962Y-132813804D01*
X211027100Y-132655731D01*
X210939442Y-132443583D01*
X210777271Y-132281129D01*
X210565276Y-132193100D01*
X210335731Y-132192900D01*
X210123583Y-132280558D01*
X209961129Y-132442729D01*
X209873100Y-132654724D01*
X209872900Y-132884269D01*
X158427000Y-132884269D01*
X158427000Y-122187175D01*
X161832430Y-122187175D01*
X161955565Y-122474788D01*
X162637734Y-122734707D01*
X163367443Y-122713786D01*
X163944435Y-122474788D01*
X164067570Y-122187175D01*
X162950000Y-121069605D01*
X161832430Y-122187175D01*
X158427000Y-122187175D01*
X158427000Y-120577734D01*
X161105293Y-120577734D01*
X161126214Y-121307443D01*
X161365212Y-121884435D01*
X161652825Y-122007570D01*
X162770395Y-120890000D01*
X163129605Y-120890000D01*
X164247175Y-122007570D01*
X164534788Y-121884435D01*
X164794707Y-121202266D01*
X164773786Y-120472557D01*
X164534788Y-119895565D01*
X164247175Y-119772430D01*
X163129605Y-120890000D01*
X162770395Y-120890000D01*
X161652825Y-119772430D01*
X161365212Y-119895565D01*
X161105293Y-120577734D01*
X158427000Y-120577734D01*
X158427000Y-119592825D01*
X161832430Y-119592825D01*
X162950000Y-120710395D01*
X164067570Y-119592825D01*
X163944435Y-119305212D01*
X163262266Y-119045293D01*
X162532557Y-119066214D01*
X161955565Y-119305212D01*
X161832430Y-119592825D01*
X158427000Y-119592825D01*
X158427000Y-116190000D01*
X161467574Y-116190000D01*
X161467574Y-118590000D01*
X161486889Y-118692650D01*
X161547555Y-118786927D01*
X161640120Y-118850175D01*
X161750000Y-118872426D01*
X164150000Y-118872426D01*
X164252650Y-118853111D01*
X164346927Y-118792445D01*
X164410175Y-118699880D01*
X164432426Y-118590000D01*
X164432426Y-117234269D01*
X181902900Y-117234269D01*
X181990558Y-117446417D01*
X182071997Y-117527998D01*
X182071999Y-117528001D01*
X182072002Y-117528003D01*
X182152729Y-117608871D01*
X182364724Y-117696900D01*
X182479997Y-117697000D01*
X182480000Y-117697001D01*
X182480003Y-117697000D01*
X182594269Y-117697100D01*
X182806417Y-117609442D01*
X182887998Y-117528003D01*
X182888001Y-117528001D01*
X182888505Y-117527497D01*
X182968871Y-117447271D01*
X182968970Y-117447032D01*
X183670238Y-116745763D01*
X191230820Y-116745763D01*
X191388665Y-117127777D01*
X191680685Y-117420308D01*
X192062423Y-117578819D01*
X192475763Y-117579180D01*
X192857777Y-117421335D01*
X193150308Y-117129315D01*
X193308819Y-116747577D01*
X193309180Y-116334237D01*
X193151335Y-115952223D01*
X192859315Y-115659692D01*
X192477577Y-115501181D01*
X192064237Y-115500820D01*
X191682223Y-115658665D01*
X191389692Y-115950685D01*
X191231181Y-116332423D01*
X191230820Y-116745763D01*
X183670238Y-116745763D01*
X186210238Y-114205763D01*
X191230820Y-114205763D01*
X191388665Y-114587777D01*
X191680685Y-114880308D01*
X192062423Y-115038819D01*
X192475763Y-115039180D01*
X192857777Y-114881335D01*
X193150308Y-114589315D01*
X193308819Y-114207577D01*
X193309180Y-113794237D01*
X193151335Y-113412223D01*
X192859315Y-113119692D01*
X192477577Y-112961181D01*
X192064237Y-112960820D01*
X191682223Y-113118665D01*
X191389692Y-113410685D01*
X191231181Y-113792423D01*
X191230820Y-114205763D01*
X186210238Y-114205763D01*
X189681002Y-110734999D01*
X191525615Y-110734999D01*
X191389692Y-110870685D01*
X191231181Y-111252423D01*
X191230820Y-111665763D01*
X191388665Y-112047777D01*
X191680685Y-112340308D01*
X192062423Y-112498819D01*
X192475763Y-112499180D01*
X192857777Y-112341335D01*
X193150308Y-112049315D01*
X193308819Y-111667577D01*
X193309180Y-111254237D01*
X193151335Y-110872223D01*
X193014351Y-110734999D01*
X199810458Y-110734999D01*
X199764692Y-110780685D01*
X199606181Y-111162423D01*
X199605820Y-111575763D01*
X199677114Y-111748306D01*
X188072505Y-123352915D01*
X188055731Y-123352900D01*
X187843583Y-123440558D01*
X187681129Y-123602729D01*
X187593100Y-123814724D01*
X187592900Y-124044269D01*
X187680558Y-124256417D01*
X187842729Y-124418871D01*
X188054724Y-124506900D01*
X188284269Y-124507100D01*
X188496417Y-124419442D01*
X188658871Y-124257271D01*
X188746900Y-124045276D01*
X188746915Y-124027665D01*
X195344367Y-117430213D01*
X199844392Y-117430213D01*
X199913857Y-117672397D01*
X200437302Y-117859144D01*
X200992368Y-117831362D01*
X201376143Y-117672397D01*
X201445608Y-117430213D01*
X200645000Y-116629605D01*
X199844392Y-117430213D01*
X195344367Y-117430213D01*
X196532278Y-116242302D01*
X199235856Y-116242302D01*
X199263638Y-116797368D01*
X199422603Y-117181143D01*
X199664787Y-117250608D01*
X200465395Y-116450000D01*
X200824605Y-116450000D01*
X201625213Y-117250608D01*
X201867397Y-117181143D01*
X202054144Y-116657698D01*
X202026362Y-116102632D01*
X201867397Y-115718857D01*
X201625213Y-115649392D01*
X200824605Y-116450000D01*
X200465395Y-116450000D01*
X199664787Y-115649392D01*
X199422603Y-115718857D01*
X199235856Y-116242302D01*
X196532278Y-116242302D01*
X197304793Y-115469787D01*
X199844392Y-115469787D01*
X200645000Y-116270395D01*
X201445608Y-115469787D01*
X201376143Y-115227603D01*
X200852698Y-115040856D01*
X200297632Y-115068638D01*
X199913857Y-115227603D01*
X199844392Y-115469787D01*
X197304793Y-115469787D01*
X198658817Y-114115763D01*
X199605820Y-114115763D01*
X199763665Y-114497777D01*
X200055685Y-114790308D01*
X200437423Y-114948819D01*
X200850763Y-114949180D01*
X201232777Y-114791335D01*
X201525308Y-114499315D01*
X201683819Y-114117577D01*
X201684180Y-113704237D01*
X201526335Y-113322223D01*
X201234315Y-113029692D01*
X200852577Y-112871181D01*
X200439237Y-112870820D01*
X200057223Y-113028665D01*
X199764692Y-113320685D01*
X199606181Y-113702423D01*
X199605820Y-114115763D01*
X198658817Y-114115763D01*
X200386787Y-112387793D01*
X200437423Y-112408819D01*
X200850763Y-112409180D01*
X201232777Y-112251335D01*
X201525308Y-111959315D01*
X201683819Y-111577577D01*
X201684180Y-111164237D01*
X201526335Y-110782223D01*
X201479193Y-110734999D01*
X220488997Y-110734999D01*
X221531997Y-111777998D01*
X221531999Y-111778001D01*
X225797918Y-116043920D01*
X225797875Y-116092985D01*
X225907561Y-116358446D01*
X226110486Y-116561725D01*
X226375755Y-116671875D01*
X226662985Y-116672125D01*
X226928446Y-116562439D01*
X227131725Y-116359514D01*
X227241875Y-116094245D01*
X227242125Y-115807015D01*
X227132439Y-115541554D01*
X226929514Y-115338275D01*
X226664245Y-115228125D01*
X226614083Y-115228081D01*
X222348001Y-110961999D01*
X222347998Y-110961997D01*
X221136000Y-109749998D01*
X220948807Y-109624921D01*
X220727999Y-109580998D01*
X220727994Y-109580999D01*
X189442001Y-109580999D01*
X189221193Y-109624921D01*
X189034000Y-109749998D01*
X189033998Y-109750001D01*
X182071999Y-116711999D01*
X182071997Y-116712002D01*
X181991129Y-116792729D01*
X181903100Y-117004724D01*
X181903000Y-117119997D01*
X181902999Y-117120000D01*
X181903000Y-117120003D01*
X181902900Y-117234269D01*
X164432426Y-117234269D01*
X164432426Y-116190000D01*
X164413111Y-116087350D01*
X164352445Y-115993073D01*
X164259880Y-115929825D01*
X164150000Y-115907574D01*
X161750000Y-115907574D01*
X161647350Y-115926889D01*
X161553073Y-115987555D01*
X161489825Y-116080120D01*
X161467574Y-116190000D01*
X158427000Y-116190000D01*
X158427000Y-110842603D01*
X172812752Y-110842603D01*
X173029543Y-111367275D01*
X173430614Y-111769047D01*
X173954907Y-111986752D01*
X174522603Y-111987248D01*
X175047275Y-111770457D01*
X175449047Y-111369386D01*
X175542595Y-111144097D01*
X175785851Y-111387778D01*
X176144810Y-111536830D01*
X176533485Y-111537170D01*
X176892703Y-111388744D01*
X177167778Y-111114149D01*
X177316830Y-110755190D01*
X177316831Y-110753485D01*
X177362830Y-110753485D01*
X177511256Y-111112703D01*
X177785851Y-111387778D01*
X178144810Y-111536830D01*
X178533485Y-111537170D01*
X178892703Y-111388744D01*
X179167778Y-111114149D01*
X179316830Y-110755190D01*
X179316894Y-110681950D01*
X179362933Y-110635911D01*
X179362830Y-110753485D01*
X179511256Y-111112703D01*
X179785851Y-111387778D01*
X180144810Y-111536830D01*
X180533485Y-111537170D01*
X180892703Y-111388744D01*
X181137459Y-111144415D01*
X181229543Y-111367275D01*
X181630614Y-111769047D01*
X182154907Y-111986752D01*
X182722603Y-111987248D01*
X183247275Y-111770457D01*
X183649047Y-111369386D01*
X183866752Y-110845093D01*
X183867248Y-110277397D01*
X183650457Y-109752725D01*
X183249386Y-109350953D01*
X182725093Y-109133248D01*
X182157397Y-109132752D01*
X181632725Y-109349543D01*
X181230953Y-109750614D01*
X181137405Y-109975903D01*
X180894149Y-109732222D01*
X180535190Y-109583170D01*
X180415778Y-109583066D01*
X185265016Y-104733828D01*
X212227861Y-104733828D01*
X212349701Y-105028703D01*
X212530800Y-105210119D01*
X212350494Y-105390110D01*
X212228140Y-105684772D01*
X212227861Y-106003828D01*
X212349701Y-106298703D01*
X212575110Y-106524506D01*
X212869772Y-106646860D01*
X213188828Y-106647139D01*
X213483703Y-106525299D01*
X213665119Y-106344200D01*
X213845110Y-106524506D01*
X214139772Y-106646860D01*
X214458828Y-106647139D01*
X214753703Y-106525299D01*
X214935119Y-106344200D01*
X215115110Y-106524506D01*
X215409772Y-106646860D01*
X215728828Y-106647139D01*
X216023703Y-106525299D01*
X216205119Y-106344200D01*
X216385110Y-106524506D01*
X216679772Y-106646860D01*
X216774899Y-106646943D01*
X215348842Y-108073000D01*
X214958947Y-108073000D01*
X214847271Y-107961129D01*
X214635276Y-107873100D01*
X214405731Y-107872900D01*
X214193583Y-107960558D01*
X214031129Y-108122729D01*
X213943100Y-108334724D01*
X213942900Y-108564269D01*
X214030558Y-108776417D01*
X214192729Y-108938871D01*
X214404724Y-109026900D01*
X214634269Y-109027100D01*
X214846417Y-108939442D01*
X214959055Y-108827000D01*
X215505000Y-108827000D01*
X215649272Y-108798303D01*
X215771579Y-108716579D01*
X217873125Y-106615033D01*
X217949772Y-106646860D01*
X218268828Y-106647139D01*
X218563703Y-106525299D01*
X218789506Y-106299890D01*
X218911860Y-106005228D01*
X218912139Y-105686172D01*
X218790299Y-105391297D01*
X218752575Y-105353507D01*
X218831927Y-105302445D01*
X218895175Y-105209880D01*
X218917426Y-105100000D01*
X218917426Y-104050000D01*
X218898111Y-103947350D01*
X218837445Y-103853073D01*
X218744880Y-103789825D01*
X218635000Y-103767574D01*
X217585000Y-103767574D01*
X217482350Y-103786889D01*
X217388073Y-103847555D01*
X217324825Y-103940120D01*
X217302574Y-104050000D01*
X217302574Y-104292031D01*
X217019605Y-104575000D01*
X217033748Y-104589143D01*
X216854142Y-104768748D01*
X216840000Y-104754605D01*
X216825858Y-104768748D01*
X216740102Y-104682992D01*
X216726270Y-104480840D01*
X216825858Y-104381253D01*
X216840000Y-104395395D01*
X217468667Y-103766727D01*
X217428425Y-103549038D01*
X216991015Y-103401954D01*
X216530614Y-103433457D01*
X216251575Y-103549038D01*
X216214206Y-103751186D01*
X216205000Y-103760392D01*
X216195794Y-103751186D01*
X216158425Y-103549038D01*
X215721015Y-103401954D01*
X215260614Y-103433457D01*
X214981575Y-103549038D01*
X214941333Y-103766727D01*
X215570000Y-104395395D01*
X215584143Y-104381253D01*
X215669898Y-104467008D01*
X215683730Y-104669160D01*
X215584143Y-104768748D01*
X215570000Y-104754605D01*
X215555858Y-104768748D01*
X215376252Y-104589142D01*
X215390395Y-104575000D01*
X215011005Y-104195610D01*
X214980299Y-104121297D01*
X214754890Y-103895494D01*
X214460228Y-103773140D01*
X214141172Y-103772861D01*
X213846297Y-103894701D01*
X213664881Y-104075800D01*
X213484890Y-103895494D01*
X213190228Y-103773140D01*
X212871172Y-103772861D01*
X212576297Y-103894701D01*
X212350494Y-104120110D01*
X212228140Y-104414772D01*
X212227861Y-104733828D01*
X185265016Y-104733828D01*
X185908467Y-104090377D01*
X186119423Y-103949421D01*
X188121844Y-101947000D01*
X227728156Y-101947000D01*
X241643010Y-115861854D01*
X241643010Y-123152818D01*
X241582778Y-123112572D01*
X241295000Y-123055329D01*
X241007222Y-123112572D01*
X240763256Y-123275585D01*
X240600243Y-123519551D01*
X240543000Y-123807329D01*
X240543000Y-124142671D01*
X240600243Y-124430449D01*
X240763256Y-124674415D01*
X241007222Y-124837428D01*
X241295000Y-124894671D01*
X241582778Y-124837428D01*
X241643010Y-124797182D01*
X241643010Y-128152818D01*
X241582778Y-128112572D01*
X241295000Y-128055329D01*
X241007222Y-128112572D01*
X240763256Y-128275585D01*
X240600243Y-128519551D01*
X240543000Y-128807329D01*
X240543000Y-129142671D01*
X240600243Y-129430449D01*
X240763256Y-129674415D01*
X241007222Y-129837428D01*
X241295000Y-129894671D01*
X241582778Y-129837428D01*
X241643010Y-129797182D01*
X241643010Y-130508146D01*
X238403157Y-133747999D01*
X234726843Y-133747999D01*
X234509422Y-133530578D01*
X234257345Y-133362146D01*
X233960000Y-133303000D01*
X233662655Y-133362146D01*
X233410578Y-133530578D01*
X233242146Y-133782655D01*
X233183000Y-134080000D01*
X233242146Y-134377345D01*
X233410578Y-134629422D01*
X233855577Y-135074421D01*
X234107654Y-135242853D01*
X234404999Y-135301999D01*
X236849157Y-135301999D01*
X235190578Y-136960578D01*
X235022146Y-137212655D01*
X234963000Y-137510000D01*
X235022146Y-137807345D01*
X235190578Y-138059422D01*
X235442655Y-138227854D01*
X235740000Y-138287000D01*
X236037345Y-138227854D01*
X236289422Y-138059422D01*
X242969432Y-131379412D01*
X243137864Y-131127335D01*
X243197010Y-130829990D01*
X243197010Y-130555854D01*
X243402045Y-130692854D01*
X243699390Y-130752000D01*
X244290610Y-130752000D01*
X244587955Y-130692854D01*
X244840032Y-130524422D01*
X245008464Y-130272345D01*
X245067610Y-129975000D01*
X245008464Y-129677655D01*
X244840032Y-129425578D01*
X244587955Y-129257146D01*
X244290610Y-129198000D01*
X243699390Y-129198000D01*
X243402045Y-129257146D01*
X243197010Y-129394146D01*
X243197010Y-123555854D01*
X243402045Y-123692854D01*
X243699390Y-123752000D01*
X244290610Y-123752000D01*
X244587955Y-123692854D01*
X244840032Y-123524422D01*
X245008464Y-123272345D01*
X245067610Y-122975000D01*
X245008464Y-122677655D01*
X244840032Y-122425578D01*
X244587955Y-122257146D01*
X244290610Y-122198000D01*
X243699390Y-122198000D01*
X243402045Y-122257146D01*
X243197010Y-122394146D01*
X243197010Y-115540010D01*
X243137864Y-115242665D01*
X242969432Y-114990588D01*
X233388844Y-105410000D01*
X237773000Y-105410000D01*
X237912072Y-106109163D01*
X238308116Y-106701884D01*
X238900837Y-107097928D01*
X239600000Y-107237000D01*
X240299163Y-107097928D01*
X240891884Y-106701884D01*
X241287928Y-106109163D01*
X241427000Y-105410000D01*
X241287928Y-104710837D01*
X240891884Y-104118116D01*
X240299163Y-103722072D01*
X239600000Y-103583000D01*
X238900837Y-103722072D01*
X238308116Y-104118116D01*
X237912072Y-104710837D01*
X237773000Y-105410000D01*
X233388844Y-105410000D01*
X228599422Y-100620578D01*
X228347345Y-100452146D01*
X228050000Y-100393000D01*
X187800000Y-100393000D01*
X187502655Y-100452146D01*
X187250578Y-100620578D01*
X185161535Y-102709621D01*
X184950579Y-102850577D01*
X178218263Y-109582893D01*
X178146515Y-109582830D01*
X177787297Y-109731256D01*
X177512222Y-110005851D01*
X177363170Y-110364810D01*
X177362830Y-110753485D01*
X177316831Y-110753485D01*
X177317170Y-110366515D01*
X177168744Y-110007297D01*
X176894149Y-109732222D01*
X176535190Y-109583170D01*
X176146515Y-109582830D01*
X175787297Y-109731256D01*
X175542541Y-109975585D01*
X175450457Y-109752725D01*
X175049386Y-109350953D01*
X174525093Y-109133248D01*
X173957397Y-109132752D01*
X173432725Y-109349543D01*
X173030953Y-109750614D01*
X172813248Y-110274907D01*
X172812752Y-110842603D01*
X158427000Y-110842603D01*
X158427000Y-105410000D01*
X162773000Y-105410000D01*
X162912072Y-106109163D01*
X163308116Y-106701884D01*
X163900837Y-107097928D01*
X164600000Y-107237000D01*
X165299163Y-107097928D01*
X165891884Y-106701884D01*
X166287928Y-106109163D01*
X166427000Y-105410000D01*
X166287928Y-104710837D01*
X165891884Y-104118116D01*
X165299163Y-103722072D01*
X164600000Y-103583000D01*
X163900837Y-103722072D01*
X163308116Y-104118116D01*
X162912072Y-104710837D01*
X162773000Y-105410000D01*
X158427000Y-105410000D01*
X158427000Y-103942207D01*
X158788629Y-102124172D01*
X159800220Y-100610220D01*
X161314171Y-99598630D01*
X163132207Y-99237000D01*
X241067793Y-99237000D01*
X242885829Y-99598631D01*
X242885829Y-99598631D01*
G37*
X242885829Y-99598631D02*
X244399781Y-100610221D01*
X245411370Y-102124173D01*
X245773000Y-103942208D01*
X245773000Y-181877794D01*
X245411369Y-183695830D01*
X244399779Y-185209781D01*
X242885827Y-186221370D01*
X241067792Y-186583000D01*
X163132207Y-186583000D01*
X161314171Y-186221370D01*
X159800220Y-185209780D01*
X158788629Y-183695828D01*
X158427000Y-181877793D01*
X158427000Y-180410000D01*
X162773000Y-180410000D01*
X162912072Y-181109163D01*
X163308116Y-181701884D01*
X163900837Y-182097928D01*
X164600000Y-182237000D01*
X165299163Y-182097928D01*
X165891884Y-181701884D01*
X166287928Y-181109163D01*
X166427000Y-180410000D01*
X237773000Y-180410000D01*
X237912072Y-181109163D01*
X238308116Y-181701884D01*
X238900837Y-182097928D01*
X239600000Y-182237000D01*
X240299163Y-182097928D01*
X240891884Y-181701884D01*
X241287928Y-181109163D01*
X241427000Y-180410000D01*
X241287928Y-179710837D01*
X240891884Y-179118116D01*
X240299163Y-178722072D01*
X239600000Y-178583000D01*
X238900837Y-178722072D01*
X238308116Y-179118116D01*
X237912072Y-179710837D01*
X237773000Y-180410000D01*
X166427000Y-180410000D01*
X166287928Y-179710837D01*
X165891884Y-179118116D01*
X165299163Y-178722072D01*
X164600000Y-178583000D01*
X163900837Y-178722072D01*
X163308116Y-179118116D01*
X162912072Y-179710837D01*
X162773000Y-180410000D01*
X158427000Y-180410000D01*
X158427000Y-165740000D01*
X235560921Y-165740000D01*
X235646709Y-166171284D01*
X235891012Y-166536909D01*
X236256637Y-166781212D01*
X236687921Y-166867000D01*
X236732079Y-166867000D01*
X237163363Y-166781212D01*
X237528988Y-166536909D01*
X237773291Y-166171284D01*
X237859079Y-165740000D01*
X238100921Y-165740000D01*
X238186709Y-166171284D01*
X238431012Y-166536909D01*
X238796637Y-166781212D01*
X239227921Y-166867000D01*
X239272079Y-166867000D01*
X239703363Y-166781212D01*
X240068988Y-166536909D01*
X240313291Y-166171284D01*
X240399079Y-165740000D01*
X240313291Y-165308716D01*
X240068988Y-164943091D01*
X239703363Y-164698788D01*
X239272079Y-164613000D01*
X239227921Y-164613000D01*
X238796637Y-164698788D01*
X238431012Y-164943091D01*
X238186709Y-165308716D01*
X238100921Y-165740000D01*
X237859079Y-165740000D01*
X237773291Y-165308716D01*
X237528988Y-164943091D01*
X237163363Y-164698788D01*
X236732079Y-164613000D01*
X236687921Y-164613000D01*
X236256637Y-164698788D01*
X235891012Y-164943091D01*
X235646709Y-165308716D01*
X235560921Y-165740000D01*
X158427000Y-165740000D01*
X158427000Y-162301400D01*
X168646574Y-162301400D01*
X168646574Y-164028600D01*
X168665889Y-164131250D01*
X168726555Y-164225527D01*
X168819120Y-164288775D01*
X168929000Y-164311026D01*
X170961000Y-164311026D01*
X171063650Y-164291711D01*
X171157927Y-164231045D01*
X171221175Y-164138480D01*
X171243426Y-164028600D01*
X171243426Y-163200000D01*
X235560921Y-163200000D01*
X235646709Y-163631284D01*
X235891012Y-163996909D01*
X236256637Y-164241212D01*
X236687921Y-164327000D01*
X236732079Y-164327000D01*
X237163363Y-164241212D01*
X237528988Y-163996909D01*
X237773291Y-163631284D01*
X237859079Y-163200000D01*
X238100921Y-163200000D01*
X238186709Y-163631284D01*
X238431012Y-163996909D01*
X238796637Y-164241212D01*
X239227921Y-164327000D01*
X239272079Y-164327000D01*
X239703363Y-164241212D01*
X240068988Y-163996909D01*
X240313291Y-163631284D01*
X240399079Y-163200000D01*
X240313291Y-162768716D01*
X240068988Y-162403091D01*
X239703363Y-162158788D01*
X239272079Y-162073000D01*
X239227921Y-162073000D01*
X238796637Y-162158788D01*
X238431012Y-162403091D01*
X238186709Y-162768716D01*
X238100921Y-163200000D01*
X237859079Y-163200000D01*
X237773291Y-162768716D01*
X237528988Y-162403091D01*
X237163363Y-162158788D01*
X236732079Y-162073000D01*
X236687921Y-162073000D01*
X236256637Y-162158788D01*
X235891012Y-162403091D01*
X235646709Y-162768716D01*
X235560921Y-163200000D01*
X171243426Y-163200000D01*
X171243426Y-162301400D01*
X171224111Y-162198750D01*
X171163445Y-162104473D01*
X171070880Y-162041225D01*
X170961000Y-162018974D01*
X168929000Y-162018974D01*
X168826350Y-162038289D01*
X168732073Y-162098955D01*
X168668825Y-162191520D01*
X168646574Y-162301400D01*
X158427000Y-162301400D01*
X158427000Y-158444026D01*
X168337642Y-158444026D01*
X168340291Y-158459791D01*
X168594268Y-158987036D01*
X169030680Y-159376954D01*
X169493517Y-159538853D01*
X169330780Y-159571223D01*
X168960743Y-159818474D01*
X168713492Y-160188511D01*
X168626669Y-160625000D01*
X168713492Y-161061489D01*
X168960743Y-161431526D01*
X169330780Y-161678777D01*
X169767269Y-161765600D01*
X170122731Y-161765600D01*
X170559220Y-161678777D01*
X170929257Y-161431526D01*
X171176508Y-161061489D01*
X171263331Y-160625000D01*
X171176508Y-160188511D01*
X170929257Y-159818474D01*
X170559220Y-159571223D01*
X170396483Y-159538853D01*
X170859320Y-159376954D01*
X171295732Y-158987036D01*
X171549709Y-158459791D01*
X171552358Y-158444026D01*
X171431217Y-158212000D01*
X170072000Y-158212000D01*
X170072000Y-158232000D01*
X169818000Y-158232000D01*
X169818000Y-158212000D01*
X168458783Y-158212000D01*
X168337642Y-158444026D01*
X158427000Y-158444026D01*
X158427000Y-138532505D01*
X161492744Y-138532505D01*
X161717130Y-139075560D01*
X162132254Y-139491409D01*
X162674918Y-139716743D01*
X163262505Y-139717256D01*
X163623511Y-139568091D01*
X167442710Y-143387290D01*
X167597460Y-143490691D01*
X167780000Y-143527000D01*
X186268420Y-143527000D01*
X174727420Y-155068000D01*
X171149439Y-155068000D01*
X170929257Y-154738474D01*
X170559220Y-154491223D01*
X170122731Y-154404400D01*
X169767269Y-154404400D01*
X169330780Y-154491223D01*
X168960743Y-154738474D01*
X168713492Y-155108511D01*
X168626669Y-155545000D01*
X168713492Y-155981489D01*
X168960743Y-156351526D01*
X169330780Y-156598777D01*
X169493517Y-156631147D01*
X169030680Y-156793046D01*
X168594268Y-157182964D01*
X168340291Y-157710209D01*
X168337642Y-157725974D01*
X168458783Y-157958000D01*
X169818000Y-157958000D01*
X169818000Y-157938000D01*
X170072000Y-157938000D01*
X170072000Y-157958000D01*
X171431217Y-157958000D01*
X171552358Y-157725974D01*
X171549709Y-157710209D01*
X171295732Y-157182964D01*
X170859320Y-156793046D01*
X170396483Y-156631147D01*
X170559220Y-156598777D01*
X170929257Y-156351526D01*
X171149439Y-156022000D01*
X174925000Y-156022000D01*
X175107540Y-155985691D01*
X175262290Y-155882290D01*
X187617580Y-143527000D01*
X209780879Y-143527000D01*
X209792729Y-143538871D01*
X210004724Y-143626900D01*
X210234269Y-143627100D01*
X210446417Y-143539442D01*
X210458881Y-143527000D01*
X216600879Y-143527000D01*
X216612729Y-143538871D01*
X216824724Y-143626900D01*
X217054269Y-143627100D01*
X217266417Y-143539442D01*
X217428871Y-143377271D01*
X217516900Y-143165276D01*
X217517100Y-142935731D01*
X217429442Y-142723583D01*
X217267271Y-142561129D01*
X217055276Y-142473100D01*
X216825731Y-142472900D01*
X216613583Y-142560558D01*
X216601119Y-142573000D01*
X210459121Y-142573000D01*
X210447271Y-142561129D01*
X210235276Y-142473100D01*
X210005731Y-142472900D01*
X209793583Y-142560558D01*
X209781119Y-142573000D01*
X196497000Y-142573000D01*
X196497000Y-134447580D01*
X196717495Y-134227085D01*
X196734269Y-134227100D01*
X196946417Y-134139442D01*
X197108871Y-133977271D01*
X197196900Y-133765276D01*
X197197100Y-133535731D01*
X197109442Y-133323583D01*
X196947271Y-133161129D01*
X196735276Y-133073100D01*
X196505731Y-133072900D01*
X196293583Y-133160558D01*
X196131129Y-133322729D01*
X196043100Y-133534724D01*
X196043085Y-133552335D01*
X195682710Y-133912710D01*
X195579309Y-134067460D01*
X195543000Y-134250000D01*
X195543000Y-142573000D01*
X167977580Y-142573000D01*
X164297963Y-138893383D01*
X164446743Y-138535082D01*
X164447256Y-137947495D01*
X164222870Y-137404440D01*
X163807746Y-136988591D01*
X163265082Y-136763257D01*
X162677495Y-136762744D01*
X162134440Y-136987130D01*
X161718591Y-137402254D01*
X161493257Y-137944918D01*
X161492744Y-138532505D01*
X158427000Y-138532505D01*
X158427000Y-133540000D01*
X161487574Y-133540000D01*
X161487574Y-135940000D01*
X161506889Y-136042650D01*
X161567555Y-136136927D01*
X161660120Y-136200175D01*
X161770000Y-136222426D01*
X164170000Y-136222426D01*
X164272650Y-136203111D01*
X164366927Y-136142445D01*
X164430175Y-136049880D01*
X164452426Y-135940000D01*
X164452426Y-133540000D01*
X164433111Y-133437350D01*
X164372445Y-133343073D01*
X164279880Y-133279825D01*
X164170000Y-133257574D01*
X161770000Y-133257574D01*
X161667350Y-133276889D01*
X161573073Y-133337555D01*
X161509825Y-133430120D01*
X161487574Y-133540000D01*
X158427000Y-133540000D01*
X158427000Y-132884269D01*
X209872900Y-132884269D01*
X209960558Y-133096417D01*
X210122729Y-133258871D01*
X210334724Y-133346900D01*
X210493881Y-133347039D01*
X210579928Y-133433087D01*
X210365731Y-133432900D01*
X210153583Y-133520558D01*
X209991129Y-133682729D01*
X209903100Y-133894724D01*
X209902900Y-134124269D01*
X209990558Y-134336417D01*
X210103000Y-134449055D01*
X210103000Y-134658992D01*
X210131697Y-134803264D01*
X210213421Y-134925571D01*
X215634450Y-140346600D01*
X215756757Y-140428324D01*
X215901029Y-140457021D01*
X216083883Y-140457021D01*
X218142978Y-142516116D01*
X218142978Y-160529978D01*
X218171675Y-160674250D01*
X218253399Y-160796557D01*
X219633038Y-162176196D01*
X219632900Y-162334269D01*
X219720558Y-162546417D01*
X219882729Y-162708871D01*
X220094724Y-162796900D01*
X220324269Y-162797100D01*
X220536417Y-162709442D01*
X220698871Y-162547271D01*
X220786900Y-162335276D01*
X220787100Y-162105731D01*
X220699442Y-161893583D01*
X220537271Y-161731129D01*
X220325276Y-161643100D01*
X220166119Y-161642961D01*
X218896978Y-160373820D01*
X218896978Y-158920136D01*
X221253038Y-161276196D01*
X221252900Y-161434269D01*
X221340558Y-161646417D01*
X221502729Y-161808871D01*
X221714724Y-161896900D01*
X221944269Y-161897100D01*
X222156417Y-161809442D01*
X222318871Y-161647271D01*
X222406900Y-161435276D01*
X222407100Y-161205731D01*
X222319442Y-160993583D01*
X222157271Y-160831129D01*
X221945276Y-160743100D01*
X221786119Y-160742961D01*
X221703158Y-160660000D01*
X235560921Y-160660000D01*
X235646709Y-161091284D01*
X235891012Y-161456909D01*
X236256637Y-161701212D01*
X236687921Y-161787000D01*
X236732079Y-161787000D01*
X237163363Y-161701212D01*
X237528988Y-161456909D01*
X237773291Y-161091284D01*
X237859079Y-160660000D01*
X238100921Y-160660000D01*
X238186709Y-161091284D01*
X238431012Y-161456909D01*
X238796637Y-161701212D01*
X239227921Y-161787000D01*
X239272079Y-161787000D01*
X239703363Y-161701212D01*
X240068988Y-161456909D01*
X240313291Y-161091284D01*
X240399079Y-160660000D01*
X240313291Y-160228716D01*
X240068988Y-159863091D01*
X239703363Y-159618788D01*
X239272079Y-159533000D01*
X239227921Y-159533000D01*
X238796637Y-159618788D01*
X238431012Y-159863091D01*
X238186709Y-160228716D01*
X238100921Y-160660000D01*
X237859079Y-160660000D01*
X237773291Y-160228716D01*
X237528988Y-159863091D01*
X237163363Y-159618788D01*
X236732079Y-159533000D01*
X236687921Y-159533000D01*
X236256637Y-159618788D01*
X235891012Y-159863091D01*
X235646709Y-160228716D01*
X235560921Y-160660000D01*
X221703158Y-160660000D01*
X220794650Y-159751492D01*
X220896417Y-159709442D01*
X221058871Y-159547271D01*
X221146900Y-159335276D01*
X221147100Y-159105731D01*
X221100998Y-158994156D01*
X221183038Y-159076196D01*
X221182900Y-159234269D01*
X221270558Y-159446417D01*
X221432729Y-159608871D01*
X221644724Y-159696900D01*
X221874269Y-159697100D01*
X222086417Y-159609442D01*
X222248871Y-159447271D01*
X222336900Y-159235276D01*
X222337100Y-159005731D01*
X222249442Y-158793583D01*
X222087271Y-158631129D01*
X221875276Y-158543100D01*
X221716119Y-158542961D01*
X221293158Y-158120000D01*
X235560921Y-158120000D01*
X235646709Y-158551284D01*
X235891012Y-158916909D01*
X236256637Y-159161212D01*
X236687921Y-159247000D01*
X236732079Y-159247000D01*
X237163363Y-159161212D01*
X237528988Y-158916909D01*
X237773291Y-158551284D01*
X237859079Y-158120000D01*
X238100921Y-158120000D01*
X238186709Y-158551284D01*
X238431012Y-158916909D01*
X238796637Y-159161212D01*
X239227921Y-159247000D01*
X239272079Y-159247000D01*
X239703363Y-159161212D01*
X240068988Y-158916909D01*
X240313291Y-158551284D01*
X240399079Y-158120000D01*
X240313291Y-157688716D01*
X240068988Y-157323091D01*
X239703363Y-157078788D01*
X239272079Y-156993000D01*
X239227921Y-156993000D01*
X238796637Y-157078788D01*
X238431012Y-157323091D01*
X238186709Y-157688716D01*
X238100921Y-158120000D01*
X237859079Y-158120000D01*
X237773291Y-157688716D01*
X237528988Y-157323091D01*
X237163363Y-157078788D01*
X236732079Y-156993000D01*
X236687921Y-156993000D01*
X236256637Y-157078788D01*
X235891012Y-157323091D01*
X235646709Y-157688716D01*
X235560921Y-158120000D01*
X221293158Y-158120000D01*
X220027010Y-156853852D01*
X220027010Y-155843072D01*
X220072729Y-155888871D01*
X220284724Y-155976900D01*
X220514269Y-155977100D01*
X220726417Y-155889442D01*
X220888871Y-155727271D01*
X220976900Y-155515276D01*
X220977039Y-155356119D01*
X221016158Y-155317000D01*
X223670000Y-155317000D01*
X223814272Y-155288303D01*
X223936579Y-155206579D01*
X224700323Y-154442835D01*
X224633100Y-154604724D01*
X224632900Y-154834269D01*
X224720558Y-155046417D01*
X224882729Y-155208871D01*
X225094724Y-155296900D01*
X225324269Y-155297100D01*
X225536417Y-155209442D01*
X225698871Y-155047271D01*
X225786900Y-154835276D01*
X225787100Y-154605731D01*
X225699442Y-154393583D01*
X225689517Y-154383641D01*
X226773000Y-153300158D01*
X226773000Y-156150000D01*
X226801697Y-156294272D01*
X226883421Y-156416579D01*
X227753038Y-157286197D01*
X227752900Y-157444269D01*
X227840558Y-157656417D01*
X228002729Y-157818871D01*
X228214724Y-157906900D01*
X228444269Y-157907100D01*
X228656417Y-157819442D01*
X228818871Y-157657271D01*
X228906900Y-157445276D01*
X228907100Y-157215731D01*
X228819442Y-157003583D01*
X228657271Y-156841129D01*
X228445276Y-156753100D01*
X228286120Y-156752961D01*
X227527000Y-155993842D01*
X227527000Y-155580000D01*
X235560921Y-155580000D01*
X235646709Y-156011284D01*
X235891012Y-156376909D01*
X236256637Y-156621212D01*
X236687921Y-156707000D01*
X236732079Y-156707000D01*
X237163363Y-156621212D01*
X237528988Y-156376909D01*
X237773291Y-156011284D01*
X237859079Y-155580000D01*
X237773291Y-155148716D01*
X237528988Y-154783091D01*
X237163363Y-154538788D01*
X236732079Y-154453000D01*
X236687921Y-154453000D01*
X236256637Y-154538788D01*
X235891012Y-154783091D01*
X235646709Y-155148716D01*
X235560921Y-155580000D01*
X227527000Y-155580000D01*
X227527000Y-154253107D01*
X227552729Y-154278881D01*
X227764724Y-154366910D01*
X227994269Y-154367110D01*
X228206417Y-154279452D01*
X228368871Y-154117281D01*
X228456900Y-153905286D01*
X228457039Y-153746129D01*
X228626601Y-153576568D01*
X228702659Y-153462739D01*
X228708324Y-153454261D01*
X228737021Y-153309989D01*
X228737021Y-152190000D01*
X235577574Y-152190000D01*
X235577574Y-153890000D01*
X235596889Y-153992650D01*
X235657555Y-154086927D01*
X235750120Y-154150175D01*
X235860000Y-154172426D01*
X237560000Y-154172426D01*
X237662650Y-154153111D01*
X237756927Y-154092445D01*
X237820175Y-153999880D01*
X237842426Y-153890000D01*
X237842426Y-153478742D01*
X237978355Y-153806924D01*
X238368642Y-154235183D01*
X238893108Y-154481486D01*
X239122998Y-154360820D01*
X239122998Y-154473871D01*
X238796637Y-154538788D01*
X238431012Y-154783091D01*
X238186709Y-155148716D01*
X238100921Y-155580000D01*
X238186709Y-156011284D01*
X238431012Y-156376909D01*
X238796637Y-156621212D01*
X239227921Y-156707000D01*
X239272079Y-156707000D01*
X239703363Y-156621212D01*
X240068988Y-156376909D01*
X240313291Y-156011284D01*
X240399079Y-155580000D01*
X240313291Y-155148716D01*
X240068988Y-154783091D01*
X239703363Y-154538788D01*
X239377002Y-154473871D01*
X239377002Y-154360820D01*
X239606892Y-154481486D01*
X240131358Y-154235183D01*
X240521645Y-153806924D01*
X240691476Y-153396890D01*
X240570155Y-153167000D01*
X239377000Y-153167000D01*
X239377000Y-153187000D01*
X239123000Y-153187000D01*
X239123000Y-153167000D01*
X239103000Y-153167000D01*
X239103000Y-152913000D01*
X239123000Y-152913000D01*
X239123000Y-151719181D01*
X239377000Y-151719181D01*
X239377000Y-152913000D01*
X240570155Y-152913000D01*
X240691476Y-152683110D01*
X240521645Y-152273076D01*
X240131358Y-151844817D01*
X239606892Y-151598514D01*
X239377000Y-151719181D01*
X239123000Y-151719181D01*
X238893108Y-151598514D01*
X238368642Y-151844817D01*
X237978355Y-152273076D01*
X237842426Y-152601258D01*
X237842426Y-152190000D01*
X237823111Y-152087350D01*
X237762445Y-151993073D01*
X237669880Y-151929825D01*
X237560000Y-151907574D01*
X235860000Y-151907574D01*
X235757350Y-151926889D01*
X235663073Y-151987555D01*
X235599825Y-152080120D01*
X235577574Y-152190000D01*
X228737021Y-152190000D01*
X228737021Y-137140021D01*
X228708324Y-136995749D01*
X228626600Y-136873442D01*
X225176962Y-133423804D01*
X225177100Y-133265731D01*
X225089442Y-133053583D01*
X224927271Y-132891129D01*
X224715276Y-132803100D01*
X224485731Y-132802900D01*
X224273583Y-132890558D01*
X224111129Y-133052729D01*
X224023100Y-133264724D01*
X224022900Y-133494269D01*
X224110558Y-133706417D01*
X224272729Y-133868871D01*
X224484724Y-133956900D01*
X224643881Y-133957039D01*
X227983021Y-137296179D01*
X227983021Y-142644873D01*
X227857011Y-142518863D01*
X227857011Y-139530011D01*
X227828314Y-139385739D01*
X227746590Y-139263432D01*
X216646579Y-128163421D01*
X216524272Y-128081697D01*
X216380000Y-128053000D01*
X215681895Y-128053000D01*
X215212495Y-127583601D01*
X215238871Y-127557271D01*
X215326900Y-127345276D01*
X215327100Y-127115731D01*
X215239442Y-126903583D01*
X215077271Y-126741129D01*
X214865276Y-126653100D01*
X214635731Y-126652900D01*
X214423583Y-126740558D01*
X214261129Y-126902729D01*
X214173100Y-127114724D01*
X214172900Y-127344269D01*
X214260558Y-127556417D01*
X214376674Y-127672736D01*
X214401697Y-127798536D01*
X214483421Y-127920843D01*
X215258328Y-128695751D01*
X215131129Y-128822729D01*
X215043100Y-129034724D01*
X215042900Y-129264269D01*
X215130558Y-129476417D01*
X215243000Y-129589055D01*
X215243000Y-130399842D01*
X215156578Y-130313420D01*
X215034271Y-130231696D01*
X214889999Y-130202999D01*
X214587068Y-130202999D01*
X214587100Y-130165731D01*
X214499442Y-129953583D01*
X214337271Y-129791129D01*
X214125276Y-129703100D01*
X213895731Y-129702900D01*
X213683583Y-129790558D01*
X213521129Y-129952729D01*
X213433100Y-130164724D01*
X213432900Y-130394269D01*
X213520558Y-130606417D01*
X213611337Y-130697354D01*
X213603583Y-130700558D01*
X213441129Y-130862729D01*
X213353100Y-131074724D01*
X213352900Y-131304269D01*
X213440558Y-131516417D01*
X213602729Y-131678871D01*
X213814724Y-131766900D01*
X213979081Y-131767043D01*
X214036738Y-131805568D01*
X214085727Y-131838302D01*
X214229999Y-131866999D01*
X215093841Y-131866999D01*
X226783000Y-143556158D01*
X226783000Y-151293842D01*
X223513842Y-154563000D01*
X220860000Y-154563000D01*
X220715728Y-154591697D01*
X220593421Y-154673421D01*
X220443804Y-154823038D01*
X220285731Y-154822900D01*
X220073583Y-154910558D01*
X220027010Y-154957050D01*
X220027010Y-154076168D01*
X220038314Y-154059251D01*
X220067011Y-153914979D01*
X220067011Y-142250169D01*
X224003421Y-146186579D01*
X224125728Y-146268303D01*
X224270000Y-146297000D01*
X225191053Y-146297000D01*
X225302729Y-146408871D01*
X225514724Y-146496900D01*
X225744269Y-146497100D01*
X225956417Y-146409442D01*
X226118871Y-146247271D01*
X226206900Y-146035276D01*
X226207100Y-145805731D01*
X226119442Y-145593583D01*
X225957271Y-145431129D01*
X225745276Y-145343100D01*
X225515731Y-145342900D01*
X225356967Y-145408500D01*
X225357100Y-145255721D01*
X225269442Y-145043573D01*
X225107271Y-144881119D01*
X224895276Y-144793090D01*
X224665731Y-144792890D01*
X224603355Y-144818664D01*
X216247634Y-136462943D01*
X216247772Y-136304870D01*
X216160114Y-136092722D01*
X215997943Y-135930268D01*
X215785948Y-135842239D01*
X215556403Y-135842039D01*
X215344255Y-135929697D01*
X215206141Y-136067571D01*
X215189489Y-136042650D01*
X215166998Y-136008989D01*
X215167140Y-135845767D01*
X215079482Y-135633619D01*
X214917311Y-135471165D01*
X214705316Y-135383136D01*
X214475771Y-135382936D01*
X214313538Y-135449970D01*
X214287359Y-135386613D01*
X214125188Y-135224159D01*
X213913193Y-135136130D01*
X213683648Y-135135930D01*
X213471500Y-135223588D01*
X213325481Y-135369353D01*
X213317271Y-135361129D01*
X213105276Y-135273100D01*
X212875731Y-135272900D01*
X212816999Y-135297168D01*
X212816999Y-134759999D01*
X212788302Y-134615727D01*
X212755568Y-134566738D01*
X212706579Y-134493420D01*
X211026962Y-132813804D01*
X211027100Y-132655731D01*
X210939442Y-132443583D01*
X210777271Y-132281129D01*
X210565276Y-132193100D01*
X210335731Y-132192900D01*
X210123583Y-132280558D01*
X209961129Y-132442729D01*
X209873100Y-132654724D01*
X209872900Y-132884269D01*
X158427000Y-132884269D01*
X158427000Y-122187175D01*
X161832430Y-122187175D01*
X161955565Y-122474788D01*
X162637734Y-122734707D01*
X163367443Y-122713786D01*
X163944435Y-122474788D01*
X164067570Y-122187175D01*
X162950000Y-121069605D01*
X161832430Y-122187175D01*
X158427000Y-122187175D01*
X158427000Y-120577734D01*
X161105293Y-120577734D01*
X161126214Y-121307443D01*
X161365212Y-121884435D01*
X161652825Y-122007570D01*
X162770395Y-120890000D01*
X163129605Y-120890000D01*
X164247175Y-122007570D01*
X164534788Y-121884435D01*
X164794707Y-121202266D01*
X164773786Y-120472557D01*
X164534788Y-119895565D01*
X164247175Y-119772430D01*
X163129605Y-120890000D01*
X162770395Y-120890000D01*
X161652825Y-119772430D01*
X161365212Y-119895565D01*
X161105293Y-120577734D01*
X158427000Y-120577734D01*
X158427000Y-119592825D01*
X161832430Y-119592825D01*
X162950000Y-120710395D01*
X164067570Y-119592825D01*
X163944435Y-119305212D01*
X163262266Y-119045293D01*
X162532557Y-119066214D01*
X161955565Y-119305212D01*
X161832430Y-119592825D01*
X158427000Y-119592825D01*
X158427000Y-116190000D01*
X161467574Y-116190000D01*
X161467574Y-118590000D01*
X161486889Y-118692650D01*
X161547555Y-118786927D01*
X161640120Y-118850175D01*
X161750000Y-118872426D01*
X164150000Y-118872426D01*
X164252650Y-118853111D01*
X164346927Y-118792445D01*
X164410175Y-118699880D01*
X164432426Y-118590000D01*
X164432426Y-117234269D01*
X181902900Y-117234269D01*
X181990558Y-117446417D01*
X182071997Y-117527998D01*
X182071999Y-117528001D01*
X182072002Y-117528003D01*
X182152729Y-117608871D01*
X182364724Y-117696900D01*
X182479997Y-117697000D01*
X182480000Y-117697001D01*
X182480003Y-117697000D01*
X182594269Y-117697100D01*
X182806417Y-117609442D01*
X182887998Y-117528003D01*
X182888001Y-117528001D01*
X182888505Y-117527497D01*
X182968871Y-117447271D01*
X182968970Y-117447032D01*
X183670238Y-116745763D01*
X191230820Y-116745763D01*
X191388665Y-117127777D01*
X191680685Y-117420308D01*
X192062423Y-117578819D01*
X192475763Y-117579180D01*
X192857777Y-117421335D01*
X193150308Y-117129315D01*
X193308819Y-116747577D01*
X193309180Y-116334237D01*
X193151335Y-115952223D01*
X192859315Y-115659692D01*
X192477577Y-115501181D01*
X192064237Y-115500820D01*
X191682223Y-115658665D01*
X191389692Y-115950685D01*
X191231181Y-116332423D01*
X191230820Y-116745763D01*
X183670238Y-116745763D01*
X186210238Y-114205763D01*
X191230820Y-114205763D01*
X191388665Y-114587777D01*
X191680685Y-114880308D01*
X192062423Y-115038819D01*
X192475763Y-115039180D01*
X192857777Y-114881335D01*
X193150308Y-114589315D01*
X193308819Y-114207577D01*
X193309180Y-113794237D01*
X193151335Y-113412223D01*
X192859315Y-113119692D01*
X192477577Y-112961181D01*
X192064237Y-112960820D01*
X191682223Y-113118665D01*
X191389692Y-113410685D01*
X191231181Y-113792423D01*
X191230820Y-114205763D01*
X186210238Y-114205763D01*
X189681002Y-110734999D01*
X191525615Y-110734999D01*
X191389692Y-110870685D01*
X191231181Y-111252423D01*
X191230820Y-111665763D01*
X191388665Y-112047777D01*
X191680685Y-112340308D01*
X192062423Y-112498819D01*
X192475763Y-112499180D01*
X192857777Y-112341335D01*
X193150308Y-112049315D01*
X193308819Y-111667577D01*
X193309180Y-111254237D01*
X193151335Y-110872223D01*
X193014351Y-110734999D01*
X199810458Y-110734999D01*
X199764692Y-110780685D01*
X199606181Y-111162423D01*
X199605820Y-111575763D01*
X199677114Y-111748306D01*
X188072505Y-123352915D01*
X188055731Y-123352900D01*
X187843583Y-123440558D01*
X187681129Y-123602729D01*
X187593100Y-123814724D01*
X187592900Y-124044269D01*
X187680558Y-124256417D01*
X187842729Y-124418871D01*
X188054724Y-124506900D01*
X188284269Y-124507100D01*
X188496417Y-124419442D01*
X188658871Y-124257271D01*
X188746900Y-124045276D01*
X188746915Y-124027665D01*
X195344367Y-117430213D01*
X199844392Y-117430213D01*
X199913857Y-117672397D01*
X200437302Y-117859144D01*
X200992368Y-117831362D01*
X201376143Y-117672397D01*
X201445608Y-117430213D01*
X200645000Y-116629605D01*
X199844392Y-117430213D01*
X195344367Y-117430213D01*
X196532278Y-116242302D01*
X199235856Y-116242302D01*
X199263638Y-116797368D01*
X199422603Y-117181143D01*
X199664787Y-117250608D01*
X200465395Y-116450000D01*
X200824605Y-116450000D01*
X201625213Y-117250608D01*
X201867397Y-117181143D01*
X202054144Y-116657698D01*
X202026362Y-116102632D01*
X201867397Y-115718857D01*
X201625213Y-115649392D01*
X200824605Y-116450000D01*
X200465395Y-116450000D01*
X199664787Y-115649392D01*
X199422603Y-115718857D01*
X199235856Y-116242302D01*
X196532278Y-116242302D01*
X197304793Y-115469787D01*
X199844392Y-115469787D01*
X200645000Y-116270395D01*
X201445608Y-115469787D01*
X201376143Y-115227603D01*
X200852698Y-115040856D01*
X200297632Y-115068638D01*
X199913857Y-115227603D01*
X199844392Y-115469787D01*
X197304793Y-115469787D01*
X198658817Y-114115763D01*
X199605820Y-114115763D01*
X199763665Y-114497777D01*
X200055685Y-114790308D01*
X200437423Y-114948819D01*
X200850763Y-114949180D01*
X201232777Y-114791335D01*
X201525308Y-114499315D01*
X201683819Y-114117577D01*
X201684180Y-113704237D01*
X201526335Y-113322223D01*
X201234315Y-113029692D01*
X200852577Y-112871181D01*
X200439237Y-112870820D01*
X200057223Y-113028665D01*
X199764692Y-113320685D01*
X199606181Y-113702423D01*
X199605820Y-114115763D01*
X198658817Y-114115763D01*
X200386787Y-112387793D01*
X200437423Y-112408819D01*
X200850763Y-112409180D01*
X201232777Y-112251335D01*
X201525308Y-111959315D01*
X201683819Y-111577577D01*
X201684180Y-111164237D01*
X201526335Y-110782223D01*
X201479193Y-110734999D01*
X220488997Y-110734999D01*
X221531997Y-111777998D01*
X221531999Y-111778001D01*
X225797918Y-116043920D01*
X225797875Y-116092985D01*
X225907561Y-116358446D01*
X226110486Y-116561725D01*
X226375755Y-116671875D01*
X226662985Y-116672125D01*
X226928446Y-116562439D01*
X227131725Y-116359514D01*
X227241875Y-116094245D01*
X227242125Y-115807015D01*
X227132439Y-115541554D01*
X226929514Y-115338275D01*
X226664245Y-115228125D01*
X226614083Y-115228081D01*
X222348001Y-110961999D01*
X222347998Y-110961997D01*
X221136000Y-109749998D01*
X220948807Y-109624921D01*
X220727999Y-109580998D01*
X220727994Y-109580999D01*
X189442001Y-109580999D01*
X189221193Y-109624921D01*
X189034000Y-109749998D01*
X189033998Y-109750001D01*
X182071999Y-116711999D01*
X182071997Y-116712002D01*
X181991129Y-116792729D01*
X181903100Y-117004724D01*
X181903000Y-117119997D01*
X181902999Y-117120000D01*
X181903000Y-117120003D01*
X181902900Y-117234269D01*
X164432426Y-117234269D01*
X164432426Y-116190000D01*
X164413111Y-116087350D01*
X164352445Y-115993073D01*
X164259880Y-115929825D01*
X164150000Y-115907574D01*
X161750000Y-115907574D01*
X161647350Y-115926889D01*
X161553073Y-115987555D01*
X161489825Y-116080120D01*
X161467574Y-116190000D01*
X158427000Y-116190000D01*
X158427000Y-110842603D01*
X172812752Y-110842603D01*
X173029543Y-111367275D01*
X173430614Y-111769047D01*
X173954907Y-111986752D01*
X174522603Y-111987248D01*
X175047275Y-111770457D01*
X175449047Y-111369386D01*
X175542595Y-111144097D01*
X175785851Y-111387778D01*
X176144810Y-111536830D01*
X176533485Y-111537170D01*
X176892703Y-111388744D01*
X177167778Y-111114149D01*
X177316830Y-110755190D01*
X177316831Y-110753485D01*
X177362830Y-110753485D01*
X177511256Y-111112703D01*
X177785851Y-111387778D01*
X178144810Y-111536830D01*
X178533485Y-111537170D01*
X178892703Y-111388744D01*
X179167778Y-111114149D01*
X179316830Y-110755190D01*
X179316894Y-110681950D01*
X179362933Y-110635911D01*
X179362830Y-110753485D01*
X179511256Y-111112703D01*
X179785851Y-111387778D01*
X180144810Y-111536830D01*
X180533485Y-111537170D01*
X180892703Y-111388744D01*
X181137459Y-111144415D01*
X181229543Y-111367275D01*
X181630614Y-111769047D01*
X182154907Y-111986752D01*
X182722603Y-111987248D01*
X183247275Y-111770457D01*
X183649047Y-111369386D01*
X183866752Y-110845093D01*
X183867248Y-110277397D01*
X183650457Y-109752725D01*
X183249386Y-109350953D01*
X182725093Y-109133248D01*
X182157397Y-109132752D01*
X181632725Y-109349543D01*
X181230953Y-109750614D01*
X181137405Y-109975903D01*
X180894149Y-109732222D01*
X180535190Y-109583170D01*
X180415778Y-109583066D01*
X185265016Y-104733828D01*
X212227861Y-104733828D01*
X212349701Y-105028703D01*
X212530800Y-105210119D01*
X212350494Y-105390110D01*
X212228140Y-105684772D01*
X212227861Y-106003828D01*
X212349701Y-106298703D01*
X212575110Y-106524506D01*
X212869772Y-106646860D01*
X213188828Y-106647139D01*
X213483703Y-106525299D01*
X213665119Y-106344200D01*
X213845110Y-106524506D01*
X214139772Y-106646860D01*
X214458828Y-106647139D01*
X214753703Y-106525299D01*
X214935119Y-106344200D01*
X215115110Y-106524506D01*
X215409772Y-106646860D01*
X215728828Y-106647139D01*
X216023703Y-106525299D01*
X216205119Y-106344200D01*
X216385110Y-106524506D01*
X216679772Y-106646860D01*
X216774899Y-106646943D01*
X215348842Y-108073000D01*
X214958947Y-108073000D01*
X214847271Y-107961129D01*
X214635276Y-107873100D01*
X214405731Y-107872900D01*
X214193583Y-107960558D01*
X214031129Y-108122729D01*
X213943100Y-108334724D01*
X213942900Y-108564269D01*
X214030558Y-108776417D01*
X214192729Y-108938871D01*
X214404724Y-109026900D01*
X214634269Y-109027100D01*
X214846417Y-108939442D01*
X214959055Y-108827000D01*
X215505000Y-108827000D01*
X215649272Y-108798303D01*
X215771579Y-108716579D01*
X217873125Y-106615033D01*
X217949772Y-106646860D01*
X218268828Y-106647139D01*
X218563703Y-106525299D01*
X218789506Y-106299890D01*
X218911860Y-106005228D01*
X218912139Y-105686172D01*
X218790299Y-105391297D01*
X218752575Y-105353507D01*
X218831927Y-105302445D01*
X218895175Y-105209880D01*
X218917426Y-105100000D01*
X218917426Y-104050000D01*
X218898111Y-103947350D01*
X218837445Y-103853073D01*
X218744880Y-103789825D01*
X218635000Y-103767574D01*
X217585000Y-103767574D01*
X217482350Y-103786889D01*
X217388073Y-103847555D01*
X217324825Y-103940120D01*
X217302574Y-104050000D01*
X217302574Y-104292031D01*
X217019605Y-104575000D01*
X217033748Y-104589143D01*
X216854142Y-104768748D01*
X216840000Y-104754605D01*
X216825858Y-104768748D01*
X216740102Y-104682992D01*
X216726270Y-104480840D01*
X216825858Y-104381253D01*
X216840000Y-104395395D01*
X217468667Y-103766727D01*
X217428425Y-103549038D01*
X216991015Y-103401954D01*
X216530614Y-103433457D01*
X216251575Y-103549038D01*
X216214206Y-103751186D01*
X216205000Y-103760392D01*
X216195794Y-103751186D01*
X216158425Y-103549038D01*
X215721015Y-103401954D01*
X215260614Y-103433457D01*
X214981575Y-103549038D01*
X214941333Y-103766727D01*
X215570000Y-104395395D01*
X215584143Y-104381253D01*
X215669898Y-104467008D01*
X215683730Y-104669160D01*
X215584143Y-104768748D01*
X215570000Y-104754605D01*
X215555858Y-104768748D01*
X215376252Y-104589142D01*
X215390395Y-104575000D01*
X215011005Y-104195610D01*
X214980299Y-104121297D01*
X214754890Y-103895494D01*
X214460228Y-103773140D01*
X214141172Y-103772861D01*
X213846297Y-103894701D01*
X213664881Y-104075800D01*
X213484890Y-103895494D01*
X213190228Y-103773140D01*
X212871172Y-103772861D01*
X212576297Y-103894701D01*
X212350494Y-104120110D01*
X212228140Y-104414772D01*
X212227861Y-104733828D01*
X185265016Y-104733828D01*
X185908467Y-104090377D01*
X186119423Y-103949421D01*
X188121844Y-101947000D01*
X227728156Y-101947000D01*
X241643010Y-115861854D01*
X241643010Y-123152818D01*
X241582778Y-123112572D01*
X241295000Y-123055329D01*
X241007222Y-123112572D01*
X240763256Y-123275585D01*
X240600243Y-123519551D01*
X240543000Y-123807329D01*
X240543000Y-124142671D01*
X240600243Y-124430449D01*
X240763256Y-124674415D01*
X241007222Y-124837428D01*
X241295000Y-124894671D01*
X241582778Y-124837428D01*
X241643010Y-124797182D01*
X241643010Y-128152818D01*
X241582778Y-128112572D01*
X241295000Y-128055329D01*
X241007222Y-128112572D01*
X240763256Y-128275585D01*
X240600243Y-128519551D01*
X240543000Y-128807329D01*
X240543000Y-129142671D01*
X240600243Y-129430449D01*
X240763256Y-129674415D01*
X241007222Y-129837428D01*
X241295000Y-129894671D01*
X241582778Y-129837428D01*
X241643010Y-129797182D01*
X241643010Y-130508146D01*
X238403157Y-133747999D01*
X234726843Y-133747999D01*
X234509422Y-133530578D01*
X234257345Y-133362146D01*
X233960000Y-133303000D01*
X233662655Y-133362146D01*
X233410578Y-133530578D01*
X233242146Y-133782655D01*
X233183000Y-134080000D01*
X233242146Y-134377345D01*
X233410578Y-134629422D01*
X233855577Y-135074421D01*
X234107654Y-135242853D01*
X234404999Y-135301999D01*
X236849157Y-135301999D01*
X235190578Y-136960578D01*
X235022146Y-137212655D01*
X234963000Y-137510000D01*
X235022146Y-137807345D01*
X235190578Y-138059422D01*
X235442655Y-138227854D01*
X235740000Y-138287000D01*
X236037345Y-138227854D01*
X236289422Y-138059422D01*
X242969432Y-131379412D01*
X243137864Y-131127335D01*
X243197010Y-130829990D01*
X243197010Y-130555854D01*
X243402045Y-130692854D01*
X243699390Y-130752000D01*
X244290610Y-130752000D01*
X244587955Y-130692854D01*
X244840032Y-130524422D01*
X245008464Y-130272345D01*
X245067610Y-129975000D01*
X245008464Y-129677655D01*
X244840032Y-129425578D01*
X244587955Y-129257146D01*
X244290610Y-129198000D01*
X243699390Y-129198000D01*
X243402045Y-129257146D01*
X243197010Y-129394146D01*
X243197010Y-123555854D01*
X243402045Y-123692854D01*
X243699390Y-123752000D01*
X244290610Y-123752000D01*
X244587955Y-123692854D01*
X244840032Y-123524422D01*
X245008464Y-123272345D01*
X245067610Y-122975000D01*
X245008464Y-122677655D01*
X244840032Y-122425578D01*
X244587955Y-122257146D01*
X244290610Y-122198000D01*
X243699390Y-122198000D01*
X243402045Y-122257146D01*
X243197010Y-122394146D01*
X243197010Y-115540010D01*
X243137864Y-115242665D01*
X242969432Y-114990588D01*
X233388844Y-105410000D01*
X237773000Y-105410000D01*
X237912072Y-106109163D01*
X238308116Y-106701884D01*
X238900837Y-107097928D01*
X239600000Y-107237000D01*
X240299163Y-107097928D01*
X240891884Y-106701884D01*
X241287928Y-106109163D01*
X241427000Y-105410000D01*
X241287928Y-104710837D01*
X240891884Y-104118116D01*
X240299163Y-103722072D01*
X239600000Y-103583000D01*
X238900837Y-103722072D01*
X238308116Y-104118116D01*
X237912072Y-104710837D01*
X237773000Y-105410000D01*
X233388844Y-105410000D01*
X228599422Y-100620578D01*
X228347345Y-100452146D01*
X228050000Y-100393000D01*
X187800000Y-100393000D01*
X187502655Y-100452146D01*
X187250578Y-100620578D01*
X185161535Y-102709621D01*
X184950579Y-102850577D01*
X178218263Y-109582893D01*
X178146515Y-109582830D01*
X177787297Y-109731256D01*
X177512222Y-110005851D01*
X177363170Y-110364810D01*
X177362830Y-110753485D01*
X177316831Y-110753485D01*
X177317170Y-110366515D01*
X177168744Y-110007297D01*
X176894149Y-109732222D01*
X176535190Y-109583170D01*
X176146515Y-109582830D01*
X175787297Y-109731256D01*
X175542541Y-109975585D01*
X175450457Y-109752725D01*
X175049386Y-109350953D01*
X174525093Y-109133248D01*
X173957397Y-109132752D01*
X173432725Y-109349543D01*
X173030953Y-109750614D01*
X172813248Y-110274907D01*
X172812752Y-110842603D01*
X158427000Y-110842603D01*
X158427000Y-105410000D01*
X162773000Y-105410000D01*
X162912072Y-106109163D01*
X163308116Y-106701884D01*
X163900837Y-107097928D01*
X164600000Y-107237000D01*
X165299163Y-107097928D01*
X165891884Y-106701884D01*
X166287928Y-106109163D01*
X166427000Y-105410000D01*
X166287928Y-104710837D01*
X165891884Y-104118116D01*
X165299163Y-103722072D01*
X164600000Y-103583000D01*
X163900837Y-103722072D01*
X163308116Y-104118116D01*
X162912072Y-104710837D01*
X162773000Y-105410000D01*
X158427000Y-105410000D01*
X158427000Y-103942207D01*
X158788629Y-102124172D01*
X159800220Y-100610220D01*
X161314171Y-99598630D01*
X163132207Y-99237000D01*
X241067793Y-99237000D01*
X242885829Y-99598631D01*
M02*
