G04 #@! TF.FileFunction,Soldermask,Top*
%FSLAX46Y46*%
G04 Gerber Fmt 4.6, Leading zero omitted, Abs format (unit mm)*
G04 Created by KiCad (PCBNEW 4.0.4-stable) date 03/01/18 20:45:57*
%MOMM*%
%LPD*%
G01*
G04 APERTURE LIST*
%ADD10C,0.100000*%
%ADD11R,0.700000X1.300000*%
%ADD12R,1.700000X1.700000*%
%ADD13O,1.700000X1.700000*%
%ADD14R,1.000000X1.250000*%
%ADD15R,0.700000X0.600000*%
%ADD16R,1.250000X1.000000*%
%ADD17R,1.803400X1.600200*%
%ADD18R,0.635000X1.143000*%
%ADD19R,1.350000X0.400000*%
%ADD20O,0.950000X1.250000*%
%ADD21O,1.550000X1.000000*%
%ADD22R,2.032000X1.727200*%
%ADD23O,2.032000X1.727200*%
%ADD24R,1.300000X0.700000*%
%ADD25R,1.000760X0.599440*%
%ADD26R,1.060000X0.650000*%
%ADD27R,1.143000X0.508000*%
%ADD28R,2.037160X1.237160*%
%ADD29R,1.050000X1.050000*%
%ADD30C,1.050000*%
%ADD31C,1.524000*%
%ADD32C,2.300000*%
%ADD33C,1.400000*%
%ADD34R,1.550000X1.300000*%
%ADD35R,1.300000X0.250000*%
%ADD36R,0.250000X1.300000*%
%ADD37C,2.400000*%
%ADD38R,2.400000X2.400000*%
%ADD39R,0.797560X0.797560*%
G04 APERTURE END LIST*
D10*
D11*
X226090000Y-160240000D03*
X224190000Y-160240000D03*
D12*
X236710000Y-153040000D03*
D13*
X239250000Y-153040000D03*
X236710000Y-155580000D03*
X239250000Y-155580000D03*
X236710000Y-158120000D03*
X239250000Y-158120000D03*
X236710000Y-160660000D03*
X239250000Y-160660000D03*
X236710000Y-163200000D03*
X239250000Y-163200000D03*
X236710000Y-165740000D03*
X239250000Y-165740000D03*
D14*
X207143000Y-132905000D03*
X205143000Y-132905000D03*
D15*
X207790000Y-123045000D03*
X206590000Y-123045000D03*
D16*
X217120000Y-120220000D03*
X217120000Y-118220000D03*
D15*
X207840000Y-128545000D03*
X206640000Y-128545000D03*
D16*
X219400000Y-120180000D03*
X219400000Y-118180000D03*
X237895000Y-135200000D03*
X237895000Y-133200000D03*
D14*
X192895000Y-130500000D03*
X190895000Y-130500000D03*
D16*
X226630000Y-141860000D03*
X226630000Y-143860000D03*
D14*
X221120000Y-146150000D03*
X223120000Y-146150000D03*
X181320000Y-115050000D03*
X183320000Y-115050000D03*
X225330000Y-125710000D03*
X227330000Y-125710000D03*
D16*
X214470000Y-138270000D03*
X214470000Y-140270000D03*
X187460000Y-128890000D03*
X187460000Y-130890000D03*
X180420000Y-122650000D03*
X180420000Y-124650000D03*
X205195000Y-114575000D03*
X205195000Y-116575000D03*
D17*
X235745000Y-132753000D03*
X235745000Y-135547000D03*
D18*
X205846000Y-130900000D03*
X207370000Y-130900000D03*
D19*
X241295000Y-127775000D03*
X241295000Y-127125000D03*
X241295000Y-126475000D03*
X241295000Y-125825000D03*
X241295000Y-125175000D03*
D20*
X241295000Y-128975000D03*
X241295000Y-123975000D03*
D21*
X243995000Y-129975000D03*
X243995000Y-122975000D03*
D22*
X169945000Y-163165000D03*
D23*
X169945000Y-160625000D03*
X169945000Y-158085000D03*
X169945000Y-155545000D03*
D11*
X230750000Y-118780000D03*
X232650000Y-118780000D03*
X232700000Y-124250000D03*
X230800000Y-124250000D03*
X222370000Y-110850000D03*
X224270000Y-110850000D03*
D24*
X229560000Y-136740000D03*
X229560000Y-134840000D03*
X170660000Y-134890000D03*
X170660000Y-136790000D03*
D11*
X190940000Y-132720000D03*
X192840000Y-132720000D03*
X182920000Y-120690000D03*
X184820000Y-120690000D03*
D25*
X232840000Y-122650000D03*
X232840000Y-120745000D03*
X232840000Y-121697500D03*
X230726720Y-120745000D03*
X230726720Y-122650000D03*
D26*
X223220000Y-143725000D03*
X223220000Y-142775000D03*
X223220000Y-141825000D03*
X221020000Y-141825000D03*
X221020000Y-143725000D03*
D27*
X177935000Y-115935000D03*
X177935000Y-117205000D03*
X177935000Y-118475000D03*
X177935000Y-119745000D03*
X171585000Y-119745000D03*
X171585000Y-118475000D03*
X171585000Y-117205000D03*
X171585000Y-115935000D03*
D25*
X192976640Y-128077500D03*
X192976640Y-126172500D03*
X192976640Y-127125000D03*
X190863360Y-126172500D03*
X190863360Y-128077500D03*
D28*
X207265000Y-127145000D03*
X207265000Y-124545000D03*
D29*
X218110000Y-104575000D03*
D30*
X216840000Y-104575000D03*
X215570000Y-104575000D03*
X214300000Y-104575000D03*
X213030000Y-104575000D03*
X216840000Y-105845000D03*
X215570000Y-105845000D03*
X214300000Y-105845000D03*
X213030000Y-105845000D03*
X218110000Y-105845000D03*
D31*
X192270000Y-114000000D03*
X192270000Y-116540000D03*
X192270000Y-111460000D03*
X200645000Y-113910000D03*
X200645000Y-116450000D03*
X200645000Y-111370000D03*
D32*
X174240000Y-110560000D03*
X182440000Y-110560000D03*
D33*
X180340000Y-110560000D03*
X178340000Y-110560000D03*
X176340000Y-110560000D03*
D34*
X224570000Y-103025000D03*
X224570000Y-107525000D03*
X232520000Y-107525000D03*
X232520000Y-103025000D03*
D35*
X212195000Y-126900000D03*
X212195000Y-127400000D03*
X212195000Y-127900000D03*
X212195000Y-128400000D03*
X212195000Y-128900000D03*
X212195000Y-129400000D03*
X212195000Y-129900000D03*
X212195000Y-130400000D03*
X212195000Y-130900000D03*
X212195000Y-131400000D03*
X212195000Y-131900000D03*
X212195000Y-132400000D03*
D36*
X213795000Y-134000000D03*
X214295000Y-134000000D03*
X214795000Y-134000000D03*
X215295000Y-134000000D03*
X215795000Y-134000000D03*
X216295000Y-134000000D03*
X216795000Y-134000000D03*
X217295000Y-134000000D03*
X217795000Y-134000000D03*
X218295000Y-134000000D03*
X218795000Y-134000000D03*
X219295000Y-134000000D03*
D35*
X220895000Y-132400000D03*
X220895000Y-131900000D03*
X220895000Y-131400000D03*
X220895000Y-130900000D03*
X220895000Y-130400000D03*
X220895000Y-129900000D03*
X220895000Y-129400000D03*
X220895000Y-128900000D03*
X220895000Y-128400000D03*
X220895000Y-127900000D03*
X220895000Y-127400000D03*
X220895000Y-126900000D03*
D36*
X219295000Y-125300000D03*
X218795000Y-125300000D03*
X218295000Y-125300000D03*
X217795000Y-125300000D03*
X217295000Y-125300000D03*
X216795000Y-125300000D03*
X216295000Y-125300000D03*
X215795000Y-125300000D03*
X215295000Y-125300000D03*
X214795000Y-125300000D03*
X214295000Y-125300000D03*
X213795000Y-125300000D03*
D25*
X231538360Y-134797500D03*
X233651640Y-135750000D03*
X231538360Y-136702500D03*
D37*
X162970000Y-138240000D03*
D38*
X162970000Y-134740000D03*
D37*
X162950000Y-120890000D03*
D38*
X162950000Y-117390000D03*
D39*
X201000000Y-161250700D03*
X201000000Y-162749300D03*
X207000000Y-161250700D03*
X207000000Y-162749300D03*
X212620000Y-161250700D03*
X212620000Y-162749300D03*
X218000000Y-161250700D03*
X218000000Y-162749300D03*
D24*
X201000000Y-157050000D03*
X201000000Y-158950000D03*
X207000000Y-157050000D03*
X207000000Y-158950000D03*
X212620000Y-157050000D03*
X212620000Y-158950000D03*
X218000000Y-157050000D03*
X218000000Y-158950000D03*
D11*
X227480000Y-155280000D03*
X229380000Y-155280000D03*
X226160000Y-156180000D03*
X224260000Y-156180000D03*
X227470000Y-157290000D03*
X229370000Y-157290000D03*
X226100000Y-158220000D03*
X224200000Y-158220000D03*
X227410000Y-159360000D03*
X229310000Y-159360000D03*
X227430000Y-161370000D03*
X229330000Y-161370000D03*
X226080000Y-162250000D03*
X224180000Y-162250000D03*
M02*
