G04 #@! TF.FileFunction,Legend,Top*
%FSLAX46Y46*%
G04 Gerber Fmt 4.6, Leading zero omitted, Abs format (unit mm)*
G04 Created by KiCad (PCBNEW 4.0.4-stable) date 03/01/18 20:45:57*
%MOMM*%
%LPD*%
G01*
G04 APERTURE LIST*
%ADD10C,0.100000*%
%ADD11C,0.300000*%
%ADD12C,0.500000*%
%ADD13C,0.150000*%
%ADD14C,0.120000*%
%ADD15C,0.127000*%
%ADD16C,0.250000*%
%ADD17C,0.119380*%
%ADD18C,0.114300*%
%ADD19C,0.125000*%
G04 APERTURE END LIST*
D10*
D11*
X240018571Y-169029999D02*
X239304286Y-169529999D01*
X240018571Y-169887142D02*
X238518571Y-169887142D01*
X238518571Y-169315714D01*
X238590000Y-169172856D01*
X238661429Y-169101428D01*
X238804286Y-169029999D01*
X239018571Y-169029999D01*
X239161429Y-169101428D01*
X239232857Y-169172856D01*
X239304286Y-169315714D01*
X239304286Y-169887142D01*
X238518571Y-168529999D02*
X240018571Y-167529999D01*
X238518571Y-167529999D02*
X240018571Y-168529999D01*
X235888571Y-169852857D02*
X235888571Y-168995714D01*
X237388571Y-169424285D02*
X235888571Y-169424285D01*
X235888571Y-168638571D02*
X237388571Y-167638571D01*
X235888571Y-167638571D02*
X237388571Y-168638571D01*
X240892858Y-164018571D02*
X240892858Y-162518571D01*
X241250001Y-162518571D01*
X241464286Y-162590000D01*
X241607144Y-162732857D01*
X241678572Y-162875714D01*
X241750001Y-163161429D01*
X241750001Y-163375714D01*
X241678572Y-163661429D01*
X241607144Y-163804286D01*
X241464286Y-163947143D01*
X241250001Y-164018571D01*
X240892858Y-164018571D01*
X242464286Y-164018571D02*
X242750001Y-164018571D01*
X242892858Y-163947143D01*
X242964286Y-163875714D01*
X243107144Y-163661429D01*
X243178572Y-163375714D01*
X243178572Y-162804286D01*
X243107144Y-162661429D01*
X243035715Y-162590000D01*
X242892858Y-162518571D01*
X242607144Y-162518571D01*
X242464286Y-162590000D01*
X242392858Y-162661429D01*
X242321429Y-162804286D01*
X242321429Y-163161429D01*
X242392858Y-163304286D01*
X242464286Y-163375714D01*
X242607144Y-163447143D01*
X242892858Y-163447143D01*
X243035715Y-163375714D01*
X243107144Y-163304286D01*
X243178572Y-163161429D01*
X232722858Y-163868571D02*
X232722858Y-162368571D01*
X233080001Y-162368571D01*
X233294286Y-162440000D01*
X233437144Y-162582857D01*
X233508572Y-162725714D01*
X233580001Y-163011429D01*
X233580001Y-163225714D01*
X233508572Y-163511429D01*
X233437144Y-163654286D01*
X233294286Y-163797143D01*
X233080001Y-163868571D01*
X232722858Y-163868571D01*
X234437144Y-163011429D02*
X234294286Y-162940000D01*
X234222858Y-162868571D01*
X234151429Y-162725714D01*
X234151429Y-162654286D01*
X234222858Y-162511429D01*
X234294286Y-162440000D01*
X234437144Y-162368571D01*
X234722858Y-162368571D01*
X234865715Y-162440000D01*
X234937144Y-162511429D01*
X235008572Y-162654286D01*
X235008572Y-162725714D01*
X234937144Y-162868571D01*
X234865715Y-162940000D01*
X234722858Y-163011429D01*
X234437144Y-163011429D01*
X234294286Y-163082857D01*
X234222858Y-163154286D01*
X234151429Y-163297143D01*
X234151429Y-163582857D01*
X234222858Y-163725714D01*
X234294286Y-163797143D01*
X234437144Y-163868571D01*
X234722858Y-163868571D01*
X234865715Y-163797143D01*
X234937144Y-163725714D01*
X235008572Y-163582857D01*
X235008572Y-163297143D01*
X234937144Y-163154286D01*
X234865715Y-163082857D01*
X234722858Y-163011429D01*
X240902858Y-161538571D02*
X240902858Y-160038571D01*
X241260001Y-160038571D01*
X241474286Y-160110000D01*
X241617144Y-160252857D01*
X241688572Y-160395714D01*
X241760001Y-160681429D01*
X241760001Y-160895714D01*
X241688572Y-161181429D01*
X241617144Y-161324286D01*
X241474286Y-161467143D01*
X241260001Y-161538571D01*
X240902858Y-161538571D01*
X243045715Y-160538571D02*
X243045715Y-161538571D01*
X242688572Y-159967143D02*
X242331429Y-161038571D01*
X243260001Y-161038571D01*
X232722858Y-161478571D02*
X232722858Y-159978571D01*
X233080001Y-159978571D01*
X233294286Y-160050000D01*
X233437144Y-160192857D01*
X233508572Y-160335714D01*
X233580001Y-160621429D01*
X233580001Y-160835714D01*
X233508572Y-161121429D01*
X233437144Y-161264286D01*
X233294286Y-161407143D01*
X233080001Y-161478571D01*
X232722858Y-161478571D01*
X234080001Y-159978571D02*
X235008572Y-159978571D01*
X234508572Y-160550000D01*
X234722858Y-160550000D01*
X234865715Y-160621429D01*
X234937144Y-160692857D01*
X235008572Y-160835714D01*
X235008572Y-161192857D01*
X234937144Y-161335714D01*
X234865715Y-161407143D01*
X234722858Y-161478571D01*
X234294286Y-161478571D01*
X234151429Y-161407143D01*
X234080001Y-161335714D01*
X240988572Y-158430000D02*
X241702858Y-158430000D01*
X240845715Y-158858571D02*
X241345715Y-157358571D01*
X241845715Y-158858571D01*
X242988572Y-157858571D02*
X242988572Y-158858571D01*
X242631429Y-157287143D02*
X242274286Y-158358571D01*
X243202858Y-158358571D01*
X232918572Y-158440000D02*
X233632858Y-158440000D01*
X232775715Y-158868571D02*
X233275715Y-157368571D01*
X233775715Y-158868571D01*
X234990001Y-157368571D02*
X234275715Y-157368571D01*
X234204286Y-158082857D01*
X234275715Y-158011429D01*
X234418572Y-157940000D01*
X234775715Y-157940000D01*
X234918572Y-158011429D01*
X234990001Y-158082857D01*
X235061429Y-158225714D01*
X235061429Y-158582857D01*
X234990001Y-158725714D01*
X234918572Y-158797143D01*
X234775715Y-158868571D01*
X234418572Y-158868571D01*
X234275715Y-158797143D01*
X234204286Y-158725714D01*
X240968572Y-155870000D02*
X241682858Y-155870000D01*
X240825715Y-156298571D02*
X241325715Y-154798571D01*
X241825715Y-156298571D01*
X242182858Y-154798571D02*
X243111429Y-154798571D01*
X242611429Y-155370000D01*
X242825715Y-155370000D01*
X242968572Y-155441429D01*
X243040001Y-155512857D01*
X243111429Y-155655714D01*
X243111429Y-156012857D01*
X243040001Y-156155714D01*
X242968572Y-156227143D01*
X242825715Y-156298571D01*
X242397143Y-156298571D01*
X242254286Y-156227143D01*
X242182858Y-156155714D01*
X232822858Y-156258571D02*
X232822858Y-154758571D01*
X233180001Y-154758571D01*
X233394286Y-154830000D01*
X233537144Y-154972857D01*
X233608572Y-155115714D01*
X233680001Y-155401429D01*
X233680001Y-155615714D01*
X233608572Y-155901429D01*
X233537144Y-156044286D01*
X233394286Y-156187143D01*
X233180001Y-156258571D01*
X232822858Y-156258571D01*
X234965715Y-154758571D02*
X234680001Y-154758571D01*
X234537144Y-154830000D01*
X234465715Y-154901429D01*
X234322858Y-155115714D01*
X234251429Y-155401429D01*
X234251429Y-155972857D01*
X234322858Y-156115714D01*
X234394286Y-156187143D01*
X234537144Y-156258571D01*
X234822858Y-156258571D01*
X234965715Y-156187143D01*
X235037144Y-156115714D01*
X235108572Y-155972857D01*
X235108572Y-155615714D01*
X235037144Y-155472857D01*
X234965715Y-155401429D01*
X234822858Y-155330000D01*
X234537144Y-155330000D01*
X234394286Y-155401429D01*
X234322858Y-155472857D01*
X234251429Y-155615714D01*
X238700000Y-150412857D02*
X238628571Y-150555714D01*
X238628571Y-150770000D01*
X238700000Y-150984285D01*
X238842857Y-151127143D01*
X238985714Y-151198571D01*
X239271429Y-151270000D01*
X239485714Y-151270000D01*
X239771429Y-151198571D01*
X239914286Y-151127143D01*
X240057143Y-150984285D01*
X240128571Y-150770000D01*
X240128571Y-150627143D01*
X240057143Y-150412857D01*
X239985714Y-150341428D01*
X239485714Y-150341428D01*
X239485714Y-150627143D01*
X240128571Y-149698571D02*
X238628571Y-149698571D01*
X240128571Y-148841428D01*
X238628571Y-148841428D01*
X240128571Y-148127142D02*
X238628571Y-148127142D01*
X238628571Y-147769999D01*
X238700000Y-147555714D01*
X238842857Y-147412856D01*
X238985714Y-147341428D01*
X239271429Y-147269999D01*
X239485714Y-147269999D01*
X239771429Y-147341428D01*
X239914286Y-147412856D01*
X240057143Y-147555714D01*
X240128571Y-147769999D01*
X240128571Y-148127142D01*
X235798571Y-151197142D02*
X235798571Y-150268571D01*
X236370000Y-150768571D01*
X236370000Y-150554285D01*
X236441429Y-150411428D01*
X236512857Y-150339999D01*
X236655714Y-150268571D01*
X237012857Y-150268571D01*
X237155714Y-150339999D01*
X237227143Y-150411428D01*
X237298571Y-150554285D01*
X237298571Y-150982857D01*
X237227143Y-151125714D01*
X237155714Y-151197142D01*
X235798571Y-149840000D02*
X237298571Y-149340000D01*
X235798571Y-148840000D01*
X235798571Y-148482857D02*
X235798571Y-147554286D01*
X236370000Y-148054286D01*
X236370000Y-147840000D01*
X236441429Y-147697143D01*
X236512857Y-147625714D01*
X236655714Y-147554286D01*
X237012857Y-147554286D01*
X237155714Y-147625714D01*
X237227143Y-147697143D01*
X237298571Y-147840000D01*
X237298571Y-148268572D01*
X237227143Y-148411429D01*
X237155714Y-148482857D01*
X172412858Y-182742857D02*
X171912858Y-182742857D01*
X171912858Y-183528571D02*
X171912858Y-182028571D01*
X172627144Y-182028571D01*
X173841429Y-183528571D02*
X173841429Y-182742857D01*
X173770000Y-182600000D01*
X173627143Y-182528571D01*
X173341429Y-182528571D01*
X173198572Y-182600000D01*
X173841429Y-183457143D02*
X173698572Y-183528571D01*
X173341429Y-183528571D01*
X173198572Y-183457143D01*
X173127143Y-183314286D01*
X173127143Y-183171429D01*
X173198572Y-183028571D01*
X173341429Y-182957143D01*
X173698572Y-182957143D01*
X173841429Y-182885714D01*
X174555715Y-182528571D02*
X174555715Y-183528571D01*
X174555715Y-182671429D02*
X174627143Y-182600000D01*
X174770001Y-182528571D01*
X174984286Y-182528571D01*
X175127143Y-182600000D01*
X175198572Y-182742857D01*
X175198572Y-183528571D01*
X175555715Y-183671429D02*
X176698572Y-183671429D01*
X177555715Y-182742857D02*
X177055715Y-182742857D01*
X177055715Y-183528571D02*
X177055715Y-182028571D01*
X177770001Y-182028571D01*
X178341429Y-183528571D02*
X178341429Y-182028571D01*
X178698572Y-182028571D01*
X178912857Y-182100000D01*
X179055715Y-182242857D01*
X179127143Y-182385714D01*
X179198572Y-182671429D01*
X179198572Y-182885714D01*
X179127143Y-183171429D01*
X179055715Y-183314286D01*
X178912857Y-183457143D01*
X178698572Y-183528571D01*
X178341429Y-183528571D01*
X179841429Y-183528571D02*
X179841429Y-182028571D01*
X180198572Y-182028571D01*
X180412857Y-182100000D01*
X180555715Y-182242857D01*
X180627143Y-182385714D01*
X180698572Y-182671429D01*
X180698572Y-182885714D01*
X180627143Y-183171429D01*
X180555715Y-183314286D01*
X180412857Y-183457143D01*
X180198572Y-183528571D01*
X179841429Y-183528571D01*
X180984286Y-183671429D02*
X182127143Y-183671429D01*
X182341429Y-182528571D02*
X182698572Y-183528571D01*
X183055714Y-182528571D01*
X183912857Y-182028571D02*
X184055714Y-182028571D01*
X184198571Y-182100000D01*
X184270000Y-182171429D01*
X184341429Y-182314286D01*
X184412857Y-182600000D01*
X184412857Y-182957143D01*
X184341429Y-183242857D01*
X184270000Y-183385714D01*
X184198571Y-183457143D01*
X184055714Y-183528571D01*
X183912857Y-183528571D01*
X183770000Y-183457143D01*
X183698571Y-183385714D01*
X183627143Y-183242857D01*
X183555714Y-182957143D01*
X183555714Y-182600000D01*
X183627143Y-182314286D01*
X183698571Y-182171429D01*
X183770000Y-182100000D01*
X183912857Y-182028571D01*
X185841428Y-183528571D02*
X184984285Y-183528571D01*
X185412857Y-183528571D02*
X185412857Y-182028571D01*
X185270000Y-182242857D01*
X185127142Y-182385714D01*
X184984285Y-182457143D01*
X187127142Y-183528571D02*
X187127142Y-182742857D01*
X187055713Y-182600000D01*
X186912856Y-182528571D01*
X186627142Y-182528571D01*
X186484285Y-182600000D01*
X187127142Y-183457143D02*
X186984285Y-183528571D01*
X186627142Y-183528571D01*
X186484285Y-183457143D01*
X186412856Y-183314286D01*
X186412856Y-183171429D01*
X186484285Y-183028571D01*
X186627142Y-182957143D01*
X186984285Y-182957143D01*
X187127142Y-182885714D01*
D12*
X172134286Y-175307143D02*
X172134286Y-172307143D01*
X173848571Y-175307143D01*
X173848571Y-172307143D01*
X175277143Y-173735714D02*
X176277143Y-173735714D01*
X176705714Y-175307143D02*
X175277143Y-175307143D01*
X175277143Y-172307143D01*
X176705714Y-172307143D01*
X177991429Y-172307143D02*
X177991429Y-174735714D01*
X178134286Y-175021429D01*
X178277143Y-175164286D01*
X178562857Y-175307143D01*
X179134286Y-175307143D01*
X179420000Y-175164286D01*
X179562857Y-175021429D01*
X179705714Y-174735714D01*
X179705714Y-172307143D01*
X182848571Y-175307143D02*
X181848571Y-173878571D01*
X181134286Y-175307143D02*
X181134286Y-172307143D01*
X182277143Y-172307143D01*
X182562857Y-172450000D01*
X182705714Y-172592857D01*
X182848571Y-172878571D01*
X182848571Y-173307143D01*
X182705714Y-173592857D01*
X182562857Y-173735714D01*
X182277143Y-173878571D01*
X181134286Y-173878571D01*
X183991429Y-174450000D02*
X185420000Y-174450000D01*
X183705714Y-175307143D02*
X184705714Y-172307143D01*
X185705714Y-175307143D01*
X188134286Y-175307143D02*
X186705715Y-175307143D01*
X186705715Y-172307143D01*
X191420000Y-175307143D02*
X191420000Y-172307143D01*
X193134285Y-175307143D01*
X193134285Y-172307143D01*
X194562857Y-173735714D02*
X195562857Y-173735714D01*
X195991428Y-175307143D02*
X194562857Y-175307143D01*
X194562857Y-172307143D01*
X195991428Y-172307143D01*
X196848571Y-172307143D02*
X198562857Y-172307143D01*
X197705714Y-175307143D02*
X197705714Y-172307143D01*
X199277142Y-172307143D02*
X199991428Y-175307143D01*
X200562857Y-173164286D01*
X201134285Y-175307143D01*
X201848571Y-172307143D01*
X203562856Y-172307143D02*
X204134285Y-172307143D01*
X204419999Y-172450000D01*
X204705713Y-172735714D01*
X204848571Y-173307143D01*
X204848571Y-174307143D01*
X204705713Y-174878571D01*
X204419999Y-175164286D01*
X204134285Y-175307143D01*
X203562856Y-175307143D01*
X203277142Y-175164286D01*
X202991428Y-174878571D01*
X202848571Y-174307143D01*
X202848571Y-173307143D01*
X202991428Y-172735714D01*
X203277142Y-172450000D01*
X203562856Y-172307143D01*
X207848570Y-175307143D02*
X206848570Y-173878571D01*
X206134285Y-175307143D02*
X206134285Y-172307143D01*
X207277142Y-172307143D01*
X207562856Y-172450000D01*
X207705713Y-172592857D01*
X207848570Y-172878571D01*
X207848570Y-173307143D01*
X207705713Y-173592857D01*
X207562856Y-173735714D01*
X207277142Y-173878571D01*
X206134285Y-173878571D01*
X209134285Y-175307143D02*
X209134285Y-172307143D01*
X210848570Y-175307143D02*
X209562856Y-173592857D01*
X210848570Y-172307143D02*
X209134285Y-174021429D01*
X173134286Y-178735714D02*
X172134286Y-178735714D01*
X172134286Y-180307143D02*
X172134286Y-177307143D01*
X173562857Y-177307143D01*
X174562858Y-179450000D02*
X175991429Y-179450000D01*
X174277143Y-180307143D02*
X175277143Y-177307143D01*
X176277143Y-180307143D01*
X177277144Y-177307143D02*
X177277144Y-179735714D01*
X177420001Y-180021429D01*
X177562858Y-180164286D01*
X177848572Y-180307143D01*
X178420001Y-180307143D01*
X178705715Y-180164286D01*
X178848572Y-180021429D01*
X178991429Y-179735714D01*
X178991429Y-177307143D01*
X181848572Y-180307143D02*
X180420001Y-180307143D01*
X180420001Y-177307143D01*
X182420000Y-177307143D02*
X184134286Y-177307143D01*
X183277143Y-180307143D02*
X183277143Y-177307143D01*
X187420000Y-180307143D02*
X187420000Y-177307143D01*
X188134285Y-177307143D01*
X188562857Y-177450000D01*
X188848571Y-177735714D01*
X188991428Y-178021429D01*
X189134285Y-178592857D01*
X189134285Y-179021429D01*
X188991428Y-179592857D01*
X188848571Y-179878571D01*
X188562857Y-180164286D01*
X188134285Y-180307143D01*
X187420000Y-180307143D01*
X190420000Y-178735714D02*
X191420000Y-178735714D01*
X191848571Y-180307143D02*
X190420000Y-180307143D01*
X190420000Y-177307143D01*
X191848571Y-177307143D01*
X192705714Y-177307143D02*
X194420000Y-177307143D01*
X193562857Y-180307143D02*
X193562857Y-177307143D01*
X195420000Y-178735714D02*
X196420000Y-178735714D01*
X196848571Y-180307143D02*
X195420000Y-180307143D01*
X195420000Y-177307143D01*
X196848571Y-177307143D01*
X199848571Y-180021429D02*
X199705714Y-180164286D01*
X199277143Y-180307143D01*
X198991429Y-180307143D01*
X198562857Y-180164286D01*
X198277143Y-179878571D01*
X198134286Y-179592857D01*
X197991429Y-179021429D01*
X197991429Y-178592857D01*
X198134286Y-178021429D01*
X198277143Y-177735714D01*
X198562857Y-177450000D01*
X198991429Y-177307143D01*
X199277143Y-177307143D01*
X199705714Y-177450000D01*
X199848571Y-177592857D01*
X200705714Y-177307143D02*
X202420000Y-177307143D01*
X201562857Y-180307143D02*
X201562857Y-177307143D01*
X203420000Y-180307143D02*
X203420000Y-177307143D01*
X205419999Y-177307143D02*
X205991428Y-177307143D01*
X206277142Y-177450000D01*
X206562856Y-177735714D01*
X206705714Y-178307143D01*
X206705714Y-179307143D01*
X206562856Y-179878571D01*
X206277142Y-180164286D01*
X205991428Y-180307143D01*
X205419999Y-180307143D01*
X205134285Y-180164286D01*
X204848571Y-179878571D01*
X204705714Y-179307143D01*
X204705714Y-178307143D01*
X204848571Y-177735714D01*
X205134285Y-177450000D01*
X205419999Y-177307143D01*
X207991428Y-180307143D02*
X207991428Y-177307143D01*
X209705713Y-180307143D01*
X209705713Y-177307143D01*
D11*
X213434286Y-154678571D02*
X213529524Y-154773809D01*
X213624762Y-155059524D01*
X213624762Y-155250000D01*
X213529524Y-155535714D01*
X213339048Y-155726190D01*
X213148571Y-155821429D01*
X212767619Y-155916667D01*
X212481905Y-155916667D01*
X212100952Y-155821429D01*
X211910476Y-155726190D01*
X211720000Y-155535714D01*
X211624762Y-155250000D01*
X211624762Y-155059524D01*
X211720000Y-154773809D01*
X211815238Y-154678571D01*
X211624762Y-153821429D02*
X213243810Y-153821429D01*
X213434286Y-153726190D01*
X213529524Y-153630952D01*
X213624762Y-153440476D01*
X213624762Y-153059524D01*
X213529524Y-152869048D01*
X213434286Y-152773809D01*
X213243810Y-152678571D01*
X211624762Y-152678571D01*
X213624762Y-150583333D02*
X212672381Y-151250000D01*
X213624762Y-151726191D02*
X211624762Y-151726191D01*
X211624762Y-150964286D01*
X211720000Y-150773810D01*
X211815238Y-150678571D01*
X212005714Y-150583333D01*
X212291429Y-150583333D01*
X212481905Y-150678571D01*
X212577143Y-150773810D01*
X212672381Y-150964286D01*
X212672381Y-151726191D01*
X213624762Y-148583333D02*
X212672381Y-149250000D01*
X213624762Y-149726191D02*
X211624762Y-149726191D01*
X211624762Y-148964286D01*
X211720000Y-148773810D01*
X211815238Y-148678571D01*
X212005714Y-148583333D01*
X212291429Y-148583333D01*
X212481905Y-148678571D01*
X212577143Y-148773810D01*
X212672381Y-148964286D01*
X212672381Y-149726191D01*
X216924762Y-156069048D02*
X216924762Y-154926191D01*
X218924762Y-155497619D02*
X216924762Y-155497619D01*
X217877143Y-154259524D02*
X217877143Y-153592857D01*
X218924762Y-153307143D02*
X218924762Y-154259524D01*
X216924762Y-154259524D01*
X216924762Y-153307143D01*
X218924762Y-152450000D02*
X216924762Y-152450000D01*
X218353333Y-151783333D01*
X216924762Y-151116666D01*
X218924762Y-151116666D01*
X218924762Y-150164286D02*
X216924762Y-150164286D01*
X216924762Y-149402381D01*
X217020000Y-149211905D01*
X217115238Y-149116666D01*
X217305714Y-149021428D01*
X217591429Y-149021428D01*
X217781905Y-149116666D01*
X217877143Y-149211905D01*
X217972381Y-149402381D01*
X217972381Y-150164286D01*
X207453333Y-155626191D02*
X207453333Y-154673810D01*
X208024762Y-155816667D02*
X206024762Y-155150000D01*
X208024762Y-154483333D01*
X207834286Y-152673809D02*
X207929524Y-152769047D01*
X208024762Y-153054762D01*
X208024762Y-153245238D01*
X207929524Y-153530952D01*
X207739048Y-153721428D01*
X207548571Y-153816667D01*
X207167619Y-153911905D01*
X206881905Y-153911905D01*
X206500952Y-153816667D01*
X206310476Y-153721428D01*
X206120000Y-153530952D01*
X206024762Y-153245238D01*
X206024762Y-153054762D01*
X206120000Y-152769047D01*
X206215238Y-152673809D01*
X207834286Y-150673809D02*
X207929524Y-150769047D01*
X208024762Y-151054762D01*
X208024762Y-151245238D01*
X207929524Y-151530952D01*
X207739048Y-151721428D01*
X207548571Y-151816667D01*
X207167619Y-151911905D01*
X206881905Y-151911905D01*
X206500952Y-151816667D01*
X206310476Y-151721428D01*
X206120000Y-151530952D01*
X206024762Y-151245238D01*
X206024762Y-151054762D01*
X206120000Y-150769047D01*
X206215238Y-150673809D01*
X199924762Y-155740477D02*
X199924762Y-154597620D01*
X201924762Y-155169048D02*
X199924762Y-155169048D01*
X200877143Y-153930953D02*
X200877143Y-153264286D01*
X201924762Y-152978572D02*
X201924762Y-153930953D01*
X199924762Y-153930953D01*
X199924762Y-152978572D01*
X201829524Y-152216667D02*
X201924762Y-151930952D01*
X201924762Y-151454762D01*
X201829524Y-151264286D01*
X201734286Y-151169048D01*
X201543810Y-151073809D01*
X201353333Y-151073809D01*
X201162857Y-151169048D01*
X201067619Y-151264286D01*
X200972381Y-151454762D01*
X200877143Y-151835714D01*
X200781905Y-152026190D01*
X200686667Y-152121429D01*
X200496190Y-152216667D01*
X200305714Y-152216667D01*
X200115238Y-152121429D01*
X200020000Y-152026190D01*
X199924762Y-151835714D01*
X199924762Y-151359524D01*
X200020000Y-151073809D01*
X199924762Y-150502381D02*
X199924762Y-149359524D01*
X201924762Y-149930952D02*
X199924762Y-149930952D01*
D13*
X224540000Y-159365000D02*
X225740000Y-159365000D01*
X225740000Y-161115000D02*
X224540000Y-161115000D01*
D14*
X235380000Y-167070000D02*
X240580000Y-167070000D01*
X235380000Y-154310000D02*
X235380000Y-167070000D01*
X240580000Y-151710000D02*
X240580000Y-167070000D01*
X235380000Y-154310000D02*
X237980000Y-154310000D01*
X237980000Y-154310000D02*
X237980000Y-151710000D01*
X237980000Y-151710000D02*
X240580000Y-151710000D01*
X235380000Y-153040000D02*
X235380000Y-151710000D01*
X235380000Y-151710000D02*
X236710000Y-151710000D01*
D13*
X205643000Y-133755000D02*
X206643000Y-133755000D01*
X206643000Y-132055000D02*
X205643000Y-132055000D01*
X206940000Y-123570000D02*
X207440000Y-123570000D01*
X207440000Y-122520000D02*
X206940000Y-122520000D01*
X216270000Y-118720000D02*
X216270000Y-119720000D01*
X217970000Y-119720000D02*
X217970000Y-118720000D01*
X206990000Y-129070000D02*
X207490000Y-129070000D01*
X207490000Y-128020000D02*
X206990000Y-128020000D01*
X218550000Y-118680000D02*
X218550000Y-119680000D01*
X220250000Y-119680000D02*
X220250000Y-118680000D01*
X237045000Y-133700000D02*
X237045000Y-134700000D01*
X238745000Y-134700000D02*
X238745000Y-133700000D01*
X191395000Y-131350000D02*
X192395000Y-131350000D01*
X192395000Y-129650000D02*
X191395000Y-129650000D01*
X227480000Y-143360000D02*
X227480000Y-142360000D01*
X225780000Y-142360000D02*
X225780000Y-143360000D01*
X222620000Y-145300000D02*
X221620000Y-145300000D01*
X221620000Y-147000000D02*
X222620000Y-147000000D01*
X182820000Y-114200000D02*
X181820000Y-114200000D01*
X181820000Y-115900000D02*
X182820000Y-115900000D01*
X226830000Y-124860000D02*
X225830000Y-124860000D01*
X225830000Y-126560000D02*
X226830000Y-126560000D01*
X215320000Y-139770000D02*
X215320000Y-138770000D01*
X213620000Y-138770000D02*
X213620000Y-139770000D01*
X188310000Y-130390000D02*
X188310000Y-129390000D01*
X186610000Y-129390000D02*
X186610000Y-130390000D01*
X181270000Y-124150000D02*
X181270000Y-123150000D01*
X179570000Y-123150000D02*
X179570000Y-124150000D01*
X206045000Y-116075000D02*
X206045000Y-115075000D01*
X204345000Y-115075000D02*
X204345000Y-116075000D01*
D15*
X236557800Y-133007000D02*
X234932200Y-133007000D01*
X234932200Y-135293000D02*
X236557800Y-135293000D01*
X234932200Y-135750200D02*
X236557800Y-135750200D01*
X236557800Y-135750200D02*
X236557800Y-132549800D01*
X236557800Y-132549800D02*
X234932200Y-132549800D01*
X234932200Y-132549800D02*
X234932200Y-135750200D01*
X205465000Y-130265000D02*
X207751000Y-130265000D01*
X207751000Y-130265000D02*
X207751000Y-131535000D01*
X207751000Y-131535000D02*
X205465000Y-131535000D01*
X205465000Y-131535000D02*
X205465000Y-130265000D01*
D13*
X246675000Y-130825000D02*
X246675000Y-122125000D01*
X240270000Y-130825000D02*
X240270000Y-122125000D01*
X240270000Y-122125000D02*
X246675000Y-122125000D01*
X245445000Y-122125000D02*
X245445000Y-130825000D01*
X246675000Y-130825000D02*
X240270000Y-130825000D01*
X171245000Y-164715000D02*
X171245000Y-163165000D01*
X169945000Y-164715000D02*
X171245000Y-164715000D01*
X165754000Y-163292000D02*
X159912000Y-163292000D01*
X159912000Y-163292000D02*
X159912000Y-163038000D01*
X159912000Y-163038000D02*
X165754000Y-163038000D01*
X165754000Y-163038000D02*
X165754000Y-163165000D01*
X165754000Y-163165000D02*
X159912000Y-163165000D01*
X168421000Y-163419000D02*
X168802000Y-163419000D01*
X168421000Y-162911000D02*
X168802000Y-162911000D01*
X168421000Y-160879000D02*
X168802000Y-160879000D01*
X168421000Y-160371000D02*
X168802000Y-160371000D01*
X168421000Y-158339000D02*
X168802000Y-158339000D01*
X168421000Y-157831000D02*
X168802000Y-157831000D01*
X168421000Y-155291000D02*
X168802000Y-155291000D01*
X168421000Y-155799000D02*
X168802000Y-155799000D01*
X168421000Y-164435000D02*
X165881000Y-164435000D01*
X168421000Y-161895000D02*
X165881000Y-161895000D01*
X168421000Y-161895000D02*
X168421000Y-159355000D01*
X168421000Y-159355000D02*
X165881000Y-159355000D01*
X165881000Y-160879000D02*
X159785000Y-160879000D01*
X159785000Y-160879000D02*
X159785000Y-160371000D01*
X159785000Y-160371000D02*
X165881000Y-160371000D01*
X165881000Y-159355000D02*
X165881000Y-161895000D01*
X165881000Y-161895000D02*
X165881000Y-164435000D01*
X159785000Y-162911000D02*
X165881000Y-162911000D01*
X159785000Y-163419000D02*
X159785000Y-162911000D01*
X165881000Y-163419000D02*
X159785000Y-163419000D01*
X168421000Y-161895000D02*
X165881000Y-161895000D01*
X168421000Y-164435000D02*
X168421000Y-161895000D01*
X168421000Y-156815000D02*
X165881000Y-156815000D01*
X168421000Y-156815000D02*
X168421000Y-154275000D01*
X168421000Y-154275000D02*
X165881000Y-154275000D01*
X165881000Y-155799000D02*
X159785000Y-155799000D01*
X159785000Y-155799000D02*
X159785000Y-155291000D01*
X159785000Y-155291000D02*
X165881000Y-155291000D01*
X165881000Y-154275000D02*
X165881000Y-156815000D01*
X165881000Y-156815000D02*
X165881000Y-159355000D01*
X159785000Y-157831000D02*
X165881000Y-157831000D01*
X159785000Y-158339000D02*
X159785000Y-157831000D01*
X165881000Y-158339000D02*
X159785000Y-158339000D01*
X168421000Y-156815000D02*
X165881000Y-156815000D01*
X168421000Y-159355000D02*
X168421000Y-156815000D01*
X168421000Y-159355000D02*
X165881000Y-159355000D01*
X232300000Y-119655000D02*
X231100000Y-119655000D01*
X231100000Y-117905000D02*
X232300000Y-117905000D01*
X231150000Y-123375000D02*
X232350000Y-123375000D01*
X232350000Y-125125000D02*
X231150000Y-125125000D01*
X223920000Y-111725000D02*
X222720000Y-111725000D01*
X222720000Y-109975000D02*
X223920000Y-109975000D01*
X230435000Y-135190000D02*
X230435000Y-136390000D01*
X228685000Y-136390000D02*
X228685000Y-135190000D01*
X169785000Y-136440000D02*
X169785000Y-135240000D01*
X171535000Y-135240000D02*
X171535000Y-136440000D01*
X192490000Y-133595000D02*
X191290000Y-133595000D01*
X191290000Y-131845000D02*
X192490000Y-131845000D01*
X184470000Y-121565000D02*
X183270000Y-121565000D01*
X183270000Y-119815000D02*
X184470000Y-119815000D01*
D15*
X232481860Y-122548400D02*
X231834160Y-123196100D01*
X232481860Y-122700800D02*
X231986560Y-123196100D01*
X231084860Y-120745000D02*
X230424460Y-120745000D01*
X231084860Y-122650000D02*
X230424460Y-122650000D01*
X232481860Y-121697500D02*
X233142260Y-121697500D01*
X232481860Y-120745000D02*
X233142260Y-120745000D01*
X232481860Y-122650000D02*
X233142260Y-122650000D01*
X231084860Y-123196100D02*
X231084860Y-120198900D01*
X231084860Y-120198900D02*
X232481860Y-120198900D01*
X232481860Y-120198900D02*
X232481860Y-123196100D01*
X232481860Y-123196100D02*
X231084860Y-123196100D01*
D13*
X222520000Y-144475000D02*
G75*
G03X222520000Y-144475000I-100000J0D01*
G01*
X221870000Y-144225000D02*
X222370000Y-144225000D01*
X221870000Y-141325000D02*
X221870000Y-144225000D01*
X222370000Y-141325000D02*
X221870000Y-141325000D01*
X222370000Y-144225000D02*
X222370000Y-141325000D01*
X177046000Y-115300000D02*
X177046000Y-120380000D01*
X177046000Y-120380000D02*
X172474000Y-120380000D01*
X172474000Y-120380000D02*
X172474000Y-115300000D01*
X172474000Y-115300000D02*
X177046000Y-115300000D01*
X175522000Y-115300000D02*
X175522000Y-115808000D01*
X175522000Y-115808000D02*
X174252000Y-115808000D01*
X174252000Y-115808000D02*
X174252000Y-115300000D01*
D15*
X192618500Y-127975900D02*
X191970800Y-128623600D01*
X192618500Y-128128300D02*
X192123200Y-128623600D01*
X191221500Y-126172500D02*
X190561100Y-126172500D01*
X191221500Y-128077500D02*
X190561100Y-128077500D01*
X192618500Y-127125000D02*
X193278900Y-127125000D01*
X192618500Y-126172500D02*
X193278900Y-126172500D01*
X192618500Y-128077500D02*
X193278900Y-128077500D01*
X191221500Y-128623600D02*
X191221500Y-125626400D01*
X191221500Y-125626400D02*
X192618500Y-125626400D01*
X192618500Y-125626400D02*
X192618500Y-128623600D01*
X192618500Y-128623600D02*
X191221500Y-128623600D01*
D13*
X206265000Y-127595000D02*
X206265000Y-124045000D01*
X208265000Y-127695000D02*
X208265000Y-123995000D01*
X214610000Y-103225000D02*
X214610000Y-102675000D01*
X216110000Y-103225000D02*
X214610000Y-103225000D01*
X216110000Y-102675000D02*
X216110000Y-103225000D01*
X218910000Y-106675000D02*
X218910000Y-105875000D01*
X209285000Y-107775000D02*
X221935000Y-107775000D01*
X209285000Y-107775000D02*
X209285000Y-102675000D01*
X209285000Y-102675000D02*
X221935000Y-102675000D01*
X221935000Y-107775000D02*
X221935000Y-102675000D01*
X218910000Y-103725000D02*
X217610000Y-103725000D01*
X194302000Y-110444000D02*
X193032000Y-110444000D01*
X193552700Y-111231400D02*
X193806700Y-111193300D01*
X193806700Y-111193300D02*
X194086100Y-111015500D01*
X194086100Y-111015500D02*
X194302000Y-110698000D01*
X194302000Y-110698000D02*
X194314700Y-110253500D01*
X194314700Y-110253500D02*
X194111500Y-109897900D01*
X194111500Y-109897900D02*
X193819400Y-109720100D01*
X193819400Y-109720100D02*
X193501900Y-109669300D01*
X193501900Y-109669300D02*
X193095500Y-109770900D01*
X193095500Y-109770900D02*
X192841500Y-110113800D01*
X192841500Y-110113800D02*
X192752600Y-110291600D01*
X190492000Y-118826000D02*
X190492000Y-109174000D01*
X193540000Y-109174000D02*
X194810000Y-109174000D01*
X194810000Y-109174000D02*
X194810000Y-118826000D01*
X194810000Y-118826000D02*
X189730000Y-118826000D01*
X189730000Y-109174000D02*
X192270000Y-109174000D01*
X192270000Y-109174000D02*
X193540000Y-109174000D01*
X202677000Y-110354000D02*
X201407000Y-110354000D01*
X201927700Y-111141400D02*
X202181700Y-111103300D01*
X202181700Y-111103300D02*
X202461100Y-110925500D01*
X202461100Y-110925500D02*
X202677000Y-110608000D01*
X202677000Y-110608000D02*
X202689700Y-110163500D01*
X202689700Y-110163500D02*
X202486500Y-109807900D01*
X202486500Y-109807900D02*
X202194400Y-109630100D01*
X202194400Y-109630100D02*
X201876900Y-109579300D01*
X201876900Y-109579300D02*
X201470500Y-109680900D01*
X201470500Y-109680900D02*
X201216500Y-110023800D01*
X201216500Y-110023800D02*
X201127600Y-110201600D01*
X198867000Y-118736000D02*
X198867000Y-109084000D01*
X201915000Y-109084000D02*
X203185000Y-109084000D01*
X203185000Y-109084000D02*
X203185000Y-118736000D01*
X203185000Y-118736000D02*
X198105000Y-118736000D01*
X198105000Y-109084000D02*
X200645000Y-109084000D01*
X200645000Y-109084000D02*
X201915000Y-109084000D01*
D16*
X174040000Y-112660000D02*
X174040000Y-112060000D01*
X174040000Y-108460000D02*
X174040000Y-109060000D01*
X182640000Y-108960000D02*
X182640000Y-109060000D01*
X182640000Y-108460000D02*
X182640000Y-108960000D01*
X182640000Y-112660000D02*
X182640000Y-112060000D01*
X174040000Y-108410000D02*
X182640000Y-108410000D01*
X182640000Y-112710000D02*
X174040000Y-112710000D01*
D13*
X231145000Y-108475000D02*
X225745000Y-108475000D01*
X231545000Y-102475000D02*
X231545000Y-108075000D01*
X225745000Y-102075000D02*
X231145000Y-102075000D01*
X225345000Y-108075000D02*
X225345000Y-102475000D01*
X231545000Y-102475000D02*
X231145000Y-102075000D01*
X225345000Y-102475000D02*
X225745000Y-102075000D01*
X225745000Y-108475000D02*
X225345000Y-108075000D01*
X231145000Y-108475000D02*
X231545000Y-108075000D01*
X230295000Y-105275000D02*
G75*
G03X230295000Y-105275000I-1750000J0D01*
G01*
X231545000Y-105275000D02*
X231345000Y-105275000D01*
X228545000Y-102275000D02*
X228545000Y-102075000D01*
X225545000Y-105275000D02*
X225345000Y-105275000D01*
X228545000Y-108275000D02*
X228545000Y-108475000D01*
X212920000Y-126025000D02*
X212920000Y-126550000D01*
X220170000Y-126025000D02*
X220170000Y-126550000D01*
X220170000Y-133275000D02*
X220170000Y-132750000D01*
X212920000Y-133275000D02*
X212920000Y-132750000D01*
X212920000Y-126025000D02*
X213445000Y-126025000D01*
X212920000Y-133275000D02*
X213445000Y-133275000D01*
X220170000Y-133275000D02*
X219645000Y-133275000D01*
X220170000Y-126025000D02*
X219645000Y-126025000D01*
X212920000Y-126550000D02*
X211545000Y-126550000D01*
D15*
X231896500Y-136702500D02*
X231236100Y-136702500D01*
X231896500Y-134797500D02*
X231236100Y-134797500D01*
X233293500Y-135750000D02*
X233953900Y-135750000D01*
X233293500Y-134251400D02*
X233293500Y-137248600D01*
X233293500Y-137248600D02*
X231896500Y-137248600D01*
X231896500Y-137248600D02*
X231896500Y-134251400D01*
X231896500Y-134251400D02*
X233293500Y-134251400D01*
D13*
X158870000Y-136490000D02*
X158470000Y-136490000D01*
X159970000Y-132990000D02*
X159970000Y-139990000D01*
X158870000Y-132990000D02*
X158870000Y-139990000D01*
X166070000Y-132990000D02*
X158470000Y-132990000D01*
X158470000Y-139990000D02*
X166070000Y-139990000D01*
X166070000Y-139990000D02*
X166070000Y-132990000D01*
X158850000Y-119140000D02*
X158450000Y-119140000D01*
X159950000Y-115640000D02*
X159950000Y-122640000D01*
X158850000Y-115640000D02*
X158850000Y-122640000D01*
X166050000Y-115640000D02*
X158450000Y-115640000D01*
X158450000Y-122640000D02*
X166050000Y-122640000D01*
X166050000Y-122640000D02*
X166050000Y-115640000D01*
X201550000Y-163100000D02*
X201550000Y-161200000D01*
X200450000Y-163100000D02*
X200450000Y-161200000D01*
X201000000Y-162200000D02*
X201000000Y-161750000D01*
X200750000Y-162250000D02*
X201250000Y-162250000D01*
X201000000Y-162250000D02*
X200750000Y-162000000D01*
X200750000Y-162000000D02*
X201250000Y-162000000D01*
X201250000Y-162000000D02*
X201000000Y-162250000D01*
X207550000Y-163100000D02*
X207550000Y-161200000D01*
X206450000Y-163100000D02*
X206450000Y-161200000D01*
X207000000Y-162200000D02*
X207000000Y-161750000D01*
X206750000Y-162250000D02*
X207250000Y-162250000D01*
X207000000Y-162250000D02*
X206750000Y-162000000D01*
X206750000Y-162000000D02*
X207250000Y-162000000D01*
X207250000Y-162000000D02*
X207000000Y-162250000D01*
X213170000Y-163100000D02*
X213170000Y-161200000D01*
X212070000Y-163100000D02*
X212070000Y-161200000D01*
X212620000Y-162200000D02*
X212620000Y-161750000D01*
X212370000Y-162250000D02*
X212870000Y-162250000D01*
X212620000Y-162250000D02*
X212370000Y-162000000D01*
X212370000Y-162000000D02*
X212870000Y-162000000D01*
X212870000Y-162000000D02*
X212620000Y-162250000D01*
X218550000Y-163100000D02*
X218550000Y-161200000D01*
X217450000Y-163100000D02*
X217450000Y-161200000D01*
X218000000Y-162200000D02*
X218000000Y-161750000D01*
X217750000Y-162250000D02*
X218250000Y-162250000D01*
X218000000Y-162250000D02*
X217750000Y-162000000D01*
X217750000Y-162000000D02*
X218250000Y-162000000D01*
X218250000Y-162000000D02*
X218000000Y-162250000D01*
X200125000Y-158600000D02*
X200125000Y-157400000D01*
X201875000Y-157400000D02*
X201875000Y-158600000D01*
X206125000Y-158600000D02*
X206125000Y-157400000D01*
X207875000Y-157400000D02*
X207875000Y-158600000D01*
X211745000Y-158600000D02*
X211745000Y-157400000D01*
X213495000Y-157400000D02*
X213495000Y-158600000D01*
X217125000Y-158600000D02*
X217125000Y-157400000D01*
X218875000Y-157400000D02*
X218875000Y-158600000D01*
X229030000Y-156155000D02*
X227830000Y-156155000D01*
X227830000Y-154405000D02*
X229030000Y-154405000D01*
X224610000Y-155305000D02*
X225810000Y-155305000D01*
X225810000Y-157055000D02*
X224610000Y-157055000D01*
X229020000Y-158165000D02*
X227820000Y-158165000D01*
X227820000Y-156415000D02*
X229020000Y-156415000D01*
X224550000Y-157345000D02*
X225750000Y-157345000D01*
X225750000Y-159095000D02*
X224550000Y-159095000D01*
X228960000Y-160235000D02*
X227760000Y-160235000D01*
X227760000Y-158485000D02*
X228960000Y-158485000D01*
X228980000Y-162245000D02*
X227780000Y-162245000D01*
X227780000Y-160495000D02*
X228980000Y-160495000D01*
X224530000Y-161375000D02*
X225730000Y-161375000D01*
X225730000Y-163125000D02*
X224530000Y-163125000D01*
X221447143Y-160732381D02*
X221113809Y-160256190D01*
X220875714Y-160732381D02*
X220875714Y-159732381D01*
X221256667Y-159732381D01*
X221351905Y-159780000D01*
X221399524Y-159827619D01*
X221447143Y-159922857D01*
X221447143Y-160065714D01*
X221399524Y-160160952D01*
X221351905Y-160208571D01*
X221256667Y-160256190D01*
X220875714Y-160256190D01*
X222399524Y-160732381D02*
X221828095Y-160732381D01*
X222113809Y-160732381D02*
X222113809Y-159732381D01*
X222018571Y-159875238D01*
X221923333Y-159970476D01*
X221828095Y-160018095D01*
X222732857Y-159732381D02*
X223399524Y-159732381D01*
X222970952Y-160732381D01*
X203246334Y-133302143D02*
X203198715Y-133349762D01*
X203055858Y-133397381D01*
X202960620Y-133397381D01*
X202817762Y-133349762D01*
X202722524Y-133254524D01*
X202674905Y-133159286D01*
X202627286Y-132968810D01*
X202627286Y-132825952D01*
X202674905Y-132635476D01*
X202722524Y-132540238D01*
X202817762Y-132445000D01*
X202960620Y-132397381D01*
X203055858Y-132397381D01*
X203198715Y-132445000D01*
X203246334Y-132492619D01*
X204198715Y-133397381D02*
X203627286Y-133397381D01*
X203913000Y-133397381D02*
X203913000Y-132397381D01*
X203817762Y-132540238D01*
X203722524Y-132635476D01*
X203627286Y-132683095D01*
X204973334Y-123352143D02*
X204925715Y-123399762D01*
X204782858Y-123447381D01*
X204687620Y-123447381D01*
X204544762Y-123399762D01*
X204449524Y-123304524D01*
X204401905Y-123209286D01*
X204354286Y-123018810D01*
X204354286Y-122875952D01*
X204401905Y-122685476D01*
X204449524Y-122590238D01*
X204544762Y-122495000D01*
X204687620Y-122447381D01*
X204782858Y-122447381D01*
X204925715Y-122495000D01*
X204973334Y-122542619D01*
X205354286Y-122542619D02*
X205401905Y-122495000D01*
X205497143Y-122447381D01*
X205735239Y-122447381D01*
X205830477Y-122495000D01*
X205878096Y-122542619D01*
X205925715Y-122637857D01*
X205925715Y-122733095D01*
X205878096Y-122875952D01*
X205306667Y-123447381D01*
X205925715Y-123447381D01*
X217537143Y-116636666D02*
X217584762Y-116684285D01*
X217632381Y-116827142D01*
X217632381Y-116922380D01*
X217584762Y-117065238D01*
X217489524Y-117160476D01*
X217394286Y-117208095D01*
X217203810Y-117255714D01*
X217060952Y-117255714D01*
X216870476Y-117208095D01*
X216775238Y-117160476D01*
X216680000Y-117065238D01*
X216632381Y-116922380D01*
X216632381Y-116827142D01*
X216680000Y-116684285D01*
X216727619Y-116636666D01*
X216632381Y-116303333D02*
X216632381Y-115684285D01*
X217013333Y-116017619D01*
X217013333Y-115874761D01*
X217060952Y-115779523D01*
X217108571Y-115731904D01*
X217203810Y-115684285D01*
X217441905Y-115684285D01*
X217537143Y-115731904D01*
X217584762Y-115779523D01*
X217632381Y-115874761D01*
X217632381Y-116160476D01*
X217584762Y-116255714D01*
X217537143Y-116303333D01*
X205048334Y-129002143D02*
X205000715Y-129049762D01*
X204857858Y-129097381D01*
X204762620Y-129097381D01*
X204619762Y-129049762D01*
X204524524Y-128954524D01*
X204476905Y-128859286D01*
X204429286Y-128668810D01*
X204429286Y-128525952D01*
X204476905Y-128335476D01*
X204524524Y-128240238D01*
X204619762Y-128145000D01*
X204762620Y-128097381D01*
X204857858Y-128097381D01*
X205000715Y-128145000D01*
X205048334Y-128192619D01*
X205905477Y-128430714D02*
X205905477Y-129097381D01*
X205667381Y-128049762D02*
X205429286Y-128764048D01*
X206048334Y-128764048D01*
X219757143Y-116556666D02*
X219804762Y-116604285D01*
X219852381Y-116747142D01*
X219852381Y-116842380D01*
X219804762Y-116985238D01*
X219709524Y-117080476D01*
X219614286Y-117128095D01*
X219423810Y-117175714D01*
X219280952Y-117175714D01*
X219090476Y-117128095D01*
X218995238Y-117080476D01*
X218900000Y-116985238D01*
X218852381Y-116842380D01*
X218852381Y-116747142D01*
X218900000Y-116604285D01*
X218947619Y-116556666D01*
X218852381Y-115651904D02*
X218852381Y-116128095D01*
X219328571Y-116175714D01*
X219280952Y-116128095D01*
X219233333Y-116032857D01*
X219233333Y-115794761D01*
X219280952Y-115699523D01*
X219328571Y-115651904D01*
X219423810Y-115604285D01*
X219661905Y-115604285D01*
X219757143Y-115651904D01*
X219804762Y-115699523D01*
X219852381Y-115794761D01*
X219852381Y-116032857D01*
X219804762Y-116128095D01*
X219757143Y-116175714D01*
X239703334Y-135807143D02*
X239655715Y-135854762D01*
X239512858Y-135902381D01*
X239417620Y-135902381D01*
X239274762Y-135854762D01*
X239179524Y-135759524D01*
X239131905Y-135664286D01*
X239084286Y-135473810D01*
X239084286Y-135330952D01*
X239131905Y-135140476D01*
X239179524Y-135045238D01*
X239274762Y-134950000D01*
X239417620Y-134902381D01*
X239512858Y-134902381D01*
X239655715Y-134950000D01*
X239703334Y-134997619D01*
X240560477Y-134902381D02*
X240370000Y-134902381D01*
X240274762Y-134950000D01*
X240227143Y-134997619D01*
X240131905Y-135140476D01*
X240084286Y-135330952D01*
X240084286Y-135711905D01*
X240131905Y-135807143D01*
X240179524Y-135854762D01*
X240274762Y-135902381D01*
X240465239Y-135902381D01*
X240560477Y-135854762D01*
X240608096Y-135807143D01*
X240655715Y-135711905D01*
X240655715Y-135473810D01*
X240608096Y-135378571D01*
X240560477Y-135330952D01*
X240465239Y-135283333D01*
X240274762Y-135283333D01*
X240179524Y-135330952D01*
X240131905Y-135378571D01*
X240084286Y-135473810D01*
X194428334Y-130982143D02*
X194380715Y-131029762D01*
X194237858Y-131077381D01*
X194142620Y-131077381D01*
X193999762Y-131029762D01*
X193904524Y-130934524D01*
X193856905Y-130839286D01*
X193809286Y-130648810D01*
X193809286Y-130505952D01*
X193856905Y-130315476D01*
X193904524Y-130220238D01*
X193999762Y-130125000D01*
X194142620Y-130077381D01*
X194237858Y-130077381D01*
X194380715Y-130125000D01*
X194428334Y-130172619D01*
X194761667Y-130077381D02*
X195428334Y-130077381D01*
X194999762Y-131077381D01*
X228853334Y-144657143D02*
X228805715Y-144704762D01*
X228662858Y-144752381D01*
X228567620Y-144752381D01*
X228424762Y-144704762D01*
X228329524Y-144609524D01*
X228281905Y-144514286D01*
X228234286Y-144323810D01*
X228234286Y-144180952D01*
X228281905Y-143990476D01*
X228329524Y-143895238D01*
X228424762Y-143800000D01*
X228567620Y-143752381D01*
X228662858Y-143752381D01*
X228805715Y-143800000D01*
X228853334Y-143847619D01*
X229424762Y-144180952D02*
X229329524Y-144133333D01*
X229281905Y-144085714D01*
X229234286Y-143990476D01*
X229234286Y-143942857D01*
X229281905Y-143847619D01*
X229329524Y-143800000D01*
X229424762Y-143752381D01*
X229615239Y-143752381D01*
X229710477Y-143800000D01*
X229758096Y-143847619D01*
X229805715Y-143942857D01*
X229805715Y-143990476D01*
X229758096Y-144085714D01*
X229710477Y-144133333D01*
X229615239Y-144180952D01*
X229424762Y-144180952D01*
X229329524Y-144228571D01*
X229281905Y-144276190D01*
X229234286Y-144371429D01*
X229234286Y-144561905D01*
X229281905Y-144657143D01*
X229329524Y-144704762D01*
X229424762Y-144752381D01*
X229615239Y-144752381D01*
X229710477Y-144704762D01*
X229758096Y-144657143D01*
X229805715Y-144561905D01*
X229805715Y-144371429D01*
X229758096Y-144276190D01*
X229710477Y-144228571D01*
X229615239Y-144180952D01*
X222953334Y-148307143D02*
X222905715Y-148354762D01*
X222762858Y-148402381D01*
X222667620Y-148402381D01*
X222524762Y-148354762D01*
X222429524Y-148259524D01*
X222381905Y-148164286D01*
X222334286Y-147973810D01*
X222334286Y-147830952D01*
X222381905Y-147640476D01*
X222429524Y-147545238D01*
X222524762Y-147450000D01*
X222667620Y-147402381D01*
X222762858Y-147402381D01*
X222905715Y-147450000D01*
X222953334Y-147497619D01*
X223429524Y-148402381D02*
X223620000Y-148402381D01*
X223715239Y-148354762D01*
X223762858Y-148307143D01*
X223858096Y-148164286D01*
X223905715Y-147973810D01*
X223905715Y-147592857D01*
X223858096Y-147497619D01*
X223810477Y-147450000D01*
X223715239Y-147402381D01*
X223524762Y-147402381D01*
X223429524Y-147450000D01*
X223381905Y-147497619D01*
X223334286Y-147592857D01*
X223334286Y-147830952D01*
X223381905Y-147926190D01*
X223429524Y-147973810D01*
X223524762Y-148021429D01*
X223715239Y-148021429D01*
X223810477Y-147973810D01*
X223858096Y-147926190D01*
X223905715Y-147830952D01*
X184977143Y-115307143D02*
X184929524Y-115354762D01*
X184786667Y-115402381D01*
X184691429Y-115402381D01*
X184548571Y-115354762D01*
X184453333Y-115259524D01*
X184405714Y-115164286D01*
X184358095Y-114973810D01*
X184358095Y-114830952D01*
X184405714Y-114640476D01*
X184453333Y-114545238D01*
X184548571Y-114450000D01*
X184691429Y-114402381D01*
X184786667Y-114402381D01*
X184929524Y-114450000D01*
X184977143Y-114497619D01*
X185929524Y-115402381D02*
X185358095Y-115402381D01*
X185643809Y-115402381D02*
X185643809Y-114402381D01*
X185548571Y-114545238D01*
X185453333Y-114640476D01*
X185358095Y-114688095D01*
X186548571Y-114402381D02*
X186643810Y-114402381D01*
X186739048Y-114450000D01*
X186786667Y-114497619D01*
X186834286Y-114592857D01*
X186881905Y-114783333D01*
X186881905Y-115021429D01*
X186834286Y-115211905D01*
X186786667Y-115307143D01*
X186739048Y-115354762D01*
X186643810Y-115402381D01*
X186548571Y-115402381D01*
X186453333Y-115354762D01*
X186405714Y-115307143D01*
X186358095Y-115211905D01*
X186310476Y-115021429D01*
X186310476Y-114783333D01*
X186358095Y-114592857D01*
X186405714Y-114497619D01*
X186453333Y-114450000D01*
X186548571Y-114402381D01*
X225647143Y-124467143D02*
X225599524Y-124514762D01*
X225456667Y-124562381D01*
X225361429Y-124562381D01*
X225218571Y-124514762D01*
X225123333Y-124419524D01*
X225075714Y-124324286D01*
X225028095Y-124133810D01*
X225028095Y-123990952D01*
X225075714Y-123800476D01*
X225123333Y-123705238D01*
X225218571Y-123610000D01*
X225361429Y-123562381D01*
X225456667Y-123562381D01*
X225599524Y-123610000D01*
X225647143Y-123657619D01*
X226599524Y-124562381D02*
X226028095Y-124562381D01*
X226313809Y-124562381D02*
X226313809Y-123562381D01*
X226218571Y-123705238D01*
X226123333Y-123800476D01*
X226028095Y-123848095D01*
X227551905Y-124562381D02*
X226980476Y-124562381D01*
X227266190Y-124562381D02*
X227266190Y-123562381D01*
X227170952Y-123705238D01*
X227075714Y-123800476D01*
X226980476Y-123848095D01*
X214777143Y-143262857D02*
X214824762Y-143310476D01*
X214872381Y-143453333D01*
X214872381Y-143548571D01*
X214824762Y-143691429D01*
X214729524Y-143786667D01*
X214634286Y-143834286D01*
X214443810Y-143881905D01*
X214300952Y-143881905D01*
X214110476Y-143834286D01*
X214015238Y-143786667D01*
X213920000Y-143691429D01*
X213872381Y-143548571D01*
X213872381Y-143453333D01*
X213920000Y-143310476D01*
X213967619Y-143262857D01*
X214872381Y-142310476D02*
X214872381Y-142881905D01*
X214872381Y-142596191D02*
X213872381Y-142596191D01*
X214015238Y-142691429D01*
X214110476Y-142786667D01*
X214158095Y-142881905D01*
X213967619Y-141929524D02*
X213920000Y-141881905D01*
X213872381Y-141786667D01*
X213872381Y-141548571D01*
X213920000Y-141453333D01*
X213967619Y-141405714D01*
X214062857Y-141358095D01*
X214158095Y-141358095D01*
X214300952Y-141405714D01*
X214872381Y-141977143D01*
X214872381Y-141358095D01*
X184142143Y-129222143D02*
X184094524Y-129269762D01*
X183951667Y-129317381D01*
X183856429Y-129317381D01*
X183713571Y-129269762D01*
X183618333Y-129174524D01*
X183570714Y-129079286D01*
X183523095Y-128888810D01*
X183523095Y-128745952D01*
X183570714Y-128555476D01*
X183618333Y-128460238D01*
X183713571Y-128365000D01*
X183856429Y-128317381D01*
X183951667Y-128317381D01*
X184094524Y-128365000D01*
X184142143Y-128412619D01*
X185094524Y-129317381D02*
X184523095Y-129317381D01*
X184808809Y-129317381D02*
X184808809Y-128317381D01*
X184713571Y-128460238D01*
X184618333Y-128555476D01*
X184523095Y-128603095D01*
X185427857Y-128317381D02*
X186046905Y-128317381D01*
X185713571Y-128698333D01*
X185856429Y-128698333D01*
X185951667Y-128745952D01*
X185999286Y-128793571D01*
X186046905Y-128888810D01*
X186046905Y-129126905D01*
X185999286Y-129222143D01*
X185951667Y-129269762D01*
X185856429Y-129317381D01*
X185570714Y-129317381D01*
X185475476Y-129269762D01*
X185427857Y-129222143D01*
X179747143Y-126567143D02*
X179699524Y-126614762D01*
X179556667Y-126662381D01*
X179461429Y-126662381D01*
X179318571Y-126614762D01*
X179223333Y-126519524D01*
X179175714Y-126424286D01*
X179128095Y-126233810D01*
X179128095Y-126090952D01*
X179175714Y-125900476D01*
X179223333Y-125805238D01*
X179318571Y-125710000D01*
X179461429Y-125662381D01*
X179556667Y-125662381D01*
X179699524Y-125710000D01*
X179747143Y-125757619D01*
X180699524Y-126662381D02*
X180128095Y-126662381D01*
X180413809Y-126662381D02*
X180413809Y-125662381D01*
X180318571Y-125805238D01*
X180223333Y-125900476D01*
X180128095Y-125948095D01*
X181556667Y-125995714D02*
X181556667Y-126662381D01*
X181318571Y-125614762D02*
X181080476Y-126329048D01*
X181699524Y-126329048D01*
X207377143Y-117332143D02*
X207329524Y-117379762D01*
X207186667Y-117427381D01*
X207091429Y-117427381D01*
X206948571Y-117379762D01*
X206853333Y-117284524D01*
X206805714Y-117189286D01*
X206758095Y-116998810D01*
X206758095Y-116855952D01*
X206805714Y-116665476D01*
X206853333Y-116570238D01*
X206948571Y-116475000D01*
X207091429Y-116427381D01*
X207186667Y-116427381D01*
X207329524Y-116475000D01*
X207377143Y-116522619D01*
X208329524Y-117427381D02*
X207758095Y-117427381D01*
X208043809Y-117427381D02*
X208043809Y-116427381D01*
X207948571Y-116570238D01*
X207853333Y-116665476D01*
X207758095Y-116713095D01*
X209234286Y-116427381D02*
X208758095Y-116427381D01*
X208710476Y-116903571D01*
X208758095Y-116855952D01*
X208853333Y-116808333D01*
X209091429Y-116808333D01*
X209186667Y-116855952D01*
X209234286Y-116903571D01*
X209281905Y-116998810D01*
X209281905Y-117236905D01*
X209234286Y-117332143D01*
X209186667Y-117379762D01*
X209091429Y-117427381D01*
X208853333Y-117427381D01*
X208758095Y-117379762D01*
X208710476Y-117332143D01*
D17*
X235759259Y-130916793D02*
X235759259Y-131083586D01*
X236021362Y-131083586D02*
X235520982Y-131083586D01*
X235520982Y-130845310D01*
X236021362Y-130392585D02*
X236021362Y-130678517D01*
X236021362Y-130535551D02*
X235520982Y-130535551D01*
X235592465Y-130583206D01*
X235640120Y-130630861D01*
X235663948Y-130678517D01*
D18*
X204856800Y-131144810D02*
X204639086Y-131144810D01*
X204639086Y-130636810D01*
X205248686Y-131144810D02*
X204987429Y-131144810D01*
X205118057Y-131144810D02*
X205118057Y-130636810D01*
X205074514Y-130709381D01*
X205030972Y-130757762D01*
X204987429Y-130781952D01*
D13*
X239859921Y-127212195D02*
X238859921Y-127212195D01*
X238859921Y-126831242D01*
X238907540Y-126736004D01*
X238955159Y-126688385D01*
X239050397Y-126640766D01*
X239193254Y-126640766D01*
X239288492Y-126688385D01*
X239336111Y-126736004D01*
X239383730Y-126831242D01*
X239383730Y-127212195D01*
X239859921Y-125688385D02*
X239859921Y-126259814D01*
X239859921Y-125974100D02*
X238859921Y-125974100D01*
X239002778Y-126069338D01*
X239098016Y-126164576D01*
X239145635Y-126259814D01*
X169206905Y-168717381D02*
X169206905Y-167717381D01*
X169587858Y-167717381D01*
X169683096Y-167765000D01*
X169730715Y-167812619D01*
X169778334Y-167907857D01*
X169778334Y-168050714D01*
X169730715Y-168145952D01*
X169683096Y-168193571D01*
X169587858Y-168241190D01*
X169206905Y-168241190D01*
X170159286Y-167812619D02*
X170206905Y-167765000D01*
X170302143Y-167717381D01*
X170540239Y-167717381D01*
X170635477Y-167765000D01*
X170683096Y-167812619D01*
X170730715Y-167907857D01*
X170730715Y-168003095D01*
X170683096Y-168145952D01*
X170111667Y-168717381D01*
X170730715Y-168717381D01*
X234023334Y-119172381D02*
X233690000Y-118696190D01*
X233451905Y-119172381D02*
X233451905Y-118172381D01*
X233832858Y-118172381D01*
X233928096Y-118220000D01*
X233975715Y-118267619D01*
X234023334Y-118362857D01*
X234023334Y-118505714D01*
X233975715Y-118600952D01*
X233928096Y-118648571D01*
X233832858Y-118696190D01*
X233451905Y-118696190D01*
X234975715Y-119172381D02*
X234404286Y-119172381D01*
X234690000Y-119172381D02*
X234690000Y-118172381D01*
X234594762Y-118315238D01*
X234499524Y-118410476D01*
X234404286Y-118458095D01*
X228923334Y-124742381D02*
X228590000Y-124266190D01*
X228351905Y-124742381D02*
X228351905Y-123742381D01*
X228732858Y-123742381D01*
X228828096Y-123790000D01*
X228875715Y-123837619D01*
X228923334Y-123932857D01*
X228923334Y-124075714D01*
X228875715Y-124170952D01*
X228828096Y-124218571D01*
X228732858Y-124266190D01*
X228351905Y-124266190D01*
X229304286Y-123837619D02*
X229351905Y-123790000D01*
X229447143Y-123742381D01*
X229685239Y-123742381D01*
X229780477Y-123790000D01*
X229828096Y-123837619D01*
X229875715Y-123932857D01*
X229875715Y-124028095D01*
X229828096Y-124170952D01*
X229256667Y-124742381D01*
X229875715Y-124742381D01*
X223153334Y-109202381D02*
X222820000Y-108726190D01*
X222581905Y-109202381D02*
X222581905Y-108202381D01*
X222962858Y-108202381D01*
X223058096Y-108250000D01*
X223105715Y-108297619D01*
X223153334Y-108392857D01*
X223153334Y-108535714D01*
X223105715Y-108630952D01*
X223058096Y-108678571D01*
X222962858Y-108726190D01*
X222581905Y-108726190D01*
X223486667Y-108202381D02*
X224105715Y-108202381D01*
X223772381Y-108583333D01*
X223915239Y-108583333D01*
X224010477Y-108630952D01*
X224058096Y-108678571D01*
X224105715Y-108773810D01*
X224105715Y-109011905D01*
X224058096Y-109107143D01*
X224010477Y-109154762D01*
X223915239Y-109202381D01*
X223629524Y-109202381D01*
X223534286Y-109154762D01*
X223486667Y-109107143D01*
X229343334Y-138622381D02*
X229010000Y-138146190D01*
X228771905Y-138622381D02*
X228771905Y-137622381D01*
X229152858Y-137622381D01*
X229248096Y-137670000D01*
X229295715Y-137717619D01*
X229343334Y-137812857D01*
X229343334Y-137955714D01*
X229295715Y-138050952D01*
X229248096Y-138098571D01*
X229152858Y-138146190D01*
X228771905Y-138146190D01*
X230200477Y-137955714D02*
X230200477Y-138622381D01*
X229962381Y-137574762D02*
X229724286Y-138289048D01*
X230343334Y-138289048D01*
X170473334Y-138552381D02*
X170140000Y-138076190D01*
X169901905Y-138552381D02*
X169901905Y-137552381D01*
X170282858Y-137552381D01*
X170378096Y-137600000D01*
X170425715Y-137647619D01*
X170473334Y-137742857D01*
X170473334Y-137885714D01*
X170425715Y-137980952D01*
X170378096Y-138028571D01*
X170282858Y-138076190D01*
X169901905Y-138076190D01*
X171378096Y-137552381D02*
X170901905Y-137552381D01*
X170854286Y-138028571D01*
X170901905Y-137980952D01*
X170997143Y-137933333D01*
X171235239Y-137933333D01*
X171330477Y-137980952D01*
X171378096Y-138028571D01*
X171425715Y-138123810D01*
X171425715Y-138361905D01*
X171378096Y-138457143D01*
X171330477Y-138504762D01*
X171235239Y-138552381D01*
X170997143Y-138552381D01*
X170901905Y-138504762D01*
X170854286Y-138457143D01*
X194473334Y-133192381D02*
X194140000Y-132716190D01*
X193901905Y-133192381D02*
X193901905Y-132192381D01*
X194282858Y-132192381D01*
X194378096Y-132240000D01*
X194425715Y-132287619D01*
X194473334Y-132382857D01*
X194473334Y-132525714D01*
X194425715Y-132620952D01*
X194378096Y-132668571D01*
X194282858Y-132716190D01*
X193901905Y-132716190D01*
X195330477Y-132192381D02*
X195140000Y-132192381D01*
X195044762Y-132240000D01*
X194997143Y-132287619D01*
X194901905Y-132430476D01*
X194854286Y-132620952D01*
X194854286Y-133001905D01*
X194901905Y-133097143D01*
X194949524Y-133144762D01*
X195044762Y-133192381D01*
X195235239Y-133192381D01*
X195330477Y-133144762D01*
X195378096Y-133097143D01*
X195425715Y-133001905D01*
X195425715Y-132763810D01*
X195378096Y-132668571D01*
X195330477Y-132620952D01*
X195235239Y-132573333D01*
X195044762Y-132573333D01*
X194949524Y-132620952D01*
X194901905Y-132668571D01*
X194854286Y-132763810D01*
X185053334Y-122942381D02*
X184720000Y-122466190D01*
X184481905Y-122942381D02*
X184481905Y-121942381D01*
X184862858Y-121942381D01*
X184958096Y-121990000D01*
X185005715Y-122037619D01*
X185053334Y-122132857D01*
X185053334Y-122275714D01*
X185005715Y-122370952D01*
X184958096Y-122418571D01*
X184862858Y-122466190D01*
X184481905Y-122466190D01*
X185386667Y-121942381D02*
X186053334Y-121942381D01*
X185624762Y-122942381D01*
D19*
X231332408Y-121473690D02*
X231332408Y-121878452D01*
X231356217Y-121926071D01*
X231380027Y-121949881D01*
X231427646Y-121973690D01*
X231522884Y-121973690D01*
X231570503Y-121949881D01*
X231594312Y-121926071D01*
X231618122Y-121878452D01*
X231618122Y-121473690D01*
X232118122Y-121973690D02*
X231832408Y-121973690D01*
X231975265Y-121973690D02*
X231975265Y-121473690D01*
X231927646Y-121545119D01*
X231880027Y-121592738D01*
X231832408Y-121616548D01*
D13*
X221408095Y-139952381D02*
X221408095Y-140761905D01*
X221455714Y-140857143D01*
X221503333Y-140904762D01*
X221598571Y-140952381D01*
X221789048Y-140952381D01*
X221884286Y-140904762D01*
X221931905Y-140857143D01*
X221979524Y-140761905D01*
X221979524Y-139952381D01*
X222360476Y-139952381D02*
X222979524Y-139952381D01*
X222646190Y-140333333D01*
X222789048Y-140333333D01*
X222884286Y-140380952D01*
X222931905Y-140428571D01*
X222979524Y-140523810D01*
X222979524Y-140761905D01*
X222931905Y-140857143D01*
X222884286Y-140904762D01*
X222789048Y-140952381D01*
X222503333Y-140952381D01*
X222408095Y-140904762D01*
X222360476Y-140857143D01*
X175482381Y-118601905D02*
X176291905Y-118601905D01*
X176387143Y-118554286D01*
X176434762Y-118506667D01*
X176482381Y-118411429D01*
X176482381Y-118220952D01*
X176434762Y-118125714D01*
X176387143Y-118078095D01*
X176291905Y-118030476D01*
X175482381Y-118030476D01*
X175815714Y-117125714D02*
X176482381Y-117125714D01*
X175434762Y-117363810D02*
X176149048Y-117601905D01*
X176149048Y-116982857D01*
D19*
X191499048Y-124961190D02*
X191499048Y-125365952D01*
X191522857Y-125413571D01*
X191546667Y-125437381D01*
X191594286Y-125461190D01*
X191689524Y-125461190D01*
X191737143Y-125437381D01*
X191760952Y-125413571D01*
X191784762Y-125365952D01*
X191784762Y-124961190D01*
X192260953Y-124961190D02*
X192022858Y-124961190D01*
X191999048Y-125199286D01*
X192022858Y-125175476D01*
X192070477Y-125151667D01*
X192189524Y-125151667D01*
X192237143Y-125175476D01*
X192260953Y-125199286D01*
X192284762Y-125246905D01*
X192284762Y-125365952D01*
X192260953Y-125413571D01*
X192237143Y-125437381D01*
X192189524Y-125461190D01*
X192070477Y-125461190D01*
X192022858Y-125437381D01*
X191999048Y-125413571D01*
X205253095Y-126083094D02*
X205491190Y-126083094D01*
X204991190Y-126249761D02*
X205253095Y-126083094D01*
X204991190Y-125916428D01*
X205491190Y-125487857D02*
X205491190Y-125773571D01*
X205491190Y-125630714D02*
X204991190Y-125630714D01*
X205062619Y-125678333D01*
X205110238Y-125725952D01*
X205134048Y-125773571D01*
D13*
X220262381Y-106339286D02*
X219262381Y-106339286D01*
X219262381Y-105958333D01*
X219310000Y-105863095D01*
X219357619Y-105815476D01*
X219452857Y-105767857D01*
X219595714Y-105767857D01*
X219690952Y-105815476D01*
X219738571Y-105863095D01*
X219786190Y-105958333D01*
X219786190Y-106339286D01*
X220262381Y-104815476D02*
X220262381Y-105386905D01*
X220262381Y-105101191D02*
X219262381Y-105101191D01*
X219405238Y-105196429D01*
X219500476Y-105291667D01*
X219548095Y-105386905D01*
X219262381Y-104482143D02*
X219262381Y-103815476D01*
X220262381Y-104244048D01*
X196174762Y-110402381D02*
X195841428Y-109926190D01*
X195603333Y-110402381D02*
X195603333Y-109402381D01*
X195984286Y-109402381D01*
X196079524Y-109450000D01*
X196127143Y-109497619D01*
X196174762Y-109592857D01*
X196174762Y-109735714D01*
X196127143Y-109830952D01*
X196079524Y-109878571D01*
X195984286Y-109926190D01*
X195603333Y-109926190D01*
X196460476Y-109402381D02*
X196793809Y-110402381D01*
X197127143Y-109402381D01*
X197984286Y-110402381D02*
X197412857Y-110402381D01*
X197698571Y-110402381D02*
X197698571Y-109402381D01*
X197603333Y-109545238D01*
X197508095Y-109640476D01*
X197412857Y-109688095D01*
X204999762Y-110347381D02*
X204666428Y-109871190D01*
X204428333Y-110347381D02*
X204428333Y-109347381D01*
X204809286Y-109347381D01*
X204904524Y-109395000D01*
X204952143Y-109442619D01*
X204999762Y-109537857D01*
X204999762Y-109680714D01*
X204952143Y-109775952D01*
X204904524Y-109823571D01*
X204809286Y-109871190D01*
X204428333Y-109871190D01*
X205285476Y-109347381D02*
X205618809Y-110347381D01*
X205952143Y-109347381D01*
X206237857Y-109442619D02*
X206285476Y-109395000D01*
X206380714Y-109347381D01*
X206618810Y-109347381D01*
X206714048Y-109395000D01*
X206761667Y-109442619D01*
X206809286Y-109537857D01*
X206809286Y-109633095D01*
X206761667Y-109775952D01*
X206190238Y-110347381D01*
X206809286Y-110347381D01*
X177006667Y-114364762D02*
X177149524Y-114412381D01*
X177387620Y-114412381D01*
X177482858Y-114364762D01*
X177530477Y-114317143D01*
X177578096Y-114221905D01*
X177578096Y-114126667D01*
X177530477Y-114031429D01*
X177482858Y-113983810D01*
X177387620Y-113936190D01*
X177197143Y-113888571D01*
X177101905Y-113840952D01*
X177054286Y-113793333D01*
X177006667Y-113698095D01*
X177006667Y-113602857D01*
X177054286Y-113507619D01*
X177101905Y-113460000D01*
X177197143Y-113412381D01*
X177435239Y-113412381D01*
X177578096Y-113460000D01*
X177911429Y-113412381D02*
X178149524Y-114412381D01*
X178340001Y-113698095D01*
X178530477Y-114412381D01*
X178768572Y-113412381D01*
X179673334Y-114412381D02*
X179101905Y-114412381D01*
X179387619Y-114412381D02*
X179387619Y-113412381D01*
X179292381Y-113555238D01*
X179197143Y-113650476D01*
X179101905Y-113698095D01*
X174649524Y-107612381D02*
X174649524Y-106612381D01*
X174982858Y-107326667D01*
X175316191Y-106612381D01*
X175316191Y-107612381D01*
X175982857Y-106612381D02*
X176173334Y-106612381D01*
X176268572Y-106660000D01*
X176363810Y-106755238D01*
X176411429Y-106945714D01*
X176411429Y-107279048D01*
X176363810Y-107469524D01*
X176268572Y-107564762D01*
X176173334Y-107612381D01*
X175982857Y-107612381D01*
X175887619Y-107564762D01*
X175792381Y-107469524D01*
X175744762Y-107279048D01*
X175744762Y-106945714D01*
X175792381Y-106755238D01*
X175887619Y-106660000D01*
X175982857Y-106612381D01*
X176697143Y-106612381D02*
X177268572Y-106612381D01*
X176982857Y-107612381D02*
X176982857Y-106612381D01*
X177792381Y-106612381D02*
X177982858Y-106612381D01*
X178078096Y-106660000D01*
X178173334Y-106755238D01*
X178220953Y-106945714D01*
X178220953Y-107279048D01*
X178173334Y-107469524D01*
X178078096Y-107564762D01*
X177982858Y-107612381D01*
X177792381Y-107612381D01*
X177697143Y-107564762D01*
X177601905Y-107469524D01*
X177554286Y-107279048D01*
X177554286Y-106945714D01*
X177601905Y-106755238D01*
X177697143Y-106660000D01*
X177792381Y-106612381D01*
X179220953Y-107612381D02*
X178887619Y-107136190D01*
X178649524Y-107612381D02*
X178649524Y-106612381D01*
X179030477Y-106612381D01*
X179125715Y-106660000D01*
X179173334Y-106707619D01*
X179220953Y-106802857D01*
X179220953Y-106945714D01*
X179173334Y-107040952D01*
X179125715Y-107088571D01*
X179030477Y-107136190D01*
X178649524Y-107136190D01*
X179411429Y-107707619D02*
X180173334Y-107707619D01*
X180363810Y-107564762D02*
X180506667Y-107612381D01*
X180744763Y-107612381D01*
X180840001Y-107564762D01*
X180887620Y-107517143D01*
X180935239Y-107421905D01*
X180935239Y-107326667D01*
X180887620Y-107231429D01*
X180840001Y-107183810D01*
X180744763Y-107136190D01*
X180554286Y-107088571D01*
X180459048Y-107040952D01*
X180411429Y-106993333D01*
X180363810Y-106898095D01*
X180363810Y-106802857D01*
X180411429Y-106707619D01*
X180459048Y-106660000D01*
X180554286Y-106612381D01*
X180792382Y-106612381D01*
X180935239Y-106660000D01*
X181268572Y-106612381D02*
X181506667Y-107612381D01*
X181697144Y-106898095D01*
X181887620Y-107612381D01*
X182125715Y-106612381D01*
D19*
X228914048Y-109227381D02*
X228985477Y-109251190D01*
X229104524Y-109251190D01*
X229152143Y-109227381D01*
X229175953Y-109203571D01*
X229199762Y-109155952D01*
X229199762Y-109108333D01*
X229175953Y-109060714D01*
X229152143Y-109036905D01*
X229104524Y-109013095D01*
X229009286Y-108989286D01*
X228961667Y-108965476D01*
X228937858Y-108941667D01*
X228914048Y-108894048D01*
X228914048Y-108846429D01*
X228937858Y-108798810D01*
X228961667Y-108775000D01*
X229009286Y-108751190D01*
X229128334Y-108751190D01*
X229199762Y-108775000D01*
X229366429Y-108751190D02*
X229485476Y-109251190D01*
X229580714Y-108894048D01*
X229675952Y-109251190D01*
X229795000Y-108751190D01*
X229866429Y-109298810D02*
X230247381Y-109298810D01*
X230366429Y-109251190D02*
X230366429Y-108751190D01*
X230556905Y-108751190D01*
X230604524Y-108775000D01*
X230628333Y-108798810D01*
X230652143Y-108846429D01*
X230652143Y-108917857D01*
X230628333Y-108965476D01*
X230604524Y-108989286D01*
X230556905Y-109013095D01*
X230366429Y-109013095D01*
X230866429Y-108751190D02*
X230866429Y-109155952D01*
X230890238Y-109203571D01*
X230914048Y-109227381D01*
X230961667Y-109251190D01*
X231056905Y-109251190D01*
X231104524Y-109227381D01*
X231128333Y-109203571D01*
X231152143Y-109155952D01*
X231152143Y-108751190D01*
X231366429Y-109227381D02*
X231437858Y-109251190D01*
X231556905Y-109251190D01*
X231604524Y-109227381D01*
X231628334Y-109203571D01*
X231652143Y-109155952D01*
X231652143Y-109108333D01*
X231628334Y-109060714D01*
X231604524Y-109036905D01*
X231556905Y-109013095D01*
X231461667Y-108989286D01*
X231414048Y-108965476D01*
X231390239Y-108941667D01*
X231366429Y-108894048D01*
X231366429Y-108846429D01*
X231390239Y-108798810D01*
X231414048Y-108775000D01*
X231461667Y-108751190D01*
X231580715Y-108751190D01*
X231652143Y-108775000D01*
X231866429Y-109251190D02*
X231866429Y-108751190D01*
X231866429Y-108989286D02*
X232152143Y-108989286D01*
X232152143Y-109251190D02*
X232152143Y-108751190D01*
D13*
X215783095Y-123102381D02*
X215783095Y-123911905D01*
X215830714Y-124007143D01*
X215878333Y-124054762D01*
X215973571Y-124102381D01*
X216164048Y-124102381D01*
X216259286Y-124054762D01*
X216306905Y-124007143D01*
X216354524Y-123911905D01*
X216354524Y-123102381D01*
X216783095Y-123197619D02*
X216830714Y-123150000D01*
X216925952Y-123102381D01*
X217164048Y-123102381D01*
X217259286Y-123150000D01*
X217306905Y-123197619D01*
X217354524Y-123292857D01*
X217354524Y-123388095D01*
X217306905Y-123530952D01*
X216735476Y-124102381D01*
X217354524Y-124102381D01*
D19*
X234058810Y-134987619D02*
X234035000Y-135035238D01*
X233987381Y-135082857D01*
X233915952Y-135154286D01*
X233892143Y-135201905D01*
X233892143Y-135249524D01*
X234011190Y-135225714D02*
X233987381Y-135273333D01*
X233939762Y-135320952D01*
X233844524Y-135344762D01*
X233677857Y-135344762D01*
X233582619Y-135320952D01*
X233535000Y-135273333D01*
X233511190Y-135225714D01*
X233511190Y-135130476D01*
X233535000Y-135082857D01*
X233582619Y-135035238D01*
X233677857Y-135011429D01*
X233844524Y-135011429D01*
X233939762Y-135035238D01*
X233987381Y-135082857D01*
X234011190Y-135130476D01*
X234011190Y-135225714D01*
X234011190Y-134535238D02*
X234011190Y-134820952D01*
X234011190Y-134678095D02*
X233511190Y-134678095D01*
X233582619Y-134725714D01*
X233630238Y-134773333D01*
X233654048Y-134820952D01*
D13*
X167722381Y-137228095D02*
X166722381Y-137228095D01*
X166722381Y-136847142D01*
X166770000Y-136751904D01*
X166817619Y-136704285D01*
X166912857Y-136656666D01*
X167055714Y-136656666D01*
X167150952Y-136704285D01*
X167198571Y-136751904D01*
X167246190Y-136847142D01*
X167246190Y-137228095D01*
X166722381Y-136323333D02*
X166722381Y-135704285D01*
X167103333Y-136037619D01*
X167103333Y-135894761D01*
X167150952Y-135799523D01*
X167198571Y-135751904D01*
X167293810Y-135704285D01*
X167531905Y-135704285D01*
X167627143Y-135751904D01*
X167674762Y-135799523D01*
X167722381Y-135894761D01*
X167722381Y-136180476D01*
X167674762Y-136275714D01*
X167627143Y-136323333D01*
X167702381Y-119878095D02*
X166702381Y-119878095D01*
X166702381Y-119497142D01*
X166750000Y-119401904D01*
X166797619Y-119354285D01*
X166892857Y-119306666D01*
X167035714Y-119306666D01*
X167130952Y-119354285D01*
X167178571Y-119401904D01*
X167226190Y-119497142D01*
X167226190Y-119878095D01*
X167035714Y-118449523D02*
X167702381Y-118449523D01*
X166654762Y-118687619D02*
X167369048Y-118925714D01*
X167369048Y-118306666D01*
X199952381Y-162738095D02*
X198952381Y-162738095D01*
X198952381Y-162500000D01*
X199000000Y-162357142D01*
X199095238Y-162261904D01*
X199190476Y-162214285D01*
X199380952Y-162166666D01*
X199523810Y-162166666D01*
X199714286Y-162214285D01*
X199809524Y-162261904D01*
X199904762Y-162357142D01*
X199952381Y-162500000D01*
X199952381Y-162738095D01*
X199952381Y-161214285D02*
X199952381Y-161785714D01*
X199952381Y-161500000D02*
X198952381Y-161500000D01*
X199095238Y-161595238D01*
X199190476Y-161690476D01*
X199238095Y-161785714D01*
X205952381Y-162738095D02*
X204952381Y-162738095D01*
X204952381Y-162500000D01*
X205000000Y-162357142D01*
X205095238Y-162261904D01*
X205190476Y-162214285D01*
X205380952Y-162166666D01*
X205523810Y-162166666D01*
X205714286Y-162214285D01*
X205809524Y-162261904D01*
X205904762Y-162357142D01*
X205952381Y-162500000D01*
X205952381Y-162738095D01*
X205047619Y-161785714D02*
X205000000Y-161738095D01*
X204952381Y-161642857D01*
X204952381Y-161404761D01*
X205000000Y-161309523D01*
X205047619Y-161261904D01*
X205142857Y-161214285D01*
X205238095Y-161214285D01*
X205380952Y-161261904D01*
X205952381Y-161833333D01*
X205952381Y-161214285D01*
X211572381Y-162738095D02*
X210572381Y-162738095D01*
X210572381Y-162500000D01*
X210620000Y-162357142D01*
X210715238Y-162261904D01*
X210810476Y-162214285D01*
X211000952Y-162166666D01*
X211143810Y-162166666D01*
X211334286Y-162214285D01*
X211429524Y-162261904D01*
X211524762Y-162357142D01*
X211572381Y-162500000D01*
X211572381Y-162738095D01*
X210572381Y-161833333D02*
X210572381Y-161214285D01*
X210953333Y-161547619D01*
X210953333Y-161404761D01*
X211000952Y-161309523D01*
X211048571Y-161261904D01*
X211143810Y-161214285D01*
X211381905Y-161214285D01*
X211477143Y-161261904D01*
X211524762Y-161309523D01*
X211572381Y-161404761D01*
X211572381Y-161690476D01*
X211524762Y-161785714D01*
X211477143Y-161833333D01*
X216952381Y-162738095D02*
X215952381Y-162738095D01*
X215952381Y-162500000D01*
X216000000Y-162357142D01*
X216095238Y-162261904D01*
X216190476Y-162214285D01*
X216380952Y-162166666D01*
X216523810Y-162166666D01*
X216714286Y-162214285D01*
X216809524Y-162261904D01*
X216904762Y-162357142D01*
X216952381Y-162500000D01*
X216952381Y-162738095D01*
X216285714Y-161309523D02*
X216952381Y-161309523D01*
X215904762Y-161547619D02*
X216619048Y-161785714D01*
X216619048Y-161166666D01*
X199722381Y-157906666D02*
X199246190Y-158240000D01*
X199722381Y-158478095D02*
X198722381Y-158478095D01*
X198722381Y-158097142D01*
X198770000Y-158001904D01*
X198817619Y-157954285D01*
X198912857Y-157906666D01*
X199055714Y-157906666D01*
X199150952Y-157954285D01*
X199198571Y-158001904D01*
X199246190Y-158097142D01*
X199246190Y-158478095D01*
X199150952Y-157335238D02*
X199103333Y-157430476D01*
X199055714Y-157478095D01*
X198960476Y-157525714D01*
X198912857Y-157525714D01*
X198817619Y-157478095D01*
X198770000Y-157430476D01*
X198722381Y-157335238D01*
X198722381Y-157144761D01*
X198770000Y-157049523D01*
X198817619Y-157001904D01*
X198912857Y-156954285D01*
X198960476Y-156954285D01*
X199055714Y-157001904D01*
X199103333Y-157049523D01*
X199150952Y-157144761D01*
X199150952Y-157335238D01*
X199198571Y-157430476D01*
X199246190Y-157478095D01*
X199341429Y-157525714D01*
X199531905Y-157525714D01*
X199627143Y-157478095D01*
X199674762Y-157430476D01*
X199722381Y-157335238D01*
X199722381Y-157144761D01*
X199674762Y-157049523D01*
X199627143Y-157001904D01*
X199531905Y-156954285D01*
X199341429Y-156954285D01*
X199246190Y-157001904D01*
X199198571Y-157049523D01*
X199150952Y-157144761D01*
X205772381Y-158216666D02*
X205296190Y-158550000D01*
X205772381Y-158788095D02*
X204772381Y-158788095D01*
X204772381Y-158407142D01*
X204820000Y-158311904D01*
X204867619Y-158264285D01*
X204962857Y-158216666D01*
X205105714Y-158216666D01*
X205200952Y-158264285D01*
X205248571Y-158311904D01*
X205296190Y-158407142D01*
X205296190Y-158788095D01*
X205772381Y-157740476D02*
X205772381Y-157550000D01*
X205724762Y-157454761D01*
X205677143Y-157407142D01*
X205534286Y-157311904D01*
X205343810Y-157264285D01*
X204962857Y-157264285D01*
X204867619Y-157311904D01*
X204820000Y-157359523D01*
X204772381Y-157454761D01*
X204772381Y-157645238D01*
X204820000Y-157740476D01*
X204867619Y-157788095D01*
X204962857Y-157835714D01*
X205200952Y-157835714D01*
X205296190Y-157788095D01*
X205343810Y-157740476D01*
X205391429Y-157645238D01*
X205391429Y-157454761D01*
X205343810Y-157359523D01*
X205296190Y-157311904D01*
X205200952Y-157264285D01*
X211242381Y-158902857D02*
X210766190Y-159236191D01*
X211242381Y-159474286D02*
X210242381Y-159474286D01*
X210242381Y-159093333D01*
X210290000Y-158998095D01*
X210337619Y-158950476D01*
X210432857Y-158902857D01*
X210575714Y-158902857D01*
X210670952Y-158950476D01*
X210718571Y-158998095D01*
X210766190Y-159093333D01*
X210766190Y-159474286D01*
X211242381Y-157950476D02*
X211242381Y-158521905D01*
X211242381Y-158236191D02*
X210242381Y-158236191D01*
X210385238Y-158331429D01*
X210480476Y-158426667D01*
X210528095Y-158521905D01*
X210242381Y-157331429D02*
X210242381Y-157236190D01*
X210290000Y-157140952D01*
X210337619Y-157093333D01*
X210432857Y-157045714D01*
X210623333Y-156998095D01*
X210861429Y-156998095D01*
X211051905Y-157045714D01*
X211147143Y-157093333D01*
X211194762Y-157140952D01*
X211242381Y-157236190D01*
X211242381Y-157331429D01*
X211194762Y-157426667D01*
X211147143Y-157474286D01*
X211051905Y-157521905D01*
X210861429Y-157569524D01*
X210623333Y-157569524D01*
X210432857Y-157521905D01*
X210337619Y-157474286D01*
X210290000Y-157426667D01*
X210242381Y-157331429D01*
X216752381Y-158742857D02*
X216276190Y-159076191D01*
X216752381Y-159314286D02*
X215752381Y-159314286D01*
X215752381Y-158933333D01*
X215800000Y-158838095D01*
X215847619Y-158790476D01*
X215942857Y-158742857D01*
X216085714Y-158742857D01*
X216180952Y-158790476D01*
X216228571Y-158838095D01*
X216276190Y-158933333D01*
X216276190Y-159314286D01*
X216752381Y-157790476D02*
X216752381Y-158361905D01*
X216752381Y-158076191D02*
X215752381Y-158076191D01*
X215895238Y-158171429D01*
X215990476Y-158266667D01*
X216038095Y-158361905D01*
X216752381Y-156838095D02*
X216752381Y-157409524D01*
X216752381Y-157123810D02*
X215752381Y-157123810D01*
X215895238Y-157219048D01*
X215990476Y-157314286D01*
X216038095Y-157409524D01*
X230610000Y-155596667D02*
X230376666Y-155263333D01*
X230210000Y-155596667D02*
X230210000Y-154896667D01*
X230476666Y-154896667D01*
X230543333Y-154930000D01*
X230576666Y-154963333D01*
X230610000Y-155030000D01*
X230610000Y-155130000D01*
X230576666Y-155196667D01*
X230543333Y-155230000D01*
X230476666Y-155263333D01*
X230210000Y-155263333D01*
X231276666Y-155596667D02*
X230876666Y-155596667D01*
X231076666Y-155596667D02*
X231076666Y-154896667D01*
X231010000Y-154996667D01*
X230943333Y-155063333D01*
X230876666Y-155096667D01*
X231543333Y-154963333D02*
X231576667Y-154930000D01*
X231643333Y-154896667D01*
X231810000Y-154896667D01*
X231876667Y-154930000D01*
X231910000Y-154963333D01*
X231943333Y-155030000D01*
X231943333Y-155096667D01*
X231910000Y-155196667D01*
X231510000Y-155596667D01*
X231943333Y-155596667D01*
X221487143Y-156652381D02*
X221153809Y-156176190D01*
X220915714Y-156652381D02*
X220915714Y-155652381D01*
X221296667Y-155652381D01*
X221391905Y-155700000D01*
X221439524Y-155747619D01*
X221487143Y-155842857D01*
X221487143Y-155985714D01*
X221439524Y-156080952D01*
X221391905Y-156128571D01*
X221296667Y-156176190D01*
X220915714Y-156176190D01*
X222439524Y-156652381D02*
X221868095Y-156652381D01*
X222153809Y-156652381D02*
X222153809Y-155652381D01*
X222058571Y-155795238D01*
X221963333Y-155890476D01*
X221868095Y-155938095D01*
X222772857Y-155652381D02*
X223391905Y-155652381D01*
X223058571Y-156033333D01*
X223201429Y-156033333D01*
X223296667Y-156080952D01*
X223344286Y-156128571D01*
X223391905Y-156223810D01*
X223391905Y-156461905D01*
X223344286Y-156557143D01*
X223296667Y-156604762D01*
X223201429Y-156652381D01*
X222915714Y-156652381D01*
X222820476Y-156604762D01*
X222772857Y-156557143D01*
X230550000Y-157626667D02*
X230316666Y-157293333D01*
X230150000Y-157626667D02*
X230150000Y-156926667D01*
X230416666Y-156926667D01*
X230483333Y-156960000D01*
X230516666Y-156993333D01*
X230550000Y-157060000D01*
X230550000Y-157160000D01*
X230516666Y-157226667D01*
X230483333Y-157260000D01*
X230416666Y-157293333D01*
X230150000Y-157293333D01*
X231216666Y-157626667D02*
X230816666Y-157626667D01*
X231016666Y-157626667D02*
X231016666Y-156926667D01*
X230950000Y-157026667D01*
X230883333Y-157093333D01*
X230816666Y-157126667D01*
X231816667Y-157160000D02*
X231816667Y-157626667D01*
X231650000Y-156893333D02*
X231483333Y-157393333D01*
X231916667Y-157393333D01*
X221437143Y-158602381D02*
X221103809Y-158126190D01*
X220865714Y-158602381D02*
X220865714Y-157602381D01*
X221246667Y-157602381D01*
X221341905Y-157650000D01*
X221389524Y-157697619D01*
X221437143Y-157792857D01*
X221437143Y-157935714D01*
X221389524Y-158030952D01*
X221341905Y-158078571D01*
X221246667Y-158126190D01*
X220865714Y-158126190D01*
X222389524Y-158602381D02*
X221818095Y-158602381D01*
X222103809Y-158602381D02*
X222103809Y-157602381D01*
X222008571Y-157745238D01*
X221913333Y-157840476D01*
X221818095Y-157888095D01*
X223294286Y-157602381D02*
X222818095Y-157602381D01*
X222770476Y-158078571D01*
X222818095Y-158030952D01*
X222913333Y-157983333D01*
X223151429Y-157983333D01*
X223246667Y-158030952D01*
X223294286Y-158078571D01*
X223341905Y-158173810D01*
X223341905Y-158411905D01*
X223294286Y-158507143D01*
X223246667Y-158554762D01*
X223151429Y-158602381D01*
X222913333Y-158602381D01*
X222818095Y-158554762D01*
X222770476Y-158507143D01*
X230530000Y-159726667D02*
X230296666Y-159393333D01*
X230130000Y-159726667D02*
X230130000Y-159026667D01*
X230396666Y-159026667D01*
X230463333Y-159060000D01*
X230496666Y-159093333D01*
X230530000Y-159160000D01*
X230530000Y-159260000D01*
X230496666Y-159326667D01*
X230463333Y-159360000D01*
X230396666Y-159393333D01*
X230130000Y-159393333D01*
X231196666Y-159726667D02*
X230796666Y-159726667D01*
X230996666Y-159726667D02*
X230996666Y-159026667D01*
X230930000Y-159126667D01*
X230863333Y-159193333D01*
X230796666Y-159226667D01*
X231796667Y-159026667D02*
X231663333Y-159026667D01*
X231596667Y-159060000D01*
X231563333Y-159093333D01*
X231496667Y-159193333D01*
X231463333Y-159326667D01*
X231463333Y-159593333D01*
X231496667Y-159660000D01*
X231530000Y-159693333D01*
X231596667Y-159726667D01*
X231730000Y-159726667D01*
X231796667Y-159693333D01*
X231830000Y-159660000D01*
X231863333Y-159593333D01*
X231863333Y-159426667D01*
X231830000Y-159360000D01*
X231796667Y-159326667D01*
X231730000Y-159293333D01*
X231596667Y-159293333D01*
X231530000Y-159326667D01*
X231496667Y-159360000D01*
X231463333Y-159426667D01*
X230550000Y-161806667D02*
X230316666Y-161473333D01*
X230150000Y-161806667D02*
X230150000Y-161106667D01*
X230416666Y-161106667D01*
X230483333Y-161140000D01*
X230516666Y-161173333D01*
X230550000Y-161240000D01*
X230550000Y-161340000D01*
X230516666Y-161406667D01*
X230483333Y-161440000D01*
X230416666Y-161473333D01*
X230150000Y-161473333D01*
X231216666Y-161806667D02*
X230816666Y-161806667D01*
X231016666Y-161806667D02*
X231016666Y-161106667D01*
X230950000Y-161206667D01*
X230883333Y-161273333D01*
X230816666Y-161306667D01*
X231616667Y-161406667D02*
X231550000Y-161373333D01*
X231516667Y-161340000D01*
X231483333Y-161273333D01*
X231483333Y-161240000D01*
X231516667Y-161173333D01*
X231550000Y-161140000D01*
X231616667Y-161106667D01*
X231750000Y-161106667D01*
X231816667Y-161140000D01*
X231850000Y-161173333D01*
X231883333Y-161240000D01*
X231883333Y-161273333D01*
X231850000Y-161340000D01*
X231816667Y-161373333D01*
X231750000Y-161406667D01*
X231616667Y-161406667D01*
X231550000Y-161440000D01*
X231516667Y-161473333D01*
X231483333Y-161540000D01*
X231483333Y-161673333D01*
X231516667Y-161740000D01*
X231550000Y-161773333D01*
X231616667Y-161806667D01*
X231750000Y-161806667D01*
X231816667Y-161773333D01*
X231850000Y-161740000D01*
X231883333Y-161673333D01*
X231883333Y-161540000D01*
X231850000Y-161473333D01*
X231816667Y-161440000D01*
X231750000Y-161406667D01*
X221417143Y-162662381D02*
X221083809Y-162186190D01*
X220845714Y-162662381D02*
X220845714Y-161662381D01*
X221226667Y-161662381D01*
X221321905Y-161710000D01*
X221369524Y-161757619D01*
X221417143Y-161852857D01*
X221417143Y-161995714D01*
X221369524Y-162090952D01*
X221321905Y-162138571D01*
X221226667Y-162186190D01*
X220845714Y-162186190D01*
X222369524Y-162662381D02*
X221798095Y-162662381D01*
X222083809Y-162662381D02*
X222083809Y-161662381D01*
X221988571Y-161805238D01*
X221893333Y-161900476D01*
X221798095Y-161948095D01*
X222845714Y-162662381D02*
X223036190Y-162662381D01*
X223131429Y-162614762D01*
X223179048Y-162567143D01*
X223274286Y-162424286D01*
X223321905Y-162233810D01*
X223321905Y-161852857D01*
X223274286Y-161757619D01*
X223226667Y-161710000D01*
X223131429Y-161662381D01*
X222940952Y-161662381D01*
X222845714Y-161710000D01*
X222798095Y-161757619D01*
X222750476Y-161852857D01*
X222750476Y-162090952D01*
X222798095Y-162186190D01*
X222845714Y-162233810D01*
X222940952Y-162281429D01*
X223131429Y-162281429D01*
X223226667Y-162233810D01*
X223274286Y-162186190D01*
X223321905Y-162090952D01*
M02*
