M48
;DRILL file {KiCad 4.0.4-stable} date 03/01/18 20:46:00
;FORMAT={-:-/ absolute / inch / decimal}
FMAT,2
INCH,TZ
T1C0.012
T2C0.016
T3C0.020
T4C0.022
T5C0.026
T6C0.031
T7C0.032
T8C0.039
T9C0.040
T10C0.053
T11C0.059
%
G90
G05
M72
T1
X9.3654Y-5.1858
T2
X6.9339Y-4.7067
X7.1543Y-4.9114
X7.1843Y-4.611
X7.2213Y-4.4705
X7.3787Y-5.2146
X7.4083Y-4.8791
X7.6543Y-5.0098
X7.7409Y-5.2618
X7.9142Y-6.4587
X8.0559Y-5.0256
X8.0638Y-5.2854
X8.0795Y-4.6358
X8.0913Y-4.7972
X8.1504Y-6.4626
X8.2724Y-5.6319
X8.2854Y-5.2272
X8.2866Y-5.276
X8.2882Y-5.0728
X8.3709Y-6.4547
X8.3854Y-5.3484
X8.4172Y-5.343
X8.4181Y-5.0728
X8.4224Y-5.165
X8.4256Y-5.1291
X8.4457Y-4.2697
X8.4484Y-5.3528
X8.4547Y-5.0091
X8.489Y-5.0846
X8.491Y-5.3708
X8.4989Y-5.5366
X8.5165Y-5.1634
X8.5244Y-5.3416
X8.5409Y-5.6319
X8.5441Y-4.8602
X8.548Y-4.5965
X8.5835Y-6.4587
X8.6346Y-5.0295
X8.6386Y-4.5925
X8.6697Y-6.3866
X8.6772Y-6.1181
X8.6839Y-6.2685
X8.7307Y-6.2646
X8.7335Y-6.3512
X8.7469Y-5.5346
X8.7835Y-5.8299
X8.8425Y-5.2512
X8.8433Y-4.1831
X8.8433Y-5.6201
X8.8496Y-5.7232
X8.8665Y-6.0913
X8.8831Y-5.7449
X8.8866Y-5.0059
X8.9165Y-5.7154
X8.9717Y-6.0547
X8.9894Y-6.1941
X9.0008Y-4.9705
X9.2134Y-4.7343
X9.426Y-4.9272
T3
X8.9181Y-4.565
X9.211Y-5.2787
X9.2811Y-5.4138
T5
X8.387Y-4.1171
X8.387Y-4.1671
X8.437Y-4.1171
X8.437Y-4.1671
X8.487Y-4.1171
X8.487Y-4.1671
X8.537Y-4.1171
X8.537Y-4.1671
X8.587Y-4.1171
X8.587Y-4.1671
T6
X6.9425Y-4.3528
X7.0213Y-4.3528
X7.1Y-4.3528
T7
X7.5697Y-4.3882
X7.5697Y-4.4882
X7.5697Y-4.5882
X7.8994Y-4.3846
X7.8994Y-4.4846
X7.8994Y-4.5846
T8
X9.3193Y-6.0252
X9.3193Y-6.1252
X9.3193Y-6.2252
X9.3193Y-6.3252
X9.3193Y-6.4252
X9.3193Y-6.5252
X9.4193Y-6.0252
X9.4193Y-6.1252
X9.4193Y-6.2252
X9.4193Y-6.3252
X9.4193Y-6.4252
X9.4193Y-6.5252
T9
X6.6907Y-6.1238
X6.6907Y-6.2238
X6.6907Y-6.3238
X6.6907Y-6.4238
T10
X6.4154Y-4.6217
X6.4154Y-4.7594
X6.4161Y-5.3047
X6.4161Y-5.4425
T11
X6.8598Y-4.3528
X7.1827Y-4.3528
T3
X9.6189Y-4.8415G85X9.5933Y-4.8415
G05
X9.6189Y-5.1171G85X9.5933Y-5.1171
G05
T4
X9.4998Y-4.8868G85X9.4998Y-4.875
G05
X9.4998Y-5.0837G85X9.4998Y-5.0719
G05
T0
M30
